<svg xmlns="http://www.w3.org/2000/svg" width="650" height="295" viewBox="0 0 650 295"><defs><style>.cls-1{fill:#00ae22;}.cls-2{fill:#fff;}</style></defs><title>joho_matome</title><g id="レイヤー_3" data-name="レイヤー 3"><path class="cls-1" d="M112.79,84.27V97.48c0,6-3.51,6.48-7.37,6.48-7,0-8.2-1.23-8.2-7.79v-.84h4.29c0,.42,0,2.32,0,2.72.07,1.58,1,1.86,3.13,1.86,2.78,0,3.89,0,3.89-2.5V84.27Z"/><path class="cls-1" d="M129.38,84.27c2.17,0,5.09.57,5.09,5.42,0,1.48-.07,4.06-2.66,5,1.67.42,2.38,1.65,2.38,3.53V100a13.41,13.41,0,0,0,.45,3.78h-4.36a14.25,14.25,0,0,1-.31-3V98.94c0-2.2-1.15-2.22-2.31-2.22h-5.51v7h-4.22V84.27Zm-7.23,4.06v4.45h6.13c1.29,0,2-.44,2-2.45,0-1.6-.8-2-2-2Z"/><path class="cls-1" d="M142.16,103.24a14.45,14.45,0,0,1-1.11,3l-3.46-2.87c.52-1.11,1.67-3.51,1.67-9.1V84h8.27V82.49h4V84h8.69v3.61h-6.34v1.06h5.56V96h-4.87v1.71a15.67,15.67,0,0,0,4-1.36l1.58,3.16a27.8,27.8,0,0,1-5.6,1.54V102c0,.49.23.52.54.52h1.29c.45,0,.78-.08.76-2l3.27.65c-.09,2.72-.3,4.92-2.8,4.92h-4.53a2.07,2.07,0,0,1-2.14-2.25V96h-3.49v1.14h2.88v3.19h-2.88v1.76l2.88-.32v3.33c-2.5.43-6.22.8-8.18.92ZM143.88,96h-.82a36.56,36.56,0,0,1-.71,6.38l1.53-.05Zm-.82-8.43v1.06h2V87.59Zm0,4.1V93h2V91.69Zm5.41-4.1v1.06h2V87.59Zm0,4.1V93h2V91.69Zm5.42,0V93h1.91V91.69Z"/><path class="cls-1" d="M173.17,96.34c-.61,6.43-3.58,8.66-8.5,9.92l-1.6-4.13c4.52-.89,5.84-2.2,6.26-6.13Zm-8.69-.17V82.57h4v13.6Zm5.84-12.94h14.35V95.48H170.32Zm3.91,3.39v1.14h6.58V86.62Zm0,4.26v1.21h6.58V90.88Zm5,5.27v5.26c0,.6.33.6.69.6h1.36a.66.66,0,0,0,.62-.65c.11-.76.16-1.7.21-2.81l3.67.86c-.23,4.38-.37,6.53-2.85,6.53h-5.44a2,2,0,0,1-2.19-2.08V96.15Z"/><path class="cls-1" d="M194.45,101.91V99.26h-4V84.05h6.93a8.17,8.17,0,0,0,.4-1.51h4.62a11.62,11.62,0,0,1-.62,1.51H209v8.24H194.27v.79h16.94v2.67H194.27v.79h16.39a48.26,48.26,0,0,1-.63,7.37c-.59,2.23-2.17,2.23-3.54,2.23H204l-.45-1.76v.7H193v.76h-3.87V99.91H193v2Zm-.18-15.48v.89H205.1v-.89Zm0,2.79v.89H205.1v-.89Zm5.58,12.69v-2h3.7v2.54h1.81c.83,0,1.18,0,1.27-3.19h-8.41v2.65Z"/><path class="cls-1" d="M219.58,100.05a22.91,22.91,0,0,1-3.35,3.17L214,99.06a22.6,22.6,0,0,0,7.94-9.22h-7.52v-4h9.17V82.52h3.93v3.36h9.24v4h-7.66c1.13,2.82,4.15,6.58,8.08,9.2l-2.31,4.18a18.87,18.87,0,0,1-3.44-3.14v2.2h-4v3.93h-3.84v-3.93h-4Zm4-1.58V94.09a21.68,21.68,0,0,1-2.71,4.38Zm6.55,0a27.75,27.75,0,0,1-2.71-4.38v4.38Z"/><path class="cls-1" d="M242.53,97.38a37.17,37.17,0,0,1-.8,7.7l-2.31-2c.5-1.75.52-2,.73-5.93ZM248.89,96l-2.09.74a9,9,0,0,0-.12-1,5.57,5.57,0,0,0-.66.1v10.24h-3V96.27c-2,.25-2.42.27-3.06.3L239.73,93l1.32,0c.33-.44.7-1,1-1.36a21.71,21.71,0,0,0-2.56-2.82l1.46-3.64c.11.13.28.25.44.42a21.34,21.34,0,0,0,1.28-3l3.18.74a37.91,37.91,0,0,1-2.36,4.53c.19.2.4.47.57.67A34.72,34.72,0,0,0,246,85l2.95,1.28a48.42,48.42,0,0,1-3.14,4.85l2.15-.72A23.2,23.2,0,0,1,249,93.5V84.25h4a13.55,13.55,0,0,0,.47-1.71l4.12.23c-.21.59-.38,1.06-.54,1.48h4.55v9.92H257a11.49,11.49,0,0,0,1,2.25,11.43,11.43,0,0,0,1.69-2.15l2.81,2.32a21.52,21.52,0,0,1-2.64,2.5,13.78,13.78,0,0,0,2.73,2.55l-1.86,3.88A11.93,11.93,0,0,1,257,100.4v3.41c0,1.44-.26,2.28-1.91,2.28h-3.37l-.47-3a8,8,0,0,1-2.1,2.57l-2-2.59a2,2,0,0,0,.21-.18l-.59.15a56.47,56.47,0,0,0-.28-5.69L248.7,97c.12,1,.31,2.54.38,4a9.28,9.28,0,0,0,1.18-2.45h-1.37Zm-4.36-3.29,1.54-.1c-.07-.22-.36-1.18-.4-1.38C245,92.19,244.72,92.49,244.53,92.73Zm9,2.4v-1h-4.27c.14.54.19.71.24,1Zm-.73,7.1c.59,0,.73-.17.73-.74V96.25a18.31,18.31,0,0,1-1.77,6Zm-.07-15.16v1.09h5.2V87.07Zm0,3.29v1.16h5.2V90.36Z"/><path class="cls-1" d="M285.35,80.1H278.1v26.37h-5.38v-32h12.63Z"/><path class="cls-1" d="M302.12,88.49V84.14H289.55V78.29h12.57V74.42h5.74v3.87h12.73v5.85H307.86v4.35h10.05v18.63h-5.67v-1.54H297.87v1.54h-5.71V88.49Zm-4.25,5.69v5.68h14.37V94.18Z"/><path class="cls-1" d="M327.5,87.57c-.52.34-.65.44-1.14.72l-2.06-5.21a9.24,9.24,0,0,0,3.53-3h-3V75.86h4.51c.06-.62.1-1,.13-1.65l5.22.21c-.07.58-.1.92-.16,1.44h6.2c-.07,4.55-.16,8.87-2,10.13H353v15.28h-5.1a28.25,28.25,0,0,0,8.13,1.36l-2.22,4.73a34,34,0,0,1-11.29-3.22l2.77-2.87H335.11l2.54,2.91a35.36,35.36,0,0,1-11.09,3.15l-2.13-4.7a31.3,31.3,0,0,0,8.65-1.36H327.5ZM332.79,86l-.59-3.25A16.23,16.23,0,0,1,329.53,86Zm1.63-3.73c1.05,0,1.11-.61,1.24-2.19h-2.15a13.54,13.54,0,0,1-1,2.19Zm-1.56,7v1.1h14.81v-1.1Zm0,3.67v1.13h14.81V93Zm0,3.73v1.13h14.81V96.71ZM342,75.28h12.93v9.58H342Zm4.8,3.8v2h3.14v-2Z"/><path class="cls-1" d="M372.63,107.05H360V101.4h7.25V75h5.38Z"/><path class="cls-1" d="M386.73,96.54a31.94,31.94,0,0,1-1.05,9.52l-2.35-2c.56-1.74.95-3.25,1.08-7.63Zm7.11-.41a22.5,22.5,0,0,1,.62,4c.1-1,.17-4.25.2-5H385V75.34h13.77v4.28h-3.46v1.44h2.91v3.32h-2.91v1.51h2.91v3.6h-2.91V91.1h3.46c-.07.75-.13,4.51-.16,5.37,0,.55-.13,2.88-.43,5.27a28.85,28.85,0,0,0,1.93-10.06V75.34h14.33V92h-3.14a19.79,19.79,0,0,0,4.25,9.62l-3.2,5.72c-2.55-2.81-4.74-6.3-5.84-15.34h-1.54v.65c0,9-2.12,12.71-3.33,14.69l-3.78-3.53c-.56,2.09-1.6,3.33-4.67,3.33h-2.45l-1.08-4.35h3.1c1.38,0,1.44-.28,1.64-1.92l-1.38.31c-.06-1.06-.26-3.32-.48-4.76Zm-4.57.41c.1,2,.13,2.91.13,3.66s0,2.13-.09,3.29l-2.12.24a51,51,0,0,0,.39-5.51,11.06,11.06,0,0,0-.1-1.61Zm.33-16.92v1.44h1.8V79.62Zm0,4.76v1.51h1.8V84.38Zm0,5.11V91.1h1.8V89.49Zm2.12,6.91a33.44,33.44,0,0,1,.43,5.24l-2,.28a21.26,21.26,0,0,0,.13-2.33,18.78,18.78,0,0,0-.23-3ZM405.1,80.82v6h4.21v-6Z"/><path class="cls-1" d="M418.74,79.49a14.09,14.09,0,0,0,4.83-5.31l5.06,1.54a29.61,29.61,0,0,1-7.77,9.59Zm8,24.21V107h-5.16V95.61c-.59.55-.91.83-1.5,1.34l-1.34-7.19a26.28,26.28,0,0,0,6.53-7.6l4,2.64H437V82.43h-7.21v-5.2H437V74.39h5.29v2.84h7.21v5.2h-7.21V84.8h8V90h-8v2.33H449v5.2h-6.75V101c.65,0,1.79.1,3.52.1,2.09,0,3.5-.07,4.87-.14l-1.08,5.41c-10.31.11-13.12-.17-16.55-4.21a17.56,17.56,0,0,1-3.23,5.21Zm8.45-12a39.82,39.82,0,0,1-.65,5,7.55,7.55,0,0,0,2.38,2.6V90H429V86.16a25.72,25.72,0,0,1-2.25,3.6V102.5c1.21-1.37,3.13-4.08,3.62-11.2Z"/><path class="cls-1" d="M455.58,101.61c2.09,0,10.8-.07,15.41-2.43a3.21,3.21,0,0,1-1,.13h-6.27l-.85-4.62a20.81,20.81,0,0,1-5.16,4.11l-3.42-4.52a21.14,21.14,0,0,0,6.85-5.44h-6.53V83.67H459V76h5.35v7.71h3.3V74.56H473v2.15h10.12v5H473v1.92h12.5v5.17h-6.1a31.19,31.19,0,0,0,6.69,5.61l-3.43,4.45a33.6,33.6,0,0,1-7.9-7.67l3.46-2.39H473V96a3.23,3.23,0,0,1-.78,2.39,15.38,15.38,0,0,0,4.11-4.14l3.85,3.77c-2.42,3.22-7.25,8.8-22.85,9.21ZM465.8,91.23a15.16,15.16,0,0,1-2.55,3.08h3.46c1,0,1-.92,1-1.23V88.84h-5.55Z"/><path class="cls-1" d="M510.7,76.78V93.12h3.91v5.61H510.7v5h-5.84v-5H489.94v-6l12.57-16Zm-5.84,4.83L496,93.12h8.91Z"/><path class="cls-1" d="M523.91,89.21c-.78.72-1.27,1.13-2,1.75l-3.53-5.27a21.17,21.17,0,0,0,9-11.41l5.36,1.06a32.33,32.33,0,0,1-5.52,10.31h14.52a42,42,0,0,1-5.45-10.13l5.36-1.31c1.73,4.08,4.3,8.6,9,11.82L547,91a22.87,22.87,0,0,1-1.8-1.47c-.23,5.82-.45,12.15-1.53,14.79a3.84,3.84,0,0,1-4.15,2.81h-6.1l-1.08-5.69h4.83a1.61,1.61,0,0,0,1.47-.79c.26-.54.79-3.63,1-9.51h-5.55c-1,8.59-5.48,13-12.17,16.09l-3.17-5.45c8.55-3,9.57-7.8,9.79-10.64h-4.63Z"/><rect class="cls-1" x="56.71" y="125.29" width="536.57" height="53.21" rx="23.62"/><path class="cls-1" d="M248.66,41.74V36.28H235.15V32h13.51V27.42h4.25V32h13.62v4.29H252.91v5.46H263.4V59.9h-4.26V58.12H242.53V59.9h-4.22V41.74Zm-6.13,4.12v8.07h16.61V45.86Z"/><path class="cls-1" d="M276.88,29.24c.1-.72.16-1.23.23-1.95l3.72.07a13.23,13.23,0,0,1-.2,1.88h6.6c-.27,7-.93,9.89-3.79,9.89h-3.73l-.59-3.57H282c1.12,0,1.22-.48,1.49-3h-3.56a12.69,12.69,0,0,1-6.79,7.49l-1.78-3.61a8.83,8.83,0,0,0,4.51-3.88h-4.25V29.24Zm4.71,25.2,2,2.41a34.12,34.12,0,0,1-10.58,3l-1.55-3.54a30.83,30.83,0,0,0,8.77-1.89H274.8V39.75h24.62V54.44h-5.54a25.59,25.59,0,0,0,8.87,1.79L301.1,60a32.1,32.1,0,0,1-11-3.09l2.11-2.44Zm-2.77-12V44h16.61V42.46Zm0,3.71v1.58h16.61V46.17Zm0,3.81v1.61h16.61V50Zm10.25-21.49h12.62v9.58H289.07Zm3.69,3.19V35H298v-3.3Z"/><path class="cls-1" d="M338.87,35H325.36v3.29h11V53.62c0,3.12-2,3.64-3,3.64h-5l-.76-4.43h3.89c.73,0,.76-.31.76-.93V42.39h-6.89V59.83h-4.15V42.39h-6.63V57.57h-4.15V38.27h10.78V35H307.86V30.79h13.35v-3.3h4.15v3.3h13.51Z"/><path class="cls-1" d="M346.75,49.29a40.1,40.1,0,0,1-.95,9.07L343.56,57a27.07,27.07,0,0,0,1.05-7.72Zm10.65,7.76a4,4,0,0,1-3.79,2.82h-3.79l-.69-3.5h3.69c.72,0,1.09,0,1.51-.86.53-1.1.86-5,.86-8H344.91V28.56h13.84v3.26h-4.22V34h3.56v2.78h-3.56V39h3.56v2.85h-3.56v2.44h4.09a60.26,60.26,0,0,1-1,11.87c1.65-2.54,2.8-6.55,2.8-11.67v-16h13.84V44.08h-4a20.93,20.93,0,0,0,5.27,11.7l-2.44,4.16c-3.36-3.54-5.73-9.07-6.46-15.86h-2.37v.82c0,5-1,11-4,15Zm-8.17-7.76c.16,2.24.19,4.19.16,6.53l-1.94.24c.19-2.1.19-4.53.19-4.84a16.59,16.59,0,0,0-.1-1.89Zm-.66-17.47V34h2.76V31.82Zm0,4.94V39h2.76V36.76Zm0,5.12v2.44h2.76V41.88Zm3.09,7.17a39.18,39.18,0,0,1,.5,5.67l-1.68.27a30.44,30.44,0,0,0-.33-5.66Zm2.18-.31a26.76,26.76,0,0,1,.63,4.71l-1.42.27a22.92,22.92,0,0,0-.5-4.77Zm10.41-16.13v7.55h6.14V32.61Z"/><path class="cls-1" d="M411.32,33.88H397.91v1.68h11.4V49h-8.44a29.68,29.68,0,0,0,11,6.08l-2.37,4.25a32.44,32.44,0,0,1-11.57-8.55v9h-4v-9a30.2,30.2,0,0,1-11.67,8.65l-2.37-4.18c7.21-2.72,9.75-5.08,11.1-6.32h-8.37V35.56h11.31V33.88H380.41V30.07h13.48V27.49h4v2.58h13.41Zm-24.88,7h7.45v-2.1h-7.45Zm0,5h7.45V43.77h-7.45Zm11.47-7.11v2.1h7.51v-2.1Zm0,5v2.09h7.51V43.77Z"/><path d="M232.39,204.3h1.44v17.77h3.95v1.12h-3.95v4.06c0,1.54.77,2.14,2.45,2.14h.56v1.12H228v-1.12h.56c1.64,0,2.45-.56,2.45-2.14v-4.06h-9.41V222ZM231,208.92l-8.08,13.15H231Z"/><path d="M251.67,206.12h-1.22a2.24,2.24,0,0,0-2.48,2.41V227a2.25,2.25,0,0,0,2.48,2.42h.94a10.61,10.61,0,0,0,9.49-5.78l.91.46-2.49,6.44H241.49v-1.12h1.19A2.27,2.27,0,0,0,245.2,227V208.53a2.26,2.26,0,0,0-2.52-2.41h-1.19V205h10.18Z"/><path d="M266.06,205h10c8.18,0,13.26,4.2,13.26,12.6,0,6-3.15,12.95-12.95,12.95H266.06v-1.12h1.19a2.25,2.25,0,0,0,2.51-2.42V208.53a2.25,2.25,0,0,0-2.51-2.41h-1.19Zm6.47,22a2.25,2.25,0,0,0,2.48,2.42h1.68c6.34,0,9.52-5.67,9.52-12.11,0-4.44-1.82-11.16-9.38-11.16H275a2.24,2.24,0,0,0-2.48,2.41Z"/><path d="M306.36,214.76l7.77,12.42a5,5,0,0,0,4.13,2.21h.49v1.12h-9.9v-1.12h.84a1.28,1.28,0,0,0,1.4-1.16,2.84,2.84,0,0,0-.49-1.43l-6.2-9.9-3.32,3.6V227a2.28,2.28,0,0,0,2.52,2.42h1v1.12h-9.73v-1.12h1a2.25,2.25,0,0,0,2.49-2.42V208.53a2.25,2.25,0,0,0-2.49-2.41h-1V205h9.73v1.16h-1a2.27,2.27,0,0,0-2.52,2.41v10.32l9.55-10.42a1.75,1.75,0,0,0,.46-1.12c0-1-1.09-1.19-1.86-1.19h-.91V205h9.87v1.16h-.63a6.85,6.85,0,0,0-5.6,2.52Z"/><path d="M323.68,221h6.05v-6H331v6h6.08v1.25H331v6h-1.25v-6h-6.05Z"/><path d="M367.18,213.44c-1.39,0-2,.8-2.28,2.05L361,231h-.59l-3.94-14-4.24,14h-.51l-4-15.53c-.44-1.71-1.17-2-2-2h-.61v-.81h6.46v.81H351c-1,0-1.42.36-1.42,1.12a3.87,3.87,0,0,0,.22,1.23l2.89,11.12,3.43-11.34c-.47-1.47-.83-2.13-2.13-2.13h-.52v-.81h6.62v.81h-.86a1.07,1.07,0,0,0-1.23,1.17,5.12,5.12,0,0,0,.25,1.42l3,10.78,2.81-11.22a4.19,4.19,0,0,0,.15-1c0-.89-.81-1.2-1.49-1.2h-.79v-.81h5.71v.81Z"/><path d="M377.55,229.18a1.43,1.43,0,0,1-1.42,1.42,1.42,1.42,0,1,1,0-2.84A1.43,1.43,0,0,1,377.55,229.18Z"/><path d="M384.23,230.51v-.79h1.18a1.57,1.57,0,0,0,1.74-1.69v-12.9a1.57,1.57,0,0,0-1.74-1.69h-1.18v-.81H392v.81h-1.18a1.55,1.55,0,0,0-1.73,1.69V228a1.57,1.57,0,0,0,1.73,1.69H392v.79Z"/><path d="M401.57,229.18a1.42,1.42,0,1,1-1.42-1.42A1.42,1.42,0,0,1,401.57,229.18Z"/><path d="M422.44,217c-.88-1.37-2.67-4-5.93-4-3.94,0-5.87,4-5.87,8.25,0,4.75,2.32,8.62,6.44,8.62,3.48,0,5.16-3.18,5.83-4.43l.63.39c-.93,1.89-2.67,5.17-7.22,5.17-5.17,0-7.69-4.19-7.69-9,0-5.73,3.55-9.8,7.71-9.8a7.47,7.47,0,0,1,2.06.3c.17,0,1.32.36,1.47.36a3.45,3.45,0,0,0,1.64-.58l1.74,4.4Z"/><path d="M56.59,254.72l.85-1.12c.13-.16.19-.25.31-.25s.15.05.4.23l1.39,1.1a.45.45,0,0,1,.2.33c0,.19-.18.21-.33.21h-6.9c0,.68,0,3.67,0,4.27,0,.21,0,4.52,0,5.12H58l1-1.12c.14-.16.2-.24.31-.24s.19.06.39.22l1.37,1.1c.1.09.21.19.21.31s-.19.23-.31.23H45.39a14.41,14.41,0,0,0-2.44.19l-.42-.83c1.39.12,2.8.14,3.2.14H51c0-.18,0-4.58,0-5.06v-4.33H46.62a14.51,14.51,0,0,0-2.45.19l-.42-.81c1.39.1,2.8.12,3.2.12h4c0-4.7,0-5.24-.52-6.76l2.51.67c.21.06.34.1.34.29a.39.39,0,0,1-.19.31c-.09.08-.48.39-.6.47,0,1.68,0,3.34,0,5Z"/><path d="M73,254.85H70.53v6.67c1.68-.49,2.16-.68,2.63-.85l.09.17a21.94,21.94,0,0,1-3,1.76l-2.55,1.29c-.19.43-.27.66-.52.66a.45.45,0,0,1-.33-.25l-1.08-1.84c.7,0,1.06.08,3.4-.56,0-.71,0-3.86,0-4.5v-2.55h-.41a14.6,14.6,0,0,0-2.45.18L66,254.2c1.22.11,2.46.15,3.25.15,0-1,0-2.07,0-3.11a11.47,11.47,0,0,0-.27-3.07l2.1.71c.1,0,.29.12.29.31s-.42.56-.71.74c0,1.45,0,2.16-.06,4.42H71l.62-.68c.19-.21.25-.27.35-.27s.25.14.35.22l.73.69c.1.1.19.18.19.31S73.08,254.85,73,254.85Zm9.27,10.61c-.47.09-4.14.09-4.72.09-3.4,0-4-.17-4-2.43,0-.81.07-4.37.07-5.1,0-.21,0-1.14,0-1.33a11.54,11.54,0,0,0-2,1.1l-.7-.58a28.87,28.87,0,0,0,2.72-1.08v-3.67a10.85,10.85,0,0,0-.23-2.4l1.93.66c.14,0,.31.13.31.29s-.17.33-.67.68c0,.63,0,3.32,0,3.86l2.26-1c0-2.08,0-3.55,0-5a14.16,14.16,0,0,0-.25-1.83l2,.67c.21.06.36.16.36.31s-.3.43-.73.77c0,1.86,0,2.13,0,4.5l2-.9.5-.83c.1-.16.21-.35.35-.35a.72.72,0,0,1,.39.17l1,.6a.44.44,0,0,1,.21.33c0,.25-.23.46-.52.73,0,6.22,0,7.65-2.47,8.29a2.64,2.64,0,0,0-1.24-1.74v-.1a4.57,4.57,0,0,0,.64,0c1.45,0,1.68-.19,1.68-4.56,0-1.41,0-1.64,0-2.24l-2.47,1.12c0,3,0,5,.06,5.59,0,.27.06,1.5.06,1.75a1,1,0,0,1-1,1c-.29,0-.5-.1-.5-.54,0-.22.06-1.28.06-1.49,0-1.33,0-2.11.06-5.76l-2.26,1c0,.83,0,7.2,0,7.45a.69.69,0,0,0,.5.58c.27.08,3.24.08,3.63.08,2.14,0,2.78,0,3.21-.77a18,18,0,0,0,.92-2.51h.14a7.32,7.32,0,0,0,.39,2.47c.13.21.48.4.48.6S83.78,265.19,82.22,265.46Z"/><path d="M96,252.81a22.58,22.58,0,0,0,1.22-3.46H91.81a14,14,0,0,0-2.45.19l-.41-.83c1,.08,2.11.14,3.19.14H104.5l.91-.89c.17-.16.33-.31.39-.31s.19.06.4.23l1.16.93c.08.07.21.19.21.31s-.21.23-.34.23H99.17a36.1,36.1,0,0,1-2.68,3.46H104l.58-.6c.21-.2.27-.27.4-.27a.88.88,0,0,1,.37.21l1,.81a.38.38,0,0,1,.17.27c0,.19-.08.25-.83.66,0,2.35,0,5.31,0,7.66,0,1,.1,2.5.1,3.46a.92.92,0,0,1-1,1c-.62,0-.62-.33-.58-1.51H92.41c0,.08,0,.56,0,.66a1,1,0,0,1-1,1c-.66,0-.66-.46-.66-.65s.06-1.09.06-1.26c0-2.26.15-7,.15-9a14.47,14.47,0,0,0-.29-3.4l2.13,1Zm-3.59.5V264h2.76V253.31Zm7.32,3.15v-3.15H96.56v3.15Zm0,3.63V257H96.56v3.13Zm0,3.88v-3.38H96.56V264Zm4.48,0V253.31h-3.07V264Z"/><path d="M111.39,261.67a26.86,26.86,0,0,0,3.85-7.94h-.47a15.51,15.51,0,0,0-2.45.18l-.4-.83c1.19.11,2.39.15,3.47.15,0-1,0-2.47,0-3.36a19.82,19.82,0,0,1-3.38.37v-.16a35.25,35.25,0,0,0,5.6-2.32,1.55,1.55,0,0,0,.43-.5l1.43,1.2a.38.38,0,0,1,.15.29c0,.21-.21.21-.4.21l-.6,0a17.23,17.23,0,0,1-1.93.62c0,.95,0,2.86,0,3.67h.4l.5-.75c.08-.12.18-.27.31-.27s.29.15.39.23l.89.75a.42.42,0,0,1,.21.33c0,.21-.21.21-.31.21h-2.39c0,.39,0,1.32,0,1.82,2,.73,2.72,2,2.72,2.62a.79.79,0,0,1-.77.82c-.49,0-.56-.2-1-1.36a3.78,3.78,0,0,0-1-1.81c0,3.61,0,4,.09,5.6,0,1.41.08,3.05.08,3.8,0,.37,0,1.2-1,1.2-.54,0-.6-.31-.6-.71,0-.68.17-3.73.19-4.35,0-2,0-2.84,0-4.65a13.55,13.55,0,0,1-3.92,5.06Zm6.65,4.38c1.45-.71,3.8-2.08,4.29-3l1.5,1.1a.37.37,0,0,1,.18.31c0,.29-.47.27-1,.27a16.47,16.47,0,0,1-4.94,1.43Zm9.21-16.51.52-.83c.1-.17.21-.29.31-.29s.27.14.39.25l1,.83a.44.44,0,0,1,.21.33c0,.19-.17.21-.31.21H125v1.7h1.66l.5-.75c.08-.12.16-.25.31-.25s.25.13.37.23l.85.72a.49.49,0,0,1,.21.34c0,.18-.19.2-.31.2H125v1.87h3.44l.6-.85c.11-.17.23-.27.33-.27s.25.12.38.25l.89.83c.1.1.21.21.21.33s-.17.21-.31.21H121.9a14.66,14.66,0,0,0-2.45.18L119,254c1.06.08,2.13.14,3.19.14h1.35v-1.87h-.5a13.16,13.16,0,0,0-2.45.21l-.39-.83c.62,0,1.54.13,3.34.13,0-.81,0-1.31,0-1.7h-1.37a14.53,14.53,0,0,0-2.45.18l-.41-.83c1.51.13,2.84.15,3.19.15h1a5.8,5.8,0,0,0-.38-2.22l2.12.64a.32.32,0,0,1,.29.31c0,.27-.48.5-.58.54v.73Zm-.48,6.49.48-.52c.08-.08.21-.21.29-.21s.25.13.33.19l.81.68a.56.56,0,0,1,.23.38c0,.21-.25.37-.6.54a7.23,7.23,0,0,0,0,.76c0,.71.16,3.8.16,4.42a.85.85,0,0,1-.95,1c-.54,0-.54-.27-.52-.71H122c0,.48.07,1-.93,1-.35,0-.54-.1-.54-.47,0,0,0-.21,0-.5,0-.77,0-3,0-3.92a13.89,13.89,0,0,0-.22-3.28l1.64.73Zm-4.73.5V258H127v-1.47Zm0,2V260H127V258.5Zm0,2V262H127v-1.53Zm3.49,2.82c1.86.16,4.5,1.1,4.5,2.34a.84.84,0,0,1-.83.81c-.48,0-1-.52-1.31-.91a10.22,10.22,0,0,0-2.36-2.1Z"/><path d="M137.43,252.79a1.22,1.22,0,0,1-1.2,1.21,1.21,1.21,0,0,1-1.2-1.21,1.2,1.2,0,0,1,2.4,0Zm0,8.17a1.21,1.21,0,0,1-1.2,1.21,1.21,1.21,0,1,1,1.2-1.21Z"/><path d="M142.39,264.1h1.14c1.08,0,1.45-.42,1.45-1.27V251.61c0-.64-.6-.74-1-.74h-1.58v-.65h.37a7.86,7.86,0,0,0,3.38-.87c.15-.08.21-.12.29-.12s.23.12.23.29v13.31c0,.89.44,1.27,1.45,1.27h1.15v.66h-6.89Z"/><path d="M162.2,264.76h-8.15v-.56a14.07,14.07,0,0,1,3-4.65c3-3.52,4.09-4.7,4.09-6.78a2.67,2.67,0,0,0-2.76-2.84c-1.45,0-2.32.87-2.32,1.62a1.13,1.13,0,0,0,.21.64,1.81,1.81,0,0,1,.43,1,1.15,1.15,0,0,1-1.12,1.16,1.31,1.31,0,0,1-1.18-1.45,4.15,4.15,0,0,1,4.46-3.71c2.57,0,4.15,1.62,4.15,3.85s-1.21,3.24-3.07,4.84c-.71.58-3.45,2.92-4.48,5.2h2.86c2.9,0,3.59-1.12,4.21-2.84l.62.23Z"/><path d="M168.63,251.26l-.19,5.23a4.37,4.37,0,0,1,3.21-1.44c3,0,4.42,2.47,4.42,4.75a5.26,5.26,0,0,1-5.12,5.35c-2.37,0-3.92-1.76-3.92-3a1.18,1.18,0,0,1,1.2-1.28,1,1,0,0,1,1.08,1.08,2.2,2.2,0,0,1-.1.62,2.6,2.6,0,0,0-.07.58c0,.89.94,1.35,1.77,1.35,1.68,0,3.25-1.6,3.25-4.38,0-2.63-1.39-4.08-2.9-4.08a4.46,4.46,0,0,0-3.23,1.8l-.32-.16.32-8h7.21l-.41,1.64Z"/><path d="M182.36,264a1.21,1.21,0,1,1-1.21-1.2A1.22,1.22,0,0,1,182.36,264Z"/><path d="M195.42,260.59a4.62,4.62,0,0,1-4.89,4.56c-2.37,0-4.48-1.37-4.48-3.73s1.78-3.3,3.69-4.42c-1.1-.64-3.09-1.8-3.09-4.06,0-2.05,1.62-3.71,4.15-3.71a3.47,3.47,0,0,1,3.79,3.27c0,1.77-1.7,3.05-2.59,3.72C194,257.42,195.42,258.46,195.42,260.59Zm-7.63.77a3,3,0,0,0,3,3.09,3.23,3.23,0,0,0,3.15-3.13c0-2-2.06-3.13-3.57-4C189.43,258,187.79,259.31,187.79,261.36Zm5.29-8.63a2.62,2.62,0,0,0-2.57-2.8,2.39,2.39,0,0,0-2.45,2.47c0,1.45,1.18,2.18,3.34,3.46A3.93,3.93,0,0,0,193.08,252.73Z"/><path d="M208.28,260.59a4.62,4.62,0,0,1-4.9,4.56c-2.36,0-4.48-1.37-4.48-3.73s1.79-3.3,3.7-4.42c-1.1-.64-3.09-1.8-3.09-4.06,0-2.05,1.61-3.71,4.14-3.71a3.48,3.48,0,0,1,3.8,3.27c0,1.77-1.7,3.05-2.59,3.72C206.81,257.42,208.28,258.46,208.28,260.59Zm-7.63.77a3,3,0,0,0,3,3.09,3.22,3.22,0,0,0,3.15-3.13c0-2-2.05-3.13-3.56-4C202.29,258,200.65,259.31,200.65,261.36Zm5.29-8.63a2.62,2.62,0,0,0-2.58-2.8,2.39,2.39,0,0,0-2.44,2.47c0,1.45,1.18,2.18,3.34,3.46A3.93,3.93,0,0,0,205.94,252.73Z"/><path d="M215.16,254.56v1.63a4.71,4.71,0,0,1,3.43-1.63,2.29,2.29,0,0,1,2.48,1.86,5.2,5.2,0,0,1,3.72-1.86c1.82,0,2.65,1.1,2.65,3.4v4.89c0,.79.42,1.25,1,1.25h.37v.66h-4.33v-.66h.39c.73,0,1-.56,1-1.25v-4.77c0-.58-.09-2.63-1.81-2.63a3.9,3.9,0,0,0-2.94,1.8,5.05,5.05,0,0,1,0,.71v4.89c0,.87.48,1.25,1,1.25h.6v.66h-4.77v-.66h.6c.58,0,1.06-.4,1.06-1.25v-4.77c0-.43-.06-2.63-1.81-2.63a3.71,3.71,0,0,0-2.8,1.64v5.76c0,.87.48,1.25,1,1.25h.37v.66h-4.31v-.66h.37c.63,0,1-.44,1-1.25v-6.24a.85.85,0,0,0-.85-1,1.83,1.83,0,0,0-.62.08l-.1-.4Zm10.73-1.23a11.38,11.38,0,0,1,1.2-1.32c.43-.48,1.18-1.29,1.18-2,0-.27-.17-.77-.64-.77a.69.69,0,0,0-.71.56c0,.08.19.45.19.54a.57.57,0,0,1-.58.54.64.64,0,0,1-.62-.71,1.75,1.75,0,0,1,1.82-1.49,1.4,1.4,0,0,1,1.51,1.41,1.66,1.66,0,0,1-.64,1.35c-.23.22-1.51,1.26-1.72,1.55h1.29c.54,0,.7-.41.81-.7l.33.1-.44,1.43h-3Z"/><path d="M274,265.67c-7.53-.1-10.76-.14-13.56-2.86a9.72,9.72,0,0,1-4.23,3.59l-.13-.13a13.09,13.09,0,0,0,3.59-4.31,10.09,10.09,0,0,1-1.93-4l.21-.17a9.24,9.24,0,0,0,2.09,3.4,14.09,14.09,0,0,0,1.16-5.64h-1.74c-.41,1.16-.52,1.47-1.2,1.47-.15,0-.75,0-.75-.47a12.11,12.11,0,0,1,.5-1.47c1.08-2.78,1.93-5,2.18-6h-.75a13.55,13.55,0,0,0-2.45.19l-.39-.83c1.06.08,2.12.15,3.17.15h.38l.54-.44c.18-.14.29-.21.39-.21a.75.75,0,0,1,.35.21l.81.69a.42.42,0,0,1,.21.37c0,.25-.42.43-1,.66-.45,1.16-.72,1.87-1.86,5.14H261l.56-.43a.75.75,0,0,1,.39-.21c.15,0,.25.08.4.23l.64.66a.72.72,0,0,1,.25.44c0,.19-.21.31-.65.58a14.1,14.1,0,0,1-1.7,5.7,11.44,11.44,0,0,0,7.22,2.06,46.55,46.55,0,0,0,7.3-.61l0,.17A2.54,2.54,0,0,0,274,265.67Zm1.22-12.92h-2.86c.08,2.47.08,2.47.08,2.62,0,.41,0,1.05-1,1.05-.56,0-.54-.33-.52-.68h-2.55v2.16h3.11l.62-.79c.15-.17.23-.27.35-.27s.23.1.4.23l.93.78c.11.11.21.23.21.32s-.15.22-.31.22h-5.31l0,2.2h3.69l.79-.91c.16-.19.25-.27.35-.27s.23.08.37.23l1,.91a.51.51,0,0,1,.21.35c0,.13-.13.19-.31.19h-6.08c0,.25,0,1.47,0,1.74a1,1,0,0,1-.91.75c-.67,0-.67-.38-.67-.6s.11-1.58.11-1.89h-1.41a14.64,14.64,0,0,0-2.43.19l-.41-.81c1.61.12,3.15.12,3.19.12h1.08c0-.56,0-1.08,0-2.2h-.62a13.78,13.78,0,0,0-2.43.19l-.41-.81c.62,0,1.78.13,3.48.13v-2.16h-.41a14.84,14.84,0,0,0-2.45.19l-.42-.81c1.5.1,3.07.12,3.28.12l0-2.49h-1.93a13.68,13.68,0,0,0-2.42.19l-.42-.83c1.06.1,2.12.15,3.17.15H267l0-2.43h-.5A15.86,15.86,0,0,0,264,250l-.4-.83c1.45.12,2.8.14,3.32.14a3.7,3.7,0,0,0-.31-1.93l2,.48c.23.06.35.14.35.33s-.25.38-.58.56v.56h2.41l.51-.45c.15-.13.25-.21.38-.21s.23.1.37.23l.58.56a.58.58,0,0,1,.25.39c0,.17-.17.29-.58.58a11.54,11.54,0,0,0,0,1.83h.75l.6-.77c.12-.17.23-.25.33-.25a.63.63,0,0,1,.39.21l.9.76c.1.11.2.21.2.31S275.39,252.75,275.18,252.75Zm-4.25,0h-2.57l0,2.49h2.59Zm0-2.92H268.4l0,2.43h2.57Z"/><path d="M285.2,258.64c0,2.51,0,2.95,0,4.15,0,.73.08,1.89.08,2.61s-.89,1-1.07,1c-.46,0-.56-.27-.56-.58,0-.09,0-.85,0-1,.08-1.55.08-2.11.12-5.43a20.74,20.74,0,0,1-2.55,1.18c0,.37-.06.73-.39.73s-.35-.23-.42-.36l-1-1.86c1.28.06,1.64,0,4.35-.79,0-1.83,0-3.88,0-5.46H282a16.35,16.35,0,0,1-1.85,4.59l-.12,0a33.7,33.7,0,0,0,.93-7.2,3.51,3.51,0,0,0-.21-1.41l2,.48c.17,0,.36.08.36.31s-.29.41-.63.54a17.18,17.18,0,0,1-.35,2.24h1.72c0-2.93-.1-3.78-.56-4.81l2.28.66c.13,0,.31.14.31.29s-.35.44-.66.6c0,.44,0,2.63,0,3.26h.41l.59-.79c.1-.13.2-.27.31-.27a.63.63,0,0,1,.37.23l.83.79a.48.48,0,0,1,.19.31c0,.18-.19.22-.31.22H285.2c0,1.33,0,3.65,0,5l2.72-.95.06.14A23.84,23.84,0,0,1,285.2,258.64ZM297.44,253c-.17,4.34-.34,8.28-1.64,11a4,4,0,0,1-3.22,2.1c-.14-.94-.47-1.52-1.76-2.45l.06-.15a9,9,0,0,0,2.51.44c.5,0,.83,0,1.41-1.47a31.68,31.68,0,0,0,1.16-10h-1.18c-.6,4.69-2.59,10.72-8.58,13l-.07-.14c4.4-3.3,6.27-6.8,7.14-12.84h-1.16c-.85,4.38-3.2,8.15-6.2,9.56l-.07-.12a17.71,17.71,0,0,0,4.75-9.44h-1a13.31,13.31,0,0,1-2.8,4.13l-.11-.11a23.21,23.21,0,0,0,2.68-8.46,2.22,2.22,0,0,0-.11-.7l2.08.83c.2.08.31.21.31.33,0,.27-.4.37-.73.46-.54,1.66-.89,2.5-1.1,3h6l.49-.52c.13-.14.23-.22.31-.22a.9.9,0,0,1,.38.18l1,.73c.15.1.23.17.23.29C298.14,252.69,297.66,252.92,297.44,253Z"/><path d="M310.21,252.81a21.66,21.66,0,0,0,1.23-3.46H306a13.88,13.88,0,0,0-2.44.19l-.42-.83c1.06.08,2.12.14,3.2.14h12.35l.92-.89a1.23,1.23,0,0,1,.39-.31c.1,0,.19.06.39.23l1.17.93c.08.07.2.19.2.31s-.2.23-.33.23h-8.07a36.11,36.11,0,0,1-2.67,3.46h7.55l.58-.6c.21-.2.27-.27.39-.27s.27.13.38.21l.95.81a.42.42,0,0,1,.17.27c0,.19-.09.25-.83.66,0,2.35,0,5.31,0,7.66,0,1,.1,2.5.1,3.46a.93.93,0,0,1-1,1c-.62,0-.62-.33-.58-1.51h-11.8c0,.08,0,.56,0,.66a1,1,0,0,1-1,1c-.66,0-.66-.46-.66-.65s.06-1.09.06-1.26c0-2.26.14-7,.14-9a14.47,14.47,0,0,0-.29-3.4l2.14,1Zm-3.59.5V264h2.76V253.31Zm7.32,3.15v-3.15h-3.17v3.15Zm0,3.63V257h-3.17v3.13Zm0,3.88v-3.38h-3.17V264Zm4.48,0V253.31h-3.07V264Z"/><path d="M325.6,261.67a26.65,26.65,0,0,0,3.86-7.94H329a15.58,15.58,0,0,0-2.45.18l-.39-.83c1.18.11,2.39.15,3.46.15,0-1,0-2.47,0-3.36a19.71,19.71,0,0,1-3.38.37v-.16a34.87,34.87,0,0,0,5.6-2.32,1.62,1.62,0,0,0,.44-.5l1.43,1.2a.37.37,0,0,1,.14.29c0,.21-.2.21-.39.21l-.6,0a18.8,18.8,0,0,1-1.93.62c0,.95,0,2.86,0,3.67h.39l.5-.75c.08-.12.19-.27.31-.27s.29.15.4.23l.89.75a.44.44,0,0,1,.21.33c0,.21-.21.21-.32.21h-2.38c0,.39,0,1.32,0,1.82,2,.73,2.72,2,2.72,2.62a.79.79,0,0,1-.77.82c-.5,0-.56-.2-1-1.36a3.77,3.77,0,0,0-1-1.81c0,3.61,0,4,.08,5.6,0,1.41.09,3.05.09,3.8,0,.37,0,1.2-1,1.2-.54,0-.6-.31-.6-.71,0-.68.16-3.73.18-4.35.05-2,0-2.84,0-4.65a13.65,13.65,0,0,1-3.92,5.06Zm6.66,4.38c1.45-.71,3.79-2.08,4.29-3l1.49,1.1a.36.36,0,0,1,.19.31c0,.29-.48.27-1,.27a16.42,16.42,0,0,1-4.93,1.43Zm9.21-16.51.51-.83c.11-.17.21-.29.31-.29s.27.14.4.25l1,.83a.42.42,0,0,1,.21.33c0,.19-.16.21-.31.21h-4.4v1.7h1.66l.5-.75c.08-.12.17-.25.31-.25s.25.13.38.23l.85.72a.48.48,0,0,1,.2.34c0,.18-.18.2-.31.2H339.2v1.87h3.45l.6-.85c.1-.17.23-.27.33-.27s.25.12.37.25l.9.83a.53.53,0,0,1,.2.33c0,.21-.16.21-.31.21h-8.63a14.49,14.49,0,0,0-2.44.18l-.42-.82c1.06.08,2.14.14,3.2.14h1.34v-1.87h-.49a13.16,13.16,0,0,0-2.45.21l-.39-.83c.62,0,1.53.13,3.33.13,0-.81,0-1.31,0-1.7H336.4a14.37,14.37,0,0,0-2.44.18l-.42-.83c1.52.13,2.84.15,3.2.15h1a6,6,0,0,0-.37-2.22l2.11.64a.32.32,0,0,1,.3.31c0,.27-.48.5-.59.54v.73ZM341,256l.48-.52c.08-.08.2-.21.29-.21s.24.13.33.19l.81.68a.54.54,0,0,1,.22.38c0,.21-.24.37-.6.54a7.23,7.23,0,0,0,0,.76c0,.71.17,3.8.17,4.42a.85.85,0,0,1-1,1c-.54,0-.54-.27-.51-.71h-4.94c0,.48.06,1-.93,1-.36,0-.54-.1-.54-.47,0,0,0-.21,0-.5,0-.77,0-3,0-3.92a13.3,13.3,0,0,0-.23-3.28l1.64.73Zm-4.73.5V258h4.94v-1.47Zm0,2V260h4.94V258.5Zm0,2V262h4.94v-1.53Zm3.48,2.82c1.87.16,4.5,1.1,4.5,2.34a.83.83,0,0,1-.83.81c-.47,0-1-.52-1.3-.91a10.57,10.57,0,0,0-2.37-2.1Z"/><path d="M351.65,252.79a1.22,1.22,0,0,1-1.21,1.21,1.21,1.21,0,0,1-1.2-1.21,1.21,1.21,0,0,1,2.41,0Zm0,8.17a1.21,1.21,0,0,1-1.21,1.21,1.21,1.21,0,0,1,0-2.41A1.21,1.21,0,0,1,351.65,261Z"/><path d="M361,258.75a3.48,3.48,0,0,1-1.8.53c-2.06,0-3.72-2.07-3.72-4.6,0-2.86,2.06-5.45,4.44-5.45s4.77,2.69,4.77,7.15c0,4.79-2.69,8.77-5.87,8.77-1.39,0-2.36-.83-2.36-1.8a1,1,0,0,1,1.06-1.08c.41,0,1.1.27,1.14,1.43,0,.46.06.75.62.75a2,2,0,0,0,1.51-.73c1.85-2,1.95-5.1,2-6.94A5.42,5.42,0,0,1,361,258.75Zm.69-7.7a2.08,2.08,0,0,0-1.68-1.12c-1.1,0-2.66,1.16-2.66,4.56,0,1,.23,3.86,2.37,3.86.78,0,2.11-.58,3.09-2.82A10.16,10.16,0,0,0,361.65,251.05Z"/><path d="M377.59,260.59a4.61,4.61,0,0,1-4.89,4.56c-2.36,0-4.48-1.37-4.48-3.73s1.78-3.3,3.69-4.42c-1.1-.64-3.09-1.8-3.09-4.06,0-2.05,1.62-3.71,4.15-3.71a3.47,3.47,0,0,1,3.79,3.27c0,1.77-1.7,3.05-2.59,3.72C376.12,257.42,377.59,258.46,377.59,260.59Zm-7.63.77a3,3,0,0,0,3,3.09,3.23,3.23,0,0,0,3.15-3.13c0-2-2.05-3.13-3.57-4C371.6,258,370,259.31,370,261.36Zm5.29-8.63a2.62,2.62,0,0,0-2.57-2.8,2.4,2.4,0,0,0-2.45,2.47c0,1.45,1.18,2.18,3.34,3.46A3.93,3.93,0,0,0,375.25,252.73Z"/><path d="M383.71,264a1.2,1.2,0,1,1-1.2-1.2A1.22,1.22,0,0,1,383.71,264Z"/><path d="M392.09,265.15a4.19,4.19,0,0,1-3.4-2.24,12.91,12.91,0,0,1-1.27-5.91c0-4.41,1.89-7.77,4.67-7.77,2.14,0,4.67,2.3,4.67,8C396.76,262.27,394.62,265.15,392.09,265.15Zm-2.32-12.46a18.79,18.79,0,0,0-.48,4.5c0,4.62,1.1,7.26,2.8,7.26,1.43,0,2.07-1.91,2.3-2.7a19.21,19.21,0,0,0,.5-4.56c0-4.73-1.14-7.26-2.8-7.26C390.62,249.93,390,252,389.77,252.69Z"/><path d="M405,265.15a4.19,4.19,0,0,1-3.4-2.24,12.91,12.91,0,0,1-1.27-5.91c0-4.41,1.89-7.77,4.67-7.77,2.13,0,4.66,2.3,4.66,8C409.61,262.27,407.48,265.15,405,265.15Zm-2.32-12.46a18.79,18.79,0,0,0-.48,4.5c0,4.62,1.1,7.26,2.8,7.26,1.43,0,2.07-1.91,2.3-2.7a19.21,19.21,0,0,0,.5-4.56c0-4.73-1.14-7.26-2.8-7.26C403.48,249.93,402.83,252,402.63,252.69Z"/><path d="M416.52,254.56v1.63a4.71,4.71,0,0,1,3.42-1.63,2.3,2.3,0,0,1,2.49,1.86,5.2,5.2,0,0,1,3.71-1.86c1.83,0,2.66,1.1,2.66,3.4v4.89c0,.79.41,1.25,1,1.25h.38v.66h-4.34v-.66h.4c.72,0,1-.56,1-1.25v-4.77c0-.58-.08-2.63-1.8-2.63a3.89,3.89,0,0,0-2.94,1.8,5.05,5.05,0,0,1,0,.71v4.89c0,.87.47,1.25,1,1.25h.61v.66h-4.77v-.66h.6c.58,0,1.06-.4,1.06-1.25v-4.77c0-.43-.07-2.63-1.81-2.63a3.69,3.69,0,0,0-2.8,1.64v5.76c0,.87.48,1.25,1,1.25h.37v.66h-4.31v-.66H414c.62,0,1-.44,1-1.25v-6.24a.86.86,0,0,0-.85-1,1.83,1.83,0,0,0-.62.08l-.11-.4Zm10.72-1.23a12.43,12.43,0,0,1,1.2-1.32c.44-.48,1.19-1.29,1.19-2,0-.27-.17-.77-.65-.77a.68.68,0,0,0-.7.56c0,.08.19.45.19.54a.57.57,0,0,1-.58.54.65.65,0,0,1-.63-.71,1.76,1.76,0,0,1,1.83-1.49,1.4,1.4,0,0,1,1.51,1.41,1.66,1.66,0,0,1-.64,1.35c-.23.22-1.52,1.26-1.72,1.55h1.28a.84.84,0,0,0,.81-.7l.33.1-.43,1.43h-3Z"/><path d="M442.65,266.92a12.72,12.72,0,0,1,0-20.08l.19.29a14,14,0,0,0,0,19.5Z"/><path d="M454.52,254.41c-.36.44-1.56,2.55-1.83,3A13.58,13.58,0,0,1,447,262.6l-.05-.18c3.9-3.45,5.83-7.76,5.83-8.65,0-.52-.18-1-1.3-1.49a3.08,3.08,0,0,1,1.05-.19,3.63,3.63,0,0,1,2.47,1.7A2,2,0,0,1,454.52,254.41Zm9.16,7.07c-.6,0-.73-.45-1.26-2.15a18.74,18.74,0,0,0-4.48-6.95c2.63.79,6.51,4.87,6.51,8C464.45,260.9,464.14,261.48,463.68,261.48Zm-.56-8.23c-.29,0-.37-.1-1.1-.95a7.63,7.63,0,0,0-1.95-1.66c1.31,0,3.53.7,3.53,2C463.6,253,463.35,253.25,463.12,253.25Zm1.72-1.89c-.25,0-.31-.06-.87-.66a9.18,9.18,0,0,0-2.3-1.62c1.33-.08,3.67.5,3.67,1.7A.52.52,0,0,1,464.84,251.36Z"/><path d="M475,253.35c0,.48-.2,2.62-.24,3-.54,4.46-3.22,6.83-5,7.55l-.1-.12a12.8,12.8,0,0,0,3.83-9.83c0-1.72,0-1.72-1.6-2.14a2.44,2.44,0,0,1,1.37-.54c.54,0,1.95.46,1.95,1C475.19,252.52,475,253.21,475,253.35Zm5,8.57a6.11,6.11,0,0,0-1.3,1.16c-.11.1-.29.31-.42.31-.39,0-1.32-1.7-1.32-2s.24-.77.27-.91a34.17,34.17,0,0,0,.18-4.13c0-.77,0-4.6-.12-5.1s-.5-.64-1.5-1a2.26,2.26,0,0,1,1.17-.44c.62,0,2.23.62,2.23,1.24a9.39,9.39,0,0,1-.29,1.19c-.2,1-.31,6.86-.31,8.13,0,.08,0,.35.15.35.5,0,4.25-2.39,7.51-6.53l.16.12A19,19,0,0,1,480,261.92Z"/><path d="M504,253.44a.91.91,0,0,0-.46.66c-.33,1.35-.5,2.39-1.16,6.26.4.09,1,.4,1,.85s-.54.56-1.12.56c-.4,0-2.12-.08-2.47-.08a22.76,22.76,0,0,0-5.79.62,8.29,8.29,0,0,1-1.1.36c-.64,0-1.72-1.5-1.72-2.31a1.91,1.91,0,0,1,.15-.68,3.25,3.25,0,0,0,2.22,1.33c.7,0,1.57-.09,7.59-.56.64-4.3,1-6.56,1-7.37,0-.18-.08-.24-.29-.24a59.41,59.41,0,0,0-7.71.93,6.62,6.62,0,0,1-.94.33c-.68,0-1.84-1.37-1.84-2.41a2.08,2.08,0,0,1,.1-.7,2.87,2.87,0,0,0,2.37,1.47c1,0,7.46-.47,8-.68a6.52,6.52,0,0,1,1-.56c.22,0,1.7,1.24,1.7,1.66C504.52,253.1,504.41,253.17,504,253.44Z"/><path d="M525.42,261.34s-1.08-.19-1.62-.27a18.84,18.84,0,0,0-3.13-.23,37.24,37.24,0,0,0-7.75.87,3.77,3.77,0,0,1-1.12.29,2.62,2.62,0,0,1-1.91-2.42A2.12,2.12,0,0,1,510,259a2.74,2.74,0,0,0,2.45,1.28c.12,0,5.74-.47,6.82-.52a22.42,22.42,0,0,0,3.74-.35,3.31,3.31,0,0,1,.87-.23c.43,0,2.09.73,2.09,1.54A.53.53,0,0,1,525.42,261.34Zm-3.73-8.15-3.19.21a20,20,0,0,0-3.72.43,1.2,1.2,0,0,1-.37,0,2.06,2.06,0,0,1-1.91-2,4.18,4.18,0,0,0,2.55.73,27.77,27.77,0,0,0,5.17-.56c.18,0,1-.38,1.22-.38.39,0,1.66.31,1.66,1C523.1,253.08,522.73,253.13,521.69,253.19Z"/><path d="M546,257.58c-.19,0-.69,0-.73,0a21.42,21.42,0,0,0-2.34-.08c-6.33,0-8.19.12-9.13.37-.06,0-.72.19-.79.19-.53,0-1.65-1.33-1.65-2.28a2.48,2.48,0,0,1,.24-1c.71,1.58,1.35,1.58,3.51,1.58,1.43,0,8.17,0,9.12-.25.13,0,.73-.19.85-.19s2.2.23,2.2,1C547.28,257.56,546.24,257.58,546,257.58Z"/><path d="M569.8,255.18a17.34,17.34,0,0,1-8.15-6.24,27.08,27.08,0,0,1-3.79,3.71c1.14.1,2.74.12,2.82.12h.7l.61-.72c.1-.13.22-.25.33-.25a1.18,1.18,0,0,1,.37.21l1,.72a.46.46,0,0,1,.21.31c0,.19-.17.23-.32.23h-3.27a13.53,13.53,0,0,0-2.43.19l-.31-.6a19.94,19.94,0,0,1-5.83,3.31l-.08-.1c4.62-3.23,8.59-7.22,9-9l1.85,1.22a.35.35,0,0,1,.14.27c0,.25-.23.34-.48.38a14.54,14.54,0,0,0,9.42,4.33v.1A3.84,3.84,0,0,0,569.8,255.18Zm-2.63,5.56c0,.85,0,1.82,0,2.71,0,.19.08,1.27.08,1.81a1,1,0,0,1-1,1c-.56,0-.58-.41-.58-.91h-8.36a.92.92,0,0,1-1,1.06c-.58,0-.58-.35-.58-.52s0-.52,0-.6c.06-.75.06-2.93.06-3.44a17.6,17.6,0,0,0-.19-3.2l2,1.08h4c.09-.1.31-.44.38-.52.33-.45,1.55-2.63,1.82-3.07h-5.62a14.46,14.46,0,0,0-2.45.19l-.41-.83c1.31.1,2.57.15,3.19.15h5.31l.69-.5a.47.47,0,0,1,.33-.15c.1,0,.18.09.31.17l.89.7a.39.39,0,0,1,.12.25c0,.35-.49.52-1,.69-.31.45-1.58,2.51-1.85,2.92h2.08l.68-.68a.6.6,0,0,1,.33-.21.91.91,0,0,1,.38.16l.91.69a.38.38,0,0,1,.19.33C567.88,260.14,567.69,260.3,567.17,260.74Zm-1.49-.52h-8.36v4.62h8.36Z"/><path d="M592,258.14a2.61,2.61,0,0,1-.76-.35c-.35-.19-.73-.21-2.1-.23l0-.08c1.39-.75,1.41-.91,1.41-1.16a2,2,0,0,0-1.62-1.54c-.78,0-.8,1-.8,1.5a15.4,15.4,0,0,0,1,4.77c.42,1,.44,1.14.44,1.37,0,2.75-5.79,2.75-6.2,2.75-1.29,0-3.65-.16-4.46-1.16a2.23,2.23,0,0,1-.48-1.41,9,9,0,0,1,.4-2.26c-1.56-.18-2.26-2-2.26-2.88a2.94,2.94,0,0,1,2.84-2.78,3.18,3.18,0,0,1,.41,0l.19-1.43a11.75,11.75,0,0,1-1.79.17c-1.49,0-2.21-.77-2.26-1.77a3.16,3.16,0,0,0,2.16.71,12.61,12.61,0,0,0,2-.21c.25-1.9.29-2.15.29-2.42,0-.58-.18-.79-1.45-1.16A1.39,1.39,0,0,1,580,248c.74,0,2.26.48,2.26,1.21a1.6,1.6,0,0,1-.25.7,5.48,5.48,0,0,0-.68,2,14,14,0,0,0,2.28-.76,1.45,1.45,0,0,1,.74-.19c.46,0,1,.29,1,.72s-.44.52-.6.59a30.1,30.1,0,0,1-3.71.82c-.34,1.73-.38,1.91-.44,2.22a2.06,2.06,0,0,1,.58,1.37,7.26,7.26,0,0,1-.83,2.59c-1.1,2.33-1.22,2.6-1.22,3.11,0,1.48,2.57,1.48,3.4,1.48,0,0,3.69,0,4.73-1.06a1.89,1.89,0,0,0,.5-1.47c0-.29-.25-3.57-.25-4.25,0-1.95.41-2.82,1.49-2.82,1.51,0,3.5,1.3,3.5,3C592.53,258.06,592.1,258.14,592,258.14Zm-13.14-2.57c-.31,0-1.45.65-1.45,1.64,0,.75.62,1.83,1.24,1.83.33,0,.52-.17.66-.63a8,8,0,0,0,.29-2C579.57,256.05,579.39,255.47,578.83,255.57Z"/><path d="M597.2,266.92l-.18-.29a14,14,0,0,0,0-19.5l.18-.29a12.7,12.7,0,0,1,0,20.08Z"/><path class="cls-2" d="M110.54,163.4a24.3,24.3,0,0,0,6.69-6.42H111.5v-3.16h6.69v-3.19h-6.86V147.5H115a28.66,28.66,0,0,0-1-4.91h-2v-3.12h6.2v-2.85h3.16v2.85h5.7v3.12H125.5c-.69,3.16-.76,3.54-1.18,4.91h3.23v3.13h-6.2v3.19h5.44V157H122a17.07,17.07,0,0,0,4,3.91L124.38,164a17.89,17.89,0,0,1-3-3.67v8.62h-3.16v-8.55a25.72,25.72,0,0,1-5.84,6.18ZM117,142.59a40.72,40.72,0,0,1,1,4.91h3.33a40.21,40.21,0,0,0,1-4.91Zm25.15-2.74A26.2,26.2,0,0,1,132,142.42v5.22h10.19v3.3h-3.23v18h-3.43v-18H132v.92c0,9.58-1.81,13.25-4.41,17.07l-3.2-2.3c2.87-3.57,4.32-7.08,4.32-14.66V139.19a23.66,23.66,0,0,0,11.6-2.57Z"/><path class="cls-2" d="M159.62,153.41c-2.28.51-9.46,1.68-11.67,2l-.53-3.15c.3,0,4.68-.48,5.47-.59v-3.43H149v-2.75h.23l-2.07-2.23a16.42,16.42,0,0,0,5-6.69l3.23.61a11.53,11.53,0,0,1-.52,1.45h7.71v2.74h-5c.36.66.62,1.17.89,1.79l-3.23,1.23a17.23,17.23,0,0,0-1.06-3h-.85a19.1,19.1,0,0,1-3.5,4.12h10.09v2.75H156v3.09c2.24-.28,2.94-.41,3.86-.59v2c2.67-1.75,3-3.64,3.13-7.76h11.86v6.38c0,.62.14.76.4.76.73,0,.79,0,.86-.93,0-.27,0-1.61,0-1.92L179,150c-.16,3.64-.26,4.8-2.07,4.8h-3.07c-1,0-2-.65-2-2.33V147.6h-5.93a9.8,9.8,0,0,1-4.06,7.8h2.84v1.41h13.91v2.95H167.3c1.55,1.27,3.72,3,11.73,5L177.55,168a31.66,31.66,0,0,1-12.92-6.9v7.72h-3.2v-7.76c-3.92,4.05-9.36,6-12.79,6.94l-1.35-3.26a28.26,28.26,0,0,0,11.6-5H147.62v-2.95h13.81v-1.17ZM167,141.32a13.1,13.1,0,0,1-2.34,3.13l-2.8-2a12.64,12.64,0,0,0,3.65-5.73l3.33.51c-.2.59-.29.9-.46,1.38h10.19v2.74H172a10.12,10.12,0,0,1,.86,1.75l-3,1.27c-.26-.68-.92-2.26-1.29-3Zm1.09,6.87a25.17,25.17,0,0,1,3.46,3.57l-2.15,2.09a27.29,27.29,0,0,0-3.36-3.6Z"/><path class="cls-2" d="M188.76,149.25c-1.55,1.44-2.51,2.2-3.4,2.89L183,149a23.6,23.6,0,0,0,9.88-12.49l3.43.92a29,29,0,0,1-7.18,11.4h20.3c0,3.47-.1,12.4-1.35,16.93-.86,3.09-3.1,3.19-4.55,3.19h-5l-.66-3.64h5c1.88,0,2.18-1.72,2.44-3.23a57.1,57.1,0,0,0,.66-9.78h-7.65c-.85,9.27-5.44,13.66-12.26,16.65l-2-3.3c7.15-3.12,9.92-6.24,10.75-13.35h-6Zm24.32,2.61a35,35,0,0,1-10.68-14.31l3.43-1c1.71,4.29,5.24,9.61,9.65,12.36Z"/><path class="cls-2" d="M220,142.46h10.91v3H220Zm.83-5.09h9v3.09h-9Zm0,10.06h9v3.13h-9Zm0,5.12h9v3h-9Zm0,5.25h9v9.79h-6.07V169h-3Zm3,3v4h3.1v-4Zm27-.69a39.06,39.06,0,0,1-3.59,3.09,17.6,17.6,0,0,0,4,2.64L249.53,169c-4.22-2.4-7.87-6-9-10.85a15.07,15.07,0,0,1-2.34,2.13v4.6c2.61-.21,3.66-.38,4.92-.55v3.23c-2.48.37-7.65,1-11,1.06l-.56-3.47c1,0,1.81,0,3.56-.07V162.3a26.34,26.34,0,0,1-3.69,1.65l-1.35-3a18.75,18.75,0,0,0,6.85-3.3h-6v-2.57h4.68v-1.75h-3.49V151h3.49v-1.51h-4.05V147h4.05v-1.13h3V147h5v-1.13h3V147h4.28v2.44h-4.28V151h3.62v2.37h-3.62v1.75h4.48v2.57h-7.78a21.54,21.54,0,0,0,1.81,3.1,25.17,25.17,0,0,0,3.1-2.85Zm-19.31-16.45a23.88,23.88,0,0,0,6.06-2.06h-6.39v-2.88h8.17v-1.92h3.33v1.92h8.34v2.88h-6.33a22.72,22.72,0,0,0,6.33,2.17l-1.35,2.43a20.6,20.6,0,0,1-7-2.43l1.68-2.17H237.8l2,2.17a30.18,30.18,0,0,1-6.92,2.64Zm7.05,5.84V151h5v-1.51Zm0,3.88v1.75h5v-1.75Z"/><path class="cls-2" d="M259.42,152.41a24.2,24.2,0,0,1-2.27,2.85l-1.48-4.39a28.18,28.18,0,0,0,5.7-14.15l3.42.45a29.32,29.32,0,0,1-2,8.55v23.17h-3.36Zm18.33-8.86a30.75,30.75,0,0,0-6.46-4.32l2.11-2.89a46.55,46.55,0,0,1,6.62,4.12l-2,3.09h8.54V147h-8.84v6.49h7.62v3.4h-7.62v7.62h9.59v3.33H264.63v-3.33h9.56v-7.62h-7.65v-3.4h7.65V147h-8.74v-3.4Z"/><path class="cls-2" d="M307.58,154.2l15.65-1.72.27,3.4-15.92,1.75v6.8c0,.65.46.65.69.65h9.06a1,1,0,0,0,1.06-.89,44.17,44.17,0,0,0,.23-4.6l3.59.92c-.13,5.19-.3,8.14-3.59,8.14H307.28c-.86,0-3.16,0-3.16-2.54V158l-11.34,1.27-.23-3.43,11.57-1.28v-4.15c-1.91.24-4.06.38-5.94.52l-1.08-3.51c2.53-.1,12-.44,19.51-3.22l1.71,3.22A46.48,46.48,0,0,1,307.58,150Zm-1.22-17.55h3.43v3h12.82v8.2h-3.43v-4.77H297v4.77H293.5v-8.2h12.86Z"/><path class="cls-2" d="M334.05,148.53c-1.49.9-2.71,1.48-4,2.13l-1.69-3.47a32.85,32.85,0,0,0,14-10.57h3.7a29.79,29.79,0,0,0,14.23,10.47l-1.84,3.5a27.08,27.08,0,0,1-4-2.06v2.58H346v4.63h10.41v3.09H346v5.56h13.34v3.51H329.07v-3.51h13.38v-5.56H332.1v-3.09h10.35v-4.63h-8.4Zm19.24-.79a42.37,42.37,0,0,1-9.09-8.1,37.55,37.55,0,0,1-8.9,8.1Z"/><path class="cls-2" d="M373.93,156.19c-2.28.38-4.09.89-4.09,5.18v.76h17.3v3.71H365.92v-3c0-4.26.33-9.27,6.66-10.23l6.46-1c2.9-.44,4.31-1.27,4.31-4.63s-1.51-4.77-6.39-4.77c-5.5,0-6.69,1.33-6.72,5.63h-3.89c.06-5.84,1.68-9.34,10.38-9.34,5,0,10.51.65,10.51,8.48,0,3.6-1.08,5.32-2.86,6.52a10.53,10.53,0,0,1-4.19,1.65Z"/><path class="cls-2" d="M392.88,157.32a31.07,31.07,0,0,0,4.75-11.09h-4.26v-3.29h4.36v-6.25h3.16v6.25h3.66v3.29h-3.66v1.2a18.73,18.73,0,0,0,4.05,6.42L403.26,157a21.15,21.15,0,0,1-2.37-4.29v16.17h-3.16v-15.1c-1.42,5.08-2.74,6.86-3.63,8.1Zm9.79,7.25A22.68,22.68,0,0,0,411,157h-5.67V144.62h7.42v-2h-8.24V139.3h8.24v-2.61h3.1v2.61h8.5v3.36h-8.5v2h7.44V157H417.9a24.58,24.58,0,0,0,7,7.25L423,167.31a23.5,23.5,0,0,1-7.11-8.51v10.09h-3.1v-9.65a24.36,24.36,0,0,1-8.24,8.42Zm5.77-17.24v2.27h4.35v-2.27Zm0,4.7v2.24h4.35V152Zm7.45-4.7v2.27h4.44v-2.27Zm0,4.7v2.24h4.44V152Z"/><path class="cls-2" d="M452.77,156.19c-2.28.38-4.09.89-4.09,5.18v.76H466v3.71H444.76v-3c0-4.26.33-9.27,6.66-10.23l6.46-1c2.9-.44,4.32-1.27,4.32-4.63s-1.52-4.77-6.4-4.77c-5.5,0-6.69,1.33-6.72,5.63h-3.89c.06-5.84,1.68-9.34,10.38-9.34,5,0,10.51.65,10.51,8.48,0,3.6-1.08,5.32-2.86,6.52a10.53,10.53,0,0,1-4.19,1.65Z"/><path class="cls-2" d="M479.3,159.79c-.33.62-.66,1.17-1.28,2.13l-3.43-1.37a45.11,45.11,0,0,0,3.76-7.25h-6V150h30.91v3.26H482.14c-.27.69-1.09,2.72-1.36,3.27h19.48c-.19,2.64-.65,8-1.71,10a4.1,4.1,0,0,1-3.82,2.37h-5.8l-.76-3.61h5.93c1.19,0,2.08-.62,2.44-5.53Zm21.19-22v9.78H475.31v-9.78Zm-21.88,3.12v3.57H497.2v-3.57Z"/><path class="cls-2" d="M507.65,157.32a31.07,31.07,0,0,0,4.75-11.09h-4.26v-3.29h4.35v-6.25h3.17v6.25h3.66v3.29h-3.66v1.2a18.73,18.73,0,0,0,4.05,6.42L518,157a21.15,21.15,0,0,1-2.37-4.29v16.17h-3.17v-15.1c-1.41,5.08-2.73,6.86-3.62,8.1Zm9.79,7.25a22.78,22.78,0,0,0,8.37-7.56h-5.67V144.62h7.42v-2h-8.24V139.3h8.24v-2.61h3.09v2.61h8.51v3.36h-8.51v2h7.45V157h-5.44a24.81,24.81,0,0,0,7,7.25l-1.92,3.05a23.62,23.62,0,0,1-7.12-8.51v10.09h-3.09v-9.65a24.45,24.45,0,0,1-8.24,8.42Zm5.77-17.24v2.27h4.35v-2.27Zm0,4.7v2.24h4.35V152Zm7.44-4.7v2.27h4.45v-2.27Zm0,4.7v2.24h4.45V152Z"/></g></svg>