<svg xmlns="http://www.w3.org/2000/svg" width="650" height="295" viewBox="0 0 650 295"><defs><style>.cls-1{fill:#00ae22;}.cls-2{fill:#fff;}</style></defs><title>joho_matome</title><g id="レイヤー_3" data-name="レイヤー 3"><path class="cls-1" d="M141.07,92.28a9.22,9.22,0,0,0,4-2.15l-1.82-1.23h-1.36a9.49,9.49,0,0,1,.47,1.26l-3.56.37a8.63,8.63,0,0,0-.61-1.63H138c-.26.29-.55.64-1.18,1.26l2.8.76c-.14.47-.26.79-.56,1.68h2.07v11.56a14.05,14.05,0,0,0,3.86-2h-3.3V99.38h5.12v-1h3.48v1h5.07v2.77h-3.23a13.22,13.22,0,0,0,3.72,2.2l-2,3.74a13.26,13.26,0,0,1-3.56-3.22v3.32h-3.48v-3.37a15.71,15.71,0,0,1-4.32,3.29l-1.39-2.52h-2.38V93.45c-.37.89-.56,1.28-.72,1.6v13.14h-3.33v-8.14a11,11,0,0,1-1,1.11l-1.06-5a15.39,15.39,0,0,0,3.21-5.12,3.74,3.74,0,0,1-.31.27l-2.61-2.94a11.74,11.74,0,0,0,3.55-3.94l4.13.32c-.12.3-.22.47-.38.82H144v2.35A11.75,11.75,0,0,0,146,84.47l3.91.29c-.17.47-.19.6-.28.82h5.7V88.9h-2.78a9.44,9.44,0,0,1,.45,1l-3.8.3a9.18,9.18,0,0,0-.61-1.33H148a11,11,0,0,1-.71,1l1.93.27-.4.55h6.39V93.4h-1a8.59,8.59,0,0,1-2.14,2.27,30.19,30.19,0,0,0,3.86.42l-1.27,3.19a19,19,0,0,1-6.06-1.68,37.44,37.44,0,0,1-6.05,1.73L141.21,96a17.8,17.8,0,0,0,4.15-.42,11.42,11.42,0,0,1-1-1c-.52.27-.83.42-1.44.69Zm5.75,1.12a7.89,7.89,0,0,0,1.64,1.16A4.22,4.22,0,0,0,150,93.4Z"/><path class="cls-1" d="M169.25,96.22H161V89.61h5.77v-1H160V85.26h22.38v3.39h-6.74v1h5.73v6.61h-8.23v1.26h9.24V101h-5.84a15.65,15.65,0,0,0,6.24,3.19l-2.14,3.61a18.5,18.5,0,0,1-7.5-5.15v5.52h-3.84v-5.37a23.92,23.92,0,0,1-7.39,5l-2.17-3.61a17.11,17.11,0,0,0,6.19-3.24H160V97.48h9.3Zm-4.5-3.94v1.29h2V92.28Zm5.47-3.63v1h1.91v-1Zm0,3.63v1.29h1.91V92.28Zm5.37,0v1.29h2V92.28Z"/><path class="cls-1" d="M189.52,99.38a36.34,36.34,0,0,1-.8,7.69l-2.31-2c.5-1.76.52-2,.73-5.93ZM195.88,98l-2.09.74a9,9,0,0,0-.12-1,5.9,5.9,0,0,0-.66.1v10.24h-2.94V98.27c-2,.25-2.43.27-3.07.3L186.72,95l1.32,0c.33-.45.71-1,1-1.36a23,23,0,0,0-2.57-2.82l1.46-3.64c.12.13.28.25.44.42a20.58,20.58,0,0,0,1.28-3l3.18.74a37.91,37.91,0,0,1-2.36,4.53c.19.2.4.47.57.67A34.72,34.72,0,0,0,193,87l2.95,1.28a48.42,48.42,0,0,1-3.14,4.85l2.15-.72A25,25,0,0,1,196,95.5V86.25h4a13.55,13.55,0,0,0,.47-1.71l4.12.22c-.21.6-.38,1.07-.54,1.49h4.55v9.92H204a12.12,12.12,0,0,0,1,2.25,11.43,11.43,0,0,0,1.69-2.15l2.81,2.32a21.52,21.52,0,0,1-2.64,2.5,14.06,14.06,0,0,0,2.73,2.55l-1.86,3.88A11.93,11.93,0,0,1,204,102.4v3.41c0,1.44-.26,2.28-1.91,2.28h-3.37l-.47-3a8,8,0,0,1-2.1,2.57l-2-2.59a2,2,0,0,0,.21-.18l-.59.15a56.47,56.47,0,0,0-.28-5.69L195.7,99c.11,1,.3,2.54.37,4a9.42,9.42,0,0,0,1.18-2.45h-1.37Zm-4.35-3.29,1.53-.1c-.07-.22-.36-1.18-.4-1.38C192,94.19,191.71,94.48,191.53,94.73Zm8.95,2.4v-1h-4.27c.15.54.19.71.24,1Zm-.73,7.1c.59,0,.73-.17.73-.74V98.24a18.31,18.31,0,0,1-1.77,6Zm-.07-15.16v1.09h5.2V89.07Zm0,3.29v1.16h5.2V92.36Z"/><path class="cls-1" d="M233.75,82.1h-7.24v26.37h-5.39v-32h12.63Z"/><path class="cls-1" d="M245.89,105.22a20.62,20.62,0,0,0,4.37-6.61h-1.57V84h6.79a15.8,15.8,0,0,0,.33-1.61h-8.55V93.51c0,9.45-2.12,13.25-3.33,15.44l-4.7-4.49a23.41,23.41,0,0,0,2.71-11.36V77.28h29v5.06h-9.23c-.1.41-.43,1.27-.53,1.61h8.2V98.61h-1.86a25.88,25.88,0,0,0,4,6.37l-4.24,3.83a25,25,0,0,1-4.64-8.29l4.15-1.91h-4.9v7c0,1.57-.42,3.35-3.36,3.35h-4.31l-1-4.45a20.64,20.64,0,0,1-3.2,4.32Zm9.23-4.7a22.23,22.23,0,0,1-1.4,3.12h2c.59,0,.62-.14.62-1v-4h-5.58ZM253.88,88.1v1.5h10.38V88.1Zm0,4.79v1.54h10.38V92.89Z"/><path class="cls-1" d="M305.87,84.84v20.68c0,3.43-3,3.46-3.85,3.46h-6.37l-.62-4.24H282.79v2.77h-5v-30H295v1.61h13.12v5.68Zm-23.08-2.09V88.4h1.8V82.75Zm0,10.55v6h1.8v-6Zm6-10.55V88.4h2V82.75Zm0,10.55v6h2v-6ZM295,84.84v18.29h4.18c1.14,0,1.14-.52,1.14-1.2V84.84Z"/><path class="cls-1" d="M326.91,109.05H314.28V103.4h7.25V77h5.38Z"/><path class="cls-1" d="M343,98.54a31.93,31.93,0,0,1-1,9.52l-2.35-2c.56-1.74.95-3.25,1.08-7.63Zm7.12-.41a23.48,23.48,0,0,1,.62,4c.1-1,.16-4.25.2-5h-9.7V77.34H355v4.28h-3.46v1.44h2.9v3.32h-2.9v1.51h2.9v3.6h-2.9V93.1H355c-.07.75-.13,4.51-.17,5.37,0,.55-.13,2.88-.42,5.27a28.88,28.88,0,0,0,1.92-10.06V77.34h14.33V94h-3.13a19.9,19.9,0,0,0,4.24,9.62l-3.2,5.72c-2.54-2.81-4.73-6.3-5.84-15.34h-1.53v.65c0,9-2.12,12.7-3.33,14.69l-3.79-3.53c-.55,2.09-1.6,3.33-4.66,3.33H347l-1.08-4.35H349c1.37,0,1.44-.28,1.63-1.92l-1.37.31c-.06-1.06-.26-3.32-.49-4.76Zm-4.57.41c.1,2,.13,2.91.13,3.66s0,2.13-.1,3.29l-2.12.24a51,51,0,0,0,.39-5.51,11.3,11.3,0,0,0-.09-1.61Zm.33-16.92v1.44h1.79V81.62Zm0,4.76v1.51h1.79V86.38Zm0,5.11V93.1h1.79V91.49ZM348,98.4a33.17,33.17,0,0,1,.42,5.24l-2,.27a18.33,18.33,0,0,0,.14-2.32,20,20,0,0,0-.23-3Zm13.38-15.58v6h4.21v-6Z"/><path class="cls-1" d="M376.93,81.49a14,14,0,0,0,4.83-5.31l5.06,1.54a29.45,29.45,0,0,1-7.77,9.59Zm8,24.21V109h-5.15V97.61c-.59.55-.92.83-1.51,1.34L377,91.76a26.24,26.24,0,0,0,6.52-7.6l4,2.63h7.64V84.43h-7.22v-5.2h7.22V76.39h5.28v2.84h7.22v5.2h-7.22v2.36h8V92h-8v2.33h6.76v5.2h-6.76V103c.66,0,1.8.1,3.53.1,2.09,0,3.49-.07,4.86-.14l-1.08,5.41c-10.31.11-13.12-.17-16.54-4.21a17.42,17.42,0,0,1-3.24,5.2Zm8.46-12a40,40,0,0,1-.66,5,7.42,7.42,0,0,0,2.39,2.61V92h-7.94V88.16a25.72,25.72,0,0,1-2.25,3.6V104.5c1.21-1.37,3.14-4.08,3.63-11.2Z"/><path class="cls-1" d="M415.73,103.61c2.09,0,10.81-.07,15.41-2.43a3.21,3.21,0,0,1-1,.13h-6.27L423,96.69a21,21,0,0,1-5.15,4.11l-3.43-4.52a21,21,0,0,0,6.85-5.44h-6.52V85.66h4.4V78h5.35v7.7h3.3v-9.1h5.32v2.15h10.12v5H433.16v1.91h12.5v5.18h-6.1a31.45,31.45,0,0,0,6.69,5.61l-3.43,4.45a33.6,33.6,0,0,1-7.9-7.67l3.46-2.39h-5.22V98a3.23,3.23,0,0,1-.78,2.39,15.23,15.23,0,0,0,4.11-4.14l3.85,3.77c-2.41,3.21-7.24,8.8-22.85,9.21ZM426,93.23a15.16,15.16,0,0,1-2.55,3.08h3.46c1,0,1-.92,1-1.23V90.84h-5.55Z"/><path class="cls-1" d="M472.81,78.78V95.11h3.92v5.62h-3.92v5H467v-5H452.05v-6l12.57-16ZM467,83.61l-8.91,11.5H467Z"/><path class="cls-1" d="M488,91.21c-.79.72-1.27,1.13-2,1.75l-3.53-5.27a21.17,21.17,0,0,0,9-11.41l5.35,1.06a32,32,0,0,1-5.51,10.31h14.52a42,42,0,0,1-5.45-10.13l5.35-1.31c1.73,4.08,4.31,8.6,9,11.82L511.09,93a22.87,22.87,0,0,1-1.8-1.47c-.23,5.82-.46,12.15-1.53,14.79a3.84,3.84,0,0,1-4.15,2.81h-6.1l-1.08-5.69h4.83a1.61,1.61,0,0,0,1.47-.79c.26-.54.78-3.63,1-9.51h-5.55c-1,8.59-5.48,13-12.17,16.09l-3.17-5.45c8.55-3,9.56-7.8,9.79-10.64H488Z"/><rect class="cls-1" x="56.71" y="127.29" width="536.57" height="53.21" rx="23.62"/><path class="cls-1" d="M239.8,51.12a31.42,31.42,0,0,1-3.43,6.08l-1.55-4.94a28.89,28.89,0,0,0,4.61-8.18h-4.08V40.14h4.45V29.53h3.82V40.14h4v3.94h-3.89a29.09,29.09,0,0,0,4.45,6.36l-2,3.81a32.23,32.23,0,0,1-2.57-4.5v12H239.8ZM238.05,31a31.07,31.07,0,0,1,1.29,7.32l-3.14.82a31.31,31.31,0,0,0-1-7.28Zm10.45.59a37.37,37.37,0,0,1-1.65,7.48L244,38.14A29.49,29.49,0,0,0,245.3,31Zm.46,2.54h5a18,18,0,0,0,1.15-4.6l4.35.2a32.29,32.29,0,0,1-1.28,4.4h7.22V61.8h-4V59.91H253V61.8h-4Zm4,3.95v6.66h8.43V38.08Zm0,10.47v7.34h8.43V48.55Z"/><path class="cls-1" d="M287.72,49.71c-1.22.07-7.15.28-8.5.31l-.4-3.6h2.44a16,16,0,0,0,1.39-2.78h-4.52V45c0,9.55-1.42,13.18-3.36,16.69l-3.59-3C273,55.48,274,52.36,274,45V30.52H301.2v8.17H278.13v1.65h24.52v3.3h-5A47.86,47.86,0,0,1,301.89,49l-3.42,2.27c-.47-.76-.5-.83-1.36-2.13-1.64.2-4.12.37-5.33.44v2.37h9.59V55h-9.59v2.67h10.87v3.37H277.93V57.71h9.79V55h-8.37V51.91h8.37Zm9.36-16.06H278.13v2.06h18.95Zm-2.47,10h-7.42c-.26.44-1.31,2.4-1.58,2.78,4.32,0,6.36,0,9.23-.28a19.89,19.89,0,0,0-1.65-1.71Z"/><path class="cls-1" d="M308.65,30.69h16.51V57.44H312.44v2.78h-3.79Zm3.79,4v7.21h2.77V34.68Zm0,11v7.83h2.77V45.63Zm6.2-11v7.21h2.93V34.68Zm0,11v7.83h2.93V45.63ZM332,37.15h-6.23v-4.4h13.22v4.4h-2.87V58.92a2.62,2.62,0,0,1-2.8,2.88h-6.82l-.69-4.33H331c.92,0,.92-.62.92-1Z"/><path class="cls-1" d="M360.56,51.09h-8V37h7.09c.2-.72.4-1.75.5-2.37h-9.6V46.38a50.09,50.09,0,0,1-.82,8.21,19.69,19.69,0,0,1-2.7,7l-3.46-3.19c2.93-4.81,2.93-10.34,2.93-12.81V30.76H375v3.85H364.55c-.39,1.41-.46,1.61-.72,2.37h9.09V51.09h-8.17V59c0,2.44-1.29,2.75-2.74,2.75h-4.48l-.95-4h3.23c.59,0,.75-.24.75-1Zm-2.27,2.64a25.7,25.7,0,0,1-5.64,7.62l-3.13-3A20.68,20.68,0,0,0,354.7,52Zm-1.81-13.35v2.16H369V40.38Zm0,5.11v2.16H369V45.49ZM370.42,52a33.05,33.05,0,0,0,5,6.36l-3.26,2.85a30.06,30.06,0,0,1-5.37-7.49Z"/><path class="cls-1" d="M381.17,30.69h16.51V57.44H385v2.78h-3.79Zm3.79,4v7.21h2.76V34.68Zm0,11v7.83h2.76V45.63Zm6.19-11v7.21h2.94V34.68Zm0,11v7.83h2.94V45.63Zm13.32-8.48h-6.23v-4.4h13.21v4.4h-2.86V58.92a2.62,2.62,0,0,1-2.8,2.88H399l-.69-4.33h5.27c.93,0,.93-.62.93-1Z"/><path d="M238.75,206.3h1.44v17.77h3.95v1.12h-3.95v4.06c0,1.54.77,2.14,2.44,2.14h.56v1.12h-8.88v-1.12h.56c1.64,0,2.45-.56,2.45-2.14v-4.06H227.9V224Zm-1.43,4.62-8.09,13.15h8.09Z"/><path d="M258,208.12h-1.22a2.25,2.25,0,0,0-2.49,2.41V229a2.25,2.25,0,0,0,2.49,2.42h.94a10.61,10.61,0,0,0,9.48-5.78l.91.46-2.48,6.44H247.85v-1.12H249a2.27,2.27,0,0,0,2.52-2.42V210.53a2.26,2.26,0,0,0-2.52-2.41h-1.19V207H258Z"/><path d="M272.41,207h10c8.19,0,13.26,4.2,13.26,12.6,0,6-3.14,12.95-12.94,12.95H272.41v-1.12h1.19a2.26,2.26,0,0,0,2.52-2.42V210.53a2.26,2.26,0,0,0-2.52-2.41h-1.19Zm6.48,22a2.25,2.25,0,0,0,2.48,2.42h1.68c6.33,0,9.52-5.67,9.52-12.11,0-4.44-1.82-11.16-9.38-11.16h-1.82a2.24,2.24,0,0,0-2.48,2.41Z"/><path d="M312.72,216.76l7.77,12.42a4.92,4.92,0,0,0,4.13,2.21h.49v1.12h-9.9v-1.12h.84a1.27,1.27,0,0,0,1.39-1.16,2.75,2.75,0,0,0-.49-1.43l-6.19-9.91-3.32,3.61V229a2.28,2.28,0,0,0,2.52,2.42h1v1.12h-9.73v-1.12h1a2.24,2.24,0,0,0,2.48-2.42V210.53a2.24,2.24,0,0,0-2.48-2.41h-1V207h9.73v1.16h-1a2.27,2.27,0,0,0-2.52,2.41v10.32L317,210.43a1.73,1.73,0,0,0,.45-1.12c0-1-1.08-1.19-1.85-1.19h-.91V207h9.87v1.16h-.63a6.84,6.84,0,0,0-5.6,2.52Z"/><path d="M330,223h6v-6h1.25v6h6.07v1.25h-6.07v6h-1.25v-6h-6Z"/><path d="M363,218.47l-.74.3c-.78-1.38-2.2-3.8-5.33-3.8a3.13,3.13,0,0,0-3.36,3.23c0,2,1.47,2.79,4.68,3.92a19,19,0,0,1,2.4,1c1.91,1,3.21,2.13,3.21,4.53a5.19,5.19,0,0,1-5.32,5.29,8.63,8.63,0,0,1-2.62-.49,2.72,2.72,0,0,0-1-.24,4.38,4.38,0,0,0-2,.68l-1.81-4.73.93-.44A8.61,8.61,0,0,0,354,230.3a6.85,6.85,0,0,0,4.41,1.81,3.52,3.52,0,0,0,3.62-3.69c0-2.26-1.44-3-4.55-4.12-3.45-1.18-5.68-2.45-5.68-5.39a4.62,4.62,0,0,1,4.92-4.75,8.06,8.06,0,0,1,1.74.2,13.24,13.24,0,0,0,1.47.27,1.71,1.71,0,0,0,1.37-.47Z"/><path d="M372.91,231.55a1.43,1.43,0,1,1-1.43-1.42A1.45,1.45,0,0,1,372.91,231.55Z"/><path d="M386.82,215.44h-1.18a1.57,1.57,0,0,0-1.74,1.68V230a1.57,1.57,0,0,0,1.74,1.69h1.18v.79h-7.77v-.79h1.15A1.59,1.59,0,0,0,382,230V217.12a1.58,1.58,0,0,0-1.77-1.68h-1.15v-.81h7.77Z"/><path d="M395.81,231.55a1.42,1.42,0,1,1-1.42-1.42A1.44,1.44,0,0,1,395.81,231.55Z"/><path d="M416.11,219c-.91-1.37-2.67-4-5.95-4-3.92,0-5.85,4-5.85,8.25,0,4.75,2.3,8.62,6.41,8.62,3.48,0,5.19-3.18,5.83-4.43l.66.39c-.95,1.89-2.67,5.17-7.22,5.17-5.17,0-7.69-4.19-7.69-9,0-5.73,3.55-9.8,7.69-9.8a6.93,6.93,0,0,1,2.06.3c.19,0,1.34.36,1.49.36a3.48,3.48,0,0,0,1.64-.59l1.74,4.41Z"/><path d="M144,256.72l.85-1.12c.12-.16.19-.25.31-.25s.14.05.39.23l1.39,1.1a.43.43,0,0,1,.21.33c0,.19-.19.21-.33.21h-6.91c0,.68,0,3.67,0,4.27,0,.21,0,4.52,0,5.12h5.5l1-1.12c.15-.16.21-.24.32-.24s.18.06.39.22l1.37,1.1c.1.09.21.19.21.31s-.19.23-.32.23H132.83a14.51,14.51,0,0,0-2.45.19l-.41-.83c1.39.12,2.8.14,3.19.14h5.29c0-.18,0-4.58,0-5.06v-4.33h-4.38a14.35,14.35,0,0,0-2.44.19l-.42-.81c1.39.1,2.8.12,3.2.12h4c0-4.7,0-5.24-.52-6.76l2.51.67c.21.06.33.1.33.29a.38.38,0,0,1-.18.31c-.09.08-.48.39-.61.47,0,1.68,0,3.34,0,5Z"/><path d="M160.39,256.85H158v6.67c1.68-.49,2.15-.68,2.63-.85l.08.17a21.73,21.73,0,0,1-3,1.76l-2.55,1.29c-.19.43-.27.66-.52.66a.43.43,0,0,1-.33-.25l-1.08-1.84c.7,0,1.06.08,3.4-.56,0-.71,0-3.86,0-4.5v-2.55h-.42a14.49,14.49,0,0,0-2.44.18l-.4-.83c1.23.11,2.47.15,3.26.15,0-1,0-2.07,0-3.11a11.47,11.47,0,0,0-.27-3.07l2.09.71c.11,0,.29.12.29.31s-.41.56-.7.74c0,1.45,0,2.16-.06,4.42h.49l.63-.68c.18-.21.25-.27.35-.27s.25.14.35.22l.73.69c.1.1.18.18.18.31S160.52,256.85,160.39,256.85Zm9.27,10.61c-.48.09-4.15.09-4.73.09-3.4,0-4-.17-4-2.43,0-.81.06-4.37.06-5.1,0-.21,0-1.14,0-1.33a11.45,11.45,0,0,0-2,1.1l-.7-.58a28.36,28.36,0,0,0,2.71-1.08v-3.67a10.28,10.28,0,0,0-.23-2.4l1.93.66c.15,0,.31.13.31.29s-.16.33-.66.68c0,.63,0,3.32,0,3.86l2.26-1c0-2.08,0-3.55,0-5a14.16,14.16,0,0,0-.25-1.83l2,.67c.21.06.35.16.35.31s-.29.43-.72.77c0,1.86,0,2.13,0,4.5l2-.9.49-.83c.11-.16.21-.35.36-.35a.76.76,0,0,1,.39.17l1,.6a.43.43,0,0,1,.2.33c0,.25-.23.46-.52.73,0,6.22,0,7.65-2.46,8.29a2.64,2.64,0,0,0-1.25-1.74v-.1a4.76,4.76,0,0,0,.65,0c1.45,0,1.68-.19,1.68-4.56,0-1.41,0-1.64-.05-2.24l-2.46,1.12c0,3,0,5,.06,5.59,0,.27.06,1.5.06,1.75a1,1,0,0,1-1.06,1c-.29,0-.49-.1-.49-.54,0-.22.06-1.28.06-1.49,0-1.33,0-2.11.06-5.76l-2.26,1c0,.83,0,7.2,0,7.45a.69.69,0,0,0,.5.58c.27.08,3.23.08,3.63.08,2.13,0,2.78,0,3.21-.77a17.7,17.7,0,0,0,.91-2.51h.15a7.32,7.32,0,0,0,.39,2.47c.13.21.48.4.48.6S171.22,267.19,169.66,267.46Z"/><path d="M183.43,254.81a21.66,21.66,0,0,0,1.23-3.46h-5.42a13.88,13.88,0,0,0-2.44.19l-.42-.83c1.06.08,2.12.14,3.2.14h12.36l.91-.89a1.23,1.23,0,0,1,.39-.31c.11,0,.19.06.4.23l1.16.93c.08.07.2.19.2.31s-.2.23-.33.23h-8.06a36.1,36.1,0,0,1-2.68,3.46h7.55l.58-.6c.21-.2.27-.27.39-.27s.27.13.38.21l.95.81a.38.38,0,0,1,.17.27c0,.19-.09.25-.83.66,0,2.35,0,5.31,0,7.66,0,1,.1,2.5.1,3.46a.92.92,0,0,1-1,1c-.63,0-.63-.33-.58-1.51h-11.8c0,.08,0,.56,0,.66a1,1,0,0,1-1,1c-.66,0-.66-.46-.66-.65s.06-1.09.06-1.26c0-2.26.14-7,.14-9a14.47,14.47,0,0,0-.29-3.4l2.14,1Zm-3.58.5V266h2.75V255.31Zm7.32,3.15v-3.15H184v3.15Zm0,3.63V259H184v3.13Zm0,3.88v-3.38H184V266Zm4.48,0V255.31h-3.07V266Z"/><path d="M198.82,263.67a26.65,26.65,0,0,0,3.86-7.94h-.48a15.47,15.47,0,0,0-2.44.18l-.4-.83c1.18.11,2.39.15,3.47.15,0-1-.05-2.47-.05-3.36a19.71,19.71,0,0,1-3.38.37v-.16a34.87,34.87,0,0,0,5.6-2.32,1.49,1.49,0,0,0,.44-.5l1.43,1.2a.37.37,0,0,1,.14.29c0,.21-.2.21-.39.21l-.6,0a18,18,0,0,1-1.93.62c0,.95,0,2.86,0,3.67h.39l.5-.75c.09-.12.19-.27.31-.27s.29.15.4.23l.89.75a.44.44,0,0,1,.21.33c0,.21-.21.21-.31.21h-2.39c0,.39,0,1.32,0,1.82,2,.73,2.72,2,2.72,2.62a.79.79,0,0,1-.77.82c-.5,0-.56-.2-1-1.36a3.78,3.78,0,0,0-1-1.81c0,3.61,0,4,.08,5.6,0,1.41.09,3.05.09,3.8,0,.37,0,1.2-1,1.2-.54,0-.6-.31-.6-.71,0-.68.17-3.73.19-4.35,0-2,0-2.84,0-4.65a13.65,13.65,0,0,1-3.92,5.06Zm6.66,4.38c1.45-.71,3.79-2.08,4.29-3l1.49,1.1a.36.36,0,0,1,.19.31c0,.29-.48.27-1,.27a16.56,16.56,0,0,1-4.94,1.43Zm9.21-16.51.51-.83c.11-.17.21-.29.32-.29s.27.14.39.25l1,.83a.43.43,0,0,1,.2.33c0,.19-.16.21-.31.21h-4.39v1.7h1.66l.49-.75c.09-.12.17-.25.31-.25s.25.13.38.23l.85.72a.48.48,0,0,1,.2.34c0,.18-.18.2-.31.2h-3.58v1.87h3.44l.6-.85c.1-.17.23-.27.33-.27s.25.12.37.25l.9.83a.53.53,0,0,1,.2.33c0,.21-.16.21-.31.21h-8.62a14.53,14.53,0,0,0-2.45.18l-.42-.82c1.06.08,2.14.14,3.2.14H211v-1.87h-.5a13.16,13.16,0,0,0-2.45.21l-.39-.83c.62,0,1.53.13,3.34.13,0-.81,0-1.31,0-1.7h-1.37a14.41,14.41,0,0,0-2.45.18l-.41-.83c1.51.13,2.84.15,3.19.15h1a6,6,0,0,0-.37-2.22l2.12.64a.32.32,0,0,1,.29.31c0,.27-.48.5-.58.54v.73Zm-.48,6.49.48-.52c.08-.08.2-.21.29-.21s.25.13.33.19l.81.68a.56.56,0,0,1,.23.38c0,.21-.25.37-.61.54a7.23,7.23,0,0,0,0,.76c0,.71.17,3.8.17,4.42a.85.85,0,0,1-.95,1c-.54,0-.54-.27-.52-.71h-4.94c0,.48.06,1-.93,1-.35,0-.54-.1-.54-.47,0,0,0-.21,0-.5,0-.77,0-3,0-3.92a13.3,13.3,0,0,0-.23-3.28l1.64.73Zm-4.73.5V260h4.94v-1.47Zm0,2V262h4.94V260.5Zm0,2V264h4.94v-1.53Zm3.49,2.82c1.86.16,4.49,1.1,4.49,2.34a.83.83,0,0,1-.82.81c-.48,0-1-.52-1.31-.91a10.69,10.69,0,0,0-2.36-2.1Z"/><path d="M224.87,254.79a1.21,1.21,0,1,1-2.41,0,1.21,1.21,0,0,1,2.41,0Zm0,8.17a1.21,1.21,0,1,1-1.2-1.2A1.21,1.21,0,0,1,224.87,263Z"/><path d="M229.83,266.1H231c1.08,0,1.45-.42,1.45-1.27V253.61c0-.64-.6-.74-1-.74h-1.57v-.65h.37a7.9,7.9,0,0,0,3.38-.87c.15-.08.21-.12.29-.12s.23.12.23.29v13.31c0,.89.44,1.27,1.45,1.27h1.14v.66h-6.88Z"/><path d="M250.82,262.59a4.62,4.62,0,0,1-4.9,4.56c-2.36,0-4.48-1.37-4.48-3.73s1.79-3.3,3.69-4.42c-1.1-.64-3.09-1.8-3.09-4.06,0-2.05,1.62-3.71,4.15-3.71a3.48,3.48,0,0,1,3.8,3.27c0,1.77-1.7,3.05-2.6,3.72C249.34,259.42,250.82,260.46,250.82,262.59Zm-7.64.77a3,3,0,0,0,3,3.09,3.23,3.23,0,0,0,3.15-3.13c0-2-2-3.13-3.56-4C244.82,260,243.18,261.31,243.18,263.36Zm5.29-8.63a2.62,2.62,0,0,0-2.57-2.8,2.4,2.4,0,0,0-2.45,2.47c0,1.45,1.19,2.18,3.34,3.46A3.93,3.93,0,0,0,248.47,254.73Z"/><path d="M260.6,251.23h.85v10.53h2.35v.67h-2.35v2.4c0,.91.46,1.27,1.46,1.27h.33v.66H258v-.66h.33c1,0,1.45-.34,1.45-1.27v-2.4h-5.57v-.73Zm-.85,2.74L255,261.76h4.79Z"/><path d="M269.79,266a1.2,1.2,0,1,1-1.2-1.2A1.22,1.22,0,0,1,269.79,266Z"/><path d="M279.79,251.23h.85v10.53H283v.67h-2.34v2.4c0,.91.45,1.27,1.45,1.27h.33v.66h-5.27v-.66h.34c1,0,1.45-.34,1.45-1.27v-2.4h-5.58v-.73Zm-.85,2.74-4.79,7.79h4.79Z"/><path d="M291.94,260.75a3.48,3.48,0,0,1-1.8.53c-2.06,0-3.71-2.07-3.71-4.6,0-2.86,2.05-5.45,4.43-5.45s4.77,2.69,4.77,7.15c0,4.79-2.69,8.77-5.87,8.77-1.39,0-2.36-.83-2.36-1.8a1,1,0,0,1,1.06-1.08c.41,0,1.1.27,1.14,1.43,0,.46.06.75.62.75a2,2,0,0,0,1.51-.73c1.85-2,1.95-5.1,2-6.94A5.42,5.42,0,0,1,291.94,260.75Zm.69-7.7a2.08,2.08,0,0,0-1.68-1.12c-1.1,0-2.66,1.16-2.66,4.56,0,1,.23,3.86,2.37,3.86.78,0,2.11-.58,3.09-2.82A10.16,10.16,0,0,0,292.63,253.05Z"/><path d="M302.6,256.56v1.63a4.71,4.71,0,0,1,3.42-1.63,2.29,2.29,0,0,1,2.49,1.86,5.2,5.2,0,0,1,3.71-1.86c1.83,0,2.66,1.1,2.66,3.4v4.89c0,.79.41,1.25,1,1.25h.38v.66H312v-.66h.4c.72,0,1-.56,1-1.25v-4.77c0-.58-.08-2.63-1.8-2.63a3.89,3.89,0,0,0-2.94,1.8,5.05,5.05,0,0,1,0,.71v4.89c0,.87.47,1.25,1,1.25h.61v.66h-4.77v-.66h.6c.58,0,1.06-.4,1.06-1.25v-4.77c0-.43-.07-2.63-1.81-2.63a3.69,3.69,0,0,0-2.8,1.64v5.76c0,.87.48,1.25,1,1.25H304v.66H299.7v-.66h.37c.62,0,1-.44,1-1.25v-6.24a.85.85,0,0,0-.85-1,1.83,1.83,0,0,0-.62.08l-.11-.4Zm10.72-1.23a11.76,11.76,0,0,1,1.21-1.32c.43-.48,1.18-1.29,1.18-2,0-.27-.17-.77-.65-.77a.68.68,0,0,0-.7.56c0,.08.19.45.19.54a.57.57,0,0,1-.58.54.65.65,0,0,1-.63-.71,1.76,1.76,0,0,1,1.83-1.49,1.4,1.4,0,0,1,1.51,1.41,1.66,1.66,0,0,1-.64,1.35c-.23.22-1.51,1.26-1.72,1.55h1.28a.84.84,0,0,0,.81-.7l.33.1-.43,1.43h-3Z"/><path d="M361.4,267.67c-7.53-.1-10.77-.14-13.57-2.86a9.61,9.61,0,0,1-4.23,3.59l-.12-.13a13.21,13.21,0,0,0,3.59-4.31,10,10,0,0,1-1.93-4l.21-.17a9.24,9.24,0,0,0,2.09,3.4,14.27,14.27,0,0,0,1.16-5.64h-1.74c-.42,1.16-.52,1.47-1.2,1.47-.15,0-.75,0-.75-.47a12.11,12.11,0,0,1,.5-1.47c1.08-2.78,1.93-5,2.18-6h-.75a13.49,13.49,0,0,0-2.45.19l-.39-.83c1.05.08,2.11.15,3.17.15h.37l.54-.44c.19-.14.29-.21.4-.21a.8.8,0,0,1,.35.21l.81.69a.44.44,0,0,1,.21.37c0,.25-.42.43-1,.66-.45,1.16-.72,1.87-1.86,5.14h1.41l.56-.43a.75.75,0,0,1,.39-.21.55.55,0,0,1,.39.23l.65.66a.69.69,0,0,1,.24.44c0,.19-.2.31-.64.58a14.1,14.1,0,0,1-1.7,5.7,11.42,11.42,0,0,0,7.22,2.06,46.55,46.55,0,0,0,7.3-.61l0,.17A2.54,2.54,0,0,0,361.4,267.67Zm1.22-12.92h-2.86c.08,2.47.08,2.47.08,2.62,0,.41,0,1.05-1,1.05-.55,0-.53-.33-.51-.68h-2.55v2.16h3.11l.62-.79c.14-.17.23-.27.35-.27s.23.1.4.23l.93.78c.1.11.21.23.21.32s-.15.22-.32.22h-5.3l0,2.2h3.69l.79-.91c.16-.19.24-.27.35-.27s.23.08.37.23l1,.91a.49.49,0,0,1,.2.35c0,.13-.12.19-.31.19H355.8c0,.25,0,1.47,0,1.74a1,1,0,0,1-.92.75c-.66,0-.66-.38-.66-.6s.1-1.58.1-1.89h-1.41a14.61,14.61,0,0,0-2.42.19l-.42-.81c1.62.12,3.16.12,3.2.12h1.07c0-.56,0-1.08.05-2.2h-.63a13.74,13.74,0,0,0-2.42.19l-.42-.81c.63,0,1.79.13,3.49.13v-2.16H354a14.8,14.8,0,0,0-2.44.19l-.42-.81c1.49.1,3.07.12,3.28.12l0-2.49H352.5a13.78,13.78,0,0,0-2.43.19l-.41-.83c1.06.1,2.11.15,3.17.15h1.6l0-2.43h-.5a16.05,16.05,0,0,0-2.45.19l-.39-.83c1.45.12,2.8.14,3.32.14a3.7,3.7,0,0,0-.31-1.93l2,.48c.22.06.35.14.35.33s-.25.38-.58.56v.56h2.4l.52-.45c.15-.13.25-.21.38-.21s.22.1.37.23l.58.56a.62.62,0,0,1,.25.39c0,.17-.17.29-.58.58a11.54,11.54,0,0,0,0,1.83h.74l.61-.77c.12-.17.22-.25.33-.25a.63.63,0,0,1,.39.21l.89.76c.11.11.21.21.21.31S362.83,254.75,362.62,254.75Zm-4.25,0H355.8l0,2.49h2.59Zm0-2.92h-2.53l0,2.43h2.57Z"/><path d="M372.64,260.64c0,2.51,0,2.95,0,4.15,0,.73.08,1.89.08,2.61s-.89,1-1.08,1c-.45,0-.56-.27-.56-.58,0-.09.05-.85.05-1,.08-1.55.08-2.11.12-5.43a21.5,21.5,0,0,1-2.55,1.18c0,.37-.06.73-.39.73s-.36-.23-.42-.36L367,261c1.28.06,1.63,0,4.35-.79,0-1.83,0-3.88,0-5.46h-1.87a16.45,16.45,0,0,1-1.84,4.59l-.13,0a33.26,33.26,0,0,0,.94-7.2,3.7,3.7,0,0,0-.21-1.41l2,.48c.17,0,.35.08.35.31s-.29.41-.62.54a19.08,19.08,0,0,1-.35,2.24h1.72c0-2.93-.1-3.78-.56-4.81l2.28.66c.13,0,.31.14.31.29s-.35.44-.66.6c0,.44,0,2.63,0,3.26h.41l.58-.79c.11-.13.21-.27.31-.27a.65.65,0,0,1,.38.23l.83.79a.47.47,0,0,1,.18.31c0,.18-.18.22-.31.22h-2.38c0,1.33,0,3.65,0,5,.41-.14,2.34-.81,2.71-.95l.07.14A24.78,24.78,0,0,1,372.64,260.64ZM384.87,255c-.16,4.34-.33,8.28-1.64,11a4,4,0,0,1-3.21,2.1c-.14-.94-.48-1.52-1.76-2.45l.06-.15a9,9,0,0,0,2.51.44c.5,0,.83,0,1.41-1.47a32,32,0,0,0,1.16-10h-1.18c-.6,4.69-2.59,10.72-8.59,13l-.06-.14c4.4-3.3,6.26-6.8,7.13-12.84h-1.16c-.85,4.38-3.19,8.15-6.2,9.56l-.06-.12a17.71,17.71,0,0,0,4.75-9.44h-1a13,13,0,0,1-2.8,4.13l-.1-.11a23.11,23.11,0,0,0,2.67-8.46,2.49,2.49,0,0,0-.1-.7l2.07.83c.21.08.32.21.32.33,0,.27-.4.37-.73.46-.54,1.66-.89,2.5-1.1,3h6l.5-.52c.13-.14.23-.22.31-.22a.87.87,0,0,1,.37.18l1,.73c.14.1.23.17.23.29C385.58,254.69,385.1,254.92,384.87,255Z"/><path d="M397.65,254.81a20.62,20.62,0,0,0,1.22-3.46h-5.41a14.05,14.05,0,0,0-2.45.19l-.41-.83c1.06.08,2.11.14,3.19.14h12.36l.91-.89a1.35,1.35,0,0,1,.4-.31c.1,0,.18.06.39.23l1.16.93a.47.47,0,0,1,.21.31c0,.21-.21.23-.33.23h-8.07a36.11,36.11,0,0,1-2.67,3.46h7.54l.59-.6c.2-.2.27-.27.39-.27a.88.88,0,0,1,.37.21l1,.81a.39.39,0,0,1,.16.27c0,.19-.08.25-.83.66,0,2.35,0,5.31,0,7.66,0,1,.11,2.5.11,3.46a.93.93,0,0,1-1,1c-.62,0-.62-.33-.58-1.51h-11.8c0,.08,0,.56,0,.66a1,1,0,0,1-1,1c-.67,0-.67-.46-.67-.65s.06-1.09.06-1.26c.05-2.26.15-7,.15-9a14.47,14.47,0,0,0-.29-3.4l2.14,1Zm-3.59.5V266h2.76V255.31Zm7.32,3.15v-3.15h-3.17v3.15Zm0,3.63V259h-3.17v3.13Zm0,3.88v-3.38h-3.17V266Zm4.48,0V255.31h-3.07V266Z"/><path d="M413,263.67a27.14,27.14,0,0,0,3.86-7.94h-.48a15.58,15.58,0,0,0-2.45.18l-.39-.83c1.18.11,2.38.15,3.46.15,0-1,0-2.47,0-3.36a19.71,19.71,0,0,1-3.38.37v-.16a35.25,35.25,0,0,0,5.6-2.32,1.43,1.43,0,0,0,.43-.5l1.43,1.2a.35.35,0,0,1,.15.29c0,.21-.21.21-.39.21l-.61,0a17.59,17.59,0,0,1-1.92.62c0,.95,0,2.86,0,3.67h.39l.5-.75c.08-.12.18-.27.31-.27s.29.15.39.23l.9.75a.43.43,0,0,1,.2.33c0,.21-.2.21-.31.21h-2.38c0,.39,0,1.32,0,1.82,2,.73,2.71,2,2.71,2.62a.79.79,0,0,1-.76.82c-.5,0-.56-.2-1-1.36a3.86,3.86,0,0,0-1-1.81c0,3.61,0,4,.08,5.6,0,1.41.08,3.05.08,3.8,0,.37,0,1.2-1,1.2-.54,0-.6-.31-.6-.71,0-.68.16-3.73.18-4.35,0-2,0-2.84,0-4.65a13.55,13.55,0,0,1-3.92,5.06Zm6.66,4.38c1.45-.71,3.79-2.08,4.29-3l1.49,1.1a.36.36,0,0,1,.19.31c0,.29-.48.27-1,.27a16.5,16.5,0,0,1-4.93,1.43Zm9.2-16.51.52-.83c.1-.17.21-.29.31-.29s.27.14.4.25l1,.83a.42.42,0,0,1,.21.33c0,.19-.17.21-.31.21h-4.4v1.7h1.66l.5-.75c.08-.12.16-.25.31-.25s.25.13.37.23l.85.72a.46.46,0,0,1,.21.34c0,.18-.19.2-.31.2h-3.59v1.87h3.44l.61-.85c.1-.17.22-.27.33-.27s.25.12.37.25l.89.83a.51.51,0,0,1,.21.33c0,.21-.17.21-.31.21h-8.63a14.49,14.49,0,0,0-2.44.18l-.42-.82c1.06.08,2.14.14,3.19.14h1.35v-1.87h-.5a13,13,0,0,0-2.44.21l-.4-.83c.63,0,1.54.13,3.34.13,0-.81,0-1.31,0-1.7h-1.37a14.37,14.37,0,0,0-2.44.18l-.42-.83c1.51.13,2.84.15,3.19.15h1a6,6,0,0,0-.37-2.22l2.11.64a.31.31,0,0,1,.29.31c0,.27-.47.5-.58.54v.73Zm-.47,6.49.47-.52c.09-.08.21-.21.29-.21s.25.13.33.19l.81.68a.52.52,0,0,1,.23.38c0,.21-.25.37-.6.54a7.23,7.23,0,0,0,0,.76c0,.71.17,3.8.17,4.42a.86.86,0,0,1-1,1c-.54,0-.54-.27-.52-.71H423.7c0,.48.06,1-.94,1-.35,0-.53-.1-.53-.47,0,0,0-.21,0-.5,0-.77,0-3,0-3.92a13.3,13.3,0,0,0-.23-3.28l1.64.73Zm-4.73.5V260h4.93v-1.47Zm0,2V262h4.93V260.5Zm0,2V264h4.93v-1.53Zm3.48,2.82c1.87.16,4.5,1.1,4.5,2.34a.84.84,0,0,1-.83.81c-.48,0-1-.52-1.3-.91a10.57,10.57,0,0,0-2.37-2.1Z"/><path d="M439.09,254.79a1.22,1.22,0,0,1-1.21,1.21,1.21,1.21,0,0,1-1.2-1.21,1.21,1.21,0,0,1,2.41,0Zm0,8.17a1.21,1.21,0,0,1-1.21,1.21,1.21,1.21,0,0,1,0-2.41A1.21,1.21,0,0,1,439.09,263Z"/><path d="M448.4,260.75a3.52,3.52,0,0,1-1.81.53c-2,0-3.71-2.07-3.71-4.6,0-2.86,2.06-5.45,4.44-5.45s4.77,2.69,4.77,7.15c0,4.79-2.7,8.77-5.87,8.77-1.39,0-2.36-.83-2.36-1.8a1,1,0,0,1,1.05-1.08c.42,0,1.1.27,1.14,1.43,0,.46.07.75.63.75a2,2,0,0,0,1.51-.73c1.85-2,1.95-5.1,2-6.94A5.38,5.38,0,0,1,448.4,260.75Zm.68-7.7a2,2,0,0,0-1.68-1.12c-1.1,0-2.65,1.16-2.65,4.56,0,1,.23,3.86,2.36,3.86.79,0,2.12-.58,3.09-2.82A10,10,0,0,0,449.08,253.05Z"/><path d="M461.26,260.75a3.52,3.52,0,0,1-1.81.53c-2.05,0-3.71-2.07-3.71-4.6,0-2.86,2.05-5.45,4.44-5.45s4.77,2.69,4.77,7.15c0,4.79-2.7,8.77-5.87,8.77-1.39,0-2.37-.83-2.37-1.8a1,1,0,0,1,1.06-1.08c.42,0,1.1.27,1.14,1.43,0,.46.07.75.63.75a2,2,0,0,0,1.51-.73c1.84-2,1.95-5.1,2-6.94A5.38,5.38,0,0,1,461.26,260.75Zm.68-7.7a2,2,0,0,0-1.68-1.12c-1.1,0-2.65,1.16-2.65,4.56,0,1,.22,3.86,2.36,3.86.79,0,2.12-.58,3.09-2.82A10,10,0,0,0,461.94,253.05Z"/><path d="M471.15,266a1.21,1.21,0,1,1-1.2-1.2A1.22,1.22,0,0,1,471.15,266Z"/><path d="M478.62,257.66a3.46,3.46,0,0,1,1.8-.54c2.05,0,3.71,2.07,3.71,4.58,0,2.88-2.05,5.45-4.44,5.45s-4.77-2.67-4.77-7.15c0-4.79,2.7-8.77,5.87-8.77,1.39,0,2.37.83,2.37,1.82a1,1,0,0,1-1.06,1.08c-.42,0-1.1-.27-1.14-1.45,0-.46-.06-.75-.62-.75a2.14,2.14,0,0,0-1.52.75c-1.84,2-1.95,5.08-2,6.95A5,5,0,0,1,478.62,257.66Zm-.69,7.67a2,2,0,0,0,1.68,1.12c1.1,0,2.65-1.14,2.65-4.56,0-.94-.22-3.84-2.36-3.84-.79,0-2.11.58-3.09,2.82A9.89,9.89,0,0,0,477.93,265.33Z"/><path d="M495.46,259.71a3.85,3.85,0,0,1,1.4,3.07c0,2.55-2.09,4.37-4.83,4.37-2.24,0-4.12-1.26-4.12-2.92a1.2,1.2,0,0,1,1.18-1.33,1,1,0,0,1,1,1,1.69,1.69,0,0,1-.13.66,1.56,1.56,0,0,0-.06.48c0,.79.89,1.37,1.86,1.37a3.55,3.55,0,0,0,3.22-3.67,3.62,3.62,0,0,0-3.24-3.8c-.12,0-.7.09-.83.09a.41.41,0,0,1-.45-.44.47.47,0,0,1,.48-.48c.12,0,.74.13.89.13a3,3,0,0,0,2.84-3.24c0-1.61-1-3.11-2.62-3.11a1.34,1.34,0,0,0-1.61,1.7,2.2,2.2,0,0,1,.06.5,1.1,1.1,0,0,1-1.06,1.14,1.07,1.07,0,0,1-1-1.14c0-1.14,1.32-2.9,4-2.9s4.14,1.66,4.14,3.48a3.64,3.64,0,0,1-.76,2.12,4.93,4.93,0,0,1-2.64,1.76A5.6,5.6,0,0,1,495.46,259.71Z"/><path d="M504,256.56v1.63a4.71,4.71,0,0,1,3.42-1.63,2.3,2.3,0,0,1,2.49,1.86,5.16,5.16,0,0,1,3.71-1.86c1.83,0,2.65,1.1,2.65,3.4v4.89c0,.79.42,1.25,1,1.25h.38v.66h-4.34v-.66h.4c.72,0,1-.56,1-1.25v-4.77c0-.58-.08-2.63-1.8-2.63a3.92,3.92,0,0,0-3,1.8,5.05,5.05,0,0,1,0,.71v4.89c0,.87.48,1.25,1,1.25h.6v.66H506.9v-.66h.61c.58,0,1.05-.4,1.05-1.25v-4.77c0-.43-.06-2.63-1.8-2.63a3.68,3.68,0,0,0-2.8,1.64v5.76c0,.87.48,1.25,1,1.25h.37v.66h-4.31v-.66h.37c.62,0,1-.44,1-1.25v-6.24a.86.86,0,0,0-.85-1,1.93,1.93,0,0,0-.63.08l-.1-.4Zm10.72-1.23a12.43,12.43,0,0,1,1.2-1.32,3.71,3.71,0,0,0,1.18-2c0-.27-.16-.77-.64-.77a.68.68,0,0,0-.7.56c0,.08.18.45.18.54a.57.57,0,0,1-.58.54.65.65,0,0,1-.62-.71,1.76,1.76,0,0,1,1.83-1.49,1.4,1.4,0,0,1,1.51,1.41,1.66,1.66,0,0,1-.64,1.35c-.23.22-1.52,1.26-1.73,1.55H517a.84.84,0,0,0,.81-.7l.33.1-.43,1.43h-3Z"/><path class="cls-2" d="M110.54,165.4a24.3,24.3,0,0,0,6.69-6.42H111.5v-3.16h6.69v-3.19h-6.86V149.5H115a28.66,28.66,0,0,0-1-4.91h-2v-3.12h6.2v-2.85h3.16v2.85h5.7v3.12H125.5a47.73,47.73,0,0,1-1.18,4.91h3.23v3.13h-6.2v3.19h5.44V159H122a17.07,17.07,0,0,0,4,3.91L124.38,166a17.89,17.89,0,0,1-3-3.67v8.62h-3.16v-8.55a25.72,25.72,0,0,1-5.84,6.18ZM117,144.59a40.72,40.72,0,0,1,1,4.91h3.33a40.21,40.21,0,0,0,1-4.91Zm25.15-2.74A26.2,26.2,0,0,1,132,144.42v5.22h10.19v3.3h-3.23v18h-3.43v-18H132v.92c0,9.58-1.81,13.25-4.41,17.07l-3.2-2.31c2.87-3.57,4.32-7.07,4.32-14.65V141.19a23.66,23.66,0,0,0,11.6-2.57Z"/><path class="cls-2" d="M159.62,155.41c-2.28.51-9.46,1.68-11.67,2l-.53-3.15c.3,0,4.68-.48,5.47-.59v-3.43H149v-2.75h.23l-2.07-2.23a16.42,16.42,0,0,0,5-6.69l3.23.61a11.53,11.53,0,0,1-.52,1.45h7.71v2.74h-5a19.81,19.81,0,0,1,.89,1.79l-3.23,1.23a17.23,17.23,0,0,0-1.06-3h-.85a19.1,19.1,0,0,1-3.5,4.12h10.09v2.75H156v3.09c2.24-.28,2.94-.41,3.86-.59v2c2.67-1.75,3-3.64,3.13-7.76h11.86v6.38c0,.62.14.76.4.76.73,0,.79,0,.86-.93,0-.27,0-1.61,0-1.92L179,152c-.16,3.64-.26,4.8-2.07,4.8h-3.07c-1,0-2-.65-2-2.33V149.6h-5.93a9.8,9.8,0,0,1-4.06,7.8h2.84v1.41h13.91v2.95H167.3c1.55,1.27,3.72,3,11.73,5L177.55,170a31.78,31.78,0,0,1-12.92-6.9v7.72h-3.2v-7.76c-3.92,4.05-9.36,6-12.79,6.94l-1.35-3.26a28.26,28.26,0,0,0,11.6-5H147.62v-2.95h13.81v-1.17ZM167,143.32a13.1,13.1,0,0,1-2.34,3.13l-2.8-2a12.64,12.64,0,0,0,3.65-5.73l3.33.51c-.19.59-.29.9-.46,1.38h10.19v2.74H172a9.78,9.78,0,0,1,.86,1.75l-3,1.27c-.26-.68-.92-2.26-1.28-3Zm1.09,6.87a25.17,25.17,0,0,1,3.46,3.57l-2.15,2.09a27.29,27.29,0,0,0-3.36-3.6Z"/><path class="cls-2" d="M188.76,151.25c-1.55,1.44-2.51,2.2-3.4,2.89L183,151a23.67,23.67,0,0,0,9.89-12.49l3.42.92a29,29,0,0,1-7.18,11.4h20.3c0,3.47-.1,12.39-1.35,16.93-.86,3.09-3.1,3.19-4.55,3.19h-5l-.66-3.64h5c1.88,0,2.18-1.72,2.44-3.23a57.1,57.1,0,0,0,.66-9.78h-7.65c-.85,9.27-5.43,13.66-12.26,16.65l-2-3.3c7.15-3.12,9.92-6.24,10.75-13.35h-6Zm24.32,2.61a35,35,0,0,1-10.68-14.31l3.43-1c1.71,4.29,5.24,9.61,9.66,12.36Z"/><path class="cls-2" d="M220,144.45h10.9v3.06H220Zm.82-5.08h9v3.09h-9Zm0,10.06h9v3.13h-9Zm0,5.12h9v3h-9Zm0,5.25h9v9.79h-6.06V171h-3Zm3,2.95v4h3.09v-4Zm27-.68a39.06,39.06,0,0,1-3.59,3.09,18,18,0,0,0,4,2.64L249.53,171c-4.22-2.41-7.87-6-9-10.85a15.61,15.61,0,0,1-2.34,2.13v4.6c2.6-.21,3.65-.38,4.91-.55v3.23c-2.48.37-7.65,1-11,1.06l-.56-3.47c1,0,1.81,0,3.56-.07V164.3a26.34,26.34,0,0,1-3.69,1.65l-1.35-3a18.75,18.75,0,0,0,6.85-3.3h-6v-2.57h4.69v-1.75h-3.5V153h3.5v-1.51h-4.06V149h4.06v-1.13h3V149h5v-1.13h3V149h4.28v2.44h-4.28V153h3.62v2.37h-3.62v1.75h4.48v2.57h-7.78a21,21,0,0,0,1.81,3.09,23.75,23.75,0,0,0,3.1-2.85Zm-19.31-16.45a24.29,24.29,0,0,0,6.06-2.06h-6.39v-2.88h8.17v-1.92h3.33v1.92h8.34v2.88h-6.33a22.72,22.72,0,0,0,6.33,2.17l-1.35,2.43a20.6,20.6,0,0,1-7-2.43l1.68-2.17H237.8l2,2.17a30.18,30.18,0,0,1-6.92,2.64Zm7.05,5.84V153h5v-1.51Zm0,3.88v1.75h5v-1.75Z"/><path class="cls-2" d="M259.42,154.41a23.19,23.19,0,0,1-2.27,2.85l-1.48-4.39c1.78-2,4.91-7.39,5.7-14.15l3.43.45a30,30,0,0,1-2,8.55v23.17h-3.37Zm18.33-8.86a30.75,30.75,0,0,0-6.46-4.32l2.11-2.89a46.55,46.55,0,0,1,6.62,4.12l-2,3.09h8.54V149h-8.84v6.49h7.62v3.4h-7.62v7.62h9.59v3.33H264.63v-3.33h9.56v-7.62h-7.65v-3.4h7.65V149h-8.74v-3.4Z"/><path class="cls-2" d="M307.58,156.2l15.65-1.72.27,3.4-15.92,1.75v6.8c0,.65.46.65.69.65h9.06a1,1,0,0,0,1.06-.89,44.32,44.32,0,0,0,.23-4.6l3.59.92c-.13,5.19-.29,8.14-3.59,8.14H307.28c-.86,0-3.16,0-3.16-2.54V160l-11.34,1.27-.23-3.43,11.57-1.28v-4.15c-1.91.24-4.06.38-5.94.52l-1.08-3.51c2.53-.1,12-.44,19.51-3.22l1.71,3.22A46.48,46.48,0,0,1,307.58,152Zm-1.22-17.55h3.43v3h12.82v8.21h-3.43v-4.77H297v4.77h-3.46v-8.21h12.85Z"/><path class="cls-2" d="M334.05,150.53c-1.49.89-2.71,1.48-4,2.13l-1.69-3.47a32.93,32.93,0,0,0,14-10.57h3.7a29.79,29.79,0,0,0,14.23,10.47l-1.84,3.5a27.6,27.6,0,0,1-4-2.06v2.58H346v4.63h10.41v3.09H346v5.56h13.35v3.51H329.07v-3.51h13.38v-5.56H332.1v-3.09h10.35v-4.63h-8.4Zm19.24-.79a42.37,42.37,0,0,1-9.09-8.1,37.55,37.55,0,0,1-8.9,8.1Z"/><path class="cls-2" d="M384,140.78v17.44h4.35v3.71H384v5.91h-3.89v-5.91H364.86v-4.46l13.72-16.69Zm-3.89,3.5-11.3,13.94h11.3Z"/><path class="cls-2" d="M392.88,159.32a31.07,31.07,0,0,0,4.75-11.09h-4.25v-3.29h4.35v-6.25h3.16v6.25h3.66v3.29h-3.66v1.2a18.88,18.88,0,0,0,4.05,6.42L403.26,159a21.15,21.15,0,0,1-2.37-4.29v16.17h-3.16V155.78c-1.42,5.09-2.74,6.87-3.63,8.11Zm9.79,7.24A22.61,22.61,0,0,0,411,159h-5.67V146.62h7.42v-2h-8.24V141.3h8.24v-2.61h3.1v2.61h8.5v3.36h-8.5v2h7.45V159H417.9a24.58,24.58,0,0,0,7,7.25L423,169.31a23.42,23.42,0,0,1-7.12-8.51v10.09h-3.1v-9.65a24.31,24.31,0,0,1-8.24,8.41Zm5.77-17.23v2.27h4.35v-2.27Zm0,4.7v2.24h4.35V154Zm7.45-4.7v2.27h4.45v-2.27Zm0,4.7v2.24h4.45V154Z"/><path class="cls-2" d="M462.82,140.78v17.44h4.35v3.71h-4.35v5.91h-3.89v-5.91H443.71v-4.46l13.71-16.69Zm-3.89,3.5-11.3,13.94h11.3Z"/><path class="cls-2" d="M479.3,161.79c-.33.62-.66,1.17-1.28,2.13l-3.43-1.37a45.61,45.61,0,0,0,3.76-7.25h-6V152h30.91v3.26H482.14c-.27.69-1.09,2.72-1.35,3.27h19.47c-.19,2.64-.65,8-1.71,10a4.09,4.09,0,0,1-3.82,2.37h-5.8l-.76-3.61h5.93c1.19,0,2.08-.62,2.44-5.53Zm21.2-22v9.78H475.31v-9.78Zm-21.89,3.12v3.57H497.2v-3.57Z"/><path class="cls-2" d="M507.65,159.32a31.07,31.07,0,0,0,4.75-11.09h-4.26v-3.29h4.35v-6.25h3.17v6.25h3.66v3.29h-3.66v1.2a18.73,18.73,0,0,0,4.05,6.42L518,159a21.15,21.15,0,0,1-2.37-4.29v16.17h-3.17V155.78c-1.41,5.09-2.73,6.87-3.62,8.11Zm9.79,7.24a22.7,22.7,0,0,0,8.37-7.55h-5.67V146.62h7.42v-2h-8.24V141.3h8.24v-2.61h3.09v2.61h8.51v3.36h-8.51v2h7.45V159h-5.43a24.58,24.58,0,0,0,7,7.25l-1.92,3.05a23.62,23.62,0,0,1-7.12-8.51v10.09h-3.09v-9.65a24.31,24.31,0,0,1-8.24,8.41Zm5.77-17.23v2.27h4.35v-2.27Zm0,4.7v2.24h4.35V154Zm7.44-4.7v2.27h4.45v-2.27Zm0,4.7v2.24h4.45V154Z"/></g></svg>