<svg xmlns="http://www.w3.org/2000/svg" width="650" height="211" viewBox="0 0 650 211"><defs><style>.cls-1{fill:#00ae22;}.cls-2{fill:#fff;}</style></defs><title>joho_matome</title><g id="レイヤー_3" data-name="レイヤー 3"><path class="cls-1" d="M126.78,85.26h22.33v3.86h-7.42v1.95h6.6v17h-3.75v-1.06H131.32v1.06H127.6v-17h5.7V89.12h-6.52Zm4.54,14.79v3.24h13.22v-2a2,2,0,0,1-1.27.47H140a1.74,1.74,0,0,1-1.69-1.88V94.78h-1.67a11,11,0,0,1-3.21,7.84Zm0-5.27v4.55a6.85,6.85,0,0,0,2-4.55Zm5.38-5.66v1.95h1.6V89.12Zm7.84,7.39V94.78h-2.85v2.85c0,.49,0,.74.4.74.75,0,.9,0,1-2.15Z"/><path class="cls-1" d="M162.2,106.18v.28c-2.6.66-8,1.41-9.26,1.56l-.33-3.84c1-.07,1.93-.15,3.58-.35V98H152.8V94.58h3.39v-1h-1.82v-1a6.6,6.6,0,0,1-1.22.89l-1-4.08a12.33,12.33,0,0,0,4.1-4.72H160a9.79,9.79,0,0,0,2.9,3.48,15.63,15.63,0,0,0,.11-2.77l3.37.37c0,.72,0,1.41-.16,2.87h.89V84.62h3.51v3.95h3.91v3.69h-3.91v1.66c0,.32,0,.59,0,.79H175v3.83h-3.82a13,13,0,0,0,4.29,5.91l-2.24,3.71a13.8,13.8,0,0,1-4.17-6.53,13.65,13.65,0,0,1-5.49,6.63Zm-7.31-7.64a27,27,0,0,1,.83,4.21l-2.59.79a21.37,21.37,0,0,0-.62-4.26Zm5-8.48a13.35,13.35,0,0,1-1.58-2.23,15,15,0,0,1-1.55,2.23Zm2.69,8.48V94.71h4.59c0-.27,0-.37,0-.57V92.26h-1.48a15.86,15.86,0,0,1-.66,2.1l-3.16-1.51a21.57,21.57,0,0,0,1.09-4.7l-1.75,3.07v2.33h-1.79v1h2.45V98h-2.45v5.42c1.37-.2,2-.32,2.78-.45l0,1.34a9.84,9.84,0,0,0,4.21-5.74Zm.35.52a28.46,28.46,0,0,1-1,3.59l-2.26-.55a17.63,17.63,0,0,0,.8-3.58Z"/><path class="cls-1" d="M178.69,103.74c1.11-1.56,4.06-5.59,4.48-17.57l4.08.57c-.8,11.73-2.59,16.75-5.12,20.28ZM194.55,86.3a28.13,28.13,0,0,1,.8,3.61l.5-.12c.92,6.08,1.83,9.62,4.9,13.9l-3.8,3.14c-2.89-4.5-4.71-10.09-5.39-20.09ZM196,89.17a27.44,27.44,0,0,0-1.06-4l1.86-.47A20.13,20.13,0,0,1,198,88.57Zm3.13-.32a31.79,31.79,0,0,0-1.2-4l2-.37a18.27,18.27,0,0,1,1.2,3.89Z"/><path class="cls-1" d="M204.93,103.71a22.93,22.93,0,0,0,12.6-13.11H206.36V86.5H223a25.7,25.7,0,0,1-4.12,10.71,55,55,0,0,1,7.58,6.75L223,107.54a80.26,80.26,0,0,0-6.62-7.09c-4.52,4.87-7.47,6.18-9.12,6.9Z"/><path class="cls-1" d="M250.52,82.1h-7.24v26.37h-5.39v-32h12.63Z"/><path class="cls-1" d="M256.91,77.55h26.31v5.62A85.37,85.37,0,0,0,269.58,92c-4.12,3.26-7.18,6.07-7.18,8.74,0,2.43,2.34,2.43,3.81,2.43h11c1.24,0,1.86-.48,2.35-1.82.23-.65.3-1.3.79-6l5.84,1.92c-.13,2.22-.59,6.61-1.44,8.56-1.27,2.94-5,3-5.38,3H264.78c-6.92,0-8.85-4.52-8.85-7.36,0-3.36,2.35-6.24,3.14-7.19,4.7-5.76,12.07-10.07,13.67-11H256.91Z"/><path class="cls-1" d="M320.32,89.91c-1.44-.68-2.84-1.34-4.14-2.09v2.09h-6.73v1.85H321.1v5.38h-8l5.38,1.54c-.23.68-.58,1.67-1.6,4.1h4.93v5.38H291.7v-5.38h4.86a42.85,42.85,0,0,0-1.5-4.07l5.25-1.57h-7.8V91.76h11.62V89.91h-6.59V87.79c-2.16,1.09-3.07,1.47-4.11,1.95L290.91,84c4.25-1.34,9.73-3.84,13.12-7.71h5.78A33.89,33.89,0,0,0,322.87,84Zm-16.19,7.23h-3.78a35.17,35.17,0,0,1,1.89,5.64h1.89Zm2.78-16.44a25.67,25.67,0,0,1-4.44,4.07h9A35.36,35.36,0,0,1,306.91,80.7Zm2.54,16.44v5.64h1.89A47.72,47.72,0,0,0,313,97.14Z"/><path class="cls-1" d="M339.77,109.05H327.13V103.4h7.25V77h5.39Z"/><path class="cls-1" d="M353.66,94.64c-.49.58-.68.78-1.2,1.37l-1.24-8.22c3.1-4.15,3.81-9.08,4.08-11.51l5.19.48c0,.21-.17,1.17-.2,1.41h8.13V76.45h5.19v1.72h9v4.14H360.13v-3A54.47,54.47,0,0,1,358.76,85v24.07h-5.1ZM380.4,99v2.74h-6.34v3.83c0,3.26-1.82,3.46-3.59,3.46H364.4l-.75-4.72H368c.68,0,.81-.35.81-.89v-1.68h-7V99h-2V92.38h22.43V99Zm.32-15.65v7.84H361.3V83.37Zm-3.36,12.87h-12.7v1.37h12.7Zm-10.84-9.68v1.5h8.88v-1.5Z"/><path class="cls-1" d="M387.18,81.49A14.09,14.09,0,0,0,392,76.18l5.06,1.54a29.71,29.71,0,0,1-7.77,9.59Zm8,24.21V109h-5.15V97.61c-.59.55-.92.83-1.5,1.34l-1.34-7.19a26.28,26.28,0,0,0,6.53-7.6l4,2.63h7.64V84.43h-7.22v-5.2h7.22V76.39h5.29v2.84h7.21v5.2h-7.21v2.36h8V92h-8v2.33h6.75v5.2h-6.75V103c.65,0,1.79.1,3.52.1,2.09,0,3.49-.07,4.86-.14L418,108.33c-10.32.11-13.12-.17-16.55-4.21a17.67,17.67,0,0,1-3.23,5.2Zm8.46-12a41.48,41.48,0,0,1-.65,5,7.46,7.46,0,0,0,2.38,2.61V92h-7.93V88.16a25.11,25.11,0,0,1-2.26,3.6V104.5c1.21-1.37,3.14-4.08,3.63-11.2Z"/><path class="cls-1" d="M424.67,103.61c2.09,0,10.8-.07,15.4-2.43a3.08,3.08,0,0,1-1,.13h-6.27L432,96.69a20.81,20.81,0,0,1-5.16,4.11l-3.42-4.52a21.14,21.14,0,0,0,6.85-5.44h-6.53V85.66h4.41V78h5.35v7.7h3.3v-9.1h5.32v2.15h10.12v5H442.1v1.91h12.5v5.18h-6.1a31.19,31.19,0,0,0,6.69,5.61l-3.43,4.45a33.6,33.6,0,0,1-7.9-7.67l3.46-2.39H442.1V98a3.23,3.23,0,0,1-.78,2.39,15.38,15.38,0,0,0,4.11-4.14l3.85,3.77c-2.42,3.21-7.25,8.8-22.85,9.21Zm10.21-10.38a14.61,14.61,0,0,1-2.54,3.08h3.46c1,0,1-.92,1-1.23V90.84h-5.55Z"/><path class="cls-1" d="M469.05,96.76c-1.7.2-2.74.51-2.74,2.53v.86h17.26v5.61h-23.1v-5.37c0-2.6,0-8.22,6.36-9l8.36-1c1.89-.24,2.77-.59,2.77-2.88s-.72-3.36-5.55-3.36c-5.45,0-5.64.72-5.71,4.08H461c0-5.75.29-9.69,11-9.69,6.79,0,11.82.48,11.82,8.63,0,3.49-.85,5.27-2,6.33a8.1,8.1,0,0,1-4.8,2.26Z"/><path class="cls-1" d="M494.31,91.21c-.79.72-1.28,1.13-2,1.75l-3.52-5.27a21.27,21.27,0,0,0,9-11.41l5.35,1.06a31.91,31.91,0,0,1-5.52,10.31h14.53a42,42,0,0,1-5.45-10.13l5.35-1.31c1.73,4.08,4.31,8.6,9,11.82L517.41,93c-.68-.52-1.2-.93-1.79-1.47-.23,5.82-.46,12.15-1.54,14.79a3.83,3.83,0,0,1-4.14,2.81h-6.1l-1.08-5.69h4.83a1.62,1.62,0,0,0,1.47-.79c.26-.54.78-3.63,1-9.51h-5.55c-1,8.59-5.48,13-12.18,16.09l-3.16-5.45c8.55-3,9.56-7.8,9.79-10.64h-4.63Z"/><rect class="cls-1" x="56.71" y="127.29" width="536.57" height="53.21" rx="23.62"/><path class="cls-1" d="M198.69,57.23a19.63,19.63,0,0,0,13.16-15.48H199.16v-4.4h13V29.42h4.42v7.25c0,.1,0,.51,0,.68H230v4.4H217.12c1.91,9.2,7.15,13.08,13.61,15.62l-2.54,4.43a22.63,22.63,0,0,1-13.48-14.66A23.41,23.41,0,0,1,201.3,61.63Z"/><path class="cls-1" d="M235.21,56.2c2.15-.1,3.66-.2,6.93-.48V52.56H236v-3.7h6.1V46.25h-6V30.63h15.59V46.25h-6v2.61H252v3.7h-6.23v2.79c1.06-.11,3.66-.42,6.53-.83v3.85a137.6,137.6,0,0,1-16.68,2Zm4.42-22.11v2.75h2.67V34.09Zm0,5.87v2.89h2.67V40Zm6-5.87v2.75h2.67V34.09Zm0,5.87v2.89h2.67V40Zm10.85-4.91a26.56,26.56,0,0,1,2.83,1.72,17.7,17.7,0,0,0,2.11-2.44h-8.6v-3.7h12.92v3.6A23.37,23.37,0,0,1,262,38.9a15.65,15.65,0,0,1,1.68,1.72L262.47,42h3.92v3.84a28.24,28.24,0,0,1-1.71,6.56l-3.2-1.06a21.82,21.82,0,0,0,1.65-5.5h-2.27V58.71c0,2.4-.79,2.95-3.07,2.95h-4.45l-.56-4.32h3c.72,0,1.12,0,1.12-.93V45.83h-4.58V42h7.22a28.74,28.74,0,0,0-5.41-4.33Z"/><path class="cls-1" d="M277.31,59.19a14.13,14.13,0,0,0,3.13-5.25,59.33,59.33,0,0,1-9,3.5L271.08,53a30.35,30.35,0,0,0,3.42-.9V41.61h-3.09V37.49h3.09v-8h3.86v8h2.41v4.12h-2.41v9.17c1.29-.52,1.52-.62,2.14-.89l.23,3a43.75,43.75,0,0,0,.79-7.35V34.2h10.85c-.1-3.47-.1-3.88-.1-4.71h3.92c0,1.79-.06,2.71-.06,4.71h3.32a17.76,17.76,0,0,0-2.67-3.33L299.52,29a20.9,20.9,0,0,1,3.07,3.61l-2.35,1.58h2.44v3.94h-6.49a88,88,0,0,0,.59,9.34A37.87,37.87,0,0,0,299,39.9l3.5,1.23a40.73,40.73,0,0,1-4.68,12c.72,3.43.92,3.43,1.15,3.43.76,0,1.94-3.3,2.14-3.91l2.08,3.53c-.43,1.27-1.95,5.63-4.32,5.63s-3.23-2.37-4-4.77a24.84,24.84,0,0,1-6,4.74l-2.34-3.57a19.68,19.68,0,0,0,7.22-5.46,90.13,90.13,0,0,1-1.32-14.63h-7.12v3.61h6.3c0,4.12,0,10.71-.89,13-.53,1.37-1.12,1.92-3,1.92h-1.91l-.53-3.81H287c.56,0,.72-.24.82-.51.23-.65.36-1.92.53-6.87h-3v.62c0,4.19-1,12-4.51,15.72Z"/><path class="cls-1" d="M338.87,37H325.36v3.29h11V55.62c0,3.12-2,3.64-3,3.64h-5l-.76-4.43h3.89c.73,0,.76-.31.76-.93V44.39h-6.89V61.83h-4.15V44.39h-6.63V59.57h-4.15V40.27h10.78V37H307.86V32.79h13.35v-3.3h4.15v3.3h13.51Z"/><path class="cls-1" d="M345.5,31h26v4.15A100.26,100.26,0,0,0,357.2,45.46c-3.72,3.12-7.88,6.83-7.88,9.4,0,2.1,1.88,2.37,4.52,2.37h13.25c2.41,0,3.06-.27,3.66-7.65l4.35,1.54c-.13,2.78-.83,6.53-1.72,8.07s-2.4,2.3-5.14,2.3h-14.5a12.75,12.75,0,0,1-5.4-.76,6.08,6.08,0,0,1-3.7-5.45c0-3.16,1.88-5.74,4.75-8.66a81.65,81.65,0,0,1,14.37-11.39H345.5Z"/><path class="cls-1" d="M386.27,40.31c-1.74,1-3,1.54-4.18,2.09l-2.15-4.08c5.21-1.93,9.89-4.43,13.91-8.83h4a39.26,39.26,0,0,0,14,8.93l-2.14,4.19c-.86-.41-1.78-.86-4.12-2.17v2.17h-7.65V45.7H410.1v3.88H397.87v7.34h2.48a51.4,51.4,0,0,0,2.27-6.79l4.19,1.13a47.13,47.13,0,0,1-2.21,5.66h6.23v3.92H380.9V56.92h5.93a32.3,32.3,0,0,0-2.07-5.49l4-1.24a38.91,38.91,0,0,1,2.37,6.73h2.7V49.58H381.59V45.7h12.26V42.61h-7.58Zm16.45-1.55a42,42,0,0,1-7-5.73,37.4,37.4,0,0,1-6.86,5.73Z"/><path class="cls-1" d="M447.58,35.88H434.16v1.68h11.41V51h-8.44a29.68,29.68,0,0,0,11,6.08l-2.38,4.25a32.77,32.77,0,0,1-11.57-8.55v9h-4v-9a30.08,30.08,0,0,1-11.66,8.65l-2.38-4.18c7.22-2.72,9.76-5.08,11.11-6.32h-8.37V37.56h11.3V35.88H416.66V32.07h13.48V29.49h4v2.58h13.42Zm-24.89,7h7.45v-2.1h-7.45Zm0,5h7.45V45.77h-7.45Zm11.47-7.11v2.1h7.52v-2.1Zm0,5v2.09h7.52V45.77Z"/><path class="cls-2" d="M166.61,165.4A24.3,24.3,0,0,0,173.3,159h-5.74v-3.16h6.69v-3.19H167.4V149.5h3.66a30.88,30.88,0,0,0-1-4.91h-2v-3.12h6.19v-2.85h3.17v2.85h5.7v3.12h-1.55a46.8,46.8,0,0,1-1.19,4.91h3.23v3.13h-6.19v3.19h5.43V159H178a17.15,17.15,0,0,0,4.06,3.91L180.45,166a17.57,17.57,0,0,1-3-3.67v8.62h-3.17v-8.55a25.75,25.75,0,0,1-5.83,6.18Zm6.46-20.81a42.84,42.84,0,0,1,1,4.91h3.33a44.37,44.37,0,0,0,1-4.91Zm25.14-2.74A26.15,26.15,0,0,1,188,144.42v5.22h10.18v3.3H195v18h-3.42v-18H188v.92c0,9.58-1.81,13.25-4.42,17.07l-3.19-2.31c2.86-3.57,4.31-7.07,4.31-14.65V141.19a23.66,23.66,0,0,0,11.6-2.57Z"/><path class="cls-2" d="M215.68,155.41c-2.27.51-9.46,1.68-11.66,2l-.53-3.15c.3,0,4.68-.48,5.47-.59v-3.43H205v-2.75h.23l-2.08-2.23a16.51,16.51,0,0,0,5-6.69l3.23.61a12.16,12.16,0,0,1-.53,1.45h7.71v2.74h-5a15.65,15.65,0,0,1,.89,1.79l-3.23,1.23a17.18,17.18,0,0,0-1-3h-.86a19.25,19.25,0,0,1-3.49,4.12h10.08v2.75h-3.85v3.09c2.24-.28,2.93-.41,3.85-.59v2c2.67-1.75,3-3.64,3.14-7.76h11.86v6.38c0,.62.13.76.4.76.72,0,.79,0,.85-.93,0-.27,0-1.61,0-1.92L235,152c-.16,3.64-.26,4.8-2.08,4.8h-3.06c-1.06,0-2-.65-2-2.33V149.6h-5.94a9.75,9.75,0,0,1-4,7.8h2.83v1.41H234.6v2.95H223.36c1.55,1.27,3.73,3,11.74,5L233.61,170a31.84,31.84,0,0,1-12.92-6.9v7.72H217.5v-7.76c-3.93,4.05-9.36,6-12.79,6.94l-1.35-3.26a28.32,28.32,0,0,0,11.6-5H203.69v-2.95H217.5v-1.17ZM223,143.32a12.83,12.83,0,0,1-2.34,3.13l-2.8-2a12.75,12.75,0,0,0,3.66-5.73l3.33.51-.46,1.38H234.6v2.74h-6.52a9.73,9.73,0,0,1,.85,1.75l-3,1.27c-.27-.68-.93-2.26-1.29-3Zm1.09,6.87a24.1,24.1,0,0,1,3.46,3.57l-2.14,2.09a28.77,28.77,0,0,0-3.36-3.6Z"/><path class="cls-2" d="M244.82,151.25c-1.55,1.44-2.5,2.2-3.39,2.89L239.05,151a23.62,23.62,0,0,0,9.89-12.49l3.43.92a29,29,0,0,1-7.19,11.4h20.31c0,3.47-.1,12.39-1.35,16.93-.86,3.09-3.1,3.19-4.55,3.19h-5l-.66-3.64h5.05c1.88,0,2.17-1.72,2.44-3.23a57.1,57.1,0,0,0,.66-9.78h-7.65c-.86,9.27-5.44,13.66-12.26,16.65l-2-3.3c7.15-3.12,9.92-6.24,10.74-13.35h-6Zm24.33,2.61a34.89,34.89,0,0,1-10.68-14.31l3.42-1c1.72,4.29,5.24,9.61,9.66,12.36Z"/><path class="cls-2" d="M276.1,144.45H287v3.06H276.1Zm.82-5.08h9v3.09h-9Zm0,10.06h9v3.13h-9Zm0,5.12h9v3h-9Zm0,5.25h9v9.79h-6.07V171h-3Zm3,2.95v4H283v-4Zm27-.68a39.92,39.92,0,0,1-3.6,3.09,18,18,0,0,0,4,2.64L305.6,171c-4.22-2.41-7.88-6-9-10.85a15.07,15.07,0,0,1-2.34,2.13v4.6c2.6-.21,3.66-.38,4.91-.55v3.23c-2.47.37-7.64,1-11,1.06l-.56-3.47c1,0,1.81,0,3.56-.07V164.3a26,26,0,0,1-3.7,1.65l-1.35-3a18.7,18.7,0,0,0,6.86-3.3h-6v-2.57h4.68v-1.75H288.2V153h3.49v-1.51h-4.05V149h4.05v-1.13h3V149h5v-1.13h3V149h4.29v2.44h-4.29V153h3.63v2.37h-3.63v1.75h4.48v2.57h-7.77a20.13,20.13,0,0,0,1.81,3.09,24.41,24.41,0,0,0,3.1-2.85ZM287.6,145.62a24.34,24.34,0,0,0,6.07-2.06h-6.4v-2.88h8.18v-1.92h3.33v1.92h8.33v2.88h-6.32a22.64,22.64,0,0,0,6.32,2.17l-1.35,2.43a20.5,20.5,0,0,1-7-2.43l1.68-2.17h-6.59l2,2.17a30.18,30.18,0,0,1-6.92,2.64Zm7.06,5.84V153h5v-1.51Zm0,3.88v1.75h5v-1.75Z"/><path class="cls-2" d="M315.49,154.41a24,24,0,0,1-2.28,2.85l-1.48-4.39c1.78-2,4.91-7.39,5.7-14.15l3.43.45a29.67,29.67,0,0,1-2,8.55v23.17h-3.36Zm18.32-8.86a30.49,30.49,0,0,0-6.46-4.32l2.11-2.89a46.63,46.63,0,0,1,6.63,4.12l-2,3.09h8.54V149h-8.83v6.49h7.61v3.4h-7.61v7.62h9.59v3.33H320.7v-3.33h9.55v-7.62h-7.64v-3.4h7.64V149h-8.73v-3.4Z"/><path class="cls-2" d="M363.64,156.2l15.66-1.72.26,3.4-15.92,1.75v6.8c0,.65.47.65.7.65h9.06a1,1,0,0,0,1.05-.89,41.41,41.41,0,0,0,.24-4.6l3.59.92c-.13,5.19-.3,8.14-3.59,8.14H363.35c-.86,0-3.17,0-3.17-2.54V160l-11.33,1.27-.24-3.43,11.57-1.28v-4.15c-1.91.24-4.05.38-5.93.52l-1.09-3.51c2.54-.1,12-.44,19.51-3.22l1.72,3.22A46.44,46.44,0,0,1,363.64,152Zm-1.22-17.55h3.43v3h12.82v8.21h-3.42v-4.77H353v4.77h-3.46v-8.21h12.85Z"/><path class="cls-2" d="M390.11,150.53c-1.48.89-2.7,1.48-4,2.13l-1.68-3.47a33,33,0,0,0,14-10.57h3.69a29.87,29.87,0,0,0,14.24,10.47l-1.85,3.5a27.1,27.1,0,0,1-3.95-2.06v2.58H402v4.63h10.42v3.09H402v5.56h13.35v3.51H385.13v-3.51h13.39v-5.56H388.17v-3.09h10.35v-4.63h-8.41Zm19.25-.79a42.16,42.16,0,0,1-9.1-8.1,37.55,37.55,0,0,1-8.9,8.1Z"/><path class="cls-2" d="M440.05,140.78v17.44h4.35v3.71h-4.35v5.91h-3.89v-5.91H420.93v-4.46l13.71-16.69Zm-3.89,3.5-11.31,13.94h11.31Z"/><path class="cls-2" d="M449,159.32a30.93,30.93,0,0,0,4.74-11.09h-4.25v-3.29h4.35v-6.25H457v6.25h3.65v3.29H457v1.2a18.73,18.73,0,0,0,4.05,6.42L459.33,159a20.66,20.66,0,0,1-2.37-4.29v16.17h-3.17V155.78c-1.42,5.09-2.73,6.87-3.62,8.11Zm9.78,7.24a22.68,22.68,0,0,0,8.38-7.55h-5.67V146.62h7.41v-2h-8.24V141.3h8.24v-2.61H472v2.61h8.5v3.36H472v2h7.45V159H474a24.87,24.87,0,0,0,7,7.25l-1.91,3.05A23.52,23.52,0,0,1,472,160.8v10.09h-3.1v-9.65a24.22,24.22,0,0,1-8.24,8.41Zm5.77-17.23v2.27h4.35v-2.27Zm0,4.7v2.24h4.35V154Zm7.45-4.7v2.27h4.45v-2.27Zm0,4.7v2.24h4.45V154Z"/></g></svg>