<svg xmlns="http://www.w3.org/2000/svg" width="650" height="295" viewBox="0 0 650 295"><defs><style>.cls-1{fill:#00ae22;}.cls-2{fill:#fff;}</style></defs><title>joho_matome</title><g id="レイヤー_3" data-name="レイヤー 3"><path class="cls-1" d="M94.8,85.26h22.33v3.86h-7.42v1.95h6.6v17h-3.75v-1.06H99.34v1.06H95.62v-17h5.7V89.12H94.8Zm4.54,14.79v3.24h13.22v-2a2,2,0,0,1-1.27.47H108a1.74,1.74,0,0,1-1.69-1.88V94.78h-1.68a11,11,0,0,1-3.2,7.84Zm0-5.27v4.55a6.85,6.85,0,0,0,2-4.55Zm5.37-5.66v1.95h1.61V89.12Zm7.85,7.39V94.78h-2.85v2.85c0,.49,0,.74.4.74.75,0,.89,0,1-2.15Z"/><path class="cls-1" d="M129.74,106.19v.27c-2.59.66-8,1.41-9.26,1.56l-.33-3.84c1-.07,1.94-.15,3.58-.35V98h-3.39V94.58h3.39v-1h-1.81v-1a6.44,6.44,0,0,1-1.23.89l-1-4.08a12.41,12.41,0,0,0,4.1-4.72h3.74a10,10,0,0,0,2.9,3.48,16,16,0,0,0,.12-2.77l3.37.37c0,.72,0,1.41-.17,2.87h.9V84.62h3.51v3.95h3.91v3.69H138.2v1.66a5.5,5.5,0,0,1,0,.79h4.38v3.83h-3.81a13,13,0,0,0,4.29,5.91l-2.24,3.71a13.72,13.72,0,0,1-4.17-6.53,13.65,13.65,0,0,1-5.49,6.63Zm-7.3-7.65a28,28,0,0,1,.82,4.21l-2.59.79a20.74,20.74,0,0,0-.61-4.26Zm5-8.48a12.77,12.77,0,0,1-1.58-2.23,15.25,15.25,0,0,1-1.56,2.23Zm2.68,8.48V94.71h4.6c0-.27,0-.37,0-.57V92.26h-1.48a15.86,15.86,0,0,1-.66,2.1l-3.16-1.51a21.48,21.48,0,0,0,1.08-4.7l-1.74,3.07v2.33h-1.79v1h2.45V98h-2.45v5.42c1.36-.2,2-.32,2.78-.45l0,1.34A9.85,9.85,0,0,0,134,98.54Zm.35.52a28.94,28.94,0,0,1-1,3.59l-2.27-.55a16.34,16.34,0,0,0,.8-3.58Z"/><path class="cls-1" d="M145.77,103.74c1.11-1.56,4-5.59,4.48-17.57l4.07.57c-.8,11.73-2.59,16.75-5.11,20.29ZM161.63,86.3a30.41,30.41,0,0,1,.8,3.61l.49-.12c.92,6.08,1.84,9.62,4.9,13.9L164,106.83c-2.9-4.5-4.71-10.09-5.4-20.09Zm1.46,2.87a28.77,28.77,0,0,0-1.06-4l1.86-.47a19.47,19.47,0,0,1,1.22,3.88Zm3.13-.32a35.53,35.53,0,0,0-1.2-4l2-.37a19.49,19.49,0,0,1,1.2,3.89Z"/><path class="cls-1" d="M171.53,103.71a22.9,22.9,0,0,0,12.6-13.11H173V86.5h16.65a25.7,25.7,0,0,1-4.12,10.71,55.32,55.32,0,0,1,7.59,6.75l-3.51,3.59a82.29,82.29,0,0,0-6.62-7.1c-4.53,4.87-7.47,6.18-9.12,6.9Z"/><path class="cls-1" d="M216.66,82.1h-7.25v26.37H204v-32h12.64Z"/><path class="cls-1" d="M224.19,92l-3.66-3.53c2.64-3.39,4.11-6.85,5.22-11.91l5.55.68c-.32,1.37-.65,2.78-1.17,4.56h3.69V76.42h5.58V81.8h11.09v5.47H239.4V92h10.08v5.27H239.4v5.34h12.4v5.45H220.92v-5.45h12.9V97.27H223.27V92Zm9.63,0V87.27h-5.65A26.06,26.06,0,0,1,225.3,92Z"/><path class="cls-1" d="M270.53,102c2.83-.24,10.44-.92,10.44-10.1,0-4.76-2.38-7.7-6.5-8.15,0,.58-.88,21.13-10.44,21.13-5.48,0-7.25-6.4-7.25-10.72,0-10.61,7.71-16.16,16-16.16,9.44,0,14.3,6.2,14.3,14.28,0,2.84-.65,8-4.7,11.74-3.13,2.91-8.22,3.56-9.79,3.77Zm-8.23-7.7c0,.85.2,4,2,4,2.22,0,4.08-6.12,4.76-14.24C262.3,86.38,262.3,93.33,262.3,94.33Z"/><path class="cls-1" d="M303.09,88.61a12.86,12.86,0,0,0,1-1.44h-2.8v1.34a20.17,20.17,0,0,0,4.92,5.78l-2.48,5a16.91,16.91,0,0,1-2.44-3.39v13.19h-4.93v-12a29.49,29.49,0,0,1-3.3,6.16l-1.57-6.92a31.52,31.52,0,0,0,4.77-9.21H292V81.93h4.34V76.45h4.93v5.48H305v3.7a31.83,31.83,0,0,0,2.74-9.42l4.83,1.13c-.26,1.44-1.5,9-5.81,15.34Zm12.27,1.44a90.84,90.84,0,0,1-5,12.84c.59,0,3.56-.24,5.58-.52a40.42,40.42,0,0,0-1.82-5.06l4.6-2.57a67.46,67.46,0,0,1,4.27,12.7l-5.25,2.12c-.13-.89-.2-1.3-.39-2.22-2.55.38-9,1.1-13.81,1.27l-.46-5.45c.56,0,1.5,0,2,0,.56-1.33,4-9.69,5-14.41Zm4.28,2.67a48.4,48.4,0,0,1-5.42-15.51l4.83-.93a33.29,33.29,0,0,0,4.57,12.53Z"/><path class="cls-1" d="M333.14,105.22a20.51,20.51,0,0,0,4.38-6.61H336V84h6.79c.16-.54.29-1.47.33-1.61h-8.56V93.51c0,9.45-2.12,13.25-3.33,15.44l-4.7-4.49a23.3,23.3,0,0,0,2.71-11.36V77.28h29v5.06H349c-.1.41-.42,1.27-.52,1.61h8.19V98.61h-1.86a25.91,25.91,0,0,0,4,6.37l-4.25,3.83a25,25,0,0,1-4.63-8.28l4.14-1.92h-4.89v7c0,1.57-.43,3.35-3.36,3.35H341.5l-1-4.45a20.64,20.64,0,0,1-3.2,4.32Zm9.24-4.69a24,24,0,0,1-1.4,3.11h1.95c.59,0,.62-.14.62-1v-4H338ZM341.14,88.1v1.5h10.38V88.1Zm0,4.79v1.54h10.38V92.89Z"/><path class="cls-1" d="M375,109.05H362.38V103.4h7.25V77H375Z"/><path class="cls-1" d="M388.26,94.64c-.49.58-.69.78-1.21,1.37l-1.24-8.22c3.1-4.14,3.82-9.08,4.08-11.51l5.19.48c0,.21-.16,1.17-.2,1.41H403V76.45h5.19v1.72h9v4.14H394.72v-3A49.57,49.57,0,0,1,393.35,85v24.07h-5.09ZM415,99v2.74h-6.33v3.83c0,3.26-1.83,3.46-3.59,3.46H399l-.75-4.72h4.38c.68,0,.81-.35.81-.89v-1.68h-7V99h-2V92.38h22.42V99Zm.32-15.65v7.84H395.89V83.37ZM412,96.25H399.26v1.37H412Zm-10.83-9.69v1.5H410v-1.5Z"/><path class="cls-1" d="M421.12,81.49A14.09,14.09,0,0,0,426,76.18L431,77.72a29.61,29.61,0,0,1-7.77,9.59Zm8,24.21V109H424V97.62c-.59.54-.92.82-1.5,1.33l-1.34-7.19a26.28,26.28,0,0,0,6.53-7.6l4,2.63h7.64V84.43h-7.22v-5.2h7.22V76.39h5.29v2.84h7.21v5.2h-7.21v2.36h8V92h-8v2.33h6.75v5.2h-6.75V103c.65,0,1.79.1,3.52.1,2.09,0,3.49-.07,4.86-.14l-1.07,5.41c-10.32.11-13.12-.17-16.55-4.21a17.77,17.77,0,0,1-3.23,5.21Zm8.46-12a41.83,41.83,0,0,1-.65,5,7.55,7.55,0,0,0,2.38,2.6V92H431.4V88.16a25.11,25.11,0,0,1-2.26,3.6V104.5c1.21-1.37,3.14-4.08,3.63-11.2Z"/><path class="cls-1" d="M458,103.61c2.09,0,10.8-.07,15.4-2.43a3.15,3.15,0,0,1-1,.13h-6.26l-.85-4.62a21,21,0,0,1-5.16,4.11l-3.43-4.52a21.21,21.21,0,0,0,6.86-5.44H457V85.67h4.41V78h5.35v7.71h3.3V76.56h5.32v2.15H485.5v5H475.39v1.92h12.5v5.17h-6.11a31.72,31.72,0,0,0,6.69,5.61l-3.42,4.45a33.6,33.6,0,0,1-7.9-7.67l3.46-2.39h-5.22V98a3.2,3.2,0,0,1-.79,2.39,15.08,15.08,0,0,0,4.11-4.14l3.86,3.77c-2.42,3.22-7.25,8.8-22.85,9.21Zm10.21-10.38a15,15,0,0,1-2.54,3.08h3.46c1,0,1-.92,1-1.23V90.84h-5.55Z"/><path class="cls-1" d="M501.68,96.76c-1.69.2-2.74.51-2.74,2.53v.86h17.27v5.61H493.1v-5.37c0-2.6,0-8.22,6.36-9l8.36-1c1.89-.24,2.77-.59,2.77-2.88s-.71-3.36-5.54-3.36c-5.45,0-5.65.72-5.72,4.08h-5.74c0-5.75.29-9.69,11-9.69,6.79,0,11.81.48,11.81,8.63,0,3.49-.84,5.27-2,6.33a8.1,8.1,0,0,1-4.79,2.26Z"/><path class="cls-1" d="M526.29,91.21c-.79.72-1.28,1.13-2,1.75l-3.53-5.27a21.17,21.17,0,0,0,9-11.41l5.35,1.06a32,32,0,0,1-5.51,10.31h14.52a42,42,0,0,1-5.45-10.13L544,76.21c1.73,4.08,4.31,8.6,9,11.82L549.4,93a22.87,22.87,0,0,1-1.8-1.47c-.23,5.82-.46,12.15-1.53,14.79a3.84,3.84,0,0,1-4.15,2.81h-6.1l-1.08-5.69h4.83a1.62,1.62,0,0,0,1.47-.79c.26-.54.78-3.63,1-9.51h-5.55c-1,8.59-5.48,13-12.17,16.09l-3.17-5.45c8.55-3,9.56-7.8,9.79-10.64h-4.63Z"/><rect class="cls-1" x="56.71" y="127.29" width="536.57" height="53.21" rx="23.62"/><path class="cls-1" d="M248.13,34.51H237.32v4.22h9.6V61.59h-4V60.12H222.62v1.47h-4.08V38.73h8V34.51h-9.3v-4h30.85Zm-25.51,8.1V56.13h20.27V42.61h-5.57v6c0,.44.2.82.56.82h.73c.72,0,1-.58,1-4l3,.68c-.33,5.09-.86,6.87-3.07,6.87h-3.1c-1.51,0-3-.27-3-2.75V42.61H230.2a17.48,17.48,0,0,1-4.74,11.53L222.69,51a12.41,12.41,0,0,0,3.89-8.37Zm7.65-8.1v4.22h3.3V34.51Z"/><path class="cls-1" d="M254.46,30.56h29.21v4.08h-25v21.8h25.74v4.09H258.65v1.3h-4.19Zm5.08,21.56a36.26,36.26,0,0,0,9.29-6.8A68.56,68.56,0,0,0,261,41.17l2.18-3.4a81.78,81.78,0,0,1,8.33,4.43,33.54,33.54,0,0,0,4.06-7l4.15,1.65A47.33,47.33,0,0,1,275,44.46a77,77,0,0,1,7.74,6.18l-2.9,3.74a67.73,67.73,0,0,0-7.61-6.69,52.49,52.49,0,0,1-10.09,7.86Z"/><path class="cls-1" d="M296.19,40a21.5,21.5,0,0,1-3.75,5.5l-3.14-3.16c1.12-1.24,4-4.43,5.94-12.47l4.15.69a45.1,45.1,0,0,1-1.52,5.32h5.38V29.46h4.21v6.45H319.2V40H307.46V45.9h11V50h-11v6.52h13.19V60.7H289.8V56.51h13.45V50H292.07V45.9h11.18V40Z"/><path class="cls-1" d="M340,55.89c5.9-.27,11.4-2,11.4-10.43,0-3.88-1.35-8.72-7.78-9.24-.32,4.12-.95,11.92-3.69,16.72-.56,1-2.67,4.6-6.46,4.6-4.45,0-6.69-5.18-6.69-10.16,0-9,6.27-15.42,15.56-15.42,8.54,0,13.81,5.12,13.81,13.74,0,10.16-6.13,14-14.77,14.59Zm-8.9-8.13c0,4.32,1.85,5.11,2.64,5.11,2.44,0,4.74-5.73,5.5-16.44C333,37.9,331.13,43.12,331.13,47.76Z"/><path class="cls-1" d="M361.55,49.75a37.19,37.19,0,0,0,5.15-10.23h-4.45v-4h4.64V29.49h3.89v6.05h4.09v4h-4.09v2a23.5,23.5,0,0,0,4.88,6.14l-2.08,3.68a19,19,0,0,1-2.8-4V61.83h-3.89V47.45a27.07,27.07,0,0,1-3.79,7.48Zm20.67-19.64a30.91,30.91,0,0,1-5.7,15.18l-3.23-2.92c2-2.68,3.95-5.77,5.07-12.95Zm-8.34,26.81c.33,0,1.88-.06,2.24-.06a78,78,0,0,0,4.39-15.25l4.05.86c-.3,1.75-1.06,5.8-4.55,14.18.53,0,5.11-.41,7.71-.82a30.25,30.25,0,0,0-2.5-5.84l3.43-1.79a45.5,45.5,0,0,1,4.71,12.33l-4.09,1.61c-.13-.86-.23-1.61-.46-2.57-3.89.65-10.58,1.23-14.44,1.51Zm16.94-11.26c-3.16-4.36-5-10.19-5.8-15.55l3.82-.69a32.36,32.36,0,0,0,5.05,13.19Z"/><path class="cls-1" d="M415,51.09h-8V37H414c.19-.72.39-1.75.49-2.37h-9.59V46.38a50.09,50.09,0,0,1-.82,8.21,19.66,19.66,0,0,1-2.71,7l-3.46-3.19c2.94-4.81,2.94-10.34,2.94-12.81V30.76h28.47v3.85H418.94c-.4,1.41-.46,1.61-.73,2.37h9.1V51.09h-8.18V59c0,2.44-1.28,2.75-2.73,2.75h-4.48l-1-4h3.23c.59,0,.76-.24.76-1Zm-2.28,2.64A25.46,25.46,0,0,1,407,61.35l-3.13-3A20.8,20.8,0,0,0,409.08,52Zm-1.81-13.35v2.16h12.53V40.38Zm0,5.11v2.16h12.53V45.49ZM424.8,52a33.77,33.77,0,0,0,5.05,6.35l-3.27,2.85a30.32,30.32,0,0,1-5.37-7.49Z"/><path d="M194.77,220.61a6.49,6.49,0,0,1,2.38,5.18c0,4.3-3.53,7.38-8.15,7.38-3.78,0-7-2.13-7-4.93a2,2,0,0,1,2-2.24,1.72,1.72,0,0,1,1.72,1.75,3,3,0,0,1-.21,1.12,2.44,2.44,0,0,0-.11.8c0,1.33,1.51,2.31,3.15,2.31,2.69,0,5.42-2.66,5.42-6.19s-2.66-6.41-5.46-6.41c-.21,0-1.18.14-1.39.14a.68.68,0,0,1-.77-.73.79.79,0,0,1,.8-.81c.21,0,1.26.21,1.5.21,2.94,0,4.8-2.62,4.8-5.45s-1.65-5.25-4.41-5.25a2.61,2.61,0,0,0-2.83,2.34,3.29,3.29,0,0,0,.1.53,3.4,3.4,0,0,1,.11.84,1.85,1.85,0,0,1-1.79,1.92,1.81,1.81,0,0,1-1.75-1.92c0-1.93,2.24-4.9,6.72-4.9,4.3,0,7,2.8,7,5.88a6.08,6.08,0,0,1-1.3,3.57,8.3,8.3,0,0,1-4.44,3A9.33,9.33,0,0,1,194.77,220.61Z"/><path d="M211.6,208.12h-1.22a2.25,2.25,0,0,0-2.49,2.41V229a2.25,2.25,0,0,0,2.49,2.42h.94a10.61,10.61,0,0,0,9.49-5.78l.9.46-2.48,6.44H201.42v-1.12h1.19a2.27,2.27,0,0,0,2.52-2.42V210.53a2.26,2.26,0,0,0-2.52-2.41h-1.19V207H211.6Z"/><path d="M226,207H236c8.18,0,13.26,4.2,13.26,12.6,0,6-3.15,12.95-12.95,12.95H226v-1.12h1.19a2.26,2.26,0,0,0,2.52-2.42V210.53a2.26,2.26,0,0,0-2.52-2.41H226Zm6.48,22a2.25,2.25,0,0,0,2.48,2.42h1.68c6.33,0,9.52-5.67,9.52-12.11,0-4.44-1.82-11.16-9.38-11.16h-1.82a2.24,2.24,0,0,0-2.48,2.41Z"/><path d="M266.29,216.76l7.77,12.42a5,5,0,0,0,4.13,2.21h.49v1.12h-9.9v-1.12h.84a1.28,1.28,0,0,0,1.4-1.16,2.84,2.84,0,0,0-.49-1.43l-6.2-9.9L261,222.5V229a2.28,2.28,0,0,0,2.52,2.42h1v1.12h-9.73v-1.12h1a2.25,2.25,0,0,0,2.49-2.42V210.53a2.25,2.25,0,0,0-2.49-2.41h-1V207h9.73v1.16h-1a2.27,2.27,0,0,0-2.52,2.41v10.32l9.55-10.42a1.75,1.75,0,0,0,.46-1.12c0-1-1.09-1.19-1.86-1.19h-.91V207h9.87v1.16h-.63a6.85,6.85,0,0,0-5.6,2.52Z"/><path d="M283.61,223h6.05v-6h1.25v6H297v1.25h-6.08v6h-1.25v-6h-6.05Z"/><path d="M312.25,220.46c-2.8,5.46-4.93,7.73-7.62,9.55l-.1-.15c2.57-2.69,5.14-8.33,5.56-9.77a6,6,0,0,0,.17-1.76l2.5,1c.32.12.49.19.49.46S312.59,220.38,312.25,220.46Zm5.58-6.59c-.22.17-.29.24-.54.41,0,1,0,1.3,0,3.87,0,2,.07,11,.07,12.84,0,1,0,2.72-2.87,3-.29-1.54-2.17-2.28-2.76-2.52v-.2c.61.05,2.52.15,3,.15.79,0,.79-.37.79-.64,0-3.35,0-10.55-.08-14.4,0-2.62-.07-3-.41-4.06l2.57.71c.24.07.51.17.51.41S318.1,213.67,317.83,213.87Zm8.11,14.28c-.84,0-1-.47-1.74-2.21a17.41,17.41,0,0,0-4.83-6.39l.05-.15c3.75,1.45,7.64,4.75,7.64,7.45C327.06,228,326.3,228.15,325.94,228.15Z"/><path d="M351.36,214.58c0,.39.07,2.13.07,2.5,0,1-1,1-1.17,1-.54,0-.54-.46-.52-.83H336.5c-.05,5.36-.1,7.35-.69,9.5a15.3,15.3,0,0,1-4,7.1l-.12-.12c2.77-4.63,3-9,3-14.72a46.41,46.41,0,0,0-.34-6.81l2.52,1.06h12.59l.61-.64a.56.56,0,0,1,.4-.25.8.8,0,0,1,.41.2l1.08.78c.17.13.29.25.29.42S351.78,214.31,351.36,214.58Zm2.45,18.56H338.53a18.11,18.11,0,0,0-2.89.22l-.49-1c1.69.15,3.43.17,3.77.17h4.53V229h-2.77a18.19,18.19,0,0,0-2.89.22l-.49-1c1.69.15,3.46.18,3.78.18h2.37c0-2.28,0-2.53-.32-3.41l2.18.59c.22.05.54.17.54.44s-.1.24-.71.69c0,.53,0,.66,0,1.69H349l.78-1.13c.12-.2.22-.32.37-.32a1.24,1.24,0,0,1,.46.25l1.4,1.15a.46.46,0,0,1,.24.36c0,.25-.19.27-.36.27h-6.76c0,.37,0,3.46,0,3.55h5.44l1-1.29c.14-.2.24-.32.39-.32s.19.07.44.27l1.54,1.3c.1.09.25.22.25.36S354,233.14,353.81,233.14Zm-4.07-19.3H336.5c0,.4,0,1.89,0,2.82h13.24Zm3.65,6.37H344a39.63,39.63,0,0,1-2.88,3.55l.83,0,6.22-.56a10.3,10.3,0,0,0-2.11-1.79l.1-.17c2.45.42,5.66,2,5.66,3.75a.88.88,0,0,1-.88,1,1.36,1.36,0,0,1-1.06-.64,10.66,10.66,0,0,0-1.3-1.69c-2.69.61-7.05,1.49-9.74,2.16-.42.56-.47.61-.61.61a.37.37,0,0,1-.32-.27l-.86-2.4a6.23,6.23,0,0,0,1.74.17c.68,0,1.17-.05,1.44-.05a33.88,33.88,0,0,0,1.47-3.6H340.1a17.28,17.28,0,0,0-2.89.22l-.49-1c2,.15,3.47.17,3.77.17h9.72l.88-1.15c.15-.19.27-.32.39-.32s.25.1.44.25l1.6,1.17a.47.47,0,0,1,.24.37C353.76,220.19,353.54,220.21,353.39,220.21Z"/><path d="M368.61,217.93H365.2v2.4c.42.2,3.18,1.89,3.18,3.58,0,.56-.29,1.1-.9,1.1-.81,0-.93-.54-1.27-2.08a7,7,0,0,0-1-2.25c0,7.12,0,7.93,0,9.94,0,.42.07,2.18.07,2.55a1.08,1.08,0,0,1-1.15,1.22c-.81,0-.81-.51-.81-.73s.05-.57.05-.71c.1-1.72.34-9.85.37-10.93a17.44,17.44,0,0,1-4.8,6.81l-.13-.1a31.52,31.52,0,0,0,4.61-10.8,17.85,17.85,0,0,0-3.28.22l-.49-1c1.47.13,3,.18,4.09.18-.08-3.85-.42-4.66-.79-5.56l2.62.85c.35.13.42.22.42.42,0,.39-.51.59-.81.69v3.6h1.1l.52-.89c.1-.17.19-.31.37-.31a1.18,1.18,0,0,1,.46.24l1.08.91c.12.1.24.19.24.36S368.78,217.93,368.61,217.93Zm11.56,15.87a11.43,11.43,0,0,1-5.1-4.89,54.53,54.53,0,0,1-6.32,3.74c-.22.44-.34.74-.56.74a.68.68,0,0,1-.42-.3l-1.34-2a7.09,7.09,0,0,0,3.2-.49c.05-1.93.08-8.91.08-9.75a60.6,60.6,0,0,0-.35-8.13l2.31,1.2h5.41l.78-.63c.17-.13.25-.18.35-.18s.31.15.36.18l1.08.8c.17.15.29.25.29.42s-.17.47-.93.91c0,.76,0,3,.05,3.57,0,1.13.13,3.26.13,3.36,0,.44,0,1.08-1.18,1.08-.73,0-.71-.32-.66-1.11h-3.7a13.9,13.9,0,0,0,1.49,4.29,14.8,14.8,0,0,0,4.14-3.45l1.5,1.47a.55.55,0,0,1,.19.41.4.4,0,0,1-.46.42,3.72,3.72,0,0,1-.57-.08,25.7,25.7,0,0,1-4.6,1.57,10.63,10.63,0,0,0,7.37,5.05v.12A5.1,5.1,0,0,0,380.17,233.8Zm-2.82-19.32h-6v3.28h6Zm0,3.87h-6v3.36h6Zm-4.16,3.94h-1.87c0,.37,0,6.84,0,7.69a34.32,34.32,0,0,0,3.57-1.34A15.25,15.25,0,0,1,373.19,222.29Z"/><path d="M405.74,226.43l.93-1.15c.1-.12.22-.32.36-.32s.27.12.45.27l1.2,1.15a.59.59,0,0,1,.24.39c0,.18-.12.25-.37.25h-5.09l1.52,1.17a.72.72,0,0,1,.29.45c0,.17-.15.27-.46.27a1.82,1.82,0,0,1-.44-.08c-1.11.25-1.65.37-2.75.66a13.46,13.46,0,0,0,8,2.4V232a4.22,4.22,0,0,0-2.13,2.08,13,13,0,0,1-5.8-3.35q-4.78,1.72-9.63,3.16c-.07.14-.17.34-.24.46s-.17.2-.32.2-.27-.13-.37-.32l-1.1-2.11a5.58,5.58,0,0,0,1.17.1,17.36,17.36,0,0,0,3-.34v-2.67a28.35,28.35,0,0,1-7.27,2.35v-.2A39.49,39.49,0,0,0,395,227h-4.71a17.47,17.47,0,0,0-2.89.22l-.49-1c1.64.13,3.33.15,3.77.15h6.23v-2h-5.34a16.6,16.6,0,0,0-2.89.22l-.49-1c1.69.15,3.45.17,3.77.17h4.95v-1.81h-4.14a1.08,1.08,0,0,1-1.13,1,.6.6,0,0,1-.59-.64,3.07,3.07,0,0,1,0-.44c.07-1.23.07-2.57.07-2.84a16.16,16.16,0,0,0-.2-3.14l2.09.86h9.67l.32-.37c.12-.14.27-.34.41-.34a1,1,0,0,1,.47.2l.91.58a.47.47,0,0,1,.24.37c0,.15-.05.22-.19.37a5.06,5.06,0,0,1-.47.41v1.5c0,.29.07,1.86.07,2.08a1,1,0,0,1-1,1,.59.59,0,0,1-.61-.68h-4.34v1.81H404l.78-.88c.15-.15.27-.29.39-.29a1,1,0,0,1,.47.24l1.15.91a.51.51,0,0,1,.24.36c0,.22-.19.25-.36.25h-8.21v2Zm-1-11.58.86-1c.22-.27.29-.34.41-.34s.2.05.47.27l1.27,1.05c.17.12.27.22.27.39s-.19.25-.36.25H390.82a17,17,0,0,0-2.89.22l-.46-1c1.66.14,3.4.17,3.74.17h5.69a10.63,10.63,0,0,0-.57-3.14l2.6.64c.29.07.44.12.44.37s-.17.41-.71.68c0,.25,0,1,0,1.45Zm-12,2.62v1.69h4.14v-1.69Zm0,2.28v1.71h4.14v-1.71ZM398,227a18.33,18.33,0,0,1-2.18,1.37v3.23c1.06-.17,3.63-.61,5.51-1.1a9.33,9.33,0,0,1-2.45-3.5Zm4.78-7.86v-1.69h-4.34v1.69Zm0,2.3v-1.71h-4.34v1.71ZM399.27,227a8.57,8.57,0,0,0,2.08,2.25,13.57,13.57,0,0,0,2.08-2.25Z"/><path d="M422,213.92c0,2.54,0,15.7,0,17,0,.34.09,1.86.09,2.15a1.11,1.11,0,0,1-1.15,1.3.7.7,0,0,1-.78-.81c0-.58.1-3.2.12-3.74,0-1.28.05-1.94.05-3.82-.34.24-1.3,1-1.88,1.37-1.84,1.22-2,1.35-2.33,1.57-.12.58-.22.85-.49.85s-.32-.12-.47-.34l-1.49-2.25a9.26,9.26,0,0,0,2.52-.35c-.1-7.12-.14-10.28-.29-11.36a14.38,14.38,0,0,0-.3-1.42l2.5.86c.22.07.44.19.44.41s-.22.4-.76.76c0,.47,0,.86,0,1.33,0,1.41,0,7.66,0,8.93l2.55-.88c0-4.31.07-8.89-.1-11.56a6.58,6.58,0,0,0-.41-2l2.52.79c.37.12.51.22.51.41S422.69,213.5,422,213.92Zm13.08,19.64a13.44,13.44,0,0,1-5.51-5.19c-.83,1.07-3.43,4.21-7,5.31l-.09-.15a20.53,20.53,0,0,0,6.24-6.61A28.78,28.78,0,0,1,426.34,215a13.79,13.79,0,0,0-2.4.23l-.49-1c1.25.09,2.49.17,3.77.17h4.72l.89-.79a.72.72,0,0,1,.41-.22.71.71,0,0,1,.42.22l1.22,1.06a.65.65,0,0,1,.3.44c0,.22-.44.54-1.08.83-.07.32-1.25,5.07-1.4,5.63a21,21,0,0,1-2.18,5.34c1.52,1.91,4.31,4.19,6.76,4.58v.2A2.86,2.86,0,0,0,435.08,233.56ZM426.68,215a29.43,29.43,0,0,0,2.87,10.46A31,31,0,0,0,432.14,215Z"/><path d="M444.27,226.46a17.83,17.83,0,0,1-3.19,6l-.12,0a19.76,19.76,0,0,0,1.59-7,5.51,5.51,0,0,0-.05-.81l2.16.81c.12,0,.39.14.39.34S445,226,444.27,226.46Zm5.14-1.94c-.59,0-.73-.39-.83-.71s-.32-1.1-.44-1.52l-1.3.3c0,.83,0,4.5,0,5.26,0,.42.15,5.34.15,5.49,0,.68-.81.86-1.08.86-.71,0-.71-.45-.71-.79,0-.17.17-5.12.17-5.46,0-.78,0-4.33,0-5.07-1.62.37-2.11.49-2.79.69-.27.41-.37.49-.52.49a.5.5,0,0,1-.41-.37l-.62-2.11a8.86,8.86,0,0,0,3.26.39c1.3-1.69,3.68-5,3.9-6.53l1.88,1.1a.39.39,0,0,1,.22.32c0,.29-.32.41-.76.58a48.88,48.88,0,0,1-4.75,4.53c.49,0,2.23,0,3.23,0a4,4,0,0,0-.71-1.38l.1-.09c1.1.56,2.94,1.73,2.94,3.18A.88.88,0,0,1,449.41,224.52Zm-1.59-10.73a4.92,4.92,0,0,1-.69.27,23.34,23.34,0,0,1-2.59,2.94c1,.79,1.1,1.47,1.1,1.62a.92.92,0,0,1-.88.95c-.47,0-.59-.17-1.13-1.1a9.43,9.43,0,0,0-1.69-2.28l.05-.12a7.58,7.58,0,0,1,2.28.76,26,26,0,0,0,1.15-3.62,5.83,5.83,0,0,0,.15-1.2l2.22,1.12a.41.41,0,0,1,.22.35A.33.33,0,0,1,447.82,213.79Zm1.35,15.43c-.64,0-.84-.49-1-1.32a12.61,12.61,0,0,0-.69-3.06l.08-.05c.29.17,2.55,1.81,2.55,3.38A1,1,0,0,1,449.17,229.22ZM462.41,218l-.66.64c0,.54-.05.81-.05,1.47,0,1.71.15,9.31.15,10.85,0,.95,0,2.54-2.74,3.26-.3-.79-.49-1.35-2.13-2.43l0-.1c.17,0,1.47.08,2.08.08.76,0,1,0,1-.86v-13.2H457c-.17,2-.4,3.28-.47,3.67,1.5.83,3.21,2.65,3.21,4.09a1,1,0,0,1-1,1.18c-.69,0-.84-.59-1-1.45a9.66,9.66,0,0,0-1.33-3.5,9.63,9.63,0,0,1-4,5.9c0,1.52.05,4.14.05,5.56,0,.88-1.11.91-1.18.91-.56,0-.64-.27-.64-.71,0-2.89.13-8.94.13-9.85a59.38,59.38,0,0,0-.27-7.44l2.08,1h2.74a22.56,22.56,0,0,0-.34-4.95l2.47.74a.4.4,0,0,1,.32.37c0,.19-.07.24-.64.76,0,.75,0,1.64-.09,3.08h2.79l.63-.64c.2-.19.25-.22.37-.22a.53.53,0,0,1,.37.18l1.1.88a.45.45,0,0,1,.22.36A.39.39,0,0,1,462.41,218Zm-10-.29c-.05,3.18,0,6.46,0,9.65a15.72,15.72,0,0,0,2.91-9.65Z"/><path d="M33.58,256.72l.85-1.12c.13-.16.19-.25.31-.25s.15.05.4.23l1.39,1.1a.45.45,0,0,1,.2.33c0,.19-.18.21-.33.21H29.5c0,.68,0,3.67,0,4.27,0,.21,0,4.52,0,5.12H35l1-1.12c.14-.16.2-.24.31-.24s.19.06.39.22l1.37,1.1a.45.45,0,0,1,.21.31c0,.19-.19.23-.31.23H22.38a14.41,14.41,0,0,0-2.44.19l-.42-.83c1.39.12,2.8.14,3.2.14H28c0-.18,0-4.58,0-5.06v-4.33H23.61a14.51,14.51,0,0,0-2.45.19l-.41-.81c1.38.1,2.8.12,3.19.12h4c0-4.7,0-5.24-.52-6.76l2.51.67c.21.06.34.1.34.29a.39.39,0,0,1-.19.31c-.08.08-.48.39-.6.47,0,1.68,0,3.34,0,5Z"/><path d="M50,256.85H47.52v6.67c1.68-.49,2.16-.68,2.63-.85l.09.17a21.94,21.94,0,0,1-3,1.76l-2.55,1.29c-.19.43-.27.66-.52.66a.45.45,0,0,1-.33-.25l-1.08-1.84c.71,0,1.06.08,3.4-.56,0-.71,0-3.86,0-4.5v-2.55h-.41a14.6,14.6,0,0,0-2.45.18l-.39-.83c1.22.11,2.46.15,3.25.15,0-1,0-2.07,0-3.11a11.47,11.47,0,0,0-.27-3.07l2.1.71c.1,0,.29.12.29.31s-.42.56-.71.74c0,1.45,0,2.16-.06,4.42H48l.62-.68c.19-.21.25-.27.35-.27s.25.14.35.22l.73.69c.1.1.19.18.19.31S50.07,256.85,50,256.85Zm9.26,10.61c-.47.09-4.14.09-4.72.09-3.4,0-4-.17-4-2.43,0-.81.07-4.37.07-5.1,0-.21,0-1.14,0-1.33a11.54,11.54,0,0,0-2,1.1l-.7-.58a28.87,28.87,0,0,0,2.72-1.08v-3.67a10.85,10.85,0,0,0-.23-2.4l1.93.66c.14,0,.31.13.31.29s-.17.33-.67.69c0,.62,0,3.31,0,3.85l2.26-1c0-2.08,0-3.55,0-5a14.16,14.16,0,0,0-.25-1.83l2,.67c.21.06.36.16.36.31s-.29.43-.73.77c0,1.86,0,2.13,0,4.5l2-.9.5-.83c.1-.16.21-.35.35-.35a.72.72,0,0,1,.39.17l1,.6a.44.44,0,0,1,.21.33c0,.25-.23.46-.52.73,0,6.22,0,7.65-2.47,8.29a2.64,2.64,0,0,0-1.24-1.74v-.1a4.57,4.57,0,0,0,.64,0c1.45,0,1.68-.19,1.68-4.56,0-1.41,0-1.64,0-2.24l-2.47,1.12c0,3,0,5,.06,5.59,0,.27.06,1.5.06,1.75a1,1,0,0,1-1.05,1c-.29,0-.5-.1-.5-.54,0-.22.06-1.28.06-1.49,0-1.33,0-2.11.06-5.76l-2.26,1c0,.83,0,7.2,0,7.45a.69.69,0,0,0,.5.58c.27.08,3.24.08,3.63.08,2.14,0,2.78,0,3.21-.77a18,18,0,0,0,.92-2.51h.14a7.3,7.3,0,0,0,.4,2.47c.12.21.47.4.47.6S60.77,267.19,59.21,267.46Z"/><path d="M73,254.81a22.58,22.58,0,0,0,1.22-3.46H68.8a14,14,0,0,0-2.45.19l-.41-.83c1,.08,2.11.14,3.19.14H81.49l.91-.89c.17-.16.33-.31.4-.31s.18.06.39.23l1.16.93c.08.07.21.19.21.31s-.21.23-.33.23H76.16a36.1,36.1,0,0,1-2.68,3.46H81l.58-.6c.21-.2.27-.27.4-.27a.88.88,0,0,1,.37.21l1,.81a.38.38,0,0,1,.17.27c0,.19-.08.25-.83.66,0,2.35,0,5.31,0,7.66,0,1,.11,2.5.11,3.46a.93.93,0,0,1-1,1c-.62,0-.62-.33-.58-1.51H69.4c0,.08,0,.56,0,.66a1,1,0,0,1-1,1c-.66,0-.66-.46-.66-.65s.06-1.1.06-1.26c0-2.26.15-7,.15-9a14.47,14.47,0,0,0-.29-3.4l2.13,1Zm-3.59.5V266h2.76V255.31Zm7.32,3.15v-3.15H73.55v3.15Zm0,3.63V259H73.55v3.13Zm0,3.88v-3.38H73.55V266Zm4.48,0V255.31H78.13V266Z"/><path d="M88.38,263.67a26.86,26.86,0,0,0,3.85-7.94h-.47a15.51,15.51,0,0,0-2.45.18l-.39-.83c1.18.11,2.38.15,3.46.15,0-1,0-2.47,0-3.36a19.82,19.82,0,0,1-3.38.37v-.16a35.25,35.25,0,0,0,5.6-2.32,1.43,1.43,0,0,0,.43-.5l1.43,1.2a.35.35,0,0,1,.15.29c0,.21-.21.21-.4.21l-.6,0a17.23,17.23,0,0,1-1.93.62c0,.95,0,2.86,0,3.67h.4l.5-.75c.08-.12.18-.27.31-.27s.29.15.39.23l.89.75a.43.43,0,0,1,.21.33c0,.21-.21.21-.31.21H93.66c0,.39,0,1.32,0,1.82,2,.73,2.72,2,2.72,2.62a.79.79,0,0,1-.77.82c-.49,0-.56-.2-1-1.36a3.78,3.78,0,0,0-1-1.81c0,3.61,0,4,.09,5.6,0,1.41.08,3.05.08,3.8,0,.37,0,1.2-1,1.2-.54,0-.6-.31-.6-.71,0-.68.17-3.73.19-4.35,0-2,0-2.84,0-4.65a13.55,13.55,0,0,1-3.92,5.06ZM95,268.05c1.45-.71,3.8-2.08,4.3-3l1.49,1.1a.37.37,0,0,1,.19.31c0,.29-.48.27-1,.27a16.47,16.47,0,0,1-4.94,1.43Zm9.21-16.51.52-.83c.1-.17.21-.29.31-.29s.27.14.39.25l1,.83a.44.44,0,0,1,.21.33c0,.19-.17.21-.31.21H102v1.7h1.66l.5-.75c.08-.12.16-.25.31-.25s.25.13.37.23l.85.73a.43.43,0,0,1,.21.33c0,.18-.19.2-.31.2H102v1.87h3.44l.6-.85c.11-.17.23-.27.33-.27s.25.13.38.25l.89.83c.1.1.21.21.21.33s-.17.21-.31.21H98.89a13.9,13.9,0,0,0-2.45.19L96,256c1.06.08,2.13.14,3.19.14h1.35v-1.87h-.5a13.16,13.16,0,0,0-2.45.21l-.39-.83c.62,0,1.54.13,3.34.13,0-.81,0-1.31,0-1.7H99.18a14.53,14.53,0,0,0-2.45.18l-.41-.83c1.51.13,2.84.15,3.19.15h1a5.8,5.8,0,0,0-.38-2.22l2.12.64a.32.32,0,0,1,.29.31c0,.27-.48.5-.58.54v.73Zm-.48,6.49.48-.52c.08-.08.21-.21.29-.21s.25.13.33.19l.81.68a.52.52,0,0,1,.23.38c0,.21-.25.37-.6.54a7.23,7.23,0,0,0,0,.76c0,.71.16,3.8.16,4.42a.85.85,0,0,1-1,1c-.54,0-.54-.27-.52-.71H99c0,.48.07,1-.93,1-.35,0-.54-.1-.54-.47,0,0,0-.21,0-.5.05-.77.05-3,.05-3.92a13.3,13.3,0,0,0-.23-3.28l1.64.73Zm-4.73.5V260H104v-1.47Zm0,2V262H104V260.5Zm0,2V264H104v-1.53Zm3.49,2.82c1.86.16,4.5,1.1,4.5,2.34a.84.84,0,0,1-.83.81c-.48,0-1-.52-1.31-.91a10.22,10.22,0,0,0-2.36-2.1Z"/><path d="M114.42,254.79a1.22,1.22,0,0,1-1.2,1.21,1.21,1.21,0,0,1-1.2-1.21,1.2,1.2,0,0,1,2.4,0Zm0,8.17a1.21,1.21,0,0,1-1.2,1.21,1.21,1.21,0,1,1,1.2-1.21Z"/><path d="M119.38,266.1h1.14c1.08,0,1.45-.42,1.45-1.27V253.61c0-.64-.6-.74-1-.74H119.4v-.65h.38a8,8,0,0,0,3.38-.87c.14-.08.2-.12.29-.12s.22.12.22.29v13.31c0,.89.44,1.27,1.46,1.27h1.14v.66h-6.89Z"/><path d="M138.75,259.71a3.86,3.86,0,0,1,1.41,3.07c0,2.55-2.09,4.37-4.83,4.37-2.24,0-4.13-1.26-4.13-2.92a1.2,1.2,0,0,1,1.18-1.33,1,1,0,0,1,1,1,1.72,1.72,0,0,1-.12.66,1.28,1.28,0,0,0-.07.48c0,.79.9,1.37,1.87,1.37a3.54,3.54,0,0,0,3.21-3.67,3.61,3.61,0,0,0-3.23-3.8c-.12,0-.71.09-.83.09a.42.42,0,0,1-.46-.44.47.47,0,0,1,.48-.48c.13,0,.75.13.89.13A3,3,0,0,0,138,255c0-1.61-1-3.11-2.61-3.11a1.34,1.34,0,0,0-1.62,1.7,1.77,1.77,0,0,1,.07.5,1.1,1.1,0,0,1-1.06,1.14,1.07,1.07,0,0,1-1-1.14c0-1.14,1.33-2.9,4-2.9s4.15,1.66,4.15,3.48a3.59,3.59,0,0,1-.77,2.12,4.91,4.91,0,0,1-2.63,1.76A5.56,5.56,0,0,1,138.75,259.71Z"/><path d="M152,266.76H143.9v-.56a13.91,13.91,0,0,1,3-4.65c3.05-3.52,4.09-4.7,4.09-6.78a2.67,2.67,0,0,0-2.76-2.84c-1.45,0-2.32.87-2.32,1.62a1.13,1.13,0,0,0,.21.64,1.88,1.88,0,0,1,.43,1,1.15,1.15,0,0,1-1.12,1.16,1.31,1.31,0,0,1-1.18-1.45,4.15,4.15,0,0,1,4.46-3.71c2.57,0,4.15,1.62,4.15,3.85s-1.21,3.24-3.07,4.84c-.71.58-3.45,2.92-4.48,5.2h2.86c2.9,0,3.59-1.12,4.21-2.84l.62.23Z"/><path d="M159.35,266a1.21,1.21,0,1,1-1.21-1.2A1.22,1.22,0,0,1,159.35,266Z"/><path d="M164.8,253.26l-.19,5.23a4.39,4.39,0,0,1,3.22-1.44c3,0,4.41,2.47,4.41,4.75a5.26,5.26,0,0,1-5.12,5.35c-2.36,0-3.92-1.76-3.92-3a1.18,1.18,0,0,1,1.21-1.28,1,1,0,0,1,1.07,1.08,2.2,2.2,0,0,1-.1.62,3.26,3.26,0,0,0-.06.58c0,.89.93,1.35,1.76,1.35,1.68,0,3.26-1.6,3.26-4.38,0-2.63-1.39-4.08-2.91-4.08a4.48,4.48,0,0,0-3.23,1.8l-.31-.16.31-8h7.22l-.42,1.64Z"/><path d="M182.2,251.23h.85v10.53h2.34v.67h-2.34v2.4c0,.91.46,1.27,1.45,1.27h.33v.66h-5.26v-.66h.33c1,0,1.45-.34,1.45-1.27v-2.4h-5.58v-.73Zm-.85,2.74-4.79,7.79h4.79Z"/><path d="M192.16,256.56v1.64a4.63,4.63,0,0,1,3.42-1.64,2.3,2.3,0,0,1,2.49,1.86,5.16,5.16,0,0,1,3.71-1.86c1.82,0,2.65,1.1,2.65,3.4v4.89c0,.79.42,1.25,1,1.25h.37v.66h-4.33v-.66h.39c.73,0,1-.56,1-1.25v-4.77c0-.58-.08-2.63-1.81-2.63a3.9,3.9,0,0,0-2.94,1.8,5.05,5.05,0,0,1,0,.71v4.89c0,.87.48,1.25,1,1.25h.6v.66H195.1v-.66h.6c.58,0,1.06-.4,1.06-1.25v-4.77c0-.43-.06-2.63-1.81-2.63a3.68,3.68,0,0,0-2.79,1.64v5.76c0,.87.47,1.25,1,1.25h.38v.66h-4.32v-.66h.38c.62,0,1-.44,1-1.25v-6.24a.85.85,0,0,0-.85-1,1.87,1.87,0,0,0-.62.08l-.1-.4Zm10.72-1.23a11.38,11.38,0,0,1,1.2-1.32c.43-.48,1.18-1.29,1.18-2,0-.27-.17-.77-.64-.77a.69.69,0,0,0-.71.56c0,.08.19.45.19.54a.57.57,0,0,1-.58.54.64.64,0,0,1-.62-.71,1.75,1.75,0,0,1,1.82-1.49,1.41,1.41,0,0,1,1.52,1.41,1.66,1.66,0,0,1-.65,1.35c-.23.22-1.51,1.26-1.72,1.55h1.29c.54,0,.7-.41.81-.7l.33.1-.44,1.43h-3Z"/><path d="M218.28,268.92a12.72,12.72,0,0,1,0-20.08l.19.29a14,14,0,0,0,0,19.5Z"/><path d="M226.23,253.8c0,2.09,0,11.34,0,13.23a1.05,1.05,0,0,1-1.18,1c-.48,0-.54-.29-.54-.56,0-.1,0-.37,0-.49.14-2.22.25-7.12.25-9.21a32.47,32.47,0,0,0-.31-5.64l2,1.18h5.29c0-.27,0-.68,0-1.33a8.84,8.84,0,0,0-.35-2.86l2.26.6c.18,0,.29.11.29.29s-.32.44-.65.56c0,.94,0,1.77-.1,2.74h5.49l.65-.66c.1-.13.23-.25.31-.25a.7.7,0,0,1,.37.21l.93.78c.11.09.25.23.25.32s-.31.41-.81.68c0,2.92.09,7.59.09,10.49,0,1.77,0,2.59-2.41,3.26-.27-1.06-.74-1.49-2.61-2.28l0-.17c.85.08,2.07.17,2.43.17.93,0,1-.07,1-1,0-.29,0-9.81,0-11.05h-5.76a14.92,14.92,0,0,1-.73,3.36c2.35.74,5.21,2.59,5.21,4.33a.85.85,0,0,1-.87.89c-.58,0-.79-.37-1.12-1a11.1,11.1,0,0,0-3.3-4,9,9,0,0,1-5.89,5.41l0-.15a10.86,10.86,0,0,0,5.24-8.89Z"/><path d="M261.69,256.93a1.17,1.17,0,0,0-.7.37,22.84,22.84,0,0,1-3.69,2.95l-.13-.11a19.17,19.17,0,0,0,2.64-4l-4.67,1.47-1.45.46c-.06,1.66-.09,2.88-.09,3.53,0,2.38,0,3,2.53,3a18.13,18.13,0,0,0,3.49-.43,2.57,2.57,0,0,1,.58-.09,3.46,3.46,0,0,1,1.47.38.59.59,0,0,1,.19.45c0,.38-.23.54-.67.67a18.81,18.81,0,0,1-3.69.27c-2.11,0-4.41,0-4.91-2a32.9,32.9,0,0,1-.15-5.42,19.06,19.06,0,0,0-3.58,1.43,1.07,1.07,0,0,1-.54.19,2.48,2.48,0,0,1-1.77-2.05,3.68,3.68,0,0,1,.17-1c.77,1.06,1,1.37,1.74,1.37a19,19,0,0,0,4-.93c0-.83.11-4.42-.18-4.94-.11-.18-.42-.62-1.6-.89a3,3,0,0,1,1.45-.52c.83,0,2.26.48,2.26,1.06a8.48,8.48,0,0,1-.2.89,25,25,0,0,0-.44,4c.62-.18,5.6-1.61,5.85-1.78.1-.08.56-.43.66-.52a.48.48,0,0,1,.29-.12c.33,0,2.14,1.31,2.14,1.8S262.63,256.81,261.69,256.93Z"/><path d="M269.37,259.73c-.46,0-.67-.48-.89-1a9.23,9.23,0,0,0-1.52-2.24c1.37.21,3,1.33,3,2.47C270,259.38,269.76,259.73,269.37,259.73Zm8.54-2.09c-.12.14-1,2-1.16,2.32-3,5.62-6.68,6.59-8.13,7l0-.21a15.52,15.52,0,0,0,8-9.83c0-.5-.83-1-1.1-1.12a3.76,3.76,0,0,1,.92-.15,2.68,2.68,0,0,1,2,1.35C278.35,257.14,278.3,257.2,277.91,257.64Zm-5,1.2c-.43,0-.49-.19-.85-1.14a8,8,0,0,0-1.24-2.14c1.41.42,2.72,1.58,2.72,2.47C273.56,258.46,273.33,258.84,272.93,258.84Z"/><path d="M291.64,261.22c-.31,0-.58-.27-.91-.62-1.91-2.11-3-2.86-4.42-3.4,0,.81,0,4.42,0,5.16,0,.54.12,2.93.12,3.4s0,1.66-.8,1.66-1-1.2-1-1.74a8.76,8.76,0,0,1,.15-1.39,58.45,58.45,0,0,0,.27-6.68c0-.89,0-5-.19-5.68-.13-.45-.58-.66-1.66-1a2.86,2.86,0,0,1,1.37-.5c.31,0,2.34.43,2.34,1.1a9.92,9.92,0,0,1-.29,1,26.18,26.18,0,0,0-.29,4.19,11.47,11.47,0,0,1,5.35,2.24,1.9,1.9,0,0,1,.62,1.39C292.3,261,291.89,261.22,291.64,261.22Z"/><path d="M303.86,256.41c-.36.44-1.56,2.55-1.83,3a13.58,13.58,0,0,1-5.74,5.22l0-.18c3.89-3.45,5.82-7.76,5.82-8.65,0-.52-.18-1-1.3-1.49a3.08,3.08,0,0,1,1.05-.19,3.63,3.63,0,0,1,2.47,1.7A2,2,0,0,1,303.86,256.41Zm9.16,7.07c-.6,0-.72-.45-1.26-2.15a18.74,18.74,0,0,0-4.48-6.95c2.63.79,6.51,4.87,6.51,8C313.79,262.9,313.48,263.48,313,263.48Zm-.56-8.23c-.29,0-.37-.1-1.1-.95a7.63,7.63,0,0,0-1.95-1.66c1.31,0,3.53.7,3.53,2C312.94,255,312.69,255.25,312.46,255.25Zm1.72-1.89c-.25,0-.31-.06-.87-.66a9,9,0,0,0-2.3-1.62c1.33-.08,3.67.5,3.67,1.7A.52.52,0,0,1,314.18,253.36Z"/><path d="M321,259.73c-.46,0-.67-.48-.89-1a9.23,9.23,0,0,0-1.52-2.24c1.37.21,3,1.33,3,2.47C321.61,259.38,321.4,259.73,321,259.73Zm8.54-2.09c-.12.14-1,2-1.16,2.32-3,5.62-6.68,6.59-8.13,7l0-.21a15.52,15.52,0,0,0,8-9.83c0-.5-.83-1-1.09-1.12a3.59,3.59,0,0,1,.91-.15A2.68,2.68,0,0,1,330,257C330,257.14,330,257.2,329.55,257.64Zm-5,1.2c-.43,0-.49-.19-.85-1.14a8,8,0,0,0-1.24-2.14c1.41.42,2.72,1.58,2.72,2.47C325.2,258.46,325,258.84,324.57,258.84Z"/><path d="M346.87,255.69c-.48.2-.67.39-1.12,1.28a19.82,19.82,0,0,1-7.34,8.44,13.31,13.31,0,0,1-4.07,1.76l0-.14a25,25,0,0,0,10.62-11.92c-.85.08-2.26.29-3.11.41-.15,0-.56.08-.66.08a2.29,2.29,0,0,1-1.06-.35,15,15,0,0,1-5.5,4.81l-.1-.16c3.4-3.11,5.41-6.85,5.41-7.51,0-.21,0-.37-1.14-1a3.49,3.49,0,0,1,1-.16c.83,0,2.34.95,2.34,1.49,0,.19-.08.29-.48.66-.2.19-.74.89-1,1.23a17,17,0,0,0,4.06-.38c.19-.06.89-.62,1.1-.62s1.72,1.24,1.72,1.64C347.51,255.35,347.45,255.42,346.87,255.69Z"/><path d="M355.66,257.66a3.52,3.52,0,0,1,1.81-.54c2,0,3.71,2.07,3.71,4.58,0,2.88-2.05,5.45-4.44,5.45S352,264.48,352,260c0-4.79,2.7-8.77,5.87-8.77,1.39,0,2.36.83,2.36,1.82a1,1,0,0,1-1.05,1.08c-.42,0-1.1-.27-1.14-1.45,0-.46-.07-.75-.63-.75a2.1,2.1,0,0,0-1.51.75c-1.84,2-1.95,5.08-2,6.95A5.09,5.09,0,0,1,355.66,257.66Zm-.68,7.67a2,2,0,0,0,1.68,1.12c1.1,0,2.65-1.14,2.65-4.56,0-.94-.22-3.84-2.36-3.84-.79,0-2.12.58-3.09,2.82A9.89,9.89,0,0,0,355,265.33Z"/><path d="M367.38,266a1.2,1.2,0,1,1-1.2-1.2A1.22,1.22,0,0,1,367.38,266Z"/><path d="M375.76,267.15a4.19,4.19,0,0,1-3.4-2.24,12.91,12.91,0,0,1-1.27-5.91c0-4.41,1.89-7.77,4.67-7.77,2.14,0,4.67,2.3,4.67,8C380.43,264.27,378.29,267.15,375.76,267.15Zm-2.32-12.46a18.79,18.79,0,0,0-.48,4.5c0,4.62,1.1,7.26,2.8,7.26,1.43,0,2.07-1.91,2.3-2.7a19.21,19.21,0,0,0,.5-4.56c0-4.73-1.14-7.26-2.8-7.26C374.29,251.93,373.64,254,373.44,254.69Z"/><path d="M385.69,253.26l-.18,5.23a4.37,4.37,0,0,1,3.21-1.44c3,0,4.42,2.47,4.42,4.75a5.27,5.27,0,0,1-5.12,5.35c-2.37,0-3.92-1.76-3.92-3a1.17,1.17,0,0,1,1.2-1.28,1,1,0,0,1,1.08,1.08,2,2,0,0,1-.11.62,3.26,3.26,0,0,0-.06.58c0,.89.94,1.35,1.77,1.35,1.67,0,3.25-1.6,3.25-4.38,0-2.63-1.39-4.08-2.9-4.08a4.5,4.5,0,0,0-3.24,1.8l-.31-.16.31-8h7.22l-.42,1.64Z"/><path d="M400.19,256.56v1.64a4.67,4.67,0,0,1,3.42-1.64,2.3,2.3,0,0,1,2.49,1.86,5.2,5.2,0,0,1,3.71-1.86c1.83,0,2.66,1.1,2.66,3.4v4.89c0,.79.41,1.25,1,1.25h.38v.66h-4.34v-.66h.4c.72,0,1-.56,1-1.25v-4.77c0-.58-.08-2.63-1.8-2.63a3.89,3.89,0,0,0-2.94,1.8,5.05,5.05,0,0,1,0,.71v4.89c0,.87.47,1.25,1,1.25h.6v.66h-4.76v-.66h.6c.58,0,1.05-.4,1.05-1.25v-4.77c0-.43-.06-2.63-1.8-2.63a3.69,3.69,0,0,0-2.8,1.64v5.76c0,.87.48,1.25,1,1.25h.37v.66h-4.31v-.66h.37c.62,0,1-.44,1-1.25v-6.24a.86.86,0,0,0-.85-1,1.83,1.83,0,0,0-.62.08l-.11-.4Zm10.72-1.23a12.43,12.43,0,0,1,1.2-1.32c.44-.48,1.19-1.29,1.19-2,0-.27-.17-.77-.65-.77a.68.68,0,0,0-.7.56c0,.08.18.45.18.54a.57.57,0,0,1-.58.54.65.65,0,0,1-.62-.71,1.76,1.76,0,0,1,1.83-1.49,1.4,1.4,0,0,1,1.51,1.41,1.66,1.66,0,0,1-.64,1.35c-.23.22-1.52,1.26-1.72,1.55h1.28a.84.84,0,0,0,.81-.7l.33.1-.43,1.43h-3Z"/><path d="M418.86,268.92l-.19-.29a14,14,0,0,0,0-19.5l.19-.29a12.72,12.72,0,0,1,0,20.08Z"/><path d="M471.84,267.67c-7.52-.1-10.76-.14-13.56-2.86a9.66,9.66,0,0,1-4.23,3.59l-.12-.13a13.18,13.18,0,0,0,3.58-4.31,10,10,0,0,1-1.92-4l.2-.17a9.35,9.35,0,0,0,2.1,3.4,14.27,14.27,0,0,0,1.16-5.64h-1.74c-.42,1.16-.52,1.47-1.21,1.47-.14,0-.74,0-.74-.47a13.55,13.55,0,0,1,.49-1.47c1.08-2.78,1.93-5,2.18-6h-.74a13.44,13.44,0,0,0-2.45.19l-.4-.83c1.06.08,2.12.15,3.18.15H458l.54-.44c.19-.14.29-.21.39-.21a.77.77,0,0,1,.36.21l.81.69a.43.43,0,0,1,.2.37c0,.25-.41.43-1,.66-.46,1.16-.73,1.87-1.87,5.14h1.41l.56-.43a.77.77,0,0,1,.4-.21.55.55,0,0,1,.39.23l.64.66a.67.67,0,0,1,.25.44c0,.19-.21.31-.64.58a14.42,14.42,0,0,1-1.7,5.7,11.4,11.4,0,0,0,7.22,2.06,46.42,46.42,0,0,0,7.29-.61l0,.17A2.56,2.56,0,0,0,471.84,267.67Zm1.23-12.92H470.2c.09,2.47.09,2.47.09,2.62,0,.41,0,1.05-1,1.05-.56,0-.54-.33-.52-.68h-2.55v2.16h3.11l.63-.79c.14-.17.22-.27.35-.27s.23.1.39.23l.94.78c.1.11.2.23.2.32s-.14.22-.31.22h-5.31l0,2.2h3.7l.78-.91c.17-.19.25-.27.36-.27s.22.08.37.23l1,.91a.48.48,0,0,1,.21.35c0,.13-.12.19-.31.19h-6.08c0,.25.05,1.47,0,1.74a1,1,0,0,1-.91.75c-.66,0-.66-.38-.66-.6s.1-1.58.1-1.89h-1.41a14.61,14.61,0,0,0-2.42.19l-.42-.81c1.62.12,3.15.12,3.19.12h1.08c0-.56,0-1.08,0-2.2h-.62a13.68,13.68,0,0,0-2.42.19l-.42-.81c.62,0,1.78.13,3.48.13v-2.16h-.41a14.9,14.9,0,0,0-2.45.19l-.41-.81c1.49.1,3.07.12,3.27.12l0-2.49H463a13.78,13.78,0,0,0-2.43.19l-.41-.83c1.05.1,2.11.15,3.17.15h1.6l0-2.43h-.49a15.89,15.89,0,0,0-2.45.19l-.39-.83c1.45.12,2.8.14,3.31.14a3.7,3.7,0,0,0-.31-1.93l2,.48c.23.06.36.14.36.33s-.25.37-.58.56v.56h2.4l.52-.45a.59.59,0,0,1,.37-.21c.13,0,.23.1.38.23l.58.56a.62.62,0,0,1,.25.39c0,.17-.17.29-.59.58a11.54,11.54,0,0,0,0,1.83H471l.6-.77c.13-.17.23-.25.33-.25a.65.65,0,0,1,.4.21l.89.76c.1.11.21.21.21.31S473.27,254.75,473.07,254.75Zm-4.25,0h-2.58l0,2.49h2.6Zm0-2.92h-2.53l-.05,2.43h2.58Z"/><path d="M483.09,260.64c0,2.51,0,2.95,0,4.15,0,.73.08,1.89.08,2.61s-.89,1-1.08,1c-.46,0-.56-.27-.56-.58,0-.09,0-.85,0-1,.09-1.55.09-2.11.13-5.43a22.32,22.32,0,0,1-2.55,1.18c0,.37-.07.73-.4.73s-.35-.23-.41-.36l-1-1.86c1.29.06,1.64,0,4.36-.79,0-1.83,0-3.88,0-5.46h-1.87a16.45,16.45,0,0,1-1.84,4.59l-.13,0a33,33,0,0,0,.93-7.2,3.74,3.74,0,0,0-.2-1.41l2,.48c.16,0,.35.08.35.31s-.29.41-.62.54a21.46,21.46,0,0,1-.35,2.24h1.72c0-2.93-.11-3.78-.56-4.81l2.28.66c.12,0,.31.14.31.29s-.35.44-.66.6c0,.44,0,2.63,0,3.26h.41l.58-.79c.1-.13.21-.27.31-.27a.6.6,0,0,1,.37.23l.83.79a.45.45,0,0,1,.19.31c0,.18-.19.22-.31.22h-2.38c0,1.33,0,3.65,0,5,.41-.14,2.34-.81,2.71-.95l.06.14A24.34,24.34,0,0,1,483.09,260.64ZM495.32,255c-.17,4.34-.33,8.28-1.64,11a4,4,0,0,1-3.21,2.1c-.15-.94-.48-1.52-1.77-2.45l.07-.15a8.94,8.94,0,0,0,2.51.44c.49,0,.83,0,1.41-1.47a32.28,32.28,0,0,0,1.16-10h-1.18c-.61,4.69-2.6,10.72-8.59,13l-.06-.14c4.39-3.3,6.26-6.8,7.13-12.84H490c-.85,4.38-3.19,8.15-6.2,9.56l-.06-.12a17.71,17.71,0,0,0,4.75-9.44h-1a13.14,13.14,0,0,1-2.8,4.13l-.1-.11a23.11,23.11,0,0,0,2.67-8.46,2.49,2.49,0,0,0-.1-.7l2.07.83c.21.08.31.21.31.33,0,.27-.39.37-.72.46-.54,1.66-.89,2.5-1.1,3h6l.5-.52c.12-.14.23-.22.31-.22a.87.87,0,0,1,.37.18l1,.73c.14.1.22.17.22.29C496,254.69,495.55,254.92,495.32,255Z"/><path d="M508.1,254.81a22.58,22.58,0,0,0,1.22-3.46h-5.41a14,14,0,0,0-2.45.19l-.41-.83c1.05.08,2.11.14,3.19.14H516.6l.91-.89c.17-.16.33-.31.39-.31s.19.06.4.23l1.16.93c.08.07.21.19.21.31s-.21.23-.33.23h-8.07a36.1,36.1,0,0,1-2.68,3.46h7.55l.58-.6c.21-.2.27-.27.4-.27a.88.88,0,0,1,.37.21l1,.81a.38.38,0,0,1,.17.27c0,.19-.08.25-.83.66,0,2.35,0,5.31,0,7.66,0,1,.11,2.5.11,3.46a.93.93,0,0,1-1,1c-.62,0-.62-.33-.58-1.51h-11.8c0,.08,0,.56,0,.66a1,1,0,0,1-1,1c-.66,0-.66-.46-.66-.65s.06-1.1.06-1.26c0-2.26.15-7,.15-9a14.47,14.47,0,0,0-.29-3.4l2.13,1Zm-3.59.5V266h2.76V255.31Zm7.32,3.15v-3.15h-3.17v3.15Zm0,3.63V259h-3.17v3.13Zm0,3.88v-3.38h-3.17V266Zm4.48,0V255.31h-3.07V266Z"/><path d="M523.49,263.67a26.86,26.86,0,0,0,3.85-7.94h-.47a15.51,15.51,0,0,0-2.45.18l-.39-.83c1.18.11,2.38.15,3.46.15,0-1,0-2.47,0-3.36a19.82,19.82,0,0,1-3.38.37v-.16a35.25,35.25,0,0,0,5.6-2.32,1.43,1.43,0,0,0,.43-.5l1.43,1.2a.38.38,0,0,1,.15.29c0,.21-.21.21-.4.21l-.6,0a17.23,17.23,0,0,1-1.93.62c0,.95,0,2.86,0,3.67h.4l.5-.75c.08-.12.18-.27.31-.27s.29.15.39.23l.89.75a.43.43,0,0,1,.21.33c0,.21-.21.21-.31.21h-2.39c0,.39,0,1.32,0,1.82,2,.73,2.72,2,2.72,2.62a.79.79,0,0,1-.77.82c-.49,0-.56-.2-1-1.36a3.78,3.78,0,0,0-1-1.81c.05,3.61.05,4,.09,5.6,0,1.41.08,3.05.08,3.8,0,.37,0,1.2-1,1.2-.54,0-.6-.31-.6-.71,0-.68.17-3.73.19-4.35,0-2,0-2.84,0-4.65a13.55,13.55,0,0,1-3.92,5.06Zm6.65,4.38c1.45-.71,3.8-2.08,4.3-3l1.49,1.1a.36.36,0,0,1,.18.31c0,.29-.47.27-1,.27a16.47,16.47,0,0,1-4.94,1.43Zm9.21-16.51.52-.83c.1-.17.21-.29.31-.29s.27.14.39.25l1,.83a.44.44,0,0,1,.21.33c0,.19-.17.21-.31.21h-4.4v1.7h1.66l.5-.75c.08-.12.16-.25.31-.25s.25.13.37.23l.85.73a.45.45,0,0,1,.21.33c0,.18-.19.2-.31.2h-3.59v1.87h3.44l.6-.85c.11-.17.23-.27.33-.27s.25.13.38.25l.89.83c.1.1.21.21.21.33s-.17.21-.31.21H534a13.9,13.9,0,0,0-2.45.19l-.41-.83c1.06.08,2.13.14,3.19.14h1.35v-1.87h-.5a13.16,13.16,0,0,0-2.45.21l-.39-.83c.62,0,1.54.13,3.34.13,0-.81,0-1.31,0-1.7h-1.37a14.53,14.53,0,0,0-2.45.18l-.41-.83c1.51.13,2.84.15,3.19.15h1a5.8,5.8,0,0,0-.38-2.22l2.12.64a.32.32,0,0,1,.29.31c0,.27-.48.5-.58.54v.73Zm-.48,6.49.48-.52c.08-.08.21-.21.29-.21s.25.13.33.19l.81.68a.56.56,0,0,1,.23.38c0,.21-.25.37-.6.54a7.23,7.23,0,0,0,0,.76c0,.71.16,3.8.16,4.42a.85.85,0,0,1-.95,1c-.54,0-.54-.27-.52-.71h-4.94c.05.48.07,1-.93,1-.35,0-.54-.1-.54-.47,0,0,0-.21,0-.5,0-.77,0-3,0-3.92a13.3,13.3,0,0,0-.23-3.28l1.64.73Zm-4.73.5V260h4.94v-1.47Zm0,2V262h4.94V260.5Zm0,2V264h4.94v-1.53Zm3.49,2.82c1.86.16,4.5,1.1,4.5,2.34a.84.84,0,0,1-.83.81c-.48,0-1-.52-1.31-.91a10.22,10.22,0,0,0-2.36-2.1Z"/><path d="M549.53,254.79a1.22,1.22,0,0,1-1.2,1.21,1.21,1.21,0,0,1-1.2-1.21,1.2,1.2,0,1,1,2.4,0Zm0,8.17a1.21,1.21,0,0,1-1.2,1.21,1.21,1.21,0,1,1,1.2-1.21Z"/><path d="M562.56,251.62v1.1c-3.3,5.08-4.46,8-4.73,12.59,0,.54-.1,1.84-1.16,1.84a1.09,1.09,0,0,1-1.06-1.14c0-1.47,1.45-5.82,5.83-12.75h-3.55c-3,0-3.46,1.39-3.92,2.72l-.62-.15.85-4.21Z"/><path d="M571.7,260.75a3.46,3.46,0,0,1-1.8.54c-2,0-3.71-2.08-3.71-4.61,0-2.86,2-5.45,4.44-5.45s4.76,2.69,4.76,7.15c0,4.79-2.69,8.77-5.86,8.77-1.39,0-2.37-.83-2.37-1.8a1,1,0,0,1,1.06-1.08c.41,0,1.1.27,1.14,1.43,0,.46.06.75.62.75a2,2,0,0,0,1.52-.73c1.84-2,2-5.1,2-6.94A5.42,5.42,0,0,1,571.7,260.75Zm.69-7.7a2,2,0,0,0-1.68-1.12c-1.1,0-2.66,1.16-2.66,4.56,0,1,.23,3.86,2.37,3.86.79,0,2.11-.58,3.09-2.82A10.16,10.16,0,0,0,572.39,253.05Z"/><path d="M581.6,266a1.21,1.21,0,1,1-1.21-1.2A1.22,1.22,0,0,1,581.6,266Z"/><path d="M593,259.71a3.83,3.83,0,0,1,1.41,3.07c0,2.55-2.09,4.37-4.83,4.37-2.24,0-4.12-1.26-4.12-2.92a1.2,1.2,0,0,1,1.18-1.33,1,1,0,0,1,1,1,1.72,1.72,0,0,1-.12.66,1.56,1.56,0,0,0-.06.48c0,.79.89,1.37,1.86,1.37a3.55,3.55,0,0,0,3.22-3.67,3.62,3.62,0,0,0-3.24-3.8c-.12,0-.7.09-.83.09a.41.41,0,0,1-.45-.44.47.47,0,0,1,.47-.48c.13,0,.75.13.9.13a3,3,0,0,0,2.84-3.24c0-1.61-1-3.11-2.62-3.11a1.31,1.31,0,0,0-1.61,1.7,2.2,2.2,0,0,1,.06.5,1.1,1.1,0,0,1-1.06,1.14,1.08,1.08,0,0,1-1-1.14c0-1.14,1.33-2.9,4-2.9s4.14,1.66,4.14,3.48a3.64,3.64,0,0,1-.76,2.12,4.93,4.93,0,0,1-2.64,1.76A5.5,5.5,0,0,1,593,259.71Z"/><path d="M607.52,262.59a4.62,4.62,0,0,1-4.89,4.56c-2.37,0-4.48-1.37-4.48-3.73s1.78-3.3,3.69-4.42c-1.1-.64-3.09-1.8-3.09-4.06,0-2.05,1.62-3.71,4.15-3.71a3.47,3.47,0,0,1,3.79,3.27c0,1.77-1.7,3.05-2.59,3.72C606.05,259.42,607.52,260.46,607.52,262.59Zm-7.63.77a3,3,0,0,0,3,3.09,3.23,3.23,0,0,0,3.16-3.13c0-2-2.06-3.13-3.57-4C601.53,260,599.89,261.31,599.89,263.36Zm5.29-8.63a2.62,2.62,0,0,0-2.57-2.8,2.39,2.39,0,0,0-2.45,2.47c0,1.45,1.18,2.18,3.34,3.46A3.93,3.93,0,0,0,605.18,254.73Z"/><path d="M614.41,256.56v1.64a4.65,4.65,0,0,1,3.42-1.64,2.3,2.3,0,0,1,2.49,1.86,5.16,5.16,0,0,1,3.71-1.86c1.82,0,2.65,1.1,2.65,3.4v4.89c0,.79.42,1.25,1,1.25h.37v.66h-4.33v-.66h.39c.73,0,1-.56,1-1.25v-4.77c0-.58-.08-2.63-1.81-2.63a3.9,3.9,0,0,0-2.94,1.8,5.05,5.05,0,0,1,0,.71v4.89c0,.87.48,1.25,1,1.25h.6v.66h-4.77v-.66h.6c.58,0,1.06-.4,1.06-1.25v-4.77c0-.43-.06-2.63-1.8-2.63a3.68,3.68,0,0,0-2.8,1.64v5.76c0,.87.47,1.25,1,1.25h.38v.66H611.5v-.66h.38c.62,0,1-.44,1-1.25v-6.24a.85.85,0,0,0-.85-1,1.87,1.87,0,0,0-.62.08l-.1-.4Zm10.72-1.23a11.38,11.38,0,0,1,1.2-1.32,3.71,3.71,0,0,0,1.18-2c0-.27-.16-.77-.64-.77a.7.7,0,0,0-.71.56c0,.08.19.45.19.54a.57.57,0,0,1-.58.54.65.65,0,0,1-.62-.71,1.75,1.75,0,0,1,1.82-1.49,1.41,1.41,0,0,1,1.52,1.41,1.66,1.66,0,0,1-.65,1.35c-.22.22-1.51,1.26-1.72,1.55h1.29c.54,0,.7-.41.81-.7l.33.1-.44,1.43h-3Z"/><path class="cls-2" d="M110.54,165.4a24.3,24.3,0,0,0,6.69-6.42H111.5v-3.16h6.69v-3.19h-6.86V149.5H115a28.66,28.66,0,0,0-1-4.91h-2v-3.12h6.2v-2.85h3.16v2.85h5.7v3.12H125.5a47.73,47.73,0,0,1-1.18,4.91h3.23v3.13h-6.2v3.19h5.44V159H122a17.07,17.07,0,0,0,4,3.91L124.38,166a17.89,17.89,0,0,1-3-3.67v8.62h-3.16v-8.55a25.72,25.72,0,0,1-5.84,6.18ZM117,144.59a40.72,40.72,0,0,1,1,4.91h3.33a40.21,40.21,0,0,0,1-4.91Zm25.15-2.74A26.2,26.2,0,0,1,132,144.42v5.22h10.19v3.3h-3.23v18h-3.43v-18H132v.92c0,9.58-1.81,13.25-4.41,17.07l-3.2-2.3c2.87-3.57,4.32-7.08,4.32-14.66V141.19a23.66,23.66,0,0,0,11.6-2.57Z"/><path class="cls-2" d="M159.62,155.41c-2.28.51-9.46,1.68-11.67,2l-.53-3.15c.3,0,4.68-.48,5.47-.59v-3.43H149v-2.75h.23l-2.07-2.23a16.42,16.42,0,0,0,5-6.69l3.23.61a11.53,11.53,0,0,1-.52,1.45h7.71v2.74h-5c.36.66.62,1.17.89,1.79l-3.23,1.23a17.23,17.23,0,0,0-1.06-3h-.85a19.1,19.1,0,0,1-3.5,4.12h10.09v2.75H156v3.09c2.24-.28,2.94-.41,3.86-.58v2c2.67-1.75,3-3.64,3.13-7.76h11.86v6.38c0,.62.14.76.4.76.73,0,.79,0,.86-.93,0-.27,0-1.61,0-1.92L179,152c-.16,3.64-.26,4.8-2.07,4.8h-3.07c-1,0-2-.65-2-2.33v-4.87h-5.93a9.79,9.79,0,0,1-4.06,7.79h2.84v1.41h13.91v2.95H167.3c1.55,1.27,3.72,3,11.73,5L177.55,170a31.66,31.66,0,0,1-12.92-6.9v7.72h-3.2v-7.76c-3.92,4.05-9.36,6-12.79,6.94l-1.35-3.26a28.26,28.26,0,0,0,11.6-5H147.62v-2.95h13.81v-1.17ZM167,143.32a13.1,13.1,0,0,1-2.34,3.13l-2.8-2a12.64,12.64,0,0,0,3.65-5.73l3.33.51c-.19.59-.29.9-.46,1.38h10.19v2.74H172a10.12,10.12,0,0,1,.86,1.75l-3,1.27c-.26-.68-.92-2.26-1.28-3Zm1.09,6.87a25.17,25.17,0,0,1,3.46,3.57l-2.15,2.09a27.29,27.29,0,0,0-3.36-3.6Z"/><path class="cls-2" d="M188.76,151.25a42.58,42.58,0,0,1-3.4,2.89L183,151a23.67,23.67,0,0,0,9.89-12.49l3.42.92a29,29,0,0,1-7.18,11.4h20.3c0,3.47-.1,12.4-1.35,16.93-.86,3.09-3.1,3.19-4.55,3.19h-5l-.66-3.64h5c1.88,0,2.18-1.72,2.44-3.23a57.1,57.1,0,0,0,.66-9.78h-7.65c-.85,9.27-5.43,13.66-12.26,16.65l-2-3.3c7.15-3.12,9.92-6.24,10.75-13.35h-6Zm24.32,2.61a35,35,0,0,1-10.68-14.31l3.43-1c1.71,4.29,5.24,9.61,9.66,12.36Z"/><path class="cls-2" d="M220,144.46h10.9v3H220Zm.82-5.09h9v3.09h-9Zm0,10.06h9v3.13h-9Zm0,5.12h9v3h-9Zm0,5.25h9v9.79h-6.06V171h-3Zm3,2.95v4h3.09v-4Zm27-.68a39.06,39.06,0,0,1-3.59,3.09,17.6,17.6,0,0,0,4,2.64L249.53,171c-4.22-2.4-7.87-6-9-10.85a15.61,15.61,0,0,1-2.34,2.13v4.6c2.6-.21,3.65-.38,4.91-.55v3.23c-2.48.37-7.65,1-11,1.06l-.56-3.47c1,0,1.81,0,3.56-.07V164.3a26.34,26.34,0,0,1-3.69,1.65l-1.35-3a18.75,18.75,0,0,0,6.85-3.3h-6v-2.57h4.69v-1.75h-3.5V153h3.5v-1.51h-4.06V149h4.06v-1.13h3V149h5v-1.13h3V149h4.28v2.44h-4.28V153h3.62v2.37h-3.62v1.75h4.48v2.57h-7.78a21,21,0,0,0,1.81,3.09,23.67,23.67,0,0,0,3.1-2.84Zm-19.31-16.45a23.88,23.88,0,0,0,6.06-2.06h-6.39v-2.88h8.17v-1.92h3.33v1.92h8.34v2.88h-6.33a22.72,22.72,0,0,0,6.33,2.17l-1.35,2.43a20.6,20.6,0,0,1-7-2.43l1.68-2.17H237.8l2,2.17a30.18,30.18,0,0,1-6.92,2.64Zm7.05,5.84V153h5v-1.51Zm0,3.88v1.75h5v-1.75Z"/><path class="cls-2" d="M259.42,154.41a23.19,23.19,0,0,1-2.27,2.85l-1.48-4.39c1.78-2,4.91-7.38,5.7-14.15l3.43.45a30,30,0,0,1-2,8.55v23.17h-3.37Zm18.33-8.86a30.75,30.75,0,0,0-6.46-4.32l2.11-2.89a46.55,46.55,0,0,1,6.62,4.12l-2,3.09h8.54V149h-8.84v6.49h7.62v3.4h-7.62v7.62h9.59v3.33H264.63v-3.33h9.56v-7.62h-7.65v-3.4h7.65V149h-8.74v-3.4Z"/><path class="cls-2" d="M307.58,156.2l15.65-1.72.27,3.4-15.92,1.75v6.8c0,.65.46.65.69.65h9.06a1,1,0,0,0,1.06-.89,44.32,44.32,0,0,0,.23-4.6l3.59.92c-.13,5.19-.29,8.14-3.59,8.14H307.28c-.86,0-3.16,0-3.16-2.54V160l-11.34,1.27-.23-3.43,11.57-1.28v-4.15c-1.91.24-4.06.38-5.94.52l-1.08-3.51c2.53-.1,12-.44,19.51-3.22l1.71,3.22A46.48,46.48,0,0,1,307.58,152Zm-1.22-17.55h3.43v3h12.82v8.21h-3.43v-4.77H297v4.77h-3.46v-8.21h12.85Z"/><path class="cls-2" d="M334.05,150.53c-1.49.9-2.71,1.48-4,2.13l-1.69-3.47a32.85,32.85,0,0,0,14-10.57h3.7a29.79,29.79,0,0,0,14.23,10.47l-1.84,3.5a27.6,27.6,0,0,1-4-2.06v2.58H346v4.63h10.41v3.09H346v5.56h13.35v3.51H329.07v-3.51h13.38v-5.56H332.1v-3.09h10.35v-4.63h-8.4Zm19.24-.79a42.37,42.37,0,0,1-9.09-8.1,37.55,37.55,0,0,1-8.9,8.1Z"/><path class="cls-2" d="M373.93,158.19c-2.28.38-4.09.89-4.09,5.18v.76h17.31v3.71H365.92v-3c0-4.26.33-9.27,6.66-10.23l6.46-1c2.9-.44,4.31-1.27,4.31-4.63s-1.51-4.77-6.39-4.77c-5.5,0-6.69,1.33-6.72,5.63h-3.89c.06-5.84,1.68-9.34,10.38-9.34,5,0,10.51.65,10.51,8.48,0,3.6-1.08,5.32-2.86,6.52a10.53,10.53,0,0,1-4.19,1.65Z"/><path class="cls-2" d="M392.88,159.32a31.07,31.07,0,0,0,4.75-11.09h-4.25v-3.29h4.35v-6.25h3.16v6.25h3.66v3.29h-3.66v1.2a18.88,18.88,0,0,0,4.05,6.42L403.26,159a21.15,21.15,0,0,1-2.37-4.29v16.17h-3.16v-15.1c-1.42,5.08-2.74,6.86-3.63,8.1Zm9.79,7.25A22.68,22.68,0,0,0,411,159h-5.67V146.62h7.42v-2h-8.24V141.3h8.24v-2.61h3.1v2.61h8.5v3.36h-8.5v2h7.45V159H417.9a24.58,24.58,0,0,0,7,7.25L423,169.31a23.42,23.42,0,0,1-7.12-8.51v10.09h-3.1v-9.65a24.36,24.36,0,0,1-8.24,8.42Zm5.77-17.24v2.27h4.35v-2.27Zm0,4.7v2.24h4.35V154Zm7.45-4.7v2.27h4.45v-2.27Zm0,4.7v2.24h4.45V154Z"/><path class="cls-2" d="M458.64,140.78v27.06h-4V144.49h-5v-3.71Z"/><path class="cls-2" d="M479.3,161.79c-.33.62-.66,1.17-1.28,2.13l-3.43-1.37a45.11,45.11,0,0,0,3.76-7.25h-6V152h30.91v3.26H482.14c-.27.69-1.09,2.72-1.35,3.27h19.47c-.19,2.64-.65,8-1.71,10a4.09,4.09,0,0,1-3.82,2.37h-5.8l-.76-3.61h5.93c1.19,0,2.08-.62,2.44-5.53Zm21.2-22v9.78H475.31v-9.78Zm-21.89,3.12v3.57H497.2v-3.57Z"/><path class="cls-2" d="M507.65,159.32a31.07,31.07,0,0,0,4.75-11.09h-4.26v-3.29h4.35v-6.25h3.17v6.25h3.66v3.29h-3.66v1.2a18.73,18.73,0,0,0,4.05,6.42L518,159a21.15,21.15,0,0,1-2.37-4.29v16.17h-3.17v-15.1c-1.41,5.08-2.73,6.86-3.62,8.1Zm9.79,7.25a22.78,22.78,0,0,0,8.37-7.56h-5.67V146.62h7.42v-2h-8.24V141.3h8.24v-2.61h3.09v2.61h8.51v3.36h-8.51v2h7.45V159h-5.43a24.58,24.58,0,0,0,7,7.25l-1.92,3.05a23.62,23.62,0,0,1-7.12-8.51v10.09h-3.09v-9.65a24.36,24.36,0,0,1-8.24,8.42Zm5.77-17.24v2.27h4.35v-2.27Zm0,4.7v2.24h4.35V154Zm7.44-4.7v2.27h4.45v-2.27Zm0,4.7v2.24h4.45V154Z"/></g></svg>