<svg xmlns="http://www.w3.org/2000/svg" width="650" height="211" viewBox="0 0 650 211"><defs><style>.cls-1{fill:#00ae22;}.cls-2{fill:#fff;}</style></defs><title>joho_matome</title><g id="レイヤー_3" data-name="レイヤー 3"><path class="cls-1" d="M123.22,85.26h22.34v3.86h-7.42v1.95h6.59v17H141v-1.06H127.77v1.06h-3.72v-17h5.7V89.12h-6.53Zm4.55,14.79v3.24H141v-2a2,2,0,0,1-1.27.47h-3.28a1.74,1.74,0,0,1-1.7-1.88V94.78h-1.67a11,11,0,0,1-3.2,7.84Zm0-5.27v4.55a6.91,6.91,0,0,0,2-4.55Zm5.37-5.66v1.95h1.6V89.12ZM141,96.51V94.78h-2.85v2.85c0,.49,0,.74.4.74.75,0,.89,0,1-2.15Z"/><path class="cls-1" d="M159.11,106.18v.28c-2.59.66-8,1.41-9.26,1.56l-.32-3.84c1-.07,1.93-.15,3.58-.35V98h-3.4V94.58h3.4v-1h-1.82v-1a7,7,0,0,1-1.22.89l-1-4.08a12.41,12.41,0,0,0,4.1-4.72H157a9.87,9.87,0,0,0,2.89,3.48,16,16,0,0,0,.12-2.77l3.37.37c0,.72,0,1.41-.16,2.87h.89V84.62h3.51v3.95h3.91v3.69h-3.91v1.66a5.5,5.5,0,0,1,0,.79h4.39v3.83h-3.82a13,13,0,0,0,4.29,5.91l-2.24,3.71a13.72,13.72,0,0,1-4.17-6.53,13.65,13.65,0,0,1-5.49,6.63Zm-7.3-7.64a28,28,0,0,1,.82,4.21l-2.59.79a20.64,20.64,0,0,0-.61-4.26Zm4.95-8.48a13.35,13.35,0,0,1-1.58-2.23,14.48,14.48,0,0,1-1.56,2.23Zm2.68,8.48V94.71H164c0-.27,0-.37,0-.57V92.26h-1.48a15.86,15.86,0,0,1-.66,2.1l-3.16-1.51a21.48,21.48,0,0,0,1.08-4.7l-1.74,3.07v2.33h-1.79v1h2.45V98h-2.45v5.42c1.37-.2,2-.32,2.78-.45l0,1.34a9.89,9.89,0,0,0,4.22-5.74Zm.36.52a30.34,30.34,0,0,1-1,3.59l-2.26-.55a17.63,17.63,0,0,0,.8-3.58Z"/><path class="cls-1" d="M176.08,103.74c1.11-1.56,4.06-5.59,4.48-17.57l4.08.57c-.8,11.73-2.59,16.75-5.12,20.28ZM191.94,86.3a28.13,28.13,0,0,1,.8,3.61l.5-.12c.91,6.08,1.83,9.62,4.9,13.9l-3.8,3.14c-2.89-4.5-4.71-10.09-5.39-20.09Zm1.46,2.87a27.44,27.44,0,0,0-1.06-4l1.86-.47a20.13,20.13,0,0,1,1.23,3.88Zm3.13-.32a31.79,31.79,0,0,0-1.2-4l2-.37a18.27,18.27,0,0,1,1.2,3.89Z"/><path class="cls-1" d="M202.79,103.71a22.9,22.9,0,0,0,12.6-13.11H204.22V86.5h16.66a25.7,25.7,0,0,1-4.12,10.71,55,55,0,0,1,7.58,6.75l-3.51,3.58a80.26,80.26,0,0,0-6.62-7.09c-4.52,4.87-7.47,6.18-9.12,6.9Z"/><path class="cls-1" d="M248.86,82.1h-7.25v26.37h-5.39v-32h12.64Z"/><path class="cls-1" d="M262,97.58a34.47,34.47,0,0,1-3.62,10.65l-4.67-3.94a25.13,25.13,0,0,0,3.56-8.7Zm4.87-4.48H255.8V87.51H267V85H254.36V79.4H267V76.49h5.68V79.4h12.66V85H272.71v2.53H283.9V93.1H270.49a23.48,23.48,0,0,1,4.34,3.42l-3.53,4.28a27,27,0,0,0-3.59-3.19v4.73c0,.65,0,1,.82,1h3.72c.68,0,1-.27,1.21-2.84l5.22.82a37,37,0,0,0-1.83-4L281.62,95a39.36,39.36,0,0,1,4.47,10.13l-5.29,2.81a45.5,45.5,0,0,0-2.09-6.54c-.55,7.36-2.45,7.36-4.18,7.36H265a2.57,2.57,0,0,1-2.48-2.74V97.34h4.79c-1.37-1-2-1.37-2.58-1.71Z"/><path class="cls-1" d="M292.35,89.23c-.23.1-.36.13-.89.34L290.16,83c5.87-2.09,7.7-4.89,8.84-6.84l7.09.24-.69,1.37h10.67v5.3A14.42,14.42,0,0,1,314.31,85h6.3V98.57h-7.83v3.36c0,.85.13,1,.88,1h1.86c.75,0,.78-.35.91-3.39l5.72,1c-.46,7.57-2,8.22-5,8.22H311c-2.29,0-3.75-1.1-3.75-3.56V98.57h-2.78c-1.4,6.85-4.93,9.42-11.62,10.89l-2.64-6c6.2-.69,7.57-3.46,8.29-4.87h-6.1Zm5.38,1.13V93.3h6.07V90.36Zm9.6-5.38a10.78,10.78,0,0,0,1.33-1.92h-7.37c-.92.93-1.54,1.47-2.06,1.92Zm1.82,5.38V93.3h6.14V90.36Z"/><path class="cls-1" d="M340.06,109.05H327.42V103.4h7.25V77h5.39Z"/><path class="cls-1" d="M354.61,94.64c-.49.58-.69.78-1.21,1.37l-1.24-8.22a23.47,23.47,0,0,0,4.08-11.51l5.19.48c0,.21-.17,1.17-.2,1.41h8.13V76.45h5.19v1.72h9v4.14H361.07v-3A51.9,51.9,0,0,1,359.7,85v24.07h-5.09ZM381.34,99v2.74H375v3.83c0,3.26-1.83,3.46-3.6,3.46h-6.07l-.75-4.72H369c.68,0,.81-.35.81-.89v-1.68h-7V99h-2V92.38H383.2V99Zm.32-15.65v7.84H362.24V83.37ZM378.3,96.24H365.61v1.37H378.3Zm-10.83-9.68v1.5h8.87v-1.5Z"/><path class="cls-1" d="M388.77,81.49a14.09,14.09,0,0,0,4.83-5.31l5.06,1.54a29.58,29.58,0,0,1-7.77,9.59Zm8,24.21V109h-5.16V97.61c-.58.55-.91.83-1.5,1.34l-1.34-7.19a26.28,26.28,0,0,0,6.53-7.6l4,2.63H407V84.43h-7.21v-5.2H407V76.39h5.29v2.84h7.21v5.2h-7.21v2.36h8V92h-8v2.33H419v5.2h-6.76V103c.65,0,1.8.1,3.53.1,2.09,0,3.49-.07,4.86-.14l-1.08,5.41c-10.31.11-13.12-.17-16.55-4.21a17.46,17.46,0,0,1-3.23,5.2Zm8.45-12a39.49,39.49,0,0,1-.65,5,7.46,7.46,0,0,0,2.38,2.61V92h-7.93V88.16a25.72,25.72,0,0,1-2.25,3.6V104.5c1.21-1.37,3.13-4.08,3.62-11.2Z"/><path class="cls-1" d="M426.92,103.61c2.09,0,10.8-.07,15.4-2.43a3.15,3.15,0,0,1-1,.13h-6.26l-.85-4.62a21,21,0,0,1-5.16,4.11l-3.43-4.52a21.1,21.1,0,0,0,6.86-5.44H426V85.66h4.41V78h5.35v7.7H439v-9.1h5.32v2.15h10.11v5H444.35v1.91h12.5v5.18h-6.11a31.72,31.72,0,0,0,6.69,5.61L454,100.9a33.6,33.6,0,0,1-7.9-7.67l3.46-2.39h-5.22V98a3.2,3.2,0,0,1-.79,2.39,15.3,15.3,0,0,0,4.12-4.14l3.85,3.77c-2.42,3.21-7.25,8.8-22.85,9.21Zm10.21-10.38a15,15,0,0,1-2.54,3.08h3.46c1,0,1-.92,1-1.23V90.84h-5.55Z"/><path class="cls-1" d="M472,96.76c-1.7.2-2.74.51-2.74,2.53v.86h17.26v5.61h-23.1v-5.37c0-2.6,0-8.22,6.36-9l8.36-1c1.89-.24,2.77-.59,2.77-2.88s-.72-3.36-5.55-3.36c-5.45,0-5.64.72-5.71,4.08h-5.74c0-5.75.29-9.69,11-9.69,6.78,0,11.81.48,11.81,8.63,0,3.49-.85,5.27-2,6.33a8.1,8.1,0,0,1-4.8,2.26Z"/><path class="cls-1" d="M497.86,91.21c-.79.72-1.28,1.13-2,1.75l-3.53-5.27a21.17,21.17,0,0,0,9-11.41l5.35,1.06a32,32,0,0,1-5.51,10.31h14.52a42,42,0,0,1-5.45-10.13l5.35-1.31c1.73,4.08,4.31,8.6,9,11.82L521,93a22.87,22.87,0,0,1-1.8-1.47c-.23,5.82-.46,12.15-1.53,14.79a3.84,3.84,0,0,1-4.15,2.81h-6.1l-1.08-5.69h4.83a1.62,1.62,0,0,0,1.47-.79c.26-.54.78-3.63,1-9.51H508c-1,8.59-5.48,13-12.17,16.09l-3.17-5.45c8.55-3,9.56-7.8,9.79-10.64h-4.63Z"/><rect class="cls-1" x="56.71" y="127.29" width="536.57" height="53.21" rx="23.62"/><path class="cls-1" d="M242.57,50.09a31.5,31.5,0,0,1-3.76,10.61L235,58.09a24.47,24.47,0,0,0,3.76-9.2Zm6.12-4.56H237V41.34h11.73V37.18H235.41V33h13.35V29.42H253V33h13.31v4.19H253v4.16h11.66v4.19H249.29a35.44,35.44,0,0,1,6.16,4.6l-2.73,3.33a32.64,32.64,0,0,0-6.4-5.19ZM243.92,50h4v6.29c0,.82.1,1,.76,1h5.47c.89,0,1.19-.24,1.52-3.81l4.09.89c-.66,6.18-1.78,6.9-4.26,6.9h-9a2.43,2.43,0,0,1-2.57-2.51Zm18.16-1.85A40.72,40.72,0,0,1,267,58.37l-4.09,2A43.67,43.67,0,0,0,258.42,50Z"/><path class="cls-1" d="M273.71,41c-.29.14-.46.21-1.22.51L271,37.15c6.69-2.37,9-6,10-8l5.11.28a14.91,14.91,0,0,1-1.06,1.89H296v3.81a22.56,22.56,0,0,1-2.7,3H301V50.3h-8.11v5.87c0,.58.13,1,.82,1h3.69a.92.92,0,0,0,1-.82,24.06,24.06,0,0,0,.33-3.64l4.35.93c-.56,7.07-1.51,7.72-4.41,7.72H292c-2.94,0-3.2-2.09-3.2-3v-8h-4.16c-1.28,8.14-5.83,10.57-11.43,11.81l-2-4.26c6.26-.93,8.07-3.47,9.22-7.55h-6.69Zm4,1v4.56h7.58V42ZM288,38.14a21.09,21.09,0,0,0,2.57-3h-8.54a27,27,0,0,1-3.49,3ZM289.17,42v4.56H297V42Z"/><path class="cls-1" d="M308.65,30.69h16.51V57.44H312.44v2.78h-3.79Zm3.79,4v7.21h2.77V34.68Zm0,11v7.83h2.77V45.63Zm6.2-11v7.21h2.93V34.68Zm0,11v7.83h2.93V45.63ZM332,37.15h-6.23v-4.4h13.22v4.4h-2.87V58.92a2.62,2.62,0,0,1-2.8,2.88h-6.82l-.69-4.33H331c.92,0,.92-.62.92-1Z"/><path class="cls-1" d="M351.33,50.09a31.17,31.17,0,0,1-3.75,10.61l-3.83-2.61a24.47,24.47,0,0,0,3.76-9.2Zm6.14-4.56H345.8V41.34h11.73V37.18H344.18V33h13.35V29.42h4.19V33H375v4.19H361.72v4.16h11.66v4.19H358.06a35.44,35.44,0,0,1,6.16,4.6l-2.73,3.33a32.64,32.64,0,0,0-6.4-5.19ZM352.69,50h4v6.29c0,.82.1,1,.76,1h5.47c.89,0,1.19-.24,1.52-3.81l4.09.89c-.66,6.18-1.78,6.9-4.26,6.9h-9a2.43,2.43,0,0,1-2.57-2.51Zm18.16-1.85a40.72,40.72,0,0,1,4.94,10.2l-4.09,2A43.67,43.67,0,0,0,367.19,50Z"/><path class="cls-1" d="M382.48,41c-.29.14-.46.21-1.22.51l-1.51-4.32c6.69-2.37,9-6,10.05-8l5.11.28a14.91,14.91,0,0,1-1.06,1.89h10.88v3.81a22.56,22.56,0,0,1-2.7,3h7.78V50.3H401.7v5.87c0,.58.13,1,.82,1h3.69a.92.92,0,0,0,1-.82,24.06,24.06,0,0,0,.33-3.64l4.35.93c-.56,7.07-1.51,7.72-4.41,7.72h-6.69c-2.94,0-3.2-2.09-3.2-3v-8h-4.15c-1.29,8.14-5.84,10.57-11.44,11.81l-2.05-4.26c6.27-.93,8.08-3.47,9.23-7.55h-6.69Zm4,1v4.56h7.58V42Zm10.32-3.82a21.09,21.09,0,0,0,2.57-3h-8.54a27,27,0,0,1-3.49,3ZM397.94,42v4.56h7.84V42Z"/><path class="cls-2" d="M166.61,165.4A24.3,24.3,0,0,0,173.3,159h-5.74v-3.16h6.69v-3.19H167.4V149.5h3.66a30.88,30.88,0,0,0-1-4.91h-2v-3.12h6.19v-2.85h3.17v2.85h5.7v3.12h-1.55a46.8,46.8,0,0,1-1.19,4.91h3.23v3.13h-6.19v3.19h5.43V159H178a17.15,17.15,0,0,0,4.06,3.91L180.45,166a17.57,17.57,0,0,1-3-3.67v8.62h-3.17v-8.55a25.75,25.75,0,0,1-5.83,6.18Zm6.46-20.81a42.84,42.84,0,0,1,1,4.91h3.33a44.37,44.37,0,0,0,1-4.91Zm25.14-2.74A26.15,26.15,0,0,1,188,144.42v5.22h10.18v3.3H195v18h-3.42v-18H188v.92c0,9.58-1.81,13.25-4.42,17.07l-3.19-2.31c2.86-3.57,4.31-7.07,4.31-14.65V141.19a23.66,23.66,0,0,0,11.6-2.57Z"/><path class="cls-2" d="M215.68,155.41c-2.27.51-9.46,1.68-11.66,2l-.53-3.15c.3,0,4.68-.48,5.47-.59v-3.43H205v-2.75h.23l-2.08-2.23a16.51,16.51,0,0,0,5-6.69l3.23.61a12.16,12.16,0,0,1-.53,1.45h7.71v2.74h-5a15.65,15.65,0,0,1,.89,1.79l-3.23,1.23a17.18,17.18,0,0,0-1-3h-.86a19.25,19.25,0,0,1-3.49,4.12h10.08v2.75h-3.85v3.09c2.24-.28,2.93-.41,3.85-.59v2c2.67-1.75,3-3.64,3.14-7.76h11.86v6.38c0,.62.13.76.4.76.72,0,.79,0,.85-.93,0-.27,0-1.61,0-1.92L235,152c-.16,3.64-.26,4.8-2.08,4.8h-3.06c-1.06,0-2-.65-2-2.33V149.6h-5.94a9.75,9.75,0,0,1-4,7.8h2.83v1.41H234.6v2.95H223.36c1.55,1.27,3.73,3,11.74,5L233.61,170a31.84,31.84,0,0,1-12.92-6.9v7.72H217.5v-7.76c-3.93,4.05-9.36,6-12.79,6.94l-1.35-3.26a28.32,28.32,0,0,0,11.6-5H203.69v-2.95H217.5v-1.17ZM223,143.32a12.83,12.83,0,0,1-2.34,3.13l-2.8-2a12.75,12.75,0,0,0,3.66-5.73l3.33.51-.46,1.38H234.6v2.74h-6.52a9.73,9.73,0,0,1,.85,1.75l-3,1.27c-.27-.68-.93-2.26-1.29-3Zm1.09,6.87a24.1,24.1,0,0,1,3.46,3.57l-2.14,2.09a28.77,28.77,0,0,0-3.36-3.6Z"/><path class="cls-2" d="M244.82,151.25c-1.55,1.44-2.5,2.2-3.39,2.89L239.05,151a23.62,23.62,0,0,0,9.89-12.49l3.43.92a29,29,0,0,1-7.19,11.4h20.31c0,3.47-.1,12.39-1.35,16.93-.86,3.09-3.1,3.19-4.55,3.19h-5l-.65-3.64h5c1.88,0,2.17-1.72,2.44-3.23a57.1,57.1,0,0,0,.66-9.78h-7.65c-.86,9.27-5.44,13.66-12.26,16.65l-2-3.3c7.15-3.12,9.92-6.24,10.74-13.35h-6Zm24.33,2.61a34.89,34.89,0,0,1-10.68-14.31l3.42-1c1.72,4.29,5.24,9.61,9.66,12.36Z"/><path class="cls-2" d="M276.1,144.45H287v3.06H276.1Zm.82-5.08h9v3.09h-9Zm0,10.06h9v3.13h-9Zm0,5.12h9v3h-9Zm0,5.25h9v9.79h-6.07V171h-3Zm3,2.95v4H283v-4Zm27-.68a39.92,39.92,0,0,1-3.6,3.09,18,18,0,0,0,4,2.64L305.6,171c-4.22-2.41-7.88-6-9-10.85a15.07,15.07,0,0,1-2.34,2.13v4.6c2.6-.21,3.66-.38,4.91-.55v3.23c-2.47.37-7.64,1-11,1.06l-.56-3.47c1,0,1.81,0,3.56-.07V164.3a26,26,0,0,1-3.7,1.65l-1.35-3a18.7,18.7,0,0,0,6.86-3.3h-6v-2.57h4.68v-1.75H288.2V153h3.49v-1.51h-4.05V149h4.05v-1.13h3V149h5v-1.13h3V149h4.29v2.44h-4.29V153h3.63v2.37h-3.63v1.75h4.48v2.57h-7.77a20.13,20.13,0,0,0,1.81,3.09,24.41,24.41,0,0,0,3.1-2.85ZM287.6,145.62a24.34,24.34,0,0,0,6.07-2.06h-6.4v-2.88h8.18v-1.92h3.33v1.92h8.33v2.88h-6.32a22.64,22.64,0,0,0,6.32,2.17l-1.35,2.43a20.5,20.5,0,0,1-7-2.43l1.68-2.17h-6.59l2,2.17a30.18,30.18,0,0,1-6.92,2.64Zm7.06,5.84V153h5v-1.51Zm0,3.88v1.75h5v-1.75Z"/><path class="cls-2" d="M315.49,154.41a24,24,0,0,1-2.28,2.85l-1.48-4.39c1.78-2,4.91-7.39,5.7-14.15l3.43.45a29.67,29.67,0,0,1-2,8.55v23.17h-3.36Zm18.32-8.86a30.49,30.49,0,0,0-6.46-4.32l2.11-2.89a46.63,46.63,0,0,1,6.63,4.12l-2,3.09h8.54V149h-8.83v6.49h7.61v3.4h-7.61v7.62h9.59v3.33H320.7v-3.33h9.55v-7.62h-7.64v-3.4h7.64V149h-8.73v-3.4Z"/><path class="cls-2" d="M363.64,156.2l15.66-1.72.26,3.4-15.92,1.75v6.8c0,.65.47.65.7.65h9.06a1,1,0,0,0,1.05-.89,41.41,41.41,0,0,0,.24-4.6l3.59.92c-.13,5.19-.3,8.14-3.59,8.14H363.35c-.86,0-3.17,0-3.17-2.54V160l-11.33,1.27-.24-3.43,11.57-1.28v-4.15c-1.91.24-4.05.38-5.93.52l-1.09-3.51c2.54-.1,12-.44,19.51-3.22l1.72,3.22A46.44,46.44,0,0,1,363.64,152Zm-1.22-17.55h3.43v3h12.82v8.21h-3.43v-4.77H353v4.77h-3.46v-8.21h12.85Z"/><path class="cls-2" d="M390.11,150.53c-1.48.89-2.7,1.48-4,2.13l-1.68-3.47a33,33,0,0,0,14-10.57h3.69a29.87,29.87,0,0,0,14.24,10.47l-1.85,3.5a27.1,27.1,0,0,1-3.95-2.06v2.58H402v4.63h10.42v3.09H402v5.56h13.35v3.51H385.14v-3.51h13.38v-5.56H388.17v-3.09h10.35v-4.63h-8.41Zm19.25-.79a42.16,42.16,0,0,1-9.1-8.1,37.55,37.55,0,0,1-8.9,8.1Z"/><path class="cls-2" d="M430,158.19c-2.27.38-4.08.89-4.08,5.18v.76h17.3v3.71H422v-3c0-4.26.34-9.27,6.66-10.23l6.46-1c2.9-.44,4.32-1.27,4.32-4.63s-1.52-4.78-6.39-4.78c-5.51,0-6.69,1.34-6.73,5.64h-3.89c.07-5.84,1.68-9.34,10.39-9.34,5,0,10.51.65,10.51,8.48,0,3.6-1.09,5.32-2.87,6.52a10.48,10.48,0,0,1-4.18,1.65Z"/><path class="cls-2" d="M449,159.32a30.93,30.93,0,0,0,4.74-11.09h-4.25v-3.29h4.35v-6.25H457v6.25h3.65v3.29H457v1.2a18.73,18.73,0,0,0,4.05,6.42L459.33,159a20.66,20.66,0,0,1-2.37-4.29v16.17h-3.17V155.78c-1.42,5.09-2.73,6.87-3.62,8.11Zm9.78,7.24a22.68,22.68,0,0,0,8.38-7.55h-5.67V146.62h7.41v-2h-8.24V141.3h8.24v-2.61H472v2.61h8.5v3.36H472v2h7.45V159H474a24.87,24.87,0,0,0,7,7.25l-1.91,3.05A23.52,23.52,0,0,1,472,160.8v10.09h-3.1v-9.65a24.22,24.22,0,0,1-8.24,8.41Zm5.77-17.23v2.27h4.35v-2.27Zm0,4.7v2.24h4.35V154Zm7.45-4.7v2.27h4.45v-2.27Zm0,4.7v2.24h4.45V154Z"/></g></svg>