<svg xmlns="http://www.w3.org/2000/svg" width="650" height="295" viewBox="0 0 650 295"><defs><style>.cls-1{fill:#00ae22;}.cls-2{fill:#fff;}</style></defs><title>joho_matome</title><g id="レイヤー_3" data-name="レイヤー 3"><path class="cls-1" d="M112.71,85.26H135v3.86h-7.42v1.95h6.6v17h-3.75v-1.06H117.26v1.06h-3.73v-17h5.71V89.12h-6.53Zm4.55,14.79v3.24h13.21v-2a2,2,0,0,1-1.27.47h-3.27a1.74,1.74,0,0,1-1.7-1.88V94.78h-1.67a11,11,0,0,1-3.21,7.84Zm0-5.27v4.55a7,7,0,0,0,2-4.55Zm5.37-5.66v1.95h1.6V89.12Zm7.84,7.39V94.78h-2.85v2.85c0,.49,0,.74.4.74.76,0,.9,0,1-2.15Z"/><path class="cls-1" d="M147.66,106.19v.27c-2.59.66-8,1.41-9.26,1.56l-.33-3.84c1-.07,1.93-.15,3.58-.35V98h-3.39V94.58h3.39v-1h-1.82v-1a6.15,6.15,0,0,1-1.22.89l-1-4.08a12.33,12.33,0,0,0,4.1-4.72h3.75a9.79,9.79,0,0,0,2.9,3.48,15.63,15.63,0,0,0,.11-2.77l3.37.37c0,.72,0,1.41-.16,2.87h.89V84.62h3.51v3.95H160v3.69h-3.92v1.66c0,.32,0,.59,0,.79h4.38v3.83h-3.82a13,13,0,0,0,4.29,5.91l-2.24,3.71a13.8,13.8,0,0,1-4.17-6.53,13.6,13.6,0,0,1-5.49,6.63Zm-7.31-7.65a27,27,0,0,1,.83,4.21l-2.59.79a21.48,21.48,0,0,0-.62-4.26Zm5-8.48a13.35,13.35,0,0,1-1.58-2.23,15,15,0,0,1-1.55,2.23ZM148,98.54V94.71h4.59c0-.27,0-.37,0-.57V92.26h-1.48a15.86,15.86,0,0,1-.66,2.1l-3.16-1.51a21.57,21.57,0,0,0,1.09-4.7l-1.75,3.07v2.33h-1.79v1h2.45V98h-2.45v5.42c1.37-.2,2-.32,2.78-.45l0,1.34a9.81,9.81,0,0,0,4.21-5.74Zm.35.52a28.46,28.46,0,0,1-1,3.59l-2.26-.55a17.63,17.63,0,0,0,.8-3.58Z"/><path class="cls-1" d="M163.69,103.74c1.1-1.56,4.05-5.59,4.47-17.57l4.08.57c-.8,11.73-2.59,16.75-5.12,20.29ZM179.54,86.3a28.51,28.51,0,0,1,.8,3.61l.5-.12c.92,6.08,1.83,9.62,4.9,13.9l-3.8,3.14c-2.89-4.5-4.71-10.09-5.39-20.09ZM181,89.17a27.44,27.44,0,0,0-1.06-4l1.86-.47A20.13,20.13,0,0,1,183,88.57Zm3.13-.32a31.79,31.79,0,0,0-1.2-4l2-.37a18.27,18.27,0,0,1,1.2,3.89Z"/><path class="cls-1" d="M189.44,103.71A22.91,22.91,0,0,0,202.05,90.6H190.88V86.5h16.66a25.72,25.72,0,0,1-4.13,10.71A55.32,55.32,0,0,1,211,104l-3.51,3.59a79.22,79.22,0,0,0-6.62-7.1c-4.52,4.87-7.47,6.18-9.12,6.9Z"/><path class="cls-1" d="M234.57,82.1h-7.25v26.37h-5.38v-32h12.63Z"/><path class="cls-1" d="M256.46,76.45v8.39h11.78v5.93H256.46v11.47h13.32V108h-31v-5.75h11.75V76.45Z"/><path class="cls-1" d="M274.08,103.54c.88,0,2.48-.14,3.62-.17V97.2h-3.62V92.41h3.62v-15h24.87V82H283.22v1.13h18.24v3.42H283.22v1.2h18.24v3.52H283.22v1.1h21.67V97.2h-4.41L303.81,99a45.84,45.84,0,0,1-4.08,3.32,25.45,25.45,0,0,0,5.75,1.2l-2.55,5.61a30.93,30.93,0,0,1-11.75-5.54v3.59c-5.45.86-10.9,1.3-16.38,1.68Zm9.14-6.34V103c1.47-.1,3.56-.3,6.62-.61a17.43,17.43,0,0,1-3.68-5.21Zm8.78,0a12,12,0,0,0,2.81,2.71c.65-.51,2.08-1.71,3.13-2.71Z"/><path class="cls-1" d="M328.71,93l10.12-.55v3.77l-10.12.58V98l11.42-.58.13,4.24-3.75.21,3.62,1.16a18,18,0,0,1-.68,3.6,3.35,3.35,0,0,1-3,2.08h-9.72c-2.16,0-3.14-1.19-3.14-2.84v-3.22l-6.62.41-.23-4.45,6.85-.34V97.07l-6,.34-.13-3.8,6.17-.34v-1.2l-5.55.41-.88-4.18a138.32,138.32,0,0,0,18.61-1.57h-19.1v6.19c0,7-1,12.37-3.46,16.3l-4.44-4.45c.88-1.54,2.65-4.62,2.65-11.81V77.38h28v9.35H336.9l1.83,3.66c-2.48.45-5.09.79-10,1.3ZM334,81.76H316.63V83.2H334Zm-.1,22c1,0,1-.47,1.21-1.81l-6.4.38c0,1.26,0,1.43.85,1.43Z"/><path class="cls-1" d="M357.1,109.05H344.46V103.4h7.25V77h5.39Z"/><path class="cls-1" d="M370.34,94.64c-.49.58-.68.78-1.21,1.37l-1.24-8.22c3.1-4.14,3.82-9.08,4.08-11.51l5.19.48c0,.21-.16,1.17-.19,1.41h8.13V76.45h5.18v1.72h9.05v4.14H376.81v-3A52.81,52.81,0,0,1,375.43,85v24.07h-5.09ZM397.07,99v2.74h-6.33v3.83c0,3.26-1.83,3.46-3.59,3.46h-6.07l-.75-4.72h4.37c.69,0,.82-.35.82-.89v-1.68h-7V99h-2V92.38h22.42V99Zm.33-15.65v7.84H378V83.37ZM394,96.25h-12.7v1.37H394ZM383.2,86.56v1.5h8.88v-1.5Z"/><path class="cls-1" d="M403.2,81.49A14.09,14.09,0,0,0,408,76.18l5.06,1.54a29.48,29.48,0,0,1-7.77,9.59Zm8,24.21V109h-5.16V97.62c-.58.54-.91.82-1.5,1.33l-1.34-7.19a26.28,26.28,0,0,0,6.53-7.6l4,2.63h7.63V84.43H414.2v-5.2h7.21V76.39h5.29v2.84h7.21v5.2H426.7v2.36h8V92h-8v2.33h6.76v5.2H426.7V103c.65,0,1.8.1,3.53.1,2.09,0,3.49-.07,4.86-.14L434,108.33c-10.31.11-13.12-.17-16.55-4.21a17.56,17.56,0,0,1-3.23,5.21Zm8.45-12a38,38,0,0,1-.65,5,7.55,7.55,0,0,0,2.38,2.6V92h-7.93V88.16a25.72,25.72,0,0,1-2.25,3.6V104.5c1.21-1.37,3.13-4.08,3.62-11.2Z"/><path class="cls-1" d="M440,103.61c2.09,0,10.81-.07,15.41-2.43a3.21,3.21,0,0,1-1,.13H448.2l-.85-4.62a21,21,0,0,1-5.15,4.11l-3.43-4.52a21,21,0,0,0,6.85-5.44H439.1V85.67h4.4V78h5.36v7.71h3.29V76.56h5.32v2.15h10.12v5H457.47v1.92H470v5.17h-6.1a31.45,31.45,0,0,0,6.69,5.61l-3.43,4.45a33.6,33.6,0,0,1-7.9-7.67l3.46-2.39h-5.22V98a3.23,3.23,0,0,1-.78,2.39,15.23,15.23,0,0,0,4.11-4.14l3.85,3.77c-2.41,3.22-7.24,8.8-22.84,9.21Zm10.22-10.38a15.16,15.16,0,0,1-2.55,3.08h3.46c1,0,1-.92,1-1.23V90.84H446.6Z"/><path class="cls-1" d="M495.16,78.78V95.12h3.92v5.61h-3.92v5h-5.84v-5H474.4v-6l12.57-16Zm-5.84,4.83-8.91,11.51h8.91Z"/><path class="cls-1" d="M508.37,91.21c-.78.72-1.27,1.13-2,1.75l-3.52-5.27a21.18,21.18,0,0,0,9-11.41l5.36,1.06a32.33,32.33,0,0,1-5.52,10.31h14.53a42,42,0,0,1-5.45-10.13l5.35-1.31c1.73,4.08,4.31,8.6,9,11.82L531.48,93a22.66,22.66,0,0,1-1.79-1.47c-.23,5.82-.46,12.15-1.54,14.79a3.84,3.84,0,0,1-4.14,2.81H517.9l-1.07-5.69h4.83a1.64,1.64,0,0,0,1.47-.79c.26-.54.78-3.63,1-9.51h-5.54c-1,8.59-5.49,13-12.18,16.09l-3.16-5.45c8.55-3,9.56-7.8,9.79-10.64h-4.64Z"/><rect class="cls-1" x="56.71" y="127.29" width="536.57" height="53.21" rx="23.62"/><path class="cls-1" d="M247.48,42.2h-6.27V61.73h-4V38.49h11.57V35.91H235.31V31.83h13.45V29.46h4.15v2.37h13.45v4.08H252.91v2.58h11.61v20c0,2.58-1.75,3.23-2.84,3.23h-5.4l-.73-3.95h4.22c.56,0,.76-.27.76-.68V42.2H254l3,.68c-.2.76-.63,2.2-1.09,3.4H259v3.33h-6.39V52H259v3.3h-6.39v6h-3.89v-6h-6V52h6V49.61h-6V46.28h2.67a20.39,20.39,0,0,0-1-3.16Zm4.64,4.08a27.24,27.24,0,0,0,1.12-4.08H248.1a16,16,0,0,1,1.16,4.08Z"/><path class="cls-1" d="M272.59,30.56h29.2v4.08h-25v21.8h25.74v4.09H276.78v1.3h-4.19Zm5.08,21.56a36.6,36.6,0,0,0,9.29-6.8,68.56,68.56,0,0,0-7.84-4.15l2.17-3.4a81.65,81.65,0,0,1,8.34,4.43,34,34,0,0,0,4.06-7l4.15,1.65a47.33,47.33,0,0,1-4.71,7.65,77,77,0,0,1,7.74,6.18L298,54.38a67.73,67.73,0,0,0-7.61-6.69,52.49,52.49,0,0,1-10.09,7.86Z"/><path class="cls-1" d="M338.78,34.51H328v4.22h9.59V61.59h-4V60.12H313.27v1.47h-4.09V38.73h8V34.51h-9.29v-4h30.85Zm-25.51,8.1V56.13h20.27V42.61H328v6c0,.44.19.82.56.82h.72c.73,0,1.06-.58,1.06-4l3,.68c-.33,5.09-.86,6.87-3.07,6.87h-3.1c-1.51,0-3-.27-3-2.75V42.61h-3.36a17.53,17.53,0,0,1-4.75,11.53L313.33,51a12.41,12.41,0,0,0,3.89-8.37Zm7.64-8.1v4.22h3.3V34.51Z"/><path class="cls-1" d="M344.28,57.54c.56,0,3.3-.24,3.89-.27V49h-3.89V45.39h3.89v-15h24.42v3.64h-20.1v1.78h19v3h-19v1.82h19v3h-19v1.79h22.44V49h-3.79l2.28,1.71a29.79,29.79,0,0,1-5.9,4.3,28.3,28.3,0,0,0,8.07,2.47l-1.88,4.39C366.86,60,359.38,56.48,356,49h-3.46v7.89a84.26,84.26,0,0,0,8.47-1v3.82a143.81,143.81,0,0,1-15.85,1.85ZM360.2,49a11.48,11.48,0,0,0,3.69,3.88A31.68,31.68,0,0,0,368.94,49Z"/><path class="cls-1" d="M383,46.14a20.22,20.22,0,0,1-2,2.34l-1.39-5.7c2.61-3.06,4.75-8.38,5.31-13.32l4.08.44a33.47,33.47,0,0,1-2,8.62V61.83h-4Zm17.57-10.26a35.57,35.57,0,0,0-5.87-4L398.11,29a27.88,27.88,0,0,1,6.42,4.26l-2.77,2.61h8.94v4h-8.57v5.94h7.38v4.05h-7.38v6.83h9.26v4H388.71v-4h9.23V49.92h-7.35V45.87h7.35V39.93H389.5v-4Z"/><path d="M285.65,206.3h1.44v17.77h4v1.12h-4v4.06c0,1.54.77,2.14,2.45,2.14h.56v1.12h-8.89v-1.12h.56c1.64,0,2.45-.56,2.45-2.14v-4.06h-9.41V224Zm-1.43,4.62-8.08,13.15h8.08Z"/><path d="M305.28,233.17a11.76,11.76,0,0,1-3.74-.7,3.85,3.85,0,0,0-1.44-.35,6.24,6.24,0,0,0-2.8,1l-2.58-6.75,1.32-.63a12.51,12.51,0,0,0,2.77,3.64,9.62,9.62,0,0,0,6.3,2.59,5.05,5.05,0,0,0,5.18-5.29c0-3.22-2.07-4.34-6.51-5.88-4.94-1.68-8.12-3.49-8.12-7.69a6.6,6.6,0,0,1,7-6.79,11.54,11.54,0,0,1,2.49.28c.38.07,1.82.38,2.1.38a2.44,2.44,0,0,0,2-.66l2.41,6.16-1,.42c-1.12-2-3.15-5.43-7.63-5.43a4.47,4.47,0,0,0-4.79,4.62c0,2.91,2.1,4,6.68,5.6,6.68,2.31,8,4.9,8,7.94A7.41,7.41,0,0,1,305.28,233.17Z"/><path d="M317.36,207h10c8.18,0,13.26,4.2,13.26,12.6,0,6-3.15,12.95-13,12.95H317.36v-1.12h1.18a2.26,2.26,0,0,0,2.52-2.42V210.53a2.26,2.26,0,0,0-2.52-2.41h-1.18Zm6.47,22a2.25,2.25,0,0,0,2.48,2.42H328c6.33,0,9.52-5.67,9.52-12.11,0-4.44-1.82-11.16-9.38-11.16h-1.82a2.24,2.24,0,0,0-2.48,2.41Z"/><path d="M357.66,216.76l7.77,12.42a5,5,0,0,0,4.13,2.21h.49v1.12h-9.9v-1.12H361a1.28,1.28,0,0,0,1.4-1.16,2.84,2.84,0,0,0-.49-1.43l-6.2-9.9-3.32,3.6V229a2.28,2.28,0,0,0,2.52,2.42h1v1.12h-9.73v-1.12h1a2.25,2.25,0,0,0,2.49-2.42V210.53a2.25,2.25,0,0,0-2.49-2.41h-1V207h9.73v1.16h-1a2.27,2.27,0,0,0-2.52,2.41v10.32l9.55-10.42a1.75,1.75,0,0,0,.46-1.12c0-1-1.09-1.19-1.86-1.19h-.91V207h9.87v1.16h-.63a6.85,6.85,0,0,0-5.6,2.52Z"/><path d="M53.63,256.72l.85-1.12c.12-.16.18-.25.31-.25s.14.05.39.23l1.39,1.1a.46.46,0,0,1,.21.33c0,.19-.19.21-.33.21H49.54c0,.68,0,3.67,0,4.27,0,.21,0,4.52,0,5.12H55l1-1.12c.15-.16.21-.24.31-.24s.19.06.4.22l1.37,1.1a.47.47,0,0,1,.2.31c0,.19-.18.23-.31.23H42.43a14.51,14.51,0,0,0-2.45.19l-.41-.83c1.39.12,2.8.14,3.19.14h5.29c0-.18,0-4.58,0-5.06v-4.33H43.65a14.51,14.51,0,0,0-2.45.19l-.41-.81c1.39.1,2.8.12,3.19.12H48C48,252,48,251.48,47.51,250l2.51.67c.21.06.33.1.33.29a.36.36,0,0,1-.19.31,6.28,6.28,0,0,1-.6.47c0,1.68,0,3.34,0,5Z"/><path d="M70,256.85H67.56v6.67c1.68-.49,2.16-.68,2.64-.85l.08.17a21.94,21.94,0,0,1-3,1.76l-2.55,1.29c-.18.43-.27.66-.51.66a.46.46,0,0,1-.34-.25l-1.07-1.84c.7,0,1,.08,3.4-.56,0-.71,0-3.86,0-4.5v-2.55h-.42a14.66,14.66,0,0,0-2.45.18L63,256.2c1.22.11,2.47.15,3.26.15,0-1,0-2.07,0-3.11a12.39,12.39,0,0,0-.27-3.07l2.09.71c.1,0,.29.12.29.31s-.41.56-.7.74c0,1.45,0,2.16-.07,4.42h.5l.62-.68c.19-.21.25-.27.36-.27s.24.14.35.22l.72.69c.11.1.19.18.19.31S70.11,256.85,70,256.85Zm9.27,10.61c-.48.09-4.15.09-4.73.09-3.4,0-4-.17-4-2.43,0-.81.06-4.37.06-5.1,0-.21,0-1.14,0-1.33a11.1,11.1,0,0,0-2,1.1l-.71-.58a28.87,28.87,0,0,0,2.72-1.08v-3.67a10.28,10.28,0,0,0-.23-2.4l1.93.66c.15,0,.31.13.31.29s-.16.33-.66.69c0,.62,0,3.31,0,3.85l2.26-1c0-2.08,0-3.55,0-5a16.21,16.21,0,0,0-.25-1.83l2,.67c.2.06.35.16.35.31s-.29.43-.73.77c0,1.86,0,2.13,0,4.5l2-.9.5-.83c.11-.16.21-.35.35-.35a.79.79,0,0,1,.4.17l1,.6a.42.42,0,0,1,.21.33c0,.25-.23.46-.52.73,0,6.22,0,7.65-2.47,8.29a2.6,2.6,0,0,0-1.24-1.74v-.1a4.64,4.64,0,0,0,.64,0c1.45,0,1.68-.19,1.68-4.56,0-1.41,0-1.64,0-2.24l-2.47,1.12c0,3,0,5,.07,5.59,0,.27.06,1.5.06,1.75a1,1,0,0,1-1.06,1c-.29,0-.5-.1-.5-.54,0-.22.06-1.28.06-1.49.05-1.33.05-2.11.07-5.76l-2.26,1c0,.83,0,7.2,0,7.45a.69.69,0,0,0,.5.58c.26.08,3.23.08,3.62.08,2.14,0,2.78,0,3.22-.77a17.7,17.7,0,0,0,.91-2.51h.15a7.32,7.32,0,0,0,.39,2.47c.12.21.48.4.48.6S80.81,267.19,79.26,267.46Z"/><path d="M93,254.81a20.62,20.62,0,0,0,1.22-3.46H88.84a13.88,13.88,0,0,0-2.44.19l-.42-.83c1.06.08,2.12.14,3.19.14h12.36l.91-.89a1.35,1.35,0,0,1,.4-.31c.1,0,.19.06.39.23l1.16.93a.47.47,0,0,1,.21.31c0,.21-.21.23-.33.23H96.2a36.11,36.11,0,0,1-2.67,3.46h7.55l.58-.6c.2-.2.27-.27.39-.27a.88.88,0,0,1,.37.21l1,.81a.39.39,0,0,1,.16.27c0,.19-.08.25-.83.66,0,2.35,0,5.31.05,7.66,0,1,.1,2.5.1,3.46a.93.93,0,0,1-1,1c-.62,0-.62-.33-.58-1.51H89.44c0,.08,0,.56,0,.66a1,1,0,0,1-1,1c-.67,0-.67-.46-.67-.65s.07-1.1.07-1.26c0-2.26.14-7,.14-9a14.47,14.47,0,0,0-.29-3.4l2.14,1Zm-3.59.5V266H92.2V255.31Zm7.32,3.15v-3.15H93.59v3.15Zm0,3.63V259H93.59v3.13Zm0,3.88v-3.38H93.59V266Zm4.48,0V255.31H98.17V266Z"/><path d="M108.42,263.67a26.89,26.89,0,0,0,3.86-7.94h-.48a15.58,15.58,0,0,0-2.45.18l-.39-.83c1.18.11,2.38.15,3.46.15,0-1,0-2.47,0-3.36a19.71,19.71,0,0,1-3.38.37v-.16a34.87,34.87,0,0,0,5.6-2.32,1.62,1.62,0,0,0,.44-.5l1.43,1.2a.37.37,0,0,1,.14.29c0,.21-.21.21-.39.21l-.6,0a18.8,18.8,0,0,1-1.93.62c0,.95,0,2.86,0,3.67h.39l.5-.75c.08-.12.19-.27.31-.27s.29.15.4.23l.89.75a.45.45,0,0,1,.2.33c0,.21-.2.21-.31.21h-2.38c0,.39,0,1.32,0,1.82,2,.73,2.71,2,2.71,2.62a.79.79,0,0,1-.76.82c-.5,0-.56-.2-1-1.36a3.77,3.77,0,0,0-1-1.81c0,3.61,0,4,.08,5.6,0,1.41.09,3.05.09,3.8,0,.37,0,1.2-1,1.2-.54,0-.6-.31-.6-.71,0-.68.16-3.73.18-4.35,0-2,0-2.84,0-4.65a13.55,13.55,0,0,1-3.92,5.06Zm6.66,4.38c1.45-.71,3.79-2.08,4.29-3l1.49,1.1a.35.35,0,0,1,.19.31c0,.29-.48.27-1,.27a16.42,16.42,0,0,1-4.93,1.43Zm9.2-16.51.52-.83c.11-.17.21-.29.31-.29s.27.14.4.25l1,.83a.42.42,0,0,1,.21.33c0,.19-.16.21-.31.21H122v1.7h1.66l.5-.75c.08-.12.17-.25.31-.25s.25.13.37.23l.85.73a.43.43,0,0,1,.21.33c0,.18-.19.2-.31.2H122v1.87h3.45l.6-.85c.1-.17.23-.27.33-.27s.25.13.37.25l.89.83a.51.51,0,0,1,.21.33c0,.21-.16.21-.31.21h-8.63a13.74,13.74,0,0,0-2.44.19l-.42-.83c1.06.08,2.14.14,3.2.14h1.34v-1.87h-.49a13.16,13.16,0,0,0-2.45.21l-.39-.83c.62,0,1.53.13,3.33.13,0-.81,0-1.31,0-1.7h-1.37a14.37,14.37,0,0,0-2.44.18l-.42-.83c1.52.13,2.84.15,3.2.15h1a6,6,0,0,0-.37-2.22l2.11.64a.31.31,0,0,1,.29.31c0,.27-.47.5-.58.54v.73Zm-.47,6.49.47-.52c.09-.08.21-.21.29-.21s.25.13.34.19l.8.68a.52.52,0,0,1,.23.38c0,.21-.25.37-.6.54a7.23,7.23,0,0,0,0,.76c0,.71.17,3.8.17,4.42a.86.86,0,0,1-1,1c-.54,0-.54-.27-.52-.71h-4.93c0,.48.06,1-.93,1-.36,0-.54-.1-.54-.47,0,0,0-.21,0-.5,0-.77,0-3,0-3.92a13.3,13.3,0,0,0-.23-3.28l1.64.73Zm-4.73.5V260H124v-1.47Zm0,2V262H124V260.5Zm0,2V264H124v-1.53Zm3.48,2.82c1.87.16,4.5,1.1,4.5,2.34a.83.83,0,0,1-.83.81c-.47,0-1-.52-1.3-.91a10.57,10.57,0,0,0-2.37-2.1Z"/><path d="M134.47,254.79a1.22,1.22,0,0,1-1.21,1.21,1.21,1.21,0,0,1-1.2-1.21,1.21,1.21,0,0,1,2.41,0Zm0,8.17a1.21,1.21,0,0,1-1.21,1.21,1.21,1.21,0,0,1,0-2.41A1.21,1.21,0,0,1,134.47,263Z"/><path d="M139.43,266.1h1.14c1.07,0,1.45-.42,1.45-1.27V253.61c0-.64-.6-.74-1-.74h-1.57v-.65h.37a7.9,7.9,0,0,0,3.38-.87.63.63,0,0,1,.29-.12c.19,0,.23.12.23.29v13.31c0,.89.43,1.27,1.45,1.27h1.14v.66h-6.88Z"/><path d="M159.23,266.76h-8.15v-.56a14.13,14.13,0,0,1,3-4.65c3.05-3.52,4.08-4.7,4.08-6.78a2.66,2.66,0,0,0-2.75-2.84c-1.46,0-2.33.87-2.33,1.62a1.13,1.13,0,0,0,.21.64,1.82,1.82,0,0,1,.44,1,1.15,1.15,0,0,1-1.12,1.16,1.3,1.3,0,0,1-1.18-1.45,4.15,4.15,0,0,1,4.45-3.71c2.57,0,4.15,1.62,4.15,3.85s-1.2,3.24-3.07,4.84c-.7.58-3.44,2.92-4.48,5.2h2.86c2.91,0,3.59-1.12,4.21-2.84l.63.23Z"/><path d="M167.67,257.66a3.52,3.52,0,0,1,1.81-.54c2.05,0,3.71,2.07,3.71,4.58,0,2.88-2.05,5.45-4.44,5.45S164,264.48,164,260c0-4.79,2.7-8.77,5.87-8.77,1.39,0,2.36.83,2.36,1.82a1,1,0,0,1-1.05,1.08c-.42,0-1.1-.27-1.14-1.45,0-.46-.07-.75-.63-.75a2.1,2.1,0,0,0-1.51.75c-1.85,2-1.95,5.08-2,6.95A5.09,5.09,0,0,1,167.67,257.66Zm-.68,7.67a2,2,0,0,0,1.68,1.12c1.1,0,2.65-1.14,2.65-4.56,0-.94-.23-3.84-2.36-3.84-.79,0-2.12.58-3.09,2.82A9.89,9.89,0,0,0,167,265.33Z"/><path d="M179.39,266a1.21,1.21,0,1,1-1.2-1.2A1.22,1.22,0,0,1,179.39,266Z"/><path d="M184.84,253.26l-.18,5.23a4.37,4.37,0,0,1,3.21-1.44c3,0,4.42,2.47,4.42,4.75a5.27,5.27,0,0,1-5.12,5.35c-2.37,0-3.92-1.76-3.92-3a1.17,1.17,0,0,1,1.2-1.28,1,1,0,0,1,1.08,1.08,2,2,0,0,1-.11.62,3.26,3.26,0,0,0-.06.58c0,.89.94,1.35,1.77,1.35,1.68,0,3.25-1.6,3.25-4.38,0-2.63-1.39-4.08-2.9-4.08a4.5,4.5,0,0,0-3.24,1.8l-.31-.16.31-8h7.22l-.42,1.64Z"/><path d="M202.24,251.23h.85v10.53h2.35v.67h-2.35v2.4c0,.91.46,1.27,1.46,1.27h.33v.66h-5.27v-.66h.33c1,0,1.45-.34,1.45-1.27v-2.4h-5.57v-.73Zm-.85,2.74-4.79,7.79h4.79Z"/><path d="M212.2,256.56v1.64a4.67,4.67,0,0,1,3.42-1.64,2.3,2.3,0,0,1,2.49,1.86,5.16,5.16,0,0,1,3.71-1.86c1.83,0,2.66,1.1,2.66,3.4v4.89c0,.79.41,1.25,1,1.25h.38v.66h-4.34v-.66h.4c.72,0,1-.56,1-1.25v-4.77c0-.58-.08-2.63-1.8-2.63a3.92,3.92,0,0,0-3,1.8,4.64,4.64,0,0,1,.05.71v4.89c0,.87.47,1.25,1,1.25h.6v.66h-4.77v-.66h.61c.58,0,1.05-.4,1.05-1.25v-4.77c0-.43-.06-2.63-1.8-2.63a3.68,3.68,0,0,0-2.8,1.64v5.76c0,.87.48,1.25,1,1.25h.37v.66H209.3v-.66h.37c.62,0,1-.44,1-1.25v-6.24a.86.86,0,0,0-.85-1,1.93,1.93,0,0,0-.63.08l-.1-.4Zm10.72-1.23a12.43,12.43,0,0,1,1.2-1.32c.44-.48,1.19-1.29,1.19-2,0-.27-.17-.77-.65-.77a.68.68,0,0,0-.7.56c0,.08.18.45.18.54a.57.57,0,0,1-.58.54.65.65,0,0,1-.62-.71,1.76,1.76,0,0,1,1.83-1.49,1.4,1.4,0,0,1,1.51,1.41,1.66,1.66,0,0,1-.64,1.35c-.23.22-1.52,1.26-1.72,1.55h1.28a.84.84,0,0,0,.81-.7l.33.1-.43,1.43h-3Z"/><path d="M271,267.67c-7.52-.1-10.76-.14-13.56-2.86a9.66,9.66,0,0,1-4.23,3.59l-.12-.13a13.18,13.18,0,0,0,3.58-4.31,10.24,10.24,0,0,1-1.93-4l.21-.17a9.35,9.35,0,0,0,2.1,3.4,14.27,14.27,0,0,0,1.16-5.64h-1.74c-.42,1.16-.52,1.47-1.21,1.47-.14,0-.74,0-.74-.47a13.55,13.55,0,0,1,.49-1.47c1.08-2.78,1.93-5,2.18-6h-.74a13.44,13.44,0,0,0-2.45.19l-.39-.83c1.05.08,2.11.15,3.17.15h.37l.54-.44c.19-.14.29-.21.39-.21a.77.77,0,0,1,.36.21l.8.69a.42.42,0,0,1,.21.37c0,.25-.41.43-.95.66-.46,1.16-.73,1.87-1.87,5.14H258l.56-.43a.77.77,0,0,1,.4-.21c.14,0,.24.08.39.23l.64.66a.67.67,0,0,1,.25.44c0,.19-.2.31-.64.58a14.42,14.42,0,0,1-1.7,5.7,11.4,11.4,0,0,0,7.22,2.06,46.42,46.42,0,0,0,7.29-.61l.05.17A2.56,2.56,0,0,0,271,267.67Zm1.23-12.92h-2.86c.08,2.47.08,2.47.08,2.62,0,.41,0,1.05-1,1.05-.56,0-.54-.33-.52-.68h-2.55v2.16h3.11l.63-.79c.14-.17.22-.27.35-.27s.23.1.39.23l.94.78c.1.11.2.23.2.32s-.14.22-.31.22h-5.31l0,2.2h3.7l.78-.91c.17-.19.25-.27.36-.27s.22.08.37.23l1,.91a.48.48,0,0,1,.21.35c0,.13-.12.19-.31.19h-6.08c0,.25.05,1.47,0,1.74a1,1,0,0,1-.91.75c-.66,0-.66-.38-.66-.6s.1-1.58.1-1.89h-1.41a14.61,14.61,0,0,0-2.42.19l-.42-.81c1.62.12,3.15.12,3.19.12h1.08c0-.56,0-1.08,0-2.2h-.62a13.68,13.68,0,0,0-2.42.19l-.42-.81c.62,0,1.78.13,3.48.13v-2.16h-.41a14.9,14.9,0,0,0-2.45.19l-.41-.81c1.49.1,3.07.12,3.27.12l0-2.49H262.1a13.78,13.78,0,0,0-2.43.19l-.41-.83c1.05.1,2.11.15,3.17.15H264l0-2.43h-.49a15.89,15.89,0,0,0-2.45.19l-.39-.83c1.45.12,2.8.14,3.31.14a3.7,3.7,0,0,0-.31-1.93l2,.48c.23.06.36.14.36.33s-.25.37-.58.56v.56h2.4l.52-.45a.59.59,0,0,1,.37-.21c.13,0,.23.1.38.23l.58.56a.62.62,0,0,1,.25.39c0,.17-.17.29-.58.58a9.24,9.24,0,0,0,0,1.83h.74l.6-.77c.13-.17.23-.25.33-.25a.65.65,0,0,1,.4.21l.89.76c.1.11.21.21.21.31S272.42,254.75,272.22,254.75Zm-4.25,0h-2.58l0,2.49H268Zm0-2.92h-2.53l-.05,2.43H268Z"/><path d="M282.23,260.64c0,2.51,0,2.95,0,4.15,0,.73.08,1.89.08,2.61s-.89,1-1.08,1c-.46,0-.56-.27-.56-.58,0-.09,0-.85,0-1,.09-1.55.09-2.11.13-5.43a22.32,22.32,0,0,1-2.55,1.18c0,.37-.07.73-.4.73s-.35-.23-.41-.36l-1-1.86c1.29.06,1.64,0,4.36-.79,0-1.83,0-3.88,0-5.46H279a16.45,16.45,0,0,1-1.84,4.59l-.13,0a33,33,0,0,0,.93-7.2,3.74,3.74,0,0,0-.2-1.41l2,.48c.16,0,.35.08.35.31s-.29.41-.62.54a21.46,21.46,0,0,1-.35,2.24h1.72c0-2.93-.11-3.78-.56-4.81l2.28.66c.12,0,.31.14.31.29s-.35.44-.66.6c0,.44,0,2.63,0,3.26h.42l.58-.79c.1-.13.21-.27.31-.27a.6.6,0,0,1,.37.23l.83.79a.45.45,0,0,1,.19.31c0,.18-.19.22-.31.22h-2.39c0,1.33,0,3.65,0,5,.42-.14,2.35-.81,2.72-.95l.06.14A23.84,23.84,0,0,1,282.23,260.64ZM294.47,255c-.17,4.34-.33,8.28-1.64,11a4,4,0,0,1-3.21,2.1c-.15-.94-.48-1.52-1.76-2.45l.06-.15a8.94,8.94,0,0,0,2.51.44c.49,0,.83,0,1.41-1.47a32.28,32.28,0,0,0,1.16-10h-1.18c-.61,4.69-2.6,10.72-8.59,13l-.06-.14c4.39-3.3,6.26-6.8,7.13-12.84h-1.16c-.85,4.38-3.19,8.15-6.2,9.56l-.06-.12a17.71,17.71,0,0,0,4.75-9.44h-1a13.14,13.14,0,0,1-2.8,4.13l-.1-.11a23.11,23.11,0,0,0,2.67-8.46,2.49,2.49,0,0,0-.1-.7l2.07.83c.21.08.31.21.31.33,0,.27-.39.37-.72.46-.54,1.66-.89,2.5-1.1,3h6l.5-.52c.12-.14.23-.22.31-.22a.87.87,0,0,1,.37.18l1,.73c.14.1.22.17.22.29C295.17,254.69,294.7,254.92,294.47,255Z"/><path d="M307.25,254.81a22.58,22.58,0,0,0,1.22-3.46h-5.41a14,14,0,0,0-2.45.19l-.41-.83c1.05.08,2.11.14,3.19.14h12.36l.91-.89c.17-.16.33-.31.4-.31s.18.06.39.23l1.16.93c.08.07.21.19.21.31s-.21.23-.33.23h-8.07a36.1,36.1,0,0,1-2.68,3.46h7.55l.58-.6c.21-.2.27-.27.4-.27a.88.88,0,0,1,.37.21l.95.81a.38.38,0,0,1,.17.27c0,.19-.08.25-.83.66,0,2.35,0,5.31,0,7.66,0,1,.11,2.5.11,3.46a.93.93,0,0,1-1,1c-.62,0-.62-.33-.58-1.51h-11.8c0,.08,0,.56,0,.66a1,1,0,0,1-1,1c-.66,0-.66-.46-.66-.65s.06-1.1.06-1.26c0-2.26.15-7,.15-9a14.47,14.47,0,0,0-.29-3.4l2.13,1Zm-3.59.5V266h2.76V255.31Zm7.32,3.15v-3.15h-3.17v3.15Zm0,3.63V259h-3.17v3.13Zm0,3.88v-3.38h-3.17V266Zm4.48,0V255.31h-3.07V266Z"/><path d="M322.64,263.67a26.86,26.86,0,0,0,3.85-7.94H326a15.51,15.51,0,0,0-2.45.18l-.39-.83c1.18.11,2.38.15,3.46.15,0-1,0-2.47,0-3.36a19.82,19.82,0,0,1-3.38.37v-.16a35.25,35.25,0,0,0,5.6-2.32,1.43,1.43,0,0,0,.43-.5l1.43,1.2a.35.35,0,0,1,.15.29c0,.21-.21.21-.4.21l-.6,0a17.23,17.23,0,0,1-1.93.62c0,.95,0,2.86,0,3.67h.4l.5-.75c.08-.12.18-.27.31-.27s.29.15.39.23l.89.75a.43.43,0,0,1,.21.33c0,.21-.21.21-.31.21h-2.39c0,.39,0,1.32,0,1.82,2,.73,2.72,2,2.72,2.62a.79.79,0,0,1-.77.82c-.49,0-.56-.2-1-1.36a3.78,3.78,0,0,0-1-1.81c.05,3.61.05,4,.09,5.6,0,1.41.08,3.05.08,3.8,0,.37,0,1.2-1,1.2-.54,0-.6-.31-.6-.71,0-.68.17-3.73.19-4.35,0-2,0-2.84,0-4.65a13.55,13.55,0,0,1-3.92,5.06Zm6.65,4.38c1.45-.71,3.8-2.08,4.3-3l1.49,1.1a.36.36,0,0,1,.18.31c0,.29-.47.27-1,.27a16.47,16.47,0,0,1-4.94,1.43Zm9.21-16.51.52-.83c.1-.17.21-.29.31-.29s.27.14.39.25l1,.83a.44.44,0,0,1,.21.33c0,.19-.17.21-.31.21h-4.4v1.7h1.66l.5-.75c.08-.12.16-.25.31-.25s.25.13.37.23l.85.73a.43.43,0,0,1,.21.33c0,.18-.19.2-.31.2h-3.59v1.87h3.44l.6-.85c.11-.17.23-.27.33-.27s.25.13.38.25l.89.83c.1.1.21.21.21.33s-.17.21-.31.21h-8.63a13.9,13.9,0,0,0-2.45.19l-.41-.83c1.06.08,2.13.14,3.19.14h1.35v-1.87h-.5a13.16,13.16,0,0,0-2.45.21l-.39-.83c.62,0,1.54.13,3.34.13,0-.81,0-1.31,0-1.7h-1.37a14.53,14.53,0,0,0-2.45.18l-.41-.83c1.51.13,2.84.15,3.19.15h1a5.8,5.8,0,0,0-.38-2.22l2.12.64a.32.32,0,0,1,.29.31c0,.27-.48.5-.58.54v.73ZM338,258l.48-.52c.08-.08.21-.21.29-.21s.25.13.33.19l.81.68a.52.52,0,0,1,.23.38c0,.21-.25.37-.6.54a7.23,7.23,0,0,0,0,.76c0,.71.16,3.8.16,4.42a.85.85,0,0,1-.95,1c-.54,0-.54-.27-.52-.71h-4.94c0,.48.07,1-.93,1-.35,0-.54-.1-.54-.47,0,0,0-.21,0-.5.05-.77.05-3,.05-3.92a13.3,13.3,0,0,0-.23-3.28l1.64.73Zm-4.73.5V260h4.94v-1.47Zm0,2V262h4.94V260.5Zm0,2V264h4.94v-1.53Zm3.49,2.82c1.87.16,4.5,1.1,4.5,2.34a.84.84,0,0,1-.83.81c-.48,0-1-.52-1.31-.91a10.22,10.22,0,0,0-2.36-2.1Z"/><path d="M348.68,254.79a1.22,1.22,0,0,1-1.2,1.21,1.21,1.21,0,0,1-1.2-1.21,1.2,1.2,0,1,1,2.4,0Zm0,8.17a1.21,1.21,0,0,1-1.2,1.21,1.21,1.21,0,1,1,1.2-1.21Z"/><path d="M353.64,266.1h1.14c1.08,0,1.45-.42,1.45-1.27V253.61c0-.64-.6-.74-1-.74h-1.58v-.65H354a7.86,7.86,0,0,0,3.38-.87c.15-.08.21-.12.29-.12s.23.12.23.29v13.31c0,.89.44,1.27,1.45,1.27h1.15v.66h-6.89Z"/><path d="M369.94,267.15a4.19,4.19,0,0,1-3.4-2.24,12.9,12.9,0,0,1-1.26-5.91c0-4.41,1.88-7.77,4.66-7.77,2.14,0,4.67,2.3,4.67,8C374.61,264.27,372.47,267.15,369.94,267.15Zm-2.32-12.46a18.79,18.79,0,0,0-.48,4.5c0,4.62,1.1,7.26,2.8,7.26,1.43,0,2.08-1.91,2.3-2.7a19.21,19.21,0,0,0,.5-4.56c0-4.73-1.14-7.26-2.8-7.26C368.47,251.93,367.83,254,367.62,254.69Z"/><path d="M382.8,267.15a4.19,4.19,0,0,1-3.4-2.24,12.91,12.91,0,0,1-1.27-5.91c0-4.41,1.89-7.77,4.67-7.77,2.14,0,4.67,2.3,4.67,8C387.47,264.27,385.33,267.15,382.8,267.15Zm-2.32-12.46a18.79,18.79,0,0,0-.48,4.5c0,4.62,1.1,7.26,2.8,7.26,1.43,0,2.07-1.91,2.3-2.7a19.21,19.21,0,0,0,.5-4.56c0-4.73-1.14-7.26-2.8-7.26C381.33,251.93,380.68,254,380.48,254.69Z"/><path d="M393.61,266a1.21,1.21,0,1,1-1.21-1.2A1.22,1.22,0,0,1,393.61,266Z"/><path d="M403.6,251.23h.85v10.53h2.34v.67h-2.34v2.4c0,.91.46,1.27,1.45,1.27h.33v.66H401v-.66h.33c1,0,1.45-.34,1.45-1.27v-2.4h-5.58v-.73Zm-.85,2.74L398,261.76h4.79Z"/><path d="M416.46,251.23h.85v10.53h2.34v.67h-2.34v2.4c0,.91.46,1.27,1.45,1.27h.33v.66h-5.26v-.66h.33c1,0,1.45-.34,1.45-1.27v-2.4H410v-.73Zm-.85,2.74-4.79,7.79h4.79Z"/><path d="M426.41,256.56v1.64a4.68,4.68,0,0,1,3.43-1.64,2.29,2.29,0,0,1,2.48,1.86,5.2,5.2,0,0,1,3.72-1.86c1.82,0,2.65,1.1,2.65,3.4v4.89c0,.79.42,1.25,1,1.25h.37v.66h-4.33v-.66h.39c.73,0,1-.56,1-1.25v-4.77c0-.58-.09-2.63-1.81-2.63a3.9,3.9,0,0,0-2.94,1.8,5.05,5.05,0,0,1,0,.71v4.89c0,.87.48,1.25,1,1.25h.6v.66h-4.77v-.66h.6c.58,0,1.06-.4,1.06-1.25v-4.77c0-.43-.06-2.63-1.81-2.63a3.71,3.71,0,0,0-2.8,1.64v5.76c0,.87.48,1.25,1,1.25h.37v.66h-4.31v-.66h.37c.63,0,1-.44,1-1.25v-6.24a.85.85,0,0,0-.85-1,1.83,1.83,0,0,0-.62.08l-.1-.4Zm10.73-1.23a11.38,11.38,0,0,1,1.2-1.32c.43-.48,1.18-1.29,1.18-2,0-.27-.17-.77-.64-.77a.69.69,0,0,0-.71.56c0,.08.19.45.19.54a.57.57,0,0,1-.58.54.64.64,0,0,1-.62-.71,1.75,1.75,0,0,1,1.82-1.49,1.4,1.4,0,0,1,1.51,1.41,1.66,1.66,0,0,1-.64,1.35c-.23.22-1.51,1.26-1.72,1.55h1.29c.54,0,.7-.41.81-.7l.33.1-.44,1.43h-3Z"/><path d="M452.54,268.92a12.72,12.72,0,0,1,0-20.08l.19.29a14,14,0,0,0,0,19.5Z"/><path d="M464.41,256.41c-.35.44-1.56,2.55-1.83,3a13.52,13.52,0,0,1-5.74,5.22l0-.18c3.9-3.45,5.82-7.76,5.82-8.65,0-.52-.18-1-1.3-1.49a3.14,3.14,0,0,1,1.06-.19,3.63,3.63,0,0,1,2.46,1.7A1.85,1.85,0,0,1,464.41,256.41Zm9.16,7.07c-.6,0-.72-.45-1.26-2.15a18.74,18.74,0,0,0-4.48-6.95c2.63.79,6.51,4.87,6.51,8C474.34,262.9,474,263.48,473.57,263.48Zm-.56-8.23c-.29,0-.37-.1-1.1-.95a7.5,7.5,0,0,0-1.94-1.66c1.3,0,3.52.7,3.52,2C473.49,255,473.24,255.25,473,255.25Zm1.72-1.89c-.24,0-.31-.06-.87-.66a9,9,0,0,0-2.3-1.62c1.33-.08,3.67.5,3.67,1.7A.52.52,0,0,1,474.73,253.36Z"/><path d="M484.86,255.35c0,.48-.21,2.62-.25,3-.54,4.46-3.21,6.83-5,7.55l-.1-.12a12.8,12.8,0,0,0,3.83-9.83c0-1.72,0-1.72-1.59-2.14a2.41,2.41,0,0,1,1.37-.54c.54,0,1.95.46,1.95,1C485.09,254.52,484.88,255.21,484.86,255.35Zm5,8.57a5.94,5.94,0,0,0-1.31,1.16c-.1.1-.29.31-.41.31-.4,0-1.33-1.7-1.33-2s.25-.77.27-.91a34.17,34.17,0,0,0,.18-4.13c0-.77,0-4.6-.12-5.1s-.5-.64-1.49-1a2.23,2.23,0,0,1,1.16-.44c.62,0,2.24.62,2.24,1.24a11.48,11.48,0,0,1-.29,1.19c-.21,1-.31,6.86-.31,8.13,0,.08,0,.35.14.35.5,0,4.25-2.39,7.51-6.53l.16.12A19.05,19.05,0,0,1,489.9,263.92Z"/><path d="M513.89,255.44a.87.87,0,0,0-.45.66c-.34,1.35-.5,2.39-1.17,6.26.4.09,1,.4,1,.85s-.54.56-1.12.56c-.4,0-2.12-.08-2.47-.08a22.72,22.72,0,0,0-5.78.62,9.36,9.36,0,0,1-1.1.36c-.65,0-1.72-1.5-1.72-2.31a1.93,1.93,0,0,1,.14-.68,3.25,3.25,0,0,0,2.22,1.33c.7,0,1.58-.09,7.59-.56.64-4.3,1-6.56,1-7.37,0-.18-.08-.24-.29-.24a59.63,59.63,0,0,0-7.71.93,7,7,0,0,1-.93.33c-.69,0-1.85-1.37-1.85-2.4a2.1,2.1,0,0,1,.1-.71,2.87,2.87,0,0,0,2.37,1.47c1,0,7.46-.47,8-.68a7.46,7.46,0,0,1,1-.56c.23,0,1.7,1.24,1.7,1.66C514.41,255.11,514.31,255.17,513.89,255.44Z"/><path d="M535.32,263.34l-1.62-.27a19,19,0,0,0-3.13-.23,37.25,37.25,0,0,0-7.76.87,3.7,3.7,0,0,1-1.12.29,2.62,2.62,0,0,1-1.91-2.42,1.74,1.74,0,0,1,.09-.54,2.72,2.72,0,0,0,2.44,1.28c.13,0,5.75-.47,6.83-.52a22.28,22.28,0,0,0,3.73-.35,3.31,3.31,0,0,1,.87-.23c.43,0,2.09.73,2.09,1.54A.52.52,0,0,1,535.32,263.34Zm-3.74-8.15c-.45,0-2.07.14-3.19.21a19.85,19.85,0,0,0-3.71.43,1.3,1.3,0,0,1-.38,0,2,2,0,0,1-1.9-2,4.13,4.13,0,0,0,2.55.73,27.68,27.68,0,0,0,5.16-.56c.19,0,1-.38,1.22-.38.4,0,1.66.31,1.66,1C533,255.08,532.62,255.13,531.58,255.19Z"/><path d="M555.89,259.58c-.19,0-.69,0-.73,0a21.3,21.3,0,0,0-2.34-.08c-6.33,0-8.19.12-9.13.37-.06,0-.72.19-.78.19-.54,0-1.66-1.33-1.66-2.28a2.38,2.38,0,0,1,.25-1c.7,1.58,1.35,1.58,3.5,1.58,1.43,0,8.17,0,9.13-.25.12,0,.72-.19.85-.19s2.19.23,2.19,1C557.17,259.56,556.14,259.58,555.89,259.58Z"/><path d="M568.54,252c-.27.54-.83,1.68-1.39,2.64-.89,1.51-1,1.68-1.1,1.88a5.47,5.47,0,0,1,2.53,4.26,2.49,2.49,0,0,1-2.38,2.63,2.67,2.67,0,0,0-1.12-1.87l0-.16a6.26,6.26,0,0,0,1.08.12c.58,0,.95-.1.95-1.39a4.65,4.65,0,0,0-1.58-3.54,31,31,0,0,0,1.46-5.33h-2.22c0,1.16,0,7.27,0,8.93,0,1.08.1,6.58.1,6.85a1,1,0,0,1-1.08,1,.51.51,0,0,1-.56-.58c0-.08,0-.29,0-.41.17-2.3.23-4.15.23-11.18a25.91,25.91,0,0,0-.39-6.05l1.88.93h2.12l.46-.44c.12-.12.22-.2.33-.2s.18.08.33.2l1,.83a.41.41,0,0,1,.13.29C569.33,251.64,569.16,251.77,568.54,252Zm2.36,11.49a12.28,12.28,0,0,1-4.31,3.53l0-.13c1.56-1.57,3.09-3.34,3.34-5l1.59.94c.19.1.27.16.27.31C571.75,263.42,571.17,263.44,570.9,263.44Zm8.84-6.2a15.11,15.11,0,0,1-5.77-6l-.1,0a19.57,19.57,0,0,1-6.26,6.41l-.09-.17c2.16-1.93,4.69-5.79,5-7.82l1.89.83a.35.35,0,0,1,.19.29c0,.25-.21.31-.31.36,3.13,3.6,5.49,4.27,7.15,4.56v.12A3.21,3.21,0,0,0,579.74,257.24Zm-.46,3.73h-5c0,.71,0,3.84,0,4.48,0,1.45-.11,2.18-2.41,2.86a2.7,2.7,0,0,0-1.7-2v-.14c.48,0,1.18.1,1.84.1s.83,0,.88-.35c0-.19,0-1.53,0-5h-1.21a12.54,12.54,0,0,0-2.44.19l-.4-.83c1.41.13,2.89.15,3.18.15h.85v-3.24a14.27,14.27,0,0,0-2.68.19l-.41-.83c1.41.12,2.9.14,3.19.14h1.89l.58-.8c.12-.17.18-.27.31-.27s.21.08.37.22l1,.81c.1.09.2.17.2.31s-.18.23-.33.23h-2.76v3.24H577l.58-1c.06-.12.19-.27.31-.27s.23.11.37.23l1.19,1c.08.08.2.16.2.31S579.43,261,579.28,261Zm-.12,5.87c-.58,0-.73-.25-1.29-1.32a8,8,0,0,0-2.32-2.7l.1-.1c1.87.39,4.36,1.68,4.36,3.19A.83.83,0,0,1,579.16,266.84Z"/><path d="M593.47,268.27c-.33,0-.4-.08-1.37-1.66-1.14-1.84-1.62-2.32-5.56-6.22a2.37,2.37,0,0,1-.74-1.47c0-.33.06-.68.76-1.43,2.1-2.22,5.25-5.52,5.25-6.32,0-.5-.46-1-1-1.5a2.49,2.49,0,0,1,2.8,2.12c0,.41-.2.58-.83,1.08a72.6,72.6,0,0,0-5.47,5.24,1,1,0,0,0-.35.77c0,.52.14.66,1.82,2.2,4.65,4.19,5.48,4.91,5.48,6C594.26,267.55,594,268.27,593.47,268.27Z"/><path d="M600.17,268.92l-.19-.29a14,14,0,0,0,0-19.5l.19-.29a12.72,12.72,0,0,1,0,20.08Z"/><path class="cls-2" d="M110.54,165.4a24.3,24.3,0,0,0,6.69-6.42H111.5v-3.16h6.69v-3.19h-6.86V149.5H115a28.66,28.66,0,0,0-1-4.91h-2v-3.12h6.2v-2.85h3.16v2.85h5.7v3.12H125.5c-.69,3.16-.76,3.54-1.18,4.91h3.23v3.13h-6.2v3.19h5.44V159H122a17.07,17.07,0,0,0,4,3.91L124.38,166a17.89,17.89,0,0,1-3-3.67v8.62h-3.16v-8.55a25.72,25.72,0,0,1-5.84,6.18ZM117,144.59a40.72,40.72,0,0,1,1,4.91h3.33a40.21,40.21,0,0,0,1-4.91Zm25.15-2.74A26.2,26.2,0,0,1,132,144.42v5.22h10.19v3.3h-3.23v18h-3.43v-18H132v.92c0,9.58-1.81,13.25-4.41,17.07l-3.2-2.3c2.87-3.57,4.32-7.08,4.32-14.66V141.19a23.66,23.66,0,0,0,11.6-2.57Z"/><path class="cls-2" d="M159.62,155.41c-2.28.51-9.46,1.68-11.67,2l-.53-3.15c.3,0,4.68-.48,5.47-.59v-3.43H149v-2.75h.23l-2.07-2.23a16.42,16.42,0,0,0,5-6.69l3.23.61a11.53,11.53,0,0,1-.52,1.45h7.71v2.74h-5c.36.66.62,1.17.89,1.79l-3.23,1.23a17.23,17.23,0,0,0-1.06-3h-.85a19.1,19.1,0,0,1-3.5,4.12h10.09v2.75H156v3.09c2.24-.28,2.94-.41,3.86-.58v2c2.67-1.75,3-3.64,3.13-7.76h11.86v6.38c0,.62.14.76.4.76.73,0,.79,0,.86-.93,0-.27,0-1.61,0-1.92L179,152c-.16,3.64-.26,4.8-2.07,4.8h-3.07c-1,0-2-.65-2-2.33v-4.87h-5.93a9.79,9.79,0,0,1-4.06,7.79h2.84v1.41h13.91v2.95H167.3c1.55,1.27,3.72,3,11.73,5L177.55,170a31.66,31.66,0,0,1-12.92-6.9v7.72h-3.2v-7.76c-3.92,4.05-9.36,6-12.79,6.94l-1.35-3.26a28.26,28.26,0,0,0,11.6-5H147.62v-2.95h13.81v-1.17ZM167,143.32a13.1,13.1,0,0,1-2.34,3.13l-2.8-2a12.64,12.64,0,0,0,3.65-5.73l3.33.51c-.19.59-.29.9-.46,1.38h10.19v2.74H172a10.12,10.12,0,0,1,.86,1.75l-3,1.27c-.26-.68-.92-2.26-1.28-3Zm1.09,6.87a25.17,25.17,0,0,1,3.46,3.57l-2.15,2.09a27.29,27.29,0,0,0-3.36-3.6Z"/><path class="cls-2" d="M188.76,151.25a42.58,42.58,0,0,1-3.4,2.89L183,151a23.67,23.67,0,0,0,9.89-12.49l3.42.92a29,29,0,0,1-7.18,11.4h20.3c0,3.47-.1,12.4-1.35,16.93-.86,3.09-3.1,3.19-4.55,3.19h-5l-.66-3.64h5c1.88,0,2.18-1.72,2.44-3.23a57.1,57.1,0,0,0,.66-9.78h-7.65c-.85,9.27-5.43,13.66-12.26,16.65l-2-3.3c7.15-3.12,9.92-6.24,10.75-13.35h-6Zm24.32,2.61a35,35,0,0,1-10.68-14.31l3.43-1c1.71,4.29,5.24,9.61,9.65,12.36Z"/><path class="cls-2" d="M220,144.46h10.91v3H220Zm.83-5.09h9v3.09h-9Zm0,10.06h9v3.13h-9Zm0,5.12h9v3h-9Zm0,5.25h9v9.79h-6.07V171h-3Zm3,2.95v4h3.1v-4Zm27-.68a39.06,39.06,0,0,1-3.59,3.09,17.6,17.6,0,0,0,4,2.64L249.53,171c-4.22-2.4-7.87-6-9-10.85a15.91,15.91,0,0,1-2.35,2.13v4.6c2.61-.21,3.66-.38,4.92-.55v3.23c-2.48.37-7.65,1-11,1.06l-.56-3.47c1,0,1.81,0,3.56-.07V164.3a26.34,26.34,0,0,1-3.69,1.65l-1.35-3a18.75,18.75,0,0,0,6.85-3.3h-6v-2.57h4.68v-1.75h-3.49V153h3.49v-1.51h-4.05V149h4.05v-1.13h3V149h5v-1.13h3V149h4.28v2.44h-4.28V153h3.62v2.37h-3.62v1.75h4.48v2.57h-7.78a21,21,0,0,0,1.81,3.09,23.67,23.67,0,0,0,3.1-2.84Zm-19.31-16.45a23.88,23.88,0,0,0,6.06-2.06h-6.39v-2.88h8.17v-1.92h3.33v1.92h8.34v2.88h-6.33a22.72,22.72,0,0,0,6.33,2.17l-1.35,2.43a20.6,20.6,0,0,1-7-2.43l1.68-2.17H237.8l2,2.17a30.18,30.18,0,0,1-6.92,2.64Zm7.05,5.84V153h5v-1.51Zm0,3.88v1.75h5v-1.75Z"/><path class="cls-2" d="M259.42,154.41a23.19,23.19,0,0,1-2.27,2.85l-1.48-4.39a28.18,28.18,0,0,0,5.7-14.15l3.43.45a29.83,29.83,0,0,1-2,8.55v23.17h-3.36Zm18.33-8.86a30.75,30.75,0,0,0-6.46-4.32l2.11-2.89a46.55,46.55,0,0,1,6.62,4.12l-2,3.09h8.54V149h-8.84v6.49h7.62v3.4h-7.62v7.62h9.59v3.33H264.63v-3.33h9.56v-7.62h-7.65v-3.4h7.65V149h-8.74v-3.4Z"/><path class="cls-2" d="M307.58,156.2l15.65-1.72.27,3.4-15.92,1.75v6.8c0,.65.46.65.69.65h9.06a1,1,0,0,0,1.06-.89,44.32,44.32,0,0,0,.23-4.6l3.59.92c-.13,5.19-.3,8.14-3.59,8.14H307.28c-.86,0-3.16,0-3.16-2.54V160l-11.34,1.27-.23-3.43,11.57-1.28v-4.15c-1.91.24-4.06.38-5.94.52l-1.08-3.51c2.53-.1,12-.44,19.51-3.22l1.71,3.22A46.48,46.48,0,0,1,307.58,152Zm-1.22-17.55h3.43v3h12.82v8.21h-3.43v-4.77H297v4.77H293.5v-8.21h12.86Z"/><path class="cls-2" d="M334.05,150.53c-1.49.9-2.71,1.48-4,2.13l-1.69-3.47a32.85,32.85,0,0,0,14-10.57h3.7a29.79,29.79,0,0,0,14.23,10.47l-1.84,3.5a27.6,27.6,0,0,1-4-2.06v2.58H346v4.63h10.41v3.09H346v5.56h13.35v3.51H329.07v-3.51h13.38v-5.56H332.1v-3.09h10.35v-4.63h-8.4Zm19.24-.79a42.37,42.37,0,0,1-9.09-8.1,37.55,37.55,0,0,1-8.9,8.1Z"/><path class="cls-2" d="M373.93,158.19c-2.28.38-4.09.89-4.09,5.18v.76h17.31v3.71H365.92v-3c0-4.26.33-9.27,6.66-10.23l6.46-1c2.9-.44,4.31-1.27,4.31-4.63s-1.51-4.77-6.39-4.77c-5.5,0-6.69,1.33-6.72,5.63h-3.89c.06-5.84,1.68-9.34,10.38-9.34,5,0,10.51.65,10.51,8.48,0,3.6-1.08,5.32-2.86,6.52a10.53,10.53,0,0,1-4.19,1.65Z"/><path class="cls-2" d="M392.88,159.32a31.07,31.07,0,0,0,4.75-11.09h-4.26v-3.29h4.36v-6.25h3.16v6.25h3.66v3.29h-3.66v1.2a18.73,18.73,0,0,0,4.05,6.42L403.26,159a21.15,21.15,0,0,1-2.37-4.29v16.17h-3.16v-15.1c-1.42,5.08-2.74,6.86-3.63,8.1Zm9.79,7.25A22.68,22.68,0,0,0,411,159h-5.67V146.62h7.42v-2h-8.24V141.3h8.24v-2.61h3.1v2.61h8.5v3.36h-8.5v2h7.44V159H417.9a24.58,24.58,0,0,0,7,7.25L423,169.31a23.5,23.5,0,0,1-7.11-8.51v10.09h-3.1v-9.65a24.36,24.36,0,0,1-8.24,8.42Zm5.77-17.24v2.27h4.35v-2.27Zm0,4.7v2.24h4.35V154Zm7.45-4.7v2.27h4.45v-2.27Zm0,4.7v2.24h4.45V154Z"/><path class="cls-2" d="M452.77,158.19c-2.27.38-4.09.89-4.09,5.18v.76H466v3.71H444.76v-3c0-4.26.33-9.27,6.66-10.23l6.46-1c2.9-.44,4.32-1.27,4.32-4.63s-1.52-4.77-6.4-4.77c-5.5,0-6.69,1.33-6.72,5.63h-3.89c.06-5.84,1.68-9.34,10.38-9.34,5,0,10.51.65,10.51,8.48,0,3.6-1.08,5.32-2.86,6.52a10.53,10.53,0,0,1-4.19,1.65Z"/><path class="cls-2" d="M479.3,161.79c-.33.62-.66,1.17-1.28,2.13l-3.43-1.37a45.11,45.11,0,0,0,3.76-7.25h-6V152h30.91v3.26H482.14c-.27.69-1.09,2.72-1.35,3.27h19.47c-.19,2.64-.65,8-1.71,10a4.1,4.1,0,0,1-3.82,2.37h-5.8l-.76-3.61h5.93c1.19,0,2.08-.62,2.44-5.53Zm21.19-22v9.78H475.31v-9.78Zm-21.88,3.12v3.57H497.2v-3.57Z"/><path class="cls-2" d="M507.65,159.32a31.07,31.07,0,0,0,4.75-11.09h-4.26v-3.29h4.35v-6.25h3.17v6.25h3.66v3.29h-3.66v1.2a18.73,18.73,0,0,0,4.05,6.42L518,159a21.15,21.15,0,0,1-2.37-4.29v16.17h-3.17v-15.1c-1.41,5.08-2.73,6.86-3.62,8.1Zm9.79,7.25a22.78,22.78,0,0,0,8.37-7.56h-5.67V146.62h7.42v-2h-8.24V141.3h8.24v-2.61h3.09v2.61h8.51v3.36h-8.51v2h7.45V159h-5.44a24.81,24.81,0,0,0,7,7.25l-1.92,3.05a23.62,23.62,0,0,1-7.12-8.51v10.09h-3.09v-9.65a24.36,24.36,0,0,1-8.24,8.42Zm5.77-17.24v2.27h4.35v-2.27Zm0,4.7v2.24h4.35V154Zm7.44-4.7v2.27h4.45v-2.27Zm0,4.7v2.24h4.45V154Z"/></g></svg>