<svg xmlns="http://www.w3.org/2000/svg" width="650" height="295" viewBox="0 0 650 295"><defs><style>.cls-1{fill:#00ae22;}.cls-2{fill:#fff;}</style></defs><title>joho_matome</title><g id="レイヤー_3" data-name="レイヤー 3"><path class="cls-1" d="M130.33,85.26h22.33v3.86h-7.42v1.95h6.6v17h-3.75v-1.06H134.88v1.06h-3.73v-17h5.71V89.12h-6.53Zm4.55,14.79v3.24h13.21v-2a2,2,0,0,1-1.27.47h-3.27a1.74,1.74,0,0,1-1.7-1.88V94.78h-1.67a11,11,0,0,1-3.21,7.84Zm0-5.27v4.55a6.91,6.91,0,0,0,2-4.55Zm5.37-5.66v1.95h1.6V89.12Zm7.84,7.39V94.78h-2.85v2.85c0,.49,0,.74.4.74.76,0,.9,0,1-2.15Z"/><path class="cls-1" d="M165.28,106.19v.27c-2.59.66-8,1.41-9.26,1.56l-.33-3.84c1-.07,1.93-.15,3.58-.35V98h-3.39V94.58h3.39v-1h-1.81v-1a6.44,6.44,0,0,1-1.23.89l-1-4.08a12.33,12.33,0,0,0,4.1-4.72h3.75A9.9,9.9,0,0,0,166,88.1a17.1,17.1,0,0,0,.12-2.77l3.36.37c0,.72,0,1.41-.16,2.87h.9V84.62h3.5v3.95h3.92v3.69h-3.92v1.66c0,.32,0,.59,0,.79h4.38v3.83h-3.82a13.07,13.07,0,0,0,4.29,5.91l-2.24,3.71a13.8,13.8,0,0,1-4.17-6.53,13.6,13.6,0,0,1-5.49,6.63ZM158,98.54a27,27,0,0,1,.83,4.21l-2.59.79a21.48,21.48,0,0,0-.62-4.26Zm4.95-8.48a13.35,13.35,0,0,1-1.58-2.23,15,15,0,0,1-1.55,2.23Zm2.69,8.48V94.71h4.59a4.1,4.1,0,0,0,0-.57V92.26h-1.49a15.86,15.86,0,0,1-.66,2.1l-3.16-1.51a21,21,0,0,0,1.09-4.7l-1.75,3.07v2.33h-1.79v1h2.45V98h-2.45v5.42c1.37-.2,2-.32,2.78-.45l0,1.34a9.81,9.81,0,0,0,4.21-5.74Zm.35.52a28.46,28.46,0,0,1-1,3.59l-2.26-.55a17.63,17.63,0,0,0,.8-3.58Z"/><path class="cls-1" d="M181.31,103.74c1.1-1.56,4.05-5.59,4.47-17.57l4.08.57c-.8,11.73-2.59,16.75-5.11,20.29ZM197.16,86.3a26.82,26.82,0,0,1,.8,3.61l.5-.12c.92,6.08,1.84,9.62,4.9,13.9l-3.79,3.14c-2.9-4.5-4.72-10.09-5.4-20.09Zm1.46,2.87a27.44,27.44,0,0,0-1.06-4l1.86-.47a18.83,18.83,0,0,1,1.23,3.88Zm3.14-.32a33.72,33.72,0,0,0-1.21-4l2-.37a18.27,18.27,0,0,1,1.2,3.89Z"/><path class="cls-1" d="M207.06,103.71A22.91,22.91,0,0,0,219.67,90.6H208.5V86.5h16.66A25.7,25.7,0,0,1,221,97.21a55,55,0,0,1,7.58,6.75l-3.51,3.59a79.22,79.22,0,0,0-6.62-7.1c-4.52,4.87-7.47,6.18-9.12,6.9Z"/><path class="cls-1" d="M252.19,82.1h-7.25v26.37h-5.38v-32h12.63Z"/><path class="cls-1" d="M266.8,99.22a20.33,20.33,0,0,1-1.73-2.6V109h-5.35V98.54a23.85,23.85,0,0,1-2.48,2l-1.56-6.81A16,16,0,0,0,262,86.35h-5.71V81h3.39V76.42h5.35V81h2.39V77.1h20v4.83h-20v4.42a29.79,29.79,0,0,1-1.83,4.28A32.33,32.33,0,0,0,268,93v-.45h18.64V109h-5v-1.2H273V109h-5V96ZM285.87,83v8.53H268.76V83ZM273,96.31V98.2h2.32V96.31Zm0,5.17v1.92h2.32v-1.92Zm.69-15V88H281v-1.5Zm5.68,9.82V98.2h2.31V96.31Zm0,5.17v1.92h2.31v-1.92Z"/><path class="cls-1" d="M304.27,81.18c-5.29.14-8.52,0-10.06-.07l-.65-4c1.54.07,3.23.18,5.88.18A170.56,170.56,0,0,0,319,76.18l1.69,4c-2,.24-5.25.58-11.09.85v1.2h12.86v3.9H309.59v1.1H319.9V98.4H309.59v1.17h11.19v3.35H309.59v1.23h12.89v4.11H291.73v-4.11h12.54v-1.23H293.33V99.57h10.94V98.4H294.21V87.24h10.06v-1.1H291.8v-3.9h12.47Zm-4.74,9.11v1.2h4.74v-1.2Zm0,3.87v1.19h4.74V94.16Zm10.06-3.87v1.2h4.93v-1.2Zm0,3.87v1.19h4.93V94.16Z"/><path class="cls-1" d="M339.48,109.05H326.84V103.4h7.25V77h5.39Z"/><path class="cls-1" d="M352.72,94.64c-.49.58-.68.78-1.21,1.37l-1.24-8.22c3.1-4.14,3.82-9.08,4.08-11.51l5.19.48c0,.21-.16,1.17-.19,1.41h8.12V76.45h5.19v1.72h9v4.14H359.18v-3A49.57,49.57,0,0,1,357.81,85v24.07h-5.09ZM379.45,99v2.74h-6.33v3.83c0,3.26-1.83,3.46-3.59,3.46h-6.07l-.75-4.72h4.37c.69,0,.82-.35.82-.89v-1.68h-7V99h-2V92.38h22.42V99Zm.33-15.65v7.84H360.36V83.37Zm-3.36,12.88h-12.7v1.37h12.7Zm-10.84-9.69v1.5h8.88v-1.5Z"/><path class="cls-1" d="M385.58,81.49a14.09,14.09,0,0,0,4.83-5.31l5.06,1.54a29.48,29.48,0,0,1-7.77,9.59Zm8,24.21V109h-5.16V97.62c-.58.54-.91.82-1.5,1.33l-1.34-7.19a26.28,26.28,0,0,0,6.53-7.6l4,2.63h7.63V84.43h-7.21v-5.2h7.21V76.39h5.29v2.84h7.21v5.2h-7.21v2.36h8V92h-8v2.33h6.76v5.2h-6.76V103c.65,0,1.8.1,3.53.1,2.08,0,3.49-.07,4.86-.14l-1.08,5.41c-10.31.11-13.12-.17-16.55-4.21a17.56,17.56,0,0,1-3.23,5.21Zm8.45-12a38,38,0,0,1-.65,5,7.55,7.55,0,0,0,2.38,2.6V92h-7.93V88.16a25.72,25.72,0,0,1-2.25,3.6V104.5c1.21-1.37,3.13-4.08,3.62-11.2Z"/><path class="cls-1" d="M422.42,103.61c2.09,0,10.81-.07,15.41-2.43a3.21,3.21,0,0,1-1,.13h-6.27l-.85-4.62a21,21,0,0,1-5.15,4.11l-3.43-4.52A21,21,0,0,0,428,90.84h-6.52V85.67h4.4V78h5.35v7.71h3.3V76.56h5.32v2.15H450v5H439.85v1.92h12.5v5.17h-6.1a31.45,31.45,0,0,0,6.69,5.61l-3.43,4.45a33.6,33.6,0,0,1-7.9-7.67l3.46-2.39h-5.22V98a3.23,3.23,0,0,1-.78,2.39,15.23,15.23,0,0,0,4.11-4.14l3.85,3.77c-2.41,3.22-7.24,8.8-22.85,9.21Zm10.22-10.38a15.16,15.16,0,0,1-2.55,3.08h3.46c1,0,1-.92,1-1.23V90.84H429Z"/><path class="cls-1" d="M466.15,96.76c-1.7.2-2.74.51-2.74,2.53v.86h17.26v5.61h-23.1v-5.37c0-2.6,0-8.22,6.36-9l8.36-1c1.89-.24,2.77-.59,2.77-2.88s-.72-3.36-5.55-3.36c-5.45,0-5.65.72-5.71,4.08h-5.74c0-5.75.29-9.69,11-9.69,6.79,0,11.82.48,11.82,8.63,0,3.49-.85,5.27-2,6.33a8.1,8.1,0,0,1-4.8,2.26Z"/><path class="cls-1" d="M490.75,91.21c-.78.72-1.27,1.13-2,1.75l-3.52-5.27a21.18,21.18,0,0,0,9-11.41l5.36,1.06a32.33,32.33,0,0,1-5.52,10.31h14.53a42.47,42.47,0,0,1-5.46-10.13l5.36-1.31c1.73,4.08,4.31,8.6,9,11.82L513.86,93a21,21,0,0,1-1.79-1.47c-.23,5.82-.46,12.15-1.54,14.79a3.84,3.84,0,0,1-4.14,2.81h-6.11l-1.07-5.69H504a1.61,1.61,0,0,0,1.46-.79c.27-.54.79-3.63,1-9.51h-5.54c-1,8.59-5.49,13-12.18,16.09l-3.16-5.45c8.55-3,9.56-7.8,9.79-10.64h-4.64Z"/><rect class="cls-1" x="56.71" y="127.29" width="536.57" height="53.21" rx="23.62"/><path class="cls-1" d="M284.39,34.51H273.58v4.22h9.59V61.59h-4V60.12H258.88v1.47h-4.09V38.73h8V34.51h-9.3v-4h30.85Zm-25.51,8.1V56.13h20.27V42.61h-5.57v6c0,.44.2.82.56.82h.73c.72,0,1.05-.58,1.05-4l3,.68c-.33,5.09-.85,6.87-3.06,6.87h-3.1c-1.52,0-3-.27-3-2.75V42.61h-3.36a17.48,17.48,0,0,1-4.74,11.53L259,51a12.5,12.5,0,0,0,3.89-8.37Zm7.65-8.1v4.22h3.29V34.51Z"/><path class="cls-1" d="M290.72,30.56h29.2v4.08h-25v21.8h25.74v4.09H294.91v1.3h-4.19Zm5.08,21.56a36.6,36.6,0,0,0,9.29-6.8,68.56,68.56,0,0,0-7.84-4.15l2.17-3.4a81.65,81.65,0,0,1,8.34,4.43,34,34,0,0,0,4.06-7L316,36.81a46.79,46.79,0,0,1-4.72,7.65A76.32,76.32,0,0,1,319,50.64l-2.9,3.74a67.73,67.73,0,0,0-7.61-6.69,52.49,52.49,0,0,1-10.09,7.86Z"/><path class="cls-1" d="M336.34,51.4a43.42,43.42,0,0,1-2.54-3.68V61.83h-3.92V49.65a19,19,0,0,1-3.17,2.74l-1.41-4.8a20.19,20.19,0,0,0,7.51-9H326V34.75h3.92V29.49h3.92v5.26H337v3.84a19.93,19.93,0,0,1-2.44,5,24.67,24.67,0,0,0,3.1,3.19V45.32h18.46V61.83h-3.76V60.5H341.45v1.33h-3.76V48.62Zm20.7-21v3.53H336.93V30.39Zm-2,5.08v8.31H338.74V35.47ZM341.45,48.38v3h3.85v-3Zm0,5.8v3h3.85v-3Zm1.12-15.83v2.54h8.7V38.35Zm6,10v3h3.86v-3Zm0,5.8v3h3.86v-3Z"/><path class="cls-1" d="M375.69,33.78c-1.51,0-9,.18-10.68.14l-.72-3.29c1.61,0,2.9.06,4.94.06a134.12,134.12,0,0,0,20.34-1.37L391,32.51a108.18,108.18,0,0,1-11.34,1.17V35.3h13.54v3.29H379.65V40h10.84V51.47H379.65V53h11.63v3H379.65v1.51h13.71v3.37H362.11V57.54h13.58V56H364.22V53h11.47V51.47H365V40h10.68V38.59H362.38V35.3h13.31Zm-6.66,9v1.71h6.66V42.75ZM369,47v1.72h6.66V47Zm10.62-4.22v1.71h6.79V42.75Zm0,4.22v1.72h6.79V47Z"/><path d="M221.3,206.3h1.44v17.77h3.95v1.12h-3.95v4.06c0,1.54.77,2.14,2.45,2.14h.56v1.12h-8.89v-1.12h.56c1.64,0,2.45-.56,2.45-2.14v-4.06h-9.41V224Zm-1.43,4.62-8.08,13.15h8.08Z"/><path d="M240.93,233.17a11.76,11.76,0,0,1-3.74-.7,3.85,3.85,0,0,0-1.44-.35,6.24,6.24,0,0,0-2.8,1l-2.59-6.75,1.33-.63a12.51,12.51,0,0,0,2.77,3.64,9.62,9.62,0,0,0,6.3,2.59,5.05,5.05,0,0,0,5.18-5.29c0-3.22-2.07-4.34-6.51-5.88-4.94-1.68-8.12-3.49-8.12-7.69a6.6,6.6,0,0,1,7-6.79,11.54,11.54,0,0,1,2.49.28c.38.07,1.82.38,2.1.38a2.44,2.44,0,0,0,2-.66l2.41,6.16-1.05.42c-1.12-2-3.15-5.43-7.63-5.43a4.47,4.47,0,0,0-4.79,4.62c0,2.91,2.1,4,6.68,5.6,6.68,2.31,8,4.9,8,7.94A7.41,7.41,0,0,1,240.93,233.17Z"/><path d="M262.77,208.12h-1.23a2.24,2.24,0,0,0-2.48,2.41V229a2.25,2.25,0,0,0,2.48,2.42h.95a10.61,10.61,0,0,0,9.48-5.78l.91.46-2.49,6.44H252.58v-1.12h1.19a2.27,2.27,0,0,0,2.52-2.42V210.53a2.26,2.26,0,0,0-2.52-2.41h-1.19V207h10.19Z"/><path d="M277.15,207h10c8.19,0,13.26,4.2,13.26,12.6,0,6-3.15,12.95-12.95,12.95H277.15v-1.12h1.19a2.26,2.26,0,0,0,2.52-2.42V210.53a2.26,2.26,0,0,0-2.52-2.41h-1.19Zm6.47,22a2.25,2.25,0,0,0,2.49,2.42h1.67c6.34,0,9.52-5.67,9.52-12.11,0-4.44-1.82-11.16-9.38-11.16h-1.81a2.25,2.25,0,0,0-2.49,2.41Z"/><path d="M317.46,216.76l7.76,12.42a5,5,0,0,0,4.13,2.21h.49v1.12h-9.9v-1.12h.84a1.28,1.28,0,0,0,1.4-1.16,2.84,2.84,0,0,0-.49-1.43l-6.19-9.9-3.33,3.6V229a2.28,2.28,0,0,0,2.52,2.42h1v1.12h-9.73v-1.12h1a2.25,2.25,0,0,0,2.49-2.42V210.53a2.25,2.25,0,0,0-2.49-2.41h-1V207h9.73v1.16h-1a2.27,2.27,0,0,0-2.52,2.41v10.32l9.56-10.42a1.79,1.79,0,0,0,.45-1.12c0-1-1.09-1.19-1.86-1.19h-.9V207h9.86v1.16h-.63a6.85,6.85,0,0,0-5.6,2.52Z"/><path d="M334.78,223h6.05v-6h1.24v6h6.08v1.25h-6.08v6h-1.24v-6h-6.05Z"/><path d="M378.27,215.44c-1.39,0-1.95.8-2.27,2.05L372.1,233h-.58l-3.95-14-4.23,14h-.52l-4-15.53c-.45-1.71-1.18-2-2-2h-.61v-.81h6.46v.81h-.61c-1,0-1.42.36-1.42,1.12a4.19,4.19,0,0,0,.22,1.23l2.89,11.12,3.43-11.34c-.46-1.47-.83-2.13-2.13-2.13h-.51v-.81h6.61v.81h-.86a1.07,1.07,0,0,0-1.22,1.17,5.09,5.09,0,0,0,.24,1.42l3,10.78,2.81-11.22a4.19,4.19,0,0,0,.15-1c0-.89-.81-1.2-1.49-1.2H373v-.81h5.71v.81Z"/><path d="M388.64,231.18a1.42,1.42,0,0,1-1.42,1.42,1.42,1.42,0,0,1,0-2.84A1.42,1.42,0,0,1,388.64,231.18Z"/><path d="M395.32,232.51v-.79h1.18a1.57,1.57,0,0,0,1.74-1.69v-12.9a1.57,1.57,0,0,0-1.74-1.69h-1.18v-.81h7.79v.81h-1.17a1.56,1.56,0,0,0-1.74,1.69V230a1.57,1.57,0,0,0,1.74,1.69h1.17v.79Z"/><path d="M412.67,231.18a1.42,1.42,0,0,1-1.42,1.42,1.42,1.42,0,0,1,0-2.84A1.42,1.42,0,0,1,412.67,231.18Z"/><path d="M433.53,219c-.88-1.37-2.67-4-5.92-4-3.95,0-5.88,4-5.88,8.25,0,4.75,2.33,8.62,6.44,8.62,3.48,0,5.17-3.18,5.83-4.43l.64.39c-.94,1.89-2.67,5.17-7.23,5.17-5.17,0-7.69-4.19-7.69-9,0-5.73,3.55-9.8,7.72-9.8a7.46,7.46,0,0,1,2.05.3c.17,0,1.33.36,1.47.36a3.42,3.42,0,0,0,1.64-.58l1.74,4.4Z"/><path d="M137.6,256.72l.85-1.12c.12-.16.19-.25.31-.25s.15.05.39.23l1.39,1.1a.43.43,0,0,1,.21.33c0,.19-.18.21-.33.21h-6.91c0,.68,0,3.67,0,4.27,0,.21,0,4.52,0,5.12H139l1-1.12c.14-.16.2-.24.31-.24s.18.06.39.22l1.37,1.1c.1.09.21.19.21.31s-.19.23-.31.23H126.4a14.51,14.51,0,0,0-2.45.19l-.41-.83c1.39.12,2.8.14,3.19.14H132c0-.18,0-4.58,0-5.06v-4.33h-4.38a14.41,14.41,0,0,0-2.44.19l-.42-.81c1.39.1,2.8.12,3.2.12h4c0-4.7,0-5.24-.52-6.76l2.51.67c.21.06.33.1.33.29a.38.38,0,0,1-.18.31c-.09.08-.48.39-.61.47,0,1.68,0,3.34,0,5Z"/><path d="M154,256.85h-2.42v6.67c1.68-.49,2.15-.68,2.63-.85l.08.17a21.73,21.73,0,0,1-3,1.76l-2.55,1.29c-.19.43-.27.66-.52.66a.43.43,0,0,1-.33-.25l-1.08-1.84c.7,0,1.06.08,3.4-.56,0-.71,0-3.86,0-4.5v-2.55h-.41a14.53,14.53,0,0,0-2.45.18l-.4-.83c1.23.11,2.47.15,3.26.15,0-1,0-2.07,0-3.11a11.47,11.47,0,0,0-.27-3.07l2.09.71c.11,0,.29.12.29.31s-.41.56-.7.74c0,1.45,0,2.16-.06,4.42H152l.63-.68c.18-.21.25-.27.35-.27s.25.14.35.22l.73.69c.1.1.18.18.18.31S154.09,256.85,154,256.85Zm9.27,10.61c-.47.09-4.14.09-4.73.09-3.4,0-4-.17-4-2.43,0-.81.07-4.37.07-5.1,0-.21,0-1.14,0-1.33a11.45,11.45,0,0,0-2,1.1l-.7-.58a28.36,28.36,0,0,0,2.71-1.08v-3.67a10.83,10.83,0,0,0-.22-2.4l1.92.66c.15,0,.32.13.32.29s-.17.33-.67.69c0,.62,0,3.31,0,3.85l2.26-1c0-2.08,0-3.55,0-5a14.16,14.16,0,0,0-.25-1.83l2,.67c.21.06.35.16.35.31s-.29.43-.72.77c0,1.86,0,2.13,0,4.5l2-.9.5-.83c.1-.16.2-.35.35-.35a.76.76,0,0,1,.39.17l1,.6a.43.43,0,0,1,.2.33c0,.25-.22.46-.51.73,0,6.22,0,7.65-2.47,8.29a2.64,2.64,0,0,0-1.25-1.74v-.1a4.76,4.76,0,0,0,.65,0c1.45,0,1.68-.19,1.68-4.56,0-1.41,0-1.64-.05-2.24l-2.46,1.12c0,3,0,5,.06,5.59,0,.27.06,1.5.06,1.75a1,1,0,0,1-1.06,1c-.29,0-.49-.1-.49-.54,0-.22.06-1.28.06-1.49,0-1.33,0-2.11.06-5.76l-2.26,1c0,.83,0,7.2,0,7.45a.69.69,0,0,0,.5.58c.27.08,3.23.08,3.63.08,2.13,0,2.78,0,3.21-.77a16.52,16.52,0,0,0,.91-2.51h.15a7.32,7.32,0,0,0,.39,2.47c.13.21.48.4.48.6S164.79,267.19,163.23,267.46Z"/><path d="M177,254.81a21.66,21.66,0,0,0,1.23-3.46h-5.41a14,14,0,0,0-2.45.19l-.42-.83c1.06.08,2.12.14,3.2.14h12.36l.91-.89a1.23,1.23,0,0,1,.39-.31c.11,0,.19.06.4.23l1.16.93c.08.07.21.19.21.31s-.21.23-.34.23h-8.06a36.1,36.1,0,0,1-2.68,3.46h7.55l.58-.6c.21-.2.27-.27.4-.27s.26.13.37.21l.95.81a.38.38,0,0,1,.17.27c0,.19-.08.25-.83.66,0,2.35,0,5.31,0,7.66,0,1,.1,2.5.1,3.46a.92.92,0,0,1-1,1c-.63,0-.63-.33-.58-1.51h-11.8c0,.08,0,.56,0,.66a1,1,0,0,1-1,1c-.66,0-.66-.46-.66-.65s.06-1.1.06-1.26c0-2.26.15-7,.15-9a15,15,0,0,0-.29-3.4l2.13,1Zm-3.58.5V266h2.75V255.31Zm7.32,3.15v-3.15h-3.18v3.15Zm0,3.63V259h-3.18v3.13Zm0,3.88v-3.38h-3.18V266Zm4.48,0V255.31h-3.07V266Z"/><path d="M192.39,263.67a26.65,26.65,0,0,0,3.86-7.94h-.48a15.47,15.47,0,0,0-2.44.18l-.4-.83c1.18.11,2.39.15,3.47.15,0-1,0-2.47,0-3.36a19.93,19.93,0,0,1-3.39.37v-.16a34.87,34.87,0,0,0,5.6-2.32,1.49,1.49,0,0,0,.44-.5l1.43,1.2a.37.37,0,0,1,.14.29c0,.21-.2.21-.39.21l-.6,0a18,18,0,0,1-1.93.62c0,.95,0,2.86,0,3.67h.4l.49-.75c.09-.12.19-.27.31-.27s.29.15.4.23l.89.75a.46.46,0,0,1,.21.33c0,.21-.21.21-.31.21h-2.39c0,.39,0,1.32,0,1.82,2,.73,2.72,2,2.72,2.62a.79.79,0,0,1-.77.82c-.5,0-.56-.2-1-1.36a3.78,3.78,0,0,0-1-1.81c0,3.61,0,4,.09,5.6,0,1.41.08,3.05.08,3.8,0,.37,0,1.2-1,1.2-.54,0-.6-.31-.6-.71,0-.68.17-3.73.19-4.35,0-2,0-2.84,0-4.65a13.55,13.55,0,0,1-3.92,5.06Zm6.66,4.38c1.45-.71,3.8-2.08,4.29-3l1.5,1.1a.36.36,0,0,1,.18.31c0,.29-.47.27-1,.27a16.56,16.56,0,0,1-4.94,1.43Zm9.21-16.51.52-.83c.1-.17.2-.29.31-.29s.27.14.39.25l1,.83a.43.43,0,0,1,.2.33c0,.19-.16.21-.31.21H206v1.7h1.66l.49-.75c.09-.12.17-.25.31-.25s.25.13.38.23l.85.73a.45.45,0,0,1,.21.33c0,.18-.19.2-.32.2H206v1.87h3.44l.6-.85c.1-.17.23-.27.33-.27s.25.13.38.25l.89.83c.1.1.21.21.21.33s-.17.21-.32.21h-8.62a13.9,13.9,0,0,0-2.45.19l-.41-.83c1,.08,2.13.14,3.19.14h1.35v-1.87h-.5a13.16,13.16,0,0,0-2.45.21l-.39-.83c.62,0,1.53.13,3.34.13,0-.81,0-1.31,0-1.7H203.2a14.47,14.47,0,0,0-2.45.18l-.41-.83c1.51.13,2.84.15,3.19.15h1a6,6,0,0,0-.38-2.22l2.12.64a.32.32,0,0,1,.29.31c0,.27-.48.5-.58.54v.73Zm-.48,6.49.48-.52c.08-.08.2-.21.29-.21s.25.13.33.19l.81.68a.56.56,0,0,1,.23.38c0,.21-.25.37-.6.54a4.83,4.83,0,0,0,0,.76c0,.71.17,3.8.17,4.42a.85.85,0,0,1-1,1c-.54,0-.54-.27-.52-.71h-4.94c0,.48.06,1-.93,1-.35,0-.54-.1-.54-.47,0,0,0-.21,0-.5,0-.77,0-3,0-3.92a13.89,13.89,0,0,0-.22-3.28l1.63.73Zm-4.73.5V260H208v-1.47Zm0,2V262H208V260.5Zm0,2V264H208v-1.53Zm3.49,2.82c1.86.16,4.5,1.1,4.5,2.34a.84.84,0,0,1-.83.81c-.48,0-1-.52-1.31-.91a10.22,10.22,0,0,0-2.36-2.1Z"/><path d="M218.44,254.79a1.22,1.22,0,0,1-1.2,1.21,1.2,1.2,0,0,1-1.2-1.21,1.2,1.2,0,1,1,2.4,0Zm0,8.17a1.21,1.21,0,0,1-1.2,1.21,1.21,1.21,0,0,1,0-2.41A1.2,1.2,0,0,1,218.44,263Z"/><path d="M223.4,266.1h1.14c1.08,0,1.45-.42,1.45-1.27V253.61c0-.64-.6-.74-1-.74h-1.58v-.65h.37a7.9,7.9,0,0,0,3.38-.87c.15-.08.21-.12.29-.12s.23.12.23.29v13.31c0,.89.44,1.27,1.45,1.27h1.14v.66H223.4Z"/><path d="M243.2,266.76h-8.15v-.56a14.13,14.13,0,0,1,3-4.65c3.05-3.52,4.09-4.7,4.09-6.78a2.67,2.67,0,0,0-2.76-2.84c-1.45,0-2.32.87-2.32,1.62a1.13,1.13,0,0,0,.21.64,1.88,1.88,0,0,1,.43,1,1.15,1.15,0,0,1-1.12,1.16,1.3,1.3,0,0,1-1.18-1.45,4.15,4.15,0,0,1,4.46-3.71c2.57,0,4.14,1.62,4.14,3.85s-1.2,3.24-3.07,4.84c-.7.58-3.44,2.92-4.47,5.2h2.86c2.9,0,3.59-1.12,4.21-2.84l.62.23Z"/><path d="M254.18,251.23H255v10.53h2.34v.67H255v2.4c0,.91.45,1.27,1.45,1.27h.33v.66h-5.27v-.66h.33c1,0,1.46-.34,1.46-1.27v-2.4h-5.58v-.73Zm-.85,2.74-4.8,7.79h4.8Z"/><path d="M263.36,266a1.2,1.2,0,1,1-1.2-1.2A1.22,1.22,0,0,1,263.36,266Z"/><path d="M276.37,251.62v1.1c-3.3,5.08-4.46,8-4.73,12.59,0,.54-.11,1.84-1.16,1.84a1.09,1.09,0,0,1-1.06-1.14c0-1.47,1.45-5.82,5.83-12.75H271.7c-3,0-3.46,1.39-3.92,2.72l-.62-.15.85-4.21Z"/><path d="M281.68,253.26l-.19,5.23a4.37,4.37,0,0,1,3.21-1.44c3,0,4.42,2.47,4.42,4.75a5.26,5.26,0,0,1-5.12,5.35c-2.37,0-3.92-1.76-3.92-3a1.18,1.18,0,0,1,1.2-1.28,1,1,0,0,1,1.08,1.08,2.2,2.2,0,0,1-.1.62,3.36,3.36,0,0,0-.07.58c0,.89.94,1.35,1.77,1.35,1.68,0,3.25-1.6,3.25-4.38,0-2.63-1.39-4.08-2.9-4.08a4.51,4.51,0,0,0-3.24,1.8l-.31-.16.31-8h7.22l-.41,1.64Z"/><path d="M296.17,256.56v1.64a4.67,4.67,0,0,1,3.42-1.64,2.29,2.29,0,0,1,2.49,1.86,5.2,5.2,0,0,1,3.71-1.86c1.83,0,2.66,1.1,2.66,3.4v4.89c0,.79.41,1.25,1,1.25h.37v.66h-4.33v-.66h.39c.73,0,1-.56,1-1.25v-4.77c0-.58-.09-2.63-1.81-2.63a3.9,3.9,0,0,0-2.94,1.8,5.05,5.05,0,0,1,0,.71v4.89c0,.87.48,1.25,1,1.25h.6v.66h-4.77v-.66h.6c.58,0,1.06-.4,1.06-1.25v-4.77c0-.43-.07-2.63-1.81-2.63a3.71,3.71,0,0,0-2.8,1.64v5.76c0,.87.48,1.25,1,1.25h.37v.66h-4.31v-.66h.37c.63,0,1-.44,1-1.25v-6.24a.85.85,0,0,0-.85-1,1.83,1.83,0,0,0-.62.08l-.11-.4Zm10.72-1.23A11.76,11.76,0,0,1,308.1,254c.43-.48,1.18-1.29,1.18-2,0-.27-.17-.77-.64-.77a.69.69,0,0,0-.71.56c0,.08.19.45.19.54a.57.57,0,0,1-.58.54.65.65,0,0,1-.63-.71,1.76,1.76,0,0,1,1.83-1.49,1.4,1.4,0,0,1,1.51,1.41,1.66,1.66,0,0,1-.64,1.35c-.23.22-1.51,1.26-1.72,1.55h1.28a.84.84,0,0,0,.81-.7l.34.1-.44,1.43h-3Z"/><path d="M355,267.67c-7.53-.1-10.77-.14-13.57-2.86a9.61,9.61,0,0,1-4.23,3.59l-.12-.13a13.09,13.09,0,0,0,3.59-4.31,10.09,10.09,0,0,1-1.93-4l.21-.17a9.24,9.24,0,0,0,2.09,3.4,14.27,14.27,0,0,0,1.16-5.64h-1.74c-.41,1.16-.52,1.47-1.2,1.47-.15,0-.75,0-.75-.47a12.11,12.11,0,0,1,.5-1.47c1.08-2.78,1.93-5,2.18-6h-.75a13.55,13.55,0,0,0-2.45.19l-.39-.83c1.06.08,2.11.15,3.17.15h.37l.54-.44c.19-.14.29-.21.4-.21a.8.8,0,0,1,.35.21l.81.69a.44.44,0,0,1,.21.37c0,.25-.42.43-1,.66-.45,1.16-.72,1.87-1.86,5.14H342l.56-.43a.75.75,0,0,1,.39-.21c.15,0,.25.08.39.23l.65.66a.72.72,0,0,1,.25.44c0,.19-.21.31-.65.58a14.1,14.1,0,0,1-1.7,5.7,11.42,11.42,0,0,0,7.22,2.06,46.55,46.55,0,0,0,7.3-.61l0,.17A2.54,2.54,0,0,0,355,267.67Zm1.22-12.92h-2.86c.08,2.47.08,2.47.08,2.62,0,.41,0,1.05-1,1.05-.56,0-.54-.33-.52-.68h-2.55v2.16h3.11l.62-.79c.14-.17.23-.27.35-.27s.23.1.4.23l.93.78c.1.11.21.23.21.32s-.15.22-.31.22h-5.31l0,2.2h3.69l.79-.91c.16-.19.25-.27.35-.27s.23.08.37.23l1,.91a.49.49,0,0,1,.2.35c0,.13-.12.19-.31.19h-6.07c0,.25,0,1.47,0,1.74a1,1,0,0,1-.91.75c-.67,0-.67-.38-.67-.6s.11-1.58.11-1.89h-1.42a14.61,14.61,0,0,0-2.42.19l-.42-.81c1.62.12,3.16.12,3.2.12h1.08c0-.56,0-1.08,0-2.2h-.62a13.78,13.78,0,0,0-2.43.19l-.42-.81c.63,0,1.79.13,3.49.13v-2.16h-.42a14.8,14.8,0,0,0-2.44.19l-.42-.81c1.49.1,3.07.12,3.28.12l0-2.49h-1.93a13.85,13.85,0,0,0-2.43.19l-.41-.83c1.06.1,2.11.15,3.17.15H348l0-2.43h-.5A16.05,16.05,0,0,0,345,252l-.39-.83c1.45.12,2.8.14,3.32.14a3.7,3.7,0,0,0-.31-1.93l2,.48c.23.06.35.14.35.33s-.25.37-.58.56v.56h2.41l.51-.45c.15-.13.25-.21.38-.21s.22.1.37.23l.58.56a.58.58,0,0,1,.25.39c0,.17-.17.29-.58.58a11.54,11.54,0,0,0,0,1.83h.74l.61-.77c.12-.17.22-.25.33-.25a.63.63,0,0,1,.39.21l.89.76c.11.11.21.21.21.31S356.4,254.75,356.19,254.75Zm-4.25,0h-2.57l0,2.49h2.59Zm0-2.92h-2.53l0,2.43h2.57Z"/><path d="M366.21,260.64c0,2.51,0,2.95,0,4.15,0,.73.08,1.89.08,2.61s-.89,1-1.08,1c-.45,0-.56-.27-.56-.58,0-.09.05-.85.05-1,.08-1.55.08-2.11.12-5.43a20.74,20.74,0,0,1-2.55,1.18c0,.37-.06.73-.39.73s-.36-.23-.42-.36l-1-1.86c1.28.06,1.63,0,4.35-.79,0-1.83,0-3.88,0-5.46H363a16.68,16.68,0,0,1-1.85,4.59l-.12,0a33.7,33.7,0,0,0,.93-7.2,3.51,3.51,0,0,0-.21-1.41l2,.48c.17,0,.35.08.35.31s-.29.41-.62.54a19.08,19.08,0,0,1-.35,2.24h1.72c0-2.93-.1-3.78-.56-4.81l2.28.66c.13,0,.31.14.31.29s-.35.44-.66.6c0,.44,0,2.63,0,3.26h.41l.58-.79c.11-.13.21-.27.32-.27a.66.66,0,0,1,.37.23l.83.79a.47.47,0,0,1,.18.31c0,.18-.18.22-.31.22h-2.38c0,1.33,0,3.65,0,5l2.72-.95.06.14A24.78,24.78,0,0,1,366.21,260.64ZM378.44,255c-.16,4.34-.33,8.28-1.63,11a4,4,0,0,1-3.22,2.1c-.14-.94-.48-1.52-1.76-2.45l.06-.15a9,9,0,0,0,2.51.44c.5,0,.83,0,1.41-1.47a31.68,31.68,0,0,0,1.16-10h-1.18c-.6,4.69-2.59,10.72-8.59,13l-.06-.14c4.4-3.3,6.26-6.8,7.14-12.84h-1.17c-.85,4.38-3.19,8.15-6.2,9.56l-.06-.12a17.71,17.71,0,0,0,4.75-9.44h-1a13,13,0,0,1-2.8,4.13l-.1-.11a23.21,23.21,0,0,0,2.68-8.46,2.22,2.22,0,0,0-.11-.7l2.08.83c.2.08.31.21.31.33,0,.27-.4.37-.73.46-.54,1.66-.89,2.5-1.1,3h6l.5-.52c.13-.14.23-.22.31-.22a.9.9,0,0,1,.38.18l1,.73c.15.1.23.17.23.29C379.15,254.69,378.67,254.92,378.44,255Z"/><path d="M391.22,254.81a20.62,20.62,0,0,0,1.22-3.46H387a14.05,14.05,0,0,0-2.45.19l-.41-.83c1.06.08,2.11.14,3.19.14h12.36l.91-.89a1.35,1.35,0,0,1,.4-.31c.1,0,.19.06.39.23l1.16.93a.47.47,0,0,1,.21.31c0,.21-.21.23-.33.23h-8.07a36.11,36.11,0,0,1-2.67,3.46h7.55l.58-.6c.2-.2.27-.27.39-.27a.88.88,0,0,1,.37.21l1,.81a.39.39,0,0,1,.16.27c0,.19-.08.25-.83.66,0,2.35,0,5.31.05,7.66,0,1,.1,2.5.1,3.46a.93.93,0,0,1-1,1c-.62,0-.62-.33-.58-1.51h-11.8c0,.08,0,.56,0,.66a1,1,0,0,1-1,1c-.67,0-.67-.46-.67-.65s.07-1.1.07-1.26c0-2.26.14-7,.14-9a14.47,14.47,0,0,0-.29-3.4l2.14,1Zm-3.59.5V266h2.76V255.31Zm7.32,3.15v-3.15h-3.17v3.15Zm0,3.63V259h-3.17v3.13Zm0,3.88v-3.38h-3.17V266Zm4.48,0V255.31h-3.07V266Z"/><path d="M406.61,263.67a26.89,26.89,0,0,0,3.86-7.94H410a15.58,15.58,0,0,0-2.45.18l-.39-.83c1.18.11,2.38.15,3.46.15,0-1,0-2.47,0-3.36a19.71,19.71,0,0,1-3.38.37v-.16a34.87,34.87,0,0,0,5.6-2.32,1.62,1.62,0,0,0,.44-.5l1.43,1.2a.37.37,0,0,1,.14.29c0,.21-.21.21-.39.21l-.6,0a18.8,18.8,0,0,1-1.93.62c0,.95,0,2.86,0,3.67h.39l.5-.75c.08-.12.19-.27.31-.27s.29.15.39.23l.9.75a.45.45,0,0,1,.2.33c0,.21-.2.21-.31.21H411.9c0,.39,0,1.32,0,1.82,2,.73,2.71,2,2.71,2.62a.79.79,0,0,1-.76.82c-.5,0-.56-.2-1-1.36a3.77,3.77,0,0,0-1-1.81c0,3.61,0,4,.08,5.6,0,1.41.08,3.05.08,3.8,0,.37,0,1.2-1,1.2-.54,0-.6-.31-.6-.71,0-.68.16-3.73.18-4.35,0-2,0-2.84,0-4.65a13.55,13.55,0,0,1-3.92,5.06Zm6.66,4.38c1.45-.71,3.79-2.08,4.29-3l1.49,1.1a.35.35,0,0,1,.19.31c0,.29-.48.27-1,.27a16.42,16.42,0,0,1-4.93,1.43Zm9.2-16.51.52-.83c.11-.17.21-.29.31-.29s.27.14.4.25l1,.83a.42.42,0,0,1,.21.33c0,.19-.17.21-.31.21h-4.4v1.7h1.66l.5-.75c.08-.12.17-.25.31-.25s.25.13.37.23l.85.73a.43.43,0,0,1,.21.33c0,.18-.19.2-.31.2h-3.59v1.87h3.44l.61-.85c.1-.17.22-.27.33-.27s.25.13.37.25l.89.83a.51.51,0,0,1,.21.33c0,.21-.16.21-.31.21h-8.63a13.74,13.74,0,0,0-2.44.19l-.42-.83c1.06.08,2.14.14,3.19.14h1.35v-1.87h-.49a13.1,13.1,0,0,0-2.45.21l-.4-.83c.63,0,1.54.13,3.34.13,0-.81,0-1.31,0-1.7h-1.37a14.37,14.37,0,0,0-2.44.18l-.42-.83c1.52.13,2.84.15,3.2.15h1a6,6,0,0,0-.37-2.22l2.11.64a.31.31,0,0,1,.29.31c0,.27-.47.5-.58.54v.73ZM422,258l.47-.52c.09-.08.21-.21.29-.21s.25.13.34.19l.8.68a.52.52,0,0,1,.23.38c0,.21-.25.37-.6.54a7.23,7.23,0,0,0,0,.76c0,.71.17,3.8.17,4.42a.86.86,0,0,1-1,1c-.54,0-.54-.27-.52-.71h-4.93c0,.48.06,1-.93,1-.36,0-.54-.1-.54-.47,0,0,0-.21,0-.5,0-.77,0-3,0-3.92a13.3,13.3,0,0,0-.23-3.28l1.64.73Zm-4.73.5V260h4.93v-1.47Zm0,2V262h4.93V260.5Zm0,2V264h4.93v-1.53Zm3.48,2.82c1.87.16,4.5,1.1,4.5,2.34a.83.83,0,0,1-.83.81c-.47,0-.95-.52-1.3-.91a10.57,10.57,0,0,0-2.37-2.1Z"/><path d="M432.66,254.79a1.22,1.22,0,0,1-1.21,1.21,1.21,1.21,0,0,1-1.2-1.21,1.21,1.21,0,0,1,2.41,0Zm0,8.17a1.21,1.21,0,0,1-1.21,1.21,1.21,1.21,0,0,1,0-2.41A1.21,1.21,0,0,1,432.66,263Z"/><path d="M437.61,266.1h1.14c1.08,0,1.46-.42,1.46-1.27V253.61c0-.64-.6-.74-1-.74h-1.57v-.65H438a7.9,7.9,0,0,0,3.38-.87.63.63,0,0,1,.29-.12c.18,0,.23.12.23.29v13.31c0,.89.43,1.27,1.45,1.27h1.14v.66h-6.89Z"/><path d="M453.91,267.15a4.19,4.19,0,0,1-3.4-2.24,12.9,12.9,0,0,1-1.26-5.91c0-4.41,1.89-7.77,4.66-7.77,2.14,0,4.67,2.3,4.67,8C458.58,264.27,456.44,267.15,453.91,267.15Zm-2.32-12.46a18.85,18.85,0,0,0-.47,4.5c0,4.62,1.09,7.26,2.79,7.26,1.44,0,2.08-1.91,2.31-2.7a19.28,19.28,0,0,0,.49-4.56c0-4.73-1.14-7.26-2.8-7.26C452.44,251.93,451.8,254,451.59,254.69Z"/><path d="M463.33,266.1h1.14c1.08,0,1.45-.42,1.45-1.27V253.61c0-.64-.6-.74-1-.74h-1.58v-.65h.38a8,8,0,0,0,3.38-.87c.14-.08.2-.12.29-.12s.22.12.22.29v13.31c0,.89.44,1.27,1.45,1.27h1.15v.66h-6.89Z"/><path d="M477.58,266a1.21,1.21,0,1,1-1.2-1.2A1.22,1.22,0,0,1,477.58,266Z"/><path d="M489.46,266.76h-8.15v-.56a14.13,14.13,0,0,1,3.05-4.65c3.05-3.52,4.08-4.7,4.08-6.78a2.66,2.66,0,0,0-2.75-2.84c-1.45,0-2.33.87-2.33,1.62a1.13,1.13,0,0,0,.21.64,1.82,1.82,0,0,1,.44,1,1.15,1.15,0,0,1-1.12,1.16,1.3,1.3,0,0,1-1.18-1.45,4.15,4.15,0,0,1,4.45-3.71c2.58,0,4.15,1.62,4.15,3.85s-1.2,3.24-3.07,4.84c-.7.58-3.44,2.92-4.48,5.2h2.87c2.9,0,3.58-1.12,4.2-2.84l.63.23Z"/><path d="M500.43,251.23h.85v10.53h2.35v.67h-2.35v2.4c0,.91.46,1.27,1.45,1.27h.34v.66H497.8v-.66h.33c1,0,1.45-.34,1.45-1.27v-2.4H494v-.73Zm-.85,2.74-4.79,7.79h4.79Z"/><path d="M510.39,256.56v1.64a4.67,4.67,0,0,1,3.42-1.64,2.3,2.3,0,0,1,2.49,1.86,5.16,5.16,0,0,1,3.71-1.86c1.82,0,2.65,1.1,2.65,3.4v4.89c0,.79.42,1.25,1,1.25h.37v.66h-4.33v-.66h.39c.73,0,1-.56,1-1.25v-4.77c0-.58-.08-2.63-1.8-2.63a3.92,3.92,0,0,0-3,1.8,5.05,5.05,0,0,1,0,.71v4.89c0,.87.48,1.25,1,1.25h.6v.66h-4.77v-.66h.6c.59,0,1.06-.4,1.06-1.25v-4.77c0-.43-.06-2.63-1.8-2.63a3.68,3.68,0,0,0-2.8,1.64v5.76c0,.87.47,1.25,1,1.25h.37v.66h-4.32v-.66h.38c.62,0,1-.44,1-1.25v-6.24a.86.86,0,0,0-.85-1,1.93,1.93,0,0,0-.63.08l-.1-.4Zm10.72-1.23a12.43,12.43,0,0,1,1.2-1.32,3.71,3.71,0,0,0,1.18-2c0-.27-.16-.77-.64-.77a.68.68,0,0,0-.7.56c0,.08.18.45.18.54a.57.57,0,0,1-.58.54.65.65,0,0,1-.62-.71,1.75,1.75,0,0,1,1.82-1.49,1.4,1.4,0,0,1,1.52,1.41,1.69,1.69,0,0,1-.64,1.35c-.23.22-1.52,1.26-1.73,1.55h1.29a.84.84,0,0,0,.81-.7l.33.1-.43,1.43h-3Z"/><path class="cls-2" d="M110.54,165.4a24.3,24.3,0,0,0,6.69-6.42H111.5v-3.16h6.69v-3.19h-6.86V149.5H115a28.66,28.66,0,0,0-1-4.91h-2v-3.12h6.2v-2.85h3.16v2.85h5.7v3.12H125.5c-.69,3.16-.76,3.54-1.18,4.91h3.23v3.13h-6.2v3.19h5.44V159H122a17.07,17.07,0,0,0,4,3.91L124.38,166a17.89,17.89,0,0,1-3-3.67v8.62h-3.16v-8.55a25.72,25.72,0,0,1-5.84,6.18ZM117,144.59a40.72,40.72,0,0,1,1,4.91h3.33a40.21,40.21,0,0,0,1-4.91Zm25.15-2.74A26.2,26.2,0,0,1,132,144.42v5.22h10.19v3.3h-3.23v18h-3.43v-18H132v.92c0,9.58-1.81,13.25-4.41,17.07l-3.2-2.3c2.87-3.57,4.32-7.08,4.32-14.66V141.19a23.66,23.66,0,0,0,11.6-2.57Z"/><path class="cls-2" d="M159.62,155.41c-2.28.51-9.46,1.68-11.67,2l-.53-3.15c.3,0,4.68-.48,5.47-.59v-3.43H149v-2.75h.23l-2.07-2.23a16.42,16.42,0,0,0,5-6.69l3.23.61a11.53,11.53,0,0,1-.52,1.45h7.71v2.74h-5c.36.66.62,1.17.89,1.79l-3.23,1.23a17.23,17.23,0,0,0-1.06-3h-.85a19.1,19.1,0,0,1-3.5,4.12h10.09v2.75H156v3.09c2.24-.28,2.94-.41,3.86-.58v2c2.67-1.75,3-3.64,3.13-7.76h11.86v6.38c0,.62.14.76.4.76.73,0,.79,0,.86-.93,0-.27,0-1.61,0-1.92L179,152c-.16,3.64-.26,4.8-2.07,4.8h-3.07c-1,0-2-.65-2-2.33v-4.87h-5.93a9.79,9.79,0,0,1-4.06,7.79h2.84v1.41h13.91v2.95H167.3c1.55,1.27,3.72,3,11.73,5L177.55,170a31.66,31.66,0,0,1-12.92-6.9v7.72h-3.2v-7.76c-3.92,4.05-9.36,6-12.79,6.94l-1.35-3.26a28.26,28.26,0,0,0,11.6-5H147.62v-2.95h13.81v-1.17ZM167,143.32a13.1,13.1,0,0,1-2.34,3.13l-2.8-2a12.64,12.64,0,0,0,3.65-5.73l3.33.51c-.19.59-.29.9-.46,1.38h10.19v2.74H172a10.12,10.12,0,0,1,.86,1.75l-3,1.27c-.26-.68-.92-2.26-1.28-3Zm1.09,6.87a25.17,25.17,0,0,1,3.46,3.57l-2.15,2.09a27.29,27.29,0,0,0-3.36-3.6Z"/><path class="cls-2" d="M188.76,151.25a42.58,42.58,0,0,1-3.4,2.89L183,151a23.67,23.67,0,0,0,9.89-12.49l3.42.92a29,29,0,0,1-7.18,11.4h20.3c0,3.47-.1,12.4-1.35,16.93-.86,3.09-3.1,3.19-4.55,3.19h-5l-.66-3.64h5c1.88,0,2.18-1.72,2.44-3.23a57.1,57.1,0,0,0,.66-9.78h-7.65c-.85,9.27-5.43,13.66-12.26,16.65l-2-3.3c7.15-3.12,9.92-6.24,10.75-13.35h-6Zm24.32,2.61a35,35,0,0,1-10.68-14.31l3.43-1c1.71,4.29,5.24,9.61,9.65,12.36Z"/><path class="cls-2" d="M220,144.46h10.91v3H220Zm.83-5.09h9v3.09h-9Zm0,10.06h9v3.13h-9Zm0,5.12h9v3h-9Zm0,5.25h9v9.79h-6.07V171h-3Zm3,2.95v4h3.1v-4Zm27-.68a39.06,39.06,0,0,1-3.59,3.09,17.6,17.6,0,0,0,4,2.64L249.53,171c-4.22-2.4-7.87-6-9-10.85a15.91,15.91,0,0,1-2.35,2.13v4.6c2.61-.21,3.66-.38,4.92-.55v3.23c-2.48.37-7.65,1-11,1.06l-.56-3.47c1,0,1.81,0,3.56-.07V164.3a26.34,26.34,0,0,1-3.69,1.65l-1.35-3a18.75,18.75,0,0,0,6.85-3.3h-6v-2.57h4.68v-1.75h-3.49V153h3.49v-1.51h-4.05V149h4.05v-1.13h3V149h5v-1.13h3V149h4.28v2.44h-4.28V153h3.62v2.37h-3.62v1.75h4.48v2.57h-7.78a21,21,0,0,0,1.81,3.09,23.67,23.67,0,0,0,3.1-2.84Zm-19.31-16.45a23.88,23.88,0,0,0,6.06-2.06h-6.39v-2.88h8.17v-1.92h3.33v1.92h8.34v2.88h-6.33a22.72,22.72,0,0,0,6.33,2.17l-1.35,2.43a20.6,20.6,0,0,1-7-2.43l1.68-2.17H237.8l2,2.17a30.18,30.18,0,0,1-6.92,2.64Zm7.05,5.84V153h5v-1.51Zm0,3.88v1.75h5v-1.75Z"/><path class="cls-2" d="M259.42,154.41a23.19,23.19,0,0,1-2.27,2.85l-1.48-4.39a28.18,28.18,0,0,0,5.7-14.15l3.43.45a29.83,29.83,0,0,1-2,8.55v23.17h-3.36Zm18.33-8.86a30.75,30.75,0,0,0-6.46-4.32l2.11-2.89a46.55,46.55,0,0,1,6.62,4.12l-2,3.09h8.54V149h-8.84v6.49h7.62v3.4h-7.62v7.62h9.59v3.33H264.63v-3.33h9.56v-7.62h-7.65v-3.4h7.65V149h-8.74v-3.4Z"/><path class="cls-2" d="M307.58,156.2l15.65-1.72.27,3.4-15.92,1.75v6.8c0,.65.46.65.69.65h9.06a1,1,0,0,0,1.06-.89,44.32,44.32,0,0,0,.23-4.6l3.59.92c-.13,5.19-.3,8.14-3.59,8.14H307.28c-.86,0-3.16,0-3.16-2.54V160l-11.34,1.27-.23-3.43,11.57-1.28v-4.15c-1.91.24-4.06.38-5.94.52l-1.08-3.51c2.53-.1,12-.44,19.51-3.22l1.71,3.22A46.48,46.48,0,0,1,307.58,152Zm-1.22-17.55h3.43v3h12.82v8.21h-3.43v-4.77H297v4.77H293.5v-8.21h12.86Z"/><path class="cls-2" d="M334.05,150.53c-1.49.9-2.71,1.48-4,2.13l-1.69-3.47a32.85,32.85,0,0,0,14-10.57h3.7a29.79,29.79,0,0,0,14.23,10.47l-1.84,3.5a27.6,27.6,0,0,1-4-2.06v2.58H346v4.63h10.41v3.09H346v5.56h13.35v3.51H329.07v-3.51h13.38v-5.56H332.1v-3.09h10.35v-4.63h-8.4Zm19.24-.79a42.37,42.37,0,0,1-9.09-8.1,37.55,37.55,0,0,1-8.9,8.1Z"/><path class="cls-2" d="M369.78,158.6c0,3.4-.07,5.8,6.85,5.8,4.68,0,6.79-.75,6.79-4.43,0-1.85-.2-4.43-5-4.43h-4.09v-3.33h4.09c1.65,0,4.71,0,4.71-3.87,0-3.09-1.75-4.12-5.67-4.12-7,0-7.05,2.3-7.08,4.94h-4c.23-7.66,4.12-8.65,10.84-8.65,3.07,0,9.79,0,9.79,7.34,0,4.81-2.9,5.63-3.69,5.88,1,.37,4,1.47,4,6.42,0,7.55-6.19,8-10.25,8-9.32,0-11.24-2.92-11.24-9.51Z"/><path class="cls-2" d="M392.88,159.32a31.07,31.07,0,0,0,4.75-11.09h-4.26v-3.29h4.36v-6.25h3.16v6.25h3.66v3.29h-3.66v1.2a18.73,18.73,0,0,0,4.05,6.42L403.26,159a21.15,21.15,0,0,1-2.37-4.29v16.17h-3.16v-15.1c-1.42,5.08-2.74,6.86-3.63,8.1Zm9.79,7.25A22.68,22.68,0,0,0,411,159h-5.67V146.62h7.42v-2h-8.24V141.3h8.24v-2.61h3.1v2.61h8.5v3.36h-8.5v2h7.44V159H417.9a24.58,24.58,0,0,0,7,7.25L423,169.31a23.5,23.5,0,0,1-7.11-8.51v10.09h-3.1v-9.65a24.36,24.36,0,0,1-8.24,8.42Zm5.77-17.24v2.27h4.35v-2.27Zm0,4.7v2.24h4.35V154Zm7.45-4.7v2.27h4.45v-2.27Zm0,4.7v2.24h4.45V154Z"/><path class="cls-2" d="M452.77,158.19c-2.27.38-4.09.89-4.09,5.18v.76H466v3.71H444.76v-3c0-4.26.33-9.27,6.66-10.23l6.46-1c2.9-.44,4.32-1.27,4.32-4.63s-1.52-4.77-6.4-4.77c-5.5,0-6.69,1.33-6.72,5.63h-3.89c.06-5.84,1.68-9.34,10.38-9.34,5,0,10.51.65,10.51,8.48,0,3.6-1.08,5.32-2.86,6.52a10.53,10.53,0,0,1-4.19,1.65Z"/><path class="cls-2" d="M479.3,161.79c-.33.62-.66,1.17-1.28,2.13l-3.43-1.37a45.11,45.11,0,0,0,3.76-7.25h-6V152h30.91v3.26H482.14c-.27.69-1.09,2.72-1.35,3.27h19.47c-.19,2.64-.65,8-1.71,10a4.1,4.1,0,0,1-3.82,2.37h-5.8l-.76-3.61h5.93c1.19,0,2.08-.62,2.44-5.53Zm21.19-22v9.78H475.31v-9.78Zm-21.88,3.12v3.57H497.2v-3.57Z"/><path class="cls-2" d="M507.65,159.32a31.07,31.07,0,0,0,4.75-11.09h-4.26v-3.29h4.35v-6.25h3.17v6.25h3.66v3.29h-3.66v1.2a18.73,18.73,0,0,0,4.05,6.42L518,159a21.15,21.15,0,0,1-2.37-4.29v16.17h-3.17v-15.1c-1.41,5.08-2.73,6.86-3.62,8.1Zm9.79,7.25a22.78,22.78,0,0,0,8.37-7.56h-5.67V146.62h7.42v-2h-8.24V141.3h8.24v-2.61h3.09v2.61h8.51v3.36h-8.51v2h7.45V159h-5.44a24.81,24.81,0,0,0,7,7.25l-1.92,3.05a23.62,23.62,0,0,1-7.12-8.51v10.09h-3.09v-9.65a24.36,24.36,0,0,1-8.24,8.42Zm5.77-17.24v2.27h4.35v-2.27Zm0,4.7v2.24h4.35V154Zm7.44-4.7v2.27h4.45v-2.27Zm0,4.7v2.24h4.45V154Z"/></g></svg>