<svg xmlns="http://www.w3.org/2000/svg" width="650" height="295" viewBox="0 0 650 295"><defs><style>.cls-1{fill:#00ae22;}.cls-2{fill:#fff;}</style></defs><title>joho_matome</title><g id="レイヤー_3" data-name="レイヤー 3"><path class="cls-1" d="M117.6,83.26h22.34v3.86h-7.42v1.95h6.59v17h-3.74v-1.06H122.15v1.06h-3.72v-17h5.7V87.12H117.6Zm4.55,14.79v3.24h13.22v-2a2,2,0,0,1-1.27.47h-3.28a1.74,1.74,0,0,1-1.69-1.88V92.78h-1.68a11,11,0,0,1-3.2,7.84Zm0-5.27v4.55a6.91,6.91,0,0,0,2-4.55Zm5.37-5.66v1.95h1.61V87.12Zm7.85,7.39V92.78h-2.85v2.85c0,.49,0,.74.4.74.75,0,.89,0,1-2.15Z"/><path class="cls-1" d="M152.55,104.19v.27c-2.59.66-8,1.41-9.26,1.56l-.33-3.84c1-.07,1.93-.15,3.58-.34V96h-3.39V92.58h3.39v-1h-1.81v-1a6.44,6.44,0,0,1-1.23.89l-1-4.08a12.5,12.5,0,0,0,4.1-4.72h3.74a10,10,0,0,0,2.9,3.48,16,16,0,0,0,.12-2.77l3.37.37c0,.72,0,1.41-.17,2.87h.9V82.62H161v3.95h3.91v3.69H161v1.66a5.5,5.5,0,0,1,0,.79h4.38v3.83h-3.81a13,13,0,0,0,4.29,5.91l-2.24,3.71a13.72,13.72,0,0,1-4.17-6.53,13.65,13.65,0,0,1-5.49,6.63Zm-7.3-7.65a28,28,0,0,1,.82,4.21l-2.59.79a20.74,20.74,0,0,0-.61-4.26Zm4.94-8.48a13.15,13.15,0,0,1-1.57-2.23,15.25,15.25,0,0,1-1.56,2.23Zm2.69,8.48V92.71h4.6c0-.27,0-.37,0-.57V90.26H156a13.32,13.32,0,0,1-.66,2.1l-3.15-1.51a21.48,21.48,0,0,0,1.08-4.7l-1.74,3.07v2.33h-1.79v1h2.45V96h-2.45v5.42c1.36-.2,2-.32,2.78-.45l0,1.34a9.85,9.85,0,0,0,4.22-5.74Zm.35.52a26.8,26.8,0,0,1-1,3.59L150,100.1a16.34,16.34,0,0,0,.8-3.58Z"/><path class="cls-1" d="M168.3,102.48a21.58,21.58,0,0,0,6.12-1.44h-4V83.33h18.47V101h-4.19a20.53,20.53,0,0,0,6.19,1.44l-1.74,3.78a22.9,22.9,0,0,1-8-3.24l2.2-2h-7.8l2.57,2.18c-1.75,1.14-3.56,2-8.11,3.12Zm6-15.54v1.29h10.72V86.94Zm0,4.53v1.46h10.72V91.47Zm0,4.65V97.6h10.72V96.12Z"/><path class="cls-1" d="M200.75,97.43a17.69,17.69,0,0,0,4.71-2.52c-.26-.32-.35-.45-.52-.64a18.21,18.21,0,0,1-3.53,2L200,93.48c3.23-.92,4.26-1.88,4.83-2.4h-2.33V89h-1.39v2.79H199.5V97.6c.49-.14.8-.27,1.2-.39l.24,3.61a49.36,49.36,0,0,1-6.79,2.57l-.4-4.3c.47-.1,1-.2,2.26-.52V91.79H194.1V88H196V82.67h3.49V88h1.34V83.21h14.89V89H214v2.08h-2.45c.28,1.63.44,2.3.56,2.82a16.5,16.5,0,0,0,2.62-3.17l1.79,3.66a23,23,0,0,1-3.25,2.87,13.73,13.73,0,0,0,3.2,4.45l-2.83,3.07c-2.49-3.14-4.43-8.91-4.78-13.7h-.31a16.46,16.46,0,0,1-1.43,1.48,11.52,11.52,0,0,1,3.34,8.61c0,3.86-1.72,4.87-2.92,4.87H204.8l-.57-2.87a31,31,0,0,1-3.81,2.33l-1.65-2.82A23.1,23.1,0,0,0,207,98a5.93,5.93,0,0,0-.31-.86,17.35,17.35,0,0,1-4.66,2.91Zm11.42-9.35V86.67h-7.84v1.41Zm-5.89,15c.54,0,1.23-.07,1.13-2.52a21.11,21.11,0,0,1-3.06,2.52Z"/><path class="cls-1" d="M222.1,97.38a37.17,37.17,0,0,1-.8,7.7l-2.31-2c.49-1.75.52-2,.73-5.93ZM228.46,96l-2.1.74a9.73,9.73,0,0,0-.11-1,5.28,5.28,0,0,0-.66.1v10.24h-3V96.27c-2,.25-2.43.27-3.06.3L219.3,93l1.32,0c.33-.44.7-1,1-1.36A21.3,21.3,0,0,0,219,88.75l1.46-3.64c.12.13.29.25.45.42a19.6,19.6,0,0,0,1.27-3l3.18.74A36.77,36.77,0,0,1,223,87.76c.19.2.4.47.56.67a33.56,33.56,0,0,0,2-3.46l2.94,1.28a48,48,0,0,1-3.13,4.85l2.14-.72a22.13,22.13,0,0,1,1.11,3.12V84.25h4a10.54,10.54,0,0,0,.47-1.71l4.13.23c-.21.59-.38,1.06-.54,1.48h4.54v9.92h-4.61a11.45,11.45,0,0,0,1,2.25,11.19,11.19,0,0,0,1.7-2.15l2.8,2.32a21.43,21.43,0,0,1-2.63,2.5,13.78,13.78,0,0,0,2.73,2.55l-1.86,3.88a11.93,11.93,0,0,1-3.72-5.12v3.41c0,1.44-.26,2.28-1.91,2.28h-3.37l-.47-3a8.14,8.14,0,0,1-2.1,2.57l-2-2.59a1.42,1.42,0,0,0,.22-.18l-.59.15a54,54,0,0,0-.29-5.69l2.24-.39c.12,1,.31,2.54.38,4a9.61,9.61,0,0,0,1.18-2.45h-1.37Zm-4.36-3.29,1.53-.1c-.07-.22-.35-1.18-.4-1.38C224.53,92.19,224.29,92.49,224.1,92.73Zm9,2.4v-1h-4.26c.14.54.19.71.24,1Zm-.73,7.1c.59,0,.73-.17.73-.74V96.25a18.11,18.11,0,0,1-1.76,6Zm-.07-15.16v1.09h5.21V87.07Zm0,3.29v1.16h5.21V90.36Z"/><path class="cls-1" d="M264.92,80.1h-7.25v26.37h-5.38v-32h12.63Z"/><path class="cls-1" d="M269.25,82.36a19.71,19.71,0,0,0,10.87-8.21l6.53.44c-.46.82-.69,1.23-1.18,2h11.85v4.86A32.87,32.87,0,0,1,287.76,91h11.52v16.06h-5.52v-1h-12v1h-5.45V97c-3.4,1.31-4.12,1.51-5.06,1.85L268.6,93a51,51,0,0,0,11-3.52,36.93,36.93,0,0,0-3.85-3.7,32,32,0,0,1-3.53,1.92Zm12.17-.92a16,16,0,0,1-1.24,1.13,39,39,0,0,1,4.61,3.9,32.54,32.54,0,0,0,5.51-5Zm.3,14.86v4.31h12V96.3Z"/><path class="cls-1" d="M312,101.2V97.53h-5.61V76.47H316a11,11,0,0,0,.56-2.08H323a14.61,14.61,0,0,1-.84,2.08h10.05V87.88h-20.4V89h23.47v3.7H311.77v1.1h22.72a69,69,0,0,1-.88,10.2c-.82,3.08-3,3.08-4.9,3.08h-3.46l-.62-2.43v1H309.94v1.06h-5.35V98.42h5.35v2.78Zm-.26-21.44V81h15V79.76Zm0,3.87v1.23h15V83.63Zm7.74,17.57V98.42h5.12V102h2.51c1.15,0,1.63,0,1.77-4.42H317.25v3.67Z"/><path class="cls-1" d="M352.2,107.05H339.57V101.4h7.25V75h5.38Z"/><path class="cls-1" d="M366.3,96.54a32.26,32.26,0,0,1-1.05,9.52l-2.35-2c.56-1.74,1-3.25,1.08-7.63Zm7.11-.41a23.48,23.48,0,0,1,.62,4c.1-1,.16-4.25.2-5h-9.7V75.34h13.78v4.28h-3.46v1.44h2.9v3.32h-2.9v1.51h2.9v3.6h-2.9V91.1h3.46c-.07.75-.13,4.51-.17,5.37,0,.55-.13,2.88-.42,5.27a28.85,28.85,0,0,0,1.93-10.06V75.34H394V92h-3.13a19.9,19.9,0,0,0,4.24,9.62l-3.2,5.72c-2.54-2.81-4.73-6.3-5.84-15.34h-1.53v.65c0,9-2.12,12.71-3.33,14.69l-3.79-3.53c-.55,2.09-1.6,3.33-4.66,3.33h-2.45l-1.08-4.35h3.1c1.37,0,1.44-.28,1.63-1.92l-1.37.31c-.06-1.06-.26-3.32-.49-4.76Zm-4.57.41c.1,2,.13,2.91.13,3.66s0,2.13-.1,3.29l-2.12.24a51,51,0,0,0,.39-5.51,11.3,11.3,0,0,0-.09-1.61Zm.33-16.92v1.44H371V79.62Zm0,4.76v1.51H371V84.38Zm0,5.11V91.1H371V89.49Zm2.12,6.91a33.17,33.17,0,0,1,.42,5.24l-1.95.28a21.26,21.26,0,0,0,.13-2.33,18.78,18.78,0,0,0-.23-3Zm13.38-15.58v6h4.21v-6Z"/><path class="cls-1" d="M398.31,79.49a14.09,14.09,0,0,0,4.83-5.31l5.06,1.54a29.61,29.61,0,0,1-7.77,9.59Zm8,24.21V107h-5.16V95.61c-.59.55-.91.83-1.5,1.34l-1.34-7.19a26.28,26.28,0,0,0,6.53-7.6l4,2.64h7.64V82.43h-7.21v-5.2h7.21V74.39h5.29v2.84H429v5.2h-7.21V84.8h8V90h-8v2.33h6.75v5.2h-6.75V101c.65,0,1.79.1,3.52.1,2.09,0,3.49-.07,4.86-.14l-1.07,5.41c-10.32.11-13.12-.17-16.55-4.21a17.77,17.77,0,0,1-3.23,5.21Zm8.45-12a41.83,41.83,0,0,1-.65,5,7.55,7.55,0,0,0,2.38,2.6V90h-7.93V86.16a25.72,25.72,0,0,1-2.25,3.6V102.5c1.2-1.37,3.13-4.08,3.62-11.2Z"/><path class="cls-1" d="M435.15,101.61c2.09,0,10.8-.07,15.4-2.43a3.15,3.15,0,0,1-1,.13h-6.26l-.85-4.62a21,21,0,0,1-5.16,4.11l-3.43-4.52a21.1,21.1,0,0,0,6.86-5.44H434.2V83.67h4.41V76H444v7.71h3.3V74.56h5.32v2.15h10.11v5H452.58v1.92h12.5v5.17H459a31.72,31.72,0,0,0,6.69,5.61l-3.42,4.45a33.6,33.6,0,0,1-7.9-7.67l3.46-2.39h-5.22V96a3.2,3.2,0,0,1-.79,2.39,15.3,15.3,0,0,0,4.12-4.14l3.85,3.77c-2.42,3.22-7.25,8.8-22.85,9.21Zm10.21-10.38a15,15,0,0,1-2.54,3.08h3.46c1,0,1-.92,1-1.23V88.84h-5.55Z"/><path class="cls-1" d="M476.69,95.85c-.1,1.68.42,2.71,4.44,2.71,4.93,0,6.2-.55,6.23-6.33-.94.89-2,2-7.18,2-4.8,0-9.63-.89-9.63-8.67,0-9,5.36-9,11-9,10,0,11.62,2,11.62,12.87,0,11.58-1,14.66-11.81,14.66-6.53,0-10.51-1.13-10.48-8.19Zm10.64-10.64c0-3.09-1.63-3.22-6-3.22-4.21,0-5,.58-5,3.39s1.27,3.46,5.42,3.46C486.45,88.84,487.33,88.12,487.33,85.21Z"/><path class="cls-1" d="M503.48,89.21c-.79.72-1.27,1.13-2,1.75L498,85.69a21.17,21.17,0,0,0,9-11.41l5.35,1.06a32,32,0,0,1-5.51,10.31h14.52a42,42,0,0,1-5.45-10.13l5.35-1.31c1.73,4.08,4.31,8.6,9,11.82L526.59,91a22.87,22.87,0,0,1-1.8-1.47c-.23,5.82-.46,12.15-1.53,14.79a3.84,3.84,0,0,1-4.15,2.81H513l-1.08-5.69h4.83a1.62,1.62,0,0,0,1.47-.79c.26-.54.78-3.63,1-9.51h-5.55c-1,8.59-5.48,13-12.17,16.09l-3.17-5.45c8.55-3,9.56-7.8,9.79-10.64h-4.63Z"/><rect class="cls-1" x="56.71" y="125.29" width="536.57" height="53.21" rx="23.62"/><path class="cls-1" d="M284.42,33.88H271v1.68h11.4V49H274a29.66,29.66,0,0,0,11,6.08l-2.37,4.25A32.44,32.44,0,0,1,271,50.8v9h-4v-9a30.2,30.2,0,0,1-11.67,8.65L253,55.34c7.22-2.72,9.75-5.08,11.11-6.32h-8.38V35.56H267V33.88H253.51V30.07H267V27.49h4v2.58h13.41Zm-24.88,7H267v-2.1h-7.45Zm0,5H267V43.77h-7.45ZM271,38.75v2.1h7.51v-2.1Zm0,5v2.09h7.51V43.77Z"/><path class="cls-1" d="M290.72,28.56h29.2v4.08h-25v21.8h25.74v4.09H294.91v1.3h-4.19Zm5.08,21.56a36.6,36.6,0,0,0,9.29-6.8,68.56,68.56,0,0,0-7.84-4.15l2.17-3.4a81.65,81.65,0,0,1,8.34,4.43,33.61,33.61,0,0,0,4.05-7L316,34.81a46.79,46.79,0,0,1-4.72,7.65A76.32,76.32,0,0,1,319,48.64l-2.9,3.74a67.73,67.73,0,0,0-7.61-6.69,52.49,52.49,0,0,1-10.09,7.86Z"/><path class="cls-1" d="M339.21,33.33c-1.52,0-8.87.27-10.55.27l-.79-4.25c.89,0,1.68,0,2.9,0,5.86,0,17.33-.55,22.74-2.06l2.14,4.26a74,74,0,0,1-12.06,1.58v6.62H357v4.4H343.59V59.87h-4.38V44.18H326v-4.4h13.25Z"/><path class="cls-1" d="M375.46,44.52H365.24v-16h24.92v16H379.68v3.37h13.48v4H379.68v7.83h-4.22V51.94H362.31v-4h13.15Zm-6.19-12.29v2.58h16.87V32.23Zm0,6V41h16.87V38.2Z"/><path d="M198.89,204.3h1.43v17.77h4v1.12h-4v4.06c0,1.54.77,2.14,2.45,2.14h.56v1.12h-8.89v-1.12H195c1.65,0,2.45-.56,2.45-2.14v-4.06H188V222Zm-1.44,4.62-8.08,13.15h8.08Z"/><path d="M218.17,206.12h-1.23a2.24,2.24,0,0,0-2.48,2.41V227a2.25,2.25,0,0,0,2.48,2.42h.95a10.61,10.61,0,0,0,9.48-5.78l.91.46-2.49,6.44H208v-1.12h1.19a2.27,2.27,0,0,0,2.51-2.42V208.53a2.25,2.25,0,0,0-2.51-2.41H208V205h10.18Z"/><path d="M232.55,205h10c8.19,0,13.26,4.2,13.26,12.6,0,6-3.15,12.95-12.94,12.95H232.55v-1.12h1.19a2.26,2.26,0,0,0,2.52-2.42V208.53a2.26,2.26,0,0,0-2.52-2.41h-1.19ZM239,227a2.25,2.25,0,0,0,2.49,2.42h1.68c6.33,0,9.51-5.67,9.51-12.11,0-4.44-1.82-11.16-9.37-11.16h-1.82a2.25,2.25,0,0,0-2.49,2.41Z"/><path d="M272.86,214.76l7.76,12.42a5,5,0,0,0,4.13,2.21h.49v1.12h-9.9v-1.12h.84a1.27,1.27,0,0,0,1.4-1.16,2.75,2.75,0,0,0-.49-1.43l-6.19-9.9-3.33,3.6V227a2.28,2.28,0,0,0,2.52,2.42h1v1.12h-9.72v-1.12h1a2.24,2.24,0,0,0,2.48-2.42V208.53a2.24,2.24,0,0,0-2.48-2.41h-1V205h9.72v1.16h-1a2.27,2.27,0,0,0-2.52,2.41v10.32l9.56-10.42a1.73,1.73,0,0,0,.45-1.12c0-1-1.08-1.19-1.85-1.19h-.91V205h9.86v1.16h-.63a6.83,6.83,0,0,0-5.59,2.52Z"/><path d="M290.18,221h6.05v-6h1.25v6h6.07v1.25h-6.07v6h-1.25v-6h-6.05Z"/><path d="M333.82,215.69H329.1c0,.29,0,2,0,2.23,0,.66-1,.88-1.18.88-.54,0-.51-.27-.47-.76h-4.21l0,1.91h4.89l.59-.81c.12-.15.25-.29.37-.29a1.32,1.32,0,0,1,.49.24l1.2.79a.48.48,0,0,1,.24.36c0,.25-.22.3-.36.3h-7.42v1.81h7.59l.86-1c.17-.2.27-.32.36-.32a.83.83,0,0,1,.47.27l1.17,1a.53.53,0,0,1,.25.39c0,.22-.2.27-.37.27H315.06a17.27,17.27,0,0,0-2.89.22l-.46-1c1.61.15,3.28.17,3.75.17h6.26v-1.81h-4a20,20,0,0,0-2.89.24l-.47-1a33,33,0,0,0,3.75.15h3.62l0-1.91h-3.84a16.8,16.8,0,0,0-2.89.22l-.49-.95c1.69.14,3.45.14,3.77.14h3.45v-1.76h-6.47a16.24,16.24,0,0,0-2.86.22l-.49-1c1.52.13,3,.15,3.75.15h6.07l0-1.81H318a17,17,0,0,0-2.89.22l-.49-1c1.69.15,3.43.17,3.77.17h3.28a8.11,8.11,0,0,0-.44-2.86l2.67.66c.15.05.34.12.34.34s-.56.59-.93.76v1.1h4l.66-.76a.55.55,0,0,1,.32-.19.73.73,0,0,1,.37.14l1,.76a.55.55,0,0,1,.19.32c0,.25-.07.29-.85.76,0,.17,0,1.25,0,1.37h2l.8-.91c.13-.14.25-.29.37-.29a.78.78,0,0,1,.47.25l1.27.9a.74.74,0,0,1,.24.39C334.21,215.66,334,215.69,333.82,215.69ZM329.44,226c0,.81.15,4.39.15,5.1a1.23,1.23,0,0,1-.15.66,1.31,1.31,0,0,1-1,.49c-.71,0-.66-.66-.61-1.1H317.71a1.15,1.15,0,0,1-1.2,1.25.67.67,0,0,1-.76-.66c0-.2.12-1.08.12-1.28.05-1,.1-2,.1-3.4a17.06,17.06,0,0,0-.27-3.41l2.18,1.11h9.62l.74-.86c.1-.12.2-.25.29-.25a.59.59,0,0,1,.32.17l1.23.94a.52.52,0,0,1,.22.39C330.3,225.29,330,225.56,329.44,226Zm-1.62-.66H317.68v2.28h10.14Zm0,2.87H317.68v2.35h10.14Zm-.32-14.89h-4.21v1.81h4.21Zm0,2.4h-4.21v1.76h4.21Z"/><path d="M359.35,220.71c0,1.08.07,3.92.09,5.14,0,.71.22,5,.22,5.29,0,.74-.85,1.05-1.22,1.05-.71,0-.71-.71-.71-1,0-1.23.07-6.59.07-7.69h-5c0,.95.09,5.19.09,6,0,1.79-1.39,2.28-2.35,2.53a4.27,4.27,0,0,0-1.81-2.28l.05-.15a13.81,13.81,0,0,0,1.81.15c.69,0,.69-.2.69-1.89,0-.56-.05-3.65-.05-4.4h-4.48c-.22,2.22-.66,6.78-6.52,9l-.07-.17c4.29-3.09,5-6.35,5-10.66a7,7,0,0,0-.27-2.49l2.21.46c.17.05.36.12.36.32s-.19.27-.49.51v.08H357.7a6.27,6.27,0,0,0-.19-1.3l2.06.39c.17,0,.41.05.41.34S360,220.24,359.35,220.71Zm2.35-1.45a25.53,25.53,0,0,1-9.8-2.42,25.69,25.69,0,0,1-11.09,2.23v-.15a35.24,35.24,0,0,0,9.74-2.86,9,9,0,0,1-3-3h-2.52a16.66,16.66,0,0,0-2.89.22l-.49-.95c1.54.12,3.06.15,3.77.15h5.68a7.17,7.17,0,0,0-.51-2.82l2.62.71c.22,0,.39.17.39.37s-.51.56-.76.73c0,.29,0,.74,0,1h6.27l1-1.13c.14-.17.26-.32.39-.32s.34.17.46.29l1.18,1.11a.54.54,0,0,1,.24.39c0,.22-.22.24-.39.24h-6.1l.93.57a.38.38,0,0,1,.22.36c0,.32-.34.37-1,.42a21.31,21.31,0,0,1-3,1.86,21,21,0,0,0,6.39.91,25.74,25.74,0,0,0,3.77-.27v.14A4.4,4.4,0,0,0,361.7,219.26ZM350,226.44a15.26,15.26,0,0,1-4.38,4.21l-.1-.12a18,18,0,0,0,2.79-4.6,4.4,4.4,0,0,0,.32-1.4l1.93,1.13a.36.36,0,0,1,.22.34C350.77,226.19,350.7,226.22,350,226.44Zm7.74-5.29h-10.8c0,.39,0,.91-.1,1.79h10.95C357.78,222.47,357.78,222.2,357.73,221.15ZM348,213.09a10.39,10.39,0,0,0,3.38,2.52,12.61,12.61,0,0,0,3.38-2.52Zm8.18,16.19c-.66,0-.74-.19-1.28-1.86a6.56,6.56,0,0,0-1.17-2.2l.07-.13c.64.27,3.31,1.35,3.31,3.24A.89.89,0,0,1,356.14,229.28Z"/><path d="M370.64,221h6.05v-6h1.25v6H384v1.25h-6.07v6h-1.25v-6h-6.05Z"/><path d="M402.87,216.47l-.73.3c-.79-1.37-2.21-3.8-5.34-3.8a3.13,3.13,0,0,0-3.36,3.23c0,2,1.47,2.79,4.68,3.92a20.63,20.63,0,0,1,2.4,1c1.91,1,3.21,2.13,3.21,4.53a5.19,5.19,0,0,1-5.32,5.29,8.68,8.68,0,0,1-2.62-.49,2.69,2.69,0,0,0-1-.24,4.43,4.43,0,0,0-2,.68L391,226.19l.93-.44a8.49,8.49,0,0,0,1.93,2.55,6.85,6.85,0,0,0,4.41,1.81,3.53,3.53,0,0,0,3.63-3.69c0-2.26-1.45-3-4.56-4.12-3.45-1.17-5.68-2.45-5.68-5.39a4.62,4.62,0,0,1,4.92-4.75,8,8,0,0,1,1.74.2,13.24,13.24,0,0,0,1.47.27,1.67,1.67,0,0,0,1.37-.47Z"/><path d="M412.77,229.55a1.42,1.42,0,1,1-1.42-1.42A1.44,1.44,0,0,1,412.77,229.55Z"/><path d="M426.68,213.44H425.5a1.56,1.56,0,0,0-1.73,1.69V228a1.57,1.57,0,0,0,1.73,1.69h1.18v.79h-7.76v-.79h1.15a1.59,1.59,0,0,0,1.76-1.69v-12.9a1.58,1.58,0,0,0-1.76-1.69h-1.15v-.81h7.76Z"/><path d="M435.67,229.55a1.42,1.42,0,1,1-1.42-1.42A1.44,1.44,0,0,1,435.67,229.55Z"/><path d="M456,217c-.9-1.37-2.67-4-6-4-3.92,0-5.85,4-5.85,8.25,0,4.75,2.3,8.62,6.42,8.62,3.47,0,5.19-3.18,5.82-4.43l.67.39c-1,1.89-2.67,5.17-7.23,5.17-5.17,0-7.69-4.19-7.69-9,0-5.73,3.55-9.8,7.69-9.8a7.27,7.27,0,0,1,2.06.3c.19,0,1.34.36,1.49.36a3.49,3.49,0,0,0,1.64-.58l1.74,4.4Z"/><path d="M59.47,254.72l.85-1.12c.13-.16.19-.25.32-.25s.14.05.39.23l1.39,1.1a.46.46,0,0,1,.21.33c0,.19-.19.21-.34.21h-6.9c0,.68,0,3.67,0,4.27,0,.21,0,4.52,0,5.12h5.49l1-1.12c.15-.16.21-.24.31-.24s.19.06.4.22l1.36,1.1a.45.45,0,0,1,.21.31c0,.19-.19.23-.31.23H48.28a14.45,14.45,0,0,0-2.45.19l-.42-.83c1.39.12,2.8.14,3.2.14H53.9c0-.18,0-4.58,0-5.06v-4.33H49.5a14.51,14.51,0,0,0-2.45.19l-.41-.81c1.39.1,2.8.12,3.19.12h4.05c-.05-4.7-.05-5.24-.52-6.76l2.51.67c.2.06.33.1.33.29a.39.39,0,0,1-.19.31c-.08.08-.48.39-.6.47,0,1.68,0,3.34,0,5Z"/><path d="M75.84,254.85H73.41v6.67c1.68-.49,2.16-.68,2.64-.85l.08.17a21.94,21.94,0,0,1-3,1.76l-2.55,1.29c-.18.43-.27.66-.52.66a.45.45,0,0,1-.33-.25l-1.08-1.84c.71,0,1.06.08,3.4-.56,0-.71,0-3.86,0-4.5v-2.55h-.42a14.66,14.66,0,0,0-2.45.18l-.39-.83c1.22.11,2.47.15,3.26.15,0-1,0-2.07,0-3.11a11.47,11.47,0,0,0-.27-3.07l2.1.71c.1,0,.29.12.29.31s-.42.56-.71.74c0,1.45,0,2.16-.06,4.42h.5l.62-.68c.19-.21.25-.27.35-.27s.25.14.36.22l.72.69c.11.1.19.18.19.31S76,254.85,75.84,254.85Zm9.27,10.61c-.48.09-4.15.09-4.73.09-3.4,0-4-.17-4-2.43,0-.81.06-4.37.06-5.1,0-.21,0-1.14,0-1.33a11.1,11.1,0,0,0-2,1.1l-.71-.58a28.87,28.87,0,0,0,2.72-1.08v-3.67a10.28,10.28,0,0,0-.23-2.4l1.93.66c.14,0,.31.13.31.29s-.17.33-.66.68c0,.63,0,3.32,0,3.86l2.26-1c0-2.08,0-3.55,0-5a14.56,14.56,0,0,0-.24-1.83l2,.67c.2.06.35.16.35.31s-.29.43-.73.77c0,1.86,0,2.13,0,4.5l2-.9.5-.83c.1-.16.21-.35.35-.35a.79.79,0,0,1,.4.17l1,.6a.44.44,0,0,1,.21.33c0,.25-.23.46-.52.73,0,6.22,0,7.65-2.47,8.29a2.6,2.6,0,0,0-1.24-1.74v-.1a4.64,4.64,0,0,0,.64,0c1.45,0,1.68-.19,1.68-4.56,0-1.41,0-1.64,0-2.24l-2.47,1.12c0,3,0,5,.06,5.59,0,.27.07,1.5.07,1.75a1,1,0,0,1-1.06,1c-.29,0-.5-.1-.5-.54,0-.22.06-1.28.06-1.49,0-1.33,0-2.11.07-5.76l-2.26,1c0,.83,0,7.2,0,7.45a.68.68,0,0,0,.49.58c.27.08,3.24.08,3.63.08,2.14,0,2.78,0,3.22-.77a17.7,17.7,0,0,0,.91-2.51h.14a7.56,7.56,0,0,0,.4,2.47c.12.21.48.4.48.6S86.66,265.19,85.11,265.46Z"/><path d="M98.88,252.81a20.62,20.62,0,0,0,1.22-3.46H94.69a14.05,14.05,0,0,0-2.45.19l-.41-.83c1.06.08,2.11.14,3.19.14h12.36l.91-.89a1.35,1.35,0,0,1,.4-.31c.1,0,.18.06.39.23l1.16.93a.47.47,0,0,1,.21.31c0,.21-.21.23-.33.23h-8.07a36.11,36.11,0,0,1-2.67,3.46h7.54l.59-.6c.2-.2.27-.27.39-.27a.88.88,0,0,1,.37.21l1,.81a.39.39,0,0,1,.16.27c0,.19-.08.25-.83.66,0,2.35,0,5.31,0,7.66,0,1,.11,2.5.11,3.46a.93.93,0,0,1-1,1c-.62,0-.62-.33-.58-1.51H95.29c0,.08,0,.56,0,.66a1,1,0,0,1-1,1c-.67,0-.67-.46-.67-.65s.06-1.09.06-1.26c0-2.26.15-7,.15-9a14.47,14.47,0,0,0-.29-3.4l2.14,1Zm-3.59.5V264h2.76V253.31Zm7.32,3.15v-3.15H99.44v3.15Zm0,3.63V257H99.44v3.13Zm0,3.88v-3.38H99.44V264Zm4.48,0V253.31H104V264Z"/><path d="M114.27,261.67a27.14,27.14,0,0,0,3.86-7.94h-.48a15.58,15.58,0,0,0-2.45.18l-.39-.83c1.18.11,2.38.15,3.46.15,0-1,0-2.47,0-3.36a19.71,19.71,0,0,1-3.38.37v-.16a35.25,35.25,0,0,0,5.6-2.32,1.43,1.43,0,0,0,.43-.5l1.43,1.2a.35.35,0,0,1,.15.29c0,.21-.21.21-.39.21l-.61,0a17.59,17.59,0,0,1-1.92.62c0,.95,0,2.86,0,3.67H120l.5-.75c.08-.12.18-.27.31-.27s.29.15.39.23l.9.75a.43.43,0,0,1,.2.33c0,.21-.2.21-.31.21h-2.38c0,.39,0,1.32,0,1.82,2,.73,2.71,2,2.71,2.62a.79.79,0,0,1-.76.82c-.5,0-.56-.2-1-1.36a3.86,3.86,0,0,0-1-1.81c0,3.61,0,4,.08,5.6,0,1.41.08,3.05.08,3.8,0,.37,0,1.2-1,1.2-.54,0-.6-.31-.6-.71,0-.68.16-3.73.18-4.35,0-2,0-2.84,0-4.65a13.55,13.55,0,0,1-3.92,5.06Zm6.66,4.38c1.45-.71,3.79-2.08,4.29-3l1.49,1.1a.36.36,0,0,1,.19.31c0,.29-.48.27-1,.27a16.5,16.5,0,0,1-4.93,1.43Zm9.2-16.51.52-.83c.1-.17.21-.29.31-.29s.27.14.4.25l1,.83a.42.42,0,0,1,.21.33c0,.19-.17.21-.31.21h-4.4v1.7h1.66l.5-.75c.08-.12.16-.25.31-.25s.25.13.37.23l.85.72a.46.46,0,0,1,.21.34c0,.18-.19.2-.31.2h-3.59v1.87h3.44l.61-.85c.1-.17.22-.27.33-.27s.25.12.37.25l.89.83a.51.51,0,0,1,.21.33c0,.21-.17.21-.31.21h-8.63a14.49,14.49,0,0,0-2.44.18l-.42-.82c1.06.08,2.14.14,3.19.14h1.35v-1.87H126a13,13,0,0,0-2.44.21l-.4-.83c.63,0,1.54.13,3.34.13,0-.81,0-1.31,0-1.7h-1.37a14.37,14.37,0,0,0-2.44.18l-.42-.83c1.51.13,2.84.15,3.19.15h1a6,6,0,0,0-.37-2.22l2.11.64a.31.31,0,0,1,.29.31c0,.27-.47.5-.58.54v.73Zm-.47,6.49.47-.52c.09-.08.21-.21.29-.21s.25.13.33.19l.81.68a.52.52,0,0,1,.23.38c0,.21-.25.37-.6.54a7.23,7.23,0,0,0,0,.76c0,.71.17,3.8.17,4.42a.86.86,0,0,1-1,1c-.54,0-.54-.27-.52-.71h-4.93c0,.48.06,1-.94,1-.35,0-.53-.1-.53-.47,0,0,0-.21,0-.5,0-.77,0-3,0-3.92a13.3,13.3,0,0,0-.23-3.28L125,256Zm-4.73.5V258h4.93v-1.47Zm0,2V260h4.93V258.5Zm0,2V262h4.93v-1.53Zm3.48,2.82c1.87.16,4.5,1.1,4.5,2.34a.84.84,0,0,1-.83.81c-.48,0-1-.52-1.3-.91a10.57,10.57,0,0,0-2.37-2.1Z"/><path d="M140.32,252.79a1.22,1.22,0,0,1-1.21,1.21,1.21,1.21,0,0,1-1.2-1.21,1.21,1.21,0,0,1,2.41,0Zm0,8.17a1.21,1.21,0,0,1-1.21,1.21,1.21,1.21,0,0,1,0-2.41A1.21,1.21,0,0,1,140.32,261Z"/><path d="M145.27,264.1h1.14c1.08,0,1.46-.42,1.46-1.27V251.61c0-.64-.61-.74-1-.74h-1.58v-.65h.38a8,8,0,0,0,3.38-.87.63.63,0,0,1,.29-.12c.18,0,.23.12.23.29v13.31c0,.89.43,1.27,1.45,1.27h1.14v.66h-6.89Z"/><path d="M161.57,265.15a4.19,4.19,0,0,1-3.4-2.24,12.9,12.9,0,0,1-1.26-5.91c0-4.41,1.89-7.77,4.66-7.77,2.14,0,4.67,2.3,4.67,8C166.24,262.27,164.1,265.15,161.57,265.15Zm-2.32-12.46a18.85,18.85,0,0,0-.47,4.5c0,4.62,1.09,7.26,2.79,7.26,1.44,0,2.08-1.91,2.31-2.7a19.28,19.28,0,0,0,.49-4.56c0-4.73-1.14-7.26-2.8-7.26C160.1,249.93,159.46,252,159.25,252.69Z"/><path d="M173.52,255.66a3.52,3.52,0,0,1,1.8-.54c2.06,0,3.72,2.07,3.72,4.58,0,2.88-2.06,5.45-4.44,5.45s-4.77-2.67-4.77-7.15c0-4.79,2.7-8.77,5.87-8.77,1.39,0,2.36.83,2.36,1.82a1,1,0,0,1-1.06,1.08c-.41,0-1.1-.27-1.14-1.45,0-.46-.06-.75-.62-.75a2.1,2.1,0,0,0-1.51.75c-1.85,2-1.95,5.08-2,6.95A5.09,5.09,0,0,1,173.52,255.66Zm-.68,7.67a2,2,0,0,0,1.68,1.12c1.09,0,2.65-1.14,2.65-4.56,0-.94-.23-3.84-2.36-3.84-.79,0-2.12.58-3.09,2.82A9.76,9.76,0,0,0,172.84,263.33Z"/><path d="M185.24,264a1.21,1.21,0,1,1-1.2-1.2A1.22,1.22,0,0,1,185.24,264Z"/><path d="M190.17,264.1h1.14c1.08,0,1.46-.42,1.46-1.27V251.61c0-.64-.61-.74-1-.74h-1.58v-.65h.38a8,8,0,0,0,3.38-.87.63.63,0,0,1,.29-.12c.18,0,.23.12.23.29v13.31c0,.89.43,1.27,1.45,1.27h1.14v.66h-6.89Z"/><path d="M211.1,249.62v1.1c-3.3,5.08-4.46,8-4.73,12.59,0,.54-.1,1.84-1.16,1.84a1.09,1.09,0,0,1-1.06-1.14c0-1.47,1.45-5.82,5.83-12.75h-3.55c-3,0-3.46,1.39-3.92,2.72l-.62-.15.85-4.21Z"/><path d="M218.05,254.56v1.63a4.71,4.71,0,0,1,3.42-1.63,2.3,2.3,0,0,1,2.49,1.86,5.16,5.16,0,0,1,3.71-1.86c1.82,0,2.65,1.1,2.65,3.4v4.89c0,.79.42,1.25,1,1.25h.37v.66H227.4v-.66h.39c.73,0,1-.56,1-1.25v-4.77c0-.58-.08-2.63-1.8-2.63a3.92,3.92,0,0,0-2.95,1.8,5.05,5.05,0,0,1,0,.71v4.89c0,.87.48,1.25,1,1.25h.6v.66H221v-.66h.6c.58,0,1.06-.4,1.06-1.25v-4.77c0-.43-.06-2.63-1.8-2.63a3.68,3.68,0,0,0-2.8,1.64v5.76c0,.87.47,1.25,1,1.25h.38v.66h-4.32v-.66h.38c.62,0,1-.44,1-1.25v-6.24a.85.85,0,0,0-.85-1,1.91,1.91,0,0,0-.62.08l-.1-.4Zm10.72-1.23A12.43,12.43,0,0,1,230,252a3.71,3.71,0,0,0,1.18-2c0-.27-.16-.77-.64-.77a.68.68,0,0,0-.7.56c0,.08.18.45.18.54a.57.57,0,0,1-.58.54.65.65,0,0,1-.62-.71,1.75,1.75,0,0,1,1.82-1.49,1.41,1.41,0,0,1,1.52,1.41,1.66,1.66,0,0,1-.65,1.35c-.22.22-1.51,1.26-1.72,1.55h1.29c.54,0,.7-.41.81-.7l.33.1-.44,1.43h-3Z"/><path d="M276.84,265.67c-7.53-.1-10.76-.14-13.56-2.86a9.72,9.72,0,0,1-4.23,3.59l-.13-.13a13.09,13.09,0,0,0,3.59-4.31,10.24,10.24,0,0,1-1.93-4l.21-.17a9.08,9.08,0,0,0,2.1,3.4,14.27,14.27,0,0,0,1.16-5.64H262.3c-.41,1.16-.51,1.47-1.2,1.47-.14,0-.74,0-.74-.47a13.55,13.55,0,0,1,.49-1.47c1.08-2.78,1.93-5,2.18-6h-.75a13.4,13.4,0,0,0-2.44.19l-.4-.83c1.06.08,2.12.15,3.18.15H263l.54-.44c.18-.14.29-.21.39-.21a.77.77,0,0,1,.36.21l.8.69a.42.42,0,0,1,.21.37c0,.25-.41.43-1,.66-.46,1.16-.73,1.87-1.87,5.14h1.41l.56-.43a.79.79,0,0,1,.39-.21c.15,0,.25.08.4.23l.64.66a.67.67,0,0,1,.25.44c0,.19-.21.31-.64.58a14.42,14.42,0,0,1-1.7,5.7,11.39,11.39,0,0,0,7.21,2.06,46.55,46.55,0,0,0,7.3-.61l0,.17A2.56,2.56,0,0,0,276.84,265.67Zm1.23-12.92H275.2c.09,2.47.09,2.47.09,2.62,0,.41,0,1.05-1,1.05-.56,0-.54-.33-.52-.68h-2.55v2.16h3.11l.62-.79c.15-.17.23-.27.36-.27s.22.1.39.23l.93.78c.11.11.21.23.21.32s-.14.22-.31.22h-5.31l0,2.2h3.69l.79-.91c.17-.19.25-.27.35-.27s.23.08.38.23l1,.91a.48.48,0,0,1,.21.35c0,.13-.12.19-.31.19h-6.08c0,.25,0,1.47,0,1.74a1,1,0,0,1-.91.75c-.66,0-.66-.38-.66-.6s.1-1.58.1-1.89h-1.41a14.7,14.7,0,0,0-2.43.19l-.41-.81c1.62.12,3.15.12,3.19.12h1.08c0-.56,0-1.08,0-2.2h-.62a13.85,13.85,0,0,0-2.43.19l-.41-.81c.62,0,1.78.13,3.48.13v-2.16h-.41a14.9,14.9,0,0,0-2.45.19l-.41-.81c1.49.1,3.07.12,3.27.12l0-2.49H268a13.78,13.78,0,0,0-2.43.19l-.42-.83q1.59.15,3.18.15h1.59l0-2.43h-.49a15.89,15.89,0,0,0-2.45.19l-.4-.83c1.46.12,2.8.14,3.32.14a3.7,3.7,0,0,0-.31-1.93l2,.48c.23.06.35.14.35.33s-.24.38-.58.56v.56h2.41l.52-.45a.59.59,0,0,1,.37-.21c.13,0,.23.1.37.23l.58.56a.58.58,0,0,1,.25.39c0,.17-.16.29-.58.58a11.54,11.54,0,0,0,0,1.83H276l.6-.77c.13-.17.23-.25.33-.25a.65.65,0,0,1,.4.21l.89.76c.1.11.21.21.21.31S278.27,252.75,278.07,252.75Zm-4.26,0h-2.57l0,2.49h2.59Zm0-2.92h-2.53l0,2.43h2.57Z"/><path d="M288.08,258.64c0,2.51,0,2.95.05,4.15,0,.73.08,1.89.08,2.61s-.89,1-1.08,1c-.46,0-.56-.27-.56-.58,0-.09,0-.85,0-1,.08-1.55.08-2.11.13-5.43a22.32,22.32,0,0,1-2.55,1.18c0,.37-.07.73-.4.73s-.35-.23-.41-.36l-1-1.86c1.29.06,1.64,0,4.36-.79,0-1.83,0-3.88,0-5.46h-1.87a16,16,0,0,1-1.85,4.59l-.12,0a33,33,0,0,0,.93-7.2,3.74,3.74,0,0,0-.2-1.41l2,.48c.16,0,.35.08.35.31s-.29.41-.62.54a18.82,18.82,0,0,1-.36,2.24h1.73c-.05-2.93-.11-3.78-.56-4.81l2.28.66c.12,0,.31.14.31.29s-.35.44-.67.6c0,.44,0,2.63,0,3.26h.42l.58-.79c.1-.13.21-.27.31-.27a.63.63,0,0,1,.37.23l.83.79a.45.45,0,0,1,.19.31c0,.18-.19.22-.31.22h-2.39c0,1.33,0,3.65,0,5,.42-.14,2.35-.81,2.72-.95l.06.14A23.84,23.84,0,0,1,288.08,258.64ZM300.32,253c-.17,4.34-.33,8.28-1.64,11a4,4,0,0,1-3.21,2.1c-.15-.94-.48-1.52-1.77-2.45l.07-.15a8.89,8.89,0,0,0,2.5.44c.5,0,.83,0,1.41-1.47a31.94,31.94,0,0,0,1.17-10h-1.19c-.6,4.69-2.59,10.72-8.58,13l-.06-.14c4.39-3.3,6.26-6.8,7.13-12.84H295c-.85,4.38-3.19,8.15-6.2,9.56l-.06-.12a17.71,17.71,0,0,0,4.75-9.44h-1a13.31,13.31,0,0,1-2.8,4.13l-.1-.11a23.11,23.11,0,0,0,2.67-8.46,2.49,2.49,0,0,0-.1-.7l2.07.83c.21.08.31.21.31.33,0,.27-.39.37-.72.46-.54,1.66-.9,2.5-1.1,3h6l.5-.52c.12-.14.22-.22.31-.22a.87.87,0,0,1,.37.18l1,.73c.14.1.22.17.22.29C301,252.69,300.55,252.92,300.32,253Z"/><path d="M313.09,252.81a21.66,21.66,0,0,0,1.23-3.46h-5.41a14,14,0,0,0-2.45.19l-.42-.83c1.06.08,2.12.14,3.2.14H321.6l.91-.89c.17-.16.33-.31.39-.31s.19.06.4.23l1.16.93c.08.07.21.19.21.31s-.21.23-.34.23h-8.06a36.1,36.1,0,0,1-2.68,3.46h7.55l.58-.6c.21-.2.27-.27.4-.27s.26.13.37.21l.95.81a.38.38,0,0,1,.17.27c0,.19-.08.25-.83.66,0,2.35,0,5.31,0,7.66,0,1,.1,2.5.1,3.46a.92.92,0,0,1-1,1c-.62,0-.62-.33-.58-1.51h-11.8c0,.08,0,.56,0,.66a1,1,0,0,1-1,1c-.66,0-.66-.46-.66-.65s.06-1.09.06-1.26c0-2.26.15-7,.15-9a15,15,0,0,0-.29-3.4l2.13,1Zm-3.58.5V264h2.76V253.31Zm7.32,3.15v-3.15h-3.18v3.15Zm0,3.63V257h-3.18v3.13Zm0,3.88v-3.38h-3.18V264Zm4.48,0V253.31h-3.07V264Z"/><path d="M328.48,261.67a26.65,26.65,0,0,0,3.86-7.94h-.48a15.47,15.47,0,0,0-2.44.18l-.4-.83c1.19.11,2.39.15,3.47.15,0-1,0-2.47,0-3.36a19.93,19.93,0,0,1-3.38.37v-.16c.41-.15,4.52-1.52,5.59-2.32a1.49,1.49,0,0,0,.44-.5l1.43,1.2a.38.38,0,0,1,.15.29c0,.21-.21.21-.4.21l-.6,0a18,18,0,0,1-1.93.62c0,.95,0,2.86,0,3.67h.4l.49-.75c.09-.12.19-.27.32-.27s.29.15.39.23l.89.75a.44.44,0,0,1,.21.33c0,.21-.21.21-.31.21h-2.39c0,.39,0,1.32,0,1.82,2,.73,2.72,2,2.72,2.62a.79.79,0,0,1-.77.82c-.5,0-.56-.2-1-1.36a3.78,3.78,0,0,0-1-1.81c0,3.61,0,4,.09,5.6,0,1.41.08,3.05.08,3.8,0,.37,0,1.2-1,1.2-.54,0-.6-.31-.6-.71,0-.68.17-3.73.19-4.35,0-2,0-2.84,0-4.65a13.55,13.55,0,0,1-3.92,5.06Zm6.66,4.38c1.45-.71,3.8-2.08,4.29-3l1.5,1.1a.37.37,0,0,1,.18.31c0,.29-.47.27-1,.27a16.56,16.56,0,0,1-4.94,1.43Zm9.21-16.51.52-.83c.1-.17.2-.29.31-.29s.27.14.39.25l1,.83a.44.44,0,0,1,.21.33c0,.19-.17.21-.32.21h-4.39v1.7h1.66l.49-.75c.09-.12.17-.25.32-.25s.24.13.37.23l.85.72a.49.49,0,0,1,.21.34c0,.18-.19.2-.31.2h-3.59v1.87h3.44l.6-.85c.1-.17.23-.27.33-.27s.25.12.38.25l.89.83c.1.1.21.21.21.33s-.17.21-.32.21H339a14.66,14.66,0,0,0-2.45.18l-.41-.82c1.05.08,2.13.14,3.19.14h1.35v-1.87h-.5a13.16,13.16,0,0,0-2.45.21l-.39-.83c.62,0,1.53.13,3.34.13,0-.81,0-1.31,0-1.7h-1.37a14.53,14.53,0,0,0-2.45.18l-.41-.83c1.51.13,2.84.15,3.19.15h1a6,6,0,0,0-.38-2.22l2.12.64a.32.32,0,0,1,.29.31c0,.27-.48.5-.58.54v.73Zm-.48,6.49.48-.52c.08-.08.21-.21.29-.21s.25.13.33.19l.81.68a.56.56,0,0,1,.23.38c0,.21-.25.37-.6.54a4.83,4.83,0,0,0,0,.76c0,.71.17,3.8.17,4.42a.85.85,0,0,1-.95,1c-.54,0-.54-.27-.52-.71h-4.94c0,.48.07,1-.93,1-.35,0-.54-.1-.54-.47,0,0,0-.21,0-.5,0-.77,0-3,0-3.92a13.89,13.89,0,0,0-.22-3.28l1.63.73Zm-4.73.5V258h4.94v-1.47Zm0,2V260h4.94V258.5Zm0,2V262h4.94v-1.53Zm3.49,2.82c1.86.16,4.5,1.1,4.5,2.34a.84.84,0,0,1-.83.81c-.48,0-1-.52-1.31-.91a10.22,10.22,0,0,0-2.36-2.1Z"/><path d="M354.53,252.79a1.22,1.22,0,0,1-1.2,1.21,1.2,1.2,0,0,1-1.2-1.21,1.2,1.2,0,1,1,2.4,0Zm0,8.17a1.21,1.21,0,0,1-1.2,1.21,1.21,1.21,0,0,1,0-2.41A1.2,1.2,0,0,1,354.53,261Z"/><path d="M359.49,264.1h1.14c1.08,0,1.45-.42,1.45-1.27V251.61c0-.64-.6-.74-1-.74h-1.58v-.65h.37a7.9,7.9,0,0,0,3.38-.87c.15-.08.21-.12.29-.12s.23.12.23.29v13.31c0,.89.44,1.27,1.45,1.27h1.14v.66h-6.88Z"/><path d="M375.79,265.15a4.19,4.19,0,0,1-3.4-2.24,12.91,12.91,0,0,1-1.27-5.91c0-4.41,1.89-7.77,4.67-7.77,2.14,0,4.67,2.3,4.67,8C380.46,262.27,378.32,265.15,375.79,265.15Zm-2.32-12.46a18.79,18.79,0,0,0-.48,4.5c0,4.62,1.1,7.26,2.8,7.26,1.43,0,2.07-1.91,2.3-2.7a19.21,19.21,0,0,0,.5-4.56c0-4.73-1.14-7.26-2.8-7.26C374.32,249.93,373.67,252,373.47,252.69Z"/><path d="M393.27,249.62v1.1c-3.29,5.08-4.46,8-4.73,12.59,0,.54-.1,1.84-1.16,1.84a1.08,1.08,0,0,1-1.05-1.14c0-1.47,1.45-5.82,5.82-12.75h-3.54c-3,0-3.47,1.39-3.92,2.72l-.62-.15.85-4.21Z"/><path d="M399.45,264a1.2,1.2,0,1,1-1.2-1.2A1.22,1.22,0,0,1,399.45,264Z"/><path d="M412.46,249.62v1.1c-3.3,5.08-4.46,8-4.73,12.59,0,.54-.11,1.84-1.16,1.84a1.09,1.09,0,0,1-1.06-1.14c0-1.47,1.45-5.82,5.83-12.75h-3.55c-3,0-3.46,1.39-3.92,2.72l-.62-.15.85-4.21Z"/><path d="M424.19,264.76h-8.14v-.56a13.91,13.91,0,0,1,3-4.65c3.05-3.52,4.09-4.7,4.09-6.78a2.67,2.67,0,0,0-2.76-2.84c-1.45,0-2.32.87-2.32,1.62a1.13,1.13,0,0,0,.21.64,1.88,1.88,0,0,1,.43,1,1.15,1.15,0,0,1-1.12,1.16,1.31,1.31,0,0,1-1.18-1.45,4.15,4.15,0,0,1,4.46-3.71c2.57,0,4.15,1.62,4.15,3.85s-1.21,3.24-3.07,4.84c-.71.58-3.45,2.92-4.48,5.2h2.86c2.9,0,3.59-1.12,4.21-2.84l.62.23Z"/><path d="M432.26,254.56v1.63a4.71,4.71,0,0,1,3.42-1.63,2.29,2.29,0,0,1,2.49,1.86,5.2,5.2,0,0,1,3.71-1.86c1.83,0,2.66,1.1,2.66,3.4v4.89c0,.79.41,1.25,1,1.25H446v.66h-4.33v-.66H442c.72,0,1-.56,1-1.25v-4.77c0-.58-.09-2.63-1.81-2.63a3.9,3.9,0,0,0-2.94,1.8,5.05,5.05,0,0,1,0,.71v4.89c0,.87.48,1.25,1,1.25h.6v.66h-4.77v-.66h.6c.58,0,1.06-.4,1.06-1.25v-4.77c0-.43-.07-2.63-1.81-2.63a3.71,3.71,0,0,0-2.8,1.64v5.76c0,.87.48,1.25,1,1.25h.37v.66h-4.31v-.66h.37c.63,0,1-.44,1-1.25v-6.24a.85.85,0,0,0-.85-1,1.83,1.83,0,0,0-.62.08l-.11-.4ZM443,253.33a12.86,12.86,0,0,1,1.21-1.32c.43-.48,1.18-1.29,1.18-2,0-.27-.17-.77-.64-.77a.69.69,0,0,0-.71.56c0,.08.19.45.19.54a.57.57,0,0,1-.58.54.65.65,0,0,1-.63-.71,1.76,1.76,0,0,1,1.83-1.49,1.4,1.4,0,0,1,1.51,1.41,1.66,1.66,0,0,1-.64,1.35c-.23.22-1.51,1.26-1.72,1.55h1.28a.84.84,0,0,0,.81-.7l.34.1-.44,1.43h-3Z"/><path d="M458.39,266.92a12.72,12.72,0,0,1,0-20.08l.19.29a14,14,0,0,0,0,19.5Z"/><path d="M481.91,262.25h-8.54c0,.75.06,2.65.06,3.4a1,1,0,0,1-1,.89.62.62,0,0,1-.7-.66c0-.27.06-1.41.06-1.64,0-1,0-1.14,0-2h-5.54a14,14,0,0,0-2.42.19l-.42-.83c1.29.1,2.55.14,3.18.14h5.2l0-2.34H468c0,.41.06.54-.13.73a1.37,1.37,0,0,1-.93.37c-.4,0-.54-.17-.54-.52s.08-1.18.08-1.39c0-1,.06-2,.06-3a16.13,16.13,0,0,0-.24-3.87l1.94.95h3.65c0-.33,0-1.89,0-2.2H467a13.94,13.94,0,0,0-2.42.19l-.42-.83c1.41.12,2.9.14,3.17.14h4.48a7.25,7.25,0,0,0-.41-2.59l2.11.46c.21,0,.4.14.4.31s0,.21-.19.33a2.32,2.32,0,0,0-.39.37c0,.17,0,.9,0,1.12h5.22l.79-1c.14-.19.21-.25.33-.25a.61.61,0,0,1,.39.21l1.25,1c.1.09.21.21.21.32s-.19.2-.31.2h-7.88l0,2.2h3.57l.54-.52c.23-.21.31-.29.42-.29a1,1,0,0,1,.41.23l.85.66c.1.09.23.21.23.33s-.13.27-.73.67c0,.39,0,.83,0,1.49s.15,3.3.15,3.84a1,1,0,0,1-1,1c-.58,0-.56-.29-.56-.66h-3.83l0,2.34h5.78l.89-1.08c.15-.16.23-.24.34-.24a.71.71,0,0,1,.37.2l1.26,1.08a.51.51,0,0,1,.21.33C482.22,262.19,482.1,262.25,481.91,262.25Zm-10-9.08H468v2.55h3.91ZM468,256.22l0,2.69h3.83l0-2.69Zm9.22-3.05h-3.9v2.55h3.9Zm0,3.05h-3.9l.05,2.69h3.85Z"/><path d="M504.27,250.37H489.79c0,.64.09,2.3.09,2.8,0,3.25-.07,8.89-3.72,12.21l-.1-.08c2.16-3.8,2.32-7.65,2.32-11.22a24.66,24.66,0,0,0-.37-5.14l2.12.93h5.06a6.85,6.85,0,0,0-.42-2.63l2,.52c.21.06.37.12.37.35s-.31.45-.5.56v1.2h5l.79-1c.13-.16.21-.24.31-.24s.25.1.42.22l1.22,1a.4.4,0,0,1,.21.31C504.58,250.33,504.39,250.37,504.27,250.37Zm.14,12.77H497.2c0,.35,0,1.89,0,2.2s0,1-1,1c-.58,0-.6-.29-.6-.61s0-2.11,0-2.59h-3.81a12.87,12.87,0,0,0-2.45.21l-.41-.83c1.28.1,2.57.12,3.19.12h3.48l0-2.34H492.8c0,.39,0,1-.93,1-.54,0-.56-.31-.56-.6,0-.13,0-.67,0-.77,0-1.14.06-2.3.06-3.36a10.54,10.54,0,0,0-.17-2.36l1.71.7h2.77V253.1H493a13.55,13.55,0,0,0-2.45.19l-.42-.83c1.29.11,2.58.15,3.2.15h2.42a6.85,6.85,0,0,0-.24-2l1.9.53c.09,0,.27.11.27.27s-.27.38-.56.54v.69h4.11l.62-.87c.1-.15.19-.27.31-.27a1.08,1.08,0,0,1,.38.2l1.18.9a.43.43,0,0,1,.2.31c0,.2-.16.22-.31.22h-6.49v1.83h3l.52-.58c.06-.06.14-.17.25-.17s.18.07.33.19l.76.66a.46.46,0,0,1,.19.36c0,.18-.21.35-.58.58a2.5,2.5,0,0,0,0,.56c0,.58.16,3.15.16,3.63a.87.87,0,0,1-.93.85c-.54,0-.56-.34-.56-.71h-3.05l.07,2.34h4.62l.75-1c.14-.19.2-.25.31-.25s.18,0,.41.23l1.25,1a.55.55,0,0,1,.2.34C504.72,263.14,504.54,263.14,504.41,263.14Zm-8.69-7.71H492.8v1.78h2.94Zm-2.92,2.28v2.09h2.92c0-.7,0-1.76,0-2.09Zm7.36-2.28h-3.07l0,1.78h3.09Zm0,2.28h-3.09c0,.33,0,1.39,0,2.09h3.05Z"/><path d="M516.94,252.81a20.62,20.62,0,0,0,1.22-3.46h-5.41a14.05,14.05,0,0,0-2.45.19l-.41-.83c1.06.08,2.12.14,3.19.14h12.36l.92-.89a1.23,1.23,0,0,1,.39-.31c.1,0,.19.06.39.23l1.16.93a.47.47,0,0,1,.21.31c0,.21-.21.23-.33.23h-8.07a36.11,36.11,0,0,1-2.67,3.46H525l.58-.6c.2-.2.27-.27.39-.27a.88.88,0,0,1,.37.21l1,.81a.39.39,0,0,1,.16.27c0,.19-.08.25-.83.66,0,2.35,0,5.31,0,7.66,0,1,.1,2.5.1,3.46a.93.93,0,0,1-1,1c-.62,0-.62-.33-.58-1.51h-11.8c0,.08,0,.56,0,.66a1,1,0,0,1-1,1c-.67,0-.67-.46-.67-.65s.07-1.09.07-1.26c0-2.26.14-7,.14-9a14.47,14.47,0,0,0-.29-3.4l2.14,1Zm-3.59.5V264h2.76V253.31Zm7.32,3.15v-3.15H517.5v3.15Zm0,3.63V257H517.5v3.13Zm0,3.88v-3.38H517.5V264Zm4.48,0V253.31h-3.07V264Z"/><path d="M532.33,261.67a26.65,26.65,0,0,0,3.86-7.94h-.48a15.58,15.58,0,0,0-2.45.18l-.39-.83c1.18.11,2.38.15,3.46.15,0-1,0-2.47,0-3.36a19.71,19.71,0,0,1-3.38.37v-.16a34.87,34.87,0,0,0,5.6-2.32,1.62,1.62,0,0,0,.44-.5l1.43,1.2a.37.37,0,0,1,.14.29c0,.21-.21.21-.39.21l-.6,0a18.8,18.8,0,0,1-1.93.62c0,.95,0,2.86,0,3.67H538l.5-.75c.08-.12.19-.27.31-.27s.29.15.39.23l.9.75a.43.43,0,0,1,.2.33c0,.21-.2.21-.31.21h-2.38c0,.39,0,1.32,0,1.82,2,.73,2.72,2,2.72,2.62a.79.79,0,0,1-.77.82c-.5,0-.56-.2-1-1.36a3.77,3.77,0,0,0-1-1.81c0,3.61,0,4,.08,5.6,0,1.41.08,3.05.08,3.8,0,.37,0,1.2-1,1.2-.54,0-.6-.31-.6-.71,0-.68.16-3.73.18-4.35,0-2,0-2.84,0-4.65a13.55,13.55,0,0,1-3.92,5.06Zm6.66,4.38c1.45-.71,3.79-2.08,4.29-3l1.49,1.1a.36.36,0,0,1,.19.31c0,.29-.48.27-1,.27a16.42,16.42,0,0,1-4.93,1.43Zm9.2-16.51.52-.83c.11-.17.21-.29.31-.29s.27.14.4.25l1,.83a.42.42,0,0,1,.21.33c0,.19-.17.21-.31.21h-4.4v1.7h1.66l.5-.75c.08-.12.17-.25.31-.25s.25.13.37.23l.85.72a.46.46,0,0,1,.21.34c0,.18-.18.2-.31.2h-3.59v1.87h3.45l.6-.85c.1-.17.23-.27.33-.27s.25.12.37.25l.89.83a.51.51,0,0,1,.21.33c0,.21-.16.21-.31.21h-8.63a14.49,14.49,0,0,0-2.44.18L540,254c1.06.08,2.14.14,3.2.14h1.34v-1.87H544a13.1,13.1,0,0,0-2.45.21l-.4-.83c.63,0,1.54.13,3.34.13,0-.81,0-1.31,0-1.7h-1.37a14.37,14.37,0,0,0-2.44.18l-.42-.83c1.52.13,2.84.15,3.2.15h1a6,6,0,0,0-.37-2.22l2.11.64a.31.31,0,0,1,.29.31c0,.27-.47.5-.58.54v.73Zm-.47,6.49.47-.52c.09-.08.21-.21.29-.21s.25.13.34.19l.8.68a.52.52,0,0,1,.23.38c0,.21-.25.37-.6.54a7.23,7.23,0,0,0,0,.76c0,.71.17,3.8.17,4.42a.85.85,0,0,1-1,1c-.54,0-.54-.27-.52-.71H543c0,.48.06,1-.93,1-.36,0-.54-.1-.54-.47,0,0,0-.21,0-.5,0-.77,0-3,0-3.92a13.3,13.3,0,0,0-.23-3.28L543,256Zm-4.73.5V258h4.93v-1.47Zm0,2V260h4.93V258.5Zm0,2V262h4.93v-1.53Zm3.48,2.82c1.87.16,4.5,1.1,4.5,2.34a.83.83,0,0,1-.83.81c-.47,0-.95-.52-1.3-.91a10.57,10.57,0,0,0-2.37-2.1Z"/><path d="M562.69,250c-.27.54-.83,1.68-1.39,2.64-.89,1.51-1,1.68-1.1,1.88a5.47,5.47,0,0,1,2.53,4.26,2.49,2.49,0,0,1-2.38,2.63,2.67,2.67,0,0,0-1.12-1.87l0-.16a6.26,6.26,0,0,0,1.08.12c.58,0,.95-.1.95-1.39a4.67,4.67,0,0,0-1.57-3.54,32.38,32.38,0,0,0,1.45-5.33H559c0,1.16,0,7.27,0,8.93,0,1.08.1,6.58.1,6.85a1,1,0,0,1-1.08,1,.51.51,0,0,1-.56-.58c0-.08,0-.29,0-.41.17-2.3.23-4.15.23-11.18a25.91,25.91,0,0,0-.39-6.05l1.89.93h2.11l.46-.44c.12-.12.22-.2.33-.2s.18.08.33.2l1,.83a.41.41,0,0,1,.13.29C563.48,249.64,563.31,249.77,562.69,250Zm2.37,11.49a12.32,12.32,0,0,1-4.32,3.53l0-.13c1.56-1.57,3.09-3.34,3.34-5l1.6.94c.18.1.27.16.27.31C565.91,261.42,565.32,261.44,565.06,261.44Zm8.83-6.2a15.18,15.18,0,0,1-5.77-6l-.1,0a19.57,19.57,0,0,1-6.26,6.41l-.09-.17c2.16-1.93,4.69-5.79,5-7.82l1.89.83a.35.35,0,0,1,.19.29c0,.25-.21.31-.31.36,3.13,3.6,5.49,4.27,7.15,4.56v.12A3.21,3.21,0,0,0,573.89,255.24Zm-.46,3.73h-5c0,.71.05,3.84.05,4.48,0,1.45-.11,2.18-2.41,2.86a2.66,2.66,0,0,0-1.7-2v-.15c.48,0,1.18.1,1.85.1s.83,0,.87-.35c0-.19,0-1.53,0-5h-1.21a12.54,12.54,0,0,0-2.44.19l-.4-.83c1.41.13,2.89.15,3.18.15h.85v-3.24a14.27,14.27,0,0,0-2.68.19l-.41-.83c1.41.12,2.9.14,3.19.14h1.89l.58-.8c.12-.17.18-.27.31-.27s.21.08.37.22l1,.81a.41.41,0,0,1,.2.31c0,.21-.18.23-.33.23h-2.76v3.24h2.7l.58-1c.06-.12.19-.27.31-.27s.23.11.38.23l1.18,1c.08.08.2.16.2.31S573.58,259,573.43,259Zm-.12,5.87c-.58,0-.73-.25-1.29-1.32a8,8,0,0,0-2.32-2.7l.1-.1c1.87.39,4.36,1.68,4.36,3.19A.83.83,0,0,1,573.31,264.84Z"/><path d="M587.62,266.27c-.33,0-.39-.08-1.37-1.66-1.14-1.84-1.62-2.32-5.56-6.22a2.37,2.37,0,0,1-.74-1.47c0-.33.06-.68.76-1.43,2.1-2.22,5.25-5.52,5.25-6.32,0-.5-.46-1-1-1.5a2.49,2.49,0,0,1,2.8,2.12c0,.41-.2.58-.82,1.08a70.43,70.43,0,0,0-5.48,5.24,1,1,0,0,0-.35.77c0,.52.14.66,1.82,2.2,4.65,4.19,5.48,4.91,5.48,6C588.41,265.55,588.14,266.27,587.62,266.27Z"/><path d="M594.32,266.92l-.19-.29a14,14,0,0,0,0-19.5l.19-.29a12.72,12.72,0,0,1,0,20.08Z"/><path class="cls-2" d="M110.54,163.4a24.3,24.3,0,0,0,6.69-6.42H111.5v-3.16h6.69v-3.19h-6.86V147.5H115a28.66,28.66,0,0,0-1-4.91h-2v-3.12h6.2v-2.85h3.16v2.85h5.7v3.12H125.5c-.69,3.16-.76,3.54-1.18,4.91h3.23v3.13h-6.2v3.19h5.44V157H122a17.07,17.07,0,0,0,4,3.91L124.38,164a17.89,17.89,0,0,1-3-3.67v8.62h-3.16v-8.55a25.72,25.72,0,0,1-5.84,6.18ZM117,142.59a40.72,40.72,0,0,1,1,4.91h3.33a40.21,40.21,0,0,0,1-4.91Zm25.15-2.74A26.2,26.2,0,0,1,132,142.42v5.22h10.19v3.3h-3.23v18h-3.43v-18H132v.92c0,9.58-1.81,13.25-4.41,17.07l-3.2-2.3c2.87-3.57,4.32-7.08,4.32-14.66V139.19a23.66,23.66,0,0,0,11.6-2.57Z"/><path class="cls-2" d="M159.62,153.41c-2.28.51-9.46,1.68-11.67,2l-.53-3.15c.3,0,4.68-.48,5.47-.59v-3.43H149v-2.75h.23l-2.07-2.23a16.42,16.42,0,0,0,5-6.69l3.23.61a11.53,11.53,0,0,1-.52,1.45h7.71v2.74h-5c.36.66.62,1.17.89,1.79l-3.23,1.23a17.23,17.23,0,0,0-1.06-3h-.85a19.1,19.1,0,0,1-3.5,4.12h10.09v2.75H156v3.09c2.24-.28,2.94-.41,3.86-.59v2c2.67-1.75,3-3.64,3.13-7.76h11.86v6.38c0,.62.14.76.4.76.73,0,.79,0,.86-.93,0-.27,0-1.61,0-1.92L179,150c-.16,3.64-.26,4.8-2.07,4.8h-3.07c-1,0-2-.65-2-2.33V147.6h-5.93a9.8,9.8,0,0,1-4.06,7.8h2.84v1.41h13.91v2.95H167.3c1.55,1.27,3.72,3,11.73,5L177.55,168a31.66,31.66,0,0,1-12.92-6.9v7.72h-3.2v-7.76c-3.92,4.05-9.36,6-12.79,6.94l-1.35-3.26a28.26,28.26,0,0,0,11.6-5H147.62v-2.95h13.81v-1.17ZM167,141.32a13.1,13.1,0,0,1-2.34,3.13l-2.8-2a12.64,12.64,0,0,0,3.65-5.73l3.33.51c-.19.59-.29.9-.46,1.38h10.19v2.74H172a10.12,10.12,0,0,1,.86,1.75l-3,1.27c-.26-.68-.92-2.26-1.28-3Zm1.09,6.87a25.17,25.17,0,0,1,3.46,3.57l-2.15,2.09a27.29,27.29,0,0,0-3.36-3.6Z"/><path class="cls-2" d="M188.76,149.25c-1.55,1.44-2.51,2.2-3.4,2.89L183,149a23.67,23.67,0,0,0,9.89-12.49l3.42.92a29,29,0,0,1-7.18,11.4h20.3c0,3.47-.1,12.4-1.35,16.93-.86,3.09-3.1,3.19-4.55,3.19h-5l-.66-3.64h5c1.88,0,2.18-1.72,2.44-3.23a57.1,57.1,0,0,0,.66-9.78h-7.65c-.85,9.27-5.43,13.66-12.26,16.65l-2-3.3c7.15-3.12,9.92-6.24,10.75-13.35h-6Zm24.32,2.61a35,35,0,0,1-10.68-14.31l3.43-1c1.71,4.29,5.24,9.61,9.65,12.36Z"/><path class="cls-2" d="M220,142.46h10.91v3H220Zm.83-5.09h9v3.09h-9Zm0,10.06h9v3.13h-9Zm0,5.12h9v3h-9Zm0,5.25h9v9.79h-6.07V169h-3Zm3,3v4h3.1v-4Zm27-.69a39.06,39.06,0,0,1-3.59,3.09,17.6,17.6,0,0,0,4,2.64L249.53,169c-4.22-2.4-7.87-6-9-10.85a15.91,15.91,0,0,1-2.35,2.13v4.6c2.61-.21,3.66-.38,4.92-.55v3.23c-2.48.37-7.65,1-11,1.06l-.56-3.47c1,0,1.81,0,3.56-.07V162.3a26.34,26.34,0,0,1-3.69,1.65l-1.35-3a18.75,18.75,0,0,0,6.85-3.3h-6v-2.57h4.68v-1.75h-3.49V151h3.49v-1.51h-4.05V147h4.05v-1.13h3V147h5v-1.13h3V147h4.28v2.44h-4.28V151h3.62v2.37h-3.62v1.75h4.48v2.57h-7.78a21.54,21.54,0,0,0,1.81,3.1,24.47,24.47,0,0,0,3.1-2.85Zm-19.31-16.45a23.88,23.88,0,0,0,6.06-2.06h-6.39v-2.88h8.17v-1.92h3.33v1.92h8.34v2.88h-6.33a22.72,22.72,0,0,0,6.33,2.17l-1.35,2.43a20.6,20.6,0,0,1-7-2.43l1.68-2.17H237.8l2,2.17a30.18,30.18,0,0,1-6.92,2.64Zm7.05,5.84V151h5v-1.51Zm0,3.88v1.75h5v-1.75Z"/><path class="cls-2" d="M259.42,152.41a23.19,23.19,0,0,1-2.27,2.85l-1.48-4.39a28.18,28.18,0,0,0,5.7-14.15l3.43.45a29.83,29.83,0,0,1-2,8.55v23.17h-3.36Zm18.33-8.86a30.75,30.75,0,0,0-6.46-4.32l2.11-2.89a46.55,46.55,0,0,1,6.62,4.12l-2,3.09h8.54V147h-8.84v6.49h7.62v3.4h-7.62v7.62h9.59v3.33H264.63v-3.33h9.56v-7.62h-7.65v-3.4h7.65V147h-8.74v-3.4Z"/><path class="cls-2" d="M307.58,154.2l15.65-1.72.27,3.4-15.92,1.75v6.8c0,.65.46.65.69.65h9.06a1,1,0,0,0,1.06-.89,44.17,44.17,0,0,0,.23-4.6l3.59.92c-.13,5.19-.3,8.14-3.59,8.14H307.28c-.86,0-3.16,0-3.16-2.54V158l-11.34,1.27-.23-3.43,11.57-1.28v-4.15c-1.91.24-4.06.38-5.94.52l-1.08-3.51c2.53-.1,12-.44,19.51-3.22l1.71,3.22A46.48,46.48,0,0,1,307.58,150Zm-1.22-17.55h3.43v3h12.82v8.2h-3.43v-4.77H297v4.77H293.5v-8.2h12.86Z"/><path class="cls-2" d="M334.05,148.53c-1.49.9-2.71,1.48-4,2.13l-1.69-3.47a32.85,32.85,0,0,0,14-10.57h3.7a29.79,29.79,0,0,0,14.23,10.47l-1.84,3.5a27.08,27.08,0,0,1-4-2.06v2.58H346v4.63h10.41v3.09H346v5.56h13.35v3.51H329.07v-3.51h13.38v-5.56H332.1v-3.09h10.35v-4.63h-8.4Zm19.24-.79a42.37,42.37,0,0,1-9.09-8.1,37.55,37.55,0,0,1-8.9,8.1Z"/><path class="cls-2" d="M369.78,156.6c0,3.4-.07,5.8,6.85,5.8,4.68,0,6.79-.75,6.79-4.43,0-1.85-.2-4.43-5-4.43h-4.09v-3.33h4.09c1.65,0,4.71,0,4.71-3.87,0-3.09-1.75-4.12-5.67-4.12-7,0-7.05,2.3-7.08,4.94h-4c.23-7.66,4.12-8.65,10.84-8.65,3.07,0,9.79,0,9.79,7.34,0,4.81-2.9,5.63-3.69,5.88,1,.37,4,1.47,4,6.42,0,7.55-6.19,8-10.25,8-9.33,0-11.24-2.92-11.24-9.51Z"/><path class="cls-2" d="M392.88,157.32a31.07,31.07,0,0,0,4.75-11.09h-4.26v-3.29h4.36v-6.25h3.16v6.25h3.66v3.29h-3.66v1.2a18.73,18.73,0,0,0,4.05,6.42L403.26,157a21.15,21.15,0,0,1-2.37-4.29v16.17h-3.16v-15.1c-1.42,5.08-2.74,6.86-3.63,8.1Zm9.79,7.25A22.68,22.68,0,0,0,411,157h-5.67V144.62h7.42v-2h-8.24V139.3h8.24v-2.61h3.1v2.61h8.5v3.36h-8.5v2h7.44V157H417.9a24.58,24.58,0,0,0,7,7.25L423,167.31a23.5,23.5,0,0,1-7.11-8.51v10.09h-3.1v-9.65a24.36,24.36,0,0,1-8.24,8.42Zm5.77-17.24v2.27h4.35v-2.27Zm0,4.7v2.24h4.35V152Zm7.45-4.7v2.27h4.45v-2.27Zm0,4.7v2.24h4.45V152Z"/><path class="cls-2" d="M448.62,156.6c0,3.4-.07,5.8,6.85,5.8,4.68,0,6.79-.75,6.79-4.43,0-1.85-.2-4.43-5-4.43h-4.09v-3.33h4.09c1.65,0,4.71,0,4.71-3.87,0-3.09-1.74-4.12-5.67-4.12-7,0-7.05,2.3-7.08,4.94h-4c.23-7.66,4.12-8.65,10.85-8.65,3.06,0,9.78,0,9.78,7.34,0,4.81-2.9,5.63-3.69,5.88,1,.37,4,1.47,4,6.42,0,7.55-6.19,8-10.25,8-9.32,0-11.24-2.92-11.24-9.51Z"/><path class="cls-2" d="M479.3,159.79c-.33.62-.66,1.17-1.28,2.13l-3.43-1.37a45.11,45.11,0,0,0,3.76-7.25h-6V150h30.91v3.26H482.14c-.27.69-1.09,2.72-1.35,3.27h19.47c-.19,2.64-.65,8-1.71,10a4.1,4.1,0,0,1-3.82,2.37h-5.8l-.76-3.61h5.93c1.19,0,2.08-.62,2.44-5.53Zm21.19-22v9.78H475.31v-9.78Zm-21.88,3.12v3.57H497.2v-3.57Z"/><path class="cls-2" d="M507.65,157.32a31.07,31.07,0,0,0,4.75-11.09h-4.26v-3.29h4.35v-6.25h3.17v6.25h3.66v3.29h-3.66v1.2a18.73,18.73,0,0,0,4.05,6.42L518,157a21.15,21.15,0,0,1-2.37-4.29v16.17h-3.17v-15.1c-1.41,5.08-2.73,6.86-3.62,8.1Zm9.79,7.25a22.78,22.78,0,0,0,8.37-7.56h-5.67V144.62h7.42v-2h-8.24V139.3h8.24v-2.61h3.09v2.61h8.51v3.36h-8.51v2h7.45V157h-5.44a24.81,24.81,0,0,0,7,7.25l-1.92,3.05a23.62,23.62,0,0,1-7.12-8.51v10.09h-3.09v-9.65a24.45,24.45,0,0,1-8.24,8.42Zm5.77-17.24v2.27h4.35v-2.27Zm0,4.7v2.24h4.35V152Zm7.44-4.7v2.27h4.45v-2.27Zm0,4.7v2.24h4.45V152Z"/></g></svg>