<svg xmlns="http://www.w3.org/2000/svg" width="650" height="295" viewBox="0 0 650 295"><defs><style>.cls-1{fill:#00ae22;}.cls-2{fill:#fff;}</style></defs><title>joho_matome</title><g id="レイヤー_3" data-name="レイヤー 3"><path class="cls-1" d="M126.78,85.26h22.33v3.86h-7.42v1.95h6.6v17h-3.75v-1.06H131.32v1.06H127.6v-17h5.7V89.12h-6.52Zm4.54,14.79v3.24h13.22v-2a2,2,0,0,1-1.27.47H140a1.74,1.74,0,0,1-1.69-1.88V94.78h-1.67a11,11,0,0,1-3.21,7.84Zm0-5.27v4.55a6.85,6.85,0,0,0,2-4.55Zm5.38-5.66v1.95h1.6V89.12Zm7.84,7.39V94.78h-2.85v2.85c0,.49,0,.74.4.74.75,0,.9,0,1-2.15Z"/><path class="cls-1" d="M162.2,106.18v.28c-2.6.66-8,1.41-9.26,1.56l-.33-3.84c1-.07,1.93-.15,3.58-.35V98H152.8V94.58h3.39v-1h-1.82v-1a6.6,6.6,0,0,1-1.22.89l-1-4.08a12.33,12.33,0,0,0,4.1-4.72H160a9.79,9.79,0,0,0,2.9,3.48,15.63,15.63,0,0,0,.11-2.77l3.37.37c0,.72,0,1.41-.16,2.87h.89V84.62h3.51v3.95h3.91v3.69h-3.91v1.66c0,.32,0,.59,0,.79H175v3.83h-3.82a13,13,0,0,0,4.29,5.91l-2.24,3.71a13.8,13.8,0,0,1-4.17-6.53,13.65,13.65,0,0,1-5.49,6.63Zm-7.31-7.64a27,27,0,0,1,.83,4.21l-2.59.79a21.37,21.37,0,0,0-.62-4.26Zm5-8.48a13.35,13.35,0,0,1-1.58-2.23,15,15,0,0,1-1.55,2.23Zm2.69,8.48V94.71h4.59c0-.27,0-.37,0-.57V92.26h-1.48a15.86,15.86,0,0,1-.66,2.1l-3.16-1.51a21.57,21.57,0,0,0,1.09-4.7l-1.75,3.07v2.33h-1.79v1h2.45V98h-2.45v5.42c1.37-.2,2-.32,2.78-.45l0,1.34a9.84,9.84,0,0,0,4.21-5.74Zm.35.52a28.46,28.46,0,0,1-1,3.59l-2.26-.55a17.63,17.63,0,0,0,.8-3.58Z"/><path class="cls-1" d="M178.69,103.74c1.11-1.56,4.06-5.59,4.48-17.57l4.08.57c-.8,11.73-2.59,16.75-5.12,20.28ZM194.55,86.3a28.13,28.13,0,0,1,.8,3.61l.5-.12c.92,6.08,1.83,9.62,4.9,13.9l-3.8,3.14c-2.89-4.5-4.71-10.09-5.39-20.09ZM196,89.17a27.44,27.44,0,0,0-1.06-4l1.86-.47A20.13,20.13,0,0,1,198,88.57Zm3.13-.32a31.79,31.79,0,0,0-1.2-4l2-.37a18.27,18.27,0,0,1,1.2,3.89Z"/><path class="cls-1" d="M204.93,103.71a22.93,22.93,0,0,0,12.6-13.11H206.36V86.5H223a25.7,25.7,0,0,1-4.12,10.71,55,55,0,0,1,7.58,6.75L223,107.54a80.26,80.26,0,0,0-6.62-7.09c-4.52,4.87-7.47,6.18-9.12,6.9Z"/><path class="cls-1" d="M250.52,82.1h-7.24v26.37h-5.39v-32h12.63Z"/><path class="cls-1" d="M256.91,77.55h26.31v5.62A85.37,85.37,0,0,0,269.58,92c-4.12,3.26-7.18,6.07-7.18,8.74,0,2.43,2.34,2.43,3.81,2.43h11c1.24,0,1.86-.48,2.35-1.82.23-.65.3-1.3.79-6l5.84,1.92c-.13,2.22-.59,6.61-1.44,8.56-1.27,2.94-5,3-5.38,3H264.78c-6.92,0-8.85-4.52-8.85-7.36,0-3.36,2.35-6.24,3.14-7.19,4.7-5.76,12.07-10.07,13.67-11H256.91Z"/><path class="cls-1" d="M320.32,89.91c-1.44-.68-2.84-1.34-4.14-2.09v2.09h-6.73v1.85H321.1v5.38h-8l5.38,1.54c-.23.68-.58,1.67-1.6,4.1h4.93v5.38H291.7v-5.38h4.86a42.85,42.85,0,0,0-1.5-4.07l5.25-1.57h-7.8V91.76h11.62V89.91h-6.59V87.79c-2.16,1.09-3.07,1.47-4.11,1.95L290.91,84c4.25-1.34,9.73-3.84,13.12-7.71h5.78A33.89,33.89,0,0,0,322.87,84Zm-16.19,7.23h-3.78a35.17,35.17,0,0,1,1.89,5.64h1.89Zm2.78-16.44a25.67,25.67,0,0,1-4.44,4.07h9A35.36,35.36,0,0,1,306.91,80.7Zm2.54,16.44v5.64h1.89A47.72,47.72,0,0,0,313,97.14Z"/><path class="cls-1" d="M339.77,109.05H327.13V103.4h7.25V77h5.39Z"/><path class="cls-1" d="M353.66,94.64c-.49.58-.68.78-1.2,1.37l-1.24-8.22c3.1-4.15,3.81-9.08,4.08-11.51l5.19.48c0,.21-.17,1.17-.2,1.41h8.13V76.45h5.19v1.72h9v4.14H360.13v-3A54.47,54.47,0,0,1,358.76,85v24.07h-5.1ZM380.4,99v2.74h-6.34v3.83c0,3.26-1.82,3.46-3.59,3.46H364.4l-.75-4.72H368c.68,0,.81-.35.81-.89v-1.68h-7V99h-2V92.38h22.43V99Zm.32-15.65v7.84H361.3V83.37Zm-3.36,12.87h-12.7v1.37h12.7Zm-10.84-9.68v1.5h8.88v-1.5Z"/><path class="cls-1" d="M387.18,81.49A14.09,14.09,0,0,0,392,76.18l5.06,1.54a29.71,29.71,0,0,1-7.77,9.59Zm8,24.21V109h-5.15V97.61c-.59.55-.92.83-1.5,1.34l-1.34-7.19a26.28,26.28,0,0,0,6.53-7.6l4,2.63h7.64V84.43h-7.22v-5.2h7.22V76.39h5.29v2.84h7.21v5.2h-7.21v2.36h8V92h-8v2.33h6.75v5.2h-6.75V103c.65,0,1.79.1,3.52.1,2.09,0,3.49-.07,4.86-.14L418,108.33c-10.32.11-13.12-.17-16.55-4.21a17.67,17.67,0,0,1-3.23,5.2Zm8.46-12a41.48,41.48,0,0,1-.65,5,7.46,7.46,0,0,0,2.38,2.61V92h-7.93V88.16a25.11,25.11,0,0,1-2.26,3.6V104.5c1.21-1.37,3.14-4.08,3.63-11.2Z"/><path class="cls-1" d="M424.67,103.61c2.09,0,10.8-.07,15.4-2.43a3.08,3.08,0,0,1-1,.13h-6.27L432,96.69a20.81,20.81,0,0,1-5.16,4.11l-3.42-4.52a21.14,21.14,0,0,0,6.85-5.44h-6.53V85.66h4.41V78h5.35v7.7h3.3v-9.1h5.32v2.15h10.12v5H442.1v1.91h12.5v5.18h-6.1a31.19,31.19,0,0,0,6.69,5.61l-3.43,4.45a33.6,33.6,0,0,1-7.9-7.67l3.46-2.39H442.1V98a3.23,3.23,0,0,1-.78,2.39,15.38,15.38,0,0,0,4.11-4.14l3.85,3.77c-2.42,3.21-7.25,8.8-22.85,9.21Zm10.21-10.38a14.61,14.61,0,0,1-2.54,3.08h3.46c1,0,1-.92,1-1.23V90.84h-5.55Z"/><path class="cls-1" d="M469.05,96.76c-1.7.2-2.74.51-2.74,2.53v.86h17.26v5.61h-23.1v-5.37c0-2.6,0-8.22,6.36-9l8.36-1c1.89-.24,2.77-.59,2.77-2.88s-.72-3.36-5.55-3.36c-5.45,0-5.64.72-5.71,4.08H461c0-5.75.29-9.69,11-9.69,6.79,0,11.82.48,11.82,8.63,0,3.49-.85,5.27-2,6.33a8.1,8.1,0,0,1-4.8,2.26Z"/><path class="cls-1" d="M494.31,91.21c-.79.72-1.28,1.13-2,1.75l-3.52-5.27a21.27,21.27,0,0,0,9-11.41l5.35,1.06a31.91,31.91,0,0,1-5.52,10.31h14.53a42,42,0,0,1-5.45-10.13l5.35-1.31c1.73,4.08,4.31,8.6,9,11.82L517.41,93c-.68-.52-1.2-.93-1.79-1.47-.23,5.82-.46,12.15-1.54,14.79a3.83,3.83,0,0,1-4.14,2.81h-6.1l-1.08-5.69h4.83a1.62,1.62,0,0,0,1.47-.79c.26-.54.78-3.63,1-9.51h-5.55c-1,8.59-5.48,13-12.18,16.09l-3.16-5.45c8.55-3,9.56-7.8,9.79-10.64h-4.63Z"/><rect class="cls-1" x="56.71" y="127.29" width="536.57" height="53.21" rx="23.62"/><path class="cls-1" d="M198.69,57.23a19.63,19.63,0,0,0,13.16-15.48H199.16v-4.4h13V29.42h4.42v7.25c0,.1,0,.51,0,.68H230v4.4H217.12c1.91,9.2,7.15,13.08,13.61,15.62l-2.54,4.43a22.63,22.63,0,0,1-13.48-14.66A23.41,23.41,0,0,1,201.3,61.63Z"/><path class="cls-1" d="M235.21,56.2c2.15-.1,3.66-.2,6.93-.48V52.56H236v-3.7h6.1V46.25h-6V30.63h15.59V46.25h-6v2.61H252v3.7h-6.23v2.79c1.06-.11,3.66-.42,6.53-.83v3.85a137.6,137.6,0,0,1-16.68,2Zm4.42-22.11v2.75h2.67V34.09Zm0,5.87v2.89h2.67V40Zm6-5.87v2.75h2.67V34.09Zm0,5.87v2.89h2.67V40Zm10.85-4.91a26.56,26.56,0,0,1,2.83,1.72,17.7,17.7,0,0,0,2.11-2.44h-8.6v-3.7h12.92v3.6A23.37,23.37,0,0,1,262,38.9a15.65,15.65,0,0,1,1.68,1.72L262.47,42h3.92v3.84a28.24,28.24,0,0,1-1.71,6.56l-3.2-1.06a21.82,21.82,0,0,0,1.65-5.5h-2.27V58.71c0,2.4-.79,2.95-3.07,2.95h-4.45l-.56-4.32h3c.72,0,1.12,0,1.12-.93V45.83h-4.58V42h7.22a28.74,28.74,0,0,0-5.41-4.33Z"/><path class="cls-1" d="M277.31,59.19a14.13,14.13,0,0,0,3.13-5.25,59.33,59.33,0,0,1-9,3.5L271.08,53a30.35,30.35,0,0,0,3.42-.9V41.61h-3.09V37.49h3.09v-8h3.86v8h2.41v4.12h-2.41v9.17c1.29-.52,1.52-.62,2.14-.89l.23,3a43.75,43.75,0,0,0,.79-7.35V34.2h10.85c-.1-3.47-.1-3.88-.1-4.71h3.92c0,1.79-.06,2.71-.06,4.71h3.32a17.76,17.76,0,0,0-2.67-3.33L299.52,29a20.9,20.9,0,0,1,3.07,3.61l-2.35,1.58h2.44v3.94h-6.49a88,88,0,0,0,.59,9.34A37.87,37.87,0,0,0,299,39.9l3.5,1.23a40.73,40.73,0,0,1-4.68,12c.72,3.43.92,3.43,1.15,3.43.76,0,1.94-3.3,2.14-3.91l2.08,3.53c-.43,1.27-1.95,5.63-4.32,5.63s-3.23-2.37-4-4.77a24.84,24.84,0,0,1-6,4.74l-2.34-3.57a19.68,19.68,0,0,0,7.22-5.46,90.13,90.13,0,0,1-1.32-14.63h-7.12v3.61h6.3c0,4.12,0,10.71-.89,13-.53,1.37-1.12,1.92-3,1.92h-1.91l-.53-3.81H287c.56,0,.72-.24.82-.51.23-.65.36-1.92.53-6.87h-3v.62c0,4.19-1,12-4.51,15.72Z"/><path class="cls-1" d="M338.87,37H325.36v3.29h11V55.62c0,3.12-2,3.64-3,3.64h-5l-.76-4.43h3.89c.73,0,.76-.31.76-.93V44.39h-6.89V61.83h-4.15V44.39h-6.63V59.57h-4.15V40.27h10.78V37H307.86V32.79h13.35v-3.3h4.15v3.3h13.51Z"/><path class="cls-1" d="M345.5,31h26v4.15A100.26,100.26,0,0,0,357.2,45.46c-3.72,3.12-7.88,6.83-7.88,9.4,0,2.1,1.88,2.37,4.52,2.37h13.25c2.41,0,3.06-.27,3.66-7.65l4.35,1.54c-.13,2.78-.83,6.53-1.72,8.07s-2.4,2.3-5.14,2.3h-14.5a12.75,12.75,0,0,1-5.4-.76,6.08,6.08,0,0,1-3.7-5.45c0-3.16,1.88-5.74,4.75-8.66a81.65,81.65,0,0,1,14.37-11.39H345.5Z"/><path class="cls-1" d="M386.27,40.31c-1.74,1-3,1.54-4.18,2.09l-2.15-4.08c5.21-1.93,9.89-4.43,13.91-8.83h4a39.26,39.26,0,0,0,14,8.93l-2.14,4.19c-.86-.41-1.78-.86-4.12-2.17v2.17h-7.65V45.7H410.1v3.88H397.87v7.34h2.48a51.4,51.4,0,0,0,2.27-6.79l4.19,1.13a47.13,47.13,0,0,1-2.21,5.66h6.23v3.92H380.9V56.92h5.93a32.3,32.3,0,0,0-2.07-5.49l4-1.24a38.91,38.91,0,0,1,2.37,6.73h2.7V49.58H381.59V45.7h12.26V42.61h-7.58Zm16.45-1.55a42,42,0,0,1-7-5.73,37.4,37.4,0,0,1-6.86,5.73Z"/><path class="cls-1" d="M447.58,35.88H434.16v1.68h11.41V51h-8.44a29.68,29.68,0,0,0,11,6.08l-2.38,4.25a32.77,32.77,0,0,1-11.57-8.55v9h-4v-9a30.08,30.08,0,0,1-11.66,8.65l-2.38-4.18c7.22-2.72,9.76-5.08,11.11-6.32h-8.37V37.56h11.3V35.88H416.66V32.07h13.48V29.49h4v2.58h13.42Zm-24.89,7h7.45v-2.1h-7.45Zm0,5h7.45V45.77h-7.45Zm11.47-7.11v2.1h7.52v-2.1Zm0,5v2.09h7.52V45.77Z"/><path d="M284.67,206.3h1.44v17.77h3.95v1.12h-3.95v4.06c0,1.54.77,2.14,2.45,2.14h.56v1.12h-8.89v-1.12h.56c1.64,0,2.45-.56,2.45-2.14v-4.06h-9.41V224Zm-1.43,4.62-8.08,13.15h8.08Z"/><path d="M304,208.12h-1.22a2.25,2.25,0,0,0-2.49,2.41V229a2.25,2.25,0,0,0,2.49,2.42h.94a10.58,10.58,0,0,0,9.48-5.78l.91.46-2.48,6.44H293.77v-1.12H295a2.27,2.27,0,0,0,2.52-2.42V210.53a2.26,2.26,0,0,0-2.52-2.41h-1.19V207H304Z"/><path d="M318.33,207h10.05c8.18,0,13.26,4.2,13.26,12.6,0,6-3.15,12.95-12.95,12.95H318.33v-1.12h1.19A2.26,2.26,0,0,0,322,229V210.53a2.26,2.26,0,0,0-2.52-2.41h-1.19Zm6.48,22a2.25,2.25,0,0,0,2.48,2.42H329c6.33,0,9.52-5.67,9.52-12.11,0-4.44-1.82-11.16-9.38-11.16h-1.82a2.24,2.24,0,0,0-2.48,2.41Z"/><path d="M358.64,216.76l7.77,12.42a4.92,4.92,0,0,0,4.13,2.21H371v1.12h-9.9v-1.12H362a1.28,1.28,0,0,0,1.4-1.16,2.84,2.84,0,0,0-.49-1.43l-6.2-9.91-3.32,3.61V229a2.28,2.28,0,0,0,2.52,2.42h1v1.12h-9.73v-1.12h1A2.25,2.25,0,0,0,350.6,229V210.53a2.25,2.25,0,0,0-2.49-2.41h-1V207h9.73v1.16h-1a2.27,2.27,0,0,0-2.52,2.41v10.32l9.55-10.42a1.75,1.75,0,0,0,.46-1.12c0-1-1.09-1.19-1.86-1.19h-.91V207h9.87v1.16h-.63a6.84,6.84,0,0,0-5.6,2.52Z"/><path d="M53.63,256.72l.85-1.12c.12-.16.18-.25.31-.25s.14.05.39.23l1.39,1.1a.46.46,0,0,1,.21.33c0,.19-.19.21-.33.21H49.54c0,.68,0,3.67,0,4.27,0,.21,0,4.52,0,5.12H55l1-1.12c.15-.16.21-.24.31-.24s.19.06.4.22l1.37,1.1a.47.47,0,0,1,.2.31c0,.19-.18.23-.31.23H42.43a14.45,14.45,0,0,0-2.45.19l-.41-.83c1.39.12,2.8.14,3.19.14h5.29c0-.18,0-4.58,0-5.06v-4.33H43.65a14.51,14.51,0,0,0-2.45.19l-.41-.81c1.39.1,2.8.12,3.19.12H48C48,252,48,251.48,47.51,250l2.51.67c.2.06.33.1.33.29a.36.36,0,0,1-.19.31,6.28,6.28,0,0,1-.6.47c0,1.68,0,3.34,0,5Z"/><path d="M70,256.85H67.56v6.67c1.68-.49,2.16-.68,2.64-.85l.08.17a21.94,21.94,0,0,1-3,1.76l-2.55,1.29c-.18.43-.27.66-.52.66s-.26-.14-.33-.25l-1.08-1.84c.71,0,1.06.08,3.41-.56,0-.71,0-3.86,0-4.5v-2.55h-.42a14.66,14.66,0,0,0-2.45.18L63,256.2c1.22.11,2.47.15,3.26.15,0-1,0-2.07,0-3.11a12.39,12.39,0,0,0-.27-3.07l2.09.71c.1,0,.29.12.29.31s-.41.56-.7.74c0,1.45,0,2.16-.07,4.42h.5l.62-.68c.19-.21.25-.27.36-.27s.24.14.35.22l.72.69c.11.1.19.18.19.31S70.11,256.85,70,256.85Zm9.27,10.61c-.48.09-4.15.09-4.73.09-3.4,0-4-.17-4-2.43,0-.81.06-4.37.06-5.1,0-.21,0-1.14,0-1.33a11.1,11.1,0,0,0-2,1.1l-.71-.58a28.87,28.87,0,0,0,2.72-1.08v-3.67a10.28,10.28,0,0,0-.23-2.4l1.93.66c.15,0,.31.13.31.29s-.16.33-.66.68c0,.63,0,3.32,0,3.86l2.26-1c0-2.08,0-3.55,0-5a16.21,16.21,0,0,0-.25-1.83l2,.67c.2.06.35.16.35.31s-.29.43-.73.77c0,1.86,0,2.13,0,4.5l2-.9.5-.83c.11-.16.21-.35.35-.35a.79.79,0,0,1,.4.17l1,.6a.42.42,0,0,1,.21.33c0,.25-.23.46-.52.73,0,6.22,0,7.65-2.47,8.29a2.6,2.6,0,0,0-1.24-1.74v-.1a4.64,4.64,0,0,0,.64,0c1.45,0,1.68-.19,1.68-4.56,0-1.41,0-1.64,0-2.24l-2.47,1.12c0,3,0,5,.07,5.59,0,.27.06,1.5.06,1.75a1,1,0,0,1-1.06,1c-.29,0-.5-.1-.5-.54,0-.22.06-1.28.06-1.49.05-1.33.05-2.11.07-5.76l-2.26,1c0,.83,0,7.2,0,7.45a.69.69,0,0,0,.5.58c.26.08,3.23.08,3.62.08,2.14,0,2.78,0,3.22-.77a17.7,17.7,0,0,0,.91-2.51h.15a7.32,7.32,0,0,0,.39,2.47c.12.21.48.4.48.6S80.81,267.19,79.26,267.46Z"/><path d="M93,254.81a20.62,20.62,0,0,0,1.22-3.46H88.84a14.05,14.05,0,0,0-2.45.19l-.41-.83c1.06.08,2.12.14,3.19.14h12.36l.91-.89a1.35,1.35,0,0,1,.4-.31c.1,0,.19.06.39.23l1.16.93a.47.47,0,0,1,.21.31c0,.21-.21.23-.33.23H96.2a36.11,36.11,0,0,1-2.67,3.46h7.55l.58-.6c.2-.2.27-.27.39-.27a.88.88,0,0,1,.37.21l1,.81a.39.39,0,0,1,.16.27c0,.19-.08.25-.83.66,0,2.35,0,5.31.05,7.66,0,1,.1,2.5.1,3.46a.93.93,0,0,1-1,1c-.62,0-.62-.33-.58-1.51H89.44c0,.08,0,.56,0,.66a1,1,0,0,1-1,1c-.67,0-.67-.46-.67-.65s.07-1.09.07-1.26c0-2.26.14-7,.14-9a14.47,14.47,0,0,0-.29-3.4l2.14,1Zm-3.59.5V266H92.2V255.31Zm7.32,3.15v-3.15H93.59v3.15Zm0,3.63V259H93.59v3.13Zm0,3.88v-3.38H93.59V266Zm4.48,0V255.31H98.17V266Z"/><path d="M108.42,263.67a26.89,26.89,0,0,0,3.86-7.94h-.48a15.58,15.58,0,0,0-2.45.18l-.39-.83c1.18.11,2.38.15,3.46.15,0-1,0-2.47,0-3.36a19.71,19.71,0,0,1-3.38.37v-.16a34.87,34.87,0,0,0,5.6-2.32,1.62,1.62,0,0,0,.44-.5l1.43,1.2a.37.37,0,0,1,.14.29c0,.21-.21.21-.39.21l-.6,0a18.8,18.8,0,0,1-1.93.62c0,.95,0,2.86,0,3.67h.39l.5-.75c.08-.12.19-.27.31-.27s.29.15.39.23l.9.75a.43.43,0,0,1,.2.33c0,.21-.2.21-.31.21h-2.38c0,.39,0,1.32,0,1.82,2,.73,2.71,2,2.71,2.62a.79.79,0,0,1-.76.82c-.5,0-.56-.2-1-1.36a3.77,3.77,0,0,0-1-1.81c0,3.61,0,4,.08,5.6,0,1.41.08,3.05.08,3.8,0,.37,0,1.2-1,1.2-.54,0-.6-.31-.6-.71,0-.68.16-3.73.18-4.35,0-2,0-2.84,0-4.65a13.55,13.55,0,0,1-3.92,5.06Zm6.66,4.38c1.45-.71,3.79-2.08,4.29-3l1.49,1.1a.36.36,0,0,1,.19.31c0,.29-.48.27-1,.27a16.42,16.42,0,0,1-4.93,1.43Zm9.2-16.51.52-.83c.11-.17.21-.29.31-.29s.27.14.4.25l1,.83a.42.42,0,0,1,.21.33c0,.19-.17.21-.31.21H122v1.7h1.66l.5-.75c.08-.12.17-.25.31-.25s.25.13.37.23l.85.72a.46.46,0,0,1,.21.34c0,.18-.19.2-.31.2H122v1.87h3.45l.6-.85c.1-.17.23-.27.33-.27s.25.12.37.25l.89.83a.51.51,0,0,1,.21.33c0,.21-.16.21-.31.21h-8.63a14.49,14.49,0,0,0-2.44.18l-.42-.82c1.06.08,2.14.14,3.2.14h1.34v-1.87h-.49a13.1,13.1,0,0,0-2.45.21l-.4-.83c.63,0,1.54.13,3.34.13,0-.81,0-1.31,0-1.7h-1.37a14.37,14.37,0,0,0-2.44.18l-.42-.83c1.52.13,2.84.15,3.2.15h1a6,6,0,0,0-.37-2.22l2.11.64a.31.31,0,0,1,.29.31c0,.27-.47.5-.58.54v.73Zm-.47,6.49.47-.52c.09-.08.21-.21.29-.21s.25.13.34.19l.8.68a.52.52,0,0,1,.23.38c0,.21-.25.37-.6.54a7.23,7.23,0,0,0,0,.76c0,.71.17,3.8.17,4.42a.86.86,0,0,1-1,1c-.54,0-.54-.27-.52-.71h-4.93c0,.48.06,1-.93,1-.36,0-.54-.1-.54-.47,0,0,0-.21,0-.5,0-.77,0-3,0-3.92a13.3,13.3,0,0,0-.23-3.28l1.64.73Zm-4.73.5V260H124v-1.47Zm0,2V262H124V260.5Zm0,2V264H124v-1.53Zm3.48,2.82c1.87.16,4.5,1.1,4.5,2.34a.83.83,0,0,1-.83.81c-.47,0-1-.52-1.3-.91a10.57,10.57,0,0,0-2.37-2.1Z"/><path d="M134.47,254.79a1.22,1.22,0,0,1-1.21,1.21,1.21,1.21,0,0,1-1.2-1.21,1.21,1.21,0,0,1,2.41,0Zm0,8.17a1.21,1.21,0,0,1-1.21,1.21,1.21,1.21,0,0,1,0-2.41A1.21,1.21,0,0,1,134.47,263Z"/><path d="M139.42,266.1h1.15c1.07,0,1.45-.42,1.45-1.27V253.61c0-.64-.6-.74-1-.74h-1.57v-.65h.37a7.9,7.9,0,0,0,3.38-.87.63.63,0,0,1,.29-.12c.19,0,.23.12.23.29v13.31c0,.89.43,1.27,1.45,1.27h1.14v.66h-6.89Z"/><path d="M158.8,259.71a3.85,3.85,0,0,1,1.4,3.07c0,2.55-2.09,4.37-4.83,4.37-2.24,0-4.12-1.26-4.12-2.92a1.2,1.2,0,0,1,1.18-1.33,1,1,0,0,1,1,1,1.72,1.72,0,0,1-.12.66,1.56,1.56,0,0,0-.06.48c0,.79.89,1.37,1.86,1.37a3.55,3.55,0,0,0,3.22-3.67,3.62,3.62,0,0,0-3.24-3.8c-.12,0-.7.09-.83.09a.41.41,0,0,1-.45-.44.47.47,0,0,1,.48-.48c.12,0,.74.13.89.13A3,3,0,0,0,158,255c0-1.61-1-3.11-2.62-3.11a1.31,1.31,0,0,0-1.61,1.7,2.2,2.2,0,0,1,.06.5,1.1,1.1,0,0,1-1.06,1.14,1.07,1.07,0,0,1-1-1.14c0-1.14,1.32-2.9,4-2.9s4.14,1.66,4.14,3.48a3.64,3.64,0,0,1-.76,2.12,4.93,4.93,0,0,1-2.64,1.76A5.6,5.6,0,0,1,158.8,259.71Z"/><path d="M173.21,251.62v1.1c-3.3,5.08-4.46,8-4.73,12.59,0,.54-.1,1.84-1.16,1.84a1.09,1.09,0,0,1-1.06-1.14c0-1.47,1.45-5.82,5.83-12.75h-3.55c-3,0-3.46,1.39-3.92,2.72l-.62-.15.85-4.21Z"/><path d="M179.39,266a1.21,1.21,0,1,1-1.2-1.2A1.22,1.22,0,0,1,179.39,266Z"/><path d="M189.39,251.23h.85v10.53h2.34v.67h-2.34v2.4c0,.91.45,1.27,1.45,1.27H192v.66h-5.27v-.66h.33c1,0,1.46-.34,1.46-1.27v-2.4H183v-.73Zm-.85,2.74-4.8,7.79h4.8Z"/><path d="M205.31,262.59a4.61,4.61,0,0,1-4.89,4.56c-2.37,0-4.48-1.37-4.48-3.73s1.78-3.3,3.69-4.42c-1.1-.64-3.09-1.8-3.09-4.06,0-2.05,1.62-3.71,4.15-3.71a3.47,3.47,0,0,1,3.79,3.27c0,1.77-1.7,3.05-2.59,3.72C203.84,259.42,205.31,260.46,205.31,262.59Zm-7.63.77a3,3,0,0,0,3,3.09,3.23,3.23,0,0,0,3.15-3.13c0-2-2-3.13-3.57-4C199.32,260,197.68,261.31,197.68,263.36Zm5.29-8.63a2.62,2.62,0,0,0-2.57-2.8A2.4,2.4,0,0,0,198,254.4c0,1.45,1.18,2.18,3.34,3.46A3.93,3.93,0,0,0,203,254.73Z"/><path d="M212.2,256.56v1.63a4.71,4.71,0,0,1,3.42-1.63,2.3,2.3,0,0,1,2.49,1.86,5.16,5.16,0,0,1,3.71-1.86c1.83,0,2.66,1.1,2.66,3.4v4.89c0,.79.41,1.25,1,1.25h.38v.66h-4.34v-.66h.4c.72,0,1-.56,1-1.25v-4.77c0-.58-.08-2.63-1.8-2.63a3.92,3.92,0,0,0-3,1.8,4.64,4.64,0,0,1,.05.71v4.89c0,.87.47,1.25,1,1.25h.6v.66h-4.77v-.66h.61c.58,0,1.05-.4,1.05-1.25v-4.77c0-.43-.06-2.63-1.8-2.63a3.68,3.68,0,0,0-2.8,1.64v5.76c0,.87.48,1.25,1,1.25h.37v.66H209.3v-.66h.37c.62,0,1-.44,1-1.25v-6.24a.86.86,0,0,0-.85-1,1.93,1.93,0,0,0-.63.08l-.1-.4Zm10.72-1.23a12.43,12.43,0,0,1,1.2-1.32,3.71,3.71,0,0,0,1.18-2c0-.27-.16-.77-.64-.77a.68.68,0,0,0-.7.56c0,.08.18.45.18.54a.57.57,0,0,1-.58.54.65.65,0,0,1-.62-.71,1.76,1.76,0,0,1,1.83-1.49,1.4,1.4,0,0,1,1.51,1.41,1.66,1.66,0,0,1-.64,1.35c-.23.22-1.52,1.26-1.72,1.55h1.28a.84.84,0,0,0,.81-.7l.33.1-.43,1.43h-3Z"/><path d="M271,267.67c-7.52-.1-10.76-.14-13.56-2.86a9.66,9.66,0,0,1-4.23,3.59l-.12-.13a13.18,13.18,0,0,0,3.58-4.31,10.24,10.24,0,0,1-1.93-4l.21-.17a9.35,9.35,0,0,0,2.1,3.4,14.27,14.27,0,0,0,1.16-5.64h-1.74c-.42,1.16-.52,1.47-1.21,1.47-.14,0-.74,0-.74-.47a13.55,13.55,0,0,1,.49-1.47c1.08-2.78,1.93-5,2.18-6h-.74a13.44,13.44,0,0,0-2.45.19l-.4-.83c1.06.08,2.12.15,3.18.15h.37l.54-.44c.19-.14.29-.21.39-.21a.77.77,0,0,1,.36.21l.8.69a.42.42,0,0,1,.21.37c0,.25-.41.43-.95.66-.46,1.16-.73,1.87-1.87,5.14H258l.56-.43a.77.77,0,0,1,.4-.21c.14,0,.24.08.39.23l.64.66a.67.67,0,0,1,.25.44c0,.19-.21.31-.64.58a14.42,14.42,0,0,1-1.7,5.7,11.4,11.4,0,0,0,7.22,2.06,46.42,46.42,0,0,0,7.29-.61l.05.17A2.56,2.56,0,0,0,271,267.67Zm1.23-12.92h-2.87c.09,2.47.09,2.47.09,2.62,0,.41,0,1.05-1,1.05-.56,0-.54-.33-.52-.68h-2.55v2.16h3.11l.63-.79c.14-.17.22-.27.35-.27s.23.1.39.23l.94.78c.1.11.2.23.2.32s-.14.22-.31.22h-5.31l0,2.2h3.7l.78-.91c.17-.19.25-.27.36-.27s.22.08.37.23l1,.91a.48.48,0,0,1,.21.35c0,.13-.12.19-.31.19h-6.08c0,.25.05,1.47,0,1.74a1,1,0,0,1-.91.75c-.66,0-.66-.38-.66-.6s.1-1.58.1-1.89h-1.41a14.61,14.61,0,0,0-2.42.19l-.42-.81c1.62.12,3.15.12,3.19.12h1.08c0-.56,0-1.08,0-2.2h-.62a13.68,13.68,0,0,0-2.42.19l-.42-.81c.62,0,1.78.13,3.48.13v-2.16h-.41a14.9,14.9,0,0,0-2.45.19l-.41-.81c1.49.1,3.07.12,3.27.12l0-2.49H262.1a13.78,13.78,0,0,0-2.43.19l-.41-.83c1.05.1,2.11.15,3.17.15H264l0-2.43h-.49a15.89,15.89,0,0,0-2.45.19l-.39-.83c1.45.12,2.8.14,3.31.14a3.7,3.7,0,0,0-.31-1.93l2,.48c.23.06.36.14.36.33s-.25.38-.58.56v.56h2.4l.52-.45a.59.59,0,0,1,.37-.21c.13,0,.23.1.38.23l.58.56a.62.62,0,0,1,.25.39c0,.17-.17.29-.59.58a11.54,11.54,0,0,0,0,1.83h.75l.6-.77c.13-.17.23-.25.33-.25a.65.65,0,0,1,.4.21l.89.76c.1.11.21.21.21.31S272.42,254.75,272.22,254.75Zm-4.26,0h-2.57l0,2.49H268Zm0-2.92h-2.52l-.05,2.43H268Z"/><path d="M282.23,260.64c0,2.51,0,2.95,0,4.15,0,.73.08,1.89.08,2.61s-.89,1-1.08,1c-.46,0-.56-.27-.56-.58,0-.09,0-.85,0-1,.09-1.55.09-2.11.13-5.43a22.32,22.32,0,0,1-2.55,1.18c0,.37-.07.73-.4.73s-.35-.23-.41-.36l-1-1.86c1.29.06,1.64,0,4.36-.79,0-1.83,0-3.88,0-5.46H279a16.45,16.45,0,0,1-1.84,4.59l-.13,0a33,33,0,0,0,.93-7.2,3.74,3.74,0,0,0-.2-1.41l2,.48c.16,0,.35.08.35.31s-.29.41-.62.54a21.46,21.46,0,0,1-.35,2.24h1.72c0-2.93-.11-3.78-.56-4.81l2.28.66c.12,0,.31.14.31.29s-.35.44-.66.6c0,.44,0,2.63,0,3.26h.42l.58-.79c.1-.13.21-.27.31-.27a.6.6,0,0,1,.37.23l.83.79a.45.45,0,0,1,.19.31c0,.18-.19.22-.31.22h-2.39c0,1.33,0,3.65,0,5,.42-.14,2.35-.81,2.72-.95l.06.14A23.84,23.84,0,0,1,282.23,260.64ZM294.47,255c-.17,4.34-.33,8.28-1.64,11a4,4,0,0,1-3.21,2.1c-.15-.94-.48-1.52-1.77-2.45l.07-.15a8.94,8.94,0,0,0,2.51.44c.49,0,.83,0,1.41-1.47a32.28,32.28,0,0,0,1.16-10h-1.18c-.61,4.69-2.6,10.72-8.59,13l-.06-.14c4.39-3.3,6.26-6.8,7.13-12.84h-1.16c-.85,4.38-3.19,8.15-6.2,9.56l-.06-.12a17.71,17.71,0,0,0,4.75-9.44h-1a13.14,13.14,0,0,1-2.8,4.13l-.1-.11a23.11,23.11,0,0,0,2.67-8.46,2.49,2.49,0,0,0-.1-.7l2.07.83c.21.08.31.21.31.33,0,.27-.39.37-.72.46-.54,1.66-.89,2.5-1.1,3h6l.5-.52c.12-.14.23-.22.31-.22a.87.87,0,0,1,.37.18l1,.73c.14.1.22.17.22.29C295.17,254.69,294.7,254.92,294.47,255Z"/><path d="M307.25,254.81a22.58,22.58,0,0,0,1.22-3.46h-5.41a14,14,0,0,0-2.45.19l-.41-.83c1.05.08,2.11.14,3.19.14h12.36l.91-.89c.17-.16.33-.31.39-.31s.19.06.4.23l1.16.93c.08.07.21.19.21.31s-.21.23-.33.23h-8.07a36.1,36.1,0,0,1-2.68,3.46h7.55l.58-.6c.21-.2.27-.27.4-.27a.88.88,0,0,1,.37.21l.95.81a.38.38,0,0,1,.17.27c0,.19-.08.25-.83.66,0,2.35,0,5.31,0,7.66,0,1,.11,2.5.11,3.46a.93.93,0,0,1-1,1c-.62,0-.62-.33-.58-1.51h-11.8c0,.08,0,.56,0,.66a1,1,0,0,1-1,1c-.66,0-.66-.46-.66-.65s.06-1.09.06-1.26c0-2.26.15-7,.15-9a14.47,14.47,0,0,0-.29-3.4l2.13,1Zm-3.59.5V266h2.76V255.31Zm7.32,3.15v-3.15h-3.17v3.15Zm0,3.63V259h-3.17v3.13Zm0,3.88v-3.38h-3.17V266Zm4.48,0V255.31h-3.07V266Z"/><path d="M322.64,263.67a26.86,26.86,0,0,0,3.85-7.94H326a15.51,15.51,0,0,0-2.45.18l-.4-.83c1.19.11,2.39.15,3.47.15,0-1,0-2.47,0-3.36a19.82,19.82,0,0,1-3.38.37v-.16a35.25,35.25,0,0,0,5.6-2.32,1.43,1.43,0,0,0,.43-.5l1.43,1.2a.38.38,0,0,1,.15.29c0,.21-.21.21-.4.21l-.6,0a17.23,17.23,0,0,1-1.93.62c0,.95,0,2.86,0,3.67h.4l.5-.75c.08-.12.18-.27.31-.27s.29.15.39.23l.89.75a.42.42,0,0,1,.21.33c0,.21-.21.21-.31.21h-2.39c0,.39,0,1.32,0,1.82,2,.73,2.72,2,2.72,2.62a.79.79,0,0,1-.77.82c-.49,0-.56-.2-1-1.36a3.78,3.78,0,0,0-1-1.81c.05,3.61.05,4,.09,5.6,0,1.41.08,3.05.08,3.8,0,.37,0,1.2-1,1.2-.54,0-.6-.31-.6-.71,0-.68.17-3.73.19-4.35,0-2,0-2.84,0-4.65a13.55,13.55,0,0,1-3.92,5.06Zm6.65,4.38c1.45-.71,3.8-2.08,4.3-3l1.49,1.1a.37.37,0,0,1,.18.31c0,.29-.47.27-1,.27a16.47,16.47,0,0,1-4.94,1.43Zm9.21-16.51.52-.83c.1-.17.21-.29.31-.29s.27.14.39.25l1,.83a.44.44,0,0,1,.21.33c0,.19-.17.21-.31.21h-4.4v1.7h1.66l.5-.75c.08-.12.16-.25.31-.25s.25.13.37.23l.85.72a.49.49,0,0,1,.21.34c0,.18-.19.2-.31.2h-3.59v1.87h3.44l.6-.85c.11-.17.23-.27.33-.27s.25.12.38.25l.89.83c.1.1.21.21.21.33s-.17.21-.31.21h-8.63a14.66,14.66,0,0,0-2.45.18l-.41-.82c1.06.08,2.13.14,3.19.14h1.35v-1.87h-.5a13.16,13.16,0,0,0-2.45.21l-.39-.83c.62,0,1.54.13,3.34.13,0-.81,0-1.31,0-1.7h-1.37a14.53,14.53,0,0,0-2.45.18l-.41-.83c1.51.13,2.84.15,3.19.15h1a5.8,5.8,0,0,0-.38-2.22l2.12.64a.32.32,0,0,1,.29.31c0,.27-.48.5-.58.54v.73ZM338,258l.48-.52c.08-.08.21-.21.29-.21s.25.13.33.19l.81.68a.56.56,0,0,1,.23.38c0,.21-.25.37-.6.54a7.23,7.23,0,0,0,0,.76c0,.71.16,3.8.16,4.42a.85.85,0,0,1-.95,1c-.54,0-.54-.27-.52-.71h-4.94c0,.48.07,1-.93,1-.35,0-.54-.1-.54-.47,0,0,0-.21,0-.5.05-.77.05-3,.05-3.92a13.3,13.3,0,0,0-.23-3.28l1.64.73Zm-4.73.5V260h4.94v-1.47Zm0,2V262h4.94V260.5Zm0,2V264h4.94v-1.53Zm3.49,2.82c1.86.16,4.5,1.1,4.5,2.34a.84.84,0,0,1-.83.81c-.48,0-1-.52-1.31-.91a10.22,10.22,0,0,0-2.36-2.1Z"/><path d="M348.68,254.79a1.22,1.22,0,0,1-1.2,1.21,1.21,1.21,0,0,1-1.2-1.21,1.2,1.2,0,1,1,2.4,0Zm0,8.17a1.21,1.21,0,0,1-1.2,1.21,1.21,1.21,0,1,1,1.2-1.21Z"/><path d="M353.64,266.1h1.14c1.08,0,1.45-.42,1.45-1.27V253.61c0-.64-.6-.74-1-.74h-1.58v-.65H354a7.86,7.86,0,0,0,3.38-.87c.15-.08.21-.12.29-.12s.23.12.23.29v13.31c0,.89.44,1.27,1.45,1.27h1.15v.66h-6.89Z"/><path d="M369.94,267.15a4.19,4.19,0,0,1-3.4-2.24,12.9,12.9,0,0,1-1.26-5.91c0-4.41,1.88-7.77,4.66-7.77,2.14,0,4.67,2.3,4.67,8C374.61,264.27,372.47,267.15,369.94,267.15Zm-2.32-12.46a18.79,18.79,0,0,0-.48,4.5c0,4.62,1.1,7.26,2.8,7.26,1.43,0,2.07-1.91,2.3-2.7a19.21,19.21,0,0,0,.5-4.56c0-4.73-1.14-7.26-2.8-7.26C368.47,251.93,367.83,254,367.62,254.69Z"/><path d="M379.88,253.26l-.19,5.23a4.37,4.37,0,0,1,3.21-1.44c3,0,4.42,2.47,4.42,4.75a5.26,5.26,0,0,1-5.12,5.35c-2.37,0-3.92-1.76-3.92-3a1.18,1.18,0,0,1,1.2-1.28,1,1,0,0,1,1.08,1.08,2.2,2.2,0,0,1-.1.62,2.6,2.6,0,0,0-.07.58c0,.89.94,1.35,1.77,1.35,1.68,0,3.25-1.6,3.25-4.38,0-2.63-1.39-4.08-2.9-4.08a4.5,4.5,0,0,0-3.24,1.8l-.31-.16.31-8h7.22l-.41,1.64Z"/><path d="M393.61,266a1.21,1.21,0,1,1-1.21-1.2A1.22,1.22,0,0,1,393.61,266Z"/><path d="M405.05,259.71a3.83,3.83,0,0,1,1.41,3.07c0,2.55-2.09,4.37-4.83,4.37-2.24,0-4.13-1.26-4.13-2.92a1.21,1.21,0,0,1,1.19-1.33,1,1,0,0,1,1,1,1.72,1.72,0,0,1-.12.66,1.56,1.56,0,0,0-.06.48c0,.79.89,1.37,1.86,1.37a3.55,3.55,0,0,0,3.22-3.67,3.62,3.62,0,0,0-3.24-3.8c-.12,0-.7.09-.83.09a.41.41,0,0,1-.45-.44.47.47,0,0,1,.47-.48c.13,0,.75.13.89.13a3,3,0,0,0,2.84-3.24c0-1.61-1-3.11-2.61-3.11a1.34,1.34,0,0,0-1.62,1.7,1.77,1.77,0,0,1,.07.5,1.1,1.1,0,0,1-1.06,1.14,1.08,1.08,0,0,1-1-1.14c0-1.14,1.33-2.9,4-2.9s4.15,1.66,4.15,3.48a3.59,3.59,0,0,1-.77,2.12,4.91,4.91,0,0,1-2.63,1.76A5.56,5.56,0,0,1,405.05,259.71Z"/><path d="M414.84,267.15a4.19,4.19,0,0,1-3.4-2.24,12.9,12.9,0,0,1-1.26-5.91c0-4.41,1.88-7.77,4.66-7.77,2.14,0,4.67,2.3,4.67,8C419.51,264.27,417.37,267.15,414.84,267.15Zm-2.32-12.46a18.79,18.79,0,0,0-.48,4.5c0,4.62,1.1,7.26,2.8,7.26,1.43,0,2.08-1.91,2.3-2.7a19.21,19.21,0,0,0,.5-4.56c0-4.73-1.14-7.26-2.8-7.26C413.37,251.93,412.73,254,412.52,254.69Z"/><path d="M426.41,256.56v1.63a4.71,4.71,0,0,1,3.43-1.63,2.29,2.29,0,0,1,2.48,1.86,5.2,5.2,0,0,1,3.72-1.86c1.82,0,2.65,1.1,2.65,3.4v4.89c0,.79.42,1.25,1,1.25h.37v.66h-4.33v-.66h.39c.73,0,1-.56,1-1.25v-4.77c0-.58-.09-2.63-1.81-2.63a3.9,3.9,0,0,0-2.94,1.8,5.05,5.05,0,0,1,0,.71v4.89c0,.87.48,1.25,1,1.25h.6v.66h-4.77v-.66h.6c.58,0,1.06-.4,1.06-1.25v-4.77c0-.43-.06-2.63-1.81-2.63a3.71,3.71,0,0,0-2.8,1.64v5.76c0,.87.48,1.25,1,1.25h.37v.66h-4.31v-.66h.37c.63,0,1-.44,1-1.25v-6.24a.85.85,0,0,0-.85-1,1.83,1.83,0,0,0-.62.08l-.1-.4Zm10.73-1.23a11.38,11.38,0,0,1,1.2-1.32c.43-.48,1.18-1.29,1.18-2,0-.27-.17-.77-.64-.77a.69.69,0,0,0-.71.56c0,.08.19.45.19.54a.57.57,0,0,1-.58.54.64.64,0,0,1-.62-.71,1.75,1.75,0,0,1,1.82-1.49,1.4,1.4,0,0,1,1.51,1.41,1.66,1.66,0,0,1-.64,1.35c-.23.22-1.51,1.26-1.72,1.55h1.29c.54,0,.7-.41.81-.7l.33.1-.44,1.43h-3Z"/><path d="M452.54,268.92a12.72,12.72,0,0,1,0-20.08l.19.29a14,14,0,0,0,0,19.5Z"/><path d="M464.41,256.41c-.35.44-1.56,2.55-1.83,3a13.52,13.52,0,0,1-5.74,5.22l0-.18c3.9-3.45,5.82-7.76,5.82-8.65,0-.52-.18-1-1.3-1.49a3.14,3.14,0,0,1,1.06-.19,3.63,3.63,0,0,1,2.46,1.7A1.85,1.85,0,0,1,464.41,256.41Zm9.16,7.07c-.6,0-.72-.45-1.26-2.15a18.74,18.74,0,0,0-4.48-6.95c2.63.79,6.51,4.87,6.51,8C474.34,262.9,474,263.48,473.57,263.48Zm-.56-8.23c-.29,0-.37-.1-1.1-.95a7.7,7.7,0,0,0-1.94-1.66c1.3,0,3.52.7,3.52,2C473.49,255,473.24,255.25,473,255.25Zm1.72-1.89c-.24,0-.31-.06-.87-.66a9,9,0,0,0-2.3-1.62c1.33-.08,3.67.5,3.67,1.7A.52.52,0,0,1,474.73,253.36Z"/><path d="M484.86,255.35c0,.48-.21,2.62-.25,3-.54,4.46-3.22,6.83-5,7.55l-.1-.12a12.8,12.8,0,0,0,3.83-9.83c0-1.72,0-1.72-1.59-2.14a2.41,2.41,0,0,1,1.37-.54c.54,0,1.95.46,1.95,1C485.09,254.52,484.88,255.21,484.86,255.35Zm5,8.57a5.94,5.94,0,0,0-1.31,1.16c-.1.1-.29.31-.41.31-.4,0-1.33-1.7-1.33-2s.25-.77.27-.91a34.17,34.17,0,0,0,.18-4.13c0-.77,0-4.6-.12-5.1s-.5-.64-1.49-1a2.23,2.23,0,0,1,1.16-.44c.62,0,2.24.62,2.24,1.24a11.48,11.48,0,0,1-.29,1.19c-.21,1-.31,6.86-.31,8.13,0,.08,0,.35.14.35.5,0,4.25-2.39,7.51-6.53l.16.12A19.05,19.05,0,0,1,489.9,263.92Z"/><path d="M513.89,255.44a.87.87,0,0,0-.45.66c-.34,1.35-.5,2.39-1.17,6.26.4.09,1,.4,1,.85s-.54.56-1.12.56c-.4,0-2.12-.08-2.47-.08a22.72,22.72,0,0,0-5.78.62,9.36,9.36,0,0,1-1.1.36c-.65,0-1.72-1.5-1.72-2.31a1.93,1.93,0,0,1,.14-.68,3.25,3.25,0,0,0,2.22,1.33c.7,0,1.58-.09,7.59-.56.64-4.3,1-6.56,1-7.37,0-.18-.08-.24-.29-.24a59.63,59.63,0,0,0-7.71.93,7,7,0,0,1-.93.33c-.69,0-1.85-1.37-1.85-2.41a2.08,2.08,0,0,1,.1-.7,2.87,2.87,0,0,0,2.37,1.47c1,0,7.46-.47,8-.68a6.52,6.52,0,0,1,1-.56c.23,0,1.7,1.24,1.7,1.66C514.41,255.1,514.31,255.17,513.89,255.44Z"/><path d="M535.32,263.34l-1.62-.27a19,19,0,0,0-3.13-.23,37.25,37.25,0,0,0-7.76.87,3.7,3.7,0,0,1-1.12.29,2.62,2.62,0,0,1-1.91-2.42,1.74,1.74,0,0,1,.09-.54,2.72,2.72,0,0,0,2.44,1.28c.13,0,5.75-.47,6.83-.52a22.28,22.28,0,0,0,3.73-.35,3.31,3.31,0,0,1,.87-.23c.43,0,2.09.73,2.09,1.54A.52.52,0,0,1,535.32,263.34Zm-3.74-8.15c-.45,0-2.07.14-3.19.21a19.85,19.85,0,0,0-3.71.43,1.3,1.3,0,0,1-.38,0,2,2,0,0,1-1.9-2,4.13,4.13,0,0,0,2.55.73,27.68,27.68,0,0,0,5.16-.56c.19,0,1-.38,1.22-.38.4,0,1.66.31,1.66,1C533,255.08,532.62,255.13,531.58,255.19Z"/><path d="M555.89,259.58c-.19,0-.69,0-.73,0a21.3,21.3,0,0,0-2.34-.08c-6.33,0-8.19.12-9.13.37-.06,0-.72.19-.78.19-.54,0-1.66-1.33-1.66-2.28a2.38,2.38,0,0,1,.25-1c.7,1.58,1.34,1.58,3.5,1.58,1.43,0,8.17,0,9.13-.25.12,0,.72-.19.85-.19s2.19.23,2.19,1C557.17,259.56,556.14,259.58,555.89,259.58Z"/><path d="M568.54,252c-.27.54-.83,1.68-1.39,2.64-.89,1.51-1,1.68-1.1,1.88a5.47,5.47,0,0,1,2.53,4.26,2.49,2.49,0,0,1-2.38,2.63,2.67,2.67,0,0,0-1.12-1.87l0-.16a6.26,6.26,0,0,0,1.08.12c.58,0,.95-.1.95-1.39a4.65,4.65,0,0,0-1.58-3.54,31,31,0,0,0,1.46-5.33h-2.22c0,1.16,0,7.27,0,8.93,0,1.08.1,6.58.1,6.85a1,1,0,0,1-1.08,1,.51.51,0,0,1-.56-.58c0-.08,0-.29,0-.41.17-2.3.23-4.15.23-11.18a26.56,26.56,0,0,0-.39-6.05l1.88.93h2.12l.46-.44c.12-.12.22-.2.33-.2s.18.08.33.2l1,.83a.41.41,0,0,1,.13.29C569.33,251.64,569.16,251.77,568.54,252Zm2.36,11.49a12.28,12.28,0,0,1-4.31,3.53l0-.13c1.55-1.57,3.09-3.34,3.34-5l1.59.94c.19.1.27.16.27.31C571.75,263.42,571.17,263.44,570.9,263.44Zm8.84-6.2a15.11,15.11,0,0,1-5.77-6l-.1,0a19.57,19.57,0,0,1-6.26,6.41l-.09-.17c2.16-1.93,4.69-5.79,5-7.82l1.89.83a.35.35,0,0,1,.19.29c0,.25-.21.31-.31.36,3.13,3.6,5.49,4.27,7.15,4.56v.12A3.21,3.21,0,0,0,579.74,257.24Zm-.46,3.73h-5c0,.71,0,3.84,0,4.48,0,1.45-.11,2.18-2.41,2.86a2.66,2.66,0,0,0-1.7-2v-.15c.48,0,1.18.1,1.84.1s.83,0,.88-.35c0-.19,0-1.53,0-5h-1.21a12.54,12.54,0,0,0-2.44.19l-.4-.83c1.41.13,2.89.15,3.18.15h.85v-3.24a14.27,14.27,0,0,0-2.68.19l-.41-.83c1.41.12,2.9.14,3.19.14h1.89l.58-.8c.12-.17.18-.27.31-.27s.21.08.37.22l1,.81a.41.41,0,0,1,.2.31c0,.21-.18.23-.33.23h-2.76v3.24H577l.58-1c.06-.12.19-.27.31-.27s.23.11.37.23l1.19,1c.08.08.2.16.2.31S579.43,261,579.28,261Zm-.12,5.87c-.58,0-.73-.25-1.29-1.32a8,8,0,0,0-2.32-2.7l.1-.1c1.87.39,4.36,1.68,4.36,3.19A.83.83,0,0,1,579.16,266.84Z"/><path d="M593.47,268.27c-.33,0-.4-.08-1.37-1.66-1.14-1.84-1.62-2.32-5.56-6.22a2.37,2.37,0,0,1-.74-1.47c0-.33.06-.68.76-1.43,2.1-2.22,5.25-5.52,5.25-6.32,0-.5-.46-1-1-1.5a2.49,2.49,0,0,1,2.8,2.12c0,.41-.2.58-.83,1.08a72.6,72.6,0,0,0-5.47,5.24,1,1,0,0,0-.35.77c0,.52.14.66,1.82,2.2,4.65,4.19,5.48,4.91,5.48,6C594.26,267.55,594,268.27,593.47,268.27Z"/><path d="M600.17,268.92l-.19-.29a14,14,0,0,0,0-19.5l.19-.29a12.72,12.72,0,0,1,0,20.08Z"/><path class="cls-2" d="M110.54,165.4a24.3,24.3,0,0,0,6.69-6.42H111.5v-3.16h6.69v-3.19h-6.86V149.5H115a28.66,28.66,0,0,0-1-4.91h-2v-3.12h6.2v-2.85h3.16v2.85h5.7v3.12H125.5c-.69,3.16-.76,3.54-1.18,4.91h3.23v3.13h-6.2v3.19h5.44V159H122a17.07,17.07,0,0,0,4,3.91L124.38,166a17.89,17.89,0,0,1-3-3.67v8.62h-3.16v-8.55a25.72,25.72,0,0,1-5.84,6.18ZM117,144.59a40.72,40.72,0,0,1,1,4.91h3.33a40.21,40.21,0,0,0,1-4.91Zm25.15-2.74A26.2,26.2,0,0,1,132,144.42v5.22h10.19v3.3h-3.23v18h-3.43v-18H132v.92c0,9.58-1.81,13.25-4.41,17.07l-3.2-2.31c2.87-3.57,4.32-7.07,4.32-14.65V141.19a23.66,23.66,0,0,0,11.6-2.57Z"/><path class="cls-2" d="M159.62,155.41c-2.28.51-9.46,1.68-11.67,2l-.53-3.15c.3,0,4.68-.48,5.47-.59v-3.43H149v-2.75h.23l-2.07-2.23a16.42,16.42,0,0,0,5-6.69l3.23.61a11.53,11.53,0,0,1-.52,1.45h7.71v2.74h-5a19.81,19.81,0,0,1,.89,1.79l-3.23,1.23a17.23,17.23,0,0,0-1.06-3h-.85a19.1,19.1,0,0,1-3.5,4.12h10.09v2.75H156v3.09c2.24-.28,2.94-.41,3.86-.59v2c2.67-1.75,3-3.64,3.13-7.76h11.86v6.38c0,.62.14.76.4.76.73,0,.79,0,.86-.93,0-.27,0-1.61,0-1.92L179,152c-.16,3.64-.26,4.8-2.07,4.8h-3.07c-1,0-2-.65-2-2.33V149.6h-5.93a9.8,9.8,0,0,1-4.06,7.8h2.84v1.41h13.91v2.95H167.3c1.55,1.27,3.72,3,11.73,5L177.55,170a31.78,31.78,0,0,1-12.92-6.9v7.72h-3.2v-7.76c-3.92,4.05-9.36,6-12.79,6.94l-1.35-3.26a28.26,28.26,0,0,0,11.6-5H147.62v-2.95h13.81v-1.17ZM167,143.32a13.1,13.1,0,0,1-2.34,3.13l-2.8-2a12.64,12.64,0,0,0,3.65-5.73l3.33.51c-.19.59-.29.9-.46,1.38h10.19v2.74H172a9.78,9.78,0,0,1,.86,1.75l-3,1.27c-.26-.68-.92-2.26-1.28-3Zm1.09,6.87a25.17,25.17,0,0,1,3.46,3.57l-2.15,2.09a27.29,27.29,0,0,0-3.36-3.6Z"/><path class="cls-2" d="M188.76,151.25c-1.55,1.44-2.51,2.2-3.4,2.89L183,151a23.67,23.67,0,0,0,9.89-12.49l3.42.92a29,29,0,0,1-7.18,11.4h20.3c0,3.47-.1,12.39-1.35,16.93-.86,3.09-3.1,3.19-4.55,3.19h-5l-.66-3.64h5c1.88,0,2.18-1.72,2.44-3.23a57.1,57.1,0,0,0,.66-9.78h-7.65c-.85,9.27-5.43,13.66-12.26,16.65l-2-3.3c7.15-3.12,9.92-6.24,10.75-13.35h-6Zm24.32,2.61a35,35,0,0,1-10.68-14.31l3.43-1c1.71,4.29,5.24,9.61,9.65,12.36Z"/><path class="cls-2" d="M220,144.45h10.91v3.06H220Zm.83-5.08h9v3.09h-9Zm0,10.06h9v3.13h-9Zm0,5.12h9v3h-9Zm0,5.25h9v9.79h-6.07V171h-3Zm3,2.95v4h3.1v-4Zm27-.68a39.06,39.06,0,0,1-3.59,3.09,18,18,0,0,0,4,2.64L249.53,171c-4.22-2.41-7.87-6-9-10.85a15.91,15.91,0,0,1-2.35,2.13v4.6c2.61-.21,3.66-.38,4.92-.55v3.23c-2.48.37-7.65,1-11,1.06l-.56-3.47c1,0,1.81,0,3.56-.07V164.3a26.34,26.34,0,0,1-3.69,1.65l-1.35-3a18.75,18.75,0,0,0,6.85-3.3h-6v-2.57h4.68v-1.75h-3.49V153h3.49v-1.51h-4.05V149h4.05v-1.13h3V149h5v-1.13h3V149h4.28v2.44h-4.28V153h3.62v2.37h-3.62v1.75h4.48v2.57h-7.78a21,21,0,0,0,1.81,3.09,23.75,23.75,0,0,0,3.1-2.85Zm-19.31-16.45a24.29,24.29,0,0,0,6.06-2.06h-6.39v-2.88h8.17v-1.92h3.33v1.92h8.34v2.88h-6.33a22.72,22.72,0,0,0,6.33,2.17l-1.35,2.43a20.6,20.6,0,0,1-7-2.43l1.68-2.17H237.8l2,2.17a30.18,30.18,0,0,1-6.92,2.64Zm7.05,5.84V153h5v-1.51Zm0,3.88v1.75h5v-1.75Z"/><path class="cls-2" d="M259.42,154.41a23.19,23.19,0,0,1-2.27,2.85l-1.48-4.39a28.22,28.22,0,0,0,5.7-14.15l3.43.45a29.83,29.83,0,0,1-2,8.55v23.17h-3.36Zm18.33-8.86a30.75,30.75,0,0,0-6.46-4.32l2.11-2.89a46.55,46.55,0,0,1,6.62,4.12l-2,3.09h8.54V149h-8.84v6.49h7.62v3.4h-7.62v7.62h9.59v3.33H264.63v-3.33h9.56v-7.62h-7.65v-3.4h7.65V149h-8.74v-3.4Z"/><path class="cls-2" d="M307.58,156.2l15.65-1.72.27,3.4-15.92,1.75v6.8c0,.65.46.65.69.65h9.06a1,1,0,0,0,1.06-.89,44.32,44.32,0,0,0,.23-4.6l3.59.92c-.13,5.19-.3,8.14-3.59,8.14H307.28c-.86,0-3.16,0-3.16-2.54V160l-11.34,1.27-.23-3.43,11.57-1.28v-4.15c-1.91.24-4.06.38-5.94.52l-1.08-3.51c2.53-.1,12-.44,19.51-3.22l1.71,3.22A46.48,46.48,0,0,1,307.58,152Zm-1.22-17.55h3.43v3h12.82v8.21h-3.43v-4.77H297v4.77H293.5v-8.21h12.86Z"/><path class="cls-2" d="M334.05,150.53c-1.49.89-2.71,1.48-4,2.13l-1.69-3.47a32.93,32.93,0,0,0,14-10.57h3.7a29.79,29.79,0,0,0,14.23,10.47l-1.84,3.5a27.08,27.08,0,0,1-4-2.06v2.58H346v4.63h10.41v3.09H346v5.56h13.35v3.51H329.07v-3.51h13.38v-5.56H332.1v-3.09h10.35v-4.63h-8.4Zm19.24-.79a42.37,42.37,0,0,1-9.09-8.1,37.55,37.55,0,0,1-8.9,8.1Z"/><path class="cls-2" d="M384,140.78v17.44h4.35v3.71H384v5.91h-3.89v-5.91H364.86v-4.46l13.72-16.69Zm-3.89,3.5-11.3,13.94h11.3Z"/><path class="cls-2" d="M392.88,159.32a31.07,31.07,0,0,0,4.75-11.09h-4.26v-3.29h4.36v-6.25h3.16v6.25h3.66v3.29h-3.66v1.2a18.73,18.73,0,0,0,4.05,6.42L403.26,159a21.15,21.15,0,0,1-2.37-4.29v16.17h-3.16V155.78c-1.42,5.09-2.74,6.87-3.63,8.11Zm9.79,7.24A22.61,22.61,0,0,0,411,159h-5.67V146.62h7.42v-2h-8.24V141.3h8.24v-2.61h3.1v2.61h8.5v3.36h-8.5v2h7.44V159H417.9a24.58,24.58,0,0,0,7,7.25L423,169.31a23.5,23.5,0,0,1-7.11-8.51v10.09h-3.1v-9.65a24.31,24.31,0,0,1-8.24,8.41Zm5.77-17.23v2.27h4.35v-2.27Zm0,4.7v2.24h4.35V154Zm7.45-4.7v2.27h4.45v-2.27Zm0,4.7v2.24h4.45V154Z"/><path class="cls-2" d="M448.62,158.6c0,3.4-.07,5.8,6.85,5.8,4.68,0,6.79-.75,6.79-4.43,0-1.85-.2-4.43-5-4.43h-4.09v-3.33h4.09c1.65,0,4.71,0,4.71-3.88,0-3.09-1.74-4.12-5.67-4.12-7,0-7.05,2.31-7.08,4.95h-4c.23-7.66,4.12-8.65,10.85-8.65,3.06,0,9.78,0,9.78,7.34,0,4.81-2.9,5.63-3.69,5.88,1,.37,4,1.47,4,6.42,0,7.55-6.19,8-10.25,8-9.32,0-11.24-2.92-11.24-9.51Z"/><path class="cls-2" d="M479.3,161.79c-.33.62-.66,1.17-1.28,2.13l-3.43-1.37a45.61,45.61,0,0,0,3.76-7.25h-6V152h30.91v3.26H482.14c-.27.69-1.09,2.72-1.35,3.27h19.47c-.19,2.64-.65,8-1.71,10a4.1,4.1,0,0,1-3.82,2.37h-5.8l-.76-3.61h5.93c1.19,0,2.08-.62,2.44-5.53Zm21.19-22v9.78H475.31v-9.78Zm-21.88,3.12v3.57H497.2v-3.57Z"/><path class="cls-2" d="M507.65,159.32a31.07,31.07,0,0,0,4.75-11.09h-4.26v-3.29h4.35v-6.25h3.17v6.25h3.66v3.29h-3.66v1.2a18.73,18.73,0,0,0,4.05,6.42L518,159a21.15,21.15,0,0,1-2.37-4.29v16.17h-3.17V155.78c-1.41,5.09-2.73,6.87-3.62,8.11Zm9.79,7.24a22.7,22.7,0,0,0,8.37-7.55h-5.67V146.62h7.42v-2h-8.24V141.3h8.24v-2.61h3.09v2.61h8.51v3.36h-8.51v2h7.45V159h-5.44a24.81,24.81,0,0,0,7,7.25l-1.92,3.05a23.62,23.62,0,0,1-7.12-8.51v10.09h-3.09v-9.65a24.39,24.39,0,0,1-8.24,8.41Zm5.77-17.23v2.27h4.35v-2.27Zm0,4.7v2.24h4.35V154Zm7.44-4.7v2.27h4.45v-2.27Zm0,4.7v2.24h4.45V154Z"/></g></svg>