<svg xmlns="http://www.w3.org/2000/svg" width="650" height="295" viewBox="0 0 650 295"><defs><style>.cls-1{fill:#00ae22;}.cls-2{fill:#fff;}</style></defs><title>joho_matome</title><g id="レイヤー_3" data-name="レイヤー 3"><path class="cls-1" d="M112.71,85.26H135v3.86h-7.42v1.95h6.6v17h-3.75v-1.06H117.26v1.06h-3.73v-17h5.71V89.12h-6.53Zm4.55,14.79v3.24h13.21v-2a2,2,0,0,1-1.27.47h-3.27a1.74,1.74,0,0,1-1.7-1.88V94.78h-1.67a11,11,0,0,1-3.21,7.84Zm0-5.27v4.55a6.91,6.91,0,0,0,2-4.55Zm5.37-5.66v1.95h1.6V89.12Zm7.84,7.39V94.78h-2.85v2.85c0,.49,0,.74.4.74.76,0,.9,0,1-2.15Z"/><path class="cls-1" d="M147.66,106.19v.27c-2.59.66-8,1.41-9.26,1.56l-.33-3.84c1-.07,1.93-.15,3.58-.35V98h-3.39V94.58h3.39v-1h-1.82v-1a6.15,6.15,0,0,1-1.22.89l-1-4.08a12.33,12.33,0,0,0,4.1-4.72h3.75a9.9,9.9,0,0,0,2.9,3.48,15.63,15.63,0,0,0,.11-2.77l3.37.37c0,.72,0,1.41-.16,2.87h.89V84.62h3.51v3.95H160v3.69h-3.92v1.66c0,.32,0,.59,0,.79h4.38v3.83h-3.82a13,13,0,0,0,4.29,5.91l-2.24,3.71a13.8,13.8,0,0,1-4.17-6.53,13.6,13.6,0,0,1-5.49,6.63Zm-7.31-7.65a27,27,0,0,1,.83,4.21l-2.59.79a21.48,21.48,0,0,0-.62-4.26Zm5-8.48a13.35,13.35,0,0,1-1.58-2.23,15,15,0,0,1-1.55,2.23ZM148,98.54V94.71h4.59c0-.27,0-.37,0-.57V92.26h-1.48a15.86,15.86,0,0,1-.66,2.1l-3.16-1.51a21.57,21.57,0,0,0,1.09-4.7l-1.75,3.07v2.33h-1.79v1h2.45V98h-2.45v5.42c1.37-.2,2-.32,2.78-.45l0,1.34a9.81,9.81,0,0,0,4.21-5.74Zm.35.52a28.46,28.46,0,0,1-1,3.59l-2.26-.55a17.63,17.63,0,0,0,.8-3.58Z"/><path class="cls-1" d="M163.69,103.74c1.1-1.56,4.05-5.59,4.47-17.57l4.08.57c-.8,11.73-2.59,16.75-5.11,20.29ZM179.54,86.3a28.51,28.51,0,0,1,.8,3.61l.5-.12c.92,6.08,1.83,9.62,4.9,13.9l-3.8,3.14c-2.89-4.5-4.71-10.09-5.39-20.09ZM181,89.17a27.44,27.44,0,0,0-1.06-4l1.86-.47A20.13,20.13,0,0,1,183,88.57Zm3.13-.32a31.79,31.79,0,0,0-1.2-4l2-.37a18.27,18.27,0,0,1,1.2,3.89Z"/><path class="cls-1" d="M189.44,103.71A22.91,22.91,0,0,0,202.05,90.6H190.88V86.5h16.66a25.72,25.72,0,0,1-4.13,10.71A54.68,54.68,0,0,1,211,104l-3.51,3.59a79.22,79.22,0,0,0-6.62-7.1c-4.52,4.87-7.47,6.18-9.12,6.9Z"/><path class="cls-1" d="M234.57,82.1h-7.25v26.37h-5.38v-32h12.63Z"/><path class="cls-1" d="M246.44,103.2V99.53h-5.61V78.47h9.59a11,11,0,0,0,.56-2.08h6.4a15.79,15.79,0,0,1-.85,2.08h10.05V89.88h-20.4V91h23.47v3.7H246.18v1.1H268.9A67.69,67.69,0,0,1,268,106c-.82,3.08-3,3.08-4.9,3.08h-3.46l-.62-2.43v1H244.35v1.06H239v-8.22h5.35v2.78Zm-.26-21.44V83h15V81.76Zm0,3.87v1.23h15V85.63Zm7.74,17.57v-2.78H259V104h2.51c1.15,0,1.64,0,1.77-4.42H251.66v3.67Z"/><path class="cls-1" d="M305.58,103.09l-1.15,5.31H289.68a19,19,0,0,1-9.5-2.84,16.27,16.27,0,0,1-3.46,3.63l-3.29-5a12,12,0,0,0,3-2.77,32,32,0,0,1-2.74-6.06l3.85-2.12a23.6,23.6,0,0,0,1.14,3,22.48,22.48,0,0,0,.56-3.57H274V87.62a37.11,37.11,0,0,0,3.82-4.93H274V77.55h10v5.14a43.3,43.3,0,0,1-3.72,5h3.82a60,60,0,0,1-1,11,18.18,18.18,0,0,1-.68,2.46,14.67,14.67,0,0,0,7.44,2Zm-1.51-1.78h-19V77.55h19Zm-4.5-19H289.35V96.73h10.22ZM298.4,95.15h-7.81V83.61h7.81Zm-3-7.36h-1.73v3.29h1.73Z"/><path class="cls-1" d="M318.82,88.64a21.78,21.78,0,0,0,4.44-2.8H319.6v1.47h-2.28v.75a22.51,22.51,0,0,0,3.62,5.51l-.62,1.2h19.06v11.88c0,1.51-.72,2.44-2.19,2.44h-3.81l-.33-1.92h-7.77V99.53h8.62v5.24c.32,0,.65,0,.85-.17a1.3,1.3,0,0,0,.13-.75V98.44H324.27v10.65h-4.54V95.94l-1.11,2.26a17.31,17.31,0,0,1-1.3-2.19v13.08h-4.9v-11a16.88,16.88,0,0,1-2.19,5.45l-1.69-7.81c1.34-1.85,2.51-3.87,3.59-8.42h-2.94V82h3.23V76.52h4.9V82h2.28V82h6.17a9.17,9.17,0,0,0,.39-1.17c-.81,0-4.8.17-5.68.14l-.68-3.77A115.29,115.29,0,0,0,338.08,76l1.3,3.87a64.35,64.35,0,0,1-8.09.79c-.39,1-.49,1.13-.59,1.34h9.43v3.8h-4.6a17.36,17.36,0,0,0,5.16,2.39l-1.64,4.69c-.58-.27-1.24-.58-2.38-1.23v2.12h-14V92a16.45,16.45,0,0,1-1.47.89ZM326.65,90v1.33h5.88V90Zm5.16-2.61c-.29-.41-.52-.78-.95-1.5h-2.18c-.3.48-.69,1-1.05,1.5Zm-3.2,15.14V104h2v-1.54Z"/><path class="cls-1" d="M357.1,109.05H344.46V103.4h7.25V77h5.39Z"/><path class="cls-1" d="M370.34,94.64c-.49.58-.68.78-1.21,1.37l-1.24-8.22c3.11-4.14,3.82-9.08,4.08-11.51l5.19.48c0,.21-.16,1.17-.19,1.41h8.13V76.45h5.18v1.72h9.05v4.14H376.81v-3A52.81,52.81,0,0,1,375.43,85v24.07h-5.09ZM397.07,99v2.74h-6.33v3.83c0,3.26-1.83,3.46-3.59,3.46h-6.07l-.75-4.72h4.37c.69,0,.82-.35.82-.89v-1.68h-7V99h-2V92.38h22.42V99Zm.33-15.65v7.84H378V83.37ZM394,96.25h-12.7v1.37H394ZM383.2,86.56v1.5h8.88v-1.5Z"/><path class="cls-1" d="M403.2,81.49A14.09,14.09,0,0,0,408,76.18l5.06,1.54a29.48,29.48,0,0,1-7.77,9.59Zm8,24.21V109h-5.16V97.62c-.58.54-.91.82-1.5,1.33l-1.34-7.19a26.28,26.28,0,0,0,6.53-7.6l4,2.63h7.63V84.43H414.2v-5.2h7.21V76.39h5.29v2.84h7.21v5.2H426.7v2.36h8V92h-8v2.33h6.76v5.2H426.7V103c.65,0,1.8.1,3.53.1,2.09,0,3.49-.07,4.86-.14L434,108.33c-10.31.11-13.12-.17-16.55-4.21a17.56,17.56,0,0,1-3.23,5.21Zm8.45-12a38,38,0,0,1-.65,5,7.55,7.55,0,0,0,2.38,2.6V92h-7.93V88.16a25.72,25.72,0,0,1-2.25,3.6V104.5c1.21-1.37,3.13-4.08,3.62-11.2Z"/><path class="cls-1" d="M440,103.61c2.09,0,10.81-.07,15.41-2.43a3.21,3.21,0,0,1-1,.13H448.2l-.85-4.62a21,21,0,0,1-5.15,4.11l-3.43-4.52a21,21,0,0,0,6.85-5.44H439.1V85.67h4.4V78h5.36v7.71h3.29V76.56h5.32v2.15h10.12v5H457.47v1.92H470v5.17h-6.1a31.45,31.45,0,0,0,6.69,5.61l-3.43,4.45a33.6,33.6,0,0,1-7.9-7.67l3.46-2.39h-5.22V98a3.23,3.23,0,0,1-.78,2.39,15.08,15.08,0,0,0,4.11-4.14l3.85,3.77c-2.41,3.22-7.24,8.8-22.84,9.21Zm10.22-10.38a15.16,15.16,0,0,1-2.55,3.08h3.46c1,0,1-.92,1-1.23V90.84H446.6Z"/><path class="cls-1" d="M483.77,96.76c-1.7.2-2.74.51-2.74,2.53v.86h17.26v5.61h-23.1v-5.37c0-2.6,0-8.22,6.36-9l8.36-1c1.89-.24,2.77-.59,2.77-2.88s-.72-3.36-5.55-3.36c-5.45,0-5.64.72-5.71,4.08h-5.74c0-5.75.29-9.69,11-9.69,6.78,0,11.81.48,11.81,8.63,0,3.49-.85,5.27-2,6.33a8.1,8.1,0,0,1-4.8,2.26Z"/><path class="cls-1" d="M508.37,91.21c-.78.72-1.27,1.13-2,1.75l-3.52-5.27a21.27,21.27,0,0,0,9-11.41l5.35,1.06a32.33,32.33,0,0,1-5.52,10.31h14.53a42,42,0,0,1-5.45-10.13l5.35-1.31c1.73,4.08,4.31,8.6,9,11.82L531.48,93a22.66,22.66,0,0,1-1.79-1.47c-.23,5.82-.46,12.15-1.54,14.79a3.84,3.84,0,0,1-4.14,2.81H517.9l-1.07-5.69h4.83a1.62,1.62,0,0,0,1.47-.79c.26-.54.78-3.63,1-9.51h-5.54c-1,8.59-5.49,13-12.18,16.09l-3.16-5.45c8.55-3,9.56-7.8,9.79-10.64h-4.64Z"/><rect class="cls-1" x="56.71" y="127.29" width="536.57" height="53.21" rx="23.62"/><path class="cls-1" d="M222.92,59.19a13.87,13.87,0,0,0,3.13-5.25,59.59,59.59,0,0,1-9,3.5l-.4-4.46a31,31,0,0,0,3.43-.9V41.61H217V37.49h3.1v-8H224v8h2.4v4.12H224v9.17c1.28-.52,1.51-.62,2.14-.89l.23,3a44.86,44.86,0,0,0,.79-7.35V34.2H238c-.1-3.47-.1-3.88-.1-4.71h3.93c0,1.79-.07,2.72-.07,4.71h3.33a19,19,0,0,0-2.67-3.33L245.13,29a20,20,0,0,1,3.07,3.61l-2.34,1.58h2.44v3.95h-6.49a85.42,85.42,0,0,0,.59,9.33,37.87,37.87,0,0,0,2.21-7.58l3.49,1.23a40.45,40.45,0,0,1-4.68,12c.73,3.43.92,3.43,1.15,3.43.76,0,2-3.29,2.15-3.91l2.07,3.53c-.42,1.27-1.94,5.63-4.31,5.63s-3.23-2.36-4-4.77a25.23,25.23,0,0,1-6,4.74l-2.34-3.57a19.68,19.68,0,0,0,7.22-5.46,90.1,90.1,0,0,1-1.32-14.62h-7.12v3.6h6.29c0,4.12,0,10.71-.88,13-.53,1.37-1.13,1.92-3,1.92h-1.91l-.53-3.81h1.75c.56,0,.73-.24.82-.51.24-.65.37-1.92.53-6.87h-3v.62c0,4.19-1,12-4.52,15.72Z"/><path class="cls-1" d="M265.6,42.2h-6.26V61.73h-4V38.49h11.57V35.91H253.44V31.83h13.45V29.46H271v2.37h13.45v4.08H271v2.58h11.6v20c0,2.58-1.74,3.23-2.83,3.23H274.4l-.72-3.95h4.22c.56,0,.76-.27.76-.68V42.2h-6.5l3,.68c-.2.76-.63,2.2-1.09,3.4h3.06v3.33h-6.39V52h6.39v3.3h-6.39v6h-3.89v-6h-6V52h6V49.61h-6V46.28h2.67a18.62,18.62,0,0,0-.95-3.16Zm4.65,4.08a27.24,27.24,0,0,0,1.12-4.08h-5.14a15.73,15.73,0,0,1,1.15,4.08Z"/><path class="cls-1" d="M290.72,30.56h29.2v4.08h-25v21.8h25.74v4.09H294.91v1.3h-4.19Zm5.08,21.56a36.6,36.6,0,0,0,9.29-6.8,68.56,68.56,0,0,0-7.84-4.15l2.17-3.4a81.65,81.65,0,0,1,8.34,4.43,34,34,0,0,0,4.06-7L316,36.81a47.33,47.33,0,0,1-4.71,7.65A77,77,0,0,1,319,50.64l-2.9,3.74a67.73,67.73,0,0,0-7.61-6.69,52.49,52.49,0,0,1-10.09,7.86Z"/><path class="cls-1" d="M325.36,49.65a24.23,24.23,0,0,0,4.45-10.17h-3.92v-4H330v-6h3.89v6h3.2v4h-3.2v1.69a21.39,21.39,0,0,0,3.59,5.25l-1.78,3.95a21.42,21.42,0,0,1-1.81-3.3V61.83H330V48.27a28.44,28.44,0,0,1-3.33,7.14Zm19.75-11.2c-.8-.58-1.72-1.16-3.66-2.3l2-2h-6V30.52h18V34.2A24.37,24.37,0,0,1,350,38c.07.07.46.38.53.44h5.54V58.61c0,2.26-.69,3.22-2.77,3.22h-3.66l-.56-4h2c1,0,1.15-.28,1.15-1.34V54H348.4v7.55h-3.62V54h-3.37v7.82h-3.79V38.45ZM341.41,42v2.67h3.37V42Zm0,6v2.71h3.37V47.93ZM344,34.13a33.07,33.07,0,0,1,3.33,2,12.85,12.85,0,0,0,2.94-2ZM348.4,42v2.67h3.79V42Zm0,6v2.71h3.79V47.93Z"/><path class="cls-1" d="M369.56,39.62h-6.75V35.5h6.75v-6h4.16v6h8.43v-6h4.19v6h6.39v4.12h-6.39v7.76h7v4.19h-7v10.3h-4.19V51.57h-9.23c-1.45,6.11-6.32,9.37-7.84,10.4l-3-3.74c1.26-.76,5.08-3,6.4-6.66h-6.33V47.38h7.25a10.09,10.09,0,0,0,.13-1.75Zm4.16,5.8a18.51,18.51,0,0,1-.1,2h8.53V39.62h-8.43Z"/><path class="cls-1" d="M401.63,29.53H406V43c0,11.08-1.94,15.1-4.64,18.71L398,58.26c2.9-4.32,3.59-8,3.59-15.17Zm10.58,1h4.39V59.43h-4.39Zm11.28-1h4.38v32.2h-4.38Z"/><path d="M232.39,206.3h1.44v17.77h3.95v1.12h-3.95v4.06c0,1.54.77,2.14,2.45,2.14h.56v1.12H228v-1.12h.56c1.65,0,2.45-.56,2.45-2.14v-4.06h-9.41V224ZM231,210.92l-8.08,13.15H231Z"/><path d="M251.67,208.12h-1.22a2.24,2.24,0,0,0-2.48,2.41V229a2.25,2.25,0,0,0,2.48,2.42h.94a10.61,10.61,0,0,0,9.49-5.78l.91.46-2.49,6.44H241.49v-1.12h1.19A2.27,2.27,0,0,0,245.2,229V210.53a2.26,2.26,0,0,0-2.52-2.41h-1.19V207h10.18Z"/><path d="M266.06,207h10c8.19,0,13.26,4.2,13.26,12.6,0,6-3.15,12.95-12.95,12.95H266.06v-1.12h1.19a2.26,2.26,0,0,0,2.52-2.42V210.53a2.26,2.26,0,0,0-2.52-2.41h-1.19Zm6.47,22a2.25,2.25,0,0,0,2.48,2.42h1.68c6.34,0,9.52-5.67,9.52-12.11,0-4.44-1.82-11.16-9.38-11.16H275a2.24,2.24,0,0,0-2.48,2.41Z"/><path d="M306.36,216.76l7.77,12.42a5,5,0,0,0,4.13,2.21h.49v1.12h-9.9v-1.12h.84a1.28,1.28,0,0,0,1.4-1.16,2.84,2.84,0,0,0-.49-1.43l-6.19-9.9-3.33,3.6V229a2.28,2.28,0,0,0,2.52,2.42h1v1.12h-9.73v-1.12h1a2.25,2.25,0,0,0,2.49-2.42V210.53a2.25,2.25,0,0,0-2.49-2.41h-1V207h9.73v1.16h-1a2.27,2.27,0,0,0-2.52,2.41v10.32l9.55-10.42a1.75,1.75,0,0,0,.46-1.12c0-1-1.09-1.19-1.86-1.19h-.91V207h9.87v1.16h-.63a6.85,6.85,0,0,0-5.6,2.52Z"/><path d="M323.69,223h6v-6H331v6h6.08v1.25H331v6h-1.25v-6h-6Z"/><path d="M367.18,215.44c-1.39,0-2,.8-2.27,2.05L361,233h-.59l-3.94-14-4.24,14h-.51l-4-15.53c-.44-1.71-1.17-2-2-2h-.61v-.81h6.46v.81H351c-1,0-1.42.36-1.42,1.12a3.87,3.87,0,0,0,.22,1.23l2.89,11.12,3.43-11.34c-.47-1.47-.83-2.13-2.13-2.13h-.52v-.81h6.62v.81h-.86a1.07,1.07,0,0,0-1.23,1.17,5.12,5.12,0,0,0,.25,1.42l3,10.78,2.81-11.22a4.19,4.19,0,0,0,.15-1c0-.89-.81-1.2-1.49-1.2h-.79v-.81h5.71v.81Z"/><path d="M377.55,231.18a1.42,1.42,0,0,1-1.42,1.42,1.42,1.42,0,0,1,0-2.84A1.42,1.42,0,0,1,377.55,231.18Z"/><path d="M384.23,232.51v-.79h1.18a1.57,1.57,0,0,0,1.74-1.69v-12.9a1.57,1.57,0,0,0-1.74-1.69h-1.18v-.81H392v.81h-1.17a1.56,1.56,0,0,0-1.74,1.69V230a1.57,1.57,0,0,0,1.74,1.69H392v.79Z"/><path d="M401.58,231.18a1.43,1.43,0,0,1-1.43,1.42,1.42,1.42,0,1,1,0-2.84A1.43,1.43,0,0,1,401.58,231.18Z"/><path d="M422.44,219c-.88-1.37-2.67-4-5.93-4-3.94,0-5.87,4-5.87,8.25,0,4.75,2.32,8.62,6.44,8.62,3.48,0,5.17-3.18,5.83-4.43l.63.39c-.93,1.89-2.67,5.17-7.22,5.17-5.17,0-7.69-4.19-7.69-9,0-5.73,3.55-9.8,7.71-9.8a7.47,7.47,0,0,1,2.06.3c.17,0,1.32.36,1.47.36a3.42,3.42,0,0,0,1.64-.58l1.74,4.4Z"/><path d="M137.6,256.72l.85-1.12c.12-.16.19-.25.31-.25s.15.05.39.23l1.39,1.1a.43.43,0,0,1,.21.33c0,.19-.18.21-.33.21h-6.91c0,.68,0,3.67,0,4.27,0,.21,0,4.52,0,5.12H139l1-1.12c.14-.16.2-.24.31-.24s.18.06.39.22l1.37,1.1c.1.09.21.19.21.31s-.19.23-.31.23H126.4a14.51,14.51,0,0,0-2.45.19l-.41-.83c1.39.12,2.8.14,3.19.14H132c0-.18,0-4.58,0-5.06v-4.33h-4.37a14.45,14.45,0,0,0-2.45.19l-.42-.81c1.39.1,2.8.12,3.2.12h4c0-4.7,0-5.24-.52-6.76l2.51.67c.21.06.33.1.33.29a.38.38,0,0,1-.18.31c-.09.08-.48.39-.6.47,0,1.68,0,3.34,0,5Z"/><path d="M154,256.85h-2.42v6.67c1.68-.49,2.15-.68,2.63-.85l.08.17a21.73,21.73,0,0,1-3,1.76l-2.55,1.29c-.19.43-.27.66-.52.66a.43.43,0,0,1-.33-.25l-1.08-1.84c.7,0,1.06.08,3.4-.56,0-.71,0-3.86,0-4.5v-2.55h-.41a14.53,14.53,0,0,0-2.45.18l-.4-.83c1.23.11,2.47.15,3.26.15,0-1,0-2.07,0-3.11a11.47,11.47,0,0,0-.27-3.07l2.09.71c.11,0,.29.12.29.31s-.41.56-.7.74c0,1.45,0,2.16-.06,4.42h.5l.62-.68c.18-.21.25-.27.35-.27s.25.14.35.22l.73.69c.1.1.18.18.18.31S154.09,256.85,154,256.85Zm9.27,10.61c-.47.09-4.14.09-4.72.09-3.41,0-4-.17-4-2.43,0-.81.07-4.37.07-5.1,0-.21,0-1.14,0-1.33a11.45,11.45,0,0,0-2,1.1l-.7-.58a28.36,28.36,0,0,0,2.71-1.08v-3.67a10.83,10.83,0,0,0-.22-2.4l1.92.66c.15,0,.32.13.32.29s-.17.33-.67.69c0,.62,0,3.31,0,3.85l2.26-1c0-2.08,0-3.55,0-5a14.16,14.16,0,0,0-.25-1.83l2,.67c.21.06.35.16.35.31s-.29.43-.72.77c0,1.86,0,2.13,0,4.5l2-.9.5-.83c.1-.16.2-.35.35-.35a.76.76,0,0,1,.39.17l1,.6a.43.43,0,0,1,.2.33c0,.25-.22.46-.51.73,0,6.22,0,7.65-2.47,8.29a2.64,2.64,0,0,0-1.25-1.74v-.1a4.76,4.76,0,0,0,.65,0c1.45,0,1.68-.19,1.68-4.56,0-1.41,0-1.64-.05-2.24l-2.46,1.12c0,3,0,5,.06,5.59,0,.27.06,1.5.06,1.75a1,1,0,0,1-1.06,1c-.29,0-.49-.1-.49-.54,0-.22.06-1.28.06-1.49,0-1.33,0-2.11.06-5.76l-2.26,1c0,.83,0,7.2,0,7.45a.69.69,0,0,0,.5.58c.27.08,3.23.08,3.63.08,2.13,0,2.78,0,3.21-.77a16.52,16.52,0,0,0,.91-2.51h.15a7.32,7.32,0,0,0,.39,2.47c.13.21.48.4.48.6S164.79,267.19,163.23,267.46Z"/><path d="M177,254.81a21.66,21.66,0,0,0,1.23-3.46h-5.41a14,14,0,0,0-2.45.19l-.42-.83c1.06.08,2.12.14,3.2.14h12.36l.91-.89c.17-.16.33-.31.39-.31s.19.06.4.23l1.16.93c.08.07.21.19.21.31s-.21.23-.34.23h-8.06a36.1,36.1,0,0,1-2.68,3.46h7.55l.58-.6c.21-.2.27-.27.4-.27s.26.13.37.21l.95.81a.38.38,0,0,1,.17.27c0,.19-.08.25-.83.66,0,2.35,0,5.31,0,7.66,0,1,.1,2.5.1,3.46a.92.92,0,0,1-1,1c-.63,0-.63-.33-.58-1.51h-11.8c0,.08,0,.56,0,.66a1,1,0,0,1-1,1c-.66,0-.66-.46-.66-.65s.06-1.1.06-1.26c0-2.26.15-7,.15-9a15,15,0,0,0-.29-3.4l2.13,1Zm-3.58.5V266h2.75V255.31Zm7.32,3.15v-3.15h-3.18v3.15Zm0,3.63V259h-3.18v3.13Zm0,3.88v-3.38h-3.18V266Zm4.48,0V255.31h-3.07V266Z"/><path d="M192.39,263.67a26.65,26.65,0,0,0,3.86-7.94h-.48a15.47,15.47,0,0,0-2.44.18l-.4-.83c1.19.11,2.39.15,3.47.15,0-1,0-2.47,0-3.36a19.93,19.93,0,0,1-3.39.37v-.16c.42-.15,4.53-1.52,5.6-2.32a1.49,1.49,0,0,0,.44-.5l1.43,1.2a.38.38,0,0,1,.15.29c0,.21-.21.21-.4.21l-.6,0a18,18,0,0,1-1.93.62c0,.95,0,2.86,0,3.67h.4l.49-.75c.09-.12.19-.27.31-.27s.29.15.4.23l.89.75a.46.46,0,0,1,.21.33c0,.21-.21.21-.31.21h-2.39c0,.39,0,1.32,0,1.82,2,.73,2.72,2,2.72,2.62a.79.79,0,0,1-.77.82c-.5,0-.56-.2-1-1.36a3.78,3.78,0,0,0-1-1.81c0,3.61,0,4,.09,5.6,0,1.41.08,3.05.08,3.8,0,.37,0,1.2-1,1.2-.54,0-.6-.31-.6-.71,0-.68.17-3.73.19-4.35,0-2,0-2.84,0-4.65a13.55,13.55,0,0,1-3.92,5.06Zm6.66,4.38c1.45-.71,3.8-2.08,4.29-3l1.5,1.1a.36.36,0,0,1,.18.31c0,.29-.47.27-1,.27a16.56,16.56,0,0,1-4.94,1.43Zm9.21-16.51.52-.83c.1-.17.2-.29.31-.29s.27.14.39.25l1,.83a.43.43,0,0,1,.2.33c0,.19-.16.21-.31.21H206v1.7h1.66l.49-.75c.09-.12.17-.25.31-.25s.25.13.38.23l.85.73a.45.45,0,0,1,.21.33c0,.18-.19.2-.31.2H206v1.87h3.44l.6-.85c.1-.17.23-.27.33-.27s.25.13.38.25l.89.83c.1.1.21.21.21.33s-.17.21-.32.21h-8.62a13.9,13.9,0,0,0-2.45.19l-.41-.83c1,.08,2.13.14,3.19.14h1.35v-1.87h-.5a13.16,13.16,0,0,0-2.45.21l-.39-.83c.62,0,1.53.13,3.34.13,0-.81,0-1.31,0-1.7H203.2a14.47,14.47,0,0,0-2.45.18l-.41-.83c1.51.13,2.84.15,3.19.15h1a6,6,0,0,0-.38-2.22l2.12.64a.32.32,0,0,1,.29.31c0,.27-.48.5-.58.54v.73Zm-.48,6.49.48-.52c.08-.08.2-.21.29-.21s.25.13.33.19l.81.68a.56.56,0,0,1,.23.38c0,.21-.25.37-.6.54a4.83,4.83,0,0,0,0,.76c0,.71.17,3.8.17,4.42a.85.85,0,0,1-1,1c-.54,0-.54-.27-.52-.71h-4.94c0,.48.06,1-.93,1-.35,0-.54-.1-.54-.47,0,0,0-.21,0-.5,0-.77,0-3,0-3.92a13.89,13.89,0,0,0-.22-3.28l1.63.73Zm-4.73.5V260H208v-1.47Zm0,2V262H208V260.5Zm0,2V264H208v-1.53Zm3.49,2.82c1.86.16,4.5,1.1,4.5,2.34a.84.84,0,0,1-.83.81c-.48,0-1-.52-1.31-.91a10.22,10.22,0,0,0-2.36-2.1Z"/><path d="M218.44,254.79a1.22,1.22,0,0,1-1.2,1.21,1.2,1.2,0,0,1-1.2-1.21,1.2,1.2,0,1,1,2.4,0Zm0,8.17a1.21,1.21,0,0,1-1.2,1.21,1.21,1.21,0,0,1,0-2.41A1.2,1.2,0,0,1,218.44,263Z"/><path d="M223.4,266.1h1.14c1.08,0,1.45-.42,1.45-1.27V253.61c0-.64-.6-.74-1-.74h-1.58v-.65h.37a7.9,7.9,0,0,0,3.38-.87c.15-.08.21-.12.29-.12s.23.12.23.29v13.31c0,.89.44,1.27,1.45,1.27h1.14v.66H223.4Z"/><path d="M242.77,259.71a3.86,3.86,0,0,1,1.41,3.07c0,2.55-2.1,4.37-4.83,4.37-2.24,0-4.13-1.26-4.13-2.92a1.2,1.2,0,0,1,1.18-1.33,1,1,0,0,1,1,1,1.53,1.53,0,0,1-.13.66,1.56,1.56,0,0,0-.06.48c0,.79.89,1.37,1.87,1.37a3.54,3.54,0,0,0,3.21-3.67,3.61,3.61,0,0,0-3.23-3.8c-.13,0-.71.09-.83.09a.42.42,0,0,1-.46-.44.47.47,0,0,1,.48-.48c.12,0,.75.13.89.13A3,3,0,0,0,242,255c0-1.61-1-3.11-2.61-3.11a1.34,1.34,0,0,0-1.62,1.7,2.2,2.2,0,0,1,.06.5,1.09,1.09,0,0,1-1.05,1.14,1.07,1.07,0,0,1-1-1.14c0-1.14,1.33-2.9,4-2.9s4.15,1.66,4.15,3.48a3.59,3.59,0,0,1-.77,2.12,4.91,4.91,0,0,1-2.63,1.76A5.62,5.62,0,0,1,242.77,259.71Z"/><path d="M253.47,260.75a3.49,3.49,0,0,1-1.8.54c-2.06,0-3.72-2.08-3.72-4.61,0-2.86,2.06-5.45,4.44-5.45s4.77,2.69,4.77,7.15c0,4.79-2.69,8.77-5.87,8.77-1.39,0-2.36-.83-2.36-1.8a1,1,0,0,1,1.06-1.08c.41,0,1.1.27,1.14,1.43,0,.46.06.75.62.75a2,2,0,0,0,1.51-.73c1.85-2,2-5.1,2-6.94A5.42,5.42,0,0,1,253.47,260.75Zm.68-7.7a2,2,0,0,0-1.67-1.12c-1.1,0-2.66,1.16-2.66,4.56,0,1,.23,3.86,2.37,3.86.78,0,2.11-.58,3.09-2.82A10.05,10.05,0,0,0,254.15,253.05Z"/><path d="M263.36,266a1.2,1.2,0,1,1-1.2-1.2A1.22,1.22,0,0,1,263.36,266Z"/><path d="M276.43,262.59a4.62,4.62,0,0,1-4.9,4.56c-2.36,0-4.47-1.37-4.47-3.73s1.78-3.3,3.69-4.42c-1.1-.64-3.09-1.8-3.09-4.06,0-2.05,1.61-3.71,4.14-3.71a3.48,3.48,0,0,1,3.8,3.27c0,1.77-1.7,3.05-2.59,3.72C275,259.42,276.43,260.46,276.43,262.59Zm-7.63.77a3,3,0,0,0,3,3.09,3.23,3.23,0,0,0,3.16-3.13c0-2-2.06-3.13-3.57-4C270.44,260,268.8,261.31,268.8,263.36Zm5.29-8.63a2.62,2.62,0,0,0-2.58-2.8,2.39,2.39,0,0,0-2.44,2.47c0,1.45,1.18,2.18,3.34,3.46A3.93,3.93,0,0,0,274.09,254.73Z"/><path d="M283.69,257.66a3.49,3.49,0,0,1,1.8-.54c2.06,0,3.71,2.07,3.71,4.58,0,2.88-2.05,5.45-4.43,5.45S280,264.48,280,260c0-4.79,2.69-8.77,5.87-8.77,1.38,0,2.36.83,2.36,1.82a1,1,0,0,1-1.06,1.08c-.41,0-1.1-.27-1.14-1.45,0-.46-.06-.75-.62-.75a2.1,2.1,0,0,0-1.51.75c-1.85,2-1.95,5.08-2,6.95A5.12,5.12,0,0,1,283.69,257.66Zm-.69,7.67a2.08,2.08,0,0,0,1.68,1.12c1.1,0,2.66-1.14,2.66-4.56,0-.94-.23-3.84-2.37-3.84-.78,0-2.11.58-3.09,2.82A10,10,0,0,0,283,265.33Z"/><path d="M296.17,256.56v1.64a4.67,4.67,0,0,1,3.42-1.64,2.29,2.29,0,0,1,2.49,1.86,5.2,5.2,0,0,1,3.72-1.86c1.82,0,2.65,1.1,2.65,3.4v4.89c0,.79.41,1.25,1,1.25h.37v.66h-4.33v-.66h.39c.73,0,1-.56,1-1.25v-4.77c0-.58-.09-2.63-1.81-2.63a3.9,3.9,0,0,0-2.94,1.8,5.05,5.05,0,0,1,0,.71v4.89c0,.87.48,1.25,1,1.25h.6v.66h-4.77v-.66h.6c.58,0,1.06-.4,1.06-1.25v-4.77c0-.43-.07-2.63-1.81-2.63a3.71,3.71,0,0,0-2.8,1.64v5.76c0,.87.48,1.25,1,1.25h.37v.66h-4.31v-.66h.37c.63,0,1-.44,1-1.25v-6.24a.85.85,0,0,0-.85-1,1.83,1.83,0,0,0-.62.08l-.11-.4Zm10.72-1.23A12.86,12.86,0,0,1,308.1,254c.43-.48,1.18-1.29,1.18-2,0-.27-.17-.77-.64-.77a.69.69,0,0,0-.71.56c0,.08.19.45.19.54a.57.57,0,0,1-.58.54.65.65,0,0,1-.63-.71,1.76,1.76,0,0,1,1.83-1.49,1.4,1.4,0,0,1,1.51,1.41,1.66,1.66,0,0,1-.64,1.35c-.23.22-1.51,1.26-1.72,1.55h1.28a.84.84,0,0,0,.81-.7l.34.1-.44,1.43h-3Z"/><path d="M355,267.67c-7.53-.1-10.77-.14-13.57-2.86a9.61,9.61,0,0,1-4.23,3.59l-.12-.13a13.09,13.09,0,0,0,3.59-4.31,10.09,10.09,0,0,1-1.93-4l.21-.17a9.24,9.24,0,0,0,2.09,3.4,14.27,14.27,0,0,0,1.16-5.64h-1.74c-.41,1.16-.52,1.47-1.2,1.47-.15,0-.75,0-.75-.47a12.11,12.11,0,0,1,.5-1.47c1.08-2.78,1.93-5,2.18-6h-.75a13.55,13.55,0,0,0-2.45.19l-.39-.83c1.06.08,2.11.15,3.17.15h.37l.54-.44c.19-.14.29-.21.4-.21a.75.75,0,0,1,.35.21l.81.69a.42.42,0,0,1,.21.37c0,.25-.42.43-1,.66-.45,1.16-.72,1.87-1.86,5.14H342l.56-.43a.75.75,0,0,1,.39-.21c.15,0,.25.08.39.23l.65.66a.72.72,0,0,1,.25.44c0,.19-.21.31-.65.58a14.1,14.1,0,0,1-1.7,5.7,11.42,11.42,0,0,0,7.22,2.06,46.55,46.55,0,0,0,7.3-.61l0,.17A2.54,2.54,0,0,0,355,267.67Zm1.22-12.92h-2.86c.08,2.47.08,2.47.08,2.62,0,.41,0,1.05-1,1.05-.56,0-.54-.33-.52-.68h-2.55v2.16h3.11l.62-.79c.14-.17.23-.27.35-.27s.23.1.4.23l.93.78c.1.11.21.23.21.32s-.15.22-.31.22h-5.31l0,2.2h3.69l.79-.91c.16-.19.25-.27.35-.27s.23.08.37.23l1,.91a.51.51,0,0,1,.21.35c0,.13-.13.19-.32.19h-6.07c0,.25,0,1.47,0,1.74a1,1,0,0,1-.91.75c-.67,0-.67-.38-.67-.6s.11-1.58.11-1.89h-1.41a14.64,14.64,0,0,0-2.43.19l-.42-.81c1.62.12,3.16.12,3.2.12h1.08c0-.56,0-1.08,0-2.2h-.62a13.78,13.78,0,0,0-2.43.19l-.42-.81c.63,0,1.79.13,3.49.13v-2.16h-.42a14.8,14.8,0,0,0-2.44.19l-.42-.81c1.5.1,3.07.12,3.28.12l0-2.49h-1.93a13.85,13.85,0,0,0-2.43.19l-.41-.83c1.06.1,2.11.15,3.17.15H348l0-2.43h-.5A16.05,16.05,0,0,0,345,252l-.39-.83c1.45.12,2.8.14,3.32.14a3.7,3.7,0,0,0-.31-1.93l2,.48c.23.06.35.14.35.33s-.25.37-.58.56v.56h2.41l.51-.45c.15-.13.25-.21.38-.21s.22.1.37.23l.58.56a.58.58,0,0,1,.25.39c0,.17-.17.29-.58.58a11.54,11.54,0,0,0,0,1.83h.75l.6-.77c.12-.17.22-.25.33-.25a.63.63,0,0,1,.39.21l.89.76c.11.11.21.21.21.31S356.4,254.75,356.19,254.75Zm-4.25,0h-2.57l0,2.49h2.59Zm0-2.92h-2.53l0,2.43h2.57Z"/><path d="M366.21,260.64c0,2.51,0,2.95,0,4.15,0,.73.08,1.89.08,2.61s-.89,1-1.07,1c-.46,0-.56-.27-.56-.58,0-.09,0-.85,0-1,.08-1.55.08-2.11.12-5.43a20.74,20.74,0,0,1-2.55,1.18c0,.37-.06.73-.39.73s-.36-.23-.42-.36l-1-1.86c1.28.06,1.64,0,4.35-.79,0-1.83,0-3.88,0-5.46H363a16.68,16.68,0,0,1-1.85,4.59l-.12,0a33.7,33.7,0,0,0,.93-7.2,3.51,3.51,0,0,0-.21-1.41l2,.48c.17,0,.35.08.35.31s-.29.41-.62.54a17.18,17.18,0,0,1-.35,2.24h1.72c0-2.93-.1-3.78-.56-4.81l2.28.66c.13,0,.31.14.31.29s-.35.44-.66.6c0,.44,0,2.63,0,3.26h.41l.58-.79c.11-.13.21-.27.32-.27a.63.63,0,0,1,.37.23l.83.79a.47.47,0,0,1,.18.31c0,.18-.18.22-.31.22h-2.38c0,1.33,0,3.65,0,5l2.72-.95.06.14A24.78,24.78,0,0,1,366.21,260.64ZM378.44,255c-.16,4.34-.33,8.28-1.63,11a4,4,0,0,1-3.22,2.1c-.14-.94-.48-1.52-1.76-2.45l.06-.15a9,9,0,0,0,2.51.44c.5,0,.83,0,1.41-1.47a31.68,31.68,0,0,0,1.16-10h-1.18c-.6,4.69-2.59,10.72-8.59,13l-.06-.14c4.4-3.3,6.26-6.8,7.14-12.84h-1.17c-.85,4.38-3.19,8.15-6.2,9.56l-.06-.12a17.71,17.71,0,0,0,4.75-9.44h-1a13,13,0,0,1-2.8,4.13l-.1-.11a23.21,23.21,0,0,0,2.68-8.46,2.22,2.22,0,0,0-.11-.7l2.08.83c.2.08.31.21.31.33,0,.27-.4.37-.73.46-.54,1.66-.89,2.5-1.1,3h6l.5-.52c.13-.14.23-.22.31-.22a.9.9,0,0,1,.38.18l1,.73c.15.1.23.17.23.29C379.15,254.69,378.67,254.92,378.44,255Z"/><path d="M391.22,254.81a20.62,20.62,0,0,0,1.22-3.46H387a14.05,14.05,0,0,0-2.45.19l-.41-.83c1.06.08,2.12.14,3.19.14h12.36l.91-.89a1.35,1.35,0,0,1,.4-.31c.1,0,.19.06.39.23l1.16.93a.47.47,0,0,1,.21.31c0,.21-.21.23-.33.23h-8.07a36.11,36.11,0,0,1-2.67,3.46h7.55l.58-.6c.2-.2.27-.27.39-.27a.88.88,0,0,1,.37.21l1,.81a.39.39,0,0,1,.16.27c0,.19-.08.25-.83.66,0,2.35,0,5.31.05,7.66,0,1,.1,2.5.1,3.46a.93.93,0,0,1-1,1c-.62,0-.62-.33-.58-1.51h-11.8c0,.08,0,.56,0,.66a1,1,0,0,1-1,1c-.67,0-.67-.46-.67-.65s.07-1.1.07-1.26c0-2.26.14-7,.14-9a14.47,14.47,0,0,0-.29-3.4l2.14,1Zm-3.59.5V266h2.76V255.31Zm7.32,3.15v-3.15h-3.17v3.15Zm0,3.63V259h-3.17v3.13Zm0,3.88v-3.38h-3.17V266Zm4.48,0V255.31h-3.07V266Z"/><path d="M406.61,263.67a26.89,26.89,0,0,0,3.86-7.94H410a15.58,15.58,0,0,0-2.45.18l-.39-.83c1.18.11,2.38.15,3.46.15,0-1,0-2.47,0-3.36a19.71,19.71,0,0,1-3.38.37v-.16a34.87,34.87,0,0,0,5.6-2.32,1.62,1.62,0,0,0,.44-.5l1.43,1.2a.37.37,0,0,1,.14.29c0,.21-.21.21-.39.21l-.6,0a18.8,18.8,0,0,1-1.93.62c0,.95,0,2.86,0,3.67h.39l.5-.75c.08-.12.19-.27.31-.27s.29.15.39.23l.9.75a.45.45,0,0,1,.2.33c0,.21-.2.21-.31.21H411.9c0,.39,0,1.32,0,1.82,2,.73,2.71,2,2.71,2.62a.79.79,0,0,1-.76.82c-.5,0-.56-.2-1-1.36a3.77,3.77,0,0,0-1-1.81c0,3.61,0,4,.08,5.6,0,1.41.08,3.05.08,3.8,0,.37,0,1.2-1,1.2-.54,0-.6-.31-.6-.71,0-.68.16-3.73.18-4.35,0-2,0-2.84,0-4.65a13.55,13.55,0,0,1-3.92,5.06Zm6.66,4.38c1.45-.71,3.79-2.08,4.29-3l1.49,1.1a.35.35,0,0,1,.19.31c0,.29-.48.27-1,.27a16.42,16.42,0,0,1-4.93,1.43Zm9.2-16.51.52-.83c.11-.17.21-.29.31-.29s.27.14.4.25l1,.83a.42.42,0,0,1,.21.33c0,.19-.17.21-.31.21h-4.4v1.7h1.66l.5-.75c.08-.12.17-.25.31-.25s.25.13.37.23l.85.73a.43.43,0,0,1,.21.33c0,.18-.19.2-.31.2h-3.59v1.87h3.45l.6-.85c.1-.17.22-.27.33-.27s.25.13.37.25l.89.83a.51.51,0,0,1,.21.33c0,.21-.16.21-.31.21h-8.63a13.74,13.74,0,0,0-2.44.19l-.42-.83c1.06.08,2.14.14,3.2.14h1.34v-1.87h-.49a13.1,13.1,0,0,0-2.45.21l-.4-.83c.63,0,1.54.13,3.34.13,0-.81,0-1.31,0-1.7h-1.37a14.37,14.37,0,0,0-2.44.18l-.42-.83c1.52.13,2.84.15,3.2.15h1a6,6,0,0,0-.37-2.22l2.11.64a.31.31,0,0,1,.29.31c0,.27-.47.5-.58.54v.73ZM422,258l.47-.52c.09-.08.21-.21.29-.21s.25.13.34.19l.8.68a.52.52,0,0,1,.23.38c0,.21-.25.37-.6.54a7.23,7.23,0,0,0,0,.76c0,.71.17,3.8.17,4.42a.86.86,0,0,1-1,1c-.54,0-.54-.27-.52-.71h-4.93c0,.48.06,1-.93,1-.36,0-.54-.1-.54-.47,0,0,0-.21,0-.5,0-.77,0-3,0-3.92a13.3,13.3,0,0,0-.23-3.28l1.64.73Zm-4.73.5V260h4.93v-1.47Zm0,2V262h4.93V260.5Zm0,2V264h4.93v-1.53Zm3.48,2.82c1.87.16,4.5,1.1,4.5,2.34a.83.83,0,0,1-.83.81c-.47,0-.95-.52-1.3-.91a10.57,10.57,0,0,0-2.37-2.1Z"/><path d="M432.66,254.79a1.22,1.22,0,0,1-1.21,1.21,1.21,1.21,0,0,1-1.2-1.21,1.21,1.21,0,0,1,2.41,0Zm0,8.17a1.21,1.21,0,0,1-1.21,1.21,1.21,1.21,0,0,1,0-2.41A1.21,1.21,0,0,1,432.66,263Z"/><path d="M437.61,266.1h1.15c1.07,0,1.45-.42,1.45-1.27V253.61c0-.64-.6-.74-1-.74h-1.57v-.65H438a7.9,7.9,0,0,0,3.38-.87.63.63,0,0,1,.29-.12c.19,0,.23.12.23.29v13.31c0,.89.43,1.27,1.45,1.27h1.14v.66h-6.89Z"/><path d="M453.92,267.15a4.19,4.19,0,0,1-3.41-2.24,12.9,12.9,0,0,1-1.26-5.91c0-4.41,1.89-7.77,4.67-7.77,2.13,0,4.66,2.3,4.66,8C458.58,264.27,456.44,267.15,453.92,267.15Zm-2.33-12.46a18.85,18.85,0,0,0-.47,4.5c0,4.62,1.09,7.26,2.8,7.26,1.43,0,2.07-1.91,2.3-2.7a19.28,19.28,0,0,0,.49-4.56c0-4.73-1.14-7.26-2.79-7.26C452.44,251.93,451.8,254,451.59,254.69Z"/><path d="M471.46,262.59a4.62,4.62,0,0,1-4.89,4.56c-2.37,0-4.48-1.37-4.48-3.73s1.78-3.3,3.69-4.42c-1.1-.64-3.09-1.8-3.09-4.06,0-2.05,1.62-3.71,4.15-3.71a3.47,3.47,0,0,1,3.79,3.27c0,1.77-1.7,3.05-2.59,3.72C470,259.42,471.46,260.46,471.46,262.59Zm-7.63.77a3,3,0,0,0,3,3.09,3.23,3.23,0,0,0,3.15-3.13c0-2-2.06-3.13-3.57-4C465.47,260,463.83,261.31,463.83,263.36Zm5.29-8.63a2.62,2.62,0,0,0-2.57-2.8,2.39,2.39,0,0,0-2.45,2.47c0,1.45,1.18,2.18,3.34,3.46A3.93,3.93,0,0,0,469.12,254.73Z"/><path d="M477.58,266a1.21,1.21,0,1,1-1.2-1.2A1.22,1.22,0,0,1,477.58,266Z"/><path d="M486.87,260.75a3.52,3.52,0,0,1-1.8.54c-2.06,0-3.72-2.08-3.72-4.61,0-2.86,2.06-5.45,4.44-5.45s4.77,2.69,4.77,7.15c0,4.79-2.7,8.77-5.87,8.77-1.39,0-2.36-.83-2.36-1.8a1,1,0,0,1,1.06-1.08c.41,0,1.09.27,1.14,1.43,0,.46.06.75.62.75a2,2,0,0,0,1.51-.73c1.85-2,1.95-5.1,2-6.94A5.38,5.38,0,0,1,486.87,260.75Zm.68-7.7a2,2,0,0,0-1.68-1.12c-1.09,0-2.65,1.16-2.65,4.56,0,1,.23,3.86,2.36,3.86.79,0,2.12-.58,3.09-2.82A10,10,0,0,0,487.55,253.05Z"/><path d="M500.43,251.23h.85v10.53h2.35v.67h-2.35v2.4c0,.91.46,1.27,1.45,1.27h.34v.66H497.8v-.66h.33c1,0,1.45-.34,1.45-1.27v-2.4H494v-.73Zm-.85,2.74-4.79,7.79h4.79Z"/><path d="M510.39,256.56v1.64a4.67,4.67,0,0,1,3.42-1.64,2.3,2.3,0,0,1,2.49,1.86,5.16,5.16,0,0,1,3.71-1.86c1.83,0,2.65,1.1,2.65,3.4v4.89c0,.79.42,1.25,1,1.25h.37v.66h-4.33v-.66h.39c.73,0,1-.56,1-1.25v-4.77c0-.58-.08-2.63-1.8-2.63a3.92,3.92,0,0,0-3,1.8,5.05,5.05,0,0,1,0,.71v4.89c0,.87.48,1.25,1,1.25h.6v.66h-4.77v-.66h.6c.59,0,1.06-.4,1.06-1.25v-4.77c0-.43-.06-2.63-1.8-2.63a3.68,3.68,0,0,0-2.8,1.64v5.76c0,.87.48,1.25,1,1.25h.37v.66h-4.31v-.66h.37c.62,0,1-.44,1-1.25v-6.24a.86.86,0,0,0-.85-1,1.93,1.93,0,0,0-.63.08l-.1-.4Zm10.72-1.23a12.43,12.43,0,0,1,1.2-1.32,3.71,3.71,0,0,0,1.18-2c0-.27-.16-.77-.64-.77a.68.68,0,0,0-.7.56c0,.08.18.45.18.54a.57.57,0,0,1-.58.54.65.65,0,0,1-.62-.71,1.76,1.76,0,0,1,1.83-1.49,1.4,1.4,0,0,1,1.51,1.41,1.69,1.69,0,0,1-.64,1.35c-.23.22-1.52,1.26-1.73,1.55h1.29a.84.84,0,0,0,.81-.7l.33.1-.43,1.43h-3Z"/><path class="cls-2" d="M110.54,165.4a24.3,24.3,0,0,0,6.69-6.42H111.5v-3.16h6.69v-3.19h-6.86V149.5H115a28.66,28.66,0,0,0-1-4.91h-2v-3.12h6.2v-2.85h3.16v2.85h5.7v3.12H125.5a47.73,47.73,0,0,1-1.18,4.91h3.23v3.13h-6.2v3.19h5.44V159H122a17.07,17.07,0,0,0,4,3.91L124.38,166a17.89,17.89,0,0,1-3-3.67v8.62h-3.16v-8.55a25.72,25.72,0,0,1-5.84,6.18ZM117,144.59a40.72,40.72,0,0,1,1,4.91h3.33a40.21,40.21,0,0,0,1-4.91Zm25.15-2.74A26.2,26.2,0,0,1,132,144.42v5.22h10.19v3.3h-3.23v18h-3.43v-18H132v.92c0,9.58-1.81,13.25-4.41,17.07l-3.2-2.3c2.87-3.57,4.32-7.08,4.32-14.66V141.19a23.66,23.66,0,0,0,11.6-2.57Z"/><path class="cls-2" d="M159.62,155.41c-2.28.51-9.46,1.68-11.67,2l-.53-3.15c.3,0,4.68-.48,5.47-.59v-3.43H149v-2.75h.23l-2.07-2.23a16.42,16.42,0,0,0,5-6.69l3.23.61a11.53,11.53,0,0,1-.52,1.45h7.71v2.74h-5c.36.66.62,1.17.89,1.79l-3.23,1.23a17.23,17.23,0,0,0-1.06-3h-.85a19.1,19.1,0,0,1-3.5,4.12h10.09v2.75H156v3.09c2.24-.28,2.94-.41,3.86-.58v2c2.67-1.75,3-3.64,3.13-7.76h11.86v6.38c0,.62.14.76.4.76.73,0,.79,0,.86-.93,0-.27,0-1.61,0-1.92L179,152c-.16,3.64-.26,4.8-2.07,4.8h-3.07c-1,0-2-.65-2-2.33v-4.87h-5.93a9.79,9.79,0,0,1-4.06,7.79h2.84v1.41h13.91v2.95H167.3c1.55,1.27,3.72,3,11.73,5L177.55,170a31.66,31.66,0,0,1-12.92-6.9v7.72h-3.2v-7.76c-3.92,4.05-9.36,6-12.79,6.94l-1.35-3.26a28.26,28.26,0,0,0,11.6-5H147.62v-2.95h13.81v-1.17ZM167,143.32a13.1,13.1,0,0,1-2.34,3.13l-2.8-2a12.64,12.64,0,0,0,3.65-5.73l3.33.51c-.19.59-.29.9-.46,1.38h10.19v2.74H172a10.12,10.12,0,0,1,.86,1.75l-3,1.27c-.26-.68-.92-2.26-1.28-3Zm1.09,6.87a25.17,25.17,0,0,1,3.46,3.57l-2.15,2.09a27.29,27.29,0,0,0-3.36-3.6Z"/><path class="cls-2" d="M188.76,151.25a42.58,42.58,0,0,1-3.4,2.89L183,151a23.67,23.67,0,0,0,9.89-12.49l3.42.92a29,29,0,0,1-7.18,11.4h20.3c0,3.47-.1,12.4-1.35,16.93-.86,3.09-3.1,3.19-4.55,3.19h-5l-.66-3.64h5c1.88,0,2.18-1.72,2.44-3.23a57.1,57.1,0,0,0,.66-9.78h-7.65c-.85,9.27-5.43,13.66-12.26,16.65l-2-3.3c7.15-3.12,9.92-6.24,10.75-13.35h-6Zm24.32,2.61a35,35,0,0,1-10.68-14.31l3.43-1c1.71,4.29,5.24,9.61,9.66,12.36Z"/><path class="cls-2" d="M220,144.46h10.9v3H220Zm.82-5.09h9v3.09h-9Zm0,10.06h9v3.13h-9Zm0,5.12h9v3h-9Zm0,5.25h9v9.79h-6.06V171h-3Zm3,2.95v4h3.09v-4Zm27-.68a39.06,39.06,0,0,1-3.59,3.09,17.6,17.6,0,0,0,4,2.64L249.53,171c-4.22-2.4-7.87-6-9-10.85a15.61,15.61,0,0,1-2.34,2.13v4.6c2.6-.21,3.65-.38,4.91-.55v3.23c-2.48.37-7.65,1-11,1.06l-.56-3.47c1,0,1.81,0,3.56-.07V164.3a26.34,26.34,0,0,1-3.69,1.65l-1.35-3a18.75,18.75,0,0,0,6.85-3.3h-6v-2.57h4.69v-1.75h-3.5V153h3.5v-1.51h-4.06V149h4.06v-1.13h3V149h5v-1.13h3V149h4.28v2.44h-4.28V153h3.62v2.37h-3.62v1.75h4.48v2.57h-7.78a21,21,0,0,0,1.81,3.09,23.67,23.67,0,0,0,3.1-2.84Zm-19.31-16.45a23.88,23.88,0,0,0,6.06-2.06h-6.39v-2.88h8.17v-1.92h3.33v1.92h8.34v2.88h-6.33a22.72,22.72,0,0,0,6.33,2.17l-1.35,2.43a20.6,20.6,0,0,1-7-2.43l1.68-2.17H237.8l2,2.17a30.18,30.18,0,0,1-6.92,2.64Zm7.05,5.84V153h5v-1.51Zm0,3.88v1.75h5v-1.75Z"/><path class="cls-2" d="M259.42,154.41a23.19,23.19,0,0,1-2.27,2.85l-1.48-4.39c1.78-2,4.91-7.38,5.7-14.15l3.43.45a30,30,0,0,1-2,8.55v23.17h-3.37Zm18.33-8.86a30.75,30.75,0,0,0-6.46-4.32l2.11-2.89a46.55,46.55,0,0,1,6.62,4.12l-2,3.09h8.54V149h-8.84v6.49h7.62v3.4h-7.62v7.62h9.59v3.33H264.63v-3.33h9.56v-7.62h-7.65v-3.4h7.65V149h-8.74v-3.4Z"/><path class="cls-2" d="M307.58,156.2l15.65-1.72.27,3.4-15.92,1.75v6.8c0,.65.46.65.69.65h9.06a1,1,0,0,0,1.06-.89,44.32,44.32,0,0,0,.23-4.6l3.59.92c-.13,5.19-.29,8.14-3.59,8.14H307.28c-.86,0-3.16,0-3.16-2.54V160l-11.34,1.27-.23-3.43,11.57-1.28v-4.15c-1.91.24-4.06.38-5.94.52l-1.08-3.51c2.53-.1,12-.44,19.51-3.22l1.71,3.22A46.48,46.48,0,0,1,307.58,152Zm-1.22-17.55h3.43v3h12.82v8.21h-3.43v-4.77H297v4.77h-3.46v-8.21h12.85Z"/><path class="cls-2" d="M334.05,150.53c-1.49.9-2.71,1.48-4,2.13l-1.69-3.47a32.85,32.85,0,0,0,14-10.57h3.7a29.79,29.79,0,0,0,14.23,10.47l-1.84,3.5a27.6,27.6,0,0,1-4-2.06v2.58H346v4.63h10.41v3.09H346v5.56h13.35v3.51H329.07v-3.51h13.38v-5.56H332.1v-3.09h10.35v-4.63h-8.4Zm19.24-.79a42.37,42.37,0,0,1-9.09-8.1,37.55,37.55,0,0,1-8.9,8.1Z"/><path class="cls-2" d="M379.8,140.78v27.06h-4V144.49h-5v-3.71Z"/><path class="cls-2" d="M392.88,159.32a31.07,31.07,0,0,0,4.75-11.09h-4.25v-3.29h4.35v-6.25h3.16v6.25h3.66v3.29h-3.66v1.2a18.88,18.88,0,0,0,4.05,6.42L403.26,159a21.15,21.15,0,0,1-2.37-4.29v16.17h-3.16v-15.1c-1.42,5.08-2.74,6.86-3.63,8.1Zm9.79,7.25A22.68,22.68,0,0,0,411,159h-5.67V146.62h7.42v-2h-8.24V141.3h8.24v-2.61h3.1v2.61h8.5v3.36h-8.5v2h7.45V159H417.9a24.58,24.58,0,0,0,7,7.25L423,169.31a23.42,23.42,0,0,1-7.12-8.51v10.09h-3.1v-9.65a24.36,24.36,0,0,1-8.24,8.42Zm5.77-17.24v2.27h4.35v-2.27Zm0,4.7v2.24h4.35V154Zm7.45-4.7v2.27h4.45v-2.27Zm0,4.7v2.24h4.45V154Z"/><path class="cls-2" d="M458.64,140.78v27.06h-4V144.49h-5v-3.71Z"/><path class="cls-2" d="M479.3,161.79c-.33.62-.66,1.17-1.28,2.13l-3.43-1.37a45.11,45.11,0,0,0,3.76-7.25h-6V152h30.91v3.26H482.14c-.27.69-1.09,2.72-1.35,3.27h19.47c-.19,2.64-.65,8-1.71,10a4.09,4.09,0,0,1-3.82,2.37h-5.8l-.76-3.61h5.93c1.19,0,2.08-.62,2.44-5.53Zm21.2-22v9.78H475.31v-9.78Zm-21.89,3.12v3.57H497.2v-3.57Z"/><path class="cls-2" d="M507.65,159.32a31.07,31.07,0,0,0,4.75-11.09h-4.26v-3.29h4.35v-6.25h3.17v6.25h3.66v3.29h-3.66v1.2a18.73,18.73,0,0,0,4.05,6.42L518,159a21.15,21.15,0,0,1-2.37-4.29v16.17h-3.17v-15.1c-1.41,5.08-2.73,6.86-3.62,8.1Zm9.79,7.25a22.78,22.78,0,0,0,8.37-7.56h-5.67V146.62h7.42v-2h-8.24V141.3h8.24v-2.61h3.09v2.61h8.51v3.36h-8.51v2h7.45V159h-5.43a24.58,24.58,0,0,0,7,7.25l-1.92,3.05a23.62,23.62,0,0,1-7.12-8.51v10.09h-3.09v-9.65a24.36,24.36,0,0,1-8.24,8.42Zm5.77-17.24v2.27h4.35v-2.27Zm0,4.7v2.24h4.35V154Zm7.44-4.7v2.27h4.45v-2.27Zm0,4.7v2.24h4.45V154Z"/></g></svg>