<svg xmlns="http://www.w3.org/2000/svg" width="650" height="295" viewBox="0 0 650 295"><defs><style>.cls-1{fill:#00ae22;}.cls-2{fill:#fff;}</style></defs><title>joho_matome</title><g id="レイヤー_3" data-name="レイヤー 3"><path class="cls-1" d="M69.15,88.27v13.21c0,6-3.51,6.48-7.38,6.48-7,0-8.2-1.23-8.2-7.79v-.84h4.29c0,.42,0,2.32,0,2.72.07,1.58,1,1.86,3.13,1.86,2.78,0,3.89,0,3.89-2.5V88.27Z"/><path class="cls-1" d="M85.74,88.27c2.17,0,5.09.57,5.09,5.42,0,1.48-.07,4.06-2.66,5,1.67.42,2.38,1.65,2.38,3.53V104a14,14,0,0,0,.44,3.78H86.63a14.24,14.24,0,0,1-.3-3v-1.83c0-2.2-1.16-2.22-2.31-2.22H78.51v7H74.29V88.27Zm-7.23,4.06v4.45h6.12c1.3,0,2-.44,2-2.45,0-1.6-.8-2-2-2Z"/><path class="cls-1" d="M98.52,107.24a15.07,15.07,0,0,1-1.11,3L94,107.32c.51-1.11,1.67-3.51,1.67-9.1V88h8.27V86.49h4V88h8.7v3.61h-6.34v1.06h5.56V100h-4.88v1.71a15.59,15.59,0,0,0,4-1.36l1.58,3.16a27.74,27.74,0,0,1-5.61,1.54V106c0,.49.24.52.54.52h1.3c.45,0,.78-.08.75-2l3.28.65c-.1,2.72-.31,4.92-2.8,4.92h-4.53a2.07,2.07,0,0,1-2.14-2.25V100h-3.49v1.14h2.87v3.19h-2.87v1.76l2.87-.32v3.33c-2.49.43-6.21.8-8.17.92Zm1.72-7.22h-.83a34.72,34.72,0,0,1-.71,6.38l1.54-.05Zm-.83-8.43v1.06h2V91.59Zm0,4.1V97h2V95.69Zm5.42-4.1v1.06h2V91.59Zm0,4.1V97h2V95.69Zm5.42,0V97h1.91V95.69Z"/><path class="cls-1" d="M129.53,100.34c-.61,6.43-3.58,8.66-8.51,9.92l-1.6-4.13c4.52-.89,5.84-2.2,6.27-6.13Zm-8.69-.17V86.57h4v13.6Zm5.84-12.94H141V99.48H126.68Zm3.91,3.39v1.14h6.57V90.62Zm0,4.26v1.21h6.57V94.88Zm5,5.27v5.26c0,.6.33.6.68.6h1.37c.33,0,.56-.27.61-.65a24.81,24.81,0,0,0,.21-2.81l3.68.86c-.24,4.38-.38,6.53-2.85,6.53h-5.44a2,2,0,0,1-2.19-2.08v-7.71Z"/><path class="cls-1" d="M150.81,105.91v-2.65h-4.05V88.05h6.93a9,9,0,0,0,.4-1.51h4.61a11.73,11.73,0,0,1-.61,1.51h7.26v8.24H150.62v.79h16.94v2.67H150.62v.79H167a46.94,46.94,0,0,1-.64,7.37c-.58,2.23-2.16,2.23-3.53,2.23h-2.5l-.44-1.76v.7H149.3v.76h-3.86v-5.93h3.86v2Zm-.19-15.48v.89h10.84v-.89Zm0,2.79v.89h10.84v-.89Zm5.59,12.69v-2h3.7v2.54h1.81c.82,0,1.18,0,1.27-3.19h-8.41v2.65Z"/><path class="cls-1" d="M175.93,104.05a22.53,22.53,0,0,1-3.34,3.17l-2.26-4.16a22.6,22.6,0,0,0,7.94-9.22h-7.52v-4h9.17V86.52h3.93v3.36h9.24v4h-7.66a22.46,22.46,0,0,0,8.08,9.2l-2.31,4.18a18.87,18.87,0,0,1-3.44-3.14v2.2h-4v3.93h-3.84v-3.93h-4Zm4-1.58V98.09a22.71,22.71,0,0,1-2.71,4.38Zm6.54,0a27.42,27.42,0,0,1-2.7-4.38v4.38Z"/><path class="cls-1" d="M198.89,101.38a37.17,37.17,0,0,1-.8,7.7l-2.31-2c.49-1.75.52-2,.73-5.93Zm6.36-1.36-2.1.74a9.73,9.73,0,0,0-.11-1,5.28,5.28,0,0,0-.66.1v10.24h-2.95v-9.82c-2,.25-2.43.27-3.06.3L196.09,97l1.31,0c.33-.44.71-1,1-1.36a22.1,22.1,0,0,0-2.57-2.82l1.46-3.64c.12.13.29.25.45.42a19.6,19.6,0,0,0,1.27-3l3.18.74a36.77,36.77,0,0,1-2.35,4.53c.19.2.4.47.56.67a33.56,33.56,0,0,0,2-3.46l2.94,1.28a48,48,0,0,1-3.13,4.85l2.14-.72a22.13,22.13,0,0,1,1.11,3.12V88.25h4a10.54,10.54,0,0,0,.47-1.71l4.13.23c-.21.59-.38,1.06-.55,1.48H218v9.92h-4.62a12.12,12.12,0,0,0,1,2.25,11.63,11.63,0,0,0,1.7-2.15l2.8,2.32a21.43,21.43,0,0,1-2.63,2.5,13.5,13.5,0,0,0,2.73,2.55l-1.86,3.88a12.07,12.07,0,0,1-3.73-5.12v3.41c0,1.44-.25,2.28-1.9,2.28h-3.37l-.47-3a8.14,8.14,0,0,1-2.1,2.57l-2-2.59a1.3,1.3,0,0,0,.21-.18l-.58.15a54,54,0,0,0-.29-5.69l2.24-.39c.12,1,.31,2.54.38,4a9.61,9.61,0,0,0,1.18-2.45h-1.37Zm-4.36-3.29,1.53-.1c-.07-.22-.35-1.18-.4-1.38C201.32,96.19,201.08,96.49,200.89,96.73Zm9,2.4v-1h-4.26c.14.54.19.71.24,1Zm-.73,7.1c.59,0,.73-.17.73-.74v-5.24a18.11,18.11,0,0,1-1.76,6ZM209,91.07v1.09h5.21V91.07Zm0,3.29v1.16h5.21V94.36Z"/><path class="cls-1" d="M241.71,84.1h-7.25v26.37h-5.39v-32h12.64Z"/><path class="cls-1" d="M256.32,101.22a20.33,20.33,0,0,1-1.73-2.6V111h-5.35V100.54a23.85,23.85,0,0,1-2.48,2l-1.57-6.81a16,16,0,0,0,6.36-7.43h-5.71V83h3.4V78.42h5.35V83H257V79.1h20v4.83H257v4.42a29.79,29.79,0,0,1-1.83,4.28A30.31,30.31,0,0,0,257.5,95v-.45h18.63V111h-5v-1.2h-8.68V111h-5V98ZM275.38,85v8.53h-17.1V85ZM262.49,98.31v1.89h2.32V98.31Zm0,5.17v1.92h2.32v-1.92Zm.68-15V90h7.31v-1.5Zm5.68,9.82v1.89h2.32V98.31Zm0,5.17v1.92h2.32v-1.92Z"/><path class="cls-1" d="M282.52,80h28.27v5.71H299.66v18.12h12.43v5.68H281.22v-5.68h12.59V85.71H282.52Z"/><path class="cls-1" d="M316,105.09c7.05-2.6,10.61-6.16,12.3-13.42H316.46V86h12.4v-7.5h5.61V86h12.86v5.72H335.19c2.25,7.71,5.94,11,12.8,13.63L345,111a21.55,21.55,0,0,1-13-13.42,23.87,23.87,0,0,1-13.22,13.35Z"/><path class="cls-1" d="M351.63,81.84h6.92c-.16-.41-.88-2.08-1.2-2.63l6-.93a25,25,0,0,1,1.44,3.56h5.06a20.49,20.49,0,0,0,1.07-3.52l6.14.68c-.36,1.06-.91,2.4-1.11,2.84h6.69v5h-31ZM353,88.52h13.88v19.72c0,2-1.24,2.85-2.39,2.85h-4.7l-.75-5.24h2.25c.56,0,.56-.45.56-.72v-1.58h-3.62v7.54H353ZM358.23,93v1.41h3.62V93Zm0,5.14v1.54h3.62V98.11Zm10.34-9.21h5.23V104h-5.23ZM376,88h5.32v19.45c0,3.22-1.08,3.6-4,3.6h-5.88l-.91-5.45h4.83c.49,0,.62-.14.62-.75Z"/><path class="cls-1" d="M399.47,111.05H386.84V105.4h7.25V79h5.38Z"/><path class="cls-1" d="M413.57,100.54a31.94,31.94,0,0,1-1.05,9.52l-2.35-2c.56-1.74.95-3.25,1.08-7.63Zm7.11-.41a22.5,22.5,0,0,1,.62,4c.1-1,.17-4.25.2-5h-9.69V79.34h13.77v4.28h-3.46v1.44H425v3.32h-2.91v1.51H425v3.6h-2.91V95.1h3.46c-.07.75-.13,4.51-.16,5.37,0,.55-.13,2.88-.43,5.27a28.85,28.85,0,0,0,1.93-10.06V79.34h14.33V96h-3.14a19.79,19.79,0,0,0,4.25,9.62l-3.2,5.72c-2.55-2.81-4.74-6.3-5.84-15.34h-1.54v.65c0,9-2.12,12.71-3.33,14.69l-3.78-3.53c-.56,2.09-1.6,3.33-4.67,3.33h-2.45l-1.08-4.35h3.1c1.37,0,1.44-.28,1.64-1.92l-1.37.31c-.07-1.06-.27-3.32-.49-4.76Zm-4.57.41c.1,2,.14,2.91.14,3.66s0,2.13-.1,3.29l-2.12.24a51,51,0,0,0,.39-5.51,11.06,11.06,0,0,0-.1-1.61Zm.33-16.92v1.44h1.8V83.62Zm0,4.76v1.51h1.8V88.38Zm0,5.11V95.1h1.8V93.49Zm2.12,6.91a33.44,33.44,0,0,1,.43,5.24l-2,.28a21.26,21.26,0,0,0,.13-2.33,18.78,18.78,0,0,0-.23-3Zm13.38-15.58v6h4.21v-6Z"/><path class="cls-1" d="M445.58,83.49a14.09,14.09,0,0,0,4.83-5.31l5.06,1.54a29.61,29.61,0,0,1-7.77,9.59Zm8,24.21V111h-5.16V99.61c-.59.55-.91.83-1.5,1.34l-1.34-7.19a26.28,26.28,0,0,0,6.53-7.6l4,2.64h7.64V86.43h-7.21v-5.2h7.21V78.39h5.29v2.84h7.21v5.2h-7.21V88.8h8V94h-8v2.33h6.76v5.2h-6.76V105c.65,0,1.79.1,3.52.1,2.09,0,3.5-.07,4.87-.14l-1.08,5.41c-10.31.11-13.12-.17-16.55-4.21a17.56,17.56,0,0,1-3.23,5.21Zm8.45-12a39.82,39.82,0,0,1-.65,5,7.55,7.55,0,0,0,2.38,2.6V94h-7.93V90.16a25.72,25.72,0,0,1-2.25,3.6V106.5c1.21-1.37,3.13-4.08,3.62-11.2Z"/><path class="cls-1" d="M482.42,105.61c2.09,0,10.8-.07,15.41-2.43a3.21,3.21,0,0,1-1,.13h-6.27l-.85-4.62a20.81,20.81,0,0,1-5.16,4.11l-3.42-4.52A21.14,21.14,0,0,0,488,92.84h-6.53V87.67h4.41V80h5.35v7.71h3.3V78.56h5.32v2.15H510v5H499.85v1.92h12.5v5.17h-6.1a31.19,31.19,0,0,0,6.69,5.61l-3.43,4.45a33.6,33.6,0,0,1-7.9-7.67l3.46-2.39h-5.22V100a3.23,3.23,0,0,1-.78,2.39,15.23,15.23,0,0,0,4.11-4.14l3.85,3.77c-2.42,3.22-7.25,8.8-22.85,9.21Zm10.22-10.38a15.16,15.16,0,0,1-2.55,3.08h3.46c1,0,1-.92,1-1.23V92.84H489Z"/><path class="cls-1" d="M533.2,80.78v27h-5.91V86.4H522V80.78Z"/><path class="cls-1" d="M554.57,80.78v27h-5.91V86.4h-5.28V80.78Z"/><path class="cls-1" d="M567.56,93.21c-.79.72-1.28,1.13-2,1.75L562,89.69a21.27,21.27,0,0,0,9-11.41l5.35,1.06a31.91,31.91,0,0,1-5.52,10.31h14.53A42,42,0,0,1,580,79.52l5.35-1.31c1.73,4.08,4.31,8.6,9,11.82L590.66,95c-.68-.52-1.2-.93-1.79-1.47-.23,5.82-.46,12.15-1.54,14.79a3.83,3.83,0,0,1-4.14,2.81h-6.1L576,105.4h4.83a1.62,1.62,0,0,0,1.47-.79c.26-.54.78-3.63,1-9.51h-5.55c-1,8.59-5.48,13-12.18,16.09l-3.16-5.45c8.55-3,9.56-7.8,9.79-10.64h-4.63Z"/><rect class="cls-1" x="56.71" y="129.29" width="536.57" height="53.21" rx="23.62"/><path class="cls-1" d="M185.11,52.61a29.25,29.25,0,0,1-3.09,6l-1.62-4.94a26.84,26.84,0,0,0,4.45-7.52h-3.92V42.17h4.18V31.46h3.73V42.17H192v3.95h-3a20.36,20.36,0,0,0,4,5.05L191.31,55a22.31,22.31,0,0,1-2.47-3.78V63.87h-3.73Zm-1.77-19.5a43,43,0,0,1,1,7.14l-2.8.65a29.37,29.37,0,0,0-1-7Zm9.09,0h5.21V31.46h3.23v1.65h2V31.46h3.23v1.65h6v3.36h-6v1.65h5V49.59H192.76V38.19h4.88V36.47h-5c0,.24-.2,1.65-.73,4.12l-2.57-.69a39.78,39.78,0,0,0,.86-6.76l2.27.38Zm18.13,18.06v12.7h-3.82v-1.2h-9.56v1.2h-3.86V51.17ZM195.93,40.76v1.86h2V40.76Zm0,4.29v1.86h2V45.05ZM197.18,54v1.58h9.56V54Zm0,4v1.72h9.56V58Zm3.69-21.49v1.72h2V36.47Zm0,4.29v1.86h2V40.76Zm0,4.29v1.86h2V45.05Zm5-4.29v1.86h2V40.76Zm0,4.29v1.86h2V45.05Z"/><path class="cls-1" d="M233.34,51.71c-1.22.07-7.16.28-8.51.31l-.39-3.6h2.44a15.92,15.92,0,0,0,1.38-2.78h-4.52V47c0,9.55-1.41,13.18-3.36,16.69l-3.59-3c1.85-3.23,2.8-6.35,2.8-13.73V32.52h27.23v8.17H223.74v1.65h24.53v3.3h-5A49,49,0,0,1,247.51,51l-3.43,2.27c-.46-.76-.49-.83-1.35-2.13-1.65.2-4.12.37-5.34.44v2.37H247V57h-9.59v2.67h10.88v3.37H223.55V59.71h9.79V57H225V53.91h8.38Zm9.36-16.06h-19v2.06h19Zm-2.48,10h-7.41c-.26.44-1.32,2.4-1.58,2.78,4.31,0,6.36,0,9.23-.28a21.53,21.53,0,0,0-1.65-1.71Z"/><path class="cls-1" d="M258.52,38.57c.06-1.58,0-2.24,0-2.65h-4.22V32.39h15.33v6.18h2.11v3.6h-2.11v6.08h-9.13c-.17.41-.43,1.13-1,2.3h10.12v12H259.57v1.31h-3.75v-8c-.6.62-.63.69-1.06,1.14L253,53a14.18,14.18,0,0,0,3.53-4.7h-2.21V44.78h3.36c.1-.41.23-1,.5-2.61h-4.75v-3.6Zm1.05,15.62v4.6h6.27v-4.6Zm6.27-9.41V42.17h-4c-.23,1.61-.33,2.2-.43,2.61Zm0-6.21V35.92h-3.53c0,.45,0,1-.1,2.65Zm10.38-2.41V63.73H272.3V32.39h11.76v3.88a49.69,49.69,0,0,1-3.29,8.24c1.74,2.26,3.82,4.94,3.82,10.05,0,6.12-3.23,6.12-5.8,6.12h-1.52l-.66-4.19h1.52c.92,0,2.21,0,2.21-3.09a10,10,0,0,0-4-8.21,43.38,43.38,0,0,0,3.59-9Z"/><path class="cls-1" d="M289,57.76a27.35,27.35,0,0,0,6.2-5.56H290V48.45h6.36V45.77H289.8V42h3.36a26.93,26.93,0,0,0-.86-4.29h-1.88V34h5.9V31.42h3.79V34h5.48v3.74H304c-.5,2.3-.6,2.75-1,4.29h2.91v3.74h-5.87v2.68h5.34V52.2H301a16.71,16.71,0,0,0,3.89,3.7L303,59.58A18.06,18.06,0,0,1,300.05,56V63.9h-3.73V56.11a22.79,22.79,0,0,1-5.4,5.73Zm6.79-20a37.48,37.48,0,0,1,.89,4.29h2.8a31,31,0,0,0,.86-4.29Zm24.78-2.47a26.51,26.51,0,0,1-9.78,2.33v4.5h9.78v4h-2.9V63.9h-4V46.15h-2.86v1.14c0,10.36-2.74,14.42-4.22,16.61L303,61.29c2.24-3,4-6.38,4-13.94V33.76a26.9,26.9,0,0,0,11.73-2.44Z"/><path class="cls-1" d="M352.32,42.31V37.67H330.67v4.64h-4.09V33.93H339.3V31.42h4.22v2.51h12.86v8.38Zm-.89-2.58v9.58h-8c-.1.34-.53,2-.63,2.34h11.8V63.87h-4.12V62.15H332.42v1.68H328.3V51.65h10.28a18.64,18.64,0,0,0,.63-2.34h-7.75V39.73ZM332.42,55v3.67h18.09V55Zm2.83-11.91V46h12.33V43.1Z"/><path class="cls-1" d="M363,32.69h16.51V59.44H366.83v2.78H363Zm3.79,4v7.21h2.77V36.68Zm0,11v7.83h2.77V47.63Zm6.19-11v7.21H376V36.68Zm0,11v7.83H376V47.63Zm13.32-8.48h-6.23v-4.4h13.22v4.4h-2.87V60.92a2.62,2.62,0,0,1-2.8,2.88h-6.83l-.69-4.33h5.28c.92,0,.92-.61.92-1Z"/><path class="cls-1" d="M407.37,59.92a22.94,22.94,0,0,0,7.88-3.23,21,21,0,0,1-4.12-5.94c-.79.79-1.42,1.34-2.48,2.23l-2.44-3.6a20.72,20.72,0,0,0,8.21-11.19h-7l2.34.58a29.66,29.66,0,0,1-3.62,7.07v18.1h-4.06v-13a25.43,25.43,0,0,1-2.1,2l-2.11-4.16a25.1,25.1,0,0,0,7.51-10.57h-6.82V34.27H412V31.42h4.29v2.85h13.15v3.92H415.54l3,.68a18.09,18.09,0,0,1-.86,2.58H427.9v3.47a24.49,24.49,0,0,1-6.33,11.81,22.07,22.07,0,0,0,7.95,3l-1.85,4.19a29.36,29.36,0,0,1-9.23-4.47,27.87,27.87,0,0,1-9.26,4.47Zm10.51-14a25.89,25.89,0,0,1,4.19,3.37,19.53,19.53,0,0,0,1.55-4.16h-7.95a23,23,0,0,1-2,2.72,21.11,21.11,0,0,0,4.64,6.42,20.12,20.12,0,0,0,1.78-1.93,37.09,37.09,0,0,0-4.48-3.84Z"/><path class="cls-1" d="M436.31,34.48a37.08,37.08,0,0,0,12-2.88l1.64,4a39.74,39.74,0,0,1-9.55,2.47v7.45h8.27v3.92H440.4v7.93h19.67V49.45H451.7V45.53h8.37V38H451.5V33.86h12.69V63.49h-4.12v-2H440.4v2h-4.09Z"/><path d="M284.67,208.3h1.44v17.77h3.95v1.12h-3.95v4.06c0,1.54.77,2.14,2.45,2.14h.56v1.12h-8.89v-1.12h.56c1.64,0,2.45-.56,2.45-2.14v-4.06h-9.41V226Zm-1.43,4.62-8.08,13.15h8.08Z"/><path d="M304,210.12h-1.22a2.25,2.25,0,0,0-2.49,2.41V231a2.25,2.25,0,0,0,2.49,2.42h.94a10.58,10.58,0,0,0,9.48-5.78l.91.46-2.48,6.44H293.77v-1.12H295a2.27,2.27,0,0,0,2.52-2.42V212.53a2.26,2.26,0,0,0-2.52-2.41h-1.19V209H304Z"/><path d="M318.33,209h10.05c8.18,0,13.26,4.2,13.26,12.6,0,6-3.15,12.95-12.95,12.95H318.33v-1.12h1.19A2.26,2.26,0,0,0,322,231V212.53a2.26,2.26,0,0,0-2.52-2.41h-1.19Zm6.48,22a2.25,2.25,0,0,0,2.48,2.42H329c6.33,0,9.52-5.67,9.52-12.11,0-4.44-1.82-11.16-9.38-11.16h-1.82a2.24,2.24,0,0,0-2.48,2.41Z"/><path d="M358.64,218.76l7.77,12.42a4.93,4.93,0,0,0,4.13,2.21H371v1.12h-9.9v-1.12H362a1.28,1.28,0,0,0,1.4-1.16,2.84,2.84,0,0,0-.49-1.43l-6.2-9.9-3.32,3.6V231a2.28,2.28,0,0,0,2.52,2.42h1v1.12h-9.73v-1.12h1A2.25,2.25,0,0,0,350.6,231V212.53a2.25,2.25,0,0,0-2.49-2.41h-1V209h9.73v1.16h-1a2.27,2.27,0,0,0-2.52,2.41v10.32l9.55-10.42a1.75,1.75,0,0,0,.46-1.12c0-1-1.09-1.19-1.86-1.19h-.91V209h9.87v1.16h-.63a6.85,6.85,0,0,0-5.6,2.52Z"/><path d="M144,258.72l.85-1.12c.12-.16.19-.25.31-.25s.14,0,.39.23l1.39,1.1a.43.43,0,0,1,.21.33c0,.19-.19.21-.33.21h-6.91c0,.68,0,3.67,0,4.27,0,.21,0,4.52,0,5.12h5.5l1-1.12c.15-.16.21-.24.32-.24s.18.06.39.22l1.37,1.1c.1.09.21.19.21.31s-.19.23-.32.23H132.83a14.51,14.51,0,0,0-2.45.19l-.41-.83c1.39.12,2.8.14,3.19.14h5.29c0-.18,0-4.58,0-5.06v-4.33h-4.38a14.35,14.35,0,0,0-2.44.19l-.42-.81c1.39.1,2.8.12,3.2.12h4c0-4.7,0-5.24-.52-6.76l2.51.67c.21.06.33.1.33.29a.38.38,0,0,1-.18.31c-.09.08-.48.39-.61.47,0,1.68,0,3.34,0,5Z"/><path d="M160.39,258.85H158v6.67c1.68-.49,2.15-.68,2.63-.85l.08.17a21.73,21.73,0,0,1-3,1.76l-2.55,1.29c-.19.43-.27.66-.52.66a.43.43,0,0,1-.33-.25l-1.08-1.84c.7,0,1.06.08,3.4-.56,0-.71,0-3.86,0-4.5v-2.55h-.42a14.49,14.49,0,0,0-2.44.18l-.4-.83c1.23.11,2.47.15,3.26.15,0-1,0-2.07,0-3.11a11.47,11.47,0,0,0-.27-3.07l2.09.71c.11,0,.29.12.29.31s-.41.56-.7.74c0,1.45,0,2.16-.06,4.42h.49l.63-.68c.18-.21.25-.27.35-.27s.25.14.35.22l.73.69c.1.1.18.18.18.31S160.52,258.85,160.39,258.85Zm9.27,10.61c-.48.09-4.15.09-4.73.09-3.4,0-4-.17-4-2.43,0-.81.06-4.37.06-5.1,0-.21,0-1.14,0-1.33a11.45,11.45,0,0,0-2,1.1l-.7-.58a28.36,28.36,0,0,0,2.71-1.08v-3.67a10.28,10.28,0,0,0-.23-2.4l1.93.66c.15,0,.31.13.31.29s-.16.33-.66.68c0,.63,0,3.32,0,3.86l2.26-1c0-2.08,0-3.55,0-5a14.16,14.16,0,0,0-.25-1.83l2,.67c.21.06.35.16.35.31s-.29.43-.72.77c0,1.86,0,2.13,0,4.5l2-.9.49-.83c.11-.16.21-.35.36-.35a.76.76,0,0,1,.39.17l1,.6a.43.43,0,0,1,.2.33c0,.25-.23.46-.52.73,0,6.22,0,7.65-2.46,8.29a2.64,2.64,0,0,0-1.25-1.74v-.1a4.76,4.76,0,0,0,.65,0c1.45,0,1.68-.19,1.68-4.56,0-1.41,0-1.64-.05-2.24l-2.46,1.12c0,3,0,5,.06,5.59,0,.27.06,1.5.06,1.75a1,1,0,0,1-1.06,1c-.29,0-.49-.1-.49-.54,0-.22.06-1.28.06-1.49,0-1.33,0-2.11.06-5.76l-2.26,1c0,.83,0,7.2,0,7.45a.69.69,0,0,0,.5.58c.27.08,3.23.08,3.63.08,2.13,0,2.78,0,3.21-.77a17.7,17.7,0,0,0,.91-2.51h.15a7.32,7.32,0,0,0,.39,2.47c.13.21.48.4.48.6S171.22,269.19,169.66,269.46Z"/><path d="M183.43,256.81a21.66,21.66,0,0,0,1.23-3.46h-5.42a13.88,13.88,0,0,0-2.44.19l-.42-.83c1.06.08,2.12.14,3.2.14h12.36l.91-.89a1.23,1.23,0,0,1,.39-.31c.11,0,.19.06.4.23l1.16.93c.08.07.2.19.2.31s-.2.23-.33.23h-8.06a36.1,36.1,0,0,1-2.68,3.46h7.55l.58-.6c.21-.2.27-.27.39-.27s.27.13.38.21l.95.81a.38.38,0,0,1,.17.27c0,.19-.09.25-.83.66,0,2.35,0,5.31,0,7.66,0,1,.1,2.5.1,3.46a.92.92,0,0,1-1,1c-.63,0-.63-.33-.58-1.51h-11.8c0,.08,0,.56,0,.66a1,1,0,0,1-1,1c-.66,0-.66-.46-.66-.65s.06-1.09.06-1.26c0-2.26.14-7,.14-9a14.47,14.47,0,0,0-.29-3.4l2.14,1Zm-3.58.5V268h2.75V257.31Zm7.32,3.15v-3.15H184v3.15Zm0,3.63V261H184v3.13Zm0,3.88v-3.38H184V268Zm4.48,0V257.31h-3.07V268Z"/><path d="M198.82,265.67a26.65,26.65,0,0,0,3.86-7.94h-.48a15.47,15.47,0,0,0-2.44.18l-.4-.83c1.18.11,2.39.15,3.47.15,0-1-.05-2.47-.05-3.36a19.71,19.71,0,0,1-3.38.37v-.16a34.87,34.87,0,0,0,5.6-2.32,1.49,1.49,0,0,0,.44-.5l1.43,1.2a.37.37,0,0,1,.14.29c0,.21-.2.21-.39.21l-.6,0a18,18,0,0,1-1.93.62c0,.95,0,2.86,0,3.67h.39l.5-.75c.09-.12.19-.27.31-.27s.29.15.4.23l.89.75a.44.44,0,0,1,.21.33c0,.21-.21.21-.31.21h-2.39c0,.39,0,1.32,0,1.82,2,.73,2.72,2,2.72,2.62a.79.79,0,0,1-.77.82c-.5,0-.56-.2-1-1.36a3.78,3.78,0,0,0-1-1.81c0,3.61,0,4,.08,5.6,0,1.41.09,3.05.09,3.8,0,.37,0,1.2-1,1.2-.54,0-.6-.31-.6-.71,0-.68.17-3.73.19-4.35,0-2,0-2.84,0-4.65a13.65,13.65,0,0,1-3.92,5.06Zm6.66,4.38c1.45-.71,3.79-2.08,4.29-3l1.49,1.1a.36.36,0,0,1,.19.31c0,.29-.48.27-1,.27a16.56,16.56,0,0,1-4.94,1.43Zm9.21-16.51.51-.83c.11-.17.21-.29.32-.29s.27.14.39.25l1,.83a.43.43,0,0,1,.2.33c0,.19-.16.21-.31.21h-4.39v1.7h1.66l.49-.75c.09-.12.17-.25.31-.25s.25.13.38.23l.85.72a.48.48,0,0,1,.2.34c0,.18-.18.2-.31.2h-3.58v1.87h3.44l.6-.85c.1-.17.23-.27.33-.27s.25.12.37.25l.9.83a.53.53,0,0,1,.2.33c0,.21-.16.21-.31.21h-8.62a14.53,14.53,0,0,0-2.45.18l-.42-.82c1.06.08,2.14.14,3.2.14H211v-1.87h-.5a13.16,13.16,0,0,0-2.45.21l-.39-.83c.62,0,1.53.13,3.34.13,0-.81,0-1.31,0-1.7h-1.37a14.41,14.41,0,0,0-2.45.18l-.41-.83c1.51.13,2.84.15,3.19.15h1a6,6,0,0,0-.37-2.22l2.12.64a.32.32,0,0,1,.29.31c0,.27-.48.5-.58.54v.73Zm-.48,6.49.48-.52c.08-.08.2-.21.29-.21s.25.13.33.19l.81.68a.56.56,0,0,1,.23.38c0,.21-.25.37-.61.54a7.23,7.23,0,0,0,0,.76c0,.71.17,3.8.17,4.42a.85.85,0,0,1-.95,1c-.54,0-.54-.27-.52-.71h-4.94c0,.48.06,1-.93,1-.35,0-.54-.1-.54-.47,0,0,0-.21,0-.5,0-.77,0-3,0-3.92a13.3,13.3,0,0,0-.23-3.28l1.64.73Zm-4.73.5V262h4.94v-1.47Zm0,2V264h4.94V262.5Zm0,2V266h4.94v-1.53Zm3.49,2.82c1.86.16,4.49,1.1,4.49,2.34a.83.83,0,0,1-.82.81c-.48,0-1-.52-1.31-.91a10.69,10.69,0,0,0-2.36-2.1Z"/><path d="M224.87,256.79a1.21,1.21,0,1,1-2.41,0,1.21,1.21,0,0,1,2.41,0Zm0,8.17a1.21,1.21,0,1,1-1.2-1.2A1.21,1.21,0,0,1,224.87,265Z"/><path d="M229.83,268.1H231c1.08,0,1.45-.42,1.45-1.27V255.61c0-.64-.6-.74-1-.74h-1.57v-.65h.37a7.9,7.9,0,0,0,3.38-.87c.15-.08.21-.12.29-.12s.23.12.23.29v13.31c0,.89.44,1.27,1.45,1.27h1.14v.66h-6.88Z"/><path d="M242.69,268.1h1.14c1.08,0,1.45-.42,1.45-1.27V255.61c0-.64-.6-.74-1-.74h-1.57v-.65h.37a7.9,7.9,0,0,0,3.38-.87c.15-.08.21-.12.29-.12s.23.12.23.29v13.31c0,.89.43,1.27,1.45,1.27h1.14v.66h-6.88Z"/><path d="M263.67,264.59a4.61,4.61,0,0,1-4.89,4.56c-2.36,0-4.48-1.37-4.48-3.73s1.78-3.3,3.69-4.42c-1.1-.64-3.09-1.8-3.09-4.06,0-2.05,1.62-3.71,4.15-3.71a3.47,3.47,0,0,1,3.79,3.27c0,1.77-1.7,3.05-2.59,3.72C262.2,261.42,263.67,262.46,263.67,264.59Zm-7.63.77a3,3,0,0,0,3,3.09,3.23,3.23,0,0,0,3.15-3.13c0-2-2.05-3.13-3.57-4C257.68,262,256,263.31,256,265.36Zm5.29-8.63a2.62,2.62,0,0,0-2.57-2.8,2.4,2.4,0,0,0-2.45,2.47c0,1.45,1.18,2.18,3.34,3.46A3.93,3.93,0,0,0,261.33,256.73Z"/><path d="M269.79,268a1.2,1.2,0,1,1-1.2-1.2A1.22,1.22,0,0,1,269.79,268Z"/><path d="M274.73,268.1h1.14c1.08,0,1.45-.42,1.45-1.27V255.61c0-.64-.6-.74-1-.74h-1.57v-.65h.37a7.9,7.9,0,0,0,3.38-.87c.15-.08.21-.12.29-.12s.23.12.23.29v13.31c0,.89.44,1.27,1.45,1.27h1.14v.66h-6.88Z"/><path d="M291,269.15a4.19,4.19,0,0,1-3.4-2.24,12.91,12.91,0,0,1-1.27-5.91c0-4.41,1.89-7.77,4.67-7.77,2.13,0,4.66,2.3,4.66,8C295.69,266.27,293.56,269.15,291,269.15Zm-2.32-12.46a18.79,18.79,0,0,0-.48,4.5c0,4.62,1.1,7.26,2.8,7.26,1.43,0,2.07-1.91,2.3-2.7a19.21,19.21,0,0,0,.5-4.56c0-4.73-1.14-7.26-2.8-7.26C289.56,253.93,288.91,256,288.71,256.69Z"/><path d="M302.6,258.56v1.63a4.71,4.71,0,0,1,3.42-1.63,2.29,2.29,0,0,1,2.49,1.86,5.2,5.2,0,0,1,3.71-1.86c1.83,0,2.66,1.1,2.66,3.4v4.89c0,.79.41,1.25,1,1.25h.38v.66H312v-.66h.4c.72,0,1-.56,1-1.25v-4.77c0-.58-.08-2.63-1.8-2.63a3.89,3.89,0,0,0-2.94,1.8,5.05,5.05,0,0,1,0,.71v4.89c0,.87.47,1.25,1,1.25h.61v.66h-4.77v-.66h.6c.58,0,1.06-.4,1.06-1.25v-4.77c0-.43-.07-2.63-1.81-2.63a3.69,3.69,0,0,0-2.8,1.64v5.76c0,.87.48,1.25,1,1.25H304v.66H299.7v-.66h.37c.62,0,1-.44,1-1.25v-6.24a.85.85,0,0,0-.85-1,1.83,1.83,0,0,0-.62.08l-.11-.4Zm10.72-1.23a11.76,11.76,0,0,1,1.21-1.32c.43-.48,1.18-1.29,1.18-2,0-.27-.17-.77-.65-.77a.68.68,0,0,0-.7.56c0,.08.19.45.19.54a.57.57,0,0,1-.58.54.65.65,0,0,1-.63-.71,1.76,1.76,0,0,1,1.83-1.49,1.4,1.4,0,0,1,1.51,1.41,1.66,1.66,0,0,1-.64,1.35c-.23.22-1.51,1.26-1.72,1.55h1.28a.84.84,0,0,0,.81-.7l.33.1-.43,1.43h-3Z"/><path d="M361.4,269.67c-7.53-.1-10.77-.14-13.57-2.86a9.61,9.61,0,0,1-4.23,3.59l-.12-.13a13.21,13.21,0,0,0,3.59-4.31,10,10,0,0,1-1.93-4l.21-.17a9.24,9.24,0,0,0,2.09,3.4,14.27,14.27,0,0,0,1.16-5.64h-1.74c-.42,1.16-.52,1.47-1.2,1.47-.15,0-.75,0-.75-.47a12.11,12.11,0,0,1,.5-1.47c1.08-2.78,1.93-5,2.18-6h-.75a13.49,13.49,0,0,0-2.45.19l-.39-.83c1.05.08,2.11.15,3.17.15h.37l.54-.44c.19-.14.29-.21.4-.21a.8.8,0,0,1,.35.21l.81.69a.44.44,0,0,1,.21.37c0,.25-.42.43-1,.66-.45,1.16-.72,1.87-1.86,5.14h1.41l.56-.43a.75.75,0,0,1,.39-.21.55.55,0,0,1,.39.23l.65.66a.69.69,0,0,1,.24.44c0,.19-.2.31-.64.58a14.1,14.1,0,0,1-1.7,5.7,11.42,11.42,0,0,0,7.22,2.06,46.55,46.55,0,0,0,7.3-.61l0,.17A2.54,2.54,0,0,0,361.4,269.67Zm1.22-12.92h-2.86c.08,2.47.08,2.47.08,2.62,0,.41,0,1.05-1,1.05-.55,0-.53-.33-.51-.68h-2.55v2.16h3.11l.62-.79c.14-.17.23-.27.35-.27s.23.1.4.23l.93.78c.1.11.21.23.21.32s-.15.22-.32.22h-5.3l0,2.2h3.69l.79-.91c.16-.19.24-.27.35-.27s.23.08.37.23l1,.91a.49.49,0,0,1,.2.35c0,.13-.12.19-.31.19H355.8c0,.25,0,1.47,0,1.74a1,1,0,0,1-.92.75c-.66,0-.66-.38-.66-.6s.1-1.58.1-1.89h-1.41a14.61,14.61,0,0,0-2.42.19l-.42-.81c1.62.12,3.16.12,3.2.12h1.07c0-.56,0-1.08.05-2.2h-.63a13.74,13.74,0,0,0-2.42.19l-.42-.81c.63,0,1.79.13,3.49.13v-2.16H354a14.8,14.8,0,0,0-2.44.19l-.42-.81c1.49.1,3.07.12,3.28.12l0-2.49H352.5a13.78,13.78,0,0,0-2.43.19l-.41-.83c1.06.1,2.11.15,3.17.15h1.6l0-2.43h-.5a16.05,16.05,0,0,0-2.45.19l-.39-.83c1.45.12,2.8.14,3.32.14a3.7,3.7,0,0,0-.31-1.93l2,.48c.22.06.35.14.35.33s-.25.38-.58.56v.56h2.4l.52-.45c.15-.13.25-.21.38-.21s.22.1.37.23l.58.56a.62.62,0,0,1,.25.39c0,.17-.17.29-.58.58a11.54,11.54,0,0,0,0,1.83h.74l.61-.77c.12-.17.22-.25.33-.25a.63.63,0,0,1,.39.21l.89.76c.11.11.21.21.21.31S362.83,256.75,362.62,256.75Zm-4.25,0H355.8l0,2.49h2.59Zm0-2.92h-2.53l0,2.43h2.57Z"/><path d="M372.64,262.64c0,2.51,0,2.95,0,4.15,0,.73.08,1.89.08,2.61s-.89,1-1.08,1c-.45,0-.56-.27-.56-.58,0-.09.05-.85.05-1,.08-1.55.08-2.11.12-5.43a21.5,21.5,0,0,1-2.55,1.18c0,.37-.06.73-.39.73s-.36-.23-.42-.36L367,263c1.28.06,1.63,0,4.35-.79,0-1.83,0-3.88,0-5.46h-1.87a16.45,16.45,0,0,1-1.84,4.59l-.13,0a33.26,33.26,0,0,0,.94-7.2,3.7,3.7,0,0,0-.21-1.41l2,.48c.17,0,.35.08.35.31s-.29.41-.62.54a19.08,19.08,0,0,1-.35,2.24h1.72c0-2.93-.1-3.78-.56-4.81l2.28.66c.13,0,.31.14.31.29s-.35.44-.66.6c0,.44,0,2.63,0,3.26h.41l.58-.79c.11-.13.21-.27.31-.27a.65.65,0,0,1,.38.23l.83.79a.47.47,0,0,1,.18.31c0,.18-.18.22-.31.22h-2.38c0,1.33,0,3.65,0,5,.41-.14,2.34-.81,2.71-.95l.07.14A24.78,24.78,0,0,1,372.64,262.64ZM384.87,257c-.16,4.34-.33,8.28-1.64,11a4,4,0,0,1-3.21,2.1c-.14-.94-.48-1.52-1.76-2.45l.06-.15a9,9,0,0,0,2.51.44c.5,0,.83,0,1.41-1.47a32,32,0,0,0,1.16-10h-1.18c-.6,4.69-2.59,10.72-8.59,13l-.06-.14c4.4-3.3,6.26-6.8,7.13-12.84h-1.16c-.85,4.38-3.19,8.15-6.2,9.56l-.06-.12a17.71,17.71,0,0,0,4.75-9.44h-1a13,13,0,0,1-2.8,4.13l-.1-.11a23.11,23.11,0,0,0,2.67-8.46,2.49,2.49,0,0,0-.1-.7l2.07.83c.21.08.32.21.32.33,0,.27-.4.37-.73.46-.54,1.66-.89,2.5-1.1,3h6l.5-.52c.13-.14.23-.22.31-.22a.87.87,0,0,1,.37.18l1,.73c.14.1.23.17.23.29C385.58,256.69,385.1,256.92,384.87,257Z"/><path d="M397.65,256.81a20.62,20.62,0,0,0,1.22-3.46h-5.41a14.05,14.05,0,0,0-2.45.19l-.41-.83c1.06.08,2.11.14,3.19.14h12.36l.91-.89a1.35,1.35,0,0,1,.4-.31c.1,0,.18.06.39.23l1.16.93a.47.47,0,0,1,.21.31c0,.21-.21.23-.33.23h-8.07a36.11,36.11,0,0,1-2.67,3.46h7.54l.59-.6c.2-.2.27-.27.39-.27a.88.88,0,0,1,.37.21l1,.81a.39.39,0,0,1,.16.27c0,.19-.08.25-.83.66,0,2.35,0,5.31,0,7.66,0,1,.11,2.5.11,3.46a.93.93,0,0,1-1,1c-.62,0-.62-.33-.58-1.51h-11.8c0,.08,0,.56,0,.66a1,1,0,0,1-1,1c-.67,0-.67-.46-.67-.65s.06-1.09.06-1.26c.05-2.26.15-7,.15-9a14.47,14.47,0,0,0-.29-3.4l2.14,1Zm-3.59.5V268h2.76V257.31Zm7.32,3.15v-3.15h-3.17v3.15Zm0,3.63V261h-3.17v3.13Zm0,3.88v-3.38h-3.17V268Zm4.48,0V257.31h-3.07V268Z"/><path d="M413,265.67a27.14,27.14,0,0,0,3.86-7.94h-.48a15.58,15.58,0,0,0-2.45.18l-.39-.83c1.18.11,2.38.15,3.46.15,0-1,0-2.47,0-3.36a19.71,19.71,0,0,1-3.38.37v-.16a35.25,35.25,0,0,0,5.6-2.32,1.43,1.43,0,0,0,.43-.5l1.43,1.2a.35.35,0,0,1,.15.29c0,.21-.21.21-.39.21l-.61,0a17.59,17.59,0,0,1-1.92.62c0,.95,0,2.86,0,3.67h.39l.5-.75c.08-.12.18-.27.31-.27s.29.15.39.23l.9.75a.43.43,0,0,1,.2.33c0,.21-.2.21-.31.21h-2.38c0,.39,0,1.32,0,1.82,2,.73,2.71,2,2.71,2.62a.79.79,0,0,1-.76.82c-.5,0-.56-.2-1-1.36a3.86,3.86,0,0,0-1-1.81c0,3.61,0,4,.08,5.6,0,1.41.08,3.05.08,3.8,0,.37,0,1.2-1,1.2-.54,0-.6-.31-.6-.71,0-.68.16-3.73.18-4.35,0-2,0-2.84,0-4.65a13.55,13.55,0,0,1-3.92,5.06Zm6.66,4.38c1.45-.71,3.79-2.08,4.29-3l1.49,1.1a.36.36,0,0,1,.19.31c0,.29-.48.27-1,.27a16.5,16.5,0,0,1-4.93,1.43Zm9.2-16.51.52-.83c.1-.17.21-.29.31-.29s.27.14.4.25l1,.83a.42.42,0,0,1,.21.33c0,.19-.17.21-.31.21h-4.4v1.7h1.66l.5-.75c.08-.12.16-.25.31-.25s.25.13.37.23l.85.72a.46.46,0,0,1,.21.34c0,.18-.19.2-.31.2h-3.59v1.87h3.44l.61-.85c.1-.17.22-.27.33-.27s.25.12.37.25l.89.83a.51.51,0,0,1,.21.33c0,.21-.17.21-.31.21h-8.63a14.49,14.49,0,0,0-2.44.18l-.42-.82c1.06.08,2.14.14,3.19.14h1.35v-1.87h-.5a13,13,0,0,0-2.44.21l-.4-.83c.63,0,1.54.13,3.34.13,0-.81,0-1.31,0-1.7h-1.37a14.37,14.37,0,0,0-2.44.18l-.42-.83c1.51.13,2.84.15,3.19.15h1a6,6,0,0,0-.37-2.22l2.11.64a.31.31,0,0,1,.29.31c0,.27-.47.5-.58.54v.73Zm-.47,6.49.47-.52c.09-.08.21-.21.29-.21s.25.13.33.19l.81.68a.52.52,0,0,1,.23.38c0,.21-.25.37-.6.54a7.23,7.23,0,0,0,0,.76c0,.71.17,3.8.17,4.42a.86.86,0,0,1-1,1c-.54,0-.54-.27-.52-.71H423.7c0,.48.06,1-.94,1-.35,0-.53-.1-.53-.47,0,0,0-.21,0-.5,0-.77,0-3,0-3.92a13.3,13.3,0,0,0-.23-3.28l1.64.73Zm-4.73.5V262h4.93v-1.47Zm0,2V264h4.93V262.5Zm0,2V266h4.93v-1.53Zm3.48,2.82c1.87.16,4.5,1.1,4.5,2.34a.84.84,0,0,1-.83.81c-.48,0-1-.52-1.3-.91a10.57,10.57,0,0,0-2.37-2.1Z"/><path d="M439.09,256.79a1.22,1.22,0,0,1-1.21,1.21,1.21,1.21,0,0,1-1.2-1.21,1.21,1.21,0,0,1,2.41,0Zm0,8.17a1.21,1.21,0,0,1-1.21,1.21,1.21,1.21,0,0,1,0-2.41A1.21,1.21,0,0,1,439.09,265Z"/><path d="M448.4,262.75a3.52,3.52,0,0,1-1.81.53c-2,0-3.71-2.07-3.71-4.6,0-2.86,2.06-5.45,4.44-5.45s4.77,2.69,4.77,7.15c0,4.79-2.7,8.77-5.87,8.77-1.39,0-2.36-.83-2.36-1.8a1,1,0,0,1,1.05-1.08c.42,0,1.1.27,1.14,1.43,0,.46.07.75.63.75a2,2,0,0,0,1.51-.73c1.85-2,1.95-5.1,2-6.94A5.38,5.38,0,0,1,448.4,262.75Zm.68-7.7a2,2,0,0,0-1.68-1.12c-1.1,0-2.65,1.16-2.65,4.56,0,1,.23,3.86,2.36,3.86.79,0,2.12-.58,3.09-2.82A10,10,0,0,0,449.08,255.05Z"/><path d="M463.41,261.71a3.83,3.83,0,0,1,1.41,3.07c0,2.55-2.09,4.37-4.83,4.37-2.24,0-4.13-1.26-4.13-2.92a1.21,1.21,0,0,1,1.19-1.33,1,1,0,0,1,1,1,1.72,1.72,0,0,1-.12.66,1.56,1.56,0,0,0-.06.48c0,.79.89,1.37,1.86,1.37a3.55,3.55,0,0,0,3.22-3.67,3.62,3.62,0,0,0-3.24-3.8c-.12,0-.7.09-.83.09a.41.41,0,0,1-.45-.44.47.47,0,0,1,.47-.48c.13,0,.75.13.89.13a3,3,0,0,0,2.85-3.24c0-1.61-1-3.11-2.62-3.11a1.56,1.56,0,0,0-1.68,1.39,1.08,1.08,0,0,0,.07.31,2.2,2.2,0,0,1,.06.5,1.1,1.1,0,0,1-1.06,1.14,1.08,1.08,0,0,1-1-1.14c0-1.14,1.33-2.9,4-2.9s4.15,1.66,4.15,3.48a3.59,3.59,0,0,1-.77,2.12,4.91,4.91,0,0,1-2.63,1.76A5.5,5.5,0,0,1,463.41,261.71Z"/><path d="M471.15,268a1.21,1.21,0,1,1-1.2-1.2A1.22,1.22,0,0,1,471.15,268Z"/><path d="M480.44,262.75a3.51,3.51,0,0,1-1.8.53c-2.06,0-3.72-2.07-3.72-4.6,0-2.86,2.06-5.45,4.44-5.45s4.77,2.69,4.77,7.15c0,4.79-2.69,8.77-5.87,8.77-1.39,0-2.36-.83-2.36-1.8a1,1,0,0,1,1.06-1.08c.41,0,1.1.27,1.14,1.43,0,.46.06.75.62.75a2,2,0,0,0,1.51-.73c1.85-2,1.95-5.1,2-6.94A5.29,5.29,0,0,1,480.44,262.75Zm.68-7.7a2,2,0,0,0-1.68-1.12c-1.09,0-2.65,1.16-2.65,4.56,0,1,.23,3.86,2.36,3.86.79,0,2.12-.58,3.09-2.82A9.9,9.9,0,0,0,481.12,255.05Z"/><path d="M491.47,259.66a3.52,3.52,0,0,1,1.81-.54c2.05,0,3.71,2.07,3.71,4.58,0,2.88-2.05,5.45-4.44,5.45s-4.77-2.67-4.77-7.15c0-4.79,2.7-8.77,5.87-8.77,1.39,0,2.36.83,2.36,1.82a1,1,0,0,1-1.05,1.08c-.42,0-1.1-.27-1.14-1.45,0-.46-.07-.75-.63-.75a2.1,2.1,0,0,0-1.51.75c-1.84,2-1.95,5.08-2,6.95A5.09,5.09,0,0,1,491.47,259.66Zm-.68,7.67a2,2,0,0,0,1.68,1.12c1.1,0,2.65-1.14,2.65-4.56,0-.94-.22-3.84-2.36-3.84-.79,0-2.12.58-3.09,2.82A9.89,9.89,0,0,0,490.79,267.33Z"/><path d="M504,258.56v1.63a4.71,4.71,0,0,1,3.42-1.63,2.3,2.3,0,0,1,2.49,1.86,5.16,5.16,0,0,1,3.71-1.86c1.83,0,2.65,1.1,2.65,3.4v4.89c0,.79.42,1.25,1,1.25h.38v.66h-4.34v-.66h.4c.72,0,1-.56,1-1.25v-4.77c0-.58-.08-2.63-1.8-2.63a3.92,3.92,0,0,0-3,1.8,5.05,5.05,0,0,1,0,.71v4.89c0,.87.48,1.25,1,1.25h.6v.66H506.9v-.66h.61c.58,0,1.05-.4,1.05-1.25v-4.77c0-.43-.06-2.63-1.8-2.63a3.68,3.68,0,0,0-2.8,1.64v5.76c0,.87.48,1.25,1,1.25h.37v.66h-4.31v-.66h.37c.62,0,1-.44,1-1.25v-6.24a.86.86,0,0,0-.85-1,1.93,1.93,0,0,0-.63.08l-.1-.4Zm10.72-1.23a12.43,12.43,0,0,1,1.2-1.32,3.71,3.71,0,0,0,1.18-2c0-.27-.16-.77-.64-.77a.68.68,0,0,0-.7.56c0,.08.18.45.18.54a.57.57,0,0,1-.58.54.65.65,0,0,1-.62-.71,1.76,1.76,0,0,1,1.83-1.49,1.4,1.4,0,0,1,1.51,1.41,1.66,1.66,0,0,1-.64,1.35c-.23.22-1.52,1.26-1.73,1.55H517a.84.84,0,0,0,.81-.7l.33.1-.43,1.43h-3Z"/><path class="cls-2" d="M110.54,167.4a24.3,24.3,0,0,0,6.69-6.42H111.5v-3.16h6.69v-3.19h-6.86V151.5H115a28.66,28.66,0,0,0-1-4.91h-2v-3.12h6.2v-2.85h3.16v2.85h5.7v3.12H125.5a47.73,47.73,0,0,1-1.18,4.91h3.23v3.13h-6.2v3.19h5.44V161H122a17.07,17.07,0,0,0,4,3.91L124.38,168a17.89,17.89,0,0,1-3-3.67v8.62h-3.16v-8.55a25.72,25.72,0,0,1-5.84,6.18ZM117,146.59a40.72,40.72,0,0,1,1,4.91h3.33a40.21,40.21,0,0,0,1-4.91Zm25.15-2.74A26.2,26.2,0,0,1,132,146.42v5.22h10.19v3.3h-3.23v18h-3.43v-18H132v.92c0,9.58-1.81,13.25-4.41,17.07l-3.2-2.3c2.87-3.57,4.32-7.08,4.32-14.66V143.19a23.66,23.66,0,0,0,11.6-2.57Z"/><path class="cls-2" d="M159.62,157.41c-2.28.51-9.46,1.68-11.67,2l-.53-3.15c.3,0,4.68-.48,5.47-.59v-3.43H149v-2.75h.23l-2.07-2.23a16.42,16.42,0,0,0,5-6.69l3.23.61a11.53,11.53,0,0,1-.52,1.45h7.71v2.74h-5c.36.66.62,1.17.89,1.79l-3.23,1.23a17.23,17.23,0,0,0-1.06-3h-.85a19.1,19.1,0,0,1-3.5,4.12h10.09v2.75H156v3.09c2.24-.28,2.94-.41,3.86-.59v2c2.67-1.75,3-3.64,3.13-7.76h11.86v6.38c0,.62.14.76.4.76.73,0,.79,0,.86-.93,0-.27,0-1.61,0-1.92L179,154c-.16,3.64-.26,4.8-2.07,4.8h-3.07c-1,0-2-.65-2-2.33V151.6h-5.93a9.8,9.8,0,0,1-4.06,7.8h2.84v1.41h13.91v2.95H167.3c1.55,1.27,3.72,3,11.73,5L177.55,172a31.66,31.66,0,0,1-12.92-6.9v7.72h-3.2v-7.76c-3.92,4.05-9.36,6-12.79,6.94l-1.35-3.26a28.26,28.26,0,0,0,11.6-5H147.62v-2.95h13.81v-1.17ZM167,145.32a13.1,13.1,0,0,1-2.34,3.13l-2.8-2a12.64,12.64,0,0,0,3.65-5.73l3.33.51c-.19.59-.29.9-.46,1.38h10.19v2.74H172a10.12,10.12,0,0,1,.86,1.75l-3,1.27c-.26-.68-.92-2.26-1.28-3Zm1.09,6.87a25.17,25.17,0,0,1,3.46,3.57l-2.15,2.09a27.29,27.29,0,0,0-3.36-3.6Z"/><path class="cls-2" d="M188.76,153.25c-1.55,1.44-2.51,2.2-3.4,2.89L183,153a23.67,23.67,0,0,0,9.89-12.49l3.42.92a29,29,0,0,1-7.18,11.4h20.3c0,3.47-.1,12.4-1.35,16.93-.86,3.09-3.1,3.19-4.55,3.19h-5l-.66-3.64h5c1.88,0,2.18-1.72,2.44-3.23a57.1,57.1,0,0,0,.66-9.78h-7.65c-.85,9.27-5.43,13.66-12.26,16.65l-2-3.3c7.15-3.12,9.92-6.24,10.75-13.35h-6Zm24.32,2.61a35,35,0,0,1-10.68-14.31l3.43-1c1.71,4.29,5.24,9.61,9.66,12.36Z"/><path class="cls-2" d="M220,146.46h10.9v3H220Zm.82-5.09h9v3.09h-9Zm0,10.06h9v3.13h-9Zm0,5.12h9v3h-9Zm0,5.25h9v9.79h-6.06V173h-3Zm3,3v4h3.09v-4Zm27-.69a39.06,39.06,0,0,1-3.59,3.09,17.6,17.6,0,0,0,4,2.64L249.53,173c-4.22-2.4-7.87-6-9-10.85a15.61,15.61,0,0,1-2.34,2.13v4.6c2.6-.21,3.65-.38,4.91-.55v3.23c-2.48.37-7.65,1-11,1.06l-.56-3.47c1,0,1.81,0,3.56-.07V166.3a26.34,26.34,0,0,1-3.69,1.65l-1.35-3a18.75,18.75,0,0,0,6.85-3.3h-6v-2.57h4.69v-1.75h-3.5V155h3.5v-1.51h-4.06V151h4.06v-1.13h3V151h5v-1.13h3V151h4.28v2.44h-4.28V155h3.62v2.37h-3.62v1.75h4.48v2.57h-7.78a21.54,21.54,0,0,0,1.81,3.1,24.47,24.47,0,0,0,3.1-2.85Zm-19.31-16.45a23.88,23.88,0,0,0,6.06-2.06h-6.39v-2.88h8.17v-1.92h3.33v1.92h8.34v2.88h-6.33a22.72,22.72,0,0,0,6.33,2.17l-1.35,2.43a20.6,20.6,0,0,1-7-2.43l1.68-2.17H237.8l2,2.17a30.18,30.18,0,0,1-6.92,2.64Zm7.05,5.84V155h5v-1.51Zm0,3.88v1.75h5v-1.75Z"/><path class="cls-2" d="M259.42,156.41a23.19,23.19,0,0,1-2.27,2.85l-1.48-4.39c1.78-2,4.91-7.38,5.7-14.15l3.43.45a30,30,0,0,1-2,8.55v23.17h-3.37Zm18.33-8.86a30.75,30.75,0,0,0-6.46-4.32l2.11-2.89a46.55,46.55,0,0,1,6.62,4.12l-2,3.09h8.54V151h-8.84v6.49h7.62v3.4h-7.62v7.62h9.59v3.33H264.63v-3.33h9.56v-7.62h-7.65v-3.4h7.65V151h-8.74v-3.4Z"/><path class="cls-2" d="M307.58,158.2l15.65-1.72.27,3.4-15.92,1.75v6.8c0,.65.46.65.69.65h9.06a1,1,0,0,0,1.06-.89,44.17,44.17,0,0,0,.23-4.6l3.59.92c-.13,5.19-.29,8.14-3.59,8.14H307.28c-.86,0-3.16,0-3.16-2.54V162l-11.34,1.27-.23-3.43,11.57-1.28v-4.15c-1.91.24-4.06.38-5.94.52l-1.08-3.51c2.53-.1,12-.44,19.51-3.22l1.71,3.22A46.48,46.48,0,0,1,307.58,154Zm-1.22-17.55h3.43v3h12.82v8.2h-3.43v-4.77H297v4.77h-3.46v-8.2h12.85Z"/><path class="cls-2" d="M334.05,152.53c-1.49.9-2.71,1.48-4,2.13l-1.69-3.47a32.85,32.85,0,0,0,14-10.57h3.7a29.79,29.79,0,0,0,14.23,10.47l-1.84,3.5a27.6,27.6,0,0,1-4-2.06v2.58H346v4.63h10.41v3.09H346v5.56h13.35v3.51H329.07v-3.51h13.38v-5.56H332.1v-3.09h10.35v-4.63h-8.4Zm19.24-.79a42.37,42.37,0,0,1-9.09-8.1,37.55,37.55,0,0,1-8.9,8.1Z"/><path class="cls-2" d="M379.8,142.78v27.06h-4V146.49h-5v-3.71Z"/><path class="cls-2" d="M392.88,161.32a31.07,31.07,0,0,0,4.75-11.09h-4.25v-3.29h4.35v-6.25h3.16v6.25h3.66v3.29h-3.66v1.2a18.88,18.88,0,0,0,4.05,6.42L403.26,161a21.15,21.15,0,0,1-2.37-4.29v16.17h-3.16v-15.1c-1.42,5.08-2.74,6.86-3.63,8.1Zm9.79,7.25A22.68,22.68,0,0,0,411,161h-5.67V148.62h7.42v-2h-8.24V143.3h8.24v-2.61h3.1v2.61h8.5v3.36h-8.5v2h7.45V161H417.9a24.58,24.58,0,0,0,7,7.25L423,171.31a23.42,23.42,0,0,1-7.12-8.51v10.09h-3.1v-9.65a24.36,24.36,0,0,1-8.24,8.42Zm5.77-17.24v2.27h4.35v-2.27Zm0,4.7v2.24h4.35V156Zm7.45-4.7v2.27h4.45v-2.27Zm0,4.7v2.24h4.45V156Z"/><path class="cls-2" d="M458.64,142.78v27.06h-4V146.49h-5v-3.71Z"/><path class="cls-2" d="M479.3,163.79c-.33.62-.66,1.17-1.28,2.13l-3.43-1.37a45.11,45.11,0,0,0,3.76-7.25h-6V154h30.91v3.26H482.14c-.27.69-1.09,2.72-1.35,3.27h19.47c-.19,2.64-.65,8-1.71,10a4.09,4.09,0,0,1-3.82,2.37h-5.8l-.76-3.61h5.93c1.19,0,2.08-.62,2.44-5.53Zm21.2-22v9.78H475.31v-9.78Zm-21.89,3.12v3.57H497.2v-3.57Z"/><path class="cls-2" d="M507.65,161.32a31.07,31.07,0,0,0,4.75-11.09h-4.26v-3.29h4.35v-6.25h3.17v6.25h3.66v3.29h-3.66v1.2a18.73,18.73,0,0,0,4.05,6.42L518,161a21.15,21.15,0,0,1-2.37-4.29v16.17h-3.17v-15.1c-1.41,5.08-2.73,6.86-3.62,8.1Zm9.79,7.25a22.78,22.78,0,0,0,8.37-7.56h-5.67V148.62h7.42v-2h-8.24V143.3h8.24v-2.61h3.09v2.61h8.51v3.36h-8.51v2h7.45V161h-5.43a24.58,24.58,0,0,0,7,7.25l-1.92,3.05a23.62,23.62,0,0,1-7.12-8.51v10.09h-3.09v-9.65a24.36,24.36,0,0,1-8.24,8.42Zm5.77-17.24v2.27h4.35v-2.27Zm0,4.7v2.24h4.35V156Zm7.44-4.7v2.27h4.45v-2.27Zm0,4.7v2.24h4.45V156Z"/></g></svg>