<svg xmlns="http://www.w3.org/2000/svg" width="650" height="295" viewBox="0 0 650 295"><defs><style>.cls-1{fill:#00ae22;}.cls-2{fill:#fff;}</style></defs><title>joho_matome</title><g id="レイヤー_3" data-name="レイヤー 3"><path class="cls-1" d="M117.6,87.26h22.34v3.86h-7.42v1.95h6.59v17h-3.74v-1.06H122.15v1.06h-3.72v-17h5.7V91.12H117.6Zm4.55,14.79v3.24h13.22v-2a2,2,0,0,1-1.27.47h-3.28a1.74,1.74,0,0,1-1.69-1.88V96.78h-1.68a11,11,0,0,1-3.2,7.84Zm0-5.27v4.55a6.91,6.91,0,0,0,2-4.55Zm5.37-5.66v1.95h1.61V91.12Zm7.85,7.39V96.78h-2.85v2.85c0,.49,0,.74.4.74.75,0,.89,0,1-2.15Z"/><path class="cls-1" d="M152.55,108.19v.27c-2.59.66-8,1.41-9.26,1.56l-.33-3.84c1-.07,1.93-.15,3.58-.34V100h-3.39V96.58h3.39v-1h-1.81v-1a6.44,6.44,0,0,1-1.23.89l-1-4.08a12.5,12.5,0,0,0,4.1-4.72h3.74a10,10,0,0,0,2.9,3.48,16,16,0,0,0,.12-2.77l3.37.37c0,.72,0,1.41-.17,2.87h.9V86.62H161v3.95h3.91v3.69H161v1.66a5.5,5.5,0,0,1,0,.79h4.38v3.83h-3.81a13,13,0,0,0,4.29,5.91l-2.24,3.71a13.72,13.72,0,0,1-4.17-6.53,13.65,13.65,0,0,1-5.49,6.63Zm-7.3-7.65a28,28,0,0,1,.82,4.21l-2.59.79a20.74,20.74,0,0,0-.61-4.26Zm4.94-8.48a13.15,13.15,0,0,1-1.57-2.23,15.25,15.25,0,0,1-1.56,2.23Zm2.69,8.48V96.71h4.6c0-.27,0-.37,0-.57V94.26H156a13.32,13.32,0,0,1-.66,2.1l-3.15-1.51a21.48,21.48,0,0,0,1.08-4.7l-1.74,3.07v2.33h-1.79v1h2.45V100h-2.45v5.42c1.36-.2,2-.32,2.78-.45l0,1.34a9.85,9.85,0,0,0,4.22-5.74Zm.35.52a26.8,26.8,0,0,1-1,3.59L150,104.1a16.34,16.34,0,0,0,.8-3.58Z"/><path class="cls-1" d="M168.3,106.48a21.58,21.58,0,0,0,6.12-1.44h-4V87.33h18.47V105h-4.19a20.53,20.53,0,0,0,6.19,1.44l-1.74,3.78a22.9,22.9,0,0,1-8-3.24l2.2-2h-7.8l2.57,2.18c-1.75,1.14-3.56,2-8.11,3.12Zm6-15.54v1.29h10.72V90.94Zm0,4.53v1.46h10.72V95.47Zm0,4.65v1.48h10.72v-1.48Z"/><path class="cls-1" d="M200.75,101.43a17.69,17.69,0,0,0,4.71-2.52c-.26-.32-.35-.45-.52-.64a18.21,18.21,0,0,1-3.53,2L200,97.48c3.23-.92,4.26-1.88,4.83-2.4h-2.33V93h-1.39v2.79H199.5v5.81c.49-.14.8-.27,1.2-.39l.24,3.61a49.36,49.36,0,0,1-6.79,2.57l-.4-4.3c.47-.1,1-.2,2.26-.52V95.79H194.1V92H196V86.67h3.49V92h1.34V87.21h14.89V93H214v2.08h-2.45c.28,1.63.44,2.3.56,2.82a16.5,16.5,0,0,0,2.62-3.17l1.79,3.66a23,23,0,0,1-3.25,2.87,13.73,13.73,0,0,0,3.2,4.45l-2.83,3.07c-2.49-3.14-4.43-8.91-4.78-13.7h-.31a16.46,16.46,0,0,1-1.43,1.48,11.52,11.52,0,0,1,3.34,8.61c0,3.86-1.72,4.87-2.92,4.87H204.8l-.57-2.87a31,31,0,0,1-3.81,2.33l-1.65-2.82A23.1,23.1,0,0,0,207,102a5.93,5.93,0,0,0-.31-.86,17.35,17.35,0,0,1-4.66,2.91Zm11.42-9.35V90.67h-7.84v1.41Zm-5.89,15c.54,0,1.23-.07,1.13-2.52a21.11,21.11,0,0,1-3.06,2.52Z"/><path class="cls-1" d="M222.1,101.38a37.17,37.17,0,0,1-.8,7.7l-2.31-2c.49-1.75.52-2,.73-5.93Zm6.36-1.36-2.1.74a9.73,9.73,0,0,0-.11-1,5.28,5.28,0,0,0-.66.1v10.24h-3v-9.82c-2,.25-2.43.27-3.06.3L219.3,97l1.32,0c.33-.44.7-1,1-1.36A21.3,21.3,0,0,0,219,92.75l1.46-3.64c.12.13.29.25.45.42a19.6,19.6,0,0,0,1.27-3l3.18.74A36.77,36.77,0,0,1,223,91.76c.19.2.4.47.56.67a33.56,33.56,0,0,0,2-3.46l2.94,1.28a48,48,0,0,1-3.13,4.85l2.14-.72a22.13,22.13,0,0,1,1.11,3.12V88.25h4a10.54,10.54,0,0,0,.47-1.71l4.13.23c-.21.59-.38,1.06-.54,1.48h4.54v9.92h-4.61a11.45,11.45,0,0,0,1,2.25,11.19,11.19,0,0,0,1.7-2.15l2.8,2.32a21.43,21.43,0,0,1-2.63,2.5,13.78,13.78,0,0,0,2.73,2.55l-1.86,3.88a11.93,11.93,0,0,1-3.72-5.12v3.41c0,1.44-.26,2.28-1.91,2.28h-3.37l-.47-3a8.14,8.14,0,0,1-2.1,2.57l-2-2.59a1.42,1.42,0,0,0,.22-.18l-.59.15a54,54,0,0,0-.29-5.69l2.24-.39c.12,1,.31,2.54.38,4a9.61,9.61,0,0,0,1.18-2.45h-1.37Zm-4.36-3.29,1.53-.1c-.07-.22-.35-1.18-.4-1.38C224.53,96.19,224.29,96.49,224.1,96.73Zm9,2.4v-1h-4.26c.14.54.19.71.24,1Zm-.73,7.1c.59,0,.73-.17.73-.74v-5.24a18.11,18.11,0,0,1-1.76,6Zm-.07-15.16v1.09h5.21V91.07Zm0,3.29v1.16h5.21V94.36Z"/><path class="cls-1" d="M264.92,84.1h-7.25v26.37h-5.38v-32h12.63Z"/><path class="cls-1" d="M269.45,103.55H299.8v5.65H269.45Zm1.3-23.32h27.68v5.69H270.75Zm1.8,11.27H296.7v5.55H272.55Z"/><path class="cls-1" d="M310.37,78.49h5.35v2.09h8.19V78.49h5.39v2.09h6v5.34h-6v2.22h-5.39V85.92h-8.19v2.22h-5.35V85.92h-5.91V80.58h5.91ZM321.79,94.2v1.89h11V111h-5.58v-1.17H312.39V111h-5.55V96.09h9.53V87h5.42v2h13.45v5.2Zm-9.4,7.09v3.32h14.82v-3.32Z"/><path class="cls-1" d="M352.2,111.05H339.57V105.4h7.25V79h5.38Z"/><path class="cls-1" d="M366.3,100.54a32.26,32.26,0,0,1-1.05,9.52l-2.35-2c.56-1.74,1-3.25,1.08-7.63Zm7.11-.41a23.48,23.48,0,0,1,.62,4c.1-1,.16-4.25.2-5h-9.7V79.34h13.78v4.28h-3.46v1.44h2.9v3.32h-2.9v1.51h2.9v3.6h-2.9V95.1h3.46c-.07.75-.13,4.51-.17,5.37,0,.55-.13,2.88-.42,5.27a28.85,28.85,0,0,0,1.93-10.06V79.34H394V96h-3.13a19.9,19.9,0,0,0,4.24,9.62l-3.2,5.72c-2.54-2.81-4.73-6.3-5.84-15.34h-1.53v.65c0,9-2.12,12.71-3.33,14.69l-3.79-3.53c-.55,2.09-1.6,3.33-4.66,3.33h-2.45l-1.08-4.35h3.1c1.37,0,1.44-.28,1.63-1.92l-1.37.31c-.06-1.06-.26-3.32-.49-4.76Zm-4.57.41c.1,2,.13,2.91.13,3.66s0,2.13-.1,3.29l-2.12.24a51,51,0,0,0,.39-5.51,11.3,11.3,0,0,0-.09-1.61Zm.33-16.92v1.44H371V83.62Zm0,4.76v1.51H371V88.38Zm0,5.11V95.1H371V93.49Zm2.12,6.91a33.17,33.17,0,0,1,.42,5.24l-1.95.28a21.26,21.26,0,0,0,.13-2.33,18.78,18.78,0,0,0-.23-3Zm13.38-15.58v6h4.21v-6Z"/><path class="cls-1" d="M398.31,83.49a14.09,14.09,0,0,0,4.83-5.31l5.06,1.54a29.61,29.61,0,0,1-7.77,9.59Zm8,24.21V111h-5.16V99.61c-.59.55-.91.83-1.5,1.34l-1.34-7.19a26.28,26.28,0,0,0,6.53-7.6l4,2.64h7.64V86.43h-7.21v-5.2h7.21V78.39h5.29v2.84H429v5.2h-7.21V88.8h8V94h-8v2.33h6.75v5.2h-6.75V105c.65,0,1.79.1,3.52.1,2.09,0,3.49-.07,4.86-.14l-1.07,5.41c-10.32.11-13.12-.17-16.55-4.21a17.77,17.77,0,0,1-3.23,5.21Zm8.45-12a41.83,41.83,0,0,1-.65,5,7.55,7.55,0,0,0,2.38,2.6V94h-7.93V90.16a25.72,25.72,0,0,1-2.25,3.6V106.5c1.2-1.37,3.13-4.08,3.62-11.2Z"/><path class="cls-1" d="M435.15,105.61c2.09,0,10.8-.07,15.4-2.43a3.15,3.15,0,0,1-1,.13h-6.26l-.85-4.62a21,21,0,0,1-5.16,4.11l-3.43-4.52a21.1,21.1,0,0,0,6.86-5.44H434.2V87.67h4.41V80H444v7.71h3.3V78.56h5.32v2.15h10.11v5H452.58v1.92h12.5v5.17H459a31.72,31.72,0,0,0,6.69,5.61l-3.42,4.45a33.6,33.6,0,0,1-7.9-7.67l3.46-2.39h-5.22V100a3.2,3.2,0,0,1-.79,2.39,15.3,15.3,0,0,0,4.12-4.14l3.85,3.77c-2.42,3.22-7.25,8.8-22.85,9.21Zm10.21-10.38a15,15,0,0,1-2.54,3.08h3.46c1,0,1-.92,1-1.23V92.84h-5.55Z"/><path class="cls-1" d="M493.37,80.78v5.65l-11.69,21.33h-7L487,86.4H470.36V80.78Z"/><path class="cls-1" d="M503.48,93.21c-.79.72-1.27,1.13-2,1.75L498,89.69a21.17,21.17,0,0,0,9-11.41l5.35,1.06a32,32,0,0,1-5.51,10.31h14.52a42,42,0,0,1-5.45-10.13l5.35-1.31c1.73,4.08,4.31,8.6,9,11.82L526.59,95a22.87,22.87,0,0,1-1.8-1.47c-.23,5.82-.46,12.15-1.53,14.79a3.84,3.84,0,0,1-4.15,2.81H513l-1.08-5.69h4.83a1.62,1.62,0,0,0,1.47-.79c.26-.54.78-3.63,1-9.51h-5.55c-1,8.59-5.48,13-12.17,16.09l-3.17-5.45c8.55-3,9.56-7.8,9.79-10.64h-4.63Z"/><rect class="cls-1" x="56.71" y="129.29" width="536.57" height="53.21" rx="23.62"/><path class="cls-1" d="M266.3,37.88H252.88v1.68h11.4V53h-8.43a29.66,29.66,0,0,0,11,6.08l-2.37,4.25a32.44,32.44,0,0,1-11.57-8.55v9h-4v-9a30.2,30.2,0,0,1-11.67,8.65l-2.37-4.18c7.22-2.72,9.76-5.08,11.11-6.32h-8.37V39.56h11.3V37.88H235.38V34.07h13.48V31.49h4v2.58H266.3Zm-24.89,7h7.45v-2.1h-7.45Zm0,5h7.45V47.77h-7.45Zm11.47-7.11v2.1h7.52v-2.1Zm0,5v2.09h7.52V47.77Z"/><path class="cls-1" d="M272.59,32.56h29.2v4.08h-25v21.8h25.74v4.09H276.78v1.3h-4.19Zm5.08,21.56a36.6,36.6,0,0,0,9.29-6.8,68.56,68.56,0,0,0-7.84-4.15l2.17-3.4a81.65,81.65,0,0,1,8.34,4.43,34,34,0,0,0,4.06-7l4.15,1.65a47.33,47.33,0,0,1-4.71,7.65,77,77,0,0,1,7.74,6.18L298,56.38a67.73,67.73,0,0,0-7.61-6.69,52.49,52.49,0,0,1-10.09,7.86Z"/><path class="cls-1" d="M320.62,51.06a10.4,10.4,0,0,0,.42-2.3H307.93V45.23h13.28v-2H310.13V40h11.08V38.22H308.88v-3.6h6.76a14.9,14.9,0,0,0-1.22-2.68l4.42-.65a13.49,13.49,0,0,1,1.28,3.33h6.56a27,27,0,0,0,1.22-3.33l4.71.44a17.12,17.12,0,0,1-1.28,2.89H338v3.6H325.3V40h11.3v3.23H325.3v2h13.48v3.53H325.1a17.65,17.65,0,0,1-.36,2.3h13.41v3.61H327.7c2.37,2.43,4.91,3.91,11.31,5l-2.08,4.08c-9-1.75-12.66-6.76-13.58-8.79C320.81,60,315,62.5,309.44,63.87l-1.65-4.22c4-.69,8.77-2,11.14-5H308.59V51.06Z"/><path class="cls-1" d="M350,36.64c-1.88.21-3.46.28-5.18.35l-.66-4c2.08,0,8.7-.28,12.92-1.51l1.42,3.67a23.47,23.47,0,0,1-4.61,1v4.22h4.71V44.3H354a19.08,19.08,0,0,0,5,6.11l-1.87,4.19a18.11,18.11,0,0,1-3.23-4.84v14H350V50.38a31.84,31.84,0,0,1-5,7.86l-1.48-5.36a28.54,28.54,0,0,0,6-8.58h-5.41V40.42h6Zm24.22-3V62.91h-4v-2.1h-6.79v2.1h-3.89V33.69Zm-10.78,4.05V56.66h6.79V37.74Z"/><path class="cls-1" d="M380,40.8l5.51,0c3.46-6,4.28-8.24,4.78-9.65l4.64.9a75.87,75.87,0,0,1-4.81,8.75c4.58,0,8.74-.07,13.12-.41a30.27,30.27,0,0,0-3.66-3.88L403.15,34a53.12,53.12,0,0,1,8.63,10.58L408,47.18a30.79,30.79,0,0,0-1.91-3c-8.17.86-19.81.92-25.67.92Zm28.35,6.69V63.9h-4.22V62.08H387.53V63.9h-4.19V47.49Zm-20.86,3.95V58.1h16.64V51.44Z"/><path d="M284.67,208.3h1.44v17.77h3.95v1.12h-3.95v4.06c0,1.54.77,2.14,2.45,2.14h.56v1.12h-8.89v-1.12h.56c1.64,0,2.45-.56,2.45-2.14v-4.06h-9.41V226Zm-1.43,4.62-8.08,13.15h8.08Z"/><path d="M304,210.12h-1.22a2.25,2.25,0,0,0-2.49,2.41V231a2.25,2.25,0,0,0,2.49,2.42h.94a10.58,10.58,0,0,0,9.48-5.78l.91.46-2.48,6.44H293.77v-1.12H295a2.27,2.27,0,0,0,2.52-2.42V212.53a2.26,2.26,0,0,0-2.52-2.41h-1.19V209H304Z"/><path d="M318.33,209h10.05c8.18,0,13.26,4.2,13.26,12.6,0,6-3.15,12.95-12.95,12.95H318.33v-1.12h1.19A2.26,2.26,0,0,0,322,231V212.53a2.26,2.26,0,0,0-2.52-2.41h-1.19Zm6.48,22a2.25,2.25,0,0,0,2.48,2.42H329c6.33,0,9.52-5.67,9.52-12.11,0-4.44-1.82-11.16-9.38-11.16h-1.82a2.24,2.24,0,0,0-2.48,2.41Z"/><path d="M358.64,218.76l7.77,12.42a4.92,4.92,0,0,0,4.13,2.21H371v1.12h-9.9v-1.12H362a1.28,1.28,0,0,0,1.4-1.16,2.84,2.84,0,0,0-.49-1.43l-6.2-9.9-3.32,3.6V231a2.28,2.28,0,0,0,2.52,2.42h1v1.12h-9.73v-1.12h1A2.25,2.25,0,0,0,350.6,231V212.53a2.25,2.25,0,0,0-2.49-2.41h-1V209h9.73v1.16h-1a2.27,2.27,0,0,0-2.52,2.41v10.32l9.55-10.42a1.75,1.75,0,0,0,.46-1.12c0-1-1.09-1.19-1.86-1.19h-.91V209h9.87v1.16h-.63a6.84,6.84,0,0,0-5.6,2.52Z"/><path d="M144,258.72l.85-1.12c.12-.16.18-.25.31-.25s.14,0,.39.23l1.39,1.1a.43.43,0,0,1,.21.33c0,.19-.19.21-.33.21h-6.91c0,.68,0,3.67,0,4.27,0,.21,0,4.52,0,5.12h5.5l1-1.12c.15-.16.21-.24.31-.24s.19.06.4.22l1.37,1.1a.47.47,0,0,1,.2.31c0,.19-.18.23-.31.23H132.83a14.51,14.51,0,0,0-2.45.19l-.41-.83c1.39.12,2.8.14,3.19.14h5.29c0-.18,0-4.58,0-5.06v-4.33h-4.38a14.35,14.35,0,0,0-2.44.19l-.42-.81c1.39.1,2.8.12,3.2.12h4c0-4.7,0-5.24-.52-6.76l2.51.67c.21.06.33.1.33.29a.36.36,0,0,1-.19.31,6.28,6.28,0,0,1-.6.47c0,1.68,0,3.34,0,5Z"/><path d="M160.39,258.85H158v6.67c1.68-.49,2.15-.68,2.63-.85l.08.17a21.73,21.73,0,0,1-3,1.76l-2.55,1.29c-.19.43-.27.66-.52.66a.43.43,0,0,1-.33-.25l-1.08-1.84c.7,0,1.05.08,3.4-.56,0-.71,0-3.86,0-4.5v-2.55h-.42a14.49,14.49,0,0,0-2.44.18l-.4-.83c1.23.11,2.47.15,3.26.15,0-1,0-2.07,0-3.11a11.47,11.47,0,0,0-.27-3.07l2.09.71c.11,0,.29.12.29.31s-.41.56-.7.74c0,1.45,0,2.16-.06,4.42h.49l.63-.68c.18-.21.24-.27.35-.27s.25.14.35.22l.73.69c.1.1.18.18.18.31S160.52,258.85,160.39,258.85Zm9.27,10.61c-.48.09-4.15.09-4.73.09-3.4,0-4-.17-4-2.43,0-.81.06-4.37.06-5.1,0-.21,0-1.14,0-1.33a11.45,11.45,0,0,0-2,1.1l-.7-.58a28.36,28.36,0,0,0,2.71-1.08v-3.67a10.28,10.28,0,0,0-.23-2.4l1.93.66c.15,0,.31.13.31.29s-.16.33-.66.68c0,.63,0,3.32,0,3.86l2.26-1c0-2.08,0-3.55,0-5a14.16,14.16,0,0,0-.25-1.83l2,.67c.21.06.35.16.35.31s-.29.43-.72.77c-.05,1.86-.05,2.13-.05,4.5l2-.9.49-.83c.11-.16.21-.35.36-.35a.76.76,0,0,1,.39.17l1,.6a.43.43,0,0,1,.2.33c0,.25-.23.46-.52.73,0,6.22,0,7.65-2.46,8.29a2.64,2.64,0,0,0-1.25-1.74v-.1a4.64,4.64,0,0,0,.64,0c1.46,0,1.68-.19,1.68-4.56,0-1.41,0-1.64,0-2.24l-2.46,1.12c0,3,0,5,.06,5.59,0,.27.06,1.5.06,1.75a1,1,0,0,1-1.06,1c-.29,0-.5-.1-.5-.54,0-.22.07-1.28.07-1.49,0-1.33,0-2.11.06-5.76l-2.26,1c0,.83,0,7.2,0,7.45a.69.69,0,0,0,.5.58c.27.08,3.23.08,3.63.08,2.13,0,2.78,0,3.21-.77a17.7,17.7,0,0,0,.91-2.51h.15a7.32,7.32,0,0,0,.39,2.47c.13.21.48.4.48.6S171.22,269.19,169.66,269.46Z"/><path d="M183.43,256.81a21.66,21.66,0,0,0,1.23-3.46h-5.42a13.88,13.88,0,0,0-2.44.19l-.42-.83c1.06.08,2.12.14,3.2.14h12.35l.92-.89a1.23,1.23,0,0,1,.39-.31c.1,0,.19.06.4.23l1.16.93c.08.07.2.19.2.31s-.2.23-.33.23h-8.06a36.1,36.1,0,0,1-2.68,3.46h7.55l.58-.6c.21-.2.27-.27.39-.27s.27.13.38.21l.95.81a.42.42,0,0,1,.17.27c0,.19-.09.25-.83.66,0,2.35,0,5.31,0,7.66,0,1,.1,2.5.1,3.46a.92.92,0,0,1-1,1c-.63,0-.63-.33-.59-1.51H179.85c0,.08,0,.56,0,.66a1,1,0,0,1-1,1c-.66,0-.66-.46-.66-.65s.06-1.09.06-1.26c0-2.26.14-7,.14-9a14.47,14.47,0,0,0-.29-3.4l2.14,1Zm-3.58.5V268h2.75V257.31Zm7.32,3.15v-3.15H184v3.15Zm0,3.63V261H184v3.13Zm0,3.88v-3.38H184V268Zm4.47,0V257.31h-3.06V268Z"/><path d="M198.82,265.67a26.65,26.65,0,0,0,3.86-7.94h-.48a15.47,15.47,0,0,0-2.44.18l-.4-.83c1.18.11,2.39.15,3.46.15,0-1,0-2.47,0-3.36a19.71,19.71,0,0,1-3.38.37v-.16a34.87,34.87,0,0,0,5.6-2.32,1.62,1.62,0,0,0,.44-.5l1.43,1.2a.37.37,0,0,1,.14.29c0,.21-.2.21-.39.21l-.6,0a18,18,0,0,1-1.93.62c0,.95,0,2.86,0,3.67h.39l.5-.75c.09-.12.19-.27.31-.27s.29.15.4.23l.89.75a.44.44,0,0,1,.21.33c0,.21-.21.21-.32.21h-2.38c0,.39,0,1.32,0,1.82,2,.73,2.72,2,2.72,2.62a.79.79,0,0,1-.77.82c-.5,0-.56-.2-1-1.36a3.78,3.78,0,0,0-1-1.81c0,3.61,0,4,.08,5.6,0,1.41.09,3.05.09,3.8,0,.37,0,1.2-1,1.2-.54,0-.6-.31-.6-.71,0-.68.16-3.73.19-4.35,0-2,0-2.84,0-4.65a13.65,13.65,0,0,1-3.92,5.06Zm6.66,4.38c1.45-.71,3.79-2.08,4.29-3l1.49,1.1a.36.36,0,0,1,.19.31c0,.29-.48.27-1,.27a16.56,16.56,0,0,1-4.94,1.43Zm9.21-16.51.51-.83c.11-.17.21-.29.32-.29s.26.14.39.25l1,.83a.43.43,0,0,1,.2.33c0,.19-.16.21-.31.21h-4.39v1.7h1.65l.5-.75c.09-.12.17-.25.31-.25s.25.13.38.23l.85.72a.48.48,0,0,1,.2.34c0,.18-.18.2-.31.2h-3.58v1.87h3.44l.6-.85c.1-.17.23-.27.33-.27s.25.12.37.25l.9.83a.53.53,0,0,1,.2.33c0,.21-.16.21-.31.21h-8.62a14.53,14.53,0,0,0-2.45.18l-.42-.82c1.06.08,2.14.14,3.2.14H211v-1.87h-.5a13.16,13.16,0,0,0-2.45.21l-.39-.83c.62,0,1.53.13,3.34.13,0-.81,0-1.31,0-1.7h-1.36a14.41,14.41,0,0,0-2.45.18l-.42-.83c1.52.13,2.85.15,3.2.15h1a6,6,0,0,0-.37-2.22l2.12.64a.32.32,0,0,1,.29.31c0,.27-.48.5-.58.54v.73Zm-.48,6.49.48-.52c.08-.08.2-.21.29-.21s.25.13.33.19l.81.68a.54.54,0,0,1,.22.38c0,.21-.24.37-.6.54a7.23,7.23,0,0,0,0,.76c0,.71.17,3.8.17,4.42a.85.85,0,0,1-1,1c-.53,0-.53-.27-.51-.71h-4.94c0,.48.06,1-.93,1-.35,0-.54-.1-.54-.47,0,0,0-.21,0-.5,0-.77,0-3,0-3.92a13.3,13.3,0,0,0-.23-3.28l1.64.73Zm-4.73.5V262h4.94v-1.47Zm0,2V264h4.94V262.5Zm0,2V266h4.94v-1.53Zm3.48,2.82c1.87.16,4.5,1.1,4.5,2.34a.83.83,0,0,1-.82.81c-.48,0-1-.52-1.31-.91a10.57,10.57,0,0,0-2.37-2.1Z"/><path d="M224.87,256.79a1.21,1.21,0,1,1-2.41,0,1.21,1.21,0,0,1,2.41,0Zm0,8.17a1.21,1.21,0,1,1-1.2-1.2A1.21,1.21,0,0,1,224.87,265Z"/><path d="M229.83,268.1H231c1.08,0,1.45-.42,1.45-1.27V255.61c0-.64-.6-.74-1-.74h-1.57v-.65h.37a7.9,7.9,0,0,0,3.38-.87c.15-.08.21-.12.29-.12s.23.12.23.29v13.31c0,.89.44,1.27,1.45,1.27h1.14v.66h-6.88Z"/><path d="M243.2,255.26l-.18,5.23a4.37,4.37,0,0,1,3.21-1.44c3,0,4.42,2.47,4.42,4.75a5.27,5.27,0,0,1-5.12,5.35c-2.37,0-3.92-1.76-3.92-3a1.18,1.18,0,0,1,1.2-1.28,1,1,0,0,1,1.08,1.08,2,2,0,0,1-.11.62,3.26,3.26,0,0,0-.06.58c0,.89.94,1.35,1.77,1.35,1.68,0,3.25-1.6,3.25-4.38,0-2.63-1.39-4.08-2.9-4.08a4.5,4.5,0,0,0-3.24,1.8l-.31-.16.31-8h7.22l-.42,1.64Z"/><path d="M260.6,253.23h.85v10.53h2.35v.67h-2.35v2.4c0,.91.46,1.27,1.46,1.27h.33v.66H258v-.66h.33c1,0,1.45-.34,1.45-1.27v-2.4h-5.57v-.73Zm-.85,2.74L255,263.76h4.79Z"/><path d="M269.79,268a1.2,1.2,0,1,1-1.2-1.2A1.22,1.22,0,0,1,269.79,268Z"/><path d="M281.24,261.71a3.86,3.86,0,0,1,1.41,3.07c0,2.55-2.1,4.37-4.83,4.37-2.24,0-4.13-1.26-4.13-2.92a1.2,1.2,0,0,1,1.18-1.33,1,1,0,0,1,1,1,1.53,1.53,0,0,1-.13.66,1.56,1.56,0,0,0-.06.48c0,.79.89,1.37,1.87,1.37a3.54,3.54,0,0,0,3.21-3.67,3.61,3.61,0,0,0-3.23-3.8c-.13,0-.71.09-.83.09a.42.42,0,0,1-.46-.44.47.47,0,0,1,.48-.48c.12,0,.75.13.89.13a3,3,0,0,0,2.84-3.24c0-1.61-1-3.11-2.61-3.11a1.34,1.34,0,0,0-1.62,1.7,2.2,2.2,0,0,1,.06.5,1.09,1.09,0,0,1-1.05,1.14,1.07,1.07,0,0,1-1-1.14c0-1.14,1.33-2.9,4-2.9s4.15,1.66,4.15,3.48a3.59,3.59,0,0,1-.77,2.12,4.91,4.91,0,0,1-2.63,1.76A5.62,5.62,0,0,1,281.24,261.71Z"/><path d="M295.65,253.62v1.1c-3.29,5.08-4.46,8-4.73,12.59,0,.54-.1,1.84-1.16,1.84a1.09,1.09,0,0,1-1.05-1.14c0-1.47,1.45-5.82,5.82-12.75H291c-3,0-3.47,1.39-3.92,2.72l-.62-.15.85-4.21Z"/><path d="M302.6,258.56v1.63a4.71,4.71,0,0,1,3.42-1.63,2.3,2.3,0,0,1,2.49,1.86,5.2,5.2,0,0,1,3.71-1.86c1.83,0,2.66,1.1,2.66,3.4v4.89c0,.79.41,1.25,1,1.25h.38v.66H312v-.66h.4c.72,0,1-.56,1-1.25v-4.77c0-.58-.08-2.63-1.8-2.63a3.89,3.89,0,0,0-2.94,1.8,5.05,5.05,0,0,1,0,.71v4.89c0,.87.47,1.25,1,1.25h.61v.66h-4.77v-.66h.6c.58,0,1.06-.4,1.06-1.25v-4.77c0-.43-.07-2.63-1.81-2.63a3.69,3.69,0,0,0-2.8,1.64v5.76c0,.87.48,1.25,1,1.25H304v.66H299.7v-.66h.37c.62,0,1-.44,1-1.25v-6.24a.86.86,0,0,0-.85-1,1.83,1.83,0,0,0-.62.08l-.11-.4Zm10.72-1.23a11.76,11.76,0,0,1,1.21-1.32c.43-.48,1.18-1.29,1.18-2,0-.27-.17-.77-.65-.77a.68.68,0,0,0-.7.56c0,.08.19.45.19.54a.58.58,0,0,1-.59.54.65.65,0,0,1-.62-.71,1.76,1.76,0,0,1,1.83-1.49,1.4,1.4,0,0,1,1.51,1.41,1.66,1.66,0,0,1-.64,1.35c-.23.22-1.51,1.26-1.72,1.55h1.28a.84.84,0,0,0,.81-.7l.33.1-.43,1.43h-3Z"/><path d="M361.4,269.67c-7.53-.1-10.77-.14-13.57-2.86a9.61,9.61,0,0,1-4.23,3.59l-.12-.13a13.21,13.21,0,0,0,3.59-4.31,10,10,0,0,1-1.93-4l.2-.17a9.35,9.35,0,0,0,2.1,3.4,14.27,14.27,0,0,0,1.16-5.64h-1.74c-.42,1.16-.52,1.47-1.2,1.47-.15,0-.75,0-.75-.47a12.11,12.11,0,0,1,.5-1.47c1.08-2.78,1.93-5,2.17-6h-.74a13.49,13.49,0,0,0-2.45.19l-.39-.83c1.05.08,2.11.15,3.17.15h.37l.54-.44c.19-.14.29-.21.4-.21a.8.8,0,0,1,.35.21l.81.69a.43.43,0,0,1,.2.37c0,.25-.41.43-.95.66-.46,1.16-.72,1.87-1.87,5.14h1.41l.56-.43a.77.77,0,0,1,.4-.21.55.55,0,0,1,.39.23l.65.66a.69.69,0,0,1,.24.44c0,.19-.2.31-.64.58a14.26,14.26,0,0,1-1.7,5.7,11.42,11.42,0,0,0,7.22,2.06,46.66,46.66,0,0,0,7.3-.61l0,.17A2.54,2.54,0,0,0,361.4,269.67Zm1.22-12.92h-2.86c.08,2.47.08,2.47.08,2.62,0,.41,0,1.05-1,1.05-.56,0-.53-.33-.51-.68h-2.55v2.16h3.11l.62-.79c.14-.17.23-.27.35-.27s.23.1.39.23l.94.78c.1.11.21.23.21.32s-.15.22-.32.22h-5.3l0,2.2h3.69l.79-.91c.16-.19.24-.27.35-.27s.23.08.37.23l1,.91a.49.49,0,0,1,.2.35c0,.13-.12.19-.31.19H355.8c0,.25,0,1.47,0,1.74a1,1,0,0,1-.92.75c-.66,0-.66-.38-.66-.6s.1-1.58.1-1.89h-1.41a14.61,14.61,0,0,0-2.42.19l-.42-.81c1.62.12,3.15.12,3.2.12h1.07c0-.56,0-1.08.05-2.2h-.63a13.68,13.68,0,0,0-2.42.19l-.42-.81c.63,0,1.79.13,3.49.13v-2.16H354a14.8,14.8,0,0,0-2.44.19l-.42-.81c1.49.1,3.07.12,3.28.12l0-2.49H352.5a13.78,13.78,0,0,0-2.43.19l-.41-.83c1.06.1,2.11.15,3.17.15h1.6l0-2.43h-.5a16.05,16.05,0,0,0-2.45.19l-.39-.83c1.45.12,2.8.14,3.32.14a3.6,3.6,0,0,0-.32-1.93l2,.48c.22.06.35.14.35.33s-.25.38-.58.56v.56h2.4l.52-.45c.15-.13.25-.21.37-.21s.23.1.38.23l.58.56a.62.62,0,0,1,.25.39c0,.17-.17.29-.58.58a11.54,11.54,0,0,0,0,1.83h.74l.6-.77c.13-.17.23-.25.34-.25a.63.63,0,0,1,.39.21l.89.76c.11.11.21.21.21.31S362.83,256.75,362.62,256.75Zm-4.25,0H355.8l0,2.49h2.59Zm0-2.92h-2.53l0,2.43h2.57Z"/><path d="M372.64,262.64c0,2.51,0,2.95,0,4.15,0,.73.08,1.89.08,2.61s-.89,1-1.08,1c-.45,0-.56-.27-.56-.58,0-.09.05-.85.05-1,.08-1.55.08-2.11.12-5.43a21.5,21.5,0,0,1-2.55,1.18c0,.37-.06.73-.4.73s-.35-.23-.41-.36L367,263c1.28.06,1.63,0,4.35-.79,0-1.83,0-3.88,0-5.46h-1.87a16.45,16.45,0,0,1-1.84,4.59l-.13,0a33.26,33.26,0,0,0,.94-7.2,3.7,3.7,0,0,0-.21-1.41l2,.48c.17,0,.35.08.35.31s-.29.41-.62.54a19.08,19.08,0,0,1-.35,2.24h1.72c0-2.93-.1-3.78-.56-4.81l2.28.66c.12,0,.31.14.31.29s-.35.44-.66.6c0,.44,0,2.63,0,3.26h.41l.58-.79c.11-.13.21-.27.31-.27a.65.65,0,0,1,.38.23l.83.79a.47.47,0,0,1,.18.31c0,.18-.18.22-.31.22h-2.38c0,1.33,0,3.65,0,5,.41-.14,2.34-.81,2.71-.95l.07.14A24.78,24.78,0,0,1,372.64,262.64ZM384.87,257c-.16,4.34-.33,8.28-1.64,11a4,4,0,0,1-3.21,2.1c-.15-.94-.48-1.52-1.76-2.45l.06-.15a9,9,0,0,0,2.51.44c.5,0,.83,0,1.41-1.47a32.28,32.28,0,0,0,1.16-10h-1.18c-.6,4.69-2.59,10.72-8.59,13l-.06-.14c4.4-3.3,6.26-6.8,7.13-12.84h-1.16c-.85,4.38-3.19,8.15-6.2,9.56l-.06-.12a17.71,17.71,0,0,0,4.75-9.44h-1a13,13,0,0,1-2.8,4.13l-.1-.11a23.11,23.11,0,0,0,2.67-8.46,2.49,2.49,0,0,0-.1-.7l2.07.83c.21.08.32.21.32.33,0,.27-.4.37-.73.46-.54,1.66-.89,2.5-1.1,3h6l.5-.52c.12-.14.23-.22.31-.22a.87.87,0,0,1,.37.18l1,.73c.14.1.23.17.23.29C385.58,256.69,385.1,256.92,384.87,257Z"/><path d="M397.65,256.81a21.56,21.56,0,0,0,1.22-3.46h-5.41a14.05,14.05,0,0,0-2.45.19l-.41-.83c1.06.08,2.11.14,3.19.14h12.36l.91-.89a1.35,1.35,0,0,1,.4-.31c.1,0,.18.06.39.23l1.16.93a.47.47,0,0,1,.21.31c0,.21-.21.23-.33.23h-8.07a36.11,36.11,0,0,1-2.67,3.46h7.54l.59-.6c.2-.2.26-.27.39-.27a.88.88,0,0,1,.37.21l1,.81a.39.39,0,0,1,.16.27c0,.19-.08.25-.83.66,0,2.35,0,5.31,0,7.66,0,1,.11,2.5.11,3.46a.93.93,0,0,1-1,1c-.62,0-.62-.33-.58-1.51h-11.8c0,.08,0,.56,0,.66a1,1,0,0,1-1,1c-.67,0-.67-.46-.67-.65s.06-1.09.06-1.26c.05-2.26.15-7,.15-9a14.47,14.47,0,0,0-.29-3.4l2.14,1Zm-3.59.5V268h2.76V257.31Zm7.32,3.15v-3.15h-3.17v3.15Zm0,3.63V261h-3.17v3.13Zm0,3.88v-3.38h-3.17V268Zm4.48,0V257.31h-3.07V268Z"/><path d="M413,265.67a27.14,27.14,0,0,0,3.86-7.94h-.48a15.58,15.58,0,0,0-2.45.18l-.39-.83c1.18.11,2.38.15,3.46.15,0-1,0-2.47,0-3.36a19.71,19.71,0,0,1-3.38.37v-.16a35.25,35.25,0,0,0,5.6-2.32,1.43,1.43,0,0,0,.43-.5l1.43,1.2a.35.35,0,0,1,.15.29c0,.21-.21.21-.39.21l-.61,0a17.59,17.59,0,0,1-1.92.62c0,.95,0,2.86,0,3.67h.39l.5-.75c.08-.12.18-.27.31-.27s.29.15.39.23l.89.75a.42.42,0,0,1,.21.33c0,.21-.21.21-.31.21h-2.38c0,.39,0,1.32,0,1.82,2,.73,2.71,2,2.71,2.62a.79.79,0,0,1-.76.82c-.5,0-.56-.2-1-1.36a3.86,3.86,0,0,0-1-1.81c0,3.61,0,4,.08,5.6,0,1.41.08,3.05.08,3.8,0,.37,0,1.2-1,1.2-.54,0-.61-.31-.61-.71,0-.68.17-3.73.19-4.35,0-2,0-2.84,0-4.65a13.55,13.55,0,0,1-3.92,5.06Zm6.65,4.38c1.46-.71,3.8-2.08,4.3-3l1.49,1.1a.38.38,0,0,1,.19.31c0,.29-.48.27-1,.27a16.5,16.5,0,0,1-4.93,1.43Zm9.21-16.51.52-.83c.1-.17.21-.29.31-.29s.27.14.4.25l1,.83a.42.42,0,0,1,.21.33c0,.19-.17.21-.31.21h-4.4v1.7h1.66l.5-.75c.08-.12.16-.25.31-.25s.25.13.37.23l.85.72a.46.46,0,0,1,.21.34c0,.18-.19.2-.31.2h-3.59v1.87h3.44l.61-.85c.1-.17.22-.27.33-.27s.25.12.37.25l.89.83a.51.51,0,0,1,.21.33c0,.21-.17.21-.31.21h-8.63a14.66,14.66,0,0,0-2.45.18l-.41-.82c1.06.08,2.14.14,3.19.14h1.35v-1.87h-.5a13,13,0,0,0-2.44.21l-.4-.83c.62,0,1.54.13,3.34.13,0-.81,0-1.31,0-1.7h-1.37a14.37,14.37,0,0,0-2.44.18l-.42-.83c1.51.13,2.84.15,3.19.15h1a6,6,0,0,0-.37-2.22l2.11.64a.31.31,0,0,1,.29.31c0,.27-.47.5-.58.54v.73Zm-.48,6.49.48-.52c.08-.08.21-.21.29-.21s.25.13.33.19l.81.68a.52.52,0,0,1,.23.38c0,.21-.25.37-.6.54a7.23,7.23,0,0,0,0,.76c0,.71.16,3.8.16,4.42a.85.85,0,0,1-1,1c-.54,0-.54-.27-.52-.71H423.7c0,.48.06,1-.94,1-.35,0-.54-.1-.54-.47,0,0,0-.21,0-.5,0-.77,0-3,0-3.92a13.3,13.3,0,0,0-.23-3.28l1.64.73Zm-4.72.5V262h4.93v-1.47Zm0,2V264h4.93V262.5Zm0,2V266h4.93v-1.53Zm3.48,2.82c1.87.16,4.5,1.1,4.5,2.34a.84.84,0,0,1-.83.81c-.48,0-1-.52-1.31-.91a10.22,10.22,0,0,0-2.36-2.1Z"/><path d="M439.09,256.79a1.22,1.22,0,0,1-1.21,1.21,1.21,1.21,0,0,1-1.2-1.21,1.21,1.21,0,0,1,2.41,0Zm0,8.17a1.21,1.21,0,0,1-1.21,1.21,1.21,1.21,0,0,1,0-2.41A1.21,1.21,0,0,1,439.09,265Z"/><path d="M448.4,262.75a3.52,3.52,0,0,1-1.81.53c-2,0-3.71-2.07-3.71-4.6,0-2.86,2.05-5.45,4.44-5.45s4.77,2.69,4.77,7.15c0,4.79-2.7,8.77-5.87,8.77-1.39,0-2.36-.83-2.36-1.8a1,1,0,0,1,1.05-1.08c.42,0,1.1.27,1.14,1.43,0,.46.07.75.63.75a2,2,0,0,0,1.51-.73c1.85-2,1.95-5.1,2-6.94A5.38,5.38,0,0,1,448.4,262.75Zm.68-7.7a2,2,0,0,0-1.68-1.12c-1.1,0-2.65,1.16-2.65,4.56,0,1,.23,3.86,2.36,3.86.79,0,2.12-.58,3.09-2.82A10,10,0,0,0,449.08,255.05Z"/><path d="M463.85,268.76H455.7v-.56a14,14,0,0,1,3.05-4.65c3.05-3.52,4.08-4.7,4.08-6.78a2.66,2.66,0,0,0-2.76-2.84c-1.45,0-2.32.87-2.32,1.62a1.13,1.13,0,0,0,.21.64,1.81,1.81,0,0,1,.43,1,1.15,1.15,0,0,1-1.12,1.16,1.31,1.31,0,0,1-1.18-1.45,4.15,4.15,0,0,1,4.46-3.71c2.57,0,4.15,1.62,4.15,3.85s-1.2,3.24-3.07,4.84c-.71.58-3.44,2.92-4.48,5.2H460c2.9,0,3.59-1.12,4.21-2.84l.62.23Z"/><path d="M471.15,268a1.21,1.21,0,1,1-1.2-1.2A1.22,1.22,0,0,1,471.15,268Z"/><path d="M482.6,261.71a3.86,3.86,0,0,1,1.41,3.07c0,2.55-2.1,4.37-4.84,4.37-2.23,0-4.12-1.26-4.12-2.92a1.2,1.2,0,0,1,1.18-1.33,1,1,0,0,1,1,1,1.69,1.69,0,0,1-.13.66,1.56,1.56,0,0,0-.06.48c0,.79.89,1.37,1.87,1.37a3.55,3.55,0,0,0,3.21-3.67,3.62,3.62,0,0,0-3.24-3.8c-.12,0-.7.09-.82.09a.41.41,0,0,1-.46-.44.47.47,0,0,1,.48-.48c.12,0,.74.13.89.13a3,3,0,0,0,2.84-3.24c0-1.61-1-3.11-2.61-3.11a1.34,1.34,0,0,0-1.62,1.7,2.2,2.2,0,0,1,.06.5,1.1,1.1,0,0,1-1.06,1.14,1.07,1.07,0,0,1-1-1.14c0-1.14,1.32-2.9,4-2.9s4.14,1.66,4.14,3.48a3.58,3.58,0,0,1-.76,2.12,4.93,4.93,0,0,1-2.64,1.76A5.6,5.6,0,0,1,482.6,261.71Z"/><path d="M494,253.23h.85v10.53h2.35v.67h-2.35v2.4c0,.91.46,1.27,1.45,1.27h.34v.66h-5.27v-.66h.33c1,0,1.45-.34,1.45-1.27v-2.4h-5.58v-.73Zm-.85,2.74-4.79,7.79h4.79Z"/><path d="M504,258.56v1.63a4.71,4.71,0,0,1,3.42-1.63,2.3,2.3,0,0,1,2.49,1.86,5.16,5.16,0,0,1,3.71-1.86c1.82,0,2.65,1.1,2.65,3.4v4.89c0,.79.42,1.25,1,1.25h.37v.66h-4.33v-.66h.39c.73,0,1-.56,1-1.25v-4.77c0-.58-.08-2.63-1.8-2.63a3.92,3.92,0,0,0-3,1.8,5.05,5.05,0,0,1,0,.71v4.89c0,.87.48,1.25,1,1.25h.6v.66H506.9v-.66h.6c.59,0,1.06-.4,1.06-1.25v-4.77c0-.43-.06-2.63-1.8-2.63a3.68,3.68,0,0,0-2.8,1.64v5.76c0,.87.48,1.25,1,1.25h.37v.66h-4.31v-.66h.37c.62,0,1-.44,1-1.25v-6.24a.86.86,0,0,0-.85-1,1.93,1.93,0,0,0-.63.08l-.1-.4Zm10.72-1.23a12.43,12.43,0,0,1,1.2-1.32,3.71,3.71,0,0,0,1.18-2c0-.27-.16-.77-.64-.77a.68.68,0,0,0-.7.56c0,.08.18.45.18.54a.57.57,0,0,1-.58.54.65.65,0,0,1-.62-.71,1.76,1.76,0,0,1,1.83-1.49,1.4,1.4,0,0,1,1.51,1.41,1.69,1.69,0,0,1-.64,1.35c-.23.22-1.52,1.26-1.73,1.55H517a.84.84,0,0,0,.81-.7l.33.1-.43,1.43h-3Z"/><path class="cls-2" d="M110.54,167.4a24.3,24.3,0,0,0,6.69-6.42H111.5v-3.16h6.69v-3.19h-6.86V151.5H115a28.66,28.66,0,0,0-1-4.91h-2v-3.12h6.2v-2.85h3.16v2.85h5.7v3.12H125.5c-.69,3.16-.76,3.54-1.18,4.91h3.23v3.13h-6.2v3.19h5.44V161H122a17.07,17.07,0,0,0,4,3.91L124.38,168a17.89,17.89,0,0,1-3-3.67v8.62h-3.16v-8.55a25.72,25.72,0,0,1-5.84,6.18ZM117,146.59a40.72,40.72,0,0,1,1,4.91h3.33a40.21,40.21,0,0,0,1-4.91Zm25.15-2.74A26.2,26.2,0,0,1,132,146.42v5.22h10.19v3.3h-3.23v18h-3.43v-18H132v.92c0,9.58-1.81,13.25-4.41,17.07l-3.2-2.3c2.87-3.57,4.32-7.08,4.32-14.66V143.19a23.66,23.66,0,0,0,11.6-2.57Z"/><path class="cls-2" d="M159.62,157.41c-2.28.51-9.46,1.68-11.67,2l-.53-3.15c.3,0,4.68-.48,5.47-.59v-3.43H149v-2.75h.23l-2.07-2.23a16.42,16.42,0,0,0,5-6.69l3.23.61a11.53,11.53,0,0,1-.52,1.45h7.71v2.74h-5c.36.66.62,1.17.89,1.79l-3.23,1.23a17.23,17.23,0,0,0-1.06-3h-.85a19.1,19.1,0,0,1-3.5,4.12h10.09v2.75H156v3.09c2.24-.28,2.94-.41,3.86-.59v2c2.67-1.75,3-3.64,3.13-7.76h11.86v6.38c0,.62.14.76.4.76.73,0,.79,0,.86-.93,0-.27,0-1.61,0-1.92L179,154c-.16,3.64-.26,4.8-2.07,4.8h-3.07c-1,0-2-.65-2-2.33V151.6h-5.93a9.8,9.8,0,0,1-4.06,7.8h2.84v1.41h13.91v2.95H167.3c1.55,1.27,3.72,3,11.73,5L177.55,172a31.66,31.66,0,0,1-12.92-6.9v7.72h-3.2v-7.76c-3.92,4.05-9.36,6-12.79,6.94l-1.35-3.26a28.26,28.26,0,0,0,11.6-5H147.62v-2.95h13.81v-1.17ZM167,145.32a13.1,13.1,0,0,1-2.34,3.13l-2.8-2a12.64,12.64,0,0,0,3.65-5.73l3.33.51c-.19.59-.29.9-.46,1.38h10.19v2.74H172a10.12,10.12,0,0,1,.86,1.75l-3,1.27c-.26-.68-.92-2.26-1.28-3Zm1.09,6.87a25.17,25.17,0,0,1,3.46,3.57l-2.15,2.09a27.29,27.29,0,0,0-3.36-3.6Z"/><path class="cls-2" d="M188.76,153.25c-1.55,1.44-2.51,2.2-3.4,2.89L183,153a23.67,23.67,0,0,0,9.89-12.49l3.42.92a29,29,0,0,1-7.18,11.4h20.3c0,3.47-.1,12.4-1.35,16.93-.86,3.09-3.1,3.19-4.55,3.19h-5l-.66-3.64h5c1.88,0,2.18-1.72,2.44-3.23a57.1,57.1,0,0,0,.66-9.78h-7.65c-.85,9.27-5.43,13.66-12.26,16.65l-2-3.3c7.15-3.12,9.92-6.24,10.75-13.35h-6Zm24.32,2.61a35,35,0,0,1-10.68-14.31l3.43-1c1.71,4.29,5.24,9.61,9.65,12.36Z"/><path class="cls-2" d="M220,146.46h10.91v3H220Zm.83-5.09h9v3.09h-9Zm0,10.06h9v3.13h-9Zm0,5.12h9v3h-9Zm0,5.25h9v9.79h-6.07V173h-3Zm3,3v4h3.1v-4Zm27-.69a39.06,39.06,0,0,1-3.59,3.09,17.6,17.6,0,0,0,4,2.64L249.53,173c-4.22-2.4-7.87-6-9-10.85a15.91,15.91,0,0,1-2.35,2.13v4.6c2.61-.21,3.66-.38,4.92-.55v3.23c-2.48.37-7.65,1-11,1.06l-.56-3.47c1,0,1.81,0,3.56-.07V166.3a26.34,26.34,0,0,1-3.69,1.65l-1.35-3a18.75,18.75,0,0,0,6.85-3.3h-6v-2.57h4.68v-1.75h-3.49V155h3.49v-1.51h-4.05V151h4.05v-1.13h3V151h5v-1.13h3V151h4.28v2.44h-4.28V155h3.62v2.37h-3.62v1.75h4.48v2.57h-7.78a21.54,21.54,0,0,0,1.81,3.1,24.47,24.47,0,0,0,3.1-2.85Zm-19.31-16.45a23.88,23.88,0,0,0,6.06-2.06h-6.39v-2.88h8.17v-1.92h3.33v1.92h8.34v2.88h-6.33a22.72,22.72,0,0,0,6.33,2.17l-1.35,2.43a20.6,20.6,0,0,1-7-2.43l1.68-2.17H237.8l2,2.17a30.18,30.18,0,0,1-6.92,2.64Zm7.05,5.84V155h5v-1.51Zm0,3.88v1.75h5v-1.75Z"/><path class="cls-2" d="M259.42,156.41a23.19,23.19,0,0,1-2.27,2.85l-1.48-4.39a28.18,28.18,0,0,0,5.7-14.15l3.43.45a29.83,29.83,0,0,1-2,8.55v23.17h-3.36Zm18.33-8.86a30.75,30.75,0,0,0-6.46-4.32l2.11-2.89a46.55,46.55,0,0,1,6.62,4.12l-2,3.09h8.54V151h-8.84v6.49h7.62v3.4h-7.62v7.62h9.59v3.33H264.63v-3.33h9.56v-7.62h-7.65v-3.4h7.65V151h-8.74v-3.4Z"/><path class="cls-2" d="M307.58,158.2l15.65-1.72.27,3.4-15.92,1.75v6.8c0,.65.46.65.69.65h9.06a1,1,0,0,0,1.06-.89,44.17,44.17,0,0,0,.23-4.6l3.59.92c-.13,5.19-.3,8.14-3.59,8.14H307.28c-.86,0-3.16,0-3.16-2.54V162l-11.34,1.27-.23-3.43,11.57-1.28v-4.15c-1.91.24-4.06.38-5.94.52l-1.08-3.51c2.53-.1,12-.44,19.51-3.22l1.71,3.22A46.48,46.48,0,0,1,307.58,154Zm-1.22-17.55h3.43v3h12.82v8.2h-3.43v-4.77H297v4.77H293.5v-8.2h12.86Z"/><path class="cls-2" d="M334.05,152.53c-1.49.9-2.71,1.48-4,2.13l-1.69-3.47a32.85,32.85,0,0,0,14-10.57h3.7a29.79,29.79,0,0,0,14.23,10.47l-1.84,3.5a27.08,27.08,0,0,1-4-2.06v2.58H346v4.63h10.41v3.09H346v5.56h13.35v3.51H329.07v-3.51h13.38v-5.56H332.1v-3.09h10.35v-4.63h-8.4Zm19.24-.79a42.37,42.37,0,0,1-9.09-8.1,37.55,37.55,0,0,1-8.9,8.1Z"/><path class="cls-2" d="M373.93,160.19c-2.28.38-4.09.89-4.09,5.18v.76h17.3v3.71H365.92v-3c0-4.26.33-9.27,6.66-10.23l6.46-1c2.9-.44,4.31-1.27,4.31-4.63s-1.51-4.77-6.39-4.77c-5.5,0-6.69,1.33-6.72,5.63h-3.89c.06-5.84,1.68-9.34,10.38-9.34,5,0,10.51.65,10.51,8.48,0,3.6-1.08,5.32-2.86,6.52a10.53,10.53,0,0,1-4.19,1.65Z"/><path class="cls-2" d="M392.88,161.32a31.07,31.07,0,0,0,4.75-11.09h-4.26v-3.29h4.36v-6.25h3.16v6.25h3.66v3.29h-3.66v1.2a18.73,18.73,0,0,0,4.05,6.42L403.26,161a21.15,21.15,0,0,1-2.37-4.29v16.17h-3.16v-15.1c-1.42,5.08-2.74,6.86-3.63,8.1Zm9.79,7.25A22.68,22.68,0,0,0,411,161h-5.67V148.62h7.42v-2h-8.24V143.3h8.24v-2.61h3.1v2.61h8.5v3.36h-8.5v2h7.44V161H417.9a24.58,24.58,0,0,0,7,7.25L423,171.31a23.5,23.5,0,0,1-7.11-8.51v10.09h-3.1v-9.65a24.36,24.36,0,0,1-8.24,8.42Zm5.77-17.24v2.27h4.35v-2.27Zm0,4.7v2.24h4.35V156Zm7.45-4.7v2.27h4.45v-2.27Zm0,4.7v2.24h4.45V156Z"/><path class="cls-2" d="M458.64,142.78v27.06h-4V146.49h-5v-3.71Z"/><path class="cls-2" d="M479.3,163.79c-.33.62-.66,1.17-1.28,2.13l-3.43-1.37a45.11,45.11,0,0,0,3.76-7.25h-6V154h30.91v3.26H482.14c-.27.69-1.09,2.72-1.35,3.27h19.47c-.19,2.64-.65,8-1.71,10a4.1,4.1,0,0,1-3.82,2.37h-5.8l-.76-3.61h5.93c1.19,0,2.08-.62,2.44-5.53Zm21.19-22v9.78H475.31v-9.78Zm-21.88,3.12v3.57H497.2v-3.57Z"/><path class="cls-2" d="M507.65,161.32a31.07,31.07,0,0,0,4.75-11.09h-4.26v-3.29h4.35v-6.25h3.17v6.25h3.66v3.29h-3.66v1.2a18.73,18.73,0,0,0,4.05,6.42L518,161a21.15,21.15,0,0,1-2.37-4.29v16.17h-3.17v-15.1c-1.41,5.08-2.73,6.86-3.62,8.1Zm9.79,7.25a22.78,22.78,0,0,0,8.37-7.56h-5.67V148.62h7.42v-2h-8.24V143.3h8.24v-2.61h3.09v2.61h8.51v3.36h-8.51v2h7.45V161h-5.44a24.81,24.81,0,0,0,7,7.25l-1.92,3.05a23.62,23.62,0,0,1-7.12-8.51v10.09h-3.09v-9.65a24.45,24.45,0,0,1-8.24,8.42Zm5.77-17.24v2.27h4.35v-2.27Zm0,4.7v2.24h4.35V156Zm7.44-4.7v2.27h4.45v-2.27Zm0,4.7v2.24h4.45V156Z"/></g></svg>