<svg xmlns="http://www.w3.org/2000/svg" width="650" height="295" viewBox="0 0 650 295"><defs><style>.cls-1{fill:#00ae22;}.cls-2{fill:#fff;}</style></defs><title>joho_matome</title><g id="レイヤー_3" data-name="レイヤー 3"><path class="cls-1" d="M112.79,86.27V99.48c0,6-3.51,6.48-7.37,6.48-7,0-8.2-1.23-8.2-7.79v-.84h4.29c0,.42,0,2.32,0,2.72.07,1.58,1,1.86,3.13,1.86,2.78,0,3.89,0,3.89-2.5V86.27Z"/><path class="cls-1" d="M129.38,86.27c2.17,0,5.09.57,5.09,5.42,0,1.48-.07,4.06-2.66,5,1.67.42,2.38,1.65,2.38,3.53V102a13.41,13.41,0,0,0,.45,3.78h-4.36a14.25,14.25,0,0,1-.31-3v-1.83c0-2.2-1.15-2.23-2.31-2.23h-5.51v7.05h-4.22V86.27Zm-7.23,4.06v4.45h6.13c1.29,0,2-.44,2-2.45,0-1.6-.8-2-2-2Z"/><path class="cls-1" d="M142.16,105.24a14.45,14.45,0,0,1-1.11,3l-3.46-2.87c.52-1.11,1.67-3.51,1.67-9.1V86h8.27V84.49h4V86h8.69v3.61h-6.34v1.06h5.56V98h-4.87v1.71a15.71,15.71,0,0,0,4-1.36l1.57,3.16a27.59,27.59,0,0,1-5.6,1.54V104c0,.49.23.52.54.52h1.29c.45,0,.78-.08.76-2l3.27.65c-.09,2.72-.3,4.92-2.8,4.92h-4.53a2.08,2.08,0,0,1-2.14-2.25V98h-3.49v1.14h2.88v3.19h-2.88v1.76c1-.1,2.31-.25,2.88-.33v3.34c-2.5.42-6.22.8-8.18.92ZM143.88,98h-.82a36.66,36.66,0,0,1-.71,6.38l1.53-.05Zm-.82-8.43v1.06h2V89.59Zm0,4.1V95h2V93.69Zm5.41-4.1v1.06h2V89.59Zm0,4.1V95h2V93.69Zm5.42,0V95h1.91V93.69Z"/><path class="cls-1" d="M173.17,98.34c-.61,6.43-3.58,8.66-8.5,9.92l-1.6-4.13c4.52-.89,5.84-2.2,6.26-6.13Zm-8.69-.17V84.57h4v13.6Zm5.84-12.94h14.35V97.48H170.32Zm3.91,3.39v1.14h6.58V88.62Zm0,4.26v1.21h6.58V92.88Zm5,5.27v5.26c0,.6.33.6.69.6h1.36a.66.66,0,0,0,.62-.65c.11-.76.16-1.7.21-2.82l3.67.87c-.23,4.38-.37,6.53-2.85,6.53h-5.44a2,2,0,0,1-2.19-2.08V98.15Z"/><path class="cls-1" d="M194.45,103.91v-2.65h-4V86.05h6.93a7.45,7.45,0,0,0,.4-1.51h4.62a11.62,11.62,0,0,1-.62,1.51H209v8.24H194.27v.79h16.94v2.67H194.27v.79h16.39a48.26,48.26,0,0,1-.63,7.37c-.59,2.23-2.17,2.23-3.54,2.23H204l-.45-1.76v.69H193v.77h-3.87v-5.93H193v2Zm-.18-15.48v.89H205.1v-.89Zm0,2.79v.89H205.1v-.89Zm5.58,12.69v-2h3.7v2.54h1.81c.83,0,1.18,0,1.28-3.19h-8.42v2.65Z"/><path class="cls-1" d="M219.58,102.05a22.91,22.91,0,0,1-3.35,3.17L214,101.06a22.6,22.6,0,0,0,7.94-9.22h-7.52v-4h9.17V84.52h3.93v3.36h9.24v4h-7.66c1.13,2.82,4.15,6.58,8.08,9.2l-2.31,4.18a18.87,18.87,0,0,1-3.44-3.14v2.2h-4v3.93h-3.84v-3.93h-4Zm4-1.58V96.09a22,22,0,0,1-2.71,4.38Zm6.55,0a27.75,27.75,0,0,1-2.71-4.38v4.38Z"/><path class="cls-1" d="M242.53,99.38a37,37,0,0,1-.8,7.69l-2.31-2c.5-1.76.52-2,.73-5.93ZM248.89,98l-2.09.74a9,9,0,0,0-.12-1,5.57,5.57,0,0,0-.66.1v10.24h-3V98.27c-2,.25-2.42.27-3.06.3L239.73,95l1.32,0c.33-.45.71-1,1-1.36a21.71,21.71,0,0,0-2.56-2.82l1.46-3.64c.12.13.28.25.44.42a21.86,21.86,0,0,0,1.28-3l3.18.74a37.91,37.91,0,0,1-2.36,4.53c.19.2.4.47.57.67A34.72,34.72,0,0,0,246,87l2.95,1.28a48.42,48.42,0,0,1-3.14,4.85l2.15-.72A23.2,23.2,0,0,1,249,95.5V86.25h4a13.55,13.55,0,0,0,.47-1.71l4.12.22c-.21.6-.38,1.07-.54,1.49h4.55v9.92H257a11.49,11.49,0,0,0,1,2.25,11.43,11.43,0,0,0,1.69-2.15l2.81,2.32a21.52,21.52,0,0,1-2.64,2.5,14.06,14.06,0,0,0,2.73,2.55l-1.86,3.88A11.93,11.93,0,0,1,257,102.4v3.41c0,1.44-.26,2.28-1.91,2.28h-3.37l-.47-3a8,8,0,0,1-2.1,2.57l-2-2.59a2,2,0,0,0,.21-.18l-.59.15a56.47,56.47,0,0,0-.28-5.69L248.7,99c.12,1,.31,2.54.38,4a9.42,9.42,0,0,0,1.18-2.45h-1.37Zm-4.36-3.29,1.54-.1c-.07-.22-.36-1.18-.4-1.38C245,94.19,244.72,94.48,244.53,94.73Zm9,2.4v-1h-4.27c.14.54.19.71.24,1Zm-.73,7.1c.59,0,.73-.17.73-.74V98.24a18.31,18.31,0,0,1-1.77,6Zm-.07-15.16v1.09h5.2V89.07Zm0,3.29v1.16h5.2V92.36Z"/><path class="cls-1" d="M285.35,82.1H278.1v26.37h-5.38v-32h12.63Z"/><path class="cls-1" d="M318.4,100.8A30.66,30.66,0,0,1,315.57,99V109h-5.29v-1H299.83v1h-5.32V99a30.38,30.38,0,0,1-2.77,1.75l-3-5.24a21.27,21.27,0,0,0,5.32-3.35h-4.64V88.06h8.16c.13-.2.33-.51.72-1.23h-6.79V83.3h8.32c.07-.2.13-.44.36-1.2H290.11v-4h11c.1-.51.16-.92.26-1.74h5.48c-.06.54-.09.68-.23,1.74H320v4H305.84a12.34,12.34,0,0,1-.29,1.2H318.4v3.53h-6.78c.19.34.36.61.78,1.23h8.29v4.08h-4.6a22,22,0,0,0,5.28,3.28Zm-18.7-3.29v1.41h10.48V97.51Zm0,4.8v1.54h10.48v-1.54Zm1.73-10.17c-.65.92-.91,1.23-1.11,1.47H310c-.62-.76-.85-1.1-1.11-1.47Zm3-5.55a14.65,14.65,0,0,1-.76,1.71h3a16.48,16.48,0,0,1-.72-1.71Z"/><path class="cls-1" d="M347.35,107.54H333.12v1.24h-5.65V77.69h25.65v31.09h-5.77Zm-14.23-17.9h14.23V83.3H333.12Zm14.23,5.44H333.12v6.82h14.23Z"/><path class="cls-1" d="M372.63,109.05H360V103.4h7.25V77h5.38Z"/><path class="cls-1" d="M386.73,98.54a31.94,31.94,0,0,1-1.05,9.52l-2.35-2c.56-1.74.95-3.25,1.08-7.63Zm7.11-.41a22.5,22.5,0,0,1,.62,4c.1-1,.17-4.25.2-5H385V77.34h13.77v4.28h-3.46v1.44h2.91v3.32h-2.91v1.51h2.91v3.6h-2.91V93.1h3.46c-.07.75-.13,4.51-.16,5.37,0,.55-.13,2.88-.43,5.27a28.89,28.89,0,0,0,1.93-10.06V77.34h14.33V94h-3.14a19.79,19.79,0,0,0,4.25,9.62l-3.2,5.72c-2.55-2.81-4.73-6.3-5.84-15.34h-1.54v.65c0,9-2.12,12.7-3.33,14.69l-3.78-3.53c-.56,2.09-1.6,3.33-4.67,3.33h-2.45l-1.08-4.35h3.1c1.38,0,1.44-.28,1.64-1.92l-1.37.31c-.07-1.06-.27-3.32-.49-4.76Zm-4.56.41c.09,2,.13,2.91.13,3.66s0,2.13-.1,3.29l-2.12.24a51,51,0,0,0,.39-5.51,9.8,9.8,0,0,0-.1-1.61Zm.32-16.92v1.44h1.8V81.62Zm0,4.76v1.51h1.8V86.38Zm0,5.11V93.1h1.8V91.49Zm2.12,6.91a33.44,33.44,0,0,1,.43,5.24l-2,.27a20.89,20.89,0,0,0,.13-2.32,18.78,18.78,0,0,0-.23-3ZM405.1,82.82v6h4.22v-6Z"/><path class="cls-1" d="M418.74,81.49a14.09,14.09,0,0,0,4.83-5.31l5.06,1.54a29.71,29.71,0,0,1-7.77,9.59Zm8,24.21V109h-5.16V97.61c-.59.55-.91.83-1.5,1.34l-1.34-7.19a26.28,26.28,0,0,0,6.53-7.6l4,2.63H437V84.43h-7.21v-5.2H437V76.39h5.29v2.84h7.21v5.2h-7.21v2.36h8V92h-8v2.33H449v5.2h-6.76V103c.65,0,1.79.1,3.52.1,2.09,0,3.5-.07,4.87-.14l-1.08,5.41c-10.31.11-13.12-.17-16.55-4.21a17.46,17.46,0,0,1-3.23,5.2Zm8.45-12a39.49,39.49,0,0,1-.65,5,7.46,7.46,0,0,0,2.38,2.61V92H429V88.16a25.72,25.72,0,0,1-2.25,3.6V104.5c1.21-1.37,3.13-4.08,3.62-11.2Z"/><path class="cls-1" d="M455.58,103.61c2.09,0,10.8-.07,15.41-2.43a3.21,3.21,0,0,1-1,.13h-6.27l-.85-4.62a20.81,20.81,0,0,1-5.16,4.11l-3.42-4.52a21,21,0,0,0,6.85-5.44h-6.53V85.66H459V78h5.35v7.7h3.3v-9.1H473v2.15h10.12v5H473v1.91h12.5v5.18h-6.1a31.19,31.19,0,0,0,6.69,5.61l-3.43,4.45a33.6,33.6,0,0,1-7.9-7.67l3.46-2.39H473V98a3.23,3.23,0,0,1-.78,2.39,15.23,15.23,0,0,0,4.11-4.14l3.85,3.77c-2.41,3.21-7.25,8.8-22.85,9.21ZM465.8,93.23a15.16,15.16,0,0,1-2.55,3.08h3.46c1,0,1-.92,1-1.23V90.84h-5.55Z"/><path class="cls-1" d="M512.85,78.78V84.4H497.19l-.2,4.93c1.18-.93,2.48-1.71,7.41-1.71,5.91,0,9.46,1.19,9.46,9.34,0,6.27-1.95,9.08-11.25,9.08s-11.89-1.61-12-9.14h5.87c0,2.43.23,3.52,5.39,3.52s6.13-.34,6.13-3.49c0-2.81-.39-3.9-5.61-3.9S497,94,496.8,94.7h-5.42l.42-15.92Z"/><path class="cls-1" d="M523.91,91.21c-.78.72-1.27,1.13-2,1.75l-3.52-5.27a21.18,21.18,0,0,0,9-11.41l5.36,1.06a32.33,32.33,0,0,1-5.52,10.31h14.52a42.39,42.39,0,0,1-5.45-10.13l5.36-1.31c1.73,4.08,4.3,8.6,9,11.82L547,93a22.87,22.87,0,0,1-1.8-1.47c-.22,5.82-.45,12.15-1.53,14.79a3.84,3.84,0,0,1-4.15,2.81h-6.1l-1.08-5.69h4.83a1.61,1.61,0,0,0,1.47-.79c.26-.54.79-3.63,1-9.51h-5.55c-1,8.59-5.48,13-12.17,16.09l-3.17-5.45c8.56-3,9.57-7.8,9.8-10.64h-4.64Z"/><rect class="cls-1" x="56.71" y="127.29" width="536.57" height="53.21" rx="23.62"/><path class="cls-1" d="M247.11,52.36a40.22,40.22,0,0,1-3.66-2.51V61.8H239.5V60.46H226.84V61.8h-4V50a28,28,0,0,1-3.6,2.3L217,48.58a20.7,20.7,0,0,0,6-4h-5.4V41.34h8.24a21.58,21.58,0,0,0,1.15-1.86h-7.08V36.53h8.47c.13-.38.32-.86.62-1.72H218.27V31.55h11.57c.13-.58.23-1,.46-2.3l4.12.14a19.9,19.9,0,0,1-.39,2.16h14v3.26h-14.9c-.13.45-.26.79-.59,1.72h13.91v2.95H239a17.36,17.36,0,0,0,1.29,1.86h8.53V44.6h-5.43a24.26,24.26,0,0,0,6,3.91ZM228.23,44.6a21.78,21.78,0,0,1-1.65,2h13.31a25.73,25.73,0,0,1-1.78-2Zm-1.39,5.18v2.13H239.5V49.78Zm0,5V57.1H239.5V54.83Zm4.48-15.35c-.52,1.07-.72,1.41-.95,1.86h5.47a18.83,18.83,0,0,1-1-1.86Z"/><path class="cls-1" d="M277,61.63V60H260.92v1.62h-4.31V30.94h24.72V61.63Zm-16.09-18.4H277V35.12H260.92Zm0,12.6H277V47.24H260.92Z"/><path class="cls-1" d="M320.28,37H306.77v3.29h11V55.62c0,3.12-2,3.64-3,3.64h-5L309,54.83h3.89c.73,0,.76-.31.76-.93V44.39h-6.89V61.83h-4.15V44.39H296V59.57h-4.15V40.27h10.78V37H289.27V32.79h13.35v-3.3h4.15v3.3h13.51Z"/><path class="cls-1" d="M338.74,35.33c-1.51,0-8.86.27-10.54.27l-.79-4.25c.89,0,1.68,0,2.9,0,5.86,0,17.33-.55,22.74-2.06l2.14,4.26a74.16,74.16,0,0,1-12.06,1.58v6.62h13.41v4.4H343.13V61.87h-4.39V46.18H325.49v-4.4h13.25Z"/><path class="cls-1" d="M393.19,56.13c-.19,1-1.25,5.74-4.18,5.74-2.11,0-3.73-2.41-4.62-4a30.24,30.24,0,0,1-5.63,4l-2.24-3.37A32.84,32.84,0,0,0,381,55.79l-2.44.86a29.72,29.72,0,0,0-1.39-4.88l2.74-.82a40.94,40.94,0,0,1,1.61,4.43c.33-.28.73-.58,1.35-1.13a36.72,36.72,0,0,1-1.91-9.69H367.82V49c0,3.19-.43,8.82-3.4,12.91l-3-3.23c.76-1.17,2.57-3.78,2.57-10.33V40.93H380.7c0-.24-.06-1.58-.06-1.89H361.85V35.6h5v-5H371v5h4.75V29.49h4.08V30.8h10.48v3.12H379.81V35.6H392.7V39h-2.41c.3.68.6,1.51.76,1.89h1.65v3.63h-8a29.62,29.62,0,0,0,1,6.29,22.75,22.75,0,0,0,2.44-5.56L391,46.8a27,27,0,0,1-3.86,8c.3.65,1,2,1.68,2s1.52-2.64,1.85-3.84Zm-21.12-4.32a23,23,0,0,1-1.22,5.59h1.55c.52,0,.66-.06.66-.68V50.06H369V46.73h11.27v3.33h-3.95v8.31c0,1.16,0,2.74-2.44,2.74h-2.83l-.53-2.81a15.63,15.63,0,0,1-.73,1.4l-2.63-1.64a19.19,19.19,0,0,0,2.07-6.73ZM384.49,39c0,.27,0,1.61,0,1.89h2.66c-.36-.86-.75-1.69-.82-1.89Z"/><path class="cls-1" d="M398.83,30.69h16.51V57.44H402.62v2.78h-3.79Zm3.79,4v7.21h2.77V34.68Zm0,11v7.83h2.77V45.63Zm6.2-11v7.21h2.93V34.68Zm0,11v7.83h2.93V45.63Zm13.31-8.48H415.9v-4.4h13.22v4.4h-2.87V58.92a2.62,2.62,0,0,1-2.8,2.88h-6.82l-.69-4.33h5.27c.92,0,.92-.62.92-1Z"/><path d="M192.79,220.61a6.49,6.49,0,0,1,2.38,5.18c0,4.3-3.54,7.38-8.16,7.38-3.78,0-7-2.13-7-4.93a2,2,0,0,1,2-2.24,1.71,1.71,0,0,1,1.71,1.75,3,3,0,0,1-.21,1.12,2.44,2.44,0,0,0-.11.8c0,1.33,1.51,2.31,3.15,2.31,2.7,0,5.43-2.66,5.43-6.19s-2.66-6.41-5.46-6.41c-.21,0-1.19.14-1.4.14a.68.68,0,0,1-.77-.73.79.79,0,0,1,.8-.81c.21,0,1.26.21,1.51.21,2.94,0,4.79-2.62,4.79-5.45s-1.64-5.25-4.41-5.25a2.62,2.62,0,0,0-2.83,2.34,2.5,2.5,0,0,0,.11.53,3.94,3.94,0,0,1,.1.84,1.85,1.85,0,0,1-1.78,1.92,1.8,1.8,0,0,1-1.75-1.92c0-1.93,2.24-4.9,6.71-4.9,4.31,0,7,2.8,7,5.88a6.07,6.07,0,0,1-1.29,3.57,8.38,8.38,0,0,1-4.45,3A9.43,9.43,0,0,1,192.79,220.61Z"/><path d="M209.62,208.12h-1.23a2.24,2.24,0,0,0-2.48,2.41V229a2.25,2.25,0,0,0,2.48,2.42h1a10.61,10.61,0,0,0,9.48-5.78l.91.46-2.49,6.44h-17.8v-1.12h1.19a2.27,2.27,0,0,0,2.52-2.42V210.53a2.26,2.26,0,0,0-2.52-2.41h-1.19V207h10.18Z"/><path d="M224,207h10c8.19,0,13.26,4.2,13.26,12.6,0,6-3.15,12.95-12.94,12.95H224v-1.12h1.19a2.26,2.26,0,0,0,2.52-2.42V210.53a2.26,2.26,0,0,0-2.52-2.41H224Zm6.47,22a2.25,2.25,0,0,0,2.49,2.42h1.68c6.33,0,9.51-5.67,9.51-12.11,0-4.44-1.82-11.16-9.37-11.16H233a2.25,2.25,0,0,0-2.49,2.41Z"/><path d="M264.31,216.76l7.76,12.42a5,5,0,0,0,4.13,2.21h.49v1.12h-9.9v-1.12h.84a1.27,1.27,0,0,0,1.4-1.16,2.75,2.75,0,0,0-.49-1.43l-6.19-9.91L259,222.5V229a2.27,2.27,0,0,0,2.51,2.42h1v1.12H252.8v-1.12h1a2.24,2.24,0,0,0,2.48-2.42V210.53a2.24,2.24,0,0,0-2.48-2.41h-1V207h9.72v1.16h-1a2.27,2.27,0,0,0-2.51,2.41v10.32l9.55-10.42a1.73,1.73,0,0,0,.45-1.12c0-1-1.08-1.19-1.85-1.19h-.91V207h9.86v1.16h-.63a6.83,6.83,0,0,0-5.59,2.52Z"/><path d="M281.63,223h6.05v-6h1.25v6H295v1.25h-6.07v6h-1.25v-6h-6.05Z"/><path d="M317.93,218.59c-.49.2-.67.35-1.47,1.94-3.77,7.32-7.57,10.68-13,12.2l-.07-.18a26.64,26.64,0,0,0,8.42-7.37c-.24,0-.51-.24-1-.73-1.69-1.94-1.94-2.21-3.26-2.94a13.61,13.61,0,0,1-4.09,3.18l-.07-.14c3.08-3,6-8,6-9s-.95-1.18-1.44-1.37a2.56,2.56,0,0,1,1.22-.3c1.4,0,2.72,1.2,2.72,1.72,0,.27-.05.32-.61.8a8.83,8.83,0,0,0-.66.91c.17,0,.41,0,.88,0a18.51,18.51,0,0,0,4-.57,5.75,5.75,0,0,1,1-.59,5.46,5.46,0,0,1,1.91,1.91C318.56,218.35,318.46,218.37,317.93,218.59Zm-6.42-.07a2.3,2.3,0,0,1-1.27-.46,35.42,35.42,0,0,1-2.36,3.15c1.38.18,4.51.79,4.66,3a27.92,27.92,0,0,0,3.11-6.24C315,218,312.07,218.52,311.51,218.52Z"/><path d="M340.7,218.59c-.48.2-.66.35-1.46,1.94-3.78,7.32-7.57,10.68-13,12.2l-.07-.18a26.64,26.64,0,0,0,8.42-7.37c-.24,0-.51-.24-.95-.73-1.69-1.94-1.94-2.21-3.26-2.94a13.61,13.61,0,0,1-4.09,3.18l-.07-.14c3.08-3,6-8,6-9s-.95-1.18-1.44-1.37a2.56,2.56,0,0,1,1.22-.3c1.4,0,2.72,1.2,2.72,1.72,0,.27,0,.32-.61.8a10.69,10.69,0,0,0-.67.91c.18,0,.42,0,.89,0a18.51,18.51,0,0,0,4-.57,5.42,5.42,0,0,1,1-.59,5.46,5.46,0,0,1,1.91,1.91C341.34,218.35,341.24,218.37,340.7,218.59Zm-6.41-.07a2.3,2.3,0,0,1-1.27-.46,35.42,35.42,0,0,1-2.36,3.15c1.38.18,4.51.79,4.66,3a27.92,27.92,0,0,0,3.11-6.24C337.77,218,334.85,218.52,334.29,218.52Z"/><path d="M359.81,232.26c-.37,0-.59-.12-1.45-.93-1.15-1.1-2.32-2.2-6.17-3.72-1.39-.54-2.37-.86-3.45-1.2,5.88-.2,11.85,2.59,11.85,5A.82.82,0,0,1,359.81,232.26Zm-.76-13.62c-.29,0-.42-.07-1.4-.73a23.93,23.93,0,0,0-7.83-3.31,17.07,17.07,0,0,1,1.71-.07c2.75,0,8.21,1,8.21,3.33A.76.76,0,0,1,359.05,218.64Zm-.61,5.64c-.34,0-.44-.1-1.4-.79a24.71,24.71,0,0,0-6.56-2.94,8.41,8.41,0,0,1,1.17-.05c.35,0,7.45.08,7.45,3C359.1,223.54,359.1,224.28,358.44,224.28Z"/><path d="M384.28,219.13a1.09,1.09,0,0,0-.54.79c-.39,1.59-.59,2.81-1.37,7.39.46.1,1.15.47,1.15,1s-.64.66-1.32.66c-.47,0-2.5-.1-2.92-.1a27,27,0,0,0-6.83.73,8.9,8.9,0,0,1-1.3.42c-.76,0-2-1.76-2-2.72a2.39,2.39,0,0,1,.17-.81,3.83,3.83,0,0,0,2.62,1.57c.83,0,1.86-.1,9-.66.75-5.07,1.15-7.74,1.15-8.69,0-.22-.1-.3-.35-.3a71.91,71.91,0,0,0-9.11,1.1,6.69,6.69,0,0,1-1.1.4c-.81,0-2.18-1.62-2.18-2.84a2.5,2.5,0,0,1,.12-.84,3.4,3.4,0,0,0,2.8,1.74c1.15,0,8.81-.56,9.47-.81a9.71,9.71,0,0,1,1.2-.66c.27,0,2,1.47,2,2C384.89,218.74,384.77,218.81,384.28,219.13Z"/><path d="M410.41,224c-.22,0-.8-.05-.85-.05a25.22,25.22,0,0,0-2.77-.1c-7.47,0-9.67.15-10.78.45-.07,0-.85.22-.93.22-.63,0-2-1.57-2-2.7a2.83,2.83,0,0,1,.3-1.17c.83,1.86,1.59,1.86,4.14,1.86,1.69,0,9.65,0,10.77-.3.15,0,.86-.22,1-.22s2.59.27,2.59,1.23C411.93,224,410.71,224,410.41,224Z"/><path d="M437.53,221.48c-.2,0-2.16-.31-2.45-.36a12.56,12.56,0,0,0-2.25-.15c-1.3,0-2.08.05-2.67.1a29.1,29.1,0,0,1-.81,5.73,10.05,10.05,0,0,1-6.71,6.93l-.05-.2c4.29-2.89,5.63-7.12,6-12.34-1.47.15-4.8.61-5.78,1.2-.49.29-.54.34-.83.34a3.15,3.15,0,0,1-2.43-2.89,3.62,3.62,0,0,1,.08-.76,2.8,2.8,0,0,0,2.5,1.57,13.16,13.16,0,0,0,1.69-.12c.76-.07,4.11-.39,4.8-.47a23.9,23.9,0,0,0-.18-4.45c-.17-.64-.78-.91-1.93-1.23a2.67,2.67,0,0,1,1.64-.63c1,0,2.72.66,2.72,1.46a4.69,4.69,0,0,1-.42,1.06,21.79,21.79,0,0,0-.17,2.54c0,.64,0,.84,0,1.13.44,0,4.23-.22,4.28-.24.27,0,1.35-.37,1.52-.37s2.45.32,2.45,1.4C438.46,221.48,437.85,221.48,437.53,221.48Z"/><path d="M463.27,224c-.22,0-.81-.05-.86-.05a25,25,0,0,0-2.76-.1c-7.47,0-9.68.15-10.78.45-.07,0-.86.22-.93.22-.64,0-2-1.57-2-2.7a2.83,2.83,0,0,1,.3-1.17c.83,1.86,1.59,1.86,4.13,1.86,1.69,0,9.65,0,10.78-.3.15,0,.86-.22,1-.22s2.6.27,2.6,1.23C464.79,224,463.57,224,463.27,224Z"/><path d="M144,256.72l.85-1.12c.12-.16.19-.25.31-.25s.14.05.39.23l1.39,1.1a.43.43,0,0,1,.21.33c0,.19-.19.21-.33.21h-6.91c0,.68,0,3.67,0,4.27,0,.21,0,4.52,0,5.12h5.5l1-1.12c.15-.16.21-.24.31-.24s.19.06.4.22l1.37,1.1a.47.47,0,0,1,.2.31c0,.19-.18.23-.31.23H132.83a14.51,14.51,0,0,0-2.45.19l-.41-.83c1.39.12,2.8.14,3.19.14h5.29c0-.18,0-4.58,0-5.06v-4.33h-4.38a14.35,14.35,0,0,0-2.44.19l-.42-.81c1.39.1,2.8.12,3.2.12h4c0-4.7,0-5.24-.52-6.76l2.51.67c.21.06.33.1.33.29a.38.38,0,0,1-.18.31c-.09.08-.48.39-.61.47,0,1.68,0,3.34,0,5Z"/><path d="M160.39,256.85H158v6.67c1.68-.49,2.15-.68,2.63-.85l.08.17a21.73,21.73,0,0,1-3,1.76l-2.55,1.29c-.19.43-.27.66-.52.66a.43.43,0,0,1-.33-.25l-1.08-1.84c.7,0,1.05.08,3.4-.56,0-.71,0-3.86,0-4.5v-2.55h-.42a14.49,14.49,0,0,0-2.44.18l-.4-.83c1.23.11,2.47.15,3.26.15,0-1,0-2.07,0-3.11a11.47,11.47,0,0,0-.27-3.07l2.09.71c.11,0,.29.12.29.31s-.41.56-.7.74c0,1.45,0,2.16-.06,4.42h.49l.63-.68c.18-.21.24-.27.35-.27s.25.14.35.22l.73.69c.1.1.18.18.18.31S160.52,256.85,160.39,256.85Zm9.27,10.61c-.48.09-4.15.09-4.73.09-3.4,0-4-.17-4-2.43,0-.81.06-4.37.06-5.1,0-.21,0-1.14,0-1.33a11.45,11.45,0,0,0-2,1.1l-.7-.58a28.36,28.36,0,0,0,2.71-1.08v-3.67a10.28,10.28,0,0,0-.23-2.4l1.93.66c.15,0,.31.13.31.29s-.16.33-.66.68c0,.63,0,3.32,0,3.86l2.26-1c0-2.08,0-3.55,0-5a14.16,14.16,0,0,0-.25-1.83l2,.67c.21.06.35.16.35.31s-.29.43-.72.77c-.05,1.86-.05,2.13-.05,4.5l2-.9.49-.83c.11-.16.21-.35.36-.35a.76.76,0,0,1,.39.17l1,.6a.43.43,0,0,1,.2.33c0,.25-.23.46-.52.73,0,6.22,0,7.65-2.46,8.29a2.64,2.64,0,0,0-1.25-1.74v-.1a4.72,4.72,0,0,0,.64,0c1.46,0,1.68-.19,1.68-4.56,0-1.41,0-1.64,0-2.24l-2.46,1.12c0,3,0,5,.06,5.59,0,.27.06,1.5.06,1.75a1,1,0,0,1-1.06,1c-.29,0-.5-.1-.5-.54,0-.22.07-1.28.07-1.49,0-1.33,0-2.11.06-5.76l-2.26,1c0,.83,0,7.2,0,7.45a.69.69,0,0,0,.5.58c.27.08,3.23.08,3.63.08,2.13,0,2.78,0,3.21-.77a17.7,17.7,0,0,0,.91-2.51h.15a7.32,7.32,0,0,0,.39,2.47c.13.21.48.4.48.6S171.22,267.19,169.66,267.46Z"/><path d="M183.43,254.81a21.66,21.66,0,0,0,1.23-3.46h-5.42a13.88,13.88,0,0,0-2.44.19l-.42-.83c1.06.08,2.12.14,3.2.14h12.35l.92-.89a1.23,1.23,0,0,1,.39-.31c.1,0,.19.06.4.23l1.16.93c.08.07.2.19.2.31s-.2.23-.33.23h-8.06a36.1,36.1,0,0,1-2.68,3.46h7.55l.58-.6c.21-.2.27-.27.39-.27s.27.13.38.21l.95.81a.42.42,0,0,1,.17.27c0,.19-.09.25-.83.66,0,2.35,0,5.31,0,7.66,0,1,.1,2.5.1,3.46a.92.92,0,0,1-1,1c-.63,0-.63-.33-.58-1.51h-11.8c0,.08,0,.56,0,.66a1,1,0,0,1-1,1c-.66,0-.66-.46-.66-.65s.06-1.09.06-1.26c0-2.26.14-7,.14-9a14.47,14.47,0,0,0-.29-3.4l2.14,1Zm-3.58.5V266h2.75V255.31Zm7.32,3.15v-3.15H184v3.15Zm0,3.63V259H184v3.13Zm0,3.88v-3.38H184V266Zm4.48,0V255.31h-3.08V266Z"/><path d="M198.82,263.67a26.65,26.65,0,0,0,3.86-7.94h-.48a15.47,15.47,0,0,0-2.44.18l-.4-.83c1.18.11,2.39.15,3.46.15,0-1,0-2.47,0-3.36a19.71,19.71,0,0,1-3.38.37v-.16a34.87,34.87,0,0,0,5.6-2.32,1.62,1.62,0,0,0,.44-.5l1.43,1.2a.37.37,0,0,1,.14.29c0,.21-.2.21-.39.21l-.6,0a18,18,0,0,1-1.93.62c0,.95,0,2.86,0,3.67h.39l.5-.75c.08-.12.19-.27.31-.27s.29.15.4.23l.89.75a.44.44,0,0,1,.21.33c0,.21-.21.21-.32.21h-2.38c0,.39,0,1.32,0,1.82,2,.73,2.72,2,2.72,2.62a.79.79,0,0,1-.77.82c-.5,0-.56-.2-1-1.36a3.78,3.78,0,0,0-1-1.81c0,3.61,0,4,.08,5.6,0,1.41.09,3.05.09,3.8,0,.37,0,1.2-1,1.2-.54,0-.6-.31-.6-.71,0-.68.16-3.73.19-4.35,0-2,0-2.84,0-4.65a13.65,13.65,0,0,1-3.92,5.06Zm6.66,4.38c1.45-.71,3.79-2.08,4.29-3l1.49,1.1a.36.36,0,0,1,.19.31c0,.29-.48.27-1,.27a16.56,16.56,0,0,1-4.94,1.43Zm9.21-16.51.51-.83c.11-.17.21-.29.32-.29s.26.14.39.25l1,.83a.43.43,0,0,1,.2.33c0,.19-.16.21-.31.21h-4.39v1.7h1.65l.5-.75c.08-.12.17-.25.31-.25s.25.13.38.23l.85.72a.48.48,0,0,1,.2.34c0,.18-.18.2-.31.2h-3.58v1.87h3.44l.6-.85c.1-.17.23-.27.33-.27s.25.12.37.25l.9.83a.53.53,0,0,1,.2.33c0,.21-.16.21-.31.21h-8.62a14.53,14.53,0,0,0-2.45.18l-.42-.82c1.06.08,2.14.14,3.2.14H211v-1.87h-.5a13.16,13.16,0,0,0-2.45.21l-.39-.83c.62,0,1.53.13,3.34.13,0-.81,0-1.31,0-1.7h-1.36a14.41,14.41,0,0,0-2.45.18l-.42-.83c1.52.13,2.85.15,3.2.15h1a6,6,0,0,0-.37-2.22l2.12.64a.32.32,0,0,1,.29.31c0,.27-.48.5-.58.54v.73Zm-.48,6.49.48-.52c.08-.08.2-.21.29-.21s.25.13.33.19l.81.68a.54.54,0,0,1,.22.38c0,.21-.24.37-.6.54a7.23,7.23,0,0,0,0,.76c0,.71.17,3.8.17,4.42a.85.85,0,0,1-1,1c-.53,0-.53-.27-.51-.71h-4.94c0,.48.06,1-.93,1-.35,0-.54-.1-.54-.47,0,0,0-.21,0-.5,0-.77,0-3,0-3.92a13.3,13.3,0,0,0-.23-3.28l1.64.73Zm-4.73.5V260h4.94v-1.47Zm0,2V262h4.94V260.5Zm0,2V264h4.94v-1.53Zm3.49,2.82c1.86.16,4.49,1.1,4.49,2.34a.83.83,0,0,1-.82.81c-.48,0-1-.52-1.31-.91a10.69,10.69,0,0,0-2.36-2.1Z"/><path d="M224.87,254.79a1.21,1.21,0,1,1-2.41,0,1.21,1.21,0,0,1,2.41,0Zm0,8.17a1.21,1.21,0,1,1-1.2-1.2A1.21,1.21,0,0,1,224.87,263Z"/><path d="M229.83,266.1H231c1.08,0,1.45-.42,1.45-1.27V253.61c0-.64-.6-.74-1-.74h-1.57v-.65h.37a7.9,7.9,0,0,0,3.38-.87c.15-.08.21-.12.29-.12s.23.12.23.29v13.31c0,.89.44,1.27,1.45,1.27h1.14v.66h-6.88Z"/><path d="M246.13,267.15a4.18,4.18,0,0,1-3.4-2.24,12.91,12.91,0,0,1-1.27-5.91c0-4.41,1.89-7.77,4.67-7.77,2.13,0,4.66,2.3,4.66,8C250.79,264.27,248.66,267.15,246.13,267.15Zm-2.32-12.46a18.79,18.79,0,0,0-.48,4.5c0,4.62,1.1,7.26,2.8,7.26,1.43,0,2.07-1.91,2.3-2.7a19.21,19.21,0,0,0,.5-4.56c0-4.73-1.14-7.26-2.8-7.26C244.66,251.93,244,254,243.81,254.69Z"/><path d="M263.61,251.62v1.1c-3.3,5.08-4.46,8-4.73,12.59,0,.54-.1,1.84-1.16,1.84a1.09,1.09,0,0,1-1.06-1.14c0-1.47,1.46-5.82,5.83-12.75h-3.55c-3,0-3.46,1.39-3.91,2.72l-.63-.15.85-4.21Z"/><path d="M269.79,266a1.2,1.2,0,1,1-1.2-1.2A1.22,1.22,0,0,1,269.79,266Z"/><path d="M275.25,253.26l-.19,5.23a4.37,4.37,0,0,1,3.21-1.44c3,0,4.42,2.47,4.42,4.75a5.26,5.26,0,0,1-5.12,5.35c-2.37,0-3.92-1.76-3.92-3a1.18,1.18,0,0,1,1.2-1.28,1,1,0,0,1,1.08,1.08,2.2,2.2,0,0,1-.1.62,3.36,3.36,0,0,0-.07.58c0,.89.94,1.35,1.77,1.35,1.68,0,3.25-1.6,3.25-4.38,0-2.63-1.39-4.08-2.9-4.08a4.48,4.48,0,0,0-3.23,1.8l-.32-.16.32-8h7.21l-.41,1.64Z"/><path d="M295.65,251.62v1.1c-3.29,5.08-4.46,8-4.73,12.59,0,.54-.1,1.84-1.16,1.84a1.08,1.08,0,0,1-1.05-1.14c0-1.47,1.45-5.82,5.82-12.75H291c-3,0-3.47,1.39-3.92,2.72l-.62-.15.85-4.21Z"/><path d="M302.6,256.56v1.63a4.71,4.71,0,0,1,3.42-1.63,2.3,2.3,0,0,1,2.49,1.86,5.2,5.2,0,0,1,3.71-1.86c1.83,0,2.66,1.1,2.66,3.4v4.89c0,.79.41,1.25,1,1.25h.38v.66H312v-.66h.4c.72,0,1-.56,1-1.25v-4.77c0-.58-.08-2.63-1.8-2.63a3.89,3.89,0,0,0-2.94,1.8,5.05,5.05,0,0,1,0,.71v4.89c0,.87.47,1.25,1,1.25h.61v.66h-4.77v-.66h.6c.58,0,1.06-.4,1.06-1.25v-4.77c0-.43-.07-2.63-1.81-2.63a3.69,3.69,0,0,0-2.8,1.64v5.76c0,.87.48,1.25,1,1.25H304v.66H299.7v-.66h.37c.62,0,1-.44,1-1.25v-6.24a.86.86,0,0,0-.85-1,1.83,1.83,0,0,0-.62.08l-.11-.4Zm10.72-1.23a11.76,11.76,0,0,1,1.21-1.32c.43-.48,1.18-1.29,1.18-2,0-.27-.17-.77-.65-.77a.68.68,0,0,0-.7.56c0,.08.19.45.19.54a.57.57,0,0,1-.58.54.65.65,0,0,1-.63-.71,1.76,1.76,0,0,1,1.83-1.49,1.4,1.4,0,0,1,1.51,1.41,1.66,1.66,0,0,1-.64,1.35c-.23.22-1.51,1.26-1.72,1.55h1.28a.84.84,0,0,0,.81-.7l.33.1-.43,1.43h-3Z"/><path d="M361.4,267.67c-7.53-.1-10.77-.14-13.57-2.86a9.61,9.61,0,0,1-4.23,3.59l-.12-.13a13.21,13.21,0,0,0,3.59-4.31,10,10,0,0,1-1.93-4l.2-.17a9.35,9.35,0,0,0,2.1,3.4,14.27,14.27,0,0,0,1.16-5.64h-1.74c-.42,1.16-.52,1.47-1.2,1.47-.15,0-.75,0-.75-.47a12.11,12.11,0,0,1,.5-1.47c1.07-2.78,1.93-5,2.17-6h-.74a13.44,13.44,0,0,0-2.45.19l-.39-.83c1.05.08,2.11.15,3.17.15h.37l.54-.44c.19-.14.29-.21.4-.21a.8.8,0,0,1,.35.21l.81.69a.43.43,0,0,1,.2.37c0,.25-.41.43-.95.66-.46,1.16-.73,1.87-1.87,5.14h1.41l.56-.43a.77.77,0,0,1,.4-.21.55.55,0,0,1,.39.23l.65.66a.69.69,0,0,1,.24.44c0,.19-.2.31-.64.58a14.26,14.26,0,0,1-1.7,5.7,11.42,11.42,0,0,0,7.22,2.06,46.66,46.66,0,0,0,7.3-.61l0,.17A2.54,2.54,0,0,0,361.4,267.67Zm1.22-12.92h-2.86c.08,2.47.08,2.47.08,2.62,0,.41,0,1.05-1,1.05-.56,0-.53-.33-.51-.68h-2.55v2.16h3.11l.62-.79c.14-.17.23-.27.35-.27s.23.1.39.23l.94.78c.1.11.21.23.21.32s-.15.22-.32.22h-5.3l0,2.2h3.69l.79-.91c.16-.19.24-.27.35-.27s.23.08.37.23l1,.91a.49.49,0,0,1,.2.35c0,.13-.12.19-.31.19H355.8c0,.25,0,1.47,0,1.74a1,1,0,0,1-.92.75c-.66,0-.66-.38-.66-.6s.1-1.58.1-1.89h-1.41a14.61,14.61,0,0,0-2.42.19l-.42-.81c1.62.12,3.16.12,3.2.12h1.07c0-.56,0-1.08.05-2.2h-.63a13.74,13.74,0,0,0-2.42.19l-.42-.81c.63,0,1.79.13,3.49.13v-2.16H354a14.8,14.8,0,0,0-2.44.19l-.42-.81c1.49.1,3.07.12,3.28.12l0-2.49H352.5a13.78,13.78,0,0,0-2.43.19l-.41-.83c1.06.1,2.11.15,3.17.15h1.6l0-2.43h-.5a16.05,16.05,0,0,0-2.45.19l-.39-.83c1.45.12,2.8.14,3.32.14a3.6,3.6,0,0,0-.32-1.93l2,.48c.22.06.35.14.35.33s-.25.38-.58.56v.56h2.4l.52-.45c.15-.13.25-.21.38-.21s.22.1.37.23l.58.56a.62.62,0,0,1,.25.39c0,.17-.17.29-.58.58a11.54,11.54,0,0,0,0,1.83h.74l.6-.77c.13-.17.23-.25.34-.25a.63.63,0,0,1,.39.21l.89.76c.11.11.21.21.21.31S362.83,254.75,362.62,254.75Zm-4.25,0H355.8l0,2.49h2.59Zm0-2.92h-2.53l0,2.43h2.57Z"/><path d="M372.64,260.64c0,2.51,0,2.95,0,4.15,0,.73.08,1.89.08,2.61s-.89,1-1.08,1c-.45,0-.56-.27-.56-.58,0-.09,0-.85,0-1,.09-1.55.09-2.11.13-5.43a21.5,21.5,0,0,1-2.55,1.18c0,.37-.06.73-.4.73s-.35-.23-.41-.36L367,261c1.28.06,1.63,0,4.35-.79,0-1.83,0-3.88,0-5.46h-1.87a16.45,16.45,0,0,1-1.84,4.59l-.13,0a33.26,33.26,0,0,0,.94-7.2,3.7,3.7,0,0,0-.21-1.41l2,.48c.17,0,.35.08.35.31s-.29.41-.62.54a19.08,19.08,0,0,1-.35,2.24h1.72c0-2.93-.1-3.78-.56-4.81l2.28.66c.13,0,.31.14.31.29s-.35.44-.66.6c0,.44,0,2.63,0,3.26h.41l.58-.79c.11-.13.21-.27.31-.27a.65.65,0,0,1,.38.23l.83.79a.47.47,0,0,1,.18.31c0,.18-.18.22-.31.22h-2.38c0,1.33,0,3.65,0,5,.41-.14,2.34-.81,2.71-.95l.07.14A24.78,24.78,0,0,1,372.64,260.64ZM384.87,255c-.16,4.34-.33,8.28-1.64,11a4,4,0,0,1-3.21,2.1c-.15-.94-.48-1.52-1.76-2.45l.06-.15a9,9,0,0,0,2.51.44c.5,0,.83,0,1.41-1.47a32.28,32.28,0,0,0,1.16-10h-1.18c-.6,4.69-2.59,10.72-8.59,13l-.06-.14c4.4-3.3,6.26-6.8,7.13-12.84h-1.16c-.85,4.38-3.19,8.15-6.2,9.56l-.06-.12a17.71,17.71,0,0,0,4.75-9.44h-1a13,13,0,0,1-2.8,4.13l-.1-.11a23.11,23.11,0,0,0,2.67-8.46,2.49,2.49,0,0,0-.1-.7l2.07.83c.21.08.32.21.32.33,0,.27-.4.37-.73.46-.54,1.66-.89,2.5-1.1,3h6l.5-.52c.13-.14.23-.22.31-.22a.87.87,0,0,1,.37.18l1,.73c.14.1.23.17.23.29C385.58,254.69,385.1,254.92,384.87,255Z"/><path d="M397.65,254.81a21.56,21.56,0,0,0,1.22-3.46h-5.41a14.05,14.05,0,0,0-2.45.19l-.41-.83c1.06.08,2.11.14,3.19.14h12.36l.91-.89a1.35,1.35,0,0,1,.4-.31c.1,0,.18.06.39.23l1.16.93a.47.47,0,0,1,.21.31c0,.21-.21.23-.33.23h-8.07a36.11,36.11,0,0,1-2.67,3.46h7.54l.59-.6c.2-.2.26-.27.39-.27a.88.88,0,0,1,.37.21l1,.81a.39.39,0,0,1,.16.27c0,.19-.08.25-.83.66,0,2.35,0,5.31,0,7.66,0,1,.11,2.5.11,3.46a.93.93,0,0,1-1,1c-.62,0-.62-.33-.58-1.51h-11.8c0,.08,0,.56,0,.66a1,1,0,0,1-1,1c-.67,0-.67-.46-.67-.65s.06-1.09.06-1.26c.05-2.26.15-7,.15-9a14.47,14.47,0,0,0-.29-3.4l2.14,1Zm-3.59.5V266h2.76V255.31Zm7.32,3.15v-3.15h-3.17v3.15Zm0,3.63V259h-3.17v3.13Zm0,3.88v-3.38h-3.17V266Zm4.48,0V255.31h-3.07V266Z"/><path d="M413,263.67a27.14,27.14,0,0,0,3.86-7.94h-.48a15.58,15.58,0,0,0-2.45.18l-.39-.83c1.18.11,2.38.15,3.46.15,0-1,0-2.47,0-3.36a19.71,19.71,0,0,1-3.38.37v-.16a35.25,35.25,0,0,0,5.6-2.32,1.43,1.43,0,0,0,.43-.5l1.43,1.2a.35.35,0,0,1,.15.29c0,.21-.21.21-.4.21l-.6,0a17.59,17.59,0,0,1-1.92.62c0,.95,0,2.86,0,3.67h.39l.5-.75c.08-.12.18-.27.31-.27s.29.15.39.23l.9.75a.43.43,0,0,1,.2.33c0,.21-.2.21-.31.21h-2.38c0,.39,0,1.32,0,1.82,2,.73,2.71,2,2.71,2.62a.79.79,0,0,1-.76.82c-.5,0-.56-.2-1-1.36a3.86,3.86,0,0,0-1-1.81c0,3.61,0,4,.08,5.6,0,1.41.08,3.05.08,3.8,0,.37,0,1.2-1,1.2-.54,0-.61-.31-.61-.71,0-.68.17-3.73.19-4.35,0-2,0-2.84,0-4.65a13.55,13.55,0,0,1-3.92,5.06Zm6.65,4.38c1.46-.71,3.8-2.08,4.3-3l1.49,1.1a.38.38,0,0,1,.19.31c0,.29-.48.27-1,.27a16.5,16.5,0,0,1-4.93,1.43Zm9.21-16.51.52-.83c.1-.17.21-.29.31-.29s.27.14.4.25l1,.83a.44.44,0,0,1,.21.33c0,.19-.17.21-.31.21h-4.4v1.7h1.66l.5-.75c.08-.12.16-.25.31-.25s.25.13.37.23l.85.72a.46.46,0,0,1,.21.34c0,.18-.19.2-.31.2h-3.59v1.87h3.44l.61-.85c.1-.17.22-.27.33-.27s.25.12.37.25l.89.83a.51.51,0,0,1,.21.33c0,.21-.17.21-.31.21h-8.63a14.66,14.66,0,0,0-2.45.18l-.41-.82c1.06.08,2.14.14,3.19.14h1.35v-1.87h-.5a13,13,0,0,0-2.44.21l-.4-.83c.62,0,1.54.13,3.34.13,0-.81,0-1.31,0-1.7h-1.37a14.37,14.37,0,0,0-2.44.18l-.42-.83c1.51.13,2.84.15,3.19.15h1a6,6,0,0,0-.37-2.22l2.11.64a.31.31,0,0,1,.29.31c0,.27-.48.5-.58.54v.73Zm-.48,6.49.48-.52c.08-.08.21-.21.29-.21s.25.13.33.19l.81.68a.52.52,0,0,1,.23.38c0,.21-.25.37-.6.54a7.23,7.23,0,0,0,0,.76c0,.71.16,3.8.16,4.42a.85.85,0,0,1-1,1c-.54,0-.54-.27-.52-.71H423.7c0,.48.06,1-.94,1-.35,0-.53-.1-.53-.47,0,0,0-.21,0-.5,0-.77,0-3,0-3.92a13.3,13.3,0,0,0-.23-3.28l1.64.73Zm-4.72.5V260h4.93v-1.47Zm0,2V262h4.93V260.5Zm0,2V264h4.93v-1.53Zm3.48,2.82c1.87.16,4.5,1.1,4.5,2.34a.84.84,0,0,1-.83.81c-.48,0-1-.52-1.31-.91a10.22,10.22,0,0,0-2.36-2.1Z"/><path d="M439.08,254.79a1.2,1.2,0,1,1-2.4,0,1.2,1.2,0,0,1,2.4,0Zm0,8.17a1.2,1.2,0,1,1-1.2-1.2A1.2,1.2,0,0,1,439.08,263Z"/><path d="M448.4,260.75a3.52,3.52,0,0,1-1.81.53c-2,0-3.71-2.07-3.71-4.6,0-2.86,2.05-5.45,4.44-5.45s4.77,2.69,4.77,7.15c0,4.79-2.7,8.77-5.87,8.77-1.39,0-2.36-.83-2.36-1.8a1,1,0,0,1,1.05-1.08c.42,0,1.1.27,1.14,1.43,0,.46.07.75.63.75a2,2,0,0,0,1.51-.73c1.85-2,1.95-5.1,2-6.94A5.38,5.38,0,0,1,448.4,260.75Zm.68-7.7a2,2,0,0,0-1.68-1.12c-1.1,0-2.65,1.16-2.65,4.56,0,1,.23,3.86,2.36,3.86.79,0,2.12-.58,3.09-2.82A10,10,0,0,0,449.08,253.05Z"/><path d="M465,251.62v1.1c-3.3,5.08-4.46,8-4.73,12.59,0,.54-.1,1.84-1.16,1.84A1.09,1.09,0,0,1,458,266c0-1.47,1.45-5.82,5.83-12.75H460.3c-3,0-3.46,1.39-3.92,2.72l-.62-.15.85-4.21Z"/><path d="M471.15,266a1.21,1.21,0,1,1-1.2-1.2A1.22,1.22,0,0,1,471.15,266Z"/><path d="M483,266.76h-8.15v-.56a14.13,14.13,0,0,1,3.05-4.65c3.05-3.52,4.09-4.7,4.09-6.78a2.67,2.67,0,0,0-2.76-2.84c-1.45,0-2.32.87-2.32,1.62a1.17,1.17,0,0,0,.2.64,1.82,1.82,0,0,1,.44,1,1.15,1.15,0,0,1-1.12,1.16,1.3,1.3,0,0,1-1.18-1.45,4.15,4.15,0,0,1,4.45-3.71c2.58,0,4.15,1.62,4.15,3.85s-1.2,3.24-3.07,4.84c-.7.58-3.44,2.92-4.48,5.2h2.87c2.9,0,3.58-1.12,4.2-2.84l.63.23Z"/><path d="M492.39,267.15a4.19,4.19,0,0,1-3.41-2.24,12.9,12.9,0,0,1-1.26-5.91c0-4.41,1.89-7.77,4.67-7.77,2.13,0,4.66,2.3,4.66,8C497.05,264.27,494.91,267.15,492.39,267.15Zm-2.33-12.46a18.85,18.85,0,0,0-.47,4.5c0,4.62,1.1,7.26,2.8,7.26,1.43,0,2.07-1.91,2.3-2.7a19.28,19.28,0,0,0,.49-4.56c0-4.73-1.14-7.26-2.79-7.26C490.91,251.93,490.27,254,490.06,254.69Z"/><path d="M504,256.56v1.63a4.71,4.71,0,0,1,3.42-1.63,2.3,2.3,0,0,1,2.49,1.86,5.16,5.16,0,0,1,3.71-1.86c1.82,0,2.65,1.1,2.65,3.4v4.89c0,.79.42,1.25,1,1.25h.38v.66h-4.34v-.66h.39c.73,0,1-.56,1-1.25v-4.77c0-.58-.08-2.63-1.8-2.63a3.92,3.92,0,0,0-3,1.8,5.05,5.05,0,0,1,0,.71v4.89c0,.87.48,1.25,1,1.25h.6v.66H506.9v-.66h.6c.58,0,1.06-.4,1.06-1.25v-4.77c0-.43-.06-2.63-1.8-2.63a3.68,3.68,0,0,0-2.8,1.64v5.76c0,.87.48,1.25,1,1.25h.38v.66h-4.31v-.66h.37c.62,0,1-.44,1-1.25v-6.24a.86.86,0,0,0-.85-1,1.93,1.93,0,0,0-.63.08l-.1-.4Zm10.72-1.23a12.43,12.43,0,0,1,1.2-1.32,3.71,3.71,0,0,0,1.18-2c0-.27-.16-.77-.64-.77a.68.68,0,0,0-.7.56c0,.08.18.45.18.54a.57.57,0,0,1-.58.54.65.65,0,0,1-.62-.71,1.76,1.76,0,0,1,1.83-1.49,1.4,1.4,0,0,1,1.51,1.41,1.66,1.66,0,0,1-.64,1.35c-.23.22-1.52,1.26-1.73,1.55H517c.54,0,.7-.41.81-.7l.33.1-.44,1.43h-3Z"/><path class="cls-2" d="M110.54,165.4a24.3,24.3,0,0,0,6.69-6.42H111.5v-3.16h6.69v-3.19h-6.86V149.5H115a28.66,28.66,0,0,0-1-4.91h-2v-3.12h6.2v-2.85h3.16v2.85h5.7v3.12H125.5c-.69,3.16-.76,3.54-1.18,4.91h3.23v3.13h-6.2v3.19h5.44V159H122a17.07,17.07,0,0,0,4,3.91L124.38,166a17.89,17.89,0,0,1-3-3.67v8.62h-3.16v-8.55a25.72,25.72,0,0,1-5.84,6.18ZM117,144.59a40.72,40.72,0,0,1,1,4.91h3.33a40.21,40.21,0,0,0,1-4.91Zm25.15-2.74A26.2,26.2,0,0,1,132,144.42v5.22h10.19v3.3h-3.23v18h-3.43v-18H132v.92c0,9.58-1.81,13.25-4.41,17.07l-3.2-2.31c2.87-3.57,4.32-7.07,4.32-14.65V141.19a23.66,23.66,0,0,0,11.6-2.57Z"/><path class="cls-2" d="M159.62,155.41c-2.28.51-9.46,1.68-11.67,2l-.53-3.15c.3,0,4.68-.48,5.47-.59v-3.43H149v-2.75h.23l-2.07-2.23a16.42,16.42,0,0,0,5-6.69l3.23.61a11.53,11.53,0,0,1-.52,1.45h7.71v2.74h-5a19.81,19.81,0,0,1,.89,1.79l-3.23,1.23a17.23,17.23,0,0,0-1.06-3h-.85a19.1,19.1,0,0,1-3.5,4.12h10.09v2.75H156v3.09c2.24-.28,2.94-.41,3.86-.59v2c2.67-1.75,3-3.64,3.13-7.76h11.86v6.38c0,.62.14.76.4.76.73,0,.79,0,.86-.93,0-.27,0-1.61,0-1.92L179,152c-.16,3.64-.26,4.8-2.07,4.8h-3.07c-1,0-2-.65-2-2.33V149.6h-5.93a9.8,9.8,0,0,1-4.06,7.8h2.84v1.41h13.91v2.95H167.3c1.55,1.27,3.72,3,11.73,5L177.55,170a31.78,31.78,0,0,1-12.92-6.9v7.72h-3.2v-7.76c-3.92,4.05-9.36,6-12.79,6.94l-1.35-3.26a28.26,28.26,0,0,0,11.6-5H147.62v-2.95h13.81v-1.17ZM167,143.32a13.1,13.1,0,0,1-2.34,3.13l-2.8-2a12.64,12.64,0,0,0,3.65-5.73l3.33.51c-.19.59-.29.9-.46,1.38h10.19v2.74H172a9.78,9.78,0,0,1,.86,1.75l-3,1.27c-.26-.68-.92-2.26-1.28-3Zm1.09,6.87a25.17,25.17,0,0,1,3.46,3.57l-2.15,2.09a27.29,27.29,0,0,0-3.36-3.6Z"/><path class="cls-2" d="M188.76,151.25c-1.55,1.44-2.51,2.2-3.4,2.89L183,151a23.67,23.67,0,0,0,9.89-12.49l3.42.92a29,29,0,0,1-7.18,11.4h20.3c0,3.47-.1,12.39-1.35,16.93-.86,3.09-3.1,3.19-4.55,3.19h-5l-.66-3.64h5c1.88,0,2.18-1.72,2.44-3.23a57.1,57.1,0,0,0,.66-9.78h-7.65c-.85,9.27-5.43,13.66-12.26,16.65l-2-3.3c7.15-3.12,9.92-6.24,10.75-13.35h-6Zm24.32,2.61a35,35,0,0,1-10.68-14.31l3.43-1c1.71,4.29,5.24,9.61,9.65,12.36Z"/><path class="cls-2" d="M220,144.45h10.91v3.06H220Zm.83-5.08h9v3.09h-9Zm0,10.06h9v3.13h-9Zm0,5.12h9v3h-9Zm0,5.25h9v9.79h-6.07V171h-3Zm3,2.95v4h3.1v-4Zm27-.68a39.06,39.06,0,0,1-3.59,3.09,18,18,0,0,0,4,2.64L249.53,171c-4.22-2.41-7.87-6-9-10.85a15.91,15.91,0,0,1-2.35,2.13v4.6c2.61-.21,3.66-.38,4.92-.55v3.23c-2.48.37-7.65,1-11,1.06l-.56-3.47c1,0,1.81,0,3.56-.07V164.3a26.34,26.34,0,0,1-3.69,1.65l-1.35-3a18.75,18.75,0,0,0,6.85-3.3h-6v-2.57h4.68v-1.75h-3.49V153h3.49v-1.51h-4.05V149h4.05v-1.13h3V149h5v-1.13h3V149h4.28v2.44h-4.28V153h3.62v2.37h-3.62v1.75h4.48v2.57h-7.78a21,21,0,0,0,1.81,3.09,23.75,23.75,0,0,0,3.1-2.85Zm-19.31-16.45a24.29,24.29,0,0,0,6.06-2.06h-6.39v-2.88h8.17v-1.92h3.33v1.92h8.34v2.88h-6.33a22.72,22.72,0,0,0,6.33,2.17l-1.35,2.43a20.6,20.6,0,0,1-7-2.43l1.68-2.17H237.8l2,2.17a30.18,30.18,0,0,1-6.92,2.64Zm7.05,5.84V153h5v-1.51Zm0,3.88v1.75h5v-1.75Z"/><path class="cls-2" d="M259.42,154.41a23.19,23.19,0,0,1-2.27,2.85l-1.48-4.39a28.22,28.22,0,0,0,5.7-14.15l3.43.45a29.83,29.83,0,0,1-2,8.55v23.17h-3.36Zm18.33-8.86a30.75,30.75,0,0,0-6.46-4.32l2.11-2.89a46.55,46.55,0,0,1,6.62,4.12l-2,3.09h8.54V149h-8.84v6.49h7.62v3.4h-7.62v7.62h9.59v3.33H264.63v-3.33h9.56v-7.62h-7.65v-3.4h7.65V149h-8.74v-3.4Z"/><path class="cls-2" d="M307.58,156.2l15.65-1.72.27,3.4-15.92,1.75v6.8c0,.65.46.65.69.65h9.06a1,1,0,0,0,1.06-.89,44.32,44.32,0,0,0,.23-4.6l3.59.92c-.13,5.19-.3,8.14-3.59,8.14H307.28c-.86,0-3.16,0-3.16-2.54V160l-11.34,1.27-.23-3.43,11.57-1.28v-4.15c-1.91.24-4.06.38-5.94.52l-1.08-3.51c2.53-.1,12-.44,19.51-3.22l1.71,3.22A46.48,46.48,0,0,1,307.58,152Zm-1.22-17.55h3.43v3h12.82v8.21h-3.43v-4.77H297v4.77H293.5v-8.21h12.86Z"/><path class="cls-2" d="M334.05,150.53c-1.49.89-2.71,1.48-4,2.13l-1.69-3.47a32.93,32.93,0,0,0,14-10.57h3.7a29.79,29.79,0,0,0,14.23,10.47l-1.84,3.5a27.6,27.6,0,0,1-4-2.06v2.58H346v4.63h10.41v3.09H346v5.56h13.35v3.51H329.07v-3.51h13.38v-5.56H332.1v-3.09h10.35v-4.63h-8.4Zm19.24-.79a42.37,42.37,0,0,1-9.09-8.1,37.55,37.55,0,0,1-8.9,8.1Z"/><path class="cls-2" d="M369.78,158.6c0,3.4-.07,5.8,6.85,5.8,4.68,0,6.79-.75,6.79-4.43,0-1.85-.2-4.43-5-4.43h-4.09v-3.33h4.09c1.65,0,4.71,0,4.71-3.88,0-3.09-1.75-4.12-5.67-4.12-7,0-7.05,2.31-7.08,4.95h-4c.23-7.66,4.12-8.65,10.84-8.65,3.07,0,9.79,0,9.79,7.34,0,4.81-2.9,5.63-3.69,5.88,1,.37,4,1.47,4,6.42,0,7.55-6.19,8-10.25,8-9.32,0-11.24-2.92-11.24-9.51Z"/><path class="cls-2" d="M392.88,159.32a31.07,31.07,0,0,0,4.75-11.09h-4.26v-3.29h4.36v-6.25h3.16v6.25h3.66v3.29h-3.66v1.2a18.73,18.73,0,0,0,4.05,6.42L403.26,159a21.15,21.15,0,0,1-2.37-4.29v16.17h-3.16V155.78c-1.42,5.09-2.74,6.87-3.63,8.11Zm9.79,7.24A22.61,22.61,0,0,0,411,159h-5.67V146.62h7.42v-2h-8.24V141.3h8.24v-2.61h3.1v2.61h8.5v3.36h-8.5v2h7.44V159H417.9a24.58,24.58,0,0,0,7,7.25L423,169.31a23.5,23.5,0,0,1-7.11-8.51v10.09h-3.1v-9.65a24.31,24.31,0,0,1-8.24,8.41Zm5.77-17.23v2.27h4.35v-2.27Zm0,4.7v2.24h4.35V154Zm7.45-4.7v2.27h4.45v-2.27Zm0,4.7v2.24h4.45V154Z"/><path class="cls-2" d="M448.62,158.6c0,3.4-.07,5.8,6.85,5.8,4.68,0,6.79-.75,6.79-4.43,0-1.85-.2-4.43-5-4.43h-4.09v-3.33h4.09c1.65,0,4.71,0,4.71-3.88,0-3.09-1.74-4.12-5.67-4.12-7,0-7.05,2.31-7.08,4.95h-4c.23-7.66,4.12-8.65,10.85-8.65,3.06,0,9.78,0,9.78,7.34,0,4.81-2.9,5.63-3.69,5.88,1,.37,4,1.47,4,6.42,0,7.55-6.19,8-10.25,8-9.32,0-11.24-2.92-11.24-9.51Z"/><path class="cls-2" d="M479.3,161.79c-.33.62-.66,1.17-1.28,2.13l-3.43-1.37a45.61,45.61,0,0,0,3.76-7.25h-6V152h30.91v3.26H482.14c-.27.69-1.09,2.72-1.35,3.27h19.47c-.19,2.64-.65,8-1.71,10a4.1,4.1,0,0,1-3.82,2.37h-5.8l-.76-3.61h5.93c1.19,0,2.08-.62,2.44-5.53Zm21.19-22v9.78H475.31v-9.78Zm-21.88,3.12v3.57H497.2v-3.57Z"/><path class="cls-2" d="M507.65,159.32a31.07,31.07,0,0,0,4.75-11.09h-4.26v-3.29h4.35v-6.25h3.17v6.25h3.66v3.29h-3.66v1.2a18.73,18.73,0,0,0,4.05,6.42L518,159a21.15,21.15,0,0,1-2.37-4.29v16.17h-3.17V155.78c-1.41,5.09-2.73,6.87-3.62,8.11Zm9.79,7.24a22.7,22.7,0,0,0,8.37-7.55h-5.67V146.62h7.42v-2h-8.24V141.3h8.24v-2.61h3.09v2.61h8.51v3.36h-8.51v2h7.45V159h-5.44a24.81,24.81,0,0,0,7,7.25l-1.92,3.05a23.62,23.62,0,0,1-7.12-8.51v10.09h-3.09v-9.65a24.31,24.31,0,0,1-8.24,8.41Zm5.77-17.23v2.27h4.35v-2.27Zm0,4.7v2.24h4.35V154Zm7.44-4.7v2.27h4.45v-2.27Zm0,4.7v2.24h4.45V154Z"/></g></svg>