<svg xmlns="http://www.w3.org/2000/svg" width="650" height="295" viewBox="0 0 650 295"><defs><style>.cls-1{fill:#00ae22;}.cls-2{fill:#fff;}</style></defs><title>joho_matome</title><g id="レイヤー_3" data-name="レイヤー 3"><path class="cls-1" d="M82.36,83.26H104.7v3.86H97.28v1.95h6.59v17h-3.74v-1.06H86.91v1.06H83.19v-17h5.7V87.12H82.36Zm4.55,14.79v3.24h13.22v-2a2,2,0,0,1-1.28.47H95.58a1.74,1.74,0,0,1-1.7-1.88V92.78H92.21a11,11,0,0,1-3.2,7.84Zm0-5.27v4.55a6.91,6.91,0,0,0,2-4.55Zm5.37-5.66v1.95h1.6V87.12Zm7.85,7.39V92.78H97.28v2.85c0,.49,0,.74.4.74.75,0,.89,0,1-2.15Z"/><path class="cls-1" d="M117.31,104.19v.27c-2.59.66-8,1.41-9.26,1.56l-.33-3.84c1-.07,1.93-.15,3.58-.34V96h-3.39V92.58h3.39v-1h-1.81v-1a6.44,6.44,0,0,1-1.23.89l-1-4.08a12.5,12.5,0,0,0,4.1-4.72h3.74A10,10,0,0,0,118,86.1a17.07,17.07,0,0,0,.12-2.77l3.37.37c0,.72,0,1.41-.17,2.87h.9V82.62h3.51v3.95h3.91v3.69h-3.91v1.66a7.49,7.49,0,0,1,0,.79h4.38v3.83h-3.82a13.14,13.14,0,0,0,4.29,5.91l-2.24,3.71a13.8,13.8,0,0,1-4.17-6.53,13.65,13.65,0,0,1-5.48,6.63ZM110,96.54a28,28,0,0,1,.82,4.21l-2.59.79a20.74,20.74,0,0,0-.61-4.26ZM115,88.06a13.35,13.35,0,0,1-1.58-2.23,15,15,0,0,1-1.55,2.23Zm2.69,8.48V92.71h4.59a4.1,4.1,0,0,0,0-.57V90.26h-1.49a15.86,15.86,0,0,1-.66,2.1L117,90.85a21.48,21.48,0,0,0,1.08-4.7l-1.74,3.07v2.33h-1.79v1H117V96h-2.45v5.42c1.36-.2,2-.32,2.78-.45l0,1.34a9.85,9.85,0,0,0,4.22-5.74Zm.35.52a28.46,28.46,0,0,1-1,3.59l-2.26-.55a17,17,0,0,0,.8-3.58Z"/><path class="cls-1" d="M133.06,102.48a21.68,21.68,0,0,0,6.12-1.44h-4V83.33h18.47V101h-4.19a20.53,20.53,0,0,0,6.19,1.44l-1.74,3.78a22.82,22.82,0,0,1-8-3.24l2.19-2h-7.8l2.57,2.18c-1.74,1.14-3.55,2-8.1,3.12Zm6-15.54v1.29h10.72V86.94Zm0,4.53v1.46h10.72V91.47Zm0,4.65V97.6h10.72V96.12Z"/><path class="cls-1" d="M165.5,97.43a17.79,17.79,0,0,0,4.72-2.52l-.52-.64a17.9,17.9,0,0,1-3.54,2l-1.43-2.74c3.22-.92,4.26-1.88,4.83-2.4h-2.34V89h-1.39v2.79h-1.57V97.6c.49-.14.8-.27,1.2-.39l.23,3.61a48.7,48.7,0,0,1-6.78,2.57l-.4-4.3c.47-.1,1-.2,2.26-.52V91.79h-1.91V88h1.91V82.67h3.49V88h1.34V83.21h14.89V89h-1.75v2.08h-2.45c.29,1.63.45,2.3.57,2.82a16.9,16.9,0,0,0,2.62-3.17l1.79,3.66A22.79,22.79,0,0,1,178,97.26a13.86,13.86,0,0,0,3.21,4.45l-2.83,3.07c-2.5-3.14-4.43-8.91-4.78-13.7h-.31a18,18,0,0,1-1.43,1.48,11.52,11.52,0,0,1,3.34,8.61c0,3.86-1.72,4.87-2.92,4.87h-2.73l-.57-2.87a30.82,30.82,0,0,1-3.82,2.33l-1.64-2.82A23.28,23.28,0,0,0,171.75,98a7.41,7.41,0,0,0-.31-.86,17.53,17.53,0,0,1-4.66,2.91Zm11.43-9.35V86.67h-7.84v1.41Zm-5.89,15c.54,0,1.23-.07,1.13-2.52a21.75,21.75,0,0,1-3.06,2.52Z"/><path class="cls-1" d="M186.86,97.38a37.17,37.17,0,0,1-.8,7.7l-2.31-2c.49-1.75.52-2,.73-5.93ZM193.22,96l-2.1.74a9,9,0,0,0-.12-1,5.9,5.9,0,0,0-.66.1v10.24H187.4V96.27c-2,.25-2.43.27-3.06.3L184.05,93l1.32,0c.33-.44.71-1,1-1.36a22.1,22.1,0,0,0-2.57-2.82l1.46-3.64c.12.13.29.25.45.42a20.76,20.76,0,0,0,1.27-3l3.18.74a38.26,38.26,0,0,1-2.35,4.53c.19.2.4.47.56.67a35.78,35.78,0,0,0,2-3.46l2.94,1.28a48,48,0,0,1-3.13,4.85l2.14-.72a23.49,23.49,0,0,1,1.11,3.12V84.25h4a11.85,11.85,0,0,0,.47-1.71l4.13.23c-.22.59-.38,1.06-.55,1.48h4.55v9.92h-4.62a12.12,12.12,0,0,0,1,2.25,11.63,11.63,0,0,0,1.7-2.15l2.8,2.32a20.82,20.82,0,0,1-2.64,2.5,13.75,13.75,0,0,0,2.74,2.55l-1.86,3.88a12,12,0,0,1-3.73-5.12v3.41c0,1.44-.26,2.28-1.91,2.28h-3.36l-.48-3a8,8,0,0,1-2.09,2.57l-2-2.59a1.3,1.3,0,0,0,.21-.18l-.59.15a53.64,53.64,0,0,0-.28-5.69L193,97c.12,1,.31,2.54.38,4a9.61,9.61,0,0,0,1.18-2.45h-1.37Zm-4.36-3.29,1.53-.1c-.07-.22-.35-1.18-.4-1.38C189.28,92.19,189.05,92.49,188.86,92.73Zm8.95,2.4v-1h-4.26c.14.54.19.71.23,1Zm-.73,7.1c.59,0,.73-.17.73-.74V96.25a18.11,18.11,0,0,1-1.76,6ZM197,87.07v1.09h5.21V87.07Zm0,3.29v1.16h5.21V90.36Z"/><path class="cls-1" d="M229.67,80.1h-7.24v26.37H217v-32h12.63Z"/><path class="cls-1" d="M233.91,75.38h30.94v5.34H254.57v2.71h9.14V107h-5.19v-1.48H240.21V107h-5.16V83.43H243V80.72h-9Zm6.3,20.47v4.49h18.31V97.53a2.81,2.81,0,0,1-1.76.65h-4.54a2.41,2.41,0,0,1-2.35-2.6v-7h-2.32c-.26,6.54-3.2,9.55-4.44,10.86Zm0-7.29v6.3a9.57,9.57,0,0,0,2.74-6.3Zm7.44-7.84v2.71h2.22V80.72ZM258.52,91v-2.4h-3.95V92.5c0,.68,0,1,.55,1,1.05,0,1.24,0,1.38-3Z"/><path class="cls-1" d="M282.31,104.35v.37c-3.6.93-11,2-12.83,2.16l-.46-5.31c1.34-.1,2.68-.2,5-.48V93h-4.7V88.29H274V86.85h-2.51v-1.4a9.73,9.73,0,0,1-1.7,1.23L268.43,81a17.32,17.32,0,0,0,5.68-6.54h5.19a13.76,13.76,0,0,0,4,4.83,22.27,22.27,0,0,0,.16-3.84l4.67.52c0,1,0,2-.23,4h1.24V74.49H294V80h5.42v5.1H294v2.29a10,10,0,0,1-.06,1.1H300v5.31h-5.29a18.15,18.15,0,0,0,5.94,8.18l-3.1,5.14a19.15,19.15,0,0,1-5.78-9,18.93,18.93,0,0,1-7.6,9.17ZM272.19,93.77a38,38,0,0,1,1.14,5.82l-3.59,1.09a28.57,28.57,0,0,0-.85-5.89ZM279,82a17.89,17.89,0,0,1-2.19-3.08A20.07,20.07,0,0,1,274.7,82Zm3.72,11.75V88.46h6.37c0-.38,0-.52,0-.79v-2.6H287.1a22.17,22.17,0,0,1-.91,2.91l-4.37-2.09a30.51,30.51,0,0,0,1.5-6.5l-2.42,4.24v3.22h-2.48v1.44h3.4V93h-3.4v7.5c1.89-.28,2.77-.45,3.85-.62l0,1.85a13.71,13.71,0,0,0,5.84-7.94Zm.49.71a40,40,0,0,1-1.37,5l-3.13-.75a24.43,24.43,0,0,0,1.11-5Z"/><path class="cls-1" d="M318.27,103.59l-.36.72a27.43,27.43,0,0,1-2.78-3.63v6.44h-4.86v-6a22.47,22.47,0,0,1-4.6,4.63l-2.06-5.93a24.09,24.09,0,0,0,4.73-3.9h-3.78V91h5.71V89.38h-5.94v-5h2.81a30.78,30.78,0,0,0-.59-3h-1.63v-5h5.35v-2h5v2h5v5h-1.57c-.19,1.06-.23,1.27-.65,3h2.35v5h-5.29V91h5.09v4.86h-3.39a21.42,21.42,0,0,0,3.26,3.32,24.36,24.36,0,0,0,1.18-7.84V76.2a36.08,36.08,0,0,0,12-2.12l2,5.37a30.77,30.77,0,0,1-9,1.89v3h9V89.9H333v17.22h-5.12V89.9h-1.57v1.5c0,8.67-2.68,13.63-3.82,15.72Zm-7.12-22.22c.23,1.06.49,2.67.55,3h1.9c.16-.75.39-1.89.52-3Z"/><path class="cls-1" d="M344.53,86H340V76.71H352.4V74.56h5.35v2.15h12.44V86h-4.54v7.3h-7.87c-.16.44-.42,1.37-.46,1.5h11.13V107h-5.28v-1.3H347v1.19h-5.32V94.79h10c.16-.58.26-.85.43-1.5h-7.61Zm20.27-3.15V81.41H345.41v1.43ZM347,98.94v2.19h16.16V98.94Zm2.55-11.75v1.92h11V87.19Z"/><path class="cls-1" d="M387.44,107.05H374.81V101.4h7.25V75h5.38Z"/><path class="cls-1" d="M401.54,96.54a32.26,32.26,0,0,1-1.05,9.52l-2.35-2c.56-1.74.95-3.25,1.08-7.63Zm7.11-.41a23.48,23.48,0,0,1,.62,4c.1-1,.17-4.25.2-5h-9.69V75.34h13.77v4.28h-3.46v1.44H413v3.32h-2.9v1.51H413v3.6h-2.9V91.1h3.46c-.07.75-.13,4.51-.16,5.37,0,.55-.14,2.88-.43,5.27a28.85,28.85,0,0,0,1.93-10.06V75.34h14.33V92h-3.14a19.9,19.9,0,0,0,4.24,9.62l-3.19,5.72c-2.55-2.81-4.74-6.3-5.85-15.34h-1.53v.65c0,9-2.12,12.71-3.33,14.69l-3.79-3.53c-.55,2.09-1.59,3.33-4.66,3.33h-2.45l-1.08-4.35h3.1c1.37,0,1.44-.28,1.64-1.92l-1.38.31c-.06-1.06-.26-3.32-.48-4.76Zm-4.57.41c.1,2,.13,2.91.13,3.66s0,2.13-.09,3.29l-2.13.24a49,49,0,0,0,.4-5.51,11.06,11.06,0,0,0-.1-1.61Zm.33-16.92v1.44h1.79V79.62Zm0,4.76v1.51h1.79V84.38Zm0,5.11V91.1h1.79V89.49Zm2.12,6.91a33.44,33.44,0,0,1,.43,5.24l-2,.28a21.26,21.26,0,0,0,.13-2.33,18.78,18.78,0,0,0-.23-3Zm13.38-15.58v6h4.21v-6Z"/><path class="cls-1" d="M433.55,79.49a14.09,14.09,0,0,0,4.83-5.31l5.06,1.54a29.61,29.61,0,0,1-7.77,9.59Zm8,24.21V107h-5.16V95.61c-.59.55-.91.83-1.5,1.34l-1.34-7.19a26.28,26.28,0,0,0,6.53-7.6l4,2.64h7.64V82.43h-7.21v-5.2h7.21V74.39h5.29v2.84h7.21v5.2h-7.21V84.8h8V90h-8v2.33h6.75v5.2h-6.75V101c.65,0,1.79.1,3.52.1,2.09,0,3.5-.07,4.87-.14l-1.08,5.41c-10.31.11-13.12-.17-16.55-4.21a17.56,17.56,0,0,1-3.23,5.21Zm8.45-12a41.83,41.83,0,0,1-.65,5,7.55,7.55,0,0,0,2.38,2.6V90h-7.93V86.16a25.72,25.72,0,0,1-2.25,3.6V102.5c1.2-1.37,3.13-4.08,3.62-11.2Z"/><path class="cls-1" d="M470.39,101.61c2.09,0,10.8-.07,15.4-2.43a3.08,3.08,0,0,1-1,.13h-6.27l-.85-4.62a20.81,20.81,0,0,1-5.16,4.11l-3.42-4.52A21.14,21.14,0,0,0,476,88.84h-6.53V83.67h4.41V76h5.35v7.71h3.3V74.56h5.32v2.15h10.12v5H487.82v1.92h12.5v5.17h-6.1a31.19,31.19,0,0,0,6.69,5.61l-3.43,4.45a33.6,33.6,0,0,1-7.9-7.67L493,88.84h-5.22V96a3.2,3.2,0,0,1-.79,2.39,15.3,15.3,0,0,0,4.12-4.14L495,98.05c-2.42,3.22-7.25,8.8-22.85,9.21Zm10.22-10.38a15.16,15.16,0,0,1-2.55,3.08h3.46c1,0,1-.92,1-1.23V88.84H477Z"/><path class="cls-1" d="M505.73,84.21c0-6.19,3.65-7.7,10.93-7.7s11.78.85,11.78,7.67c0,2.43-.62,4.52-3.1,5.61a3.76,3.76,0,0,1,2,1.17c1.54,1.78,1.57,4.69,1.57,5.31,0,7.12-5.48,7.77-11.29,7.77s-12.28-.14-12.28-7.71c0-.68.07-3.66,1.6-5.37a3.89,3.89,0,0,1,1.93-1.17C506.58,88.8,505.73,86.92,505.73,84.21Zm5.35,11.34c0,2.6,1.14,3,6,3,5.15,0,6-.51,6-3.25s-1.63-3-6-3C512.26,92.29,511.08,92.6,511.08,95.55Zm.43-10.82c0,2.36,1,2.7,6,2.7,4.67,0,5.19-.65,5.19-2.87,0-2-.59-2.68-5.58-2.68C511.86,81.88,511.51,82.64,511.51,84.73Z"/><path class="cls-1" d="M538.72,89.21c-.78.72-1.27,1.13-2,1.75l-3.53-5.27a21.17,21.17,0,0,0,9-11.41l5.35,1.06a32,32,0,0,1-5.51,10.31h14.52a42,42,0,0,1-5.45-10.13l5.36-1.31c1.72,4.08,4.3,8.6,9,11.82L561.83,91a22.87,22.87,0,0,1-1.8-1.47c-.23,5.82-.45,12.15-1.53,14.79a3.84,3.84,0,0,1-4.15,2.81h-6.1l-1.08-5.69H552a1.61,1.61,0,0,0,1.47-.79c.26-.54.79-3.63,1-9.51H548.9c-1,8.59-5.48,13-12.17,16.09l-3.17-5.45c8.55-3,9.57-7.8,9.79-10.64h-4.63Z"/><rect class="cls-1" x="56.71" y="125.29" width="536.57" height="53.21" rx="23.62"/><path class="cls-1" d="M234.65,53.76a27.14,27.14,0,0,0,6.2-5.56h-5.27V44.45h6.36V41.77h-6.53V38h3.37a26.93,26.93,0,0,0-.86-4.29H236V30h5.9V27.42h3.79V30h5.47v3.74h-1.55c-.49,2.3-.59,2.75-1,4.29h2.9v3.74h-5.87v2.68H251V48.2h-4.35a16.71,16.71,0,0,0,3.89,3.7l-1.94,3.68A17.8,17.8,0,0,1,245.66,52V59.9h-3.72V52.11a22.59,22.59,0,0,1-5.41,5.73Zm6.79-20a35.45,35.45,0,0,1,.89,4.29h2.81a30.94,30.94,0,0,0,.85-4.29Zm24.79-2.47a26.56,26.56,0,0,1-9.79,2.33v4.5h9.79v4h-2.9V59.9h-4V42.15h-2.87v1.14c0,10.36-2.74,14.42-4.22,16.61l-3.66-2.61c2.24-3,4-6.38,4-13.94V29.76a26.94,26.94,0,0,0,11.74-2.44Z"/><path class="cls-1" d="M297.94,38.31V33.67H276.28v4.64H272.2V29.93h12.72V27.42h4.22v2.51H302v8.38Zm-.89-2.58v9.58h-8c-.1.34-.53,2-.62,2.34h11.79V59.87h-4.11V58.15H278v1.68h-4.12V47.65h10.28a17.08,17.08,0,0,0,.63-2.34h-7.75V35.73ZM278,51v3.67h18.1V51Zm2.83-11.91V42h12.33V39.1Z"/><path class="cls-1" d="M308.65,28.69h16.51V55.44H312.44v2.78h-3.79Zm3.79,4v7.21h2.77V32.68Zm0,11v7.83h2.77V43.63Zm6.2-11v7.21h2.93V32.68Zm0,11v7.83h2.93V43.63ZM332,35.15h-6.23v-4.4h13.22v4.4h-2.87V56.92a2.62,2.62,0,0,1-2.8,2.88h-6.82l-.69-4.33H331c.92,0,.92-.61.92-1Z"/><path class="cls-1" d="M343.42,53.76a27.14,27.14,0,0,0,6.2-5.56h-5.27V44.45h6.36V41.77h-6.53V38h3.36a25.85,25.85,0,0,0-.85-4.29h-1.88V30h5.9V27.42h3.79V30H360v3.74h-1.55c-.49,2.3-.59,2.75-1,4.29h2.9v3.74h-5.87v2.68h5.34V48.2h-4.35a16.71,16.71,0,0,0,3.89,3.7l-1.94,3.68A17.8,17.8,0,0,1,354.43,52V59.9h-3.72V52.11a22.59,22.59,0,0,1-5.41,5.73Zm6.79-20A35.45,35.45,0,0,1,351.1,38h2.81a30.94,30.94,0,0,0,.85-4.29ZM375,31.27a26.56,26.56,0,0,1-9.79,2.33v4.5H375v4h-2.9V59.9h-4V42.15h-2.87v1.14c0,10.36-2.73,14.42-4.22,16.61l-3.66-2.61c2.24-3,4-6.38,4-13.94V29.76a26.94,26.94,0,0,0,11.74-2.44Z"/><path class="cls-1" d="M406.71,38.31V33.67H385.05v4.64H381V29.93h12.72V27.42h4.22v2.51h12.85v8.38Zm-.89-2.58v9.58h-8c-.1.34-.52,2-.62,2.34H409V59.87H404.9V58.15H386.8v1.68h-4.12V47.65H393a17.08,17.08,0,0,0,.63-2.34h-7.74V35.73ZM386.8,51v3.67h18.1V51Zm2.84-11.91V42H402V39.1Z"/><path d="M273.58,204.3H275v17.77h4v1.12h-4v4.06c0,1.54.77,2.14,2.45,2.14H278v1.12h-8.88v-1.12h.56c1.64,0,2.45-.56,2.45-2.14v-4.06h-9.42V222Zm-1.43,4.62-8.09,13.15h8.09Z"/><path d="M293.21,231.17a11.76,11.76,0,0,1-3.74-.7,3.85,3.85,0,0,0-1.44-.35,6.24,6.24,0,0,0-2.8,1l-2.59-6.75,1.33-.63a12.51,12.51,0,0,0,2.77,3.64A9.62,9.62,0,0,0,293,230a5,5,0,0,0,5.18-5.29c0-3.22-2.06-4.34-6.5-5.88-4.94-1.68-8.12-3.49-8.12-7.69a6.6,6.6,0,0,1,7-6.79,11.54,11.54,0,0,1,2.49.28c.38.07,1.81.38,2.09.38a2.43,2.43,0,0,0,2-.66l2.42,6.16-1.05.42c-1.12-2-3.15-5.43-7.63-5.43a4.47,4.47,0,0,0-4.79,4.62c0,2.91,2.1,4,6.68,5.6,6.68,2.31,8,4.9,8,7.94A7.42,7.42,0,0,1,293.21,231.17Z"/><path d="M315,206.12h-1.22a2.24,2.24,0,0,0-2.48,2.41V227a2.25,2.25,0,0,0,2.48,2.42h.94a10.61,10.61,0,0,0,9.49-5.78l.91.46-2.49,6.44H304.86v-1.12h1.19a2.27,2.27,0,0,0,2.52-2.42V208.53a2.26,2.26,0,0,0-2.52-2.41h-1.19V205H315Z"/><path d="M329.43,205h10c8.18,0,13.26,4.2,13.26,12.6,0,6-3.15,12.95-13,12.95H329.43v-1.12h1.19a2.26,2.26,0,0,0,2.52-2.42V208.53a2.26,2.26,0,0,0-2.52-2.41h-1.19Zm6.47,22a2.25,2.25,0,0,0,2.48,2.42h1.68c6.34,0,9.52-5.67,9.52-12.11,0-4.44-1.82-11.16-9.38-11.16h-1.82a2.24,2.24,0,0,0-2.48,2.41Z"/><path d="M369.73,214.76l7.77,12.42a5,5,0,0,0,4.13,2.21h.49v1.12h-9.9v-1.12h.84a1.28,1.28,0,0,0,1.4-1.16,2.84,2.84,0,0,0-.49-1.43l-6.19-9.9-3.33,3.6V227a2.28,2.28,0,0,0,2.52,2.42h1v1.12h-9.73v-1.12h1a2.25,2.25,0,0,0,2.49-2.42V208.53a2.25,2.25,0,0,0-2.49-2.41h-1V205H368v1.16h-1a2.27,2.27,0,0,0-2.52,2.41v10.32L374,208.43a1.75,1.75,0,0,0,.46-1.12c0-1-1.09-1.19-1.86-1.19h-.91V205h9.87v1.16h-.63a6.85,6.85,0,0,0-5.6,2.52Z"/><path d="M137.6,254.72l.85-1.12c.12-.16.19-.25.31-.25s.15.05.39.23l1.39,1.1a.43.43,0,0,1,.21.33c0,.19-.18.21-.33.21h-6.91c0,.68,0,3.67,0,4.27,0,.21,0,4.52,0,5.12H139l1-1.12c.14-.16.2-.24.31-.24s.18.06.39.22l1.37,1.1c.1.09.21.19.21.31s-.19.23-.31.23H126.4a14.51,14.51,0,0,0-2.45.19l-.41-.83c1.39.12,2.8.14,3.19.14H132c0-.18,0-4.58,0-5.06v-4.33h-4.38a14.41,14.41,0,0,0-2.44.19l-.42-.81c1.39.1,2.8.12,3.2.12h4c0-4.7,0-5.24-.52-6.76l2.51.67c.21.06.33.1.33.29a.38.38,0,0,1-.18.31c-.09.08-.48.39-.61.47,0,1.68,0,3.34,0,5Z"/><path d="M154,254.85h-2.42v6.67c1.68-.49,2.15-.68,2.63-.85l.08.17a21.73,21.73,0,0,1-3,1.76l-2.55,1.29c-.19.43-.27.66-.52.66a.43.43,0,0,1-.33-.25l-1.08-1.84c.7,0,1.06.08,3.4-.56,0-.71,0-3.86,0-4.5v-2.55h-.41a14.53,14.53,0,0,0-2.45.18l-.4-.83c1.23.11,2.47.15,3.26.15,0-1,0-2.07,0-3.11a11.47,11.47,0,0,0-.27-3.07l2.09.71c.11,0,.29.12.29.31s-.41.56-.7.74c0,1.45,0,2.16-.06,4.42H152l.63-.68c.18-.21.25-.27.35-.27s.25.14.35.22l.73.69c.1.1.18.18.18.31S154.09,254.85,154,254.85Zm9.27,10.61c-.47.09-4.14.09-4.73.09-3.4,0-4-.17-4-2.43,0-.81.07-4.37.07-5.1,0-.21,0-1.14,0-1.33a11.45,11.45,0,0,0-2,1.1l-.7-.58a28.36,28.36,0,0,0,2.71-1.08v-3.67a10.83,10.83,0,0,0-.22-2.4l1.92.66c.15,0,.32.13.32.29s-.17.33-.67.68c0,.63,0,3.32,0,3.86l2.26-1c0-2.08,0-3.55,0-5a14.16,14.16,0,0,0-.25-1.83l2,.67c.21.06.35.16.35.31s-.29.43-.72.77c0,1.86,0,2.13,0,4.5l2-.9.5-.83c.1-.16.2-.35.35-.35a.76.76,0,0,1,.39.17l1,.6a.43.43,0,0,1,.2.33c0,.25-.22.46-.51.73,0,6.22,0,7.65-2.47,8.29a2.64,2.64,0,0,0-1.25-1.74v-.1a4.76,4.76,0,0,0,.65,0c1.45,0,1.68-.19,1.68-4.56,0-1.41,0-1.64-.05-2.24l-2.46,1.12c0,3,0,5,.06,5.59,0,.27.06,1.5.06,1.75a1,1,0,0,1-1.06,1c-.29,0-.49-.1-.49-.54,0-.22.06-1.28.06-1.49,0-1.33,0-2.11.06-5.76l-2.26,1c0,.83,0,7.2,0,7.45a.69.69,0,0,0,.5.58c.27.08,3.23.08,3.63.08,2.13,0,2.78,0,3.21-.77a16.52,16.52,0,0,0,.91-2.51h.15a7.32,7.32,0,0,0,.39,2.47c.13.21.48.4.48.6S164.79,265.19,163.23,265.46Z"/><path d="M177,252.81a21.66,21.66,0,0,0,1.23-3.46h-5.41a14,14,0,0,0-2.45.19l-.42-.83c1.06.08,2.12.14,3.2.14h12.36l.91-.89a1.23,1.23,0,0,1,.39-.31c.11,0,.19.06.4.23l1.16.93c.08.07.21.19.21.31s-.21.23-.34.23h-8.06a36.1,36.1,0,0,1-2.68,3.46h7.55l.58-.6c.21-.2.27-.27.4-.27s.26.13.37.21l.95.81a.38.38,0,0,1,.17.27c0,.19-.08.25-.83.66,0,2.35,0,5.31,0,7.66,0,1,.1,2.5.1,3.46a.92.92,0,0,1-1,1c-.63,0-.63-.33-.58-1.51h-11.8c0,.08,0,.56,0,.66a1,1,0,0,1-1,1c-.66,0-.66-.46-.66-.65s.06-1.09.06-1.26c0-2.26.15-7,.15-9a15,15,0,0,0-.29-3.4l2.13,1Zm-3.58.5V264h2.75V253.31Zm7.32,3.15v-3.15h-3.18v3.15Zm0,3.63V257h-3.18v3.13Zm0,3.88v-3.38h-3.18V264Zm4.48,0V253.31h-3.07V264Z"/><path d="M192.39,261.67a26.65,26.65,0,0,0,3.86-7.94h-.48a15.47,15.47,0,0,0-2.44.18l-.4-.83c1.18.11,2.39.15,3.47.15,0-1,0-2.47,0-3.36a19.93,19.93,0,0,1-3.39.37v-.16a34.87,34.87,0,0,0,5.6-2.32,1.49,1.49,0,0,0,.44-.5l1.43,1.2a.37.37,0,0,1,.14.29c0,.21-.2.21-.39.21l-.6,0a18,18,0,0,1-1.93.62c0,.95,0,2.86,0,3.67h.4l.49-.75c.09-.12.19-.27.31-.27s.29.15.4.23l.89.75a.44.44,0,0,1,.21.33c0,.21-.21.21-.31.21h-2.39c0,.39,0,1.32,0,1.82,2,.73,2.72,2,2.72,2.62a.79.79,0,0,1-.77.82c-.5,0-.56-.2-1-1.36a3.78,3.78,0,0,0-1-1.81c0,3.61,0,4,.09,5.6,0,1.41.08,3.05.08,3.8,0,.37,0,1.2-1,1.2-.54,0-.6-.31-.6-.71,0-.68.17-3.73.19-4.35,0-2,0-2.84,0-4.65a13.55,13.55,0,0,1-3.92,5.06Zm6.66,4.38c1.45-.71,3.8-2.08,4.29-3l1.5,1.1a.37.37,0,0,1,.18.31c0,.29-.47.27-1,.27a16.56,16.56,0,0,1-4.94,1.43Zm9.21-16.51.52-.83c.1-.17.2-.29.31-.29s.27.14.39.25l1,.83a.43.43,0,0,1,.2.33c0,.19-.16.21-.31.21H206v1.7h1.66l.49-.75c.09-.12.17-.25.31-.25s.25.13.38.23l.85.72a.49.49,0,0,1,.21.34c0,.18-.19.2-.32.2H206v1.87h3.44l.6-.85c.1-.17.23-.27.33-.27s.25.12.38.25l.89.83c.1.1.21.21.21.33s-.17.21-.32.21h-8.62a14.66,14.66,0,0,0-2.45.18l-.41-.82c1,.08,2.13.14,3.19.14h1.35v-1.87h-.5a13.16,13.16,0,0,0-2.45.21l-.39-.83c.62,0,1.53.13,3.34.13,0-.81,0-1.31,0-1.7H203.2a14.47,14.47,0,0,0-2.45.18l-.41-.83c1.51.13,2.84.15,3.19.15h1a6,6,0,0,0-.38-2.22l2.12.64a.32.32,0,0,1,.29.31c0,.27-.48.5-.58.54v.73Zm-.48,6.49.48-.52c.08-.08.2-.21.29-.21s.25.13.33.19l.81.68a.56.56,0,0,1,.23.38c0,.21-.25.37-.6.54a4.83,4.83,0,0,0,0,.76c0,.71.17,3.8.17,4.42a.85.85,0,0,1-1,1c-.54,0-.54-.27-.52-.71h-4.94c0,.48.06,1-.93,1-.35,0-.54-.1-.54-.47,0,0,0-.21,0-.5,0-.77,0-3,0-3.92a13.89,13.89,0,0,0-.22-3.28l1.63.73Zm-4.73.5V258H208v-1.47Zm0,2V260H208V258.5Zm0,2V262H208v-1.53Zm3.49,2.82c1.86.16,4.5,1.1,4.5,2.34a.84.84,0,0,1-.83.81c-.48,0-1-.52-1.31-.91a10.22,10.22,0,0,0-2.36-2.1Z"/><path d="M218.44,252.79a1.22,1.22,0,0,1-1.2,1.21,1.2,1.2,0,0,1-1.2-1.21,1.2,1.2,0,1,1,2.4,0Zm0,8.17a1.21,1.21,0,0,1-1.2,1.21,1.21,1.21,0,0,1,0-2.41A1.2,1.2,0,0,1,218.44,261Z"/><path d="M223.4,264.1h1.14c1.08,0,1.45-.42,1.45-1.27V251.61c0-.64-.6-.74-1-.74h-1.58v-.65h.37a7.9,7.9,0,0,0,3.38-.87c.15-.08.21-.12.29-.12s.23.12.23.29v13.31c0,.89.44,1.27,1.45,1.27h1.14v.66H223.4Z"/><path d="M236.26,264.1h1.14c1.08,0,1.45-.42,1.45-1.27V251.61c0-.64-.6-.74-1-.74h-1.57v-.65h.37a7.9,7.9,0,0,0,3.38-.87c.15-.08.21-.12.29-.12s.23.12.23.29v13.31c0,.89.43,1.27,1.45,1.27h1.14v.66h-6.88Z"/><path d="M252.56,265.15a4.18,4.18,0,0,1-3.4-2.24,12.91,12.91,0,0,1-1.27-5.91c0-4.41,1.89-7.77,4.67-7.77,2.13,0,4.66,2.3,4.66,8C257.22,262.27,255.09,265.15,252.56,265.15Zm-2.32-12.46a18.29,18.29,0,0,0-.48,4.5c0,4.62,1.1,7.26,2.8,7.26,1.43,0,2.07-1.91,2.3-2.7a19.21,19.21,0,0,0,.5-4.56c0-4.73-1.14-7.26-2.8-7.26C251.09,249.93,250.44,252,250.24,252.69Z"/><path d="M263.36,264a1.2,1.2,0,1,1-1.2-1.2A1.22,1.22,0,0,1,263.36,264Z"/><path d="M268.82,251.26l-.19,5.23a4.38,4.38,0,0,1,3.22-1.44c3,0,4.41,2.47,4.41,4.75a5.26,5.26,0,0,1-5.12,5.35c-2.36,0-3.92-1.76-3.92-3a1.18,1.18,0,0,1,1.2-1.28,1,1,0,0,1,1.08,1.08,2.2,2.2,0,0,1-.1.62,3.26,3.26,0,0,0-.06.58c0,.89.93,1.35,1.76,1.35,1.68,0,3.25-1.6,3.25-4.38,0-2.63-1.38-4.08-2.9-4.08a4.48,4.48,0,0,0-3.23,1.8l-.32-.16.32-8h7.21l-.41,1.64Z"/><path d="M283.69,255.66a3.49,3.49,0,0,1,1.8-.54c2.05,0,3.71,2.07,3.71,4.58,0,2.88-2.05,5.45-4.43,5.45S280,262.48,280,258c0-4.79,2.69-8.77,5.86-8.77,1.39,0,2.37.83,2.37,1.82a1,1,0,0,1-1.06,1.08c-.41,0-1.1-.27-1.14-1.45,0-.46-.06-.75-.62-.75a2.1,2.1,0,0,0-1.51.75c-1.85,2-1.95,5.08-2,6.95A5.12,5.12,0,0,1,283.69,255.66Zm-.69,7.67a2.08,2.08,0,0,0,1.68,1.12c1.1,0,2.66-1.14,2.66-4.56,0-.94-.23-3.84-2.37-3.84-.78,0-2.11.58-3.09,2.82A10,10,0,0,0,283,263.33Z"/><path d="M296.17,254.56v1.63a4.71,4.71,0,0,1,3.42-1.63,2.29,2.29,0,0,1,2.49,1.86,5.2,5.2,0,0,1,3.71-1.86c1.83,0,2.66,1.1,2.66,3.4v4.89c0,.79.41,1.25,1,1.25h.37v.66h-4.33v-.66h.39c.73,0,1-.56,1-1.25v-4.77c0-.58-.09-2.63-1.81-2.63a3.9,3.9,0,0,0-2.94,1.8,5.05,5.05,0,0,1,0,.71v4.89c0,.87.48,1.25,1,1.25h.6v.66h-4.77v-.66h.6c.58,0,1.06-.4,1.06-1.25v-4.77c0-.43-.07-2.63-1.81-2.63a3.71,3.71,0,0,0-2.8,1.64v5.76c0,.87.48,1.25,1,1.25h.37v.66h-4.31v-.66h.37c.63,0,1-.44,1-1.25v-6.24a.85.85,0,0,0-.85-1,1.83,1.83,0,0,0-.62.08l-.11-.4Zm10.72-1.23A11.76,11.76,0,0,1,308.1,252c.43-.48,1.18-1.29,1.18-2,0-.27-.17-.77-.64-.77a.69.69,0,0,0-.71.56c0,.08.19.45.19.54a.57.57,0,0,1-.58.54.65.65,0,0,1-.63-.71,1.76,1.76,0,0,1,1.83-1.49,1.4,1.4,0,0,1,1.51,1.41,1.66,1.66,0,0,1-.64,1.35c-.23.22-1.51,1.26-1.72,1.55h1.28a.84.84,0,0,0,.81-.7l.34.1-.44,1.43h-3Z"/><path d="M355,265.67c-7.53-.1-10.77-.14-13.57-2.86a9.61,9.61,0,0,1-4.23,3.59l-.12-.13a13.09,13.09,0,0,0,3.59-4.31,10.09,10.09,0,0,1-1.93-4l.21-.17a9.24,9.24,0,0,0,2.09,3.4,14.27,14.27,0,0,0,1.16-5.64h-1.74c-.41,1.16-.52,1.47-1.2,1.47-.15,0-.75,0-.75-.47a12.11,12.11,0,0,1,.5-1.47c1.08-2.78,1.93-5,2.18-6h-.75a13.55,13.55,0,0,0-2.45.19l-.39-.83c1.06.08,2.11.15,3.17.15h.37l.54-.44c.19-.14.29-.21.4-.21a.8.8,0,0,1,.35.21l.81.69a.44.44,0,0,1,.21.37c0,.25-.42.43-1,.66-.45,1.16-.72,1.87-1.86,5.14H342l.56-.43a.75.75,0,0,1,.39-.21c.15,0,.25.08.39.23l.65.66a.72.72,0,0,1,.25.44c0,.19-.21.31-.65.58a14.1,14.1,0,0,1-1.7,5.7,11.42,11.42,0,0,0,7.22,2.06,46.55,46.55,0,0,0,7.3-.61l0,.17A2.54,2.54,0,0,0,355,265.67Zm1.22-12.92h-2.86c.08,2.47.08,2.47.08,2.62,0,.41,0,1.05-1,1.05-.56,0-.54-.33-.52-.68h-2.55v2.16h3.11l.62-.79c.14-.17.23-.27.35-.27s.23.1.4.23l.93.78c.1.11.21.23.21.32s-.15.22-.31.22h-5.31l0,2.2h3.69l.79-.91c.16-.19.25-.27.35-.27s.23.08.37.23l1,.91a.49.49,0,0,1,.2.35c0,.13-.12.19-.31.19h-6.07c0,.25,0,1.47,0,1.74a1,1,0,0,1-.91.75c-.67,0-.67-.38-.67-.6s.11-1.58.11-1.89h-1.42a14.61,14.61,0,0,0-2.42.19l-.42-.81c1.62.12,3.16.12,3.2.12h1.08c0-.56,0-1.08,0-2.2h-.62a13.78,13.78,0,0,0-2.43.19l-.42-.81c.63,0,1.79.13,3.49.13v-2.16h-.42a14.8,14.8,0,0,0-2.44.19l-.42-.81c1.49.1,3.07.12,3.28.12l0-2.49h-1.93a13.85,13.85,0,0,0-2.43.19l-.41-.83c1.06.1,2.11.15,3.17.15H348l0-2.43h-.5A16.05,16.05,0,0,0,345,250l-.39-.83c1.45.12,2.8.14,3.32.14a3.7,3.7,0,0,0-.31-1.93l2,.48c.23.06.35.14.35.33s-.25.38-.58.56v.56h2.41l.51-.45c.15-.13.25-.21.38-.21s.22.1.37.23l.58.56a.58.58,0,0,1,.25.39c0,.17-.17.29-.58.58a11.54,11.54,0,0,0,0,1.83h.74l.61-.77c.12-.17.22-.25.33-.25a.63.63,0,0,1,.39.21l.89.76c.11.11.21.21.21.31S356.4,252.75,356.19,252.75Zm-4.25,0h-2.57l0,2.49h2.59Zm0-2.92h-2.53l0,2.43h2.57Z"/><path d="M366.21,258.64c0,2.51,0,2.95,0,4.15,0,.73.08,1.89.08,2.61s-.89,1-1.08,1c-.45,0-.56-.27-.56-.58,0-.09.05-.85.05-1,.08-1.55.08-2.11.12-5.43a20.74,20.74,0,0,1-2.55,1.18c0,.37-.06.73-.39.73s-.36-.23-.42-.36l-1-1.86c1.28.06,1.63,0,4.35-.79,0-1.83,0-3.88,0-5.46H363a16.68,16.68,0,0,1-1.85,4.59l-.12,0a33.7,33.7,0,0,0,.93-7.2,3.51,3.51,0,0,0-.21-1.41l2,.48c.17,0,.35.08.35.31s-.29.41-.62.54a19.08,19.08,0,0,1-.35,2.24h1.72c0-2.93-.1-3.78-.56-4.81l2.28.66c.13,0,.31.14.31.29s-.35.44-.66.6c0,.44,0,2.63,0,3.26h.41l.58-.79c.11-.13.21-.27.32-.27a.66.66,0,0,1,.37.23l.83.79a.47.47,0,0,1,.18.31c0,.18-.18.22-.31.22h-2.38c0,1.33,0,3.65,0,5l2.72-.95.06.14A24.78,24.78,0,0,1,366.21,258.64ZM378.44,253c-.16,4.34-.33,8.28-1.63,11a4,4,0,0,1-3.22,2.1c-.14-.94-.48-1.52-1.76-2.45l.06-.15a9,9,0,0,0,2.51.44c.5,0,.83,0,1.41-1.47a31.68,31.68,0,0,0,1.16-10h-1.18c-.6,4.69-2.59,10.72-8.59,13l-.06-.14c4.4-3.3,6.26-6.8,7.14-12.84h-1.17c-.85,4.38-3.19,8.15-6.2,9.56l-.06-.12a17.71,17.71,0,0,0,4.75-9.44h-1a13,13,0,0,1-2.8,4.13l-.1-.11a23.21,23.21,0,0,0,2.68-8.46,2.22,2.22,0,0,0-.11-.7l2.08.83c.2.08.31.21.31.33,0,.27-.4.37-.73.46-.54,1.66-.89,2.5-1.1,3h6l.5-.52c.13-.14.23-.22.31-.22a.9.9,0,0,1,.38.18l1,.73c.15.1.23.17.23.29C379.15,252.69,378.67,252.92,378.44,253Z"/><path d="M391.22,252.81a20.62,20.62,0,0,0,1.22-3.46H387a14.05,14.05,0,0,0-2.45.19l-.41-.83c1.06.08,2.11.14,3.19.14h12.36l.91-.89a1.35,1.35,0,0,1,.4-.31c.1,0,.19.06.39.23l1.16.93a.47.47,0,0,1,.21.31c0,.21-.21.23-.33.23h-8.07a36.11,36.11,0,0,1-2.67,3.46h7.55l.58-.6c.2-.2.27-.27.39-.27a.88.88,0,0,1,.37.21l1,.81a.39.39,0,0,1,.16.27c0,.19-.08.25-.83.66,0,2.35,0,5.31.05,7.66,0,1,.1,2.5.1,3.46a.93.93,0,0,1-1,1c-.62,0-.62-.33-.58-1.51h-11.8c0,.08,0,.56,0,.66a1,1,0,0,1-1,1c-.67,0-.67-.46-.67-.65s.07-1.09.07-1.26c0-2.26.14-7,.14-9a14.47,14.47,0,0,0-.29-3.4l2.14,1Zm-3.59.5V264h2.76V253.31Zm7.32,3.15v-3.15h-3.17v3.15Zm0,3.63V257h-3.17v3.13Zm0,3.88v-3.38h-3.17V264Zm4.48,0V253.31h-3.07V264Z"/><path d="M406.61,261.67a26.89,26.89,0,0,0,3.86-7.94H410a15.58,15.58,0,0,0-2.45.18l-.39-.83c1.18.11,2.38.15,3.46.15,0-1,0-2.47,0-3.36a19.71,19.71,0,0,1-3.38.37v-.16a34.87,34.87,0,0,0,5.6-2.32,1.62,1.62,0,0,0,.44-.5l1.43,1.2a.37.37,0,0,1,.14.29c0,.21-.21.21-.39.21l-.6,0a18.8,18.8,0,0,1-1.93.62c0,.95,0,2.86,0,3.67h.39l.5-.75c.08-.12.19-.27.31-.27s.29.15.39.23l.9.75a.43.43,0,0,1,.2.33c0,.21-.2.21-.31.21H411.9c0,.39,0,1.32,0,1.82,2,.73,2.71,2,2.71,2.62a.79.79,0,0,1-.76.82c-.5,0-.56-.2-1-1.36a3.77,3.77,0,0,0-1-1.81c0,3.61,0,4,.08,5.6,0,1.41.08,3.05.08,3.8,0,.37,0,1.2-1,1.2-.54,0-.6-.31-.6-.71,0-.68.16-3.73.18-4.35,0-2,0-2.84,0-4.65a13.55,13.55,0,0,1-3.92,5.06Zm6.66,4.38c1.45-.71,3.79-2.08,4.29-3l1.49,1.1a.36.36,0,0,1,.19.31c0,.29-.48.27-1,.27a16.42,16.42,0,0,1-4.93,1.43Zm9.2-16.51.52-.83c.11-.17.21-.29.31-.29s.27.14.4.25l1,.83a.42.42,0,0,1,.21.33c0,.19-.17.21-.31.21h-4.4v1.7h1.66l.5-.75c.08-.12.17-.25.31-.25s.25.13.37.23l.85.72a.46.46,0,0,1,.21.34c0,.18-.19.2-.31.2h-3.59v1.87h3.44l.61-.85c.1-.17.22-.27.33-.27s.25.12.37.25l.89.83a.51.51,0,0,1,.21.33c0,.21-.16.21-.31.21h-8.63a14.49,14.49,0,0,0-2.44.18l-.42-.82c1.06.08,2.14.14,3.19.14h1.35v-1.87h-.49a13.1,13.1,0,0,0-2.45.21l-.4-.83c.63,0,1.54.13,3.34.13,0-.81,0-1.31,0-1.7h-1.37a14.37,14.37,0,0,0-2.44.18l-.42-.83c1.52.13,2.84.15,3.2.15h1a6,6,0,0,0-.37-2.22l2.11.64a.31.31,0,0,1,.29.31c0,.27-.47.5-.58.54v.73ZM422,256l.47-.52c.09-.08.21-.21.29-.21s.25.13.34.19l.8.68a.52.52,0,0,1,.23.38c0,.21-.25.37-.6.54a7.23,7.23,0,0,0,0,.76c0,.71.17,3.8.17,4.42a.86.86,0,0,1-1,1c-.54,0-.54-.27-.52-.71h-4.93c0,.48.06,1-.93,1-.36,0-.54-.1-.54-.47,0,0,0-.21,0-.5,0-.77,0-3,0-3.92a13.3,13.3,0,0,0-.23-3.28l1.64.73Zm-4.73.5V258h4.93v-1.47Zm0,2V260h4.93V258.5Zm0,2V262h4.93v-1.53Zm3.48,2.82c1.87.16,4.5,1.1,4.5,2.34a.83.83,0,0,1-.83.81c-.47,0-.95-.52-1.3-.91a10.57,10.57,0,0,0-2.37-2.1Z"/><path d="M432.66,252.79a1.22,1.22,0,0,1-1.21,1.21,1.21,1.21,0,0,1-1.2-1.21,1.21,1.21,0,0,1,2.41,0Zm0,8.17a1.21,1.21,0,0,1-1.21,1.21,1.21,1.21,0,0,1,0-2.41A1.21,1.21,0,0,1,432.66,261Z"/><path d="M437.61,264.1h1.14c1.08,0,1.46-.42,1.46-1.27V251.61c0-.64-.6-.74-1-.74h-1.57v-.65H438a7.9,7.9,0,0,0,3.38-.87.63.63,0,0,1,.29-.12c.18,0,.23.12.23.29v13.31c0,.89.43,1.27,1.45,1.27h1.14v.66h-6.89Z"/><path d="M453.91,265.15a4.19,4.19,0,0,1-3.4-2.24,12.9,12.9,0,0,1-1.26-5.91c0-4.41,1.89-7.77,4.66-7.77,2.14,0,4.67,2.3,4.67,8C458.58,262.27,456.44,265.15,453.91,265.15Zm-2.32-12.46a18.85,18.85,0,0,0-.47,4.5c0,4.62,1.09,7.26,2.79,7.26,1.44,0,2.08-1.91,2.31-2.7a19.28,19.28,0,0,0,.49-4.56c0-4.73-1.14-7.26-2.8-7.26C452.44,249.93,451.8,252,451.59,252.69Z"/><path d="M463.85,251.26l-.19,5.23a4.38,4.38,0,0,1,3.22-1.44c3,0,4.41,2.47,4.41,4.75a5.26,5.26,0,0,1-5.12,5.35c-2.36,0-3.92-1.76-3.92-3a1.18,1.18,0,0,1,1.21-1.28,1,1,0,0,1,1.07,1.08,2.2,2.2,0,0,1-.1.62,3.26,3.26,0,0,0-.06.58c0,.89.93,1.35,1.76,1.35,1.68,0,3.26-1.6,3.26-4.38,0-2.63-1.39-4.08-2.91-4.08a4.48,4.48,0,0,0-3.23,1.8l-.31-.16.31-8h7.21l-.41,1.64Z"/><path d="M477.58,264a1.21,1.21,0,1,1-1.2-1.2A1.22,1.22,0,0,1,477.58,264Z"/><path d="M490.58,249.62v1.1c-3.3,5.08-4.46,8-4.73,12.59,0,.54-.1,1.84-1.16,1.84a1.09,1.09,0,0,1-1.06-1.14c0-1.47,1.46-5.82,5.83-12.75h-3.54c-3,0-3.47,1.39-3.92,2.72l-.63-.15.85-4.21Z"/><path d="M498.82,265.15a4.19,4.19,0,0,1-3.41-2.24,12.9,12.9,0,0,1-1.26-5.91c0-4.41,1.89-7.77,4.67-7.77,2.13,0,4.66,2.3,4.66,8C503.48,262.27,501.35,265.15,498.82,265.15Zm-2.33-12.46a18.85,18.85,0,0,0-.47,4.5c0,4.62,1.09,7.26,2.8,7.26,1.43,0,2.07-1.91,2.3-2.7a19.28,19.28,0,0,0,.49-4.56c0-4.73-1.14-7.26-2.79-7.26C497.34,249.93,496.7,252,496.49,252.69Z"/><path d="M510.39,254.56v1.63a4.71,4.71,0,0,1,3.42-1.63,2.3,2.3,0,0,1,2.49,1.86,5.16,5.16,0,0,1,3.71-1.86c1.82,0,2.65,1.1,2.65,3.4v4.89c0,.79.42,1.25,1,1.25h.37v.66h-4.33v-.66h.39c.73,0,1-.56,1-1.25v-4.77c0-.58-.08-2.63-1.8-2.63a3.92,3.92,0,0,0-3,1.8,5.05,5.05,0,0,1,0,.71v4.89c0,.87.48,1.25,1,1.25h.6v.66h-4.77v-.66h.6c.59,0,1.06-.4,1.06-1.25v-4.77c0-.43-.06-2.63-1.8-2.63a3.68,3.68,0,0,0-2.8,1.64v5.76c0,.87.47,1.25,1,1.25h.37v.66h-4.32v-.66h.38c.62,0,1-.44,1-1.25v-6.24a.86.86,0,0,0-.85-1,1.93,1.93,0,0,0-.63.08l-.1-.4Zm10.72-1.23a12.43,12.43,0,0,1,1.2-1.32,3.71,3.71,0,0,0,1.18-2c0-.27-.16-.77-.64-.77a.68.68,0,0,0-.7.56c0,.08.18.45.18.54a.57.57,0,0,1-.58.54.65.65,0,0,1-.62-.71,1.75,1.75,0,0,1,1.82-1.49,1.4,1.4,0,0,1,1.52,1.41,1.69,1.69,0,0,1-.64,1.35c-.23.22-1.52,1.26-1.73,1.55h1.29a.84.84,0,0,0,.81-.7l.33.1-.43,1.43h-3Z"/><path class="cls-2" d="M110.54,163.4a24.3,24.3,0,0,0,6.69-6.42H111.5v-3.16h6.69v-3.19h-6.86V147.5H115a28.66,28.66,0,0,0-1-4.91h-2v-3.12h6.2v-2.85h3.16v2.85h5.7v3.12H125.5c-.69,3.16-.76,3.54-1.18,4.91h3.23v3.13h-6.2v3.19h5.44V157H122a17.07,17.07,0,0,0,4,3.91L124.38,164a17.89,17.89,0,0,1-3-3.67v8.62h-3.16v-8.55a25.72,25.72,0,0,1-5.84,6.18ZM117,142.59a40.72,40.72,0,0,1,1,4.91h3.33a40.21,40.21,0,0,0,1-4.91Zm25.15-2.74A26.2,26.2,0,0,1,132,142.42v5.22h10.19v3.3h-3.23v18h-3.43v-18H132v.92c0,9.58-1.81,13.25-4.41,17.07l-3.2-2.3c2.87-3.57,4.32-7.08,4.32-14.66V139.19a23.66,23.66,0,0,0,11.6-2.57Z"/><path class="cls-2" d="M159.62,153.41c-2.28.51-9.46,1.68-11.67,2l-.53-3.15c.3,0,4.68-.48,5.47-.59v-3.43H149v-2.75h.23l-2.07-2.23a16.42,16.42,0,0,0,5-6.69l3.23.61a11.53,11.53,0,0,1-.52,1.45h7.71v2.74h-5c.36.66.62,1.17.89,1.79l-3.23,1.23a17.23,17.23,0,0,0-1.06-3h-.85a19.1,19.1,0,0,1-3.5,4.12h10.09v2.75H156v3.09c2.24-.28,2.94-.41,3.86-.59v2c2.67-1.75,3-3.64,3.13-7.76h11.86v6.38c0,.62.14.76.4.76.73,0,.79,0,.86-.93,0-.27,0-1.61,0-1.92L179,150c-.16,3.64-.26,4.8-2.07,4.8h-3.07c-1,0-2-.65-2-2.33V147.6h-5.93a9.8,9.8,0,0,1-4.06,7.8h2.84v1.41h13.91v2.95H167.3c1.55,1.27,3.72,3,11.73,5L177.55,168a31.66,31.66,0,0,1-12.92-6.9v7.72h-3.2v-7.76c-3.92,4.05-9.36,6-12.79,6.94l-1.35-3.26a28.26,28.26,0,0,0,11.6-5H147.62v-2.95h13.81v-1.17ZM167,141.32a13.1,13.1,0,0,1-2.34,3.13l-2.8-2a12.64,12.64,0,0,0,3.65-5.73l3.33.51c-.19.59-.29.9-.46,1.38h10.19v2.74H172a10.12,10.12,0,0,1,.86,1.75l-3,1.27c-.26-.68-.92-2.26-1.28-3Zm1.09,6.87a25.17,25.17,0,0,1,3.46,3.57l-2.15,2.09a27.29,27.29,0,0,0-3.36-3.6Z"/><path class="cls-2" d="M188.76,149.25c-1.55,1.44-2.51,2.2-3.4,2.89L183,149a23.67,23.67,0,0,0,9.89-12.49l3.42.92a29,29,0,0,1-7.18,11.4h20.3c0,3.47-.1,12.4-1.35,16.93-.86,3.09-3.1,3.19-4.55,3.19h-5l-.66-3.64h5c1.88,0,2.18-1.72,2.44-3.23a57.1,57.1,0,0,0,.66-9.78h-7.65c-.85,9.27-5.43,13.66-12.26,16.65l-2-3.3c7.15-3.12,9.92-6.24,10.75-13.35h-6Zm24.32,2.61a35,35,0,0,1-10.68-14.31l3.43-1c1.71,4.29,5.24,9.61,9.65,12.36Z"/><path class="cls-2" d="M220,142.46h10.91v3H220Zm.83-5.09h9v3.09h-9Zm0,10.06h9v3.13h-9Zm0,5.12h9v3h-9Zm0,5.25h9v9.79h-6.07V169h-3Zm3,3v4h3.1v-4Zm27-.69a39.06,39.06,0,0,1-3.59,3.09,17.6,17.6,0,0,0,4,2.64L249.53,169c-4.22-2.4-7.87-6-9-10.85a15.91,15.91,0,0,1-2.35,2.13v4.6c2.61-.21,3.66-.38,4.92-.55v3.23c-2.48.37-7.65,1-11,1.06l-.56-3.47c1,0,1.81,0,3.56-.07V162.3a26.34,26.34,0,0,1-3.69,1.65l-1.35-3a18.75,18.75,0,0,0,6.85-3.3h-6v-2.57h4.68v-1.75h-3.49V151h3.49v-1.51h-4.05V147h4.05v-1.13h3V147h5v-1.13h3V147h4.28v2.44h-4.28V151h3.62v2.37h-3.62v1.75h4.48v2.57h-7.78a21.54,21.54,0,0,0,1.81,3.1,24.47,24.47,0,0,0,3.1-2.85Zm-19.31-16.45a23.88,23.88,0,0,0,6.06-2.06h-6.39v-2.88h8.17v-1.92h3.33v1.92h8.34v2.88h-6.33a22.72,22.72,0,0,0,6.33,2.17l-1.35,2.43a20.6,20.6,0,0,1-7-2.43l1.68-2.17H237.8l2,2.17a30.18,30.18,0,0,1-6.92,2.64Zm7.05,5.84V151h5v-1.51Zm0,3.88v1.75h5v-1.75Z"/><path class="cls-2" d="M259.42,152.41a23.19,23.19,0,0,1-2.27,2.85l-1.48-4.39a28.18,28.18,0,0,0,5.7-14.15l3.43.45a29.83,29.83,0,0,1-2,8.55v23.17h-3.36Zm18.33-8.86a30.75,30.75,0,0,0-6.46-4.32l2.11-2.89a46.55,46.55,0,0,1,6.62,4.12l-2,3.09h8.54V147h-8.84v6.49h7.62v3.4h-7.62v7.62h9.59v3.33H264.63v-3.33h9.56v-7.62h-7.65v-3.4h7.65V147h-8.74v-3.4Z"/><path class="cls-2" d="M307.58,154.2l15.65-1.72.27,3.4-15.92,1.75v6.8c0,.65.46.65.69.65h9.06a1,1,0,0,0,1.06-.89,44.17,44.17,0,0,0,.23-4.6l3.59.92c-.13,5.19-.3,8.14-3.59,8.14H307.28c-.86,0-3.16,0-3.16-2.54V158l-11.34,1.27-.23-3.43,11.57-1.28v-4.15c-1.91.24-4.06.38-5.94.52l-1.08-3.51c2.53-.1,12-.44,19.51-3.22l1.71,3.22A46.48,46.48,0,0,1,307.58,150Zm-1.22-17.55h3.43v3h12.82v8.2h-3.43v-4.77H297v4.77H293.5v-8.2h12.86Z"/><path class="cls-2" d="M334.05,148.53c-1.49.9-2.71,1.48-4,2.13l-1.69-3.47a32.85,32.85,0,0,0,14-10.57h3.7a29.79,29.79,0,0,0,14.23,10.47l-1.84,3.5a27.6,27.6,0,0,1-4-2.06v2.58H346v4.63h10.41v3.09H346v5.56h13.35v3.51H329.07v-3.51h13.38v-5.56H332.1v-3.09h10.35v-4.63h-8.4Zm19.24-.79a42.37,42.37,0,0,1-9.09-8.1,37.55,37.55,0,0,1-8.9,8.1Z"/><path class="cls-2" d="M379.79,138.78v27.06h-4V142.49h-5v-3.71Z"/><path class="cls-2" d="M392.88,157.32a31.07,31.07,0,0,0,4.75-11.09h-4.26v-3.29h4.36v-6.25h3.16v6.25h3.66v3.29h-3.66v1.2a18.73,18.73,0,0,0,4.05,6.42L403.26,157a21.15,21.15,0,0,1-2.37-4.29v16.17h-3.16v-15.1c-1.42,5.08-2.74,6.86-3.63,8.1Zm9.79,7.25A22.68,22.68,0,0,0,411,157h-5.67V144.62h7.42v-2h-8.24V139.3h8.24v-2.61h3.1v2.61h8.5v3.36h-8.5v2h7.44V157H417.9a24.58,24.58,0,0,0,7,7.25L423,167.31a23.5,23.5,0,0,1-7.11-8.51v10.09h-3.1v-9.65a24.36,24.36,0,0,1-8.24,8.42Zm5.77-17.24v2.27h4.35v-2.27Zm0,4.7v2.24h4.35V152Zm7.45-4.7v2.27h4.45v-2.27Zm0,4.7v2.24h4.45V152Z"/><path class="cls-2" d="M458.64,138.78v27.06h-4V142.49h-5v-3.71Z"/><path class="cls-2" d="M479.3,159.79c-.33.62-.66,1.17-1.28,2.13l-3.43-1.37a45.11,45.11,0,0,0,3.76-7.25h-6V150h30.91v3.26H482.14c-.27.69-1.09,2.72-1.35,3.27h19.47c-.19,2.64-.65,8-1.71,10a4.1,4.1,0,0,1-3.82,2.37h-5.8l-.76-3.61h5.93c1.19,0,2.08-.62,2.44-5.53Zm21.19-22v9.78H475.31v-9.78Zm-21.88,3.12v3.57H497.2v-3.57Z"/><path class="cls-2" d="M507.65,157.32a31.07,31.07,0,0,0,4.75-11.09h-4.26v-3.29h4.35v-6.25h3.17v6.25h3.66v3.29h-3.66v1.2a18.73,18.73,0,0,0,4.05,6.42L518,157a21.15,21.15,0,0,1-2.37-4.29v16.17h-3.17v-15.1c-1.41,5.08-2.73,6.86-3.62,8.1Zm9.79,7.25a22.78,22.78,0,0,0,8.37-7.56h-5.67V144.62h7.42v-2h-8.24V139.3h8.24v-2.61h3.09v2.61h8.51v3.36h-8.51v2h7.45V157h-5.44a24.81,24.81,0,0,0,7,7.25l-1.92,3.05a23.62,23.62,0,0,1-7.12-8.51v10.09h-3.09v-9.65a24.36,24.36,0,0,1-8.24,8.42Zm5.77-17.24v2.27h4.35v-2.27Zm0,4.7v2.24h4.35V152Zm7.44-4.7v2.27h4.45v-2.27Zm0,4.7v2.24h4.45V152Z"/></g></svg>