<svg xmlns="http://www.w3.org/2000/svg" width="700" height="500" viewBox="0 0 700 500"><defs><style>.cls-1,.cls-12,.繧ｰ繝ｩ繝輔ぅ繝け繧ｹ繧ｿ繧､繝ｫ-8{fill:#fff;}.cls-2{fill:#e83589;}.cls-11,.cls-13,.cls-3,.cls-4,.cls-5,.cls-7,.cls-8,.繧ｰ繝ｩ繝輔ぅ繝け繧ｹ繧ｿ繧､繝ｫ-7{fill:none;}.cls-12,.cls-3,.cls-4,.cls-5,.cls-6,.cls-7,.cls-8,.繧ｰ繝ｩ繝輔ぅ繝け繧ｹ繧ｿ繧､繝ｫ-7,.繧ｰ繝ｩ繝輔ぅ繝け繧ｹ繧ｿ繧､繝ｫ-8{stroke:#000;}.cls-3,.cls-4{stroke-linecap:round;}.cls-13,.cls-3,.cls-4{stroke-linejoin:round;}.cls-3{stroke-width:1.43px;}.cls-4{stroke-width:1.83px;}.cls-11,.cls-5,.繧ｰ繝ｩ繝輔ぅ繝け繧ｹ繧ｿ繧､繝ｫ-7{stroke-linejoin:bevel;}.cls-5{stroke-width:1.3px;}.cls-6,.cls-7,.cls-8,.繧ｰ繝ｩ繝輔ぅ繝け繧ｹ繧ｿ繧､繝ｫ-7,.繧ｰ繝ｩ繝輔ぅ繝け繧ｹ繧ｿ繧､繝ｫ-8{stroke-width:1.5px;}.cls-6{fill:#d8eacc;}.cls-12,.cls-7,.cls-8,.繧ｰ繝ｩ繝輔ぅ繝け繧ｹ繧ｿ繧､繝ｫ-8{stroke-miterlimit:10;}.cls-8{stroke-dasharray:5;}.cls-9{fill:#030201;}.cls-10{fill:#242323;}.cls-11{stroke:#47738a;}.cls-13{stroke:#fff;stroke-width:5px;}</style></defs><title>kukakuzu</title><g id="レイヤー_2" data-name="レイヤー 2"><rect class="cls-1" width="700" height="500"/><rect class="cls-2" x="118.27" y="377.87" width="39.3" height="95.53" transform="translate(-287.72 563.55) rotate(-90)"/><path class="cls-1" d="M107.38,431.48h15.56v2.09H107.38V435h-2.32V416.42H122.4v2h-15Zm.69-2.35a19.3,19.3,0,0,0,5.41-4,52.79,52.79,0,0,0-4.83-3.52l1.41-1.58c1.72,1.08,3.21,2.14,4.85,3.4a26.71,26.71,0,0,0,2.7-4.44l2.09,1a31.62,31.62,0,0,1-3,4.85c1.16,1,2.69,2.32,4.25,3.8l-1.64,1.72c-1.35-1.35-2.86-2.74-4.09-3.8a20.87,20.87,0,0,1-5.76,4.36Z"/><path class="cls-1" d="M136.55,418.25h-8.69v-1.87h19.7v1.87h-8.82v2h4.44v10.35h-11V420.24h4.34Zm8.21,13.68V420.24h2.11V435h-2.11v-1.14H130.64V435h-2.1V420.24h2.1v11.69Zm-10.58-10v2.51h2.45v-2.51Zm0,4.1v2.8h2.45V426Zm4.48-1.59h2.55v-2.51h-2.55Zm0,4.39h2.55V426h-2.55Z"/><path class="cls-1" d="M170.75,435h-2.26v-1.06H155.05V435h-2.24V416.24h17.94Zm-15.7-3h13.44V418.12H155.05Zm11.51-.9c-1.31-.81-2.84-1.68-4.23-2.38a17.52,17.52,0,0,1-5.37,3l-1.29-1.55a13.52,13.52,0,0,0,4.67-2.45l-.54-.25c-1.35-.66-2.34-1.1-4.11-1.82l.94-1.53a55.67,55.67,0,0,1,5.28,2.17,17.5,17.5,0,0,0,3.86-7l2,.62a23.37,23.37,0,0,1-3.94,7.35l.19.1c1,.52,2.18,1.14,3.75,2.07Zm-8.73-6.78a19.38,19.38,0,0,0-1.66-4.06l1.91-.77a21.43,21.43,0,0,1,1.72,4Zm3.57-.81a24.27,24.27,0,0,0-1.68-4.08l1.82-.73a18.76,18.76,0,0,1,1.72,4Z"/><polyline class="cls-3" points="277.26 445.38 277.26 433.63 284.17 445.38 284.17 433.63"/><circle class="cls-4" cx="247.2" cy="425.63" r="24.35"/><polygon points="235 419.5 223.61 426.5 268.42 436.31 233.83 406.18 235 419.5"/><path d="M155.29,230.18v1.5h-9.15v2.66h7.05v8.3c0,1.2-.54,1.64-2,1.64a24.52,24.52,0,0,1-2.56-.13l-.27-1.58a17.52,17.52,0,0,0,2.52.21c.54,0,.66-.1.66-.6v-6.39h-5.38v11.3h-1.65v-11.3h-5.11v8.72h-1.64V234.34h6.75v-2.66h-9v-1.5h9v-2.85h1.65v2.85Z"/><path d="M140.19,264.81c1.68,1.68,3.62,2.33,7.11,2.35h8.18a7.15,7.15,0,0,0-.5,1.48h-7.91c-3.64-.05-5.65-.73-7.44-2.54a20.84,20.84,0,0,1-3.25,3.06l-.91-1.48a19.81,19.81,0,0,0,3.14-2.39v-5.58h-3.08V258.3h4.66Zm-.89-10.38a21.18,21.18,0,0,0-3-3.53l1.14-1a20.1,20.1,0,0,1,3.12,3.39Zm2-1.1V252H145a12.62,12.62,0,0,0-1.33-2l1.46-.56a15.72,15.72,0,0,1,1.5,2.56h2.7a19.91,19.91,0,0,0,1.14-2.6l1.65.41a17.56,17.56,0,0,1-1.19,2.19h3.89v1.31h-6c-.1.35-.44,1.23-.64,1.72h5.22v10.61H142.81V255.05h3.83a14.58,14.58,0,0,0,.54-1.72Zm3,4.82h7.49v-1.91h-7.49Zm0,3h7.49v-1.89h-7.49Zm0,3.26h7.49v-2.08h-7.49Z"/><path d="M113.62,183.55a24.41,24.41,0,0,0-3.25-3.2l1.11-1.15a19.93,19.93,0,0,1,3.3,3.12ZM110.87,192a31,31,0,0,0,3.66-6.82l1.31,1a35.25,35.25,0,0,1-3.64,7Zm3.5-13.77A22.42,22.42,0,0,0,111.2,175l1.09-1.08a19,19,0,0,1,3.24,3.1Zm8.23,5.91,0,0a45.54,45.54,0,0,1-3,6.45l-.09.19,1.54-.13c1.54-.12,3.89-.37,5.74-.62-.64-1.08-1.39-2.21-2.18-3.31L126,186a38.64,38.64,0,0,1,4.1,6.31l-1.48.93c-.48-1-.69-1.39-1-2l-.21.05c-2.31.45-7.21,1.1-10.62,1.39l-.55-1.64.84,0,.25,0,.56,0a48.33,48.33,0,0,0,3.08-6.9h-5.25v-1.4H122v-4.2h-5.22V177H122v-3.35h1.62V177h5.53v1.43H123.6v4.2h6.61v1.4h-7.57Z"/><path d="M121.06,237.52h-1.6v-6.66a20.13,20.13,0,0,1-8.09,5.83l-1-1.33a20.49,20.49,0,0,0,7.7-4.89H110.5v-1.39h9v-2.27h1.6v2.27h9.11v1.39h-7.69a21.81,21.81,0,0,0,7.82,4.41l-1,1.45a21,21,0,0,1-8.22-5.59Zm5.64-17.8a19.16,19.16,0,0,1-4.78,4.34,28.41,28.41,0,0,0,7.9,2.46l-.85,1.41a32,32,0,0,1-8.47-3,28.89,28.89,0,0,1-8.71,3.18l-.83-1.29a27.54,27.54,0,0,0,8.25-2.72,28,28,0,0,1-2.95-2.62,17.68,17.68,0,0,1-3.62,2.22l-1-1.08a14.29,14.29,0,0,0,6.22-5l1.58.31c-.31.48-.4.56-.69,1h7.12Zm-9.07.52c-.14.16-.21.2-.33.33a16.19,16.19,0,0,0,3.26,2.72,18.6,18.6,0,0,0,3.73-3Z"/><path d="M119.84,242.6a27.52,27.52,0,0,1-4.08,1.22l-.42-1.49a20,20,0,0,0,5-1.86h1.35v17.16h-1.87Z"/><path d="M115,273.56l.12,0,.09,0c.77-.25,1.74-.62,2.35-.89l.16,1.47a57.74,57.74,0,0,1-6.71,2.46l-.59-1.61c1.17-.31,1.33-.35,2.46-.68l.5-.15v-9.77h-2.71v-1.48h6.6v1.48H115Zm1.47,5.45a12.36,12.36,0,0,0,4.37-2.87l1.27.85a15.26,15.26,0,0,1-4.49,3.23Zm12.09-14.2v11.08h-10V264.81h3.24a17.91,17.91,0,0,0,.56-2.12h-5.2v-1.38H130v1.38h-6a18.09,18.09,0,0,1-.7,2.12Zm-8.45,1.27v2H127v-2Zm0,5.17H127v-1.93h-6.89Zm0,3.35H127v-2.14h-6.89Zm8.78,5.54a27,27,0,0,0-4.16-3.12l1.15-.92a28.28,28.28,0,0,1,4.24,2.87Z"/><path d="M119.84,285.23a26.31,26.31,0,0,1-4.08,1.23l-.42-1.5a20.39,20.39,0,0,0,5-1.85h1.35v17.16h-1.87Z"/><path d="M116.84,313.16a21,21,0,0,1-.69,2h11.69a19.65,19.65,0,0,1-1.1,5.95c-.52,1.16-1.18,1.5-3.06,1.5-1.1,0-2.58-.06-3.59-.15l-.38-1.58c1.44.13,2.83.21,3.83.21s1.35-.17,1.64-.83a19.55,19.55,0,0,0,.79-3.68H115.59c-.27.58-.56,1.18-.87,1.76l-1.69-.47a28.4,28.4,0,0,0,2.06-4.75h-4.63v-1.41h19.75v1.41Zm10.27-3.3H113.53V304h13.58Zm-11.89-1.33h10.21v-3.21H115.22Z"/><path d="M116.51,197.22v11.26h3.22v1.6h-3.22v4.09h-1.83v-4.09h-8.57V208.5l8.11-11.28Zm-1.83,5.27c0-1,0-2.58.1-3.6h-.08a22.05,22.05,0,0,1-1.52,2.64l-5,6.95h6.45Z"/><path d="M121.61,212.53c.54-2.22,2.37-4.45,5.17-6.32l.55-.35c2.91-1.9,3.68-2.81,3.68-4.33,0-1.71-1.42-2.85-3.56-2.85a5.16,5.16,0,0,0-4.3,2.23l-1.31-1.11a6.69,6.69,0,0,1,5.69-2.78c3.25,0,5.62,1.91,5.62,4.55,0,2.1-.81,3.08-4.54,5.45l-.74.48c-2.48,1.62-4,3.41-4.23,4.91h9.76v1.76H121.61Z"/><path d="M104.57,114.93a22.32,22.32,0,0,1-3.5,1.08l-.4-1.36a14.52,14.52,0,0,0,4.37-1.6h1.21V128h-1.68Z"/><path d="M122.46,120.63c0,4.7-2.08,7.59-5.42,7.59s-5.42-2.91-5.42-7.59,2.08-7.58,5.44-7.58S122.46,116,122.46,120.63Zm-9.07,0c0,3.8,1.39,6.15,3.67,6.15s3.63-2.35,3.63-6.15-1.39-6.16-3.67-6.16S113.39,116.84,113.39,120.63Z"/><path d="M126.13,125.37V128h-2.58v-2.58Z"/><path d="M139,120.63c0,4.7-2.08,7.59-5.42,7.59s-5.42-2.91-5.42-7.59,2.08-7.58,5.44-7.58S139,116,139,120.63Zm-9.07,0c0,3.8,1.39,6.15,3.67,6.15s3.63-2.35,3.63-6.15-1.39-6.16-3.67-6.16S129.89,116.84,129.89,120.63Z"/><path d="M140.46,126.52c.47-1.93,2.06-3.86,4.5-5.49l.47-.31c2.53-1.64,3.2-2.43,3.2-3.75,0-1.48-1.23-2.48-3.09-2.48a4.49,4.49,0,0,0-3.74,1.94l-1.14-1a5.8,5.8,0,0,1,5-2.42c2.82,0,4.88,1.66,4.88,4,0,1.83-.71,2.68-3.94,4.74l-.65.41c-2.15,1.41-3.51,3-3.67,4.27h8.47V128H140.46Z"/><path d="M163.17,120.63c0,4.7-2.08,7.59-5.42,7.59s-5.42-2.91-5.42-7.59,2.08-7.58,5.44-7.58S163.17,116,163.17,120.63Zm-9.07,0c0,3.8,1.39,6.15,3.67,6.15s3.63-2.35,3.63-6.15-1.39-6.16-3.67-6.16S154.1,116.84,154.1,120.63Z"/><path d="M99.66,147.13a8.91,8.91,0,0,1-2.16-2.89,9.58,9.58,0,0,1-1-4.08,9.94,9.94,0,0,1,3.19-7h1.07c-2.14,2.45-3,4.52-3,7s.91,4.52,3,7Z"/><path d="M114.34,135.14v1h-4.53v2h6.26v1h-6.26v3.5c0,.76-.36,1-1.34,1a10.8,10.8,0,0,1-1.47-.07l-.16-1a11.32,11.32,0,0,0,1.44.12c.31,0,.39-.09.39-.44v-3.1h-6.25v-1h2.48v-3.32h1.16v3.32h2.6v-5h1.15v1.95Zm-11.63,8a9.35,9.35,0,0,0,3-3.33l1,.44a10.68,10.68,0,0,1-3.16,3.66Zm.62,3.07c4.24-.56,7-1.88,9.13-4.46l.9.69a14.56,14.56,0,0,1-9.41,4.78Zm11.77-2.67a21.54,21.54,0,0,0-3.25-3.24l.82-.64a19.67,19.67,0,0,1,3.33,3.06Z"/><path d="M120.39,144.08c1.19,1.19,2.55,1.64,5,1.66h5.77a5.29,5.29,0,0,0-.35,1h-5.58c-2.57,0-4-.52-5.26-1.79a14.14,14.14,0,0,1-2.29,2.16l-.64-1.05a13.9,13.9,0,0,0,2.22-1.69v-3.93H117.1v-1h3.29Zm-.63-7.33a15.24,15.24,0,0,0-2.14-2.49l.8-.68a14.88,14.88,0,0,1,2.21,2.39Zm1.44-.78v-.92h2.6a9.87,9.87,0,0,0-.94-1.41l1-.4a10.47,10.47,0,0,1,1.06,1.81h1.91a13.7,13.7,0,0,0,.81-1.84l1.16.3a13.26,13.26,0,0,1-.84,1.54h2.74V136h-4.24c-.07.25-.31.87-.45,1.22h3.68v7.49h-7.47v-7.49h2.7a8.52,8.52,0,0,0,.38-1.22Zm2.13,3.41h5.28V138h-5.28Zm0,2.13h5.28v-1.34h-5.28Zm0,2.3h5.28v-1.46h-5.28Z"/><path d="M141.5,136.41v.93h-5.18v-.91a17.21,17.21,0,0,1-3.8,2.08l-.69-.92a13,13,0,0,0,6.31-4.4h1.23A15.74,15.74,0,0,0,146,137.3l-.63,1a17.74,17.74,0,0,1-6.51-4.18,12.49,12.49,0,0,1-2.47,2.31ZM140,141.93a14.09,14.09,0,0,0,1.61-2.32H134v-1h8.6l.69.54a22.48,22.48,0,0,1-1.91,2.73h2.76v5.2h-1.19v-.76H135v.76h-1.21v-5.2Zm-4.93,3.5h7.88v-2.57H135Z"/><path d="M152.62,133.73l-.24,1.77H155v1h-2.77l-.38,2.82a3.88,3.88,0,0,1-.08,3.3,5.15,5.15,0,0,0-.6,1.72c0,.6.74.81,2.95.81a8.31,8.31,0,0,0,2.73-.31c.55-.21.74-.53.74-1.25a6.4,6.4,0,0,0-.85-2.93l1-.18a7,7,0,0,1,1,3.24c0,2-1,2.5-4.7,2.5-3.08,0-3.93-.34-3.93-1.53a2.68,2.68,0,0,1,.1-.7,3.79,3.79,0,0,1-.82.15,1.85,1.85,0,0,1-1.42-.74,3.23,3.23,0,0,1-.5-1.94,2.91,2.91,0,0,1,2.61-3.12,2,2,0,0,1,.75.14l.25-2h-3.39v-1h3.52l.25-1.87Zm-4,7.76c0,1,.42,1.66,1.09,1.66s1.51-1.17,1.51-2.35c0-.89-.43-1.49-1.06-1.49C149.3,139.31,148.58,140.32,148.58,141.49Zm10.82-2.74a15.61,15.61,0,0,0-2.88-3.29l.82-.69a16.81,16.81,0,0,1,2.92,3.16Z"/><path d="M162,147.13c2.13-2.45,3-4.52,3-7s-.89-4.51-3-7H163a8.75,8.75,0,0,1,2.15,2.89,9.58,9.58,0,0,1,1,4.08,10,10,0,0,1-3.18,7Z"/><path d="M189,240.73v1h-4.53v2h6.27v1h-6.27v3.49c0,.76-.35,1-1.34,1a10.56,10.56,0,0,1-1.46-.07l-.17-1a13.75,13.75,0,0,0,1.44.12c.31,0,.4-.09.4-.45v-3.09h-6.25v-1h2.48v-3.31h1.16v3.31h2.59v-5h1.15v1.95Zm-11.62,8a9.66,9.66,0,0,0,3-3.34l1,.44a10.58,10.58,0,0,1-3.16,3.66Zm.62,3.06c4.24-.55,6.95-1.87,9.13-4.46l.89.69a14.57,14.57,0,0,1-9.41,4.79Zm11.77-2.67a22,22,0,0,0-3.26-3.24l.82-.63a19.22,19.22,0,0,1,3.33,3Z"/><path d="M180.25,264.5c1.19,1.19,2.55,1.64,5,1.66H191a5.3,5.3,0,0,0-.36,1h-5.57c-2.57,0-4-.51-5.26-1.79a14.57,14.57,0,0,1-2.29,2.16l-.65-1.05a13.8,13.8,0,0,0,2.22-1.68V260.9H177v-1h3.29Zm-.63-7.33a14.79,14.79,0,0,0-2.15-2.49l.81-.68a14.45,14.45,0,0,1,2.2,2.4Zm1.43-.77v-.93h2.6a9.1,9.1,0,0,0-.94-1.41l1-.4a11.6,11.6,0,0,1,1.06,1.81h1.91a15.6,15.6,0,0,0,.8-1.83l1.16.29a11.87,11.87,0,0,1-.83,1.54h2.74v.93h-4.24c-.08.25-.31.86-.46,1.21h3.69v7.49H182.1v-7.49h2.7a10.52,10.52,0,0,0,.38-1.21Zm2.13,3.4h5.29v-1.35h-5.29Zm0,2.13h5.29v-1.34h-5.29Zm0,2.3h5.29v-1.46h-5.29Z"/><polyline class="cls-5" points="90.81 95.93 76.5 108.42 193.55 108.4 178.58 119.85"/><polyline class="繧ｰ繝ｩ繝輔ぅ繝け繧ｹ繧ｿ繧､繝ｫ-7" points="193.79 69.96 193.79 181.72 199.46 363.08"/><polyline class="繧ｰ繝ｩ繝輔ぅ繝け繧ｹ繧ｿ繧､繝ｫ-7" points="76.67 69.96 76.67 209.16 86.04 363.08"/><polygon class="cls-6" points="197.82 314.23 307.07 348.36 307.07 180.38 193.79 180.38 197.82 314.23"/><polygon class="cls-6" points="402.59 373.79 402.59 190.42 391.21 180.38 307.07 180.38 307.07 348.36 402.59 373.79"/><polygon class="cls-6" points="437.5 180.27 391.32 180.27 402.7 190.31 402.7 373.68 579.96 424.34 544.11 318.51 438.17 289.35 437.5 180.27"/><polygon class="cls-6" points="473.74 180.38 437.39 180.38 437.39 289.46 544 318.63 539.28 304.86 556.08 187.91 534.43 108.77 473.74 108.77 473.74 180.38"/><polyline class="cls-7" points="593.49 469.49 579.85 424.45 539.28 304.86 556.08 187.91 533.59 106.66 506.44 37.83 534.43 108.77 193.79 108.77"/><polygon class="繧ｰ繝ｩ繝輔ぅ繝け繧ｹ繧ｿ繧､繝ｫ-8" points="238.88 249.9 208.26 249.9 208.26 309.88 256.95 309.88 256.95 320.42 301.37 320.42 301.37 216.52 257.45 216.52 257.45 258.68 238.88 258.68 238.88 249.9"/><polygon class="繧ｰ繝ｩ繝輔ぅ繝け繧ｹ繧ｿ繧､繝ｫ-8" points="381.93 258.43 361.85 258.43 361.85 248.89 319.28 248.89 319.28 333.72 352.06 333.72 352.06 343.5 374.4 343.5 374.4 353.04 395.48 353.04 395.48 248.89 381.93 248.89 381.93 258.43"/><polygon class="繧ｰ繝ｩ繝輔ぅ繝け繧ｹ繧ｿ繧､繝ｫ-8" points="442.16 303.85 423.84 368.1 522.21 397.21 540.53 331.21 442.16 303.85"/><polygon class="繧ｰ繝ｩ繝輔ぅ繝け繧ｹ繧ｿ繧､繝ｫ-8" points="471.27 210.24 461.23 287.54 532.75 299.08 547.57 199.45 496.87 193.43 493.6 213.51 471.27 210.24"/><line class="cls-8" x1="169.36" y1="69.96" x2="175.38" y2="356.55"/><polyline class="cls-8" points="193.79 132.7 436.89 132.7 436.89 180.88"/><polyline class="cls-8" points="193.79 156.79 390.71 156.79 390.71 180.88"/><path class="cls-1" d="M217.55,237.34a34.3,34.3,0,0,1-8.94,0c-3.44-.48-6-4.35-5.82-7.89q.79-17.37,0-34.75c-.18-3.36,2.26-7,5.52-7.52a34.86,34.86,0,0,1,9.57,0c3.26.49,5.69,4.16,5.52,7.52q-.81,17.38,0,34.75C223.56,233,221,236.86,217.55,237.34Z"/><path class="cls-9" d="M213.08,237.76a33.48,33.48,0,0,1-4.48-.29c-3.36-.47-6.12-4.22-5.92-8,.52-11.52.52-23.2,0-34.73-.19-3.6,2.44-7.18,5.62-7.65a34.3,34.3,0,0,1,9.6,0c3.19.47,5.81,4.05,5.62,7.65-.53,11.53-.54,23.21,0,34.73.2,3.81-2.57,7.56-5.92,8h0A33.74,33.74,0,0,1,213.08,237.76Zm0-50.78a34.65,34.65,0,0,0-4.77.33c-3.07.46-5.6,3.91-5.42,7.38.54,11.54.54,23.24,0,34.77-.2,3.68,2.48,7.3,5.71,7.76a35,35,0,0,0,8.92,0c3.24-.46,5.91-4.08,5.72-7.76-.53-11.53-.52-23.23,0-34.76.19-3.48-2.35-6.93-5.42-7.39A34.55,34.55,0,0,0,213.08,187Z"/><path class="cls-10" d="M220.21,230.83H206l.06.55h14.15C220.18,231.2,220.2,231,220.21,230.83Z"/><path class="cls-9" d="M221.67,225.14l-.13-.47A52.62,52.62,0,0,1,220.17,212c0-.52,0-1.05,0-1.58v0l2.16-5.67v.45c0,1.31,0,2.61,0,3.87,0,5.35-.23,10.6-.7,15.59Zm-1.31-14.68c0,.53,0,1,0,1.56a53.6,53.6,0,0,0,1.24,12.11c.43-4.84.65-9.91.65-15.07,0-1.11,0-2.26,0-3.42Z"/><path class="cls-9" d="M204.49,225.14l0-.49c-.47-5-.7-10.24-.7-15.59,0-1.25,0-2.55,0-3.87v-.45l2.17,5.7c0,.53,0,1.06,0,1.58a52.62,52.62,0,0,1-1.37,12.65Zm-.53-19.5c0,1.17,0,2.32,0,3.42,0,5.16.22,10.23.65,15.07A53,53,0,0,0,205.82,212c0-.51,0-1,0-1.56Z"/><path class="cls-1" d="M222.21,203.65v-8.33c0-4.89-3.59-8.89-8-8.89h-2.3c-4.39,0-8,4-8,8.89v8.33a37.13,37.13,0,0,1,18.26,0Z"/><path d="M222.3,203.77l-.11,0a35.83,35.83,0,0,0-9.11-1.15H213a36.34,36.34,0,0,0-9,1.15l-.1,0v-8.45c0-5,3.62-9,8.06-9h2.3c4.45,0,8.07,4,8.07,9Zm-10.37-17.25c-4.35,0-7.89,3.95-7.89,8.8v8.21a36.7,36.7,0,0,1,8.92-1.12h.24a36.7,36.7,0,0,1,8.92,1.12v-8.21c0-4.85-3.54-8.8-7.89-8.8Z"/><path class="cls-1" d="M219.68,223.16a39.46,39.46,0,0,0-13.19,0,23.72,23.72,0,0,0-.57,7.67h14.32A23.71,23.71,0,0,0,219.68,223.16Z"/><path d="M220.32,230.93H205.84v-.09a23.59,23.59,0,0,1,.56-7.7l0-.06h.05a39.64,39.64,0,0,1,13.22,0h.06v.06a23.86,23.86,0,0,1,.57,7.7ZM206,230.74h14.16a23.69,23.69,0,0,0-.55-7.49,39.75,39.75,0,0,0-13.06,0A23.69,23.69,0,0,0,206,230.74Z"/><path class="cls-10" d="M220.24,230.83H205.92l.06.56h14.2Z"/><path class="cls-1" d="M206,231.39v4a15.59,15.59,0,0,0,14.2,0v-4Z"/><path d="M213.08,237.19a14.23,14.23,0,0,1-7.14-1.72l-.05,0v-4.16h14.38v4.16l-.05,0A14.23,14.23,0,0,1,213.08,237.19Zm-7-1.86a15.57,15.57,0,0,0,14,0v-3.85h-14Z"/><path class="cls-10" d="M222.15,203.6l.18-.54a31.53,31.53,0,0,0-18.5,0l.18.54A31.48,31.48,0,0,1,222.15,203.6Z"/><path class="cls-1" d="M204.27,203.57l2.22,6.76h13.19l2.22-6.76A30.59,30.59,0,0,0,204.27,203.57Z"/><path d="M219.74,210.43H206.42l-2.27-6.92.09,0a30.59,30.59,0,0,1,17.68,0l.09,0Zm-13.19-.2h13.07l2.16-6.59a30.32,30.32,0,0,0-17.4,0Z"/><path class="cls-9" d="M220.16,235.38h.09a2.07,2.07,0,0,0,1.95-2.17v-.16A5,5,0,0,1,220.16,235.38Z"/><path class="cls-9" d="M206,235.38h-.09a2.07,2.07,0,0,1-2-2.17v-.16A5,5,0,0,0,206,235.38Z"/><path class="cls-1" d="M224.64,208.94a1,1,0,0,0-.14-.78l-1.59-1.53a.14.14,0,0,0-.09,0V208l1.78,1.11Z"/><path class="cls-9" d="M224.66,209.26l-1.92-1.2v-1.6l.1,0a.29.29,0,0,1,.12.07l1.6,1.53a1.07,1.07,0,0,1,.16.88ZM222.91,208l1.63,1v-.06a.86.86,0,0,0-.11-.68l-1.53-1.47Z"/><path class="cls-1" d="M201.52,208.94a1,1,0,0,1,.14-.78l1.6-1.53a.1.1,0,0,1,.08,0V208l-1.78,1.11Z"/><path class="cls-9" d="M201.5,209.26l-.06-.3a1,1,0,0,1,.17-.88l1.59-1.53a.37.37,0,0,1,.12-.07l.11,0v1.6Zm1.75-2.5-1.53,1.47a.86.86,0,0,0-.11.68V209l1.63-1Z"/><path class="cls-9" d="M217.78,198.51a19.37,19.37,0,0,0-1.28-7.63,22,22,0,0,1,.93,6.76,27.68,27.68,0,0,1-.23,3.65h.45C217.73,200.41,217.78,199.48,217.78,198.51Z"/><path class="cls-9" d="M208.38,198.51a19.37,19.37,0,0,1,1.28-7.63,22,22,0,0,0-.93,6.76,27.62,27.62,0,0,0,.24,3.65h-.45A27.36,27.36,0,0,1,208.38,198.51Z"/><rect class="cls-1" x="206.49" y="210.33" width="13.19" height="12.83"/><path d="M219.76,223.26H206.4v-13h13.36Zm-13.19-.19h13V210.43h-13Z"/><path class="cls-1" d="M246.29,237.34a34.3,34.3,0,0,1-8.94,0c-3.43-.48-6-4.35-5.82-7.89q.79-17.37,0-34.75c-.18-3.36,2.26-7,5.52-7.52a34.86,34.86,0,0,1,9.57,0c3.26.49,5.7,4.16,5.52,7.52q-.81,17.38,0,34.75C252.3,233,249.73,236.86,246.29,237.34Z"/><path class="cls-9" d="M241.82,237.76a33.48,33.48,0,0,1-4.48-.29c-3.36-.47-6.12-4.22-5.92-8,.52-11.52.52-23.2,0-34.73-.19-3.6,2.44-7.18,5.62-7.65a34.3,34.3,0,0,1,9.6,0c3.19.47,5.81,4.05,5.62,7.65-.53,11.53-.54,23.21,0,34.73.2,3.81-2.57,7.56-5.92,8h0A33.74,33.74,0,0,1,241.82,237.76Zm0-50.78a34.65,34.65,0,0,0-4.77.33c-3.07.46-5.6,3.91-5.42,7.38.54,11.54.54,23.24,0,34.77-.2,3.68,2.48,7.3,5.71,7.76a35,35,0,0,0,8.92,0c3.24-.46,5.91-4.08,5.72-7.76-.53-11.53-.52-23.23,0-34.76.19-3.48-2.35-6.93-5.42-7.39A34.55,34.55,0,0,0,241.82,187Z"/><path class="cls-10" d="M249,230.83H234.69l.06.55H248.9Z"/><path class="cls-9" d="M250.41,225.14l-.12-.47A52.08,52.08,0,0,1,248.91,212c0-.52,0-1.05,0-1.58v0l2.16-5.67v.45c0,1.31,0,2.61,0,3.87,0,5.35-.23,10.6-.7,15.59Zm-1.31-14.68c0,.53,0,1,0,1.56a53.6,53.6,0,0,0,1.24,12.11c.43-4.84.65-9.91.65-15.07,0-1.11,0-2.26,0-3.42Z"/><path class="cls-9" d="M233.23,225.14l0-.49c-.47-5-.7-10.24-.7-15.59,0-1.25,0-2.55,0-3.87v-.45l2.17,5.7c0,.53,0,1.06,0,1.58a52.62,52.62,0,0,1-1.37,12.65Zm-.53-19.5c0,1.17,0,2.32,0,3.42,0,5.16.22,10.23.66,15.07A53.6,53.6,0,0,0,234.56,212c0-.51,0-1,0-1.56Z"/><path class="cls-1" d="M251,203.65v-8.33c0-4.89-3.59-8.89-8-8.89h-2.29c-4.39,0-8,4-8,8.89v8.33a37.13,37.13,0,0,1,18.26,0Z"/><path d="M251,203.77l-.11,0a35.83,35.83,0,0,0-9.11-1.15h-.12a36.34,36.34,0,0,0-9,1.15l-.1,0v-8.45c0-5,3.62-9,8.07-9H243c4.45,0,8.07,4,8.07,9Zm-10.36-17.25c-4.36,0-7.9,3.95-7.9,8.8v8.21a36.7,36.7,0,0,1,8.92-1.12h.24a36.58,36.58,0,0,1,8.92,1.12v-8.21c0-4.85-3.54-8.8-7.89-8.8Z"/><path class="cls-1" d="M248.42,223.16a39.46,39.46,0,0,0-13.19,0,23.72,23.72,0,0,0-.57,7.67H249A23.71,23.71,0,0,0,248.42,223.16Z"/><path d="M249.06,230.93H234.59v-.09a23.59,23.59,0,0,1,.56-7.7l0-.06h.05a39.64,39.64,0,0,1,13.22,0h.06v.06a23.86,23.86,0,0,1,.57,7.7Zm-14.32-.19H248.9a23.69,23.69,0,0,0-.55-7.49,39.75,39.75,0,0,0-13.06,0A23.69,23.69,0,0,0,234.74,230.74Z"/><path class="cls-10" d="M249,230.83H234.66l.06.56h14.2Z"/><path class="cls-1" d="M234.72,231.39v4a15.59,15.59,0,0,0,14.2,0v-4Z"/><path d="M241.82,237.19a14.26,14.26,0,0,1-7.14-1.72l-.05,0v-4.16H249v4.16l0,0A14.23,14.23,0,0,1,241.82,237.19Zm-7-1.86a15.57,15.57,0,0,0,14,0v-3.85h-14Z"/><path class="cls-10" d="M250.89,203.6l.18-.54a31.49,31.49,0,0,0-18.49,0l.17.54A31.48,31.48,0,0,1,250.89,203.6Z"/><path class="cls-1" d="M233,203.57l2.22,6.76h13.19l2.22-6.76A30.59,30.59,0,0,0,233,203.57Z"/><path d="M248.48,210.43H235.17l-2.28-6.92.09,0a30.59,30.59,0,0,1,17.68,0l.09,0Zm-13.19-.2h13.07l2.16-6.59a30.32,30.32,0,0,0-17.4,0Z"/><path class="cls-9" d="M248.9,235.38H249a2.07,2.07,0,0,0,1.95-2.17v-.16A5,5,0,0,1,248.9,235.38Z"/><path class="cls-9" d="M234.75,235.38h-.09a2.07,2.07,0,0,1-2-2.17v-.16A5,5,0,0,0,234.75,235.38Z"/><path class="cls-1" d="M253.38,208.94a1,1,0,0,0-.14-.78l-1.59-1.53a.14.14,0,0,0-.09,0V208l1.78,1.11Z"/><path class="cls-9" d="M253.4,209.26l-1.92-1.2v-1.6l.1,0a.29.29,0,0,1,.12.07l1.6,1.53a1.07,1.07,0,0,1,.16.88ZM251.65,208l1.63,1v-.06a.86.86,0,0,0-.11-.68l-1.53-1.47Z"/><path class="cls-1" d="M230.27,208.94a.92.92,0,0,1,.13-.78l1.6-1.53a.1.1,0,0,1,.08,0V208l-1.78,1.11Z"/><path class="cls-9" d="M230.24,209.26l-.06-.3a1,1,0,0,1,.17-.88l1.59-1.53a.37.37,0,0,1,.12-.07l.11,0v1.6Zm1.75-2.5-1.53,1.47a.86.86,0,0,0-.11.68V209l1.63-1Z"/><path class="cls-9" d="M246.52,198.51a19.37,19.37,0,0,0-1.28-7.63,22,22,0,0,1,.93,6.76,27.68,27.68,0,0,1-.23,3.65h.45C246.47,200.41,246.52,199.48,246.52,198.51Z"/><path class="cls-9" d="M237.12,198.51a19.37,19.37,0,0,1,1.28-7.63,22,22,0,0,0-.93,6.76,27.62,27.62,0,0,0,.24,3.65h-.45A27.36,27.36,0,0,1,237.12,198.51Z"/><rect class="cls-1" x="235.23" y="210.33" width="13.19" height="12.83"/><path d="M248.5,223.26H235.14v-13H248.5Zm-13.19-.19h13V210.43h-13Z"/><path class="cls-1" d="M338.37,237.34a34.3,34.3,0,0,1-8.94,0c-3.43-.48-6-4.35-5.82-7.89q.79-17.37,0-34.75c-.18-3.36,2.26-7,5.52-7.52a34.86,34.86,0,0,1,9.57,0c3.26.49,5.7,4.16,5.52,7.52q-.81,17.38,0,34.75C344.38,233,341.81,236.86,338.37,237.34Z"/><path class="cls-9" d="M333.9,237.76a33.48,33.48,0,0,1-4.48-.29c-3.36-.47-6.12-4.22-5.92-8,.52-11.52.52-23.2,0-34.73-.19-3.6,2.44-7.18,5.62-7.65a34.3,34.3,0,0,1,9.6,0c3.19.47,5.81,4.05,5.62,7.65-.53,11.53-.54,23.21,0,34.73.2,3.81-2.57,7.56-5.92,8h0A33.74,33.74,0,0,1,333.9,237.76Zm0-50.78a34.65,34.65,0,0,0-4.77.33c-3.07.46-5.6,3.91-5.42,7.38.54,11.54.54,23.24,0,34.77-.2,3.68,2.48,7.3,5.71,7.76a35,35,0,0,0,8.92,0c3.24-.46,5.91-4.08,5.72-7.76-.53-11.53-.52-23.23,0-34.76.19-3.48-2.35-6.93-5.42-7.39A34.55,34.55,0,0,0,333.9,187Z"/><path class="cls-10" d="M341,230.83H326.77l.06.55H341Z"/><path class="cls-9" d="M342.49,225.14l-.12-.47A52.08,52.08,0,0,1,341,212c0-.52,0-1.05,0-1.58v0l2.16-5.67v.45c0,1.31.05,2.61.05,3.87,0,5.35-.24,10.6-.71,15.59Zm-1.31-14.68c0,.53,0,1,0,1.56a53.6,53.6,0,0,0,1.24,12.11c.43-4.84.65-9.91.65-15.07,0-1.11,0-2.26,0-3.42Z"/><path class="cls-9" d="M325.31,225.14l0-.49c-.47-5-.7-10.24-.7-15.59,0-1.25,0-2.55,0-3.87v-.45l2.17,5.7c0,.53,0,1.06,0,1.58a52.62,52.62,0,0,1-1.37,12.65Zm-.53-19.5c0,1.17,0,2.32,0,3.42,0,5.16.22,10.23.66,15.07A53.6,53.6,0,0,0,326.64,212c0-.51,0-1,0-1.56Z"/><path class="cls-1" d="M343,203.65v-8.33c0-4.89-3.59-8.89-8-8.89h-2.29c-4.39,0-8,4-8,8.89v8.33a37.13,37.13,0,0,1,18.26,0Z"/><path d="M343.12,203.77l-.11,0a35.83,35.83,0,0,0-9.11-1.15h-.12a36.34,36.34,0,0,0-9,1.15l-.1,0v-8.45c0-5,3.62-9,8.07-9h2.29c4.45,0,8.07,4,8.07,9Zm-10.36-17.25c-4.36,0-7.9,3.95-7.9,8.8v8.21a36.7,36.7,0,0,1,8.92-1.12H334a36.58,36.58,0,0,1,8.92,1.12v-8.21c0-4.85-3.54-8.8-7.89-8.8Z"/><path class="cls-1" d="M340.5,223.16a39.46,39.46,0,0,0-13.19,0,23.72,23.72,0,0,0-.57,7.67h14.32A23.71,23.71,0,0,0,340.5,223.16Z"/><path d="M341.14,230.93H326.67v-.09a23.59,23.59,0,0,1,.56-7.7l0-.06h.05a39.64,39.64,0,0,1,13.22,0h.06v.06a23.86,23.86,0,0,1,.57,7.7Zm-14.32-.19H341a23.69,23.69,0,0,0-.55-7.49,39.69,39.69,0,0,0-13.05,0A23.41,23.41,0,0,0,326.82,230.74Z"/><path class="cls-10" d="M341.06,230.83H326.74l.06.56H341Z"/><path class="cls-1" d="M326.8,231.39v4a15.59,15.59,0,0,0,14.2,0v-4Z"/><path d="M333.9,237.19a14.26,14.26,0,0,1-7.14-1.72l0,0v-4.16h14.37v4.16l0,0A14.23,14.23,0,0,1,333.9,237.19Zm-7-1.86a15.57,15.57,0,0,0,14,0v-3.85h-14Z"/><path class="cls-10" d="M343,203.6l.18-.54a31.49,31.49,0,0,0-18.49,0l.17.54A31.48,31.48,0,0,1,343,203.6Z"/><path class="cls-1" d="M325.09,203.57l2.22,6.76H340.5l2.22-6.76A30.59,30.59,0,0,0,325.09,203.57Z"/><path d="M340.56,210.43H327.25L325,203.51l.09,0a30.59,30.59,0,0,1,17.68,0l.09,0Zm-13.19-.2h13.07l2.16-6.59a30.32,30.32,0,0,0-17.4,0Z"/><path class="cls-9" d="M341,235.38h.09a2.07,2.07,0,0,0,1.95-2.17v-.16A5,5,0,0,1,341,235.38Z"/><path class="cls-9" d="M326.83,235.38h-.09a2.07,2.07,0,0,1-2-2.17v-.16A5,5,0,0,0,326.83,235.38Z"/><path class="cls-1" d="M345.46,208.94a1,1,0,0,0-.14-.78l-1.59-1.53a.14.14,0,0,0-.09,0V208l1.78,1.11Z"/><path class="cls-9" d="M345.48,209.26l-1.92-1.2v-1.6l.1,0a.29.29,0,0,1,.12.07l1.6,1.53a1.07,1.07,0,0,1,.16.88ZM343.73,208l1.63,1v-.06a.86.86,0,0,0-.11-.68l-1.53-1.47Z"/><path class="cls-1" d="M322.35,208.94a.92.92,0,0,1,.13-.78l1.6-1.53a.1.1,0,0,1,.08,0V208l-1.78,1.11Z"/><path class="cls-9" d="M322.33,209.26l-.07-.3a1,1,0,0,1,.17-.88l1.59-1.53a.37.37,0,0,1,.12-.07l.11,0v1.6Zm1.74-2.5-1.53,1.47a.86.86,0,0,0-.11.68V209l1.63-1Z"/><path class="cls-9" d="M338.6,198.51a19.37,19.37,0,0,0-1.28-7.63,22,22,0,0,1,.93,6.76,27.68,27.68,0,0,1-.23,3.65h.45C338.55,200.41,338.6,199.48,338.6,198.51Z"/><path class="cls-9" d="M329.2,198.51a19.37,19.37,0,0,1,1.28-7.63,22,22,0,0,0-.93,6.76,27.62,27.62,0,0,0,.24,3.65h-.45A27.36,27.36,0,0,1,329.2,198.51Z"/><rect class="cls-1" x="327.31" y="210.33" width="13.19" height="12.83"/><path d="M340.58,223.26H327.22v-13h13.36Zm-13.19-.19h13V210.43h-13Z"/><path class="cls-1" d="M373.92,237.34a34.38,34.38,0,0,1-8.95,0c-3.43-.48-6-4.35-5.82-7.89q.8-17.37,0-34.75c-.18-3.36,2.26-7,5.52-7.52a34.86,34.86,0,0,1,9.57,0c3.26.49,5.7,4.16,5.52,7.52q-.81,17.38,0,34.75C379.92,233,377.35,236.86,373.92,237.34Z"/><path class="cls-9" d="M369.44,237.76a33.7,33.7,0,0,1-4.48-.29c-3.36-.47-6.12-4.22-5.92-8,.52-11.52.52-23.2,0-34.73-.19-3.6,2.44-7.18,5.62-7.65a34.3,34.3,0,0,1,9.6,0c3.19.47,5.82,4.05,5.62,7.65-.53,11.53-.54,23.21,0,34.73.2,3.81-2.57,7.56-5.92,8h0A33.74,33.74,0,0,1,369.44,237.76Zm0-50.78a34.76,34.76,0,0,0-4.77.33c-3.07.46-5.6,3.91-5.42,7.38.54,11.54.54,23.24,0,34.77-.19,3.68,2.48,7.3,5.72,7.76a35,35,0,0,0,8.91,0c3.24-.46,5.91-4.08,5.72-7.76-.53-11.53-.52-23.23,0-34.76.19-3.48-2.35-6.93-5.42-7.39A34.55,34.55,0,0,0,369.44,187Z"/><path class="cls-10" d="M376.58,230.83H362.31l.06.55h14.15Z"/><path class="cls-9" d="M378,225.14l-.12-.47A52.12,52.12,0,0,1,376.54,212c0-.52,0-1.05,0-1.58v0l2.16-5.67v.45c0,1.31,0,2.61,0,3.87,0,5.35-.24,10.6-.7,15.59Zm-1.3-14.68c0,.53,0,1,0,1.56A53.6,53.6,0,0,0,378,224.13c.43-4.84.65-9.91.65-15.07,0-1.11,0-2.26,0-3.42Z"/><path class="cls-9" d="M360.86,225.14l-.05-.49c-.46-5-.7-10.24-.7-15.59,0-1.25,0-2.55,0-3.87v-.45l2.17,5.7c0,.53,0,1.06,0,1.58A52.62,52.62,0,0,1,361,224.67Zm-.54-19.5c0,1.17,0,2.32,0,3.42,0,5.16.22,10.23.66,15.07A53.6,53.6,0,0,0,362.18,212c0-.51,0-1,0-1.56Z"/><path class="cls-1" d="M378.57,203.65v-8.33c0-4.89-3.59-8.89-8-8.89H368.3c-4.39,0-8,4-8,8.89v8.33a37.13,37.13,0,0,1,18.26,0Z"/><path d="M378.66,203.77l-.11,0a35.83,35.83,0,0,0-9.11-1.15h-.12a36.4,36.4,0,0,0-9,1.15l-.1,0v-8.45c0-5,3.62-9,8.07-9h2.29c4.45,0,8.07,4,8.07,9ZM368.3,186.52c-4.36,0-7.9,3.95-7.9,8.8v8.21a36.7,36.7,0,0,1,8.92-1.12h.24a36.72,36.72,0,0,1,8.93,1.12v-8.21c0-4.85-3.55-8.8-7.9-8.8Z"/><path class="cls-1" d="M376,223.16a39.46,39.46,0,0,0-13.19,0,23.43,23.43,0,0,0-.56,7.67H376.6A23.43,23.43,0,0,0,376,223.16Z"/><path d="M376.68,230.93H362.21v-.09a24.15,24.15,0,0,1,.56-7.7l0-.06h.05a39.64,39.64,0,0,1,13.22,0h.06v.06a23.86,23.86,0,0,1,.57,7.7Zm-14.32-.19h14.16a23.4,23.4,0,0,0-.55-7.49,39.69,39.69,0,0,0-13.05,0A23.7,23.7,0,0,0,362.36,230.74Z"/><path class="cls-10" d="M376.6,230.83H362.29c0,.19,0,.37,0,.56h14.2A5.32,5.32,0,0,0,376.6,230.83Z"/><path class="cls-1" d="M362.34,231.39v4a15.59,15.59,0,0,0,14.2,0v-4Z"/><path d="M369.44,237.19a14.26,14.26,0,0,1-7.14-1.72l0,0v-4.16h14.37v4.16l0,0A14.3,14.3,0,0,1,369.44,237.19Zm-7-1.86a15.57,15.57,0,0,0,14,0v-3.85h-14Z"/><path class="cls-10" d="M378.51,203.6l.18-.54a31.49,31.49,0,0,0-18.49,0l.17.54A31.48,31.48,0,0,1,378.51,203.6Z"/><path class="cls-1" d="M360.63,203.57l2.22,6.76H376l2.22-6.76A30.59,30.59,0,0,0,360.63,203.57Z"/><path d="M376.1,210.43H362.79l-2.27-6.92.09,0a30.56,30.56,0,0,1,17.67,0l.09,0Zm-13.19-.2H376l2.17-6.59a30.35,30.35,0,0,0-17.41,0Z"/><path class="cls-9" d="M376.52,235.38h.09a2.07,2.07,0,0,0,1.95-2.17v-.16A5,5,0,0,1,376.52,235.38Z"/><path class="cls-9" d="M362.37,235.38h-.09a2.07,2.07,0,0,1-1.95-2.17v-.16A4.92,4.92,0,0,0,362.37,235.38Z"/><path class="cls-1" d="M381,208.94a1,1,0,0,0-.14-.78l-1.59-1.53a.15.15,0,0,0-.08,0V208l1.77,1.11Z"/><path class="cls-9" d="M381,209.26l-1.92-1.2v-1.6l.1,0a.33.33,0,0,1,.13.07l1.59,1.53a1,1,0,0,1,.16.88ZM379.27,208l1.63,1,0-.06a.86.86,0,0,0-.11-.68l-1.54-1.47Z"/><path class="cls-1" d="M357.89,208.94a.92.92,0,0,1,.14-.78l1.59-1.53a.1.1,0,0,1,.08,0V208l-1.78,1.11Z"/><path class="cls-9" d="M357.87,209.26l-.07-.3a1,1,0,0,1,.17-.88l1.59-1.53a.37.37,0,0,1,.12-.07l.11,0v1.6Zm1.74-2.5-1.53,1.47a.86.86,0,0,0-.11.68V209l1.63-1Z"/><path class="cls-9" d="M374.14,198.51a19.37,19.37,0,0,0-1.28-7.63,22,22,0,0,1,.93,6.76,27.68,27.68,0,0,1-.23,3.65H374A27.44,27.44,0,0,0,374.14,198.51Z"/><path class="cls-9" d="M364.74,198.51a19.37,19.37,0,0,1,1.28-7.63,22,22,0,0,0-.93,6.76,27.62,27.62,0,0,0,.24,3.65h-.45A27.36,27.36,0,0,1,364.74,198.51Z"/><rect class="cls-1" x="362.85" y="210.33" width="13.19" height="12.83"/><path d="M376.13,223.26H362.76v-13h13.37Zm-13.2-.19h13V210.43h-13Z"/><path class="cls-1" d="M424,237.34a34.3,34.3,0,0,1-8.94,0c-3.44-.48-6-4.35-5.82-7.89q.8-17.37,0-34.75c-.17-3.36,2.27-7,5.52-7.52a34.93,34.93,0,0,1,9.58,0c3.25.49,5.69,4.16,5.52,7.52q-.81,17.38,0,34.75C430.05,233,427.48,236.86,424,237.34Z"/><path class="cls-9" d="M419.57,237.76a33.74,33.74,0,0,1-4.49-.29c-3.35-.47-6.11-4.22-5.92-8,.53-11.52.52-23.2,0-34.73-.19-3.6,2.43-7.18,5.62-7.65a34.3,34.3,0,0,1,9.6,0c3.19.47,5.81,4.05,5.62,7.65-.53,11.53-.54,23.21,0,34.73.2,3.81-2.57,7.56-5.92,8h0A33.74,33.74,0,0,1,419.57,237.76Zm0-50.78a34.65,34.65,0,0,0-4.77.33c-3.07.46-5.6,3.91-5.42,7.38.53,11.54.54,23.24,0,34.77-.19,3.68,2.48,7.3,5.72,7.76a35,35,0,0,0,8.92,0c3.24-.46,5.91-4.08,5.72-7.76-.53-11.53-.52-23.23,0-34.76.18-3.48-2.35-6.93-5.42-7.39A34.65,34.65,0,0,0,419.57,187Z"/><path class="cls-10" d="M426.7,230.83H412.44c0,.18,0,.37.05.55h14.16C426.67,231.2,426.69,231,426.7,230.83Z"/><path class="cls-9" d="M428.16,225.14l-.13-.47A52.62,52.62,0,0,1,426.66,212c0-.52,0-1.05,0-1.58v0l2.16-5.67v.45c0,1.31,0,2.61,0,3.87,0,5.35-.23,10.6-.7,15.59Zm-1.31-14.68c0,.53,0,1,0,1.56a53,53,0,0,0,1.25,12.11c.43-4.84.65-9.91.65-15.07,0-1.11,0-2.26,0-3.42Z"/><path class="cls-9" d="M411,225.14l0-.49c-.47-5-.7-10.24-.7-15.59,0-1.25,0-2.55,0-3.87v-.45l2.17,5.7c0,.53,0,1.06,0,1.58a52.62,52.62,0,0,1-1.37,12.65Zm-.54-19.5c0,1.17,0,2.32,0,3.42,0,5.16.22,10.23.65,15.07A53,53,0,0,0,412.31,212c0-.51,0-1,0-1.56Z"/><path class="cls-1" d="M428.7,203.65v-8.33c0-4.89-3.59-8.89-8-8.89h-2.3c-4.39,0-8,4-8,8.89v8.33a37.13,37.13,0,0,1,18.26,0Z"/><path d="M428.79,203.77l-.11,0a35.83,35.83,0,0,0-9.11-1.15h-.12a36.28,36.28,0,0,0-9,1.15l-.11,0v-8.45c0-5,3.62-9,8.07-9h2.3c4.45,0,8.07,4,8.07,9Zm-10.37-17.25c-4.35,0-7.89,3.95-7.89,8.8v8.21a36.7,36.7,0,0,1,8.92-1.12h.24a36.7,36.7,0,0,1,8.92,1.12v-8.21c0-4.85-3.54-8.8-7.89-8.8Z"/><path class="cls-1" d="M426.17,223.16a39.52,39.52,0,0,0-13.2,0,24,24,0,0,0-.56,7.67h14.32A24,24,0,0,0,426.17,223.16Z"/><path d="M426.81,230.93H412.33v-.09a23.59,23.59,0,0,1,.56-7.7v-.06H413a39.64,39.64,0,0,1,13.22,0h.06v.06a23.57,23.57,0,0,1,.56,7.7Zm-14.32-.19h14.16a23.69,23.69,0,0,0-.55-7.49,39.75,39.75,0,0,0-13.06,0A23.69,23.69,0,0,0,412.49,230.74Z"/><path class="cls-10" d="M426.73,230.83H412.41l.06.56h14.2Z"/><path class="cls-1" d="M412.47,231.39v4a15.59,15.59,0,0,0,14.2,0v-4Z"/><path d="M419.57,237.19a14.23,14.23,0,0,1-7.14-1.72l-.05,0v-4.16h14.38v4.16l-.05,0A14.23,14.23,0,0,1,419.57,237.19Zm-7-1.86a15.55,15.55,0,0,0,14,0v-3.85h-14Z"/><path class="cls-10" d="M428.64,203.6l.18-.54a31.53,31.53,0,0,0-18.5,0l.18.54A31.48,31.48,0,0,1,428.64,203.6Z"/><path class="cls-1" d="M410.75,203.57l2.22,6.76h13.2l2.22-6.76A30.63,30.63,0,0,0,410.75,203.57Z"/><path d="M426.23,210.43H412.91l-2.27-6.92.09,0a30.59,30.59,0,0,1,17.68,0l.09,0Zm-13.2-.2h13.08l2.16-6.59a30.32,30.32,0,0,0-17.4,0Z"/><path class="cls-9" d="M426.64,235.38h.09a2.07,2.07,0,0,0,2-2.17v-.16A5,5,0,0,1,426.64,235.38Z"/><path class="cls-9" d="M412.5,235.38h-.09a2.07,2.07,0,0,1-2-2.17v-.16A5,5,0,0,0,412.5,235.38Z"/><path class="cls-1" d="M431.13,208.94a1,1,0,0,0-.14-.78l-1.59-1.53a.14.14,0,0,0-.09,0V208l1.78,1.11Z"/><path class="cls-9" d="M431.15,209.26l-1.92-1.2v-1.6l.1,0a.37.37,0,0,1,.12.07l1.6,1.53a1.07,1.07,0,0,1,.16.88ZM429.4,208l1.63,1v-.06a.86.86,0,0,0-.11-.68l-1.53-1.47Z"/><path class="cls-1" d="M408,208.94a1,1,0,0,1,.14-.78l1.59-1.53a.14.14,0,0,1,.09,0V208l-1.78,1.11Z"/><path class="cls-9" d="M408,209.26l-.06-.3a1.07,1.07,0,0,1,.16-.88l1.6-1.53a.37.37,0,0,1,.12-.07l.1,0v1.6Zm1.75-2.5-1.53,1.47a.86.86,0,0,0-.11.68V209l1.63-1Z"/><path class="cls-9" d="M424.27,198.51a19.37,19.37,0,0,0-1.28-7.63,22,22,0,0,1,.93,6.76,26,26,0,0,1-.24,3.65h.46C424.22,200.41,424.27,199.48,424.27,198.51Z"/><path class="cls-9" d="M414.87,198.51a19.37,19.37,0,0,1,1.28-7.63,22,22,0,0,0-.93,6.76,26,26,0,0,0,.24,3.65H415C414.92,200.41,414.87,199.48,414.87,198.51Z"/><rect class="cls-1" x="412.97" y="210.33" width="13.19" height="12.83"/><path d="M426.25,223.26H412.89v-13h13.36Zm-13.19-.19h13V210.43h-13Z"/><path class="cls-1" d="M532.8,124.39a34.3,34.3,0,0,1,0,8.94c-.48,3.44-4.36,6-7.9,5.82q-17.37-.79-34.74,0c-3.37.17-7-2.27-7.52-5.52a34.16,34.16,0,0,1,0-9.58c.48-3.25,4.15-5.69,7.52-5.52q17.37.81,34.74,0C528.44,118.38,532.32,121,532.8,124.39Z"/><path class="cls-9" d="M533.22,128.86a33.75,33.75,0,0,1-.3,4.49c-.46,3.35-4.22,6.11-8,5.92-11.52-.53-23.21-.52-34.74,0-3.6.19-7.18-2.43-7.65-5.62a34.3,34.3,0,0,1,0-9.6c.47-3.19,4.05-5.81,7.65-5.62,11.53.53,23.22.54,34.74,0,3.8-.2,7.56,2.57,8,5.92h0A33.75,33.75,0,0,1,533.22,128.86Zm-50.79,0a34.65,34.65,0,0,0,.33,4.77c.46,3.07,3.91,5.6,7.39,5.42,11.53-.53,23.23-.54,34.76,0,3.68.19,7.31-2.48,7.76-5.72a34.15,34.15,0,0,0,0-8.92c-.45-3.24-4.08-5.91-7.76-5.72-11.53.53-23.23.52-34.76,0-3.48-.18-6.93,2.35-7.39,5.42A34.65,34.65,0,0,0,482.43,128.86Z"/><path class="cls-10" d="M526.28,121.73V136l.56-.05V121.78Z"/><path class="cls-9" d="M520.6,120.27l-.48.13a52.54,52.54,0,0,1-12.64,1.37l-1.59,0h0l-5.67-2.16h.45c1.31,0,2.62,0,3.87,0,5.35,0,10.6.23,15.6.7Zm-14.68,1.31,1.56,0a53,53,0,0,0,12.1-1.25c-4.84-.43-9.9-.65-15.07-.65l-3.42,0Z"/><path class="cls-9" d="M520.6,137.45l-.49,0c-5,.47-10.25.7-15.6.7-1.24,0-2.54,0-3.87,0h-.45l5.7-2.17,1.59,0a52.54,52.54,0,0,1,12.64,1.37Zm-19.51.54,3.42,0c5.17,0,10.23-.22,15.07-.65a53,53,0,0,0-12.1-1.25l-1.56,0Z"/><path class="cls-1" d="M499.11,119.73h-8.34c-4.89,0-8.89,3.59-8.89,8V130c0,4.39,4,8,8.89,8h8.34a36.82,36.82,0,0,1,0-18.26Z"/><path d="M499.23,119.64l0,.11a35.82,35.82,0,0,0-1.14,9.11V129a36.27,36.27,0,0,0,1.14,9l0,.11h-8.46c-4.95,0-9-3.62-9-8.07v-2.3c0-4.45,4-8.07,9-8.07ZM482,130c0,4.35,3.94,7.89,8.79,7.89H499a36.7,36.7,0,0,1-1.12-8.92v-.24a36.7,36.7,0,0,1,1.12-8.92h-8.21c-4.85,0-8.79,3.54-8.79,7.89Z"/><path class="cls-1" d="M518.61,122.26a40.05,40.05,0,0,0,0,13.2,24,24,0,0,0,7.68.56V121.7A24,24,0,0,0,518.61,122.26Z"/><path d="M526.38,121.62V136.1h-.08a23.65,23.65,0,0,1-7.71-.56h-.06v-.06a39.64,39.64,0,0,1,0-13.22v-.06h.06a23.65,23.65,0,0,1,7.71-.56Zm-.19,14.32V121.78a23.69,23.69,0,0,0-7.49.55,39.75,39.75,0,0,0,0,13.06A23.71,23.71,0,0,0,526.19,135.94Z"/><path class="cls-10" d="M526.29,121.7V136l.55-.06v-14.2Z"/><path class="cls-1" d="M526.84,136h4a15.59,15.59,0,0,0,0-14.2h-4Z"/><path d="M532.65,128.86a14.34,14.34,0,0,1-1.72,7.14l0,.05h-4.15V121.67h4.15l0,0A14.34,14.34,0,0,1,532.65,128.86Zm-1.87,7a15.55,15.55,0,0,0,0-14h-3.84v14Z"/><path class="cls-10" d="M499.05,119.79l-.53-.18a31.37,31.37,0,0,0,0,18.5l.53-.18A31.48,31.48,0,0,1,499.05,119.79Z"/><path class="cls-1" d="M499,137.68l6.75-2.22v-13.2L499,120A30.46,30.46,0,0,0,499,137.68Z"/><path d="M505.88,122.2v13.32L499,137.79l0-.09a30.59,30.59,0,0,1,0-17.68l0-.09Zm-.19,13.2V122.32l-6.6-2.16a30.49,30.49,0,0,0,0,17.4Z"/><path class="cls-9" d="M530.84,121.79v-.09a2.08,2.08,0,0,0-2.18-2h-.16A5.06,5.06,0,0,1,530.84,121.79Z"/><path class="cls-9" d="M530.84,135.93V136a2.08,2.08,0,0,1-2.18,2h-.16A5.06,5.06,0,0,0,530.84,135.93Z"/><path class="cls-1" d="M504.39,117.3a1,1,0,0,0-.78.14L502.08,119a.2.2,0,0,0-.05.09h1.43l1.11-1.78Z"/><path class="cls-9" d="M504.71,117.28l-1.2,1.92h-1.6l0-.1A.25.25,0,0,1,502,119l1.53-1.6a1,1,0,0,1,.87-.16ZM503.4,119l1-1.63h-.05a.88.88,0,0,0-.69.11L502.21,119Z"/><path class="cls-1" d="M504.39,140.42a1,1,0,0,1-.78-.14l-1.53-1.59a.2.2,0,0,1-.05-.09h1.43l1.11,1.78Z"/><path class="cls-9" d="M504.71,140.44l-.3.06a1,1,0,0,1-.87-.16l-1.53-1.6a.25.25,0,0,1-.07-.12l0-.1h1.6Zm-2.5-1.75,1.47,1.53a.88.88,0,0,0,.69.11h.05l-1-1.63Z"/><path class="cls-9" d="M494,124.16a19.4,19.4,0,0,0-7.63,1.28,22,22,0,0,1,6.76-.93,26,26,0,0,1,3.65.24v-.46C495.87,124.21,494.93,124.16,494,124.16Z"/><path class="cls-9" d="M494,133.56a19.4,19.4,0,0,1-7.63-1.28,22,22,0,0,0,6.76.93,26,26,0,0,0,3.65-.24v.46C495.87,133.51,494.93,133.56,494,133.56Z"/><rect class="cls-1" x="505.6" y="122.44" width="13.19" height="12.83" transform="translate(383.34 641.06) rotate(-90)"/><path d="M518.71,122.18v13.36h-13V122.18Zm-.19,13.19v-13H505.88v13Z"/><path class="cls-1" d="M532.8,157.26a34.38,34.38,0,0,1,0,9c-.48,3.43-4.36,6-7.9,5.82q-17.37-.79-34.74,0c-3.37.18-7-2.26-7.52-5.52a34.09,34.09,0,0,1,0-9.57c.48-3.26,4.15-5.7,7.52-5.52q17.37.81,34.74,0C528.44,151.26,532.32,153.83,532.8,157.26Z"/><path class="cls-9" d="M533.22,161.74a33.71,33.71,0,0,1-.3,4.48c-.46,3.35-4.22,6.12-8,5.92-11.52-.52-23.21-.52-34.74,0-3.6.19-7.18-2.44-7.65-5.62a34.3,34.3,0,0,1,0-9.6c.47-3.19,4.05-5.82,7.65-5.62,11.53.53,23.22.53,34.74,0,3.8-.2,7.56,2.57,8,5.92h0A33.75,33.75,0,0,1,533.22,161.74Zm-50.79,0a34.76,34.76,0,0,0,.33,4.77c.46,3.07,3.91,5.6,7.39,5.42,11.53-.54,23.23-.54,34.76,0,3.68.19,7.31-2.48,7.76-5.72a34.07,34.07,0,0,0,0-8.91c-.45-3.24-4.08-5.91-7.76-5.72-11.53.53-23.23.52-34.76,0-3.48-.19-6.93,2.34-7.39,5.42A34.55,34.55,0,0,0,482.43,161.74Z"/><path class="cls-10" d="M526.28,154.6v14.27l.56-.06V154.66Z"/><path class="cls-9" d="M520.6,153.15l-.48.12a52,52,0,0,1-12.64,1.37h-1.62l-5.67-2.16h.45c1.31,0,2.62,0,3.87,0,5.35,0,10.6.24,15.6.7Zm-14.68,1.3c.52,0,1,0,1.56,0a53.57,53.57,0,0,0,12.1-1.24c-4.84-.43-9.9-.65-15.07-.65l-3.42,0Z"/><path class="cls-9" d="M520.6,170.32l-.49.05c-5,.46-10.25.7-15.6.7-1.24,0-2.54,0-3.87,0h-.45l5.7-2.17c.53,0,1.07,0,1.59,0a52,52,0,0,1,12.64,1.37Zm-19.51.54c1.17,0,2.32,0,3.42,0,5.17,0,10.23-.22,15.07-.66a53.57,53.57,0,0,0-12.1-1.24l-1.56,0Z"/><path class="cls-1" d="M499.11,152.61h-8.34c-4.89,0-8.89,3.59-8.89,8v2.29c0,4.39,4,8,8.89,8h8.34a36.78,36.78,0,0,1,0-18.25Z"/><path d="M499.23,152.52l0,.11a35.82,35.82,0,0,0-1.14,9.11v.12a36.39,36.39,0,0,0,1.14,9l0,.1h-8.46c-4.95,0-9-3.62-9-8.07v-2.29c0-4.45,4-8.07,9-8.07ZM482,162.88c0,4.36,3.94,7.9,8.79,7.9H499a36.7,36.7,0,0,1-1.12-8.92v-.24a36.72,36.72,0,0,1,1.12-8.93h-8.21c-4.85,0-8.79,3.55-8.79,7.9Z"/><path class="cls-1" d="M518.61,155.14a40,40,0,0,0,0,13.19,23.47,23.47,0,0,0,7.68.56V154.58A23.47,23.47,0,0,0,518.61,155.14Z"/><path d="M526.38,154.5V169h-.08a24.22,24.22,0,0,1-7.71-.56l-.06,0v-.06a39.58,39.58,0,0,1,0-13.21v-.06h.06a23.94,23.94,0,0,1,7.71-.57Zm-.19,14.32V154.66a23.4,23.4,0,0,0-7.49.55,39.69,39.69,0,0,0,0,13A23.72,23.72,0,0,0,526.19,168.82Z"/><path class="cls-10" d="M526.29,154.58v14.31l.55,0v-14.2A5.14,5.14,0,0,0,526.29,154.58Z"/><path class="cls-1" d="M526.84,168.84h4a15.59,15.59,0,0,0,0-14.2h-4Z"/><path d="M532.65,161.74a14.36,14.36,0,0,1-1.72,7.14l0,0h-4.15V154.55h4.15l0,0A14.4,14.4,0,0,1,532.65,161.74Zm-1.87,7a15.57,15.57,0,0,0,0-14h-3.84v14Z"/><path class="cls-10" d="M499.05,152.67l-.53-.18a31.33,31.33,0,0,0,0,18.49l.53-.17A31.48,31.48,0,0,1,499.05,152.67Z"/><path class="cls-1" d="M499,170.55l6.75-2.22V155.14L499,152.92A30.42,30.42,0,0,0,499,170.55Z"/><path d="M505.88,155.08v13.31L499,170.66l0-.09a30.56,30.56,0,0,1,0-17.67l0-.09Zm-.19,13.19V155.2l-6.6-2.17a30.53,30.53,0,0,0,0,17.41Z"/><path class="cls-9" d="M530.84,154.66v-.09a2.08,2.08,0,0,0-2.18-1.95h-.16A5,5,0,0,1,530.84,154.66Z"/><path class="cls-9" d="M530.84,168.81v.09a2.08,2.08,0,0,1-2.18,1.95h-.16A5,5,0,0,0,530.84,168.81Z"/><path class="cls-1" d="M504.39,150.18a1,1,0,0,0-.78.14l-1.53,1.59a.25.25,0,0,0-.05.08h1.43l1.11-1.77Z"/><path class="cls-9" d="M504.71,150.16l-1.2,1.92h-1.6l0-.1a.24.24,0,0,1,.07-.13l1.53-1.59a1,1,0,0,1,.87-.17Zm-1.31,1.75,1-1.64h-.05a.88.88,0,0,0-.69.11l-1.47,1.54Z"/><path class="cls-1" d="M504.39,173.29a.92.92,0,0,1-.78-.14l-1.53-1.59a.18.18,0,0,1-.05-.08h1.43l1.11,1.77Z"/><path class="cls-9" d="M504.71,173.31l-.3.07a1,1,0,0,1-.87-.17L502,171.62a.25.25,0,0,1-.07-.12l0-.11h1.6Zm-2.5-1.75,1.47,1.54a.88.88,0,0,0,.69.11h.05l-1-1.64Z"/><path class="cls-9" d="M494,157a19.4,19.4,0,0,0-7.63,1.28,22,22,0,0,1,6.76-.93,27.68,27.68,0,0,1,3.65.23v-.45A27.3,27.3,0,0,0,494,157Z"/><path class="cls-9" d="M494,166.43a19.22,19.22,0,0,1-7.63-1.28,21.67,21.67,0,0,0,6.76.94,27.62,27.62,0,0,0,3.65-.24v.45A27.3,27.3,0,0,1,494,166.43Z"/><rect class="cls-1" x="505.6" y="155.32" width="13.19" height="12.83" transform="translate(350.46 673.94) rotate(-90)"/><path d="M518.71,155.05v13.37h-13V155.05Zm-.19,13.2v-13H505.88v13Z"/><path class="cls-1" d="M424,299.91a34.3,34.3,0,0,1-8.94,0c-3.44-.49-6-4.36-5.82-7.9q.8-17.37,0-34.75c-.17-3.36,2.27-7,5.52-7.51a34.16,34.16,0,0,1,9.58,0c3.25.48,5.69,4.15,5.52,7.51q-.81,17.39,0,34.75C430.05,295.55,427.48,299.42,424,299.91Z"/><path class="cls-9" d="M419.57,300.33a33.75,33.75,0,0,1-4.49-.3c-3.35-.47-6.11-4.22-5.92-8,.53-11.53.52-23.21,0-34.74-.19-3.6,2.43-7.18,5.62-7.65a34.3,34.3,0,0,1,9.6,0c3.19.47,5.81,4,5.62,7.65-.53,11.53-.54,23.21,0,34.74.2,3.8-2.57,7.55-5.92,8h0A33.75,33.75,0,0,1,419.57,300.33Zm0-50.79a34.65,34.65,0,0,0-4.77.33c-3.07.46-5.6,3.91-5.42,7.39.53,11.53.54,23.23,0,34.76-.19,3.68,2.48,7.3,5.72,7.76a34.15,34.15,0,0,0,8.92,0c3.24-.46,5.91-4.08,5.72-7.76-.53-11.53-.52-23.23,0-34.76.18-3.48-2.35-6.93-5.42-7.39A34.65,34.65,0,0,0,419.57,249.54Z"/><path class="cls-10" d="M426.7,293.39H412.44c0,.18,0,.37.05.55h14.16C426.67,293.76,426.69,293.57,426.7,293.39Z"/><path class="cls-9" d="M428.16,287.71l-.13-.48a52.62,52.62,0,0,1-1.37-12.65c0-.52,0-1.05,0-1.58v0l2.16-5.67v.45c0,1.31,0,2.62,0,3.87,0,5.35-.23,10.6-.7,15.6ZM426.85,273c0,.52,0,1,0,1.55a53,53,0,0,0,1.25,12.11c.43-4.84.65-9.9.65-15.07,0-1.11,0-2.26,0-3.42Z"/><path class="cls-9" d="M411,287.71l0-.49c-.47-5-.7-10.25-.7-15.6,0-1.24,0-2.55,0-3.87v-.45l2.17,5.7c0,.53,0,1.06,0,1.58a52.62,52.62,0,0,1-1.37,12.65Zm-.54-19.51c0,1.17,0,2.32,0,3.42,0,5.17.22,10.23.65,15.07a53,53,0,0,0,1.25-12.11c0-.51,0-1,0-1.55Z"/><path class="cls-1" d="M428.7,266.21v-8.33c0-4.89-3.59-8.89-8-8.89h-2.3c-4.39,0-8,4-8,8.89v8.33a37.13,37.13,0,0,1,18.26,0Z"/><path d="M428.79,266.33l-.11,0a35.83,35.83,0,0,0-9.11-1.15h-.12a36.28,36.28,0,0,0-9,1.15l-.11,0v-8.45c0-5,3.62-9,8.07-9h2.3c4.45,0,8.07,4,8.07,9Zm-10.37-17.25c-4.35,0-7.89,3.95-7.89,8.8v8.21a36.7,36.7,0,0,1,8.92-1.12h.24a36.7,36.7,0,0,1,8.92,1.12v-8.21c0-4.85-3.54-8.8-7.89-8.8Z"/><path class="cls-1" d="M426.17,285.72a39.52,39.52,0,0,0-13.2,0,24,24,0,0,0-.56,7.67h14.32A24,24,0,0,0,426.17,285.72Z"/><path d="M426.81,293.49H412.33v-.09a23.59,23.59,0,0,1,.56-7.7v-.06H413a39.64,39.64,0,0,1,13.22,0h.06v.06a23.59,23.59,0,0,1,.56,7.7Zm-14.32-.19h14.16a23.69,23.69,0,0,0-.55-7.49,39.75,39.75,0,0,0-13.06,0A23.69,23.69,0,0,0,412.49,293.3Z"/><path class="cls-10" d="M426.73,293.39H412.41l.06.56h14.2Z"/><path class="cls-1" d="M412.47,294v4a15.59,15.59,0,0,0,14.2,0v-4Z"/><path d="M419.57,299.75a14.23,14.23,0,0,1-7.14-1.72l-.05,0v-4.16h14.38V298l-.05,0A14.23,14.23,0,0,1,419.57,299.75Zm-7-1.86a15.55,15.55,0,0,0,14,0v-3.84h-14Z"/><path class="cls-10" d="M428.64,266.16l.18-.54a31.53,31.53,0,0,0-18.5,0l.18.54A31.48,31.48,0,0,1,428.64,266.16Z"/><path class="cls-1" d="M410.75,266.14l2.22,6.75h13.2l2.22-6.75A30.46,30.46,0,0,0,410.75,266.14Z"/><path d="M426.23,273H412.91l-2.27-6.92.09,0a30.59,30.59,0,0,1,17.68,0l.09,0ZM413,272.8h13.08l2.16-6.6a30.49,30.49,0,0,0-17.4,0Z"/><path class="cls-9" d="M426.64,298h.09a2.08,2.08,0,0,0,2-2.18v-.16A5.06,5.06,0,0,1,426.64,298Z"/><path class="cls-9" d="M412.5,298h-.09a2.08,2.08,0,0,1-2-2.18v-.16A5.06,5.06,0,0,0,412.5,298Z"/><path class="cls-1" d="M431.13,271.5a1,1,0,0,0-.14-.78l-1.59-1.53a.2.2,0,0,0-.09-.05v1.43l1.78,1.1Z"/><path class="cls-9" d="M431.15,271.82l-1.92-1.2V269l.1,0a.37.37,0,0,1,.12.07l1.6,1.53a1.08,1.08,0,0,1,.16.88Zm-1.75-1.31,1.63,1v-.06a.86.86,0,0,0-.11-.68l-1.53-1.47Z"/><path class="cls-1" d="M408,271.5a1,1,0,0,1,.14-.78l1.59-1.53a.2.2,0,0,1,.09-.05v1.43l-1.78,1.1Z"/><path class="cls-9" d="M408,271.82l-.06-.3a1.08,1.08,0,0,1,.16-.88l1.6-1.53a.37.37,0,0,1,.12-.07l.1,0v1.6Zm1.75-2.5-1.53,1.47a.86.86,0,0,0-.11.68v.06l1.63-1Z"/><path class="cls-9" d="M424.27,261.07a19.37,19.37,0,0,0-1.28-7.63,22,22,0,0,1,.93,6.76,26,26,0,0,1-.24,3.65h.46C424.22,263,424.27,262,424.27,261.07Z"/><path class="cls-9" d="M414.87,261.07a19.37,19.37,0,0,1,1.28-7.63,22,22,0,0,0-.93,6.76,26,26,0,0,0,.24,3.65H415C414.92,263,414.87,262,414.87,261.07Z"/><rect class="cls-1" x="412.97" y="272.89" width="13.19" height="12.83"/><path d="M426.25,285.82H412.89v-13h13.36Zm-13.19-.19h13V273h-13Z"/><path class="cls-11" d="M529.7,31.81s47.22,90.3,44.21,177.16-16.29,85.85.14,150.6,33.49,109.92,33.49,109.92"/><path class="cls-11" d="M564.62,31.81s47.22,90.3,44.21,177.16-16.29,85.85.14,150.6,33.49,109.92,33.49,109.92"/><path class="cls-11" d="M533.7,31.81s47.22,90.3,44.21,177.16-16.28,85.85.14,150.6,33.49,109.92,33.49,109.92"/><path d="M594.52,186.19a10.46,10.46,0,0,0-2.77,1.14.63.63,0,0,1,.11.12,26.86,26.86,0,0,0,3.23,3l-.68.91a24.18,24.18,0,0,1-3.44-3.55,13.08,13.08,0,0,0-4.1,4.78l-1-.64a12.89,12.89,0,0,1,5.91-5.61l-6.67.39c-.75,0-1-.3-1.1-1.28,0-.6,0-1.22,0-1.81l1.08-.28a15.66,15.66,0,0,0,0,1.89c0,.32.12.41.43.39l11.3-.66.06,1.06Zm-1.14-2.29-.49.63a11.63,11.63,0,0,1-8-4.17l.79-.79a10.2,10.2,0,0,0,6.66,3.81l-.22-3.75,1-.06Z"/><path d="M584.41,205.75v-1h.8V201.3h-.8v-1h5.34v5.43Zm7.9-6.63v-1.75h-2.14v1.77h-.9v-1.76h-2.83c.09.37.39,1.4.61,2.07l-.88.1a49.41,49.41,0,0,1-1.53-5.33l1-.36.15.72H591v.92H586l.08.34.08.32.07.29,6.11,0v-2h4.4v4.66Zm-6.22,2.18v3.45h2.74v-3.46Zm9.77,4.48a11.58,11.58,0,0,1-3.27-2,11.35,11.35,0,0,0-1.88,3.11l-.89-.51a11.81,11.81,0,0,1,2.1-3.25,11.47,11.47,0,0,1-2.24-3.5l.84-.55a9.06,9.06,0,0,0,2.08,3.39,9.82,9.82,0,0,1,1.72-1.23l-.07-.05,0,0A8.75,8.75,0,0,1,593,200l.72-.66a8.18,8.18,0,0,0,3.6,2.47l-.16,1-.69-.29v2.62Zm-2.68-10.36v2.73h2.61v-2.74Zm1.87,6.33a8.27,8.27,0,0,0-1.81,1.35,8.93,8.93,0,0,0,2.29,1.46V202l-.4-.23Z"/><path d="M588.07,224.44l.34-7.14-1-.05-.38,7.81-3.46-.17,0-1.08.57,0,.33-6.73-.57,0,0-1.08,7.23.35-.4,8.23Zm-2.74-7.29-.33,6.72,1.3.07.33-6.73Zm3.87.19-.3,6.09,1.21,0,.29-6.09Zm5.45,6.68a10.83,10.83,0,0,1-1.1.62l-.29-1a12.41,12.41,0,0,0,1.45-.75l0-.82a6.75,6.75,0,0,1-1.19-.93l-.76,0-.27,5.44-2.26-.11.06-1.06,1.44.07.48-9.78-1.45-.07.05-1,2.26.11-.26,5.38.81,0,0,1,.56-.68a6.78,6.78,0,0,0,2.49,1.56l-.22,1a9.44,9.44,0,0,1-.88-.42l-.21,4.32-.84,0Zm.27-5.58a7.61,7.61,0,0,1-1.13.54l-.3-1a9.16,9.16,0,0,0,1.49-.64l0-.81a7.48,7.48,0,0,1-1.37-1.31l.64-.79a6.33,6.33,0,0,0,2.63,2l-.23,1c-.36-.16-.57-.27-.86-.43l-.16,3.37-.84,0Z"/><path d="M588.23,240.56l.21-3.11-1.56-.11-.23,3.34-.91-.06.23-3.34-1.76-.12L584,241l-.93-.06.61-8.88.93.06-.28,4.07,1.76.12.21-3.15.91.07-.22,3.14,1.57.11.21-3,6.57.45L594.8,241Zm2.93-9.09-.1,1.47-1-.06.1-1.48-3.31-.22c.25.83.32,1,.5,1.52l-1,0a39.07,39.07,0,0,1-1.37-4.38l1.08-.25c.13.67.3,1.37.47,2l3.66.25.11-1.64,1,.07-.12,1.64,3.15.21.13-1.79,1,.06-.31,4.48-1-.07.11-1.66Zm0,8.31.15-2.13-2-.14-.14,2.14Zm-1.62-5.28-.14,2,2,.14.14-2ZM594,240l.15-2.14-1.93-.13-.15,2.13Zm-1.57-5.29-.14,2,1.93.13.14-2Z"/><path d="M590.56,250.45a17.92,17.92,0,0,0,3.27,3.7l-.6.88a23,23,0,0,1-2.8-3.16l-.36,4-.89-.08.46-5.08-.08-.13c-.37-.59-.82-1.43-1.24-2.28l-.48,5.38-6.41-.58.1-1.07.67.06.51-5.69-.67-.06.1-1.06,5.07.45a27.16,27.16,0,0,1-.88-2.6l.95-.48a25.32,25.32,0,0,0,2.5,6.55l.55-6.09.89.08-.46,5.08,1.63.15.31-3.38.85.07-.31,3.39,1.51.13-.09,1.07-1.52-.14-.25,2.84-.85-.08.26-2.83-1.64-.15Zm-7-4-.52,5.69,1.68.15.51-5.69Zm2.51.23-.52,5.69,1.53.14.51-5.69Z"/><path d="M587.94,270.18a12.29,12.29,0,0,0-7.77,4.87l-.92-.8a12.82,12.82,0,0,1,7.46-4.78,9.63,9.63,0,0,1-6.22-6.41l1-.6a9,9,0,0,0,6.63,6.41l.64-5.44,1,.12-.64,5.48,3.35.39-.13,1.09-3.35-.39-.65,5.57-1-.12Z"/><path d="M589,290.17a19,19,0,0,1-2.41-2.58c-.25.2-.52.39-.8.59l-.48-.72-.26,2.23-.53.4a20.73,20.73,0,0,1-3-1.69l.47-.88a13,13,0,0,0,2.19,1.34l.2-1.71-5.79-.66c-.74-.09-1-.41-.86-1.25a11.74,11.74,0,0,1,.29-1.59l1-.06a15.83,15.83,0,0,0-.31,1.57c0,.22,0,.31.28.34l5.52.63.24-2.14.92.1-.37,3.21.1-.07a18.42,18.42,0,0,0,2.56-2.07l.53.74c-.43.43-.83.78-1.27,1.15a10.53,10.53,0,0,0,1.56,1.61l.44-3.81.89.11-.55,4.76Zm-4.62-6.6.28-2.45-1.59-.18-.29,2.52-.89-.1.29-2.52-1.8-.21c0,.24,0,.39,0,.4v.17c0,.54.05,1.11.15,2.36l-.88,0c-.21-1.88-.36-4.57-.4-6.77l1-.23c0,1.68,0,2,.06,3.09l1.95.22.29-2.57.89.11-.29,2.57,1.58.18.28-2.4,5.85.67-.67,5.84ZM587,283l.19-1.6-1.7-.2-.18,1.61Zm-1.23-4.26-.17,1.52,1.69.2.18-1.52Zm3.69,4.54.19-1.6-1.62-.19-.18,1.61ZM588.34,279l-.18,1.52,1.62.19.17-1.52Z"/><path d="M577.49,297.3a11,11,0,0,0,2.86,3.19A24.28,24.28,0,0,1,586,300l.22-3.34-2-.13-.18,2.81a28.9,28.9,0,0,1-4.36-.55,1,1,0,0,1-.78-1.2,5.61,5.61,0,0,1,.17-1l1-.06a7.58,7.58,0,0,0-.19.92c0,.31.08.44.5.54a27,27,0,0,0,2.85.39l.12-1.9c-3.13-.21-4.85-.69-6.41-1.8l.7-.8c1.31,1,3,1.42,5.9,1.61l3.66.23-.27,4.3c.74,0,1.5.05,2.46.11l-.06,1c-1-.07-1.57-.09-2.32-.1h-.15l-.2,3.11-.93-.06.2-3.05a28.45,28.45,0,0,0-4.41.27,13.85,13.85,0,0,0,2.87,1.38l-.49.91a21.25,21.25,0,0,1-3.71-2,5.52,5.52,0,0,0-2.4,1.07c0,.13.75.34,1.79.53L579,304c-1.83-.31-2.62-.68-2.58-1.24s1-1.18,2.78-1.88a12.1,12.1,0,0,1-2.52-2.89Zm12.25-4.12-.06,1-3.22-.2-.08,1.25-1-.06.08-1.25-4.76-.31c.16.43.33.86.5,1.28l-.94.05a24.85,24.85,0,0,1-1.39-3.72l1-.28c.13.54.29,1.14.45,1.64l5.17.33.09-1.47,1,.06-.09,1.48Zm-2.87,9.63a9.53,9.53,0,0,0,1.89-1.08l.4.77a11.64,11.64,0,0,1-1.84,1.14Z"/><path d="M587.69,318.39l-1,0-.22-6-1.73.06.17,4.59-5.41.2c-.78,0-1.08-.31-1.12-1.27,0-.56,0-1.11,0-1.67l1-.21a11.31,11.31,0,0,0-.08,1.64c0,.35.09.43.41.42l4.16-.16-.13-3.51-7.36.28,0-1.07,7.36-.28-.12-3.33-5.68.21,0-1.07,6.62-.24.17,4.4,1.73-.06-.21-5.84,1,0,.22,5.84,1.85-.07,0,1.07-1.85.07Z"/><path class="cls-11" d="M560.57,31.81s47.22,90.3,44.21,177.16-16.29,85.85.14,150.6,33.49,109.92,33.49,109.92"/><rect class="cls-12" x="238.5" y="241.95" width="18.37" height="4.06"/><rect class="cls-12" x="238.5" y="246.01" width="18.37" height="4.06"/><rect class="cls-12" x="238.5" y="250.07" width="18.37" height="8.85"/><polygon points="247.68 256.99 250.4 253.22 244.96 253.22 247.68 256.99"/><rect class="cls-12" x="362.1" y="245.64" width="19.82" height="4.06"/><rect class="cls-12" x="362.1" y="249.7" width="19.82" height="8.85"/><polygon points="372.01 256.62 374.95 252.85 369.08 252.85 372.01 256.62"/><rect class="cls-12" x="410.11" y="350.06" width="22.25" height="11.66" transform="translate(-37.2 662.39) rotate(-73.96)"/><rect class="cls-12" x="412.59" y="353.09" width="19.82" height="8.85" transform="translate(-37.84 664.78) rotate(-73.96)"/><polygon points="424.9 358.21 422.09 354.35 420.46 359.99 424.9 358.21"/><polygon class="cls-12" points="496.67 193.25 493.8 213.75 471.43 210.09 474.3 189.59 496.67 193.25"/><polygon points="490.79 203.47 486.28 198.32 484.91 206.78 490.79 203.47"/><path class="cls-13" d="M287.2,126.73h1.22v3.1h4.93v-3.1h1.2v3.1h3.06v1.08h-3.06v4.49h3.89v1.07h-15V135.4h3.77v-4.49h-2.95v-1.08h2.95Zm-3.27,14a12.82,12.82,0,0,0,4.35-3.65l1.06.68a16.16,16.16,0,0,1-4.51,3.95Zm4.49-9.78v4.49h4.93v-4.49Zm8.49,10.7a34.69,34.69,0,0,0-4.51-3.83l.91-.75a29.08,29.08,0,0,1,4.55,3.6Z"/><path class="cls-13" d="M304.06,138.45c1.18,1.23,2.69,1.75,5.29,1.8h6.49a4.53,4.53,0,0,0-.42,1.11h-6.08c-2.82,0-4.51-.63-5.79-2a13.88,13.88,0,0,1-2.27,2.43l-.65-1.12a22.26,22.26,0,0,0,2.23-1.91v-4.13h-2.2v-1.07h3.4Zm-.62-7.83a16.68,16.68,0,0,0-2.26-2.76l.87-.73a15.75,15.75,0,0,1,2.34,2.64Zm11.15-.08v7.78c0,.86-.29,1.14-1.16,1.14a13.73,13.73,0,0,1-1.61-.1l-.19-1a8.74,8.74,0,0,0,1.42.11c.33,0,.38,0,.38-.39v-1.66H310.6v2.81h-1.1v-2.81h-2.74v3h-1.15v-8.87h4.23c-.87-.47-1.78-.93-2.75-1.35l.75-.65c.88.41,1.31.61,2.11,1a21,21,0,0,0,2.23-1.28h-6.51v-1h7.95l.65.66a20.91,20.91,0,0,1-3.43,2.09l.19.13c.36.2.39.22.58.34ZM306.76,133h2.74v-1.55h-2.74Zm0,2.48h2.74v-1.58h-2.74ZM310.6,133h2.83v-1.55H310.6Zm2.83.9H310.6v1.58h2.83Z"/><path class="cls-13" d="M321.43,138.46c1.28,1.28,2.75,1.77,5.41,1.79h6.21a6.14,6.14,0,0,0-.38,1.12h-6c-2.77,0-4.3-.55-5.66-1.93a15.49,15.49,0,0,1-2.47,2.33l-.69-1.12a15.42,15.42,0,0,0,2.38-1.82v-4.24h-2.34v-1.07h3.54Zm-.68-7.88a15.92,15.92,0,0,0-2.3-2.69l.87-.73a16.25,16.25,0,0,1,2.37,2.58Zm1.55-.84v-1h2.8a10.54,10.54,0,0,0-1-1.52l1.11-.42a11.28,11.28,0,0,1,1.13,1.94h2.06a16.39,16.39,0,0,0,.87-2l1.25.31a12.44,12.44,0,0,1-.9,1.66h2.95v1H328c-.07.27-.33.93-.49,1.31h4v8.06h-8v-8.06h2.9a11.18,11.18,0,0,0,.42-1.31Zm2.3,3.67h5.69V132H324.6Zm0,2.29h5.69v-1.44H324.6Zm0,2.48h5.69V136.6H324.6Z"/><path class="cls-13" d="M341.23,132.52h-2V135h2.05v1h-2.05v3.3c.43-.11,1.63-.45,2.42-.71l.11,1a55.1,55.1,0,0,1-6.23,1.77l-.41-1.12.84-.17V134H337v5.93l.4-.1.38-.09.33-.08v-7.13h-2.31v-5.14h5.44Zm-4.32-1h3.2v-3.05h-3.2Zm12.1-3.1a13.19,13.19,0,0,1-2.33,3.81,13.11,13.11,0,0,0,3.62,2.2l-.6,1a13.94,13.94,0,0,1-3.78-2.46,13.14,13.14,0,0,1-4.09,2.61l-.63-1a10.54,10.54,0,0,0,3.95-2.42,11.09,11.09,0,0,1-1.42-2l-.07.08,0,.05a10.54,10.54,0,0,1-1.39,1.44l-.77-.84a9.53,9.53,0,0,0,2.89-4.19l1.17.19c-.18.41-.22.54-.35.8h3.07Zm-.07,13.36h-1.15v-.93h-4v.93H342.6v-6.23h6.34Zm-5.18-2h4v-3.2h-4Zm.55-10.45a10,10,0,0,0,1.57,2.12,10.51,10.51,0,0,0,1.7-2.68h-2.94c-.06.11-.12.23-.27.46Z"/><path class="cls-13" d="M250.17,159.54a9.54,9.54,0,0,1-2.32-3.12,10.33,10.33,0,0,1-1.11-4.39,10.73,10.73,0,0,1,3.43-7.51h1.16c-2.31,2.64-3.27,4.87-3.27,7.52s1,4.87,3.27,7.5Z"/><path class="cls-13" d="M266.4,146.4l.83.71a7.29,7.29,0,0,1-4.9,5.41l-.74-1a6.09,6.09,0,0,0,4.21-4H254.37V146.4Zm-5.65,2.88v1.29c0,4.52-.88,6.34-3.87,7.94l-.92-.95a5.55,5.55,0,0,0,3-2.88,10.4,10.4,0,0,0,.57-4.11v-1.29Z"/><path class="cls-13" d="M280.29,146.4l.78.71a23.11,23.11,0,0,1-3.07,5.58,37.58,37.58,0,0,1,4.85,4.54l-.94,1a51,51,0,0,0-4.64-4.66,16.63,16.63,0,0,1-6.3,4.72l-.73-1.12a16.78,16.78,0,0,0,9.28-9.69h-8.25V146.4Z"/><path class="cls-13" d="M298.08,146.67c-.14,7.38-2.39,10.38-8.84,11.87l-.64-1.12c5.62-1,8-3.86,8.09-9.61H286.4v-1.14Z"/><path class="cls-13" d="M312.53,148.53l.73.65a5.93,5.93,0,0,1-4.14,4.55l-.68-.91a4.66,4.66,0,0,0,3.48-3.24h-9.41v-1.05Zm-4.61,2.36V152c0,3.84-.79,5.4-3.36,6.7l-.82-.87c2.33-1.14,3-2.48,3-5.83v-1.14Z"/><path class="cls-13" d="M321.53,145.94v2.7a17.76,17.76,0,0,1-.6,5.71,7.69,7.69,0,0,1-3.16,3.94l-.86-1c2.66-1.85,3.4-3.73,3.37-8.62v-2.75Zm3.84-.44v11.24a9.43,9.43,0,0,0,5-6.17l1,1a10.6,10.6,0,0,1-6.26,6.82l-.93-.81V145.5Z"/><path class="cls-13" d="M336.9,145.21v4.4a51.73,51.73,0,0,1,7.57,2.89l-.65,1.17a50.57,50.57,0,0,0-6.92-2.83v7.9h-1.3V145.21Z"/><path class="cls-13" d="M351.08,144.52a31.8,31.8,0,0,1,2.61,2.95l-.78.94a26.8,26.8,0,0,0-2.29-2.91,13.42,13.42,0,0,1-3.21,4.11l-.58-.9a11.43,11.43,0,0,0,3-4.19Zm-1.15,5.74h-2.06v-1h2.06v-1.83h1.13v1.83h2.11v1h-2.11V152h2.61v.95h-6.61V152h2.87Zm3.08,9.09h-1.14v-.67H349v.86h-1.14V154.1H353Zm-4-1.66h2.88v-2.61H349Zm8.1-9.95h-3.34v-1.07h3.34v-2.15h1.09v2.15h3.9v1.07h-3.9v1.44h3.27v9.15c0,.79-.33,1.11-1.17,1.11a11.62,11.62,0,0,1-1.19-.08l-.22-1.14a8,8,0,0,0,1.17.11c.26,0,.33-.07.33-.36v-2.45h-2.19v3.64h-1.09v-3.64h-2v4h-1V149.18h3Zm-2,2.44v1.63h2v-1.63Zm0,2.59v1.79h2v-1.79Zm3.1-1h2.19v-1.63h-2.19Zm0,2.75h2.19v-1.79h-2.19Zm2.38-7.92a10.72,10.72,0,0,0-1.45-1.66l.82-.51a8.08,8.08,0,0,1,1.49,1.63Z"/><path class="cls-13" d="M378.54,159.28c-3.32-.93-5.78-2.94-6.73-5.5a15.14,15.14,0,0,1-2.34,1.71v2.42c1.1-.21,2.83-.6,4.11-1l.06,1a48,48,0,0,1-7.14,1.55l-.42-1.08c.87-.11,1.24-.17,2.15-.31v-2a19.85,19.85,0,0,1-3.33,1.2l-.65-.91a17.12,17.12,0,0,0,6.13-2.68h-6.07v-1h6.82v-1.28h1.23v1.28h7v1H372.9a7.45,7.45,0,0,0,1.64,2.17l.1-.08a14,14,0,0,0,2.27-1.9l1.06.7a19.5,19.5,0,0,1-2.65,1.9,11.79,11.79,0,0,0,4,1.7ZM368,149.35a27.85,27.85,0,0,1-2.94,1.68l-.54-1a22.46,22.46,0,0,0,3.48-1.77v-3.73h1.2v7.21H368Zm-1.17-1.42a14.94,14.94,0,0,0-1.84-2.16l.79-.73a14.22,14.22,0,0,1,1.88,2.1Zm6.84-3.41h1.22v1.93H379v1h-4.14V150h3.56v1H370.3v-1h3.37v-2.53h-3.92v-1h3.92Z"/><path class="cls-13" d="M382.24,159.54c2.29-2.64,3.27-4.87,3.27-7.51s-1-4.86-3.27-7.51h1.16a9.6,9.6,0,0,1,2.32,3.11,10.37,10.37,0,0,1,1.11,4.4,10.76,10.76,0,0,1-3.43,7.51Z"/><path d="M287.2,126.73h1.22v3.1h4.93v-3.1h1.2v3.1h3.06v1.08h-3.06v4.49h3.89v1.07h-15V135.4h3.77v-4.49h-2.95v-1.08h2.95Zm-3.27,14a12.82,12.82,0,0,0,4.35-3.65l1.06.68a16.16,16.16,0,0,1-4.51,3.95Zm4.49-9.78v4.49h4.93v-4.49Zm8.49,10.7a34.69,34.69,0,0,0-4.51-3.83l.91-.75a29.08,29.08,0,0,1,4.55,3.6Z"/><path d="M304.06,138.45c1.18,1.23,2.69,1.75,5.29,1.8h6.49a4.53,4.53,0,0,0-.42,1.11h-6.08c-2.82,0-4.51-.63-5.79-2a13.88,13.88,0,0,1-2.27,2.43l-.65-1.12a22.26,22.26,0,0,0,2.23-1.91v-4.13h-2.2v-1.07h3.4Zm-.62-7.83a16.68,16.68,0,0,0-2.26-2.76l.87-.73a15.75,15.75,0,0,1,2.34,2.64Zm11.15-.08v7.78c0,.86-.29,1.14-1.16,1.14a13.73,13.73,0,0,1-1.61-.1l-.19-1a8.74,8.74,0,0,0,1.42.11c.33,0,.38,0,.38-.39v-1.66H310.6v2.81h-1.1v-2.81h-2.74v3h-1.15v-8.87h4.23c-.87-.47-1.78-.93-2.75-1.35l.75-.65c.88.41,1.31.61,2.11,1a21,21,0,0,0,2.23-1.28h-6.51v-1h7.95l.65.66a20.91,20.91,0,0,1-3.43,2.09l.19.13c.36.2.39.22.58.34ZM306.76,133h2.74v-1.55h-2.74Zm0,2.48h2.74v-1.58h-2.74ZM310.6,133h2.83v-1.55H310.6Zm2.83.9H310.6v1.58h2.83Z"/><path d="M321.43,138.46c1.28,1.28,2.75,1.77,5.41,1.79h6.21a6.14,6.14,0,0,0-.38,1.12h-6c-2.77,0-4.3-.55-5.66-1.93a15.49,15.49,0,0,1-2.47,2.33l-.69-1.12a15.42,15.42,0,0,0,2.38-1.82v-4.24h-2.34v-1.07h3.54Zm-.68-7.88a15.92,15.92,0,0,0-2.3-2.69l.87-.73a16.25,16.25,0,0,1,2.37,2.58Zm1.55-.84v-1h2.8a10.54,10.54,0,0,0-1-1.52l1.11-.42a11.28,11.28,0,0,1,1.13,1.94h2.06a16.39,16.39,0,0,0,.87-2l1.25.31a12.44,12.44,0,0,1-.9,1.66h2.95v1H328c-.07.27-.33.93-.49,1.31h4v8.06h-8v-8.06h2.9a11.18,11.18,0,0,0,.42-1.31Zm2.3,3.67h5.69V132H324.6Zm0,2.29h5.69v-1.44H324.6Zm0,2.48h5.69V136.6H324.6Z"/><path d="M341.23,132.52h-2V135h2.05v1h-2.05v3.3c.43-.11,1.63-.45,2.42-.71l.11,1a55.1,55.1,0,0,1-6.23,1.77l-.41-1.12.84-.17V134H337v5.93l.4-.1.38-.09.33-.08v-7.13h-2.31v-5.14h5.44Zm-4.32-1h3.2v-3.05h-3.2Zm12.1-3.1a13.19,13.19,0,0,1-2.33,3.81,13.11,13.11,0,0,0,3.62,2.2l-.6,1a13.94,13.94,0,0,1-3.78-2.46,13.14,13.14,0,0,1-4.09,2.61l-.63-1a10.54,10.54,0,0,0,3.95-2.42,11.09,11.09,0,0,1-1.42-2l-.07.08,0,.05a10.54,10.54,0,0,1-1.39,1.44l-.77-.84a9.53,9.53,0,0,0,2.89-4.19l1.17.19c-.18.41-.22.54-.35.8h3.07Zm-.07,13.36h-1.15v-.93h-4v.93H342.6v-6.23h6.34Zm-5.18-2h4v-3.2h-4Zm.55-10.45a10,10,0,0,0,1.57,2.12,10.51,10.51,0,0,0,1.7-2.68h-2.94c-.06.11-.12.23-.27.46Z"/><path d="M250.17,159.54a9.54,9.54,0,0,1-2.32-3.12,10.33,10.33,0,0,1-1.11-4.39,10.73,10.73,0,0,1,3.43-7.51h1.16c-2.31,2.64-3.27,4.87-3.27,7.52s1,4.87,3.27,7.5Z"/><path d="M266.4,146.4l.83.71a7.29,7.29,0,0,1-4.9,5.41l-.74-1a6.09,6.09,0,0,0,4.21-4H254.37V146.4Zm-5.65,2.88v1.29c0,4.52-.88,6.34-3.87,7.94l-.92-.95a5.55,5.55,0,0,0,3-2.88,10.4,10.4,0,0,0,.57-4.11v-1.29Z"/><path d="M280.29,146.4l.78.71a23.11,23.11,0,0,1-3.07,5.58,37.58,37.58,0,0,1,4.85,4.54l-.94,1a51,51,0,0,0-4.64-4.66,16.63,16.63,0,0,1-6.3,4.72l-.73-1.12a16.78,16.78,0,0,0,9.28-9.69h-8.25V146.4Z"/><path d="M298.08,146.67c-.14,7.38-2.39,10.38-8.84,11.87l-.64-1.12c5.62-1,8-3.86,8.09-9.61H286.4v-1.14Z"/><path d="M312.53,148.53l.73.65a5.93,5.93,0,0,1-4.14,4.55l-.68-.91a4.66,4.66,0,0,0,3.48-3.24h-9.41v-1.05Zm-4.61,2.36V152c0,3.84-.79,5.4-3.36,6.7l-.82-.87c2.33-1.14,3-2.48,3-5.83v-1.14Z"/><path d="M321.53,145.94v2.7a17.76,17.76,0,0,1-.6,5.71,7.69,7.69,0,0,1-3.16,3.94l-.86-1c2.66-1.85,3.4-3.73,3.37-8.62v-2.75Zm3.84-.44v11.24a9.43,9.43,0,0,0,5-6.17l1,1a10.6,10.6,0,0,1-6.26,6.82l-.93-.81V145.5Z"/><path d="M336.9,145.21v4.4a51.73,51.73,0,0,1,7.57,2.89l-.65,1.17a50.57,50.57,0,0,0-6.92-2.83v7.9h-1.3V145.21Z"/><path d="M351.08,144.52a31.8,31.8,0,0,1,2.61,2.95l-.78.94a26.8,26.8,0,0,0-2.29-2.91,13.42,13.42,0,0,1-3.21,4.11l-.58-.9a11.43,11.43,0,0,0,3-4.19Zm-1.15,5.74h-2.06v-1h2.06v-1.83h1.13v1.83h2.11v1h-2.11V152h2.61v.95h-6.61V152h2.87Zm3.08,9.09h-1.14v-.67H349v.86h-1.14V154.1H353Zm-4-1.66h2.88v-2.61H349Zm8.1-9.95h-3.34v-1.07h3.34v-2.15h1.09v2.15h3.9v1.07h-3.9v1.44h3.27v9.15c0,.79-.33,1.11-1.17,1.11a11.62,11.62,0,0,1-1.19-.08l-.22-1.14a8,8,0,0,0,1.17.11c.26,0,.33-.07.33-.36v-2.45h-2.19v3.64h-1.09v-3.64h-2v4h-1V149.18h3Zm-2,2.44v1.63h2v-1.63Zm0,2.59v1.79h2v-1.79Zm3.1-1h2.19v-1.63h-2.19Zm0,2.75h2.19v-1.79h-2.19Zm2.38-7.92a10.72,10.72,0,0,0-1.45-1.66l.82-.51a8.08,8.08,0,0,1,1.49,1.63Z"/><path d="M378.54,159.28c-3.32-.93-5.78-2.94-6.73-5.5a15.14,15.14,0,0,1-2.34,1.71v2.42c1.1-.21,2.83-.6,4.11-1l.06,1a48,48,0,0,1-7.14,1.55l-.42-1.08c.87-.11,1.24-.17,2.15-.31v-2a19.85,19.85,0,0,1-3.33,1.2l-.65-.91a17.12,17.12,0,0,0,6.13-2.68h-6.07v-1h6.82v-1.28h1.23v1.28h7v1H372.9a7.45,7.45,0,0,0,1.64,2.17l.1-.08a14,14,0,0,0,2.27-1.9l1.06.7a19.5,19.5,0,0,1-2.65,1.9,11.79,11.79,0,0,0,4,1.7ZM368,149.35a27.85,27.85,0,0,1-2.94,1.68l-.54-1a22.46,22.46,0,0,0,3.48-1.77v-3.73h1.2v7.21H368Zm-1.17-1.42a14.94,14.94,0,0,0-1.84-2.16l.79-.73a14.22,14.22,0,0,1,1.88,2.1Zm6.84-3.41h1.22v1.93H379v1h-4.14V150h3.56v1H370.3v-1h3.37v-2.53h-3.92v-1h3.92Z"/><path d="M382.24,159.54c2.29-2.64,3.27-4.87,3.27-7.51s-1-4.86-3.27-7.51h1.16a9.6,9.6,0,0,1,2.32,3.11,10.37,10.37,0,0,1,1.11,4.4,10.76,10.76,0,0,1-3.43,7.51Z"/><path d="M231.17,280.77a23.89,23.89,0,0,1-3.89,1.2l-.44-1.5a15.87,15.87,0,0,0,4.85-1.78H233v16.5h-1.86Z"/><path d="M243.81,287.33c-.2.72-.45,1.4-.66,2h11.24a19.1,19.1,0,0,1-1.06,5.72c-.5,1.12-1.14,1.44-2.94,1.44-1.06,0-2.48-.06-3.46-.14l-.36-1.52c1.38.12,2.72.2,3.68.2s1.3-.16,1.58-.8a18.58,18.58,0,0,0,.76-3.54h-10c-.27.56-.55,1.14-.85,1.7l-1.62-.46a27.31,27.31,0,0,0,2-4.56h-4.46V286h19v1.36Zm9.88-3.18H240.62v-5.68h13.07Zm-11.45-1.28h9.83v-3.08h-9.83Z"/><path d="M262.62,286.67a23.73,23.73,0,0,1-2.42,5.42l-.74-1.6a22.56,22.56,0,0,0,3-7.22h-2.74v-1.4h2.88v-4.28h1.48v4.28h2.09v1.4H264.1v1.86a22.17,22.17,0,0,1,2.47,2.34l-.84,1.34a24.49,24.49,0,0,0-1.63-2.06v9.84h-1.48Zm11.17,2.78a14.94,14.94,0,0,0,5.1,4.52l-.94,1.4a16.38,16.38,0,0,1-5.16-5.12v6.34h-1.42v-6.22a15.44,15.44,0,0,1-5.14,5.28l-1-1.22a14.23,14.23,0,0,0,5.24-5h-3.7v-7.12h4.6v-1.48h-5.64v-1.3h5.64v-2h1.42v2h5.76v1.3h-5.76v1.48h4.74v7.12Zm-5.6-5.9v1.7h3.18v-1.7Zm0,2.92v1.74h3.18v-1.74Zm4.6-1.22h3.34v-1.7h-3.34Zm0,3h3.34v-1.74h-3.34Z"/><path d="M330.44,306.17c.52-2.14,2.28-4.28,5-6.08l.52-.34c2.8-1.82,3.54-2.7,3.54-4.16,0-1.64-1.36-2.74-3.42-2.74a5,5,0,0,0-4.14,2.14l-1.26-1.06a6.44,6.44,0,0,1,5.48-2.68c3.12,0,5.4,1.84,5.4,4.38,0,2-.78,3-4.36,5.24l-.72.46c-2.38,1.56-3.88,3.28-4.06,4.72h9.38v1.7H330.44Z"/><path d="M351.62,299.89a20.32,20.32,0,0,1-.66,2H362.2a19.1,19.1,0,0,1-1.06,5.72c-.5,1.12-1.14,1.44-2.94,1.44-1.06,0-2.48-.06-3.46-.14l-.36-1.52c1.38.12,2.72.2,3.68.2s1.3-.16,1.58-.8a18.58,18.58,0,0,0,.76-3.54h-10c-.26.56-.54,1.14-.84,1.7l-1.62-.46a27.31,27.31,0,0,0,2-4.56h-4.46v-1.36h19v1.36Zm9.88-3.18H348.44V291H361.5Zm-11.44-1.28h9.82v-3.08h-9.82Z"/><path d="M369.64,299.23a23.73,23.73,0,0,1-2.42,5.42l-.74-1.6a22.56,22.56,0,0,0,3-7.22h-2.74v-1.4h2.88v-4.28h1.48v4.28h2.08v1.4h-2.08v1.86a23,23,0,0,1,2.46,2.34l-.84,1.34a22.32,22.32,0,0,0-1.62-2.06v9.84h-1.48ZM380.8,302a14.94,14.94,0,0,0,5.1,4.52l-.94,1.4a16.38,16.38,0,0,1-5.16-5.12v6.34h-1.42v-6.22a15.44,15.44,0,0,1-5.14,5.28l-1-1.22a14.23,14.23,0,0,0,5.24-5h-3.7v-7.12h4.6v-1.48h-5.64v-1.3h5.64v-2h1.42v2h5.76v1.3H379.8v1.48h4.74V302Zm-5.6-5.9v1.7h3.18v-1.7Zm0,2.92v1.74h3.18V299Zm4.6-1.22h3.34v-1.7H379.8Zm0,3h3.34V299H379.8Z"/><path d="M460.76,348.46c2.86,0,4.44-1,4.44-2.92,0-1.66-1.34-2.7-3.5-2.7a4.91,4.91,0,0,0-3.92,1.74l-1.18-1.12a7,7,0,0,1,5.14-2.2c3.22,0,5.46,1.7,5.46,4.14,0,2-1.48,3.4-3.94,3.7v.08c2.9.2,4.58,1.76,4.58,4.22,0,2.86-2.36,4.68-6.12,4.68a7.26,7.26,0,0,1-5.7-2.26l1.18-1.18a6.11,6.11,0,0,0,4.5,1.8c2.56,0,4.1-1.2,4.1-3.18,0-2.24-1.6-3.28-5.08-3.28h-1.3v-1.52Z"/><path d="M477.58,349.9a20.32,20.32,0,0,1-.66,2h11.24a19.1,19.1,0,0,1-1.06,5.72c-.5,1.12-1.14,1.44-2.94,1.44-1.06,0-2.48-.06-3.46-.14l-.36-1.52c1.38.12,2.72.2,3.68.2s1.3-.16,1.58-.8a18.58,18.58,0,0,0,.76-3.54h-10c-.26.56-.54,1.14-.84,1.7l-1.62-.46a27.31,27.31,0,0,0,2-4.56h-4.46v-1.36h19v1.36Zm9.88-3.18H474.4V341h13.06ZM476,345.44h9.82v-3.08H476Z"/><path d="M495.6,349.24a23.73,23.73,0,0,1-2.42,5.42l-.74-1.6a22.56,22.56,0,0,0,3-7.22h-2.74v-1.4h2.88v-4.28h1.48v4.28h2.08v1.4h-2.08v1.86a23,23,0,0,1,2.46,2.34l-.84,1.34a22.32,22.32,0,0,0-1.62-2.06v9.84H495.6ZM506.76,352a14.94,14.94,0,0,0,5.1,4.52l-.94,1.4a16.38,16.38,0,0,1-5.16-5.12v6.34h-1.42v-6.22a15.44,15.44,0,0,1-5.14,5.28l-1-1.22a14.23,14.23,0,0,0,5.24-5h-3.7V344.9h4.6v-1.48H498.7v-1.3h5.64v-2h1.42v2h5.76v1.3h-5.76v1.48h4.74V352Zm-5.6-5.9v1.7h3.18v-1.7Zm0,2.92v1.74h3.18V349Zm4.6-1.22h3.34v-1.7h-3.34Zm0,3h3.34V349h-3.34Z"/><path d="M485,244.62v10.82h3.1V257H485v3.95h-1.76V257h-8.25v-1.52l7.81-10.84Zm-1.76,5.06c0-.92,0-2.48.1-3.46h-.08a22,22,0,0,1-1.46,2.54L477,255.44h6.21Z"/><path d="M497.23,253.06c-.2.72-.45,1.4-.66,2h11.24a19.18,19.18,0,0,1-1.06,5.73c-.5,1.12-1.14,1.44-2.94,1.44-1.06,0-2.48-.06-3.46-.14l-.36-1.53c1.38.13,2.72.21,3.68.21s1.3-.17,1.58-.8a18.73,18.73,0,0,0,.76-3.55H496c-.26.56-.54,1.14-.84,1.7l-1.62-.46a27.31,27.31,0,0,0,2-4.56h-4.46V251.7h19v1.36Zm9.88-3.18H494V244.2h13.07Zm-11.45-1.28h9.83v-3.08h-9.83Z"/><path d="M515.24,252.4a23.73,23.73,0,0,1-2.42,5.42l-.74-1.6a22.56,22.56,0,0,0,3-7.22h-2.74v-1.4h2.88v-4.28h1.48v4.28h2.09V249h-2.09v1.86a22.17,22.17,0,0,1,2.47,2.34l-.84,1.34a24.49,24.49,0,0,0-1.63-2.06v9.85h-1.48Zm11.17,2.78a15,15,0,0,0,5.1,4.53l-.94,1.39a16.38,16.38,0,0,1-5.16-5.12v6.35H524V256.1a15.47,15.47,0,0,1-5.14,5.29l-1-1.22a14.33,14.33,0,0,0,5.24-5h-3.7v-7.12H524v-1.48h-5.64v-1.3H524v-2h1.42v2h5.76v1.3h-5.76v1.48h4.74v7.12Zm-5.6-5.9V251H524v-1.7Zm0,2.92v1.74H524V252.2Zm4.6-1.22h3.34v-1.7h-3.34Zm0,3h3.34V252.2h-3.34Z"/></g></svg>