<svg xmlns="http://www.w3.org/2000/svg" width="700" height="500" viewBox="0 0 700 500"><defs><style>.cls-1,.cls-11,.繧ｰ繝ｩ繝輔ぅ繝け繧ｹ繧ｿ繧､繝ｫ-3,.繧ｰ繝ｩ繝輔ぅ繝け繧ｹ繧ｿ繧､繝ｫ-4{fill:#fff;}.cls-2{fill:#e83589;}.cls-10,.cls-3,.cls-4,.cls-7,.繧ｰ繝ｩ繝輔ぅ繝け繧ｹ繧ｿ繧､繝ｫ,.繧ｰ繝ｩ繝輔ぅ繝け繧ｹ繧ｿ繧､繝ｫ-7{fill:none;}.cls-3,.cls-4,.cls-6,.cls-7,.繧ｰ繝ｩ繝輔ぅ繝け繧ｹ繧ｿ繧､繝ｫ,.繧ｰ繝ｩ繝輔ぅ繝け繧ｹ繧ｿ繧､繝ｫ-3,.繧ｰ繝ｩ繝輔ぅ繝け繧ｹ繧ｿ繧､繝ｫ-4,.繧ｰ繝ｩ繝輔ぅ繝け繧ｹ繧ｿ繧､繝ｫ-7{stroke:#000;}.cls-3,.cls-4{stroke-linecap:round;}.cls-10,.cls-3,.cls-4{stroke-linejoin:round;}.cls-3{stroke-width:1.43px;}.cls-4{stroke-width:1.83px;}.繧ｰ繝ｩ繝輔ぅ繝け繧ｹ繧ｿ繧､繝ｫ-7{stroke-linejoin:bevel;stroke-width:1.5px;}.cls-5,.cls-6{fill:#d8eacc;}.cls-6{stroke-width:0.25px;}.cls-11,.cls-7,.繧ｰ繝ｩ繝輔ぅ繝け繧ｹ繧ｿ繧､繝ｫ,.繧ｰ繝ｩ繝輔ぅ繝け繧ｹ繧ｿ繧､繝ｫ-3{stroke-width:2px;}.cls-11,.繧ｰ繝ｩ繝輔ぅ繝け繧ｹ繧ｿ繧､繝ｫ,.繧ｰ繝ｩ繝輔ぅ繝け繧ｹ繧ｿ繧､繝ｫ-3,.繧ｰ繝ｩ繝輔ぅ繝け繧ｹ繧ｿ繧､繝ｫ-4{stroke-miterlimit:10;}.繧ｰ繝ｩ繝輔ぅ繝け繧ｹ繧ｿ繧､繝ｫ-4{stroke-width:1.27px;}.cls-8{fill:#030201;}.cls-9{fill:#242323;}.cls-10{stroke:#fff;}.cls-11{stroke:#de0000;}.cls-12{fill:#de0000;}</style></defs><title>kukakuzu</title><g id="レイヤー_2" data-name="レイヤー 2"><rect class="cls-1" width="700" height="500"/><rect class="cls-2" x="112.61" y="251.04" width="39.3" height="95.53" transform="translate(-166.55 431.06) rotate(-90)"/><path class="cls-1" d="M101.73,304.65h15.55v2.1H101.73v1.41H99.4V289.6h17.34v2h-15Zm.68-2.34a19.49,19.49,0,0,0,5.41-4,52.78,52.78,0,0,0-4.83-3.53l1.41-1.57a55.81,55.81,0,0,1,4.85,3.4,26.71,26.71,0,0,0,2.7-4.44l2.09,1a31.26,31.26,0,0,1-3,4.86c1.16,1,2.69,2.32,4.25,3.79l-1.64,1.72c-1.35-1.34-2.86-2.74-4.09-3.79a21,21,0,0,1-5.76,4.35Z"/><path class="cls-1" d="M130.89,291.42H122.2v-1.86h19.7v1.86h-8.82v2h4.44v10.35h-11V293.41h4.34Zm8.21,13.69v-11.7h2.11v14.75H139.1V307H125v1.14h-2.1V293.41H125v11.7Zm-10.58-10v2.51H131v-2.51Zm0,4.11V302H131v-2.8Zm4.48-1.6h2.55v-2.51H133Zm0,4.4h2.55v-2.8H133Z"/><path class="cls-1" d="M165.09,308.16h-2.26V307.1H149.39v1.06h-2.24V289.41h17.94Zm-15.7-3h13.44V291.3H149.39Zm11.51-.89c-1.31-.81-2.84-1.68-4.23-2.39a17.66,17.66,0,0,1-5.37,3L150,303.32a13.5,13.5,0,0,0,4.67-2.44l-.54-.25c-1.35-.66-2.34-1.1-4.11-1.83l.94-1.53a55.73,55.73,0,0,1,5.28,2.18,17.63,17.63,0,0,0,3.86-7l2,.62a23.43,23.43,0,0,1-3.94,7.34l.19.1c1,.52,2.18,1.14,3.75,2.08Zm-8.73-6.78a19.26,19.26,0,0,0-1.66-4.07l1.91-.76a21.15,21.15,0,0,1,1.72,4Zm3.57-.81a24.05,24.05,0,0,0-1.68-4.09l1.82-.72a18.91,18.91,0,0,1,1.72,4Z"/><polyline class="cls-3" points="137.8 352.12 137.8 340.38 144.7 352.12 144.7 340.38"/><circle class="cls-4" cx="132.27" cy="383.2" r="24.35"/><polygon points="128.54 396.34 115.67 399.99 138.76 360.35 137.56 406.21 128.54 396.34"/><polyline class="繧ｰ繝ｩ繝輔ぅ繝け繧ｹ繧ｿ繧､繝ｫ-7" points="579.79 358.31 585.4 349.47 592.13 407.84 597.01 398.93"/><path d="M454.2,388.37l.29,1.43-8.76,1.81.52,2.55,6.76-1.39,1.63,7.94c.24,1.16-.19,1.69-1.6,2-.82.16-1.65.29-2.48.38l-.57-1.46a16.33,16.33,0,0,0,2.45-.3c.52-.1.62-.23.52-.7l-1.26-6.12-5.16,1.06,2.23,10.82-1.58.32L445,395.88l-4.9,1,1.73,8.34-1.58.33-2-9.74,6.48-1.34-.53-2.55-8.58,1.77-.3-1.43,8.59-1.77-.57-2.73,1.58-.33.56,2.73Z"/><path d="M460.42,389.29a20.11,20.11,0,0,0-3.61-2.79l.91-1.14a19.45,19.45,0,0,1,3.66,2.63Zm2.91,9.76c1.94,1.28,3.92,1.52,7.27.85l7.83-1.62a7.28,7.28,0,0,0-.18,1.52l-7.57,1.56c-3.5.68-5.57.42-7.64-1a20.18,20.18,0,0,1-2.5,3.57l-1.17-1.24a19.44,19.44,0,0,0,2.54-2.91l-1.1-5.34-2.95.61-.28-1.36,4.46-.92Zm-1.17-11.22-.26-1.26,3.52-.72a12.34,12.34,0,0,0-1.66-1.65l1.28-.83a15.18,15.18,0,0,1,1.94,2.16l2.59-.54a21.09,21.09,0,0,0,.58-2.71l1.66.07a16.64,16.64,0,0,1-.71,2.33l3.73-.77.25,1.25-5.75,1.19c0,.36-.18,1.26-.28,1.78l5-1,2.1,10.16L466,399.35l-2.1-10.16,3.67-.75a13.47,13.47,0,0,0,.17-1.77Zm3.84,4,7.17-1.47-.38-1.84L465.62,390Zm.59,2.89,7.17-1.47-.37-1.82-7.17,1.48Zm.65,3.13,7.17-1.48-.41-2-7.17,1.48Z"/><path d="M390.2,426.63a22.32,22.32,0,0,0-3.66-2.48l.82-1.25a19,19,0,0,1,3.72,2.33Zm.33,5.23a23.9,23.9,0,0,0-3.74-2.42l.83-1.32a19.63,19.63,0,0,1,3.79,2.34Zm-.95,8.65a30.43,30.43,0,0,0,2.15-7.25l1.46.71a34,34,0,0,1-2.1,7.45Zm9.68-9.84v0a45.56,45.56,0,0,1-1.56,6.76l0,.19,1.45-.42c1.45-.42,3.65-1.13,5.37-1.73-.83-.91-1.77-1.84-2.74-2.74l1.11-.95a36.74,36.74,0,0,1,5.17,5.23l-1.23,1.18c-.65-.84-.93-1.2-1.4-1.72l-.19.08c-2.12.89-6.69,2.48-9.9,3.43l-.84-1.47.78-.2.24-.07.53-.15a47,47,0,0,0,1.59-7.22l-5,1-.28-1.33,6.08-1.26-.83-4-5,1-.29-1.37,5-1-.66-3.21,1.56-.32.66,3.21,5.3-1.1.28,1.38-5.3,1.09.83,4,6.34-1.3.27,1.33-7.25,1.5Z"/><path d="M417.15,417.86l2.22,10.78,3.09-.64.32,1.54-3.09.63.81,3.93-1.75.36-.81-3.92-8.21,1.69-.31-1.52,5.54-12.4Zm-.71,5.4c-.19-.91-.47-2.48-.61-3.46h-.08a21.06,21.06,0,0,1-.94,2.83l-3.37,7.63,6.18-1.27Z"/><path d="M427.64,431c.08-2.23,1.39-4.73,3.71-7.07l.45-.45c2.41-2.39,3-3.41,2.67-4.87-.34-1.63-1.92-2.45-4-2a5.09,5.09,0,0,0-3.68,3l-1.48-.8a6.57,6.57,0,0,1,4.91-3.8c3.11-.64,5.76.73,6.28,3.26.42,2-.17,3.11-3.27,6.11l-.62.61c-2.05,2-3.19,4.06-3.07,5.53l9.34-1.92.35,1.69L428,432.56Z"/><path d="M455.27,410.61a19.09,19.09,0,0,1-3.72,5.11,27.88,27.88,0,0,0,8.05.79l-.54,1.52a31.26,31.26,0,0,1-8.69-1.18,28.45,28.45,0,0,1-7.72,4.77l-1-1.07a26.93,26.93,0,0,0,7.37-4.24,25.66,25.66,0,0,1-3.35-1.93,16.73,16.73,0,0,1-3,2.85l-1.18-.83a14,14,0,0,0,5-6l1.58,0c-.21.52-.27.62-.47,1.05l6.81-1.4Zm-1.88,18.16-1.54.32-1.31-6.37a19.9,19.9,0,0,1-6.6,7.17l-1.18-1.08a20.09,20.09,0,0,0,6.41-6.21l-7.3,1.51-.27-1.34,8.58-1.77-.44-2.17,1.53-.32.45,2.18,8.72-1.8.28,1.33-7.37,1.52a21.22,21.22,0,0,0,8.36,2.68L461,426a20.47,20.47,0,0,1-9-3.74Zm-6.7-15.87c-.11.18-.16.24-.26.38a15.68,15.68,0,0,0,3.67,2,18.23,18.23,0,0,0,3-3.67Z"/><path d="M467.76,409.38a23.82,23.82,0,0,1-3.62,2L463.4,410a16,16,0,0,0,4.45-2.76l1.34-.28,3.38,16.44-1.85.38Z"/><path d="M483.67,416l.11-.06.07-.06a24.18,24.18,0,0,0,2.07-1.32l.46,1.38a57.27,57.27,0,0,1-6,3.68l-.87-1.42c1.06-.53,1.21-.6,2.22-1.14l.45-.24-1.93-9.36-2.59.53-.3-1.42,6.32-1.3.29,1.42-2.17.45Zm11.26-11.06,2.19,10.61-9.57,2-2.18-10.62,3.1-.64a17.22,17.22,0,0,0,.12-2.15l-5,1-.27-1.31,12.31-2.54.27,1.31-5.77,1.19a19.54,19.54,0,0,1-.26,2.18Zm-8.77,16a12.29,12.29,0,0,0,3.61-3.61l1.39.56a15,15,0,0,1-3.67,4Zm.93-13.11.4,1.93,6.59-1.36-.4-1.93Zm1,5,6.6-1.36-.39-1.85-6.59,1.36Zm.66,3.21,6.6-1.36-.43-2.05-6.59,1.35Zm9.5,3.56a26.84,26.84,0,0,0-4.6-2.16l.92-1.11a27.42,27.42,0,0,1,4.63,1.92Z"/><path d="M505.2,401.67a24.21,24.21,0,0,1-3.62,2l-.74-1.4a16.22,16.22,0,0,0,4.45-2.77l1.34-.27L510,415.65l-1.85.38Z"/><path d="M522.32,405a18.61,18.61,0,0,1-.26,2.09l11.2-2.31a19.59,19.59,0,0,1,.12,5.92c-.27,1.22-.84,1.67-2.63,2-1.06.21-2.49.45-3.48.57l-.67-1.44c1.4-.17,2.75-.36,3.71-.56s1.26-.43,1.41-1.12a19.28,19.28,0,0,0,0-3.68l-9.94,2.05c-.15.61-.31,1.24-.49,1.86l-1.71-.12a28.77,28.77,0,0,0,1-4.95l-4.45.91-.28-1.35,18.93-3.9.28,1.35Zm9.19-5.19-13,2.68-1.17-5.66,13-2.68Zm-11.66,1.07,9.78-2-.63-3.06-9.78,2Z"/><polygon class="cls-5" points="92.68 44.11 319.36 404.83 454.91 380.18 347.31 117.35 347.31 39.78 330.65 36.77 92.68 44.11"/><polygon class="cls-5" points="322.37 156.51 163.31 156.51 319.36 404.83 416.07 387.24 322.37 156.51"/><polygon class="cls-5" points="347.31 39.78 451.79 47.1 520.39 363.78 454.91 380.18 347.31 117.35 347.31 39.78"/><polygon class="cls-5" points="451.79 47.1 581.43 54.93 585.19 351.91 520.39 363.78 451.79 47.1"/><polygon class="cls-6" points="92.68 44.11 319.36 404.83 454.91 380.18 347.31 117.35 347.31 39.78 330.65 36.77 92.68 44.11"/><polygon class="cls-6" points="322.37 156.51 163.31 156.51 319.36 404.83 416.07 387.24 322.37 156.51"/><polygon class="cls-6" points="347.31 39.78 451.79 47.1 520.39 363.78 454.91 380.18 347.31 117.35 347.31 39.78"/><polygon class="cls-6" points="451.79 47.1 581.43 54.93 585.19 351.91 520.39 363.78 451.79 47.1"/><polygon class="cls-7" points="92.68 44.11 319.36 404.83 454.91 380.18 347.31 117.35 347.31 39.78 330.65 36.77 92.68 44.11"/><polygon class="cls-7" points="322.37 156.51 163.31 156.51 319.36 404.83 416.07 387.24 322.37 156.51"/><polygon class="cls-7" points="347.31 39.78 451.79 47.1 520.39 363.78 454.91 380.18 347.31 117.35 347.31 39.78"/><polygon class="cls-7" points="451.79 47.1 581.43 54.93 585.19 351.91 520.39 363.78 451.79 47.1"/><line class="繧ｰ繝ｩ繝輔ぅ繝け繧ｹ繧ｿ繧､繝ｫ" x1="261.15" y1="416.14" x2="319.35" y2="404.84"/><line class="繧ｰ繝ｩ繝輔ぅ繝け繧ｹ繧ｿ繧､繝ｫ" x1="581.59" y1="351.91" x2="626.8" y2="347.04"/><polyline class="繧ｰ繝ｩ繝輔ぅ繝け繧ｹ繧ｿ繧､繝ｫ" points="277.35 474.31 592.13 407.84 618.49 404.83"/><rect class="繧ｰ繝ｩ繝輔ぅ繝け繧ｹ繧ｿ繧､繝ｫ-3" x="187.73" y="58.8" width="122" height="86.42"/><rect class="繧ｰ繝ｩ繝輔ぅ繝け繧ｹ繧ｿ繧､繝ｫ-3" x="233.46" y="195.1" width="124.9" height="87.89" transform="matrix(0.38, 0.92, -0.92, 0.38, 403.57, -125.8)"/><rect class="繧ｰ繝ｩ繝輔ぅ繝け繧ｹ繧ｿ繧､繝ｫ-3" x="350.31" y="90.1" width="132.03" height="73.78" transform="translate(446.08 -307.25) rotate(76.96)"/><rect class="繧ｰ繝ｩ繝輔ぅ繝け繧ｹ繧ｿ繧､繝ｫ-3" x="468.21" y="83.05" width="125.47" height="86.98" transform="translate(657.48 -404.41) rotate(90)"/><rect class="繧ｰ繝ｩ繝輔ぅ繝け繧ｹ繧ｿ繧､繝ｫ-4" x="281.99" y="314.15" width="26.96" height="6.41" transform="translate(691.97 492.88) rotate(156.83)"/><rect class="繧ｰ繝ｩ繝輔ぅ繝け繧ｹ繧ｿ繧､繝ｫ-4" x="279.47" y="308.26" width="26.96" height="6.41" transform="translate(684.81 482.56) rotate(156.83)"/><rect class="繧ｰ繝ｩ繝輔ぅ繝け繧ｹ繧ｿ繧､繝ｫ-4" x="275.46" y="295.1" width="26.96" height="13.98" transform="translate(673.42 466.15) rotate(156.83)"/><polygon points="287.45 298.63 285.95 305.46 293.43 302.25 287.45 298.63"/><rect class="繧ｰ繝ｩ繝輔ぅ繝け繧ｹ繧ｿ繧､繝ｫ-4" x="444.6" y="197.85" width="26.96" height="6.41" transform="translate(950.97 286.65) rotate(166.16)"/><rect class="繧ｰ繝ｩ繝輔ぅ繝け繧ｹ繧ｿ繧､繝ｫ-4" x="443.07" y="191.62" width="26.96" height="6.41" transform="translate(946.46 274.74) rotate(166.16)"/><rect class="繧ｰ繝ｩ繝輔ぅ繝け繧ｹ繧ｿ繧､繝ｫ-4" x="440.63" y="177.94" width="26.96" height="13.98" transform="translate(939.28 255.82) rotate(166.16)"/><polygon points="453.21 181.28 450.62 187.77 458.52 185.82 453.21 181.28"/><rect class="繧ｰ繝ｩ繝輔ぅ繝け繧ｹ繧ｿ繧､繝ｫ-4" x="537.76" y="195.38" width="36.67" height="6.41" transform="matrix(-1, 0, 0, -1, 1112.21, 397.13)"/><rect class="繧ｰ繝ｩ繝輔ぅ繝け繧ｹ繧ｿ繧､繝ｫ-4" x="537.76" y="181.4" width="36.67" height="13.98" transform="matrix(-1, 0, 0, -1, 1112.21, 376.74)"/><polygon points="555.68 184.63 551.61 190.31 559.75 190.31 555.68 184.63"/><rect class="繧ｰ繝ｩ繝輔ぅ繝け繧ｹ繧ｿ繧､繝ｫ-4" x="314.64" y="116.82" width="24.55" height="6.41" transform="translate(446.91 -206.9) rotate(90)"/><rect class="繧ｰ繝ｩ繝輔ぅ繝け繧ｹ繧ｿ繧､繝ｫ-4" x="304.44" y="113.03" width="24.55" height="13.98" transform="translate(436.72 -196.7) rotate(90)"/><polygon points="312.96 120.02 318.64 124.09 318.64 115.95 312.96 120.02"/><path class="cls-1" d="M336.4,153a45.1,45.1,0,0,1,9.73-3.71,8.19,8.19,0,0,1,9.27,5.3,355.11,355.11,0,0,0,13,33.95,7.81,7.81,0,0,1-3.2,9.64,44.57,44.57,0,0,1-10.4,4,7.81,7.81,0,0,1-8.81-5.06,355.08,355.08,0,0,0-12.94-34A8.19,8.19,0,0,1,336.4,153Z"/><path class="cls-8" d="M341.11,150.7a45.7,45.7,0,0,1,5-1.58,8.29,8.29,0,0,1,9.43,5.39,358.65,358.65,0,0,0,13,33.94,7.93,7.93,0,0,1-3.25,9.81,45.35,45.35,0,0,1-10.44,4,7.93,7.93,0,0,1-9-5.15,358.55,358.55,0,0,0-12.93-34,8.27,8.27,0,0,1,3.44-10.29h0A43.45,43.45,0,0,1,341.11,150.7Zm18.94,49.62a45.13,45.13,0,0,0,5.06-2.3,7.65,7.65,0,0,0,3.14-9.47,355.36,355.36,0,0,1-13-34,8,8,0,0,0-9.11-5.21,45,45,0,0,0-9.7,3.7,8,8,0,0,0-3.32,10,358,358,0,0,1,12.95,34,7.65,7.65,0,0,0,8.65,5A43.5,43.5,0,0,0,360.05,200.32Z"/><path class="cls-9" d="M335.94,160.44l15.51-5.92-.27-.52-15.39,5.87Z"/><path class="cls-8" d="M336.48,166.59l.31.41A49.85,49.85,0,0,1,343,178.79l.57,1.56v0l-.24,6.44-.17-.43c-.53-1.28-1-2.54-1.49-3.77a158.29,158.29,0,0,1-5.06-15.53Zm6.89,13.81c-.18-.52-.37-1-.56-1.53a50.28,50.28,0,0,0-5.87-11.32c1.34,4.91,3,9.95,4.91,15,.42,1.08.86,2.2,1.32,3.33Z"/><path class="cls-8" d="M355.15,159.47l.23.46A160,160,0,0,1,362,174.88c.46,1.21.93,2.49,1.4,3.8l.15.44L359,174.45c-.21-.51-.42-1-.61-1.54A49.36,49.36,0,0,1,355.19,160ZM363,178.3c-.41-1.15-.83-2.28-1.24-3.35-1.93-5-4-9.91-6.33-14.46a50.69,50.69,0,0,0,3.16,12.35c.2.5.4,1,.61,1.51Z"/><path class="cls-1" d="M343.9,187.82,347,196a9.32,9.32,0,0,0,12,5.38l2.5-1a9.34,9.34,0,0,0,5.36-12l-3.11-8.14a47.57,47.57,0,0,1-19.85,7.58Z"/><path d="M343.76,187.74l.13,0a46.4,46.4,0,0,0,10.33-2.66l.13-.05a47.44,47.44,0,0,0,9.35-4.85l.1-.07,3.15,8.26a9.4,9.4,0,0,1-5.42,12.13l-2.49,1A9.39,9.39,0,0,1,346.92,196Zm17.7,12.55a9.21,9.21,0,0,0,5.31-11.87l-3.07-8a47.21,47.21,0,0,1-9.28,4.8l-.26.1A47.3,47.3,0,0,1,344,187.9l3.06,8A9.21,9.21,0,0,0,359,201.24Z"/><path class="cls-1" d="M339.38,167.7a50.81,50.81,0,0,0,14.34-5.47,22.41,22.41,0,0,0-2.24-7.73l-15.57,5.94A22.29,22.29,0,0,0,339.38,167.7Z"/><path d="M335.79,160.38l15.73-6,.05.09a22.58,22.58,0,0,1,2.25,7.76v.07l-.06,0a51.32,51.32,0,0,1-14.37,5.48l-.06,0,0-.06a22.58,22.58,0,0,1-3.49-7.29Zm15.64-5.75L336,160.5a22.27,22.27,0,0,0,3.39,7.09,51,51,0,0,0,14.2-5.42A22.33,22.33,0,0,0,351.43,154.63Z"/><path class="cls-9" d="M335.91,160.44l15.57-5.94c-.09-.17-.18-.35-.28-.52l-15.44,5.89Z"/><path class="cls-1" d="M351.2,154l-1.49-3.91a20,20,0,0,0-15.44,5.9l1.49,3.9Z"/><path d="M341.32,151.26a18.2,18.2,0,0,1,8.41-1.29h.06l1.54,4.06-15.62,6L334.16,156l0,0A18.14,18.14,0,0,1,341.32,151.26Zm8.32-1.09A19.85,19.85,0,0,0,334.39,156l1.43,3.75,15.25-5.82Z"/><path class="cls-9" d="M344,187.84v.6a40.45,40.45,0,0,0,20.11-7.67l-.39-.45A40.45,40.45,0,0,1,344,187.84Z"/><path class="cls-1" d="M363.44,180.45l-4.93-5.68-14.34,5.47.1,7.52A39.23,39.23,0,0,0,363.44,180.45Z"/><path d="M344.06,180.17l14.48-5.52,5,5.82-.09.06a39.33,39.33,0,0,1-19.22,7.33l-.11,0Zm14.42-5.28-14.21,5.42.1,7.34a39.12,39.12,0,0,0,18.92-7.22Z"/><path class="cls-8" d="M334.3,156l-.1,0a2.28,2.28,0,0,0-1.31,2.93l.06.16A5.52,5.52,0,0,1,334.3,156Z"/><path class="cls-8" d="M349.69,150.09l.09,0a2.3,2.3,0,0,1,2.94,1.31l.06.16A5.46,5.46,0,0,0,349.69,150.09Z"/><path class="cls-1" d="M339.29,183.66a.93.93,0,0,0,.44.71l2.31.83a.12.12,0,0,0,.1,0l-.53-1.39-2.34-.35Z"/><path class="cls-8" d="M339.15,183.35l2.54.38.59,1.56-.12,0a.3.3,0,0,1-.16,0l-2.3-.84a1,1,0,0,1-.51-.78Zm2.39.56-2.16-.32v.06a.81.81,0,0,0,.38.62l2.21.81Z"/><path class="cls-1" d="M364.42,174.07a.92.92,0,0,1,.14.82l-1.16,2.16a.19.19,0,0,1-.07.08l-.53-1.39,1.52-1.83Z"/><path class="cls-8" d="M364.32,173.75l.19.27a1,1,0,0,1,.14.92l-1.16,2.16a.32.32,0,0,1-.11.12l-.1.06-.6-1.56Zm-1,3.17,1.11-2.08a.8.8,0,0,0-.13-.71l0,0-1.4,1.67Z"/><path class="cls-8" d="M350.64,191a18.42,18.42,0,0,0,4.23,6.92,20.85,20.85,0,0,1-3.53-6.22,26.22,26.22,0,0,1-1.1-3.66l-.49.18A26.17,26.17,0,0,0,350.64,191Z"/><path class="cls-8" d="M360.85,187.11a18.39,18.39,0,0,1,1.46,8,20.81,20.81,0,0,0-1.51-7,26.7,26.7,0,0,0-1.62-3.47l.49-.18A26.25,26.25,0,0,1,360.85,187.11Z"/><rect class="cls-1" x="341.27" y="164.52" width="15.35" height="13.42" transform="translate(736.01 206.8) rotate(159.11)"/><path d="M339.25,167.64l14.53-5.54,4.86,12.73-14.53,5.54Zm14.42-5.28-14.16,5.4,4.71,12.35,14.16-5.4Z"/><path class="cls-1" d="M363.59,217.38a44.59,44.59,0,0,1,9.73-3.71,8.18,8.18,0,0,1,9.26,5.3,357.87,357.87,0,0,0,13,33.95,7.81,7.81,0,0,1-3.2,9.64,44.57,44.57,0,0,1-10.4,4,7.82,7.82,0,0,1-8.81-5.06,357.77,357.77,0,0,0-12.94-34A8.19,8.19,0,0,1,363.59,217.38Z"/><path class="cls-8" d="M368.3,215.12a43.62,43.62,0,0,1,5-1.58,8.29,8.29,0,0,1,9.43,5.39,357.43,357.43,0,0,0,13,33.93,7.92,7.92,0,0,1-3.26,9.81,44.68,44.68,0,0,1-10.43,4,7.93,7.93,0,0,1-9-5.15,358.63,358.63,0,0,0-12.94-33.95,8.29,8.29,0,0,1,3.45-10.3h0A45.35,45.35,0,0,1,368.3,215.12Zm18.93,49.62a44.47,44.47,0,0,0,5.07-2.3,7.66,7.66,0,0,0,3.14-9.47,355.36,355.36,0,0,1-13-34,8,8,0,0,0-9.11-5.21,45,45,0,0,0-9.7,3.7,8,8,0,0,0-3.32,9.95,358.21,358.21,0,0,1,12.95,34,7.65,7.65,0,0,0,8.64,5A44.16,44.16,0,0,0,387.23,264.74Z"/><path class="cls-9" d="M363.13,224.86l15.51-5.92-.27-.52L363,224.29Z"/><path class="cls-8" d="M363.67,231l.31.41a49.49,49.49,0,0,1,6.2,11.79q.3.76.57,1.56v0l-.24,6.44-.18-.44c-.52-1.27-1-2.53-1.49-3.76a161.79,161.79,0,0,1-5.05-15.53Zm6.89,13.8c-.18-.51-.37-1-.56-1.53A50.41,50.41,0,0,0,364.13,232c1.33,4.91,3,9.95,4.91,15,.42,1.08.86,2.2,1.31,3.33Z"/><path class="cls-8" d="M382.34,223.89l.23.46a157.68,157.68,0,0,1,6.58,15c.46,1.21.93,2.49,1.4,3.8l.15.43-4.48-4.66c-.21-.52-.42-1-.61-1.54a49.36,49.36,0,0,1-3.23-12.93Zm7.86,18.83c-.41-1.15-.83-2.28-1.24-3.35-1.93-5.05-4-9.91-6.33-14.46a50.62,50.62,0,0,0,3.16,12.34l.6,1.52Z"/><path class="cls-1" d="M371.09,252.24l3.11,8.14a9.32,9.32,0,0,0,12,5.38l2.5-1a9.32,9.32,0,0,0,5.36-12l-3.11-8.14a46.72,46.72,0,0,1-9.5,4.91A47.45,47.45,0,0,1,371.09,252.24Z"/><path d="M371,252.15h.13a45.88,45.88,0,0,0,10.33-2.67l.13,0a47.44,47.44,0,0,0,9.35-4.85l.1-.07,3.15,8.26a9.4,9.4,0,0,1-5.42,12.13l-2.49,1a9.4,9.4,0,0,1-12.13-5.44Zm17.7,12.56a9.2,9.2,0,0,0,5.3-11.87l-3.06-8a46.91,46.91,0,0,1-9.28,4.79l-.26.1a46.88,46.88,0,0,1-10.12,2.61l3.06,8a9.21,9.21,0,0,0,11.87,5.32Z"/><path class="cls-1" d="M366.57,232.12a50.81,50.81,0,0,0,14.34-5.47,22.2,22.2,0,0,0-2.25-7.73l-15.56,5.94A22.09,22.09,0,0,0,366.57,232.12Z"/><path d="M363,224.8l15.73-6,0,.08a22.49,22.49,0,0,1,2.26,7.77v.06l-.06,0a51.44,51.44,0,0,1-14.37,5.48h-.06l0,0a22.38,22.38,0,0,1-3.49-7.29Zm15.63-5.75-15.39,5.87a22.37,22.37,0,0,0,3.39,7.09,51,51,0,0,0,14.2-5.42A22.05,22.05,0,0,0,378.61,219.05Z"/><path class="cls-9" d="M363.1,224.86l15.56-5.94c-.08-.17-.17-.35-.27-.52L363,224.29Z"/><path class="cls-1" d="M378.39,218.4l-1.49-3.91a20,20,0,0,0-15.44,5.89l1.49,3.91Z"/><path d="M368.51,215.67a18.31,18.31,0,0,1,8.41-1.28H377l1.55,4.06-15.62,6-1.55-4.06,0,0A18.15,18.15,0,0,1,368.51,215.67Zm8.32-1.09a20,20,0,0,0-15.25,5.82l1.43,3.76,15.25-5.82Z"/><path class="cls-9" d="M371.17,252.26v.6a40.49,40.49,0,0,0,20.11-7.67l-.39-.45A40.45,40.45,0,0,1,371.17,252.26Z"/><path class="cls-1" d="M390.63,244.87l-4.93-5.68-14.35,5.47.11,7.52A39.36,39.36,0,0,0,390.63,244.87Z"/><path d="M371.25,244.59l14.48-5.52,5,5.81-.09.07a39.33,39.33,0,0,1-19.22,7.33h-.11Zm14.42-5.28-14.21,5.42.1,7.34a39.16,39.16,0,0,0,18.92-7.22Z"/><path class="cls-8" d="M361.49,220.38l-.1,0a2.27,2.27,0,0,0-1.31,2.93l.06.16A5.52,5.52,0,0,1,361.49,220.38Z"/><path class="cls-8" d="M376.88,214.51l.09,0a2.28,2.28,0,0,1,2.94,1.31l.06.16A5.46,5.46,0,0,0,376.88,214.51Z"/><path class="cls-1" d="M366.48,248.08a.93.93,0,0,0,.44.71l2.3.83a.22.22,0,0,0,.11,0l-.53-1.39-2.34-.35Z"/><path class="cls-8" d="M366.34,247.77l2.53.38.6,1.56-.12,0a.3.3,0,0,1-.16,0l-2.3-.84a1,1,0,0,1-.51-.78Zm2.39.56-2.16-.32v.06a.81.81,0,0,0,.38.62l2.21.8Z"/><path class="cls-1" d="M391.61,238.49a.91.91,0,0,1,.14.82l-1.16,2.16a.27.27,0,0,1-.07.08l-.53-1.4,1.51-1.82Z"/><path class="cls-8" d="M391.51,238.17l.19.26a1,1,0,0,1,.14.93l-1.16,2.15a.22.22,0,0,1-.11.12l-.1.07-.6-1.57Zm-1,3.17,1.11-2.08a.8.8,0,0,0-.13-.71l0-.05-1.4,1.67Z"/><path class="cls-8" d="M377.83,255.42a18.48,18.48,0,0,0,4.23,6.93,20.85,20.85,0,0,1-3.53-6.22,27.75,27.75,0,0,1-1.11-3.66l-.49.18A26.14,26.14,0,0,0,377.83,255.42Z"/><path class="cls-8" d="M388,251.52a18.44,18.44,0,0,1,1.46,8,20.81,20.81,0,0,0-1.51-7,26.7,26.7,0,0,0-1.62-3.47l.49-.19A27.28,27.28,0,0,1,388,251.52Z"/><rect class="cls-1" x="368.46" y="228.94" width="15.35" height="13.42" transform="translate(811.57 321.71) rotate(159.11)"/><path d="M366.44,232.06,381,226.52l4.86,12.72-14.53,5.55Zm14.41-5.28-14.15,5.4,4.71,12.35,14.16-5.4Z"/><path class="cls-1" d="M390.65,283.47a43.82,43.82,0,0,1,9.72-3.71,8.18,8.18,0,0,1,9.27,5.29,354.16,354.16,0,0,0,13,33.95,7.83,7.83,0,0,1-3.2,9.64,44,44,0,0,1-10.41,4,7.81,7.81,0,0,1-8.8-5.05,354.32,354.32,0,0,0-12.95-34A8.17,8.17,0,0,1,390.65,283.47Z"/><path class="cls-8" d="M395.35,281.2a43.73,43.73,0,0,1,5-1.57,8.27,8.27,0,0,1,9.43,5.38,354.93,354.93,0,0,0,13,33.94,7.93,7.93,0,0,1-3.26,9.81,44.45,44.45,0,0,1-10.44,4,7.91,7.91,0,0,1-9-5.14,356.56,356.56,0,0,0-12.94-34,8.28,8.28,0,0,1,3.44-10.3h0A44.32,44.32,0,0,1,395.35,281.2Zm18.94,49.63a42.72,42.72,0,0,0,5.06-2.31,7.63,7.63,0,0,0,3.14-9.46,359.09,359.09,0,0,1-13-34,8,8,0,0,0-9.11-5.21,44.24,44.24,0,0,0-9.69,3.7,8,8,0,0,0-3.32,10,358,358,0,0,1,12.94,34,7.64,7.64,0,0,0,8.65,5A44.69,44.69,0,0,0,414.29,330.83Z"/><path class="cls-9" d="M390.18,290.94,405.69,285c-.08-.17-.17-.35-.27-.52L390,290.37C390.09,290.56,390.13,290.75,390.18,290.94Z"/><path class="cls-8" d="M390.72,297.1l.31.41a49.29,49.29,0,0,1,6.21,11.79c.2.51.39,1,.57,1.55v0l-.24,6.43-.18-.43c-.52-1.27-1-2.54-1.49-3.76a156.55,156.55,0,0,1-5.05-15.54Zm6.89,13.8c-.18-.51-.37-1-.56-1.53a50.41,50.41,0,0,0-5.86-11.31c1.33,4.9,3,9.94,4.91,15,.41,1.09.85,2.21,1.31,3.33Z"/><path class="cls-8" d="M409.39,290l.24.46a157.35,157.35,0,0,1,6.57,14.95c.47,1.21.94,2.49,1.4,3.8l.16.44L413.27,305c-.21-.51-.41-1-.61-1.54a49.31,49.31,0,0,1-3.22-12.93Zm7.87,18.84c-.42-1.16-.83-2.28-1.24-3.36-1.93-5.05-4.06-9.91-6.33-14.45a50.28,50.28,0,0,0,3.16,12.34c.19.5.39,1,.6,1.52Z"/><path class="cls-1" d="M398.15,318.32l3.1,8.14a9.33,9.33,0,0,0,12,5.38l2.49-.95a9.32,9.32,0,0,0,5.37-12L418,310.75a47.88,47.88,0,0,1-19.85,7.57Z"/><path d="M398,318.24l.12,0a46.26,46.26,0,0,0,10.33-2.66l.13-.05a46.13,46.13,0,0,0,9.35-4.85l.11-.07,3.15,8.26A9.4,9.4,0,0,1,415.78,331l-2.49,1a9.42,9.42,0,0,1-12.13-5.44Zm17.7,12.56a9.21,9.21,0,0,0,5.3-11.88l-3.06-8a47,47,0,0,1-9.28,4.8l-.26.1a47,47,0,0,1-10.12,2.6l3.06,8a9.21,9.21,0,0,0,11.86,5.32Z"/><path class="cls-1" d="M393.63,298.21A51.06,51.06,0,0,0,408,292.73a22.27,22.27,0,0,0-2.25-7.73l-15.57,5.94A22.26,22.26,0,0,0,393.63,298.21Z"/><path d="M390,290.88l15.74-6,0,.08a22.38,22.38,0,0,1,2.26,7.76v.07l-.06,0a51.46,51.46,0,0,1-14.37,5.49h-.07l0-.05a22.61,22.61,0,0,1-3.48-7.3Zm15.64-5.75L390.28,291a22.22,22.22,0,0,0,3.39,7.08,51.2,51.2,0,0,0,14.19-5.41A22.38,22.38,0,0,0,405.67,285.13Z"/><path class="cls-9" d="M390.15,290.94,405.72,285l-.27-.51L390,290.38C390.06,290.57,390.1,290.76,390.15,290.94Z"/><path class="cls-1" d="M405.45,284.49,404,280.58a19.93,19.93,0,0,0-15.44,5.89l1.49,3.91Z"/><path d="M395.57,281.76a18,18,0,0,1,8.4-1.28H404l1.55,4.05-15.63,6-1.55-4.06,0-.05A18.29,18.29,0,0,1,395.57,281.76Zm8.32-1.09a20,20,0,0,0-15.26,5.82l1.44,3.76,15.25-5.82Z"/><path class="cls-9" d="M398.23,318.35v.6a40.6,40.6,0,0,0,20.11-7.68l-.4-.45A40.47,40.47,0,0,1,398.23,318.35Z"/><path class="cls-1" d="M417.69,311l-4.94-5.68-14.34,5.48.11,7.52A39.38,39.38,0,0,0,417.69,311Z"/><path d="M398.31,310.68l14.47-5.53,5.05,5.82-.08.06a39.48,39.48,0,0,1-19.22,7.34h-.11Zm14.41-5.29-14.21,5.42.11,7.35a39.26,39.26,0,0,0,18.92-7.22Z"/><path class="cls-8" d="M388.55,286.46l-.1,0a2.27,2.27,0,0,0-1.31,2.93l.06.16A5.45,5.45,0,0,1,388.55,286.46Z"/><path class="cls-8" d="M403.93,280.59l.1,0a2.28,2.28,0,0,1,2.93,1.32l.06.16A5.44,5.44,0,0,0,403.93,280.59Z"/><path class="cls-1" d="M393.54,314.17a.91.91,0,0,0,.44.7l2.3.84h.11l-.53-1.4-2.35-.34Z"/><path class="cls-8" d="M393.39,313.86l2.54.37.6,1.57-.12,0a.3.3,0,0,1-.16,0l-2.31-.83a1,1,0,0,1-.5-.79Zm2.39.55-2.15-.31v0a.88.88,0,0,0,.37.63l2.22.8Z"/><path class="cls-1" d="M418.67,304.58a.9.9,0,0,1,.14.81l-1.16,2.16a.15.15,0,0,1-.08.08l-.53-1.39,1.52-1.82Z"/><path class="cls-8" d="M418.57,304.25l.18.27a1,1,0,0,1,.15.92l-1.16,2.16a.43.43,0,0,1-.11.12l-.11.06-.59-1.56Zm-1,3.17,1.12-2.07a.82.82,0,0,0-.14-.72l0,0-1.39,1.67Z"/><path class="cls-8" d="M404.88,321.51a18.56,18.56,0,0,0,4.24,6.93,20.79,20.79,0,0,1-3.53-6.23,24.67,24.67,0,0,1-1.11-3.66l-.49.19A26.77,26.77,0,0,0,404.88,321.51Z"/><path class="cls-8" d="M415.1,317.61a18.36,18.36,0,0,1,1.45,8,20.86,20.86,0,0,0-1.51-7,25.87,25.87,0,0,0-1.61-3.46l.49-.19A26.25,26.25,0,0,1,415.1,317.61Z"/><rect class="cls-1" x="395.51" y="295.03" width="15.35" height="13.42" transform="translate(887.46 439.89) rotate(159.11)"/><path d="M393.49,298.15,408,292.6l4.85,12.73-14.53,5.55Zm14.42-5.29-14.16,5.4,4.72,12.36,14.15-5.41Z"/><path class="cls-1" d="M312.65,334a44.08,44.08,0,0,1,9.73-3.71,8.17,8.17,0,0,1,9.27,5.3,356.13,356.13,0,0,0,13,33.95,7.8,7.8,0,0,1-3.2,9.63,44.16,44.16,0,0,1-10.4,4,7.82,7.82,0,0,1-8.81-5.06,355.08,355.08,0,0,0-12.94-34A8.19,8.19,0,0,1,312.65,334Z"/><path class="cls-8" d="M317.36,331.72a45.65,45.65,0,0,1,5-1.57,8.28,8.28,0,0,1,9.43,5.39,358.47,358.47,0,0,0,13,33.93,7.93,7.93,0,0,1-3.25,9.81,44.92,44.92,0,0,1-10.44,4,7.94,7.94,0,0,1-9-5.15,357.52,357.52,0,0,0-12.93-33.95,8.28,8.28,0,0,1,3.44-10.3h0A45.42,45.42,0,0,1,317.36,331.72Zm18.94,49.63a45.13,45.13,0,0,0,5.06-2.3,7.66,7.66,0,0,0,3.14-9.47,355.36,355.36,0,0,1-13-34,8,8,0,0,0-9.11-5.21,44.51,44.51,0,0,0-9.7,3.7,8,8,0,0,0-3.32,9.95,357.18,357.18,0,0,1,12.95,34,7.64,7.64,0,0,0,8.65,5A43.45,43.45,0,0,0,336.3,381.35Z"/><path class="cls-9" d="M312.19,341.46l15.51-5.92-.27-.51L312,340.9Z"/><path class="cls-8" d="M312.73,347.62l.31.41a49.66,49.66,0,0,1,6.21,11.79l.57,1.55v0l-.24,6.43-.17-.43c-.53-1.27-1-2.54-1.49-3.76a159.16,159.16,0,0,1-5.06-15.53Zm6.89,13.8c-.18-.51-.37-1-.56-1.53a50.41,50.41,0,0,0-5.87-11.31c1.34,4.91,3,9.95,4.91,15,.42,1.08.86,2.2,1.32,3.32Z"/><path class="cls-8" d="M331.4,340.49l.23.46a160,160,0,0,1,6.58,14.95c.46,1.22.93,2.5,1.4,3.8l.15.44-4.48-4.67c-.21-.51-.42-1-.61-1.53A49.36,49.36,0,0,1,331.44,341Zm7.86,18.84c-.41-1.15-.83-2.28-1.24-3.35-1.93-5.05-4-9.91-6.33-14.46a50.62,50.62,0,0,0,3.16,12.34c.2.51.4,1,.61,1.52Z"/><path class="cls-1" d="M320.15,368.85l3.11,8.14a9.31,9.31,0,0,0,12,5.37l2.5-.95a9.32,9.32,0,0,0,5.36-12L340,361.27a47.57,47.57,0,0,1-19.85,7.58Z"/><path d="M320,368.76h.13a46.41,46.41,0,0,0,10.33-2.67l.13-.05a46.87,46.87,0,0,0,9.35-4.84l.1-.07,3.15,8.26a9.4,9.4,0,0,1-5.42,12.13l-2.49.95A9.39,9.39,0,0,1,323.17,377Zm17.7,12.56A9.21,9.21,0,0,0,343,369.45l-3.07-8a46.68,46.68,0,0,1-9.28,4.8l-.26.1a46.73,46.73,0,0,1-10.12,2.61l3.06,8a9.21,9.21,0,0,0,11.87,5.32Z"/><path class="cls-1" d="M315.63,348.73A51.11,51.11,0,0,0,330,343.26a22.41,22.41,0,0,0-2.24-7.73l-15.57,5.94A22.48,22.48,0,0,0,315.63,348.73Z"/><path d="M312,341.41l15.73-6,.05.08a22.63,22.63,0,0,1,2.25,7.77v.06l-.06,0a51.34,51.34,0,0,1-14.37,5.49h-.06l0,0a22.54,22.54,0,0,1-3.49-7.3Zm15.64-5.76-15.4,5.88a22.37,22.37,0,0,0,3.39,7.09,51.28,51.28,0,0,0,14.2-5.42A22.38,22.38,0,0,0,327.68,335.65Z"/><path class="cls-9" d="M312.16,341.47l15.57-5.94c-.09-.18-.18-.35-.28-.52L312,340.9Z"/><path class="cls-1" d="M327.45,335,326,331.1A20.07,20.07,0,0,0,310.52,337L312,340.9Z"/><path d="M317.57,332.28A18.31,18.31,0,0,1,326,331H326l1.54,4.06L312,341,310.41,337l0,0A18.15,18.15,0,0,1,317.57,332.28Zm8.32-1.09A20,20,0,0,0,310.64,337l1.43,3.76L327.32,335Z"/><path class="cls-9" d="M320.24,368.87v.6a40.45,40.45,0,0,0,20.11-7.67l-.39-.46A40.37,40.37,0,0,1,320.24,368.87Z"/><path class="cls-1" d="M339.69,361.48l-4.93-5.69-14.34,5.48.1,7.52A39.33,39.33,0,0,0,339.69,361.48Z"/><path d="M320.31,361.2l14.48-5.52,5,5.81-.09.07a39.43,39.43,0,0,1-19.22,7.33h-.11Zm14.42-5.29-14.21,5.43.1,7.34a39.22,39.22,0,0,0,18.92-7.22Z"/><path class="cls-8" d="M310.55,337l-.1,0a2.3,2.3,0,0,0-1.31,2.94l.06.16A5.52,5.52,0,0,1,310.55,337Z"/><path class="cls-8" d="M325.94,331.12l.09,0a2.28,2.28,0,0,1,2.94,1.31l.06.16A5.46,5.46,0,0,0,325.94,331.12Z"/><path class="cls-1" d="M315.54,364.69a.91.91,0,0,0,.44.7l2.31.84a.18.18,0,0,0,.1,0l-.53-1.39-2.34-.35Z"/><path class="cls-8" d="M315.4,364.38l2.54.38.59,1.56-.12,0a.31.31,0,0,1-.16,0l-2.3-.83a1,1,0,0,1-.51-.79Zm2.39.56-2.16-.32v.06a.81.81,0,0,0,.38.62l2.21.8Z"/><path class="cls-1" d="M340.67,355.1a.91.91,0,0,1,.14.82l-1.16,2.16a.27.27,0,0,1-.07.08l-.53-1.4,1.52-1.82Z"/><path class="cls-8" d="M340.57,354.77l.19.27a1,1,0,0,1,.14.93l-1.16,2.15a.32.32,0,0,1-.11.12l-.1.07-.6-1.57Zm-1,3.18,1.11-2.08a.79.79,0,0,0-.13-.71l0-.05-1.4,1.67Z"/><path class="cls-8" d="M326.89,372a18.35,18.35,0,0,0,4.24,6.93,20.63,20.63,0,0,1-3.54-6.22,25.93,25.93,0,0,1-1.1-3.67l-.49.19A26,26,0,0,0,326.89,372Z"/><path class="cls-8" d="M337.1,368.13a18.44,18.44,0,0,1,1.46,8,20.81,20.81,0,0,0-1.51-7,25.45,25.45,0,0,0-1.62-3.47l.49-.19A27.28,27.28,0,0,1,337.1,368.13Z"/><rect class="cls-1" x="317.52" y="345.55" width="15.35" height="13.42" transform="translate(754.61 565.42) rotate(159.11)"/><path d="M315.5,348.67,330,343.12l4.86,12.73-14.53,5.55Zm14.42-5.29-14.16,5.41,4.71,12.35,14.16-5.4Z"/><path class="cls-1" d="M351.65,320.68a44,44,0,0,1,9.72-3.71,8.17,8.17,0,0,1,9.27,5.29,354.16,354.16,0,0,0,13,33.95,7.83,7.83,0,0,1-3.2,9.64,44,44,0,0,1-10.41,4,7.81,7.81,0,0,1-8.8-5.05,356.93,356.93,0,0,0-12.94-34A8.16,8.16,0,0,1,351.65,320.68Z"/><path class="cls-8" d="M356.35,318.41a43.73,43.73,0,0,1,5-1.57,8.27,8.27,0,0,1,9.43,5.38,357.62,357.62,0,0,0,13,33.94,7.93,7.93,0,0,1-3.26,9.81,44.21,44.21,0,0,1-10.43,4,7.93,7.93,0,0,1-9-5.14,356.56,356.56,0,0,0-12.94-33.95,8.29,8.29,0,0,1,3.45-10.3h0A44.16,44.16,0,0,1,356.35,318.41ZM375.29,368a42.86,42.86,0,0,0,5.07-2.31,7.66,7.66,0,0,0,3.14-9.46,353.72,353.72,0,0,1-13-34,8,8,0,0,0-9.11-5.21,44.32,44.32,0,0,0-9.7,3.7,8,8,0,0,0-3.32,9.95,358,358,0,0,1,12.95,34,7.63,7.63,0,0,0,8.64,5A44.12,44.12,0,0,0,375.29,368Z"/><path class="cls-9" d="M351.19,328.15l15.51-5.92-.27-.52L351,327.58Z"/><path class="cls-8" d="M351.72,334.31l.32.41a49.3,49.3,0,0,1,6.2,11.79c.2.51.39,1,.57,1.55v0l-.24,6.43-.18-.43c-.52-1.27-1-2.54-1.49-3.76a162,162,0,0,1-5.05-15.54Zm6.9,13.8c-.18-.51-.37-1-.56-1.53a50.41,50.41,0,0,0-5.87-11.31c1.33,4.9,3,9.94,4.91,15,.41,1.09.86,2.21,1.31,3.33Z"/><path class="cls-8" d="M370.4,327.18l.23.46a160,160,0,0,1,6.58,14.95c.46,1.21.93,2.49,1.39,3.8l.16.44-4.49-4.67c-.21-.51-.41-1-.61-1.54a49.71,49.71,0,0,1-3.22-12.93ZM378.26,346c-.41-1.16-.83-2.28-1.24-3.36-1.93-5.05-4.06-9.91-6.33-14.45a50.73,50.73,0,0,0,3.16,12.34c.19.5.4,1,.6,1.52Z"/><path class="cls-1" d="M359.15,355.53l3.11,8.14a9.32,9.32,0,0,0,12,5.38l2.5-.95a9.32,9.32,0,0,0,5.36-12L379,348a47.88,47.88,0,0,1-19.85,7.57Z"/><path d="M359,355.45l.13,0a46.4,46.4,0,0,0,10.33-2.66l.13,0a46.32,46.32,0,0,0,9.34-4.85l.11-.07,3.15,8.26a9.4,9.4,0,0,1-5.42,12.13l-2.49,1a9.42,9.42,0,0,1-12.13-5.44ZM376.71,368a9.21,9.21,0,0,0,5.3-11.88l-3.06-8a47,47,0,0,1-9.28,4.8l-.26.1a46.86,46.86,0,0,1-10.12,2.6l3.06,8A9.21,9.21,0,0,0,374.22,369Z"/><path class="cls-1" d="M354.63,335.42A50.83,50.83,0,0,0,369,329.94a22.27,22.27,0,0,0-2.25-7.73l-15.56,5.94A22.23,22.23,0,0,0,354.63,335.42Z"/><path d="M351,328.09l15.73-6,0,.08a22.38,22.38,0,0,1,2.26,7.76V330l-.06,0a51.46,51.46,0,0,1-14.37,5.49h-.06l0,0a22.43,22.43,0,0,1-3.49-7.3Zm15.63-5.75-15.39,5.88a22.22,22.22,0,0,0,3.39,7.08,51.2,51.2,0,0,0,14.19-5.41A22.16,22.16,0,0,0,366.67,322.34Z"/><path class="cls-9" d="M351.16,328.15l15.56-5.94c-.08-.17-.18-.34-.27-.51L351,327.59Z"/><path class="cls-1" d="M366.45,321.7,365,317.79a19.93,19.93,0,0,0-15.44,5.89l1.49,3.91Z"/><path d="M356.57,319a18,18,0,0,1,8.4-1.28H365l1.55,4.05-15.63,6-1.54-4.06,0-.05A18.29,18.29,0,0,1,356.57,319Zm8.32-1.09a20,20,0,0,0-15.25,5.82l1.43,3.76,15.25-5.82Z"/><path class="cls-9" d="M359.23,355.56v.6a40.6,40.6,0,0,0,20.11-7.68L379,348A40.5,40.5,0,0,1,359.23,355.56Z"/><path class="cls-1" d="M378.69,348.16l-4.93-5.68L359.41,348l.11,7.52A39.38,39.38,0,0,0,378.69,348.16Z"/><path d="M359.31,347.89l14.48-5.53,5,5.82-.09.06a39.44,39.44,0,0,1-19.22,7.34h-.11Zm14.42-5.29L359.52,348l.1,7.35a39.26,39.26,0,0,0,18.92-7.22Z"/><path class="cls-8" d="M349.55,323.67l-.1,0a2.27,2.27,0,0,0-1.31,2.93l.06.16A5.52,5.52,0,0,1,349.55,323.67Z"/><path class="cls-8" d="M364.93,317.8l.1,0a2.29,2.29,0,0,1,2.94,1.32l.06.16A5.5,5.5,0,0,0,364.93,317.8Z"/><path class="cls-1" d="M354.54,351.38a.91.91,0,0,0,.44.7l2.3.84h.11l-.53-1.4-2.35-.34Z"/><path class="cls-8" d="M354.4,351.07l2.53.37.6,1.57-.12,0a.3.3,0,0,1-.16,0l-2.3-.83a1,1,0,0,1-.51-.79Zm2.39.55-2.16-.31v.05a.85.85,0,0,0,.38.63l2.21.8Z"/><path class="cls-1" d="M379.67,341.79a.9.9,0,0,1,.14.81l-1.16,2.16s0,.07-.07.08l-.54-1.39,1.52-1.82Z"/><path class="cls-8" d="M379.57,341.46l.18.27a1,1,0,0,1,.15.92l-1.16,2.16a.43.43,0,0,1-.11.12l-.1.06-.6-1.56Zm-1,3.17,1.12-2.07a.81.81,0,0,0-.13-.72l0,0-1.39,1.67Z"/><path class="cls-8" d="M365.88,358.72a18.69,18.69,0,0,0,4.24,6.93,20.79,20.79,0,0,1-3.53-6.23,25.92,25.92,0,0,1-1.11-3.66L365,356C365.23,356.84,365.52,357.77,365.88,358.72Z"/><path class="cls-8" d="M376.1,354.82a18.54,18.54,0,0,1,1.46,8,20.86,20.86,0,0,0-1.51-7,27.18,27.18,0,0,0-1.62-3.46l.49-.19A26.25,26.25,0,0,1,376.1,354.82Z"/><rect class="cls-1" x="356.52" y="332.24" width="15.35" height="13.42" transform="translate(825.3 525.77) rotate(159.11)"/><path d="M354.5,335.36,369,329.81l4.86,12.73-14.53,5.55Zm14.41-5.29-14.15,5.4,4.71,12.36,14.16-5.41Z"/><path class="cls-1" d="M437.84,282.37a43.41,43.41,0,0,1,10-3,8.17,8.17,0,0,1,8.88,5.92A353.48,353.48,0,0,0,467.28,320a7.82,7.82,0,0,1-3.86,9.4,44,44,0,0,1-10.65,3.24,7.82,7.82,0,0,1-8.44-5.65,357.2,357.2,0,0,0-10.56-34.78A8.17,8.17,0,0,1,437.84,282.37Z"/><path class="cls-8" d="M442.69,280.43a44.38,44.38,0,0,1,5.09-1.23,8.29,8.29,0,0,1,9,6A356.86,356.86,0,0,0,467.41,320a7.93,7.93,0,0,1-3.93,9.56,44.46,44.46,0,0,1-10.69,3.25A7.92,7.92,0,0,1,444.2,327a356.82,356.82,0,0,0-10.56-34.76,8.29,8.29,0,0,1,4.15-10h0A45.74,45.74,0,0,1,442.69,280.43Zm15.47,50.82a46.67,46.67,0,0,0,5.21-1.95,7.64,7.64,0,0,0,3.78-9.23,357.43,357.43,0,0,1-10.6-34.78,8,8,0,0,0-8.73-5.82,44.07,44.07,0,0,0-9.92,3,8,8,0,0,0-4,9.7A353.87,353.87,0,0,1,444.46,327a7.66,7.66,0,0,0,8.29,5.55A45.71,45.71,0,0,0,458.16,331.25Z"/><path class="cls-9" d="M436.86,289.79,452.75,285l-.24-.54-15.75,4.79C436.79,289.4,436.83,289.6,436.86,289.79Z"/><path class="cls-8" d="M437,296l.28.43a50,50,0,0,1,5.38,12.19c.16.52.31,1.05.46,1.59v0l-.68,6.4-.15-.45c-.43-1.3-.84-2.6-1.23-3.85a161,161,0,0,1-4-15.85Zm5.92,14.24c-.15-.52-.3-1-.46-1.56A50.13,50.13,0,0,0,437.38,297c1,5,2.28,10.13,3.86,15.3.33,1.11.7,2.25,1.08,3.41Z"/><path class="cls-8" d="M456.1,290.15l.2.47A158.37,158.37,0,0,1,461.83,306c.37,1.25.75,2.55,1.13,3.89l.12.45-4.15-5c-.18-.52-.34-1.06-.5-1.58a49.71,49.71,0,0,1-2.33-13.12Zm6.54,19.33c-.33-1.17-.67-2.33-1-3.43-1.57-5.17-3.36-10.17-5.31-14.86a50.09,50.09,0,0,0,2.3,12.53c.16.52.32,1,.49,1.56Z"/><path class="cls-1" d="M442.92,317.65l2.53,8.34a9.33,9.33,0,0,0,11.6,6.2l2.55-.78a9.32,9.32,0,0,0,6.18-11.6l-2.54-8.34a47.14,47.14,0,0,1-9.81,4.24A46.58,46.58,0,0,1,442.92,317.65Z"/><path d="M442.78,317.56h.13a46.14,46.14,0,0,0,10.49-1.94l.13,0a46.08,46.08,0,0,0,9.66-4.19l.11-.06,2.58,8.46a9.4,9.4,0,0,1-6.25,11.72l-2.55.78A9.4,9.4,0,0,1,445.36,326Zm16.79,13.75a9.2,9.2,0,0,0,6.11-11.48l-2.5-8.21a46.63,46.63,0,0,1-9.59,4.14l-.27.09a47.62,47.62,0,0,1-10.27,1.9l2.5,8.21A9.21,9.21,0,0,0,457,332.09Z"/><path class="cls-1" d="M439.8,297.28a51,51,0,0,0,14.68-4.47,22.24,22.24,0,0,0-1.71-7.87l-15.94,4.85A22.33,22.33,0,0,0,439.8,297.28Z"/><path d="M436.72,289.72l16.11-4.9,0,.08a22.45,22.45,0,0,1,1.71,7.9v.07l-.06,0a51.62,51.62,0,0,1-14.72,4.48h-.06l0-.06a22.4,22.4,0,0,1-3-7.52Zm16-4.66L437,289.86a22.42,22.42,0,0,0,2.9,7.31,51.36,51.36,0,0,0,14.53-4.43A22.66,22.66,0,0,0,452.72,285.06Z"/><path class="cls-9" d="M436.83,289.79l15.94-4.85c-.07-.18-.15-.36-.23-.54l-15.81,4.81C436.76,289.41,436.8,289.6,436.83,289.79Z"/><path class="cls-1" d="M452.54,284.4l-1.22-4a20.06,20.06,0,0,0-15.81,4.81l1.22,4Z"/><path d="M442.87,281a18.26,18.26,0,0,1,8.47-.7h.06l1.27,4.16-16,4.87-1.26-4.16,0,0A18.2,18.2,0,0,1,442.87,281Zm8.37-.51a19.9,19.9,0,0,0-15.61,4.75l1.17,3.85,15.61-4.75Z"/><path class="cls-9" d="M443,317.69l0,.59A40.37,40.37,0,0,0,463.55,312l-.36-.48A40.48,40.48,0,0,1,443,317.69Z"/><path class="cls-1" d="M462.92,311.65l-4.53-6-14.69,4.47-.41,7.52A39.37,39.37,0,0,0,462.92,311.65Z"/><path d="M443.61,310l14.82-4.51,4.63,6.15-.09.06a39.43,39.43,0,0,1-19.68,6h-.11Zm14.74-4.28-14.55,4.43-.4,7.33a39.23,39.23,0,0,0,19.37-5.89Z"/><path class="cls-8" d="M435.54,285.21l-.1,0a2.28,2.28,0,0,0-1.51,2.84l.05.16A5.48,5.48,0,0,1,435.54,285.21Z"/><path class="cls-8" d="M451.29,280.41l.11,0a2.28,2.28,0,0,1,2.83,1.52l0,.16A5.5,5.5,0,0,0,451.29,280.41Z"/><path class="cls-1" d="M438.61,313.19a.88.88,0,0,0,.39.73l2.24,1,.1,0-.43-1.43-2.32-.51Z"/><path class="cls-8" d="M438.48,312.87l2.51.55.49,1.6-.13,0-.15,0L439,314a1.06,1.06,0,0,1-.46-.82Zm2.35.72-2.13-.46v.05a.82.82,0,0,0,.33.65l2.15,1Z"/><path class="cls-1" d="M464.34,305.36a.9.9,0,0,1,.08.83l-1.31,2.07a.16.16,0,0,1-.07.07l-.44-1.42,1.64-1.72Z"/><path class="cls-8" d="M464.26,305l.17.28a1,1,0,0,1,.08.93l-1.31,2.07a.25.25,0,0,1-.12.11l-.1.06-.49-1.6Zm-1.18,3.1,1.26-2a.85.85,0,0,0-.09-.72l0-.05-1.5,1.57Z"/><path class="cls-8" d="M449.42,321.3a18.41,18.41,0,0,0,3.74,7.2,20.85,20.85,0,0,1-3.09-6.45,25,25,0,0,1-.85-3.73l-.5.15A25.35,25.35,0,0,0,449.42,321.3Z"/><path class="cls-8" d="M459.88,318.12a18.56,18.56,0,0,1,.9,8.07,20.79,20.79,0,0,0-1-7.09,25.55,25.55,0,0,0-1.37-3.57l.5-.15A26.53,26.53,0,0,1,459.88,318.12Z"/><rect class="cls-1" x="441.42" y="294.75" width="15.35" height="13.42" transform="translate(966.5 459.11) rotate(163.07)"/><path d="M439.67,297.21l14.88-4.53,4,13-14.88,4.53Zm14.75-4.28-14.5,4.41L443.77,310l14.5-4.41Z"/><path class="cls-1" d="M469.41,273.76a44.42,44.42,0,0,1,10-3,8.18,8.18,0,0,1,8.88,5.92,357.24,357.24,0,0,0,10.6,34.77,7.8,7.8,0,0,1-3.86,9.39,44,44,0,0,1-10.65,3.24,7.82,7.82,0,0,1-8.44-5.65,354.27,354.27,0,0,0-10.56-34.77A8.19,8.19,0,0,1,469.41,273.76Z"/><path class="cls-8" d="M474.27,271.82a43.68,43.68,0,0,1,5.08-1.22,8.27,8.27,0,0,1,9,6A356.86,356.86,0,0,0,499,311.37a7.92,7.92,0,0,1-3.93,9.56,44.94,44.94,0,0,1-10.69,3.26,7.94,7.94,0,0,1-8.59-5.76,354.08,354.08,0,0,0-10.56-34.76,8.27,8.27,0,0,1,4.15-10h0A45.18,45.18,0,0,1,474.27,271.82Zm15.46,50.82a44.11,44.11,0,0,0,5.21-1.95,7.66,7.66,0,0,0,3.79-9.23,358.14,358.14,0,0,1-10.61-34.77,8,8,0,0,0-8.72-5.83,44,44,0,0,0-9.93,3,8,8,0,0,0-4,9.7A357.39,357.39,0,0,1,476,318.37a7.66,7.66,0,0,0,8.29,5.55A43.4,43.4,0,0,0,489.73,322.64Z"/><path class="cls-9" d="M468.44,281.18l15.88-4.83-.23-.54-15.76,4.8C468.36,280.8,468.4,281,468.44,281.18Z"/><path class="cls-8" d="M468.55,287.36l.28.43A49.29,49.29,0,0,1,474.21,300c.16.52.31,1.06.46,1.59v0L474,308l-.15-.44c-.43-1.31-.84-2.61-1.22-3.86a158.78,158.78,0,0,1-4-15.84Zm5.92,14.25c-.15-.53-.3-1.06-.45-1.57A50.55,50.55,0,0,0,469,288.35c1,5,2.29,10.13,3.86,15.3.34,1.11.7,2.26,1.08,3.41Z"/><path class="cls-8" d="M487.67,281.54l.2.48a158.37,158.37,0,0,1,5.53,15.37c.38,1.24.76,2.55,1.13,3.88l.12.45-4.15-5c-.17-.52-.34-1.05-.5-1.57a49.25,49.25,0,0,1-2.32-13.12Zm6.54,19.34c-.33-1.18-.67-2.33-1-3.44-1.57-5.17-3.36-10.16-5.31-14.85a50.17,50.17,0,0,0,2.3,12.53c.16.51.32,1,.5,1.55Z"/><path class="cls-1" d="M474.49,309.05l2.54,8.33a9.31,9.31,0,0,0,11.59,6.2l2.55-.78a9.32,9.32,0,0,0,6.18-11.6l-2.53-8.34a47.81,47.81,0,0,1-20.33,6.19Z"/><path d="M474.36,309h.12A46.59,46.59,0,0,0,485,307l.14-.05a46.53,46.53,0,0,0,9.66-4.19l.11-.06,2.57,8.46a9.41,9.41,0,0,1-6.25,11.73l-2.55.77a9.4,9.4,0,0,1-11.72-6.26Zm16.78,13.75a9.22,9.22,0,0,0,6.12-11.48l-2.5-8.22a47,47,0,0,1-9.6,4.15l-.26.08a47.22,47.22,0,0,1-10.28,1.9l2.5,8.21a9.2,9.2,0,0,0,11.47,6.13Z"/><path class="cls-1" d="M471.37,288.67a51.1,51.1,0,0,0,14.69-4.47,22.69,22.69,0,0,0-1.71-7.87l-15.94,4.85A22.23,22.23,0,0,0,471.37,288.67Z"/><path d="M468.29,281.11l16.11-4.9,0,.08a22.47,22.47,0,0,1,1.72,7.91v.06l-.06,0a51.62,51.62,0,0,1-14.72,4.48h-.06l0-.06a22.61,22.61,0,0,1-3-7.52Zm16-4.65-15.77,4.79a22.42,22.42,0,0,0,2.9,7.31A51.34,51.34,0,0,0,486,284.14,22.09,22.09,0,0,0,484.29,276.46Z"/><path class="cls-9" d="M468.41,281.18l15.94-4.85-.24-.53-15.81,4.81C468.33,280.8,468.37,281,468.41,281.18Z"/><path class="cls-1" d="M484.11,275.8l-1.22-4a20,20,0,0,0-15.81,4.82l1.22,4Z"/><path d="M474.44,272.39a18.11,18.11,0,0,1,8.47-.69H483l1.27,4.15-16,4.87L467,276.58l0,0A18.1,18.1,0,0,1,474.44,272.39Zm8.38-.51a20,20,0,0,0-15.62,4.75l1.17,3.85L484,275.73Z"/><path class="cls-9" d="M474.57,309.08l0,.6a40.45,40.45,0,0,0,20.59-6.27l-.36-.48A40.42,40.42,0,0,1,474.57,309.08Z"/><path class="cls-1" d="M494.49,303.05,490,297l-14.68,4.47-.42,7.51A39.36,39.36,0,0,0,494.49,303.05Z"/><path d="M475.18,301.43,490,296.92l4.64,6.15-.1.06a39.42,39.42,0,0,1-19.67,6h-.11Zm14.74-4.28-14.55,4.43-.4,7.34a39.21,39.21,0,0,0,19.37-5.9Z"/><path class="cls-8" d="M467.11,276.6l-.1,0a2.29,2.29,0,0,0-1.51,2.84l.05.16A5.51,5.51,0,0,1,467.11,276.6Z"/><path class="cls-8" d="M482.87,271.81l.1,0a2.26,2.26,0,0,1,2.83,1.51l.05.16A5.49,5.49,0,0,0,482.87,271.81Z"/><path class="cls-1" d="M470.18,304.58a.92.92,0,0,0,.39.74l2.24,1a.22.22,0,0,0,.11,0l-.44-1.43-2.31-.51Z"/><path class="cls-8" d="M470.06,304.27l2.5.54.49,1.61h-.12a.41.41,0,0,1-.16,0l-2.24-1a1,1,0,0,1-.45-.82Zm2.34.72-2.13-.47v.06a.82.82,0,0,0,.33.64l2.15,1Z"/><path class="cls-1" d="M495.91,296.75a.9.9,0,0,1,.08.83l-1.3,2.07a.3.3,0,0,1-.08.08l-.44-1.43,1.64-1.71Z"/><path class="cls-8" d="M495.83,296.42l.17.28a1,1,0,0,1,.08.93l-1.31,2.07a.43.43,0,0,1-.11.12l-.11.05-.49-1.6Zm-1.18,3.1,1.26-2a.84.84,0,0,0-.09-.73l0-.05-1.5,1.58Z"/><path class="cls-8" d="M481,312.69a18.4,18.4,0,0,0,3.75,7.21,20.8,20.8,0,0,1-3.1-6.46,26,26,0,0,1-.85-3.73l-.5.16A25.75,25.75,0,0,0,481,312.69Z"/><path class="cls-8" d="M491.45,309.51a18.57,18.57,0,0,1,.9,8.07,20.92,20.92,0,0,0-1-7.08,25.82,25.82,0,0,0-1.38-3.57l.5-.16A26.53,26.53,0,0,1,491.45,309.51Z"/><rect class="cls-1" x="472.99" y="286.14" width="15.35" height="13.42" transform="translate(1025.77 433.08) rotate(163.07)"/><path d="M471.24,288.6l14.88-4.53,4,13-14.88,4.53ZM486,284.32l-14.5,4.41,3.85,12.65,14.5-4.41Z"/><path class="cls-1" d="M523.33,264.49a44.56,44.56,0,0,1,10.37-.88,8.18,8.18,0,0,1,7.45,7.65,357,357,0,0,0,3.1,36.21,7.81,7.81,0,0,1-5.73,8.38,44.5,44.5,0,0,1-11.1.95,7.82,7.82,0,0,1-7.07-7.29,354,354,0,0,0-3.06-36.22A8.18,8.18,0,0,1,523.33,264.49Z"/><path class="cls-8" d="M528.48,263.61a45.61,45.61,0,0,1,5.23-.13,8.26,8.26,0,0,1,7.57,7.78,356.62,356.62,0,0,0,3.11,36.19,7.93,7.93,0,0,1-5.84,8.53,44.77,44.77,0,0,1-11.13.95,7.93,7.93,0,0,1-7.2-7.42,356.74,356.74,0,0,0-3.07-36.2,8.28,8.28,0,0,1,6.15-8.95h0A45.19,45.19,0,0,1,528.48,263.61ZM533,316.54a44.49,44.49,0,0,0,5.5-.82,7.65,7.65,0,0,0,5.63-8.23,354.52,354.52,0,0,1-3.1-36.23,8,8,0,0,0-7.32-7.52,44.8,44.8,0,0,0-10.34.88,8,8,0,0,0-5.94,8.65,360.24,360.24,0,0,1,3.07,36.23,7.64,7.64,0,0,0,6.94,7.16A43,43,0,0,0,533,316.54Z"/><path class="cls-9" d="M520.82,271.55l16.55-1.41-.12-.57L520.84,271C520.83,271.16,520.83,271.35,520.82,271.55Z"/><path class="cls-8" d="M519.64,277.61l.19.48a49.31,49.31,0,0,1,2.71,13.05c.05.54.09,1.1.12,1.65v0l-2,6.11,0-.46c-.15-1.37-.28-2.72-.39-4a159.39,159.39,0,0,1-.58-16.32Zm2.82,15.17c0-.54-.07-1.09-.12-1.62a50.62,50.62,0,0,0-2.51-12.5,157,157,0,0,0,.58,15.77c.1,1.16.21,2.36.34,3.57Z"/><path class="cls-8" d="M539.56,275.92l.09.5a158.43,158.43,0,0,1,2.2,16.19c.11,1.29.21,2.65.29,4l0,.46-3-5.72c-.06-.55-.12-1.11-.16-1.65a49,49,0,0,1,.47-13.32Zm2.35,20.27c-.07-1.22-.16-2.42-.26-3.56a157.59,157.59,0,0,0-2.1-15.65,50.91,50.91,0,0,0-.36,12.74c0,.54.1,1.08.16,1.62Z"/><path class="cls-1" d="M520.92,300.06l.74,8.69a9.34,9.34,0,0,0,10.05,8.48l2.66-.23a9.31,9.31,0,0,0,8.46-10.06l-.74-8.68a47.45,47.45,0,0,1-21.17,1.8Z"/><path d="M520.81,300h.13a45.91,45.91,0,0,0,10.66.3l.14,0a46.1,46.1,0,0,0,10.32-2.08l.12,0,.75,8.8a9.41,9.41,0,0,1-8.55,10.17l-2.66.23a9.41,9.41,0,0,1-10.16-8.57Zm13.55,16.95a9.2,9.2,0,0,0,8.37-9.95l-.73-8.56a47.21,47.21,0,0,1-10.24,2.06l-.28,0a46.93,46.93,0,0,1-10.45-.29l.73,8.56a9.21,9.21,0,0,0,9.94,8.39Z"/><path class="cls-1" d="M522.13,279.48a51.08,51.08,0,0,0,15.29-1.3,22.45,22.45,0,0,0,0-8.05l-16.61,1.41A22.43,22.43,0,0,0,522.13,279.48Z"/><path d="M520.7,271.45,537.48,270v.09a22.44,22.44,0,0,1,0,8.09v.06l-.06,0a51.34,51.34,0,0,1-15.33,1.3h-.07l0-.06a22.68,22.68,0,0,1-1.34-8Zm16.61-1.21-16.42,1.4a22.31,22.31,0,0,0,1.31,7.75,51.4,51.4,0,0,0,15.14-1.29A22.31,22.31,0,0,0,537.31,270.24Z"/><path class="cls-9" d="M520.79,271.54l16.61-1.41-.12-.57L520.81,271C520.8,271.15,520.8,271.35,520.79,271.54Z"/><path class="cls-1" d="M537.28,269.56l-.36-4.17a20,20,0,0,0-16.46,1.4l.35,4.17Z"/><path d="M528.53,264.21A18.14,18.14,0,0,1,537,265.3l.06,0,.37,4.33-16.67,1.42-.37-4.33,0,0A18.22,18.22,0,0,1,528.53,264.21Zm8.3,1.25a20,20,0,0,0-16.27,1.38l.34,4,16.27-1.39Z"/><path class="cls-9" d="M521,300.11l-.16.58a40.47,40.47,0,0,0,21.44-1.83l-.25-.54A40.37,40.37,0,0,1,521,300.11Z"/><path class="cls-1" d="M541.74,298.37l-3.18-6.82-15.29,1.3-2,7.26A39.33,39.33,0,0,0,541.74,298.37Z"/><path d="M523.19,292.76l15.44-1.32,3.24,7-.1,0a39.38,39.38,0,0,1-20.49,1.74l-.11,0Zm15.31-1.1L523.35,293,521.42,300a39.15,39.15,0,0,0,20.18-1.71Z"/><path class="cls-8" d="M520.49,266.79h-.11a2.28,2.28,0,0,0-2.07,2.46l0,.17A5.45,5.45,0,0,1,520.49,266.79Z"/><path class="cls-8" d="M536.89,265.4H537a2.28,2.28,0,0,1,2.46,2.07v.17A5.43,5.43,0,0,0,536.89,265.4Z"/><path class="cls-1" d="M517.64,294.8a.93.93,0,0,0,.23.8l2,1.43a.24.24,0,0,0,.1.05l-.13-1.49-2.15-1Z"/><path class="cls-8" d="M517.59,294.46l2.33,1.06.14,1.67h-.12a.47.47,0,0,1-.15-.06l-2-1.44a1,1,0,0,1-.27-.9Zm2.14,1.2-2-.9v.05a.79.79,0,0,0,.19.7l1.91,1.39Z"/><path class="cls-1" d="M544.44,292.52a.9.9,0,0,1-.09.82l-1.71,1.75a.21.21,0,0,1-.1.06l-.12-1.49,2-1.33Z"/><path class="cls-8" d="M544.43,292.18l.11.3a1,1,0,0,1-.12.93l-1.71,1.75a.31.31,0,0,1-.14.09l-.12,0-.14-1.67Zm-1.8,2.78,1.65-1.69a.83.83,0,0,0,.06-.72v-.06l-1.81,1.22Z"/><path class="cls-8" d="M526.52,305a18.33,18.33,0,0,0,2.16,7.82,20.86,20.86,0,0,1-1.68-6.95,24.74,24.74,0,0,1,0-3.83l-.53.05A26.45,26.45,0,0,0,526.52,305Z"/><path class="cls-8" d="M537.41,304.06a18.39,18.39,0,0,1-.8,8.08,21.12,21.12,0,0,0,.48-7.14,27.2,27.2,0,0,0-.6-3.78l.52-.05A25.17,25.17,0,0,1,537.41,304.06Z"/><rect class="cls-1" x="522.67" y="278.8" width="15.35" height="13.42" transform="translate(1083.01 524.99) rotate(175.13)"/><path d="M522,279.39l15.5-1.32,1.15,13.57L523.17,293Zm15.31-1.1-15.09,1.28,1.12,13.18,15.09-1.29Z"/><path class="cls-1" d="M556,262.67a44.11,44.11,0,0,1,10.38-.88,8.17,8.17,0,0,1,7.44,7.65,354.15,354.15,0,0,0,3.11,36.21,7.82,7.82,0,0,1-5.74,8.38,44,44,0,0,1-11.1.94,7.8,7.8,0,0,1-7.06-7.29A356.94,356.94,0,0,0,550,271.47,8.18,8.18,0,0,1,556,262.67Z"/><path class="cls-8" d="M561.15,261.79a45.67,45.67,0,0,1,5.23-.14,8.29,8.29,0,0,1,7.58,7.78,356.8,356.8,0,0,0,3.1,36.2,7.93,7.93,0,0,1-5.84,8.53,44.73,44.73,0,0,1-11.13.95,7.93,7.93,0,0,1-7.2-7.42,356.48,356.48,0,0,0-3.06-36.2,8.27,8.27,0,0,1,6.15-8.95h0A45.34,45.34,0,0,1,561.15,261.79Zm4.51,52.93a44.21,44.21,0,0,0,5.5-.82,7.65,7.65,0,0,0,5.63-8.23,357.38,357.38,0,0,1-3.1-36.23,8,8,0,0,0-7.32-7.52,44.9,44.9,0,0,0-10.34.88,8,8,0,0,0-5.94,8.65,357.33,357.33,0,0,1,3.07,36.23,7.65,7.65,0,0,0,6.94,7.16A44.83,44.83,0,0,0,565.66,314.72Z"/><path class="cls-9" d="M553.5,269.73,570,268.32l-.12-.58-16.4,1.4C553.51,269.34,553.5,269.53,553.5,269.73Z"/><path class="cls-8" d="M552.32,275.79l.18.48a49.68,49.68,0,0,1,2.72,13.05c0,.54.08,1.1.11,1.65v0l-2,6.11-.05-.46c-.15-1.37-.28-2.72-.39-4a156.53,156.53,0,0,1-.57-16.32ZM555.13,291c0-.54-.07-1.09-.12-1.63a50.63,50.63,0,0,0-2.51-12.49c-.07,5.09.12,10.39.58,15.77.1,1.16.21,2.35.34,3.56Z"/><path class="cls-8" d="M572.23,274.1l.1.5a158.46,158.46,0,0,1,2.19,16.19c.11,1.29.21,2.65.3,4l0,.47-3-5.73c-.06-.55-.11-1.1-.16-1.64a49.43,49.43,0,0,1,.47-13.32Zm2.36,20.27c-.08-1.22-.17-2.42-.27-3.57-.46-5.38-1.16-10.64-2.09-15.64a50.38,50.38,0,0,0-.37,12.74c0,.53.1,1.08.16,1.62Z"/><path class="cls-1" d="M553.6,298.24l.74,8.68a9.31,9.31,0,0,0,10,8.48l2.66-.22a9.33,9.33,0,0,0,8.47-10.06l-.74-8.68a47.86,47.86,0,0,1-21.17,1.8Z"/><path d="M553.48,298.12l.13,0a45.36,45.36,0,0,0,10.66.29h.14a46.18,46.18,0,0,0,10.33-2.08l.12,0,.75,8.81a9.41,9.41,0,0,1-8.56,10.17l-2.66.22a9.4,9.4,0,0,1-10.15-8.57Zm13.55,17a9.21,9.21,0,0,0,8.38-9.95l-.73-8.56a46.69,46.69,0,0,1-10.25,2.05l-.28,0a47.43,47.43,0,0,1-10.44-.29l.73,8.56a9.2,9.2,0,0,0,9.93,8.38Z"/><path class="cls-1" d="M554.8,277.66a51.14,51.14,0,0,0,15.3-1.3,22.22,22.22,0,0,0,0-8.05l-16.6,1.41A22.2,22.2,0,0,0,554.8,277.66Z"/><path d="M553.37,269.63l16.78-1.43,0,.09a22.44,22.44,0,0,1,0,8.09v.06l-.07,0a51.34,51.34,0,0,1-15.33,1.3h-.06l0-.07a22.15,22.15,0,0,1-1.34-8ZM570,268.42l-16.42,1.39a22.49,22.49,0,0,0,1.3,7.75A51.06,51.06,0,0,0,570,276.28,22.31,22.31,0,0,0,570,268.42Z"/><path class="cls-9" d="M553.47,269.72l16.6-1.41-.12-.58-16.46,1.41C553.48,269.33,553.47,269.53,553.47,269.72Z"/><path class="cls-1" d="M570,267.73l-.35-4.16a20,20,0,0,0-16.47,1.4l.36,4.17Z"/><path d="M561.2,262.39a18.19,18.19,0,0,1,8.44,1.08l.05,0,.37,4.33-16.67,1.42-.36-4.33.05,0A18.14,18.14,0,0,1,561.2,262.39Zm8.3,1.25A19.93,19.93,0,0,0,553.24,265l.34,4,16.26-1.39Z"/><path class="cls-9" d="M553.67,298.29l-.16.58A40.5,40.5,0,0,0,575,297l-.26-.54A40.57,40.57,0,0,1,553.67,298.29Z"/><path class="cls-1" d="M574.41,296.55l-3.17-6.82-15.3,1.3-2,7.26A39.3,39.3,0,0,0,574.41,296.55Z"/><path d="M555.86,290.94l15.44-1.32,3.25,7-.11,0A39.48,39.48,0,0,1,554,298.39l-.11,0Zm15.32-1.1L556,291.13l-1.93,7.08a39.14,39.14,0,0,0,20.18-1.72Z"/><path class="cls-8" d="M553.16,265h-.1a2.29,2.29,0,0,0-2.08,2.46l0,.17A5.51,5.51,0,0,1,553.16,265Z"/><path class="cls-8" d="M569.57,263.57h.1a2.29,2.29,0,0,1,2.46,2.08v.16A5.52,5.52,0,0,0,569.57,263.57Z"/><path class="cls-1" d="M550.31,293a.92.92,0,0,0,.23.79l2,1.44a.16.16,0,0,0,.1,0l-.12-1.48-2.16-1Z"/><path class="cls-8" d="M550.26,292.64l2.33,1.06.15,1.67-.13,0a.24.24,0,0,1-.15-.06l-2-1.43a1,1,0,0,1-.27-.9Zm2.14,1.19-2-.9V293a.86.86,0,0,0,.19.7l1.91,1.39Z"/><path class="cls-1" d="M577.11,290.69a.92.92,0,0,1-.09.83l-1.71,1.75a.24.24,0,0,1-.09.06l-.13-1.49,2-1.33Z"/><path class="cls-8" d="M577.11,290.35l.1.31a1,1,0,0,1-.12.93l-1.71,1.75a.38.38,0,0,1-.13.09l-.12,0-.14-1.67Zm-1.81,2.79,1.65-1.69a.85.85,0,0,0,.07-.73l0-.05-1.8,1.22Z"/><path class="cls-8" d="M559.19,303.16a18.42,18.42,0,0,0,2.16,7.83,20.86,20.86,0,0,1-1.68-6.95,26.07,26.07,0,0,1,0-3.83l-.52,0A24.06,24.06,0,0,0,559.19,303.16Z"/><path class="cls-8" d="M570.09,302.24a18.52,18.52,0,0,1-.81,8.08,20.91,20.91,0,0,0,.48-7.14,25.58,25.58,0,0,0-.6-3.78l.52,0A27.54,27.54,0,0,1,570.09,302.24Z"/><rect class="cls-1" x="555.34" y="276.98" width="15.35" height="13.42" transform="translate(1148.08 518.58) rotate(175.13)"/><path d="M554.69,277.57l15.5-1.32,1.16,13.57-15.5,1.32ZM570,276.46l-15.1,1.29L556,290.92l15.1-1.28Z"/><path class="cls-10" d="M601.21,390.77l9-1-.27-2.58,1.28-.13.28,2.58,3.28-.35.15,1.46-3.28.35.73,6.86-1.27.13-9.71-5.53Zm4.37,1c-.77.08-2.07.18-2.89.22v.07a16.78,16.78,0,0,1,2.25,1l6,3.37-.55-5.16Z"/><path class="cls-10" d="M611.79,383.84l2.38-.25.25,2.38-2.38.25Z"/><path class="cls-10" d="M601.9,382.37a19.88,19.88,0,0,1,1.34,3.12L602,386a13.12,13.12,0,0,0-1.91-3.87L600,381l13.74-1.46.16,1.55Z"/><path class="cls-10" d="M605.28,373.58c-.26-2.38-1.26-3.6-2.83-3.44-1.38.15-2.12,1.35-1.93,3.15a4.08,4.08,0,0,0,1.79,3.11l-.83,1.08a5.79,5.79,0,0,1-2.28-4.08c-.29-2.68.93-4.7,3-4.91,1.68-.18,3,.93,3.43,2.95h.07c-.09-2.43,1.06-4,3.1-4.18,2.38-.25,4.11,1.55,4.44,4.68a6.07,6.07,0,0,1-1.38,4.94l-1.09-.88a5.1,5.1,0,0,0,1.11-3.9c-.23-2.13-1.36-3.31-3-3.13-1.87.2-2.59,1.62-2.28,4.52l.11,1.08-1.27.13Z"/><path class="cls-10" d="M604.44,356.18c4.33-.46,7.2,1.17,7.52,4.25s-2.15,5.28-6.46,5.74S598.31,365,598,361.9,600.13,356.64,604.44,356.18Zm.89,8.36c3.49-.37,5.52-1.88,5.3-4s-2.52-3.12-6-2.75-5.54,1.89-5.31,4S601.83,364.91,605.33,364.54Z"/><path d="M601.21,390.77l9-1-.27-2.58,1.28-.13.28,2.58,3.28-.35.15,1.46-3.28.35.73,6.86-1.27.13-9.71-5.53Zm4.37,1c-.77.08-2.07.18-2.89.22v.07a16.78,16.78,0,0,1,2.25,1l6,3.37-.55-5.16Z"/><path d="M611.79,383.84l2.38-.25.25,2.38-2.38.25Z"/><path d="M601.9,382.37a19.88,19.88,0,0,1,1.34,3.12L602,386a13.12,13.12,0,0,0-1.91-3.87L600,381l13.74-1.46.16,1.55Z"/><path d="M605.28,373.58c-.26-2.38-1.26-3.6-2.83-3.44-1.38.15-2.12,1.35-1.93,3.15a4.08,4.08,0,0,0,1.79,3.11l-.83,1.08a5.79,5.79,0,0,1-2.28-4.08c-.29-2.68.93-4.7,3-4.91,1.68-.18,3,.93,3.43,2.95h.07c-.09-2.43,1.06-4,3.1-4.18,2.38-.25,4.11,1.55,4.44,4.68a6.07,6.07,0,0,1-1.38,4.94l-1.09-.88a5.1,5.1,0,0,0,1.11-3.9c-.23-2.13-1.36-3.31-3-3.13-1.87.2-2.59,1.62-2.28,4.52l.11,1.08-1.27.13Z"/><path d="M604.44,356.18c4.33-.46,7.2,1.17,7.52,4.25s-2.15,5.28-6.46,5.74S598.31,365,598,361.9,600.13,356.64,604.44,356.18Zm.89,8.36c3.49-.37,5.52-1.88,5.3-4s-2.52-3.12-6-2.75-5.54,1.89-5.31,4S601.83,364.91,605.33,364.54Z"/><path d="M203.35,112.32c.79-3.26,3.47-6.53,7.59-9.27l.8-.52c4.27-2.78,5.39-4.12,5.39-6.35,0-2.5-2.07-4.17-5.21-4.17-2.56,0-4.36.94-6.32,3.26l-1.92-1.62A9.84,9.84,0,0,1,212,89.56c4.76,0,8.24,2.81,8.24,6.69,0,3.08-1.19,4.51-6.65,8l-1.1.7c-3.63,2.38-5.92,5-6.19,7.2h14.3v2.59H203.35Z"/><path d="M235.65,102.74a30.55,30.55,0,0,1-1,3h17.14a29.2,29.2,0,0,1-1.61,8.73c-.77,1.7-1.74,2.19-4.49,2.19-1.61,0-3.78-.09-5.27-.21l-.55-2.32c2.1.18,4.14.31,5.61.31s2-.25,2.41-1.23a29.14,29.14,0,0,0,1.16-5.39H233.82c-.4.85-.83,1.73-1.28,2.59l-2.47-.7a42.07,42.07,0,0,0,3-7h-6.8v-2.07h29v2.07Zm15.06-4.85H230.8V89.23h19.91Zm-17.44-2h15v-4.7h-15Z"/><path d="M263.13,101.74a36.54,36.54,0,0,1-3.69,8.26l-1.13-2.44a34.32,34.32,0,0,0,4.6-11h-4.18V94.42h4.4V87.89h2.25v6.53h3.18v2.13h-3.18v2.84a34.76,34.76,0,0,1,3.76,3.57l-1.29,2a32.55,32.55,0,0,0-2.47-3.14v15h-2.25Zm17,4.24a22.83,22.83,0,0,0,7.77,6.89L286.49,115a25,25,0,0,1-7.87-7.8v9.66h-2.16v-9.48a23.65,23.65,0,0,1-7.84,8.05l-1.53-1.86a21.64,21.64,0,0,0,8-7.59h-5.64V95.12h7V92.86h-8.61v-2h8.61v-3h2.16v3h8.79v2h-8.79v2.26h7.23V106Zm-8.54-9v2.59h4.85V97Zm0,4.45v2.65h4.85v-2.65Zm7-1.86h5.1V97h-5.1Zm0,4.51h5.1v-2.65h-5.1Z"/><path d="M282.94,198.39a36.47,36.47,0,0,1-4.95,3.73l-1.41-1.92a24.12,24.12,0,0,0,6-5.06l1.92-.7,8.57,23.66-2.67,1Z"/><path d="M293,239.38c.08,1.13.09,2.23.07,3.15l16.12-5.83a29.13,29.13,0,0,1,1.44,8.75c-.13,1.86-.88,2.66-3.47,3.59-1.52.55-3.58,1.2-5,1.6l-1.3-2c2-.54,4-1.12,5.38-1.62s1.78-.9,1.85-2a28.76,28.76,0,0,0-.75-5.47L293,244.76c-.08.94-.18,1.91-.32,2.87l-2.57.18a41.67,41.67,0,0,0,.48-7.56l-6.4,2.31-.71-1.95,27.25-9.86.71,1.95Zm12.51-9.69-18.72,6.77-2.95-8.14,18.73-6.78Zm-17.07,4.1,14.09-5.1-1.6-4.41-14.08,5.09Z"/><path d="M299.06,270.48a36.62,36.62,0,0,1-.65,9l-1.9-1.91a34.36,34.36,0,0,0,.59-11.92l-3.93,1.42-.73-2,4.13-1.49-2.22-6.14,2.12-.77,2.23,6.14,3-1.08.72,2-3,1.08,1,2.66a36.62,36.62,0,0,1,4.74,2.08l-.51,2.36a33.66,33.66,0,0,0-3.39-2.11l5.1,14.11-2.12.77Zm17.45-1.8a22.84,22.84,0,0,0,9.66,3.83l-.62,2.5a25.06,25.06,0,0,1-10.06-4.67l3.29,9.09-2,.74-3.23-8.92a23.6,23.6,0,0,1-4.63,10.24l-2.07-1.23a21.72,21.72,0,0,0,4.93-9.86l-5.31,1.92-3.69-10.21,6.6-2.39-.77-2.12-8.09,2.92-.68-1.86,8.09-2.93-1-2.81,2-.73,1,2.81,8.26-3,.67,1.86-8.26,3,.77,2.12,6.8-2.46,3.69,10.21Zm-11.09-5.56.88,2.44,4.56-1.65-.88-2.44Zm1.51,4.19.91,2.49,4.56-1.65-.91-2.49Zm6-4.14,4.79-1.73L316.8,259,312,260.73Zm1.53,4.25,4.79-1.74-.9-2.49-4.79,1.73Z"/><path d="M406.4,92.18c4.24-1,6.23-3.08,5.58-5.87-.57-2.46-2.92-3.55-6.13-2.8a7.5,7.5,0,0,0-5.22,3.94l-2.14-1.26a10.62,10.62,0,0,1,6.87-5c4.79-1.11,8.7.64,9.54,4.26.7,3-1,5.56-4.57,6.86l0,.12c4.38-.71,7.41,1,8.26,4.68,1,4.25-1.89,7.77-7.47,9.07-3.63.85-6.61.41-9.25-1.39l1.34-2.16a9.32,9.32,0,0,0,7.31,1.12c3.8-.88,5.68-3.2,5-6.14-.77-3.33-3.51-4.32-8.68-3.11l-1.93.45-.52-2.26Z"/><path d="M411.2,126.12a29.53,29.53,0,0,1-.31,3.14l16.7-3.88a29.37,29.37,0,0,1,.4,8.86c-.35,1.84-1.19,2.53-3.87,3.16-1.57.36-3.7.76-5.18,1l-1.07-2.13c2.1-.3,4.11-.64,5.54-1s1.88-.69,2.07-1.74a29.11,29.11,0,0,0-.09-5.52l-14.83,3.45c-.19.92-.41,1.88-.66,2.82l-2.56-.13a41.93,41.93,0,0,0,1.36-7.46l-6.62,1.55-.47-2,28.22-6.57.47,2ZM424.77,118l-19.4,4.52-2-8.44,19.4-4.51ZM407.34,120l14.58-3.4-1.06-4.57-14.59,3.39Z"/><path d="M413.57,157.73a35.69,35.69,0,0,1-1.72,8.89l-1.65-2.12a34.4,34.4,0,0,0,2-11.77l-4.07,1-.48-2.08,4.27-1-1.48-6.36,2.2-.51,1.48,6.36,3.09-.72.49,2.08-3.09.72.64,2.76a34.91,34.91,0,0,1,4.46,2.63l-.78,2.28a32.59,32.59,0,0,0-3.12-2.5L419.2,172l-2.2.52Zm17.54.27a22.81,22.81,0,0,0,9.14,4.95l-.91,2.41a25.12,25.12,0,0,1-9.44-5.82l2.19,9.41-2.1.49-2.15-9.23a23.62,23.62,0,0,1-5.81,9.61l-1.91-1.46a21.77,21.77,0,0,0,6.06-9.21l-5.5,1.28-2.46-10.58,6.84-1.59-.52-2.2L416.17,148l-.45-1.93,8.37-2-.67-2.91,2.11-.49.67,2.91,8.56-2,.45,1.93-8.56,2,.51,2.2,7-1.64,2.46,10.58Zm-10.36-6.83.59,2.53,4.73-1.1-.59-2.53Zm1,4.34.6,2.59,4.73-1.1-.6-2.59Zm6.41-3.4,5-1.16-.59-2.52-5,1.15Zm1,4.4,5-1.16-.6-2.58-5,1.15Z"/><path d="M535.7,77.52V94h4.73v2.35H535.7v6H533v-6H520.45V94.05l11.9-16.53ZM533,85.24c0-1.41.06-3.79.15-5.28h-.12a33.76,33.76,0,0,1-2.23,3.87L523.56,94H533Z"/><path d="M525.76,122.34a31.49,31.49,0,0,1-1,3h17.14a29.12,29.12,0,0,1-1.61,8.72c-.77,1.71-1.74,2.2-4.49,2.2-1.61,0-3.78-.09-5.27-.22l-.55-2.31c2.1.18,4.15.3,5.61.3s2-.24,2.41-1.22a28.29,28.29,0,0,0,1.16-5.4H523.93c-.4.86-.83,1.74-1.28,2.6l-2.47-.71a42.77,42.77,0,0,0,3-6.95h-6.81v-2.07h29v2.07Zm15.07-4.85H520.91v-8.66h19.92Zm-17.45-1.95h15v-4.7h-15Z"/><path d="M520.91,153.66a36.62,36.62,0,0,1-3.69,8.27l-1.13-2.44a34.32,34.32,0,0,0,4.6-11h-4.17v-2.14h4.39v-6.53h2.26v6.53h3.17v2.14h-3.17v2.83a35.58,35.58,0,0,1,3.75,3.57l-1.28,2.05a34.59,34.59,0,0,0-2.47-3.15v15h-2.26Zm17,4.24a22.69,22.69,0,0,0,7.78,6.9l-1.44,2.13a25,25,0,0,1-7.87-7.81v9.67h-2.16v-9.48a23.65,23.65,0,0,1-7.84,8.05l-1.53-1.86a21.69,21.69,0,0,0,8-7.6h-5.65V147h7v-2.25h-8.6v-2h8.6v-3h2.16v3h8.79v2H536.4V147h7.23V157.9Zm-8.54-9v2.6h4.85v-2.6Zm0,4.46V156h4.85v-2.65Zm7-1.86h5.1v-2.6h-5.1Zm0,4.51h5.1v-2.65h-5.1Z"/><circle class="cls-11" cx="289.64" cy="243.23" r="49.88"/><path class="cls-12" d="M265.81,228.86a82.93,82.93,0,0,0-12-8.78l3.13-4.2a64.92,64.92,0,0,1,12,8.42Zm.83,18.18a72.82,72.82,0,0,0-12.21-8.81l3.09-4.41a71.71,71.71,0,0,1,12.36,8.42Zm-4,30.06c3.22-6.15,6.17-15.05,8.29-25.37l4.89,2.58a116.79,116.79,0,0,1-7.94,26.09Zm47.86-59.37A45.33,45.33,0,0,1,301,230.49a102.47,102.47,0,0,0,21.79,1.76l-1.81,5.19c-2.58-.05-3.74-.13-6-.31L321,271.65l-5.28.92L313,257.22l-24.31,4.27c0,6.72-2.08,11.82-6.91,16.89L277,275.21c5.57-5,7.34-11.17,5.75-20.27l-1.89-10.76c-1.85.9-3.65,1.64-5.52,2.4l-3.8-3.7a86.47,86.47,0,0,0,20.22-10.42,54.88,54.88,0,0,1-14.24-9l-6.88,1.21-.79-4.51,20.63-3.62-1.3-7.37,5.42-1,1.29,7.37,21.74-3.82.79,4.52Zm-27,4.74a41.34,41.34,0,0,0,12.4,6.63,42.83,42.83,0,0,0,8.36-10.28Zm12.94,12.12a92.62,92.62,0,0,1-10.53,6.93l.71,4,23.68-4.15-.84-4.79A77.18,77.18,0,0,1,297,234.13Zm-9.06,15.26.42,2.43a45.84,45.84,0,0,1,.68,4.68l23.82-4.18L311,245.69Z"/><circle class="cls-11" cx="418.35" cy="141.75" r="49.88"/><path class="cls-12" d="M394.52,127.38a82.93,82.93,0,0,0-12-8.78l3.13-4.2a64.92,64.92,0,0,1,12,8.42Zm.83,18.18a73.22,73.22,0,0,0-12.21-8.81l3.09-4.41a71.71,71.71,0,0,1,12.36,8.42Zm-4,30.06c3.22-6.15,6.17-15.05,8.29-25.37l4.89,2.58a116.41,116.41,0,0,1-7.95,26.09Zm47.86-59.37A45.33,45.33,0,0,1,429.67,129a102.47,102.47,0,0,0,21.79,1.76L449.65,136c-2.59-.05-3.75-.13-6-.31l6.06,34.52-5.28.92-2.69-15.35L417.43,160c0,6.72-2.08,11.82-6.91,16.89l-4.78-3.17c5.57-5,7.34-11.17,5.75-20.27L409.6,142.7c-1.85.9-3.65,1.64-5.52,2.4l-3.8-3.7A86.67,86.67,0,0,0,420.5,131a54.88,54.88,0,0,1-14.24-9l-6.88,1.21-.79-4.51,20.63-3.62-1.3-7.37,5.42-1,1.29,7.37,21.74-3.82.79,4.51Zm-27,4.74a41.57,41.57,0,0,0,12.4,6.63,42.83,42.83,0,0,0,8.36-10.28Zm12.94,12.12A92.62,92.62,0,0,1,414.57,140l.71,4L439,139.91l-.84-4.79a77.18,77.18,0,0,1-12.46-2.47ZM416,148.37l.43,2.43a45.84,45.84,0,0,1,.68,4.68L441,151.3l-1.24-7.09Z"/></g></svg>