<svg xmlns="http://www.w3.org/2000/svg" width="700" height="500" viewBox="0 0 700 500"><defs><style>.cls-1,.cls-8,.繧ｰ繝ｩ繝輔ぅ繝け繧ｹ繧ｿ繧､繝ｫ-3{fill:#fff;}.cls-2{fill:#e83589;}.cls-3,.cls-4,.cls-7,.繧ｰ繝ｩ繝輔ぅ繝け繧ｹ繧ｿ繧､繝ｫ{fill:none;}.cls-3,.cls-4,.cls-7,.cls-8,.繧ｰ繝ｩ繝輔ぅ繝け繧ｹ繧ｿ繧､繝ｫ,.繧ｰ繝ｩ繝輔ぅ繝け繧ｹ繧ｿ繧､繝ｫ-2,.繧ｰ繝ｩ繝輔ぅ繝け繧ｹ繧ｿ繧､繝ｫ-3{stroke:#000;}.cls-3,.cls-4{stroke-linecap:round;stroke-linejoin:round;}.cls-3{stroke-width:1.43px;}.cls-4{stroke-width:1.83px;}.繧ｰ繝ｩ繝輔ぅ繝け繧ｹ繧ｿ繧､繝ｫ-2{fill:#d8eacc;}.繧ｰ繝ｩ繝輔ぅ繝け繧ｹ繧ｿ繧､繝ｫ,.繧ｰ繝ｩ繝輔ぅ繝け繧ｹ繧ｿ繧､繝ｫ-2,.繧ｰ繝ｩ繝輔ぅ繝け繧ｹ繧ｿ繧､繝ｫ-3{stroke-width:2px;}.cls-5{fill:#030201;}.cls-6{fill:#242323;}.cls-8,.繧ｰ繝ｩ繝輔ぅ繝け繧ｹ繧ｿ繧､繝ｫ,.繧ｰ繝ｩ繝輔ぅ繝け繧ｹ繧ｿ繧､繝ｫ-3{stroke-miterlimit:10;}.cls-7{stroke-linejoin:bevel;stroke-width:1.5px;}</style></defs><title>kukakuzu</title><g id="レイヤー_2" data-name="レイヤー 2"><rect class="cls-1" width="700" height="500"/><rect class="cls-2" x="103.22" y="103.24" width="39.3" height="95.53" transform="translate(-28.13 273.88) rotate(-90)"/><path class="cls-1" d="M92.34,156.85h15.55V159H92.34v1.41H90V141.8h17.33v2h-15Zm.68-2.34a19.54,19.54,0,0,0,5.42-4A51.65,51.65,0,0,0,93.6,147L95,145.38c1.72,1.08,3.22,2.14,4.86,3.4a26.84,26.84,0,0,0,2.69-4.43l2.1,1a31.27,31.27,0,0,1-3,4.86c1.16.95,2.7,2.32,4.25,3.79l-1.64,1.72c-1.35-1.35-2.86-2.74-4.08-3.79a21.08,21.08,0,0,1-5.77,4.35Z"/><path class="cls-1" d="M121.5,143.62h-8.69v-1.86h19.7v1.86H123.7v2h4.44V156h-11V145.61h4.33Zm8.21,13.69v-11.7h2.12v14.75h-2.12v-1.14H115.59v1.14H113.5V145.61h2.09v11.7Zm-10.57-10v2.51h2.44v-2.51Zm0,4.11v2.8h2.44v-2.8Zm4.48-1.6h2.55v-2.51h-2.55Zm0,4.4h2.55v-2.8h-2.55Z"/><path class="cls-1" d="M155.7,160.36h-2.26V159.3H140v1.06h-2.24V141.61H155.7Zm-15.7-3h13.44V143.5H140Zm11.51-.89c-1.3-.81-2.84-1.68-4.23-2.39a17.54,17.54,0,0,1-5.37,3l-1.28-1.56a13.55,13.55,0,0,0,4.66-2.44l-.54-.25c-1.35-.66-2.34-1.1-4.1-1.83l.93-1.53a55.92,55.92,0,0,1,5.29,2.18,17.63,17.63,0,0,0,3.86-7l2,.62a23.63,23.63,0,0,1-3.94,7.34l.18.1c1,.52,2.18,1.14,3.76,2.08Zm-8.73-6.78a18.26,18.26,0,0,0-1.66-4.07l1.91-.76a20.53,20.53,0,0,1,1.72,4Zm3.57-.81a24.05,24.05,0,0,0-1.68-4.09l1.82-.72a19.28,19.28,0,0,1,1.73,4Z"/><polyline class="cls-3" points="98.53 210.19 98.53 198.45 105.43 210.19 105.43 198.45"/><circle class="cls-4" cx="123.59" cy="236.82" r="24.35"/><polygon points="131.31 248.08 125.9 260.31 110.17 217.22 144.67 247.46 131.31 248.08"/><rect class="繧ｰ繝ｩ繝輔ぅ繝け繧ｹ繧ｿ繧､繝ｫ-2" x="201.93" y="46.02" width="131.02" height="333.01"/><rect class="繧ｰ繝ｩ繝輔ぅ繝け繧ｹ繧ｿ繧､繝ｫ-2" x="464.91" y="46.02" width="131.02" height="333.01"/><rect class="繧ｰ繝ｩ繝輔ぅ繝け繧ｹ繧ｿ繧､繝ｫ-2" x="332.95" y="46.02" width="131.96" height="333.01"/><path d="M396.94,397.86v1.73H386.39v3.07h8.13v9.57c0,1.39-.62,1.89-2.33,1.89-1,0-2-.05-2.95-.14l-.31-1.83a20.61,20.61,0,0,0,2.91.24c.62,0,.76-.12.76-.69v-7.37h-6.21v13h-1.9v-13h-5.9v10.06H376.7V402.66h7.79v-3.07H374.16v-1.73h10.33v-3.29h1.9v3.29Z"/><path d="M405,412.37c1.94,1.94,4.17,2.69,8.2,2.71h9.43a9.43,9.43,0,0,0-.58,1.7h-9.11c-4.2,0-6.53-.84-8.59-2.92a23.85,23.85,0,0,1-3.74,3.52l-1.06-1.7a22.18,22.18,0,0,0,3.62-2.76v-6.43h-3.55v-1.63H405Zm-1-12a24.07,24.07,0,0,0-3.51-4.08l1.32-1.1a23.41,23.41,0,0,1,3.6,3.91Zm2.35-1.27v-1.51h4.24a14.42,14.42,0,0,0-1.53-2.31l1.68-.64a18,18,0,0,1,1.72,2.95h3.12a22.77,22.77,0,0,0,1.32-3l1.9.48a20.13,20.13,0,0,1-1.37,2.52h4.48v1.51H414.9c-.12.41-.5,1.41-.74,2h6v12.23H408V401.12h4.41a16.06,16.06,0,0,0,.63-2Zm3.48,5.56h8.63v-2.2h-8.63Zm0,3.48h8.63V406h-8.63Zm0,3.77h8.63v-2.4h-8.63Z"/><path d="M290.76,432.64A29.46,29.46,0,0,0,287,429l1.27-1.32a22.8,22.8,0,0,1,3.81,3.6Zm-3.17,9.76a35.74,35.74,0,0,0,4.22-7.86l1.51,1.17a40.43,40.43,0,0,1-4.19,8.11Zm4-15.87a25.61,25.61,0,0,0-3.64-3.75l1.24-1.24a21.78,21.78,0,0,1,3.74,3.57Zm9.5,6.81,0,.05a54.35,54.35,0,0,1-3.41,7.43l-.1.22,1.78-.15c1.77-.14,4.49-.43,6.62-.72-.74-1.24-1.61-2.54-2.52-3.81l1.51-.84a43.39,43.39,0,0,1,4.73,7.27L308,443.87c-.55-1.13-.79-1.61-1.19-2.33l-.24,0c-2.67.53-8.33,1.27-12.26,1.61l-.63-1.9,1-.05.29,0,.65-.05a55.58,55.58,0,0,0,3.55-8h-6.05v-1.61h7.32v-4.84h-6v-1.66h6v-3.86h1.87v3.86h6.38v1.66h-6.38v4.84h7.63v1.61h-8.73Z"/><path d="M324.84,422.81v13h3.71v1.85h-3.71v4.73h-2.12v-4.73h-9.88v-1.82l9.36-13Zm-2.12,6.07c0-1.11,0-3,.12-4.15h-.09a26.56,26.56,0,0,1-1.75,3l-5.71,8h7.43Z"/><path d="M333.82,440.46c.63-2.56,2.74-5.13,6-7.29l.62-.41c3.36-2.18,4.25-3.24,4.25-5,0-2-1.64-3.28-4.11-3.28a6,6,0,0,0-5,2.56l-1.51-1.27a7.72,7.72,0,0,1,6.57-3.21c3.74,0,6.48,2.2,6.48,5.25,0,2.42-.94,3.55-5.23,6.29l-.87.55c-2.85,1.87-4.65,3.93-4.87,5.66h11.25v2h-13.6Z"/><path d="M364.09,444h-1.85v-7.68a23.34,23.34,0,0,1-9.33,6.72l-1.1-1.54a23.4,23.4,0,0,0,8.87-5.64H351.9v-1.6h10.34v-2.62h1.85v2.62H374.6v1.6h-8.88a25,25,0,0,0,9,5.09l-1.18,1.68a24.26,24.26,0,0,1-9.47-6.45Zm6.5-20.54a22.23,22.23,0,0,1-5.52,5,33,33,0,0,0,9.12,2.83l-1,1.63a37.29,37.29,0,0,1-9.76-3.43,33.52,33.52,0,0,1-10.05,3.67l-1-1.49a31.74,31.74,0,0,0,9.52-3.14,30.73,30.73,0,0,1-3.4-3,20.28,20.28,0,0,1-4.18,2.56l-1.17-1.24a16.44,16.44,0,0,0,7.17-5.74l1.82.36c-.36.55-.45.65-.79,1.11h8.21Zm-10.46.6c-.17.2-.24.24-.38.39a19.11,19.11,0,0,0,3.76,3.14,21.7,21.7,0,0,0,4.3-3.53Z"/><path d="M384,425a30.87,30.87,0,0,1-4.7,1.42l-.49-1.73a23.3,23.3,0,0,0,5.79-2.13h1.55v19.79H384Z"/><path d="M399,436.43l.15-.05.09,0c.89-.29,2-.72,2.71-1l.19,1.7a65.93,65.93,0,0,1-7.74,2.83l-.68-1.85c1.35-.36,1.54-.41,2.83-.79l.58-.17V425.76H394v-1.7h7.61v1.7H399Zm1.7,6.29a14.59,14.59,0,0,0,5-3.31l1.46,1a17.43,17.43,0,0,1-5.18,3.72Zm13.94-16.39v12.79H403.13V426.33h3.74a23.09,23.09,0,0,0,.65-2.44h-6V422.3h14.82v1.59h-6.95a21.35,21.35,0,0,1-.82,2.44Zm-9.74,1.47v2.32h7.94V427.8Zm0,6h7.94v-2.23H404.9Zm0,3.86h7.94v-2.47H404.9ZM415,444a32.59,32.59,0,0,0-4.79-3.6l1.32-1.05a31.6,31.6,0,0,1,4.89,3.31Z"/><path d="M426,425a30.87,30.87,0,0,1-4.7,1.42l-.48-1.73a23.05,23.05,0,0,0,5.78-2.13h1.56v19.79H426Z"/><path d="M443.15,432.93c-.24.86-.53,1.68-.79,2.35h13.48a22.83,22.83,0,0,1-1.27,6.86c-.6,1.34-1.37,1.73-3.53,1.73-1.27,0-3-.07-4.15-.17l-.43-1.82c1.65.14,3.26.24,4.41.24s1.56-.19,1.9-1a23.21,23.21,0,0,0,.91-4.25h-12c-.31.67-.65,1.37-1,2l-1.94-.55a33.31,33.31,0,0,0,2.37-5.47h-5.35V431.3h22.79v1.63ZM455,429.12H439.33V422.3H455Zm-13.72-1.54h11.77v-3.69H441.28Z"/><path d="M466.57,439.05c1.95,1.94,4.18,2.68,8.21,2.71h9.43a8.49,8.49,0,0,0-.58,1.7h-9.12c-4.19,0-6.52-.84-8.58-2.93a23.46,23.46,0,0,1-3.74,3.53l-1.06-1.7a22.18,22.18,0,0,0,3.62-2.76v-6.43H461.2v-1.63h5.37Zm-1-12A24,24,0,0,0,462,423l1.32-1.1a23.41,23.41,0,0,1,3.6,3.91Zm2.35-1.27V424.3h4.25a15.91,15.91,0,0,0-1.53-2.31l1.67-.65a17,17,0,0,1,1.73,3h3.12a24.85,24.85,0,0,0,1.32-3l1.89.48A18.87,18.87,0,0,1,479,424.3h4.48v1.51h-6.93c-.12.4-.5,1.41-.74,2h6V440H469.6V427.8H474a15.78,15.78,0,0,0,.62-2Zm3.48,5.56H480v-2.21h-8.64Zm0,3.48H480v-2.18h-8.64Zm0,3.76H480v-2.39h-8.64Z"/><path d="M495.88,430h-3.1v3.79h3.12v1.58h-3.12v5c.65-.16,2.48-.69,3.67-1.08l.17,1.56a85.28,85.28,0,0,1-9.45,2.69l-.62-1.7,1.27-.27v-9.35h1.63v9l.6-.14.58-.14.5-.12V430h-3.5v-7.8h8.25Zm-6.55-1.56h4.85v-4.63h-4.85Zm18.35-4.7a20.12,20.12,0,0,1-3.53,5.78,19.82,19.82,0,0,0,5.5,3.33l-.91,1.59a20.88,20.88,0,0,1-5.74-3.75,19.76,19.76,0,0,1-6.21,4l-1-1.49a15.77,15.77,0,0,0,6-3.67,16.46,16.46,0,0,1-2.16-3l-.1.12,0,.07a15.11,15.11,0,0,1-2.12,2.18l-1.17-1.27a14.46,14.46,0,0,0,4.39-6.35l1.77.28c-.26.63-.33.82-.52,1.23h4.65Zm-.1,20.27h-1.75v-1.42h-6.11V444H498v-9.45h9.61Zm-7.86-3h6.11v-4.85h-6.11Zm.84-15.86a15.38,15.38,0,0,0,2.37,3.22,16,16,0,0,0,2.59-4.06h-4.46c-.1.17-.19.34-.41.7Z"/><path d="M176.62,435.87h10.32v-3h1.47v3h3.76v1.68h-3.76v7.86H187L176.62,438Zm4.82,1.68c-.87,0-2.36,0-3.3-.1v.08a23,23,0,0,1,2.43,1.39l6.37,4.55v-5.92Z"/><path d="M189.44,428.14h2.73v2.72h-2.73Z"/><path d="M190.66,424.64c-2-.5-4.08-2.18-5.8-4.75l-.32-.5c-1.74-2.67-2.58-3.38-4-3.38-1.57,0-2.62,1.3-2.62,3.26a4.77,4.77,0,0,0,2,4l-1,1.2a6.16,6.16,0,0,1-2.56-5.23c0-3,1.76-5.15,4.19-5.15,1.92,0,2.82.74,5,4.16l.44.68c1.48,2.28,3.13,3.71,4.5,3.88v-8.95h1.62v10.82Z"/><path d="M184.44,399.49c5,0,8,2.2,8,5.73s-3.07,5.73-8,5.73-8-2.2-8-5.75S179.5,399.49,184.44,399.49Zm0,9.59c4,0,6.49-1.47,6.49-3.88s-2.48-3.84-6.49-3.84-6.51,1.47-6.51,3.88S180.43,409.08,184.44,409.08Z"/><path d="M184.44,385.55c5,0,8,2.2,8,5.73s-3.07,5.73-8,5.73-8-2.2-8-5.75S179.5,385.55,184.44,385.55Zm0,9.59c4,0,6.49-1.47,6.49-3.88s-2.48-3.83-6.49-3.83-6.51,1.47-6.51,3.87S180.43,395.14,184.44,395.14Z"/><path class="cls-1" d="M255.12,290.27a51.89,51.89,0,0,1,13.41,0c5.15.72,9,6.53,8.73,11.82q-1.2,26,0,52c.26,5-3.39,10.54-8.28,11.27a51.48,51.48,0,0,1-14.35,0c-4.88-.73-8.54-6.23-8.28-11.27q1.22-26,0-52C246.12,296.8,250,291,255.12,290.27Z"/><path class="cls-5" d="M261.83,289.64a52.18,52.18,0,0,1,6.72.44c5,.71,9.18,6.32,8.88,12-.79,17.26-.78,34.76,0,52,.29,5.4-3.65,10.76-8.43,11.47a51.76,51.76,0,0,1-14.39,0c-4.78-.71-8.71-6.07-8.43-11.47.8-17.26.81-34.76,0-52-.29-5.7,3.85-11.31,8.88-12h0A52.21,52.21,0,0,1,261.83,289.64Zm0,76.06a50.35,50.35,0,0,0,7.15-.5c4.6-.68,8.4-5.85,8.13-11.05-.81-17.28-.81-34.8,0-52.07.29-5.51-3.71-10.94-8.57-11.62a51.58,51.58,0,0,0-13.37,0c-4.85.68-8.86,6.11-8.57,11.62.79,17.27.78,34.79,0,52.06-.28,5.21,3.52,10.38,8.12,11.07A52.1,52.1,0,0,0,261.83,365.7Z"/><path class="cls-6" d="M251.13,300h21.39c0-.27,0-.55-.09-.83H251.22Z"/><path class="cls-5" d="M249,308.54l.19.71a78.71,78.71,0,0,1,2.05,18.94c0,.78,0,1.58,0,2.37v.06l-3.25,8.48v-.67c-.05-2-.07-3.92-.07-5.79,0-8,.36-15.88,1-23.36Zm2,22c0-.78,0-1.57,0-2.34a80,80,0,0,0-1.86-18.12c-.65,7.24-1,14.83-1,22.57,0,1.66,0,3.38,0,5.12Z"/><path class="cls-5" d="M274.7,308.54l.07.74c.7,7.48,1.05,15.34,1.05,23.36,0,1.86,0,3.81-.06,5.79l0,.67-3.25-8.54c0-.79,0-1.59,0-2.37a78.17,78.17,0,0,1,2.06-18.94Zm.81,29.22c0-1.75.05-3.47.05-5.12,0-7.74-.33-15.33-1-22.57a80,80,0,0,0-1.86,18.12c0,.77,0,1.56,0,2.34Z"/><path class="cls-1" d="M248.14,340.73v12.48c0,7.32,5.38,13.32,12,13.32h3.44c6.58,0,12-6,12-13.32V340.73a55.3,55.3,0,0,1-27.37,0Z"/><path d="M248,340.55l.16,0a53.89,53.89,0,0,0,13.66,1.71H262a54.31,54.31,0,0,0,13.47-1.71l.16,0v12.66c0,7.42-5.42,13.46-12.09,13.46h-3.44c-6.67,0-12.1-6-12.1-13.46Zm15.54,25.83c6.52,0,11.83-5.91,11.83-13.17v-12.3A54.49,54.49,0,0,1,262,342.59h-.36a54.51,54.51,0,0,1-13.38-1.68v12.3c0,7.26,5.31,13.17,11.84,13.17Z"/><path class="cls-1" d="M251.94,311.51a59.16,59.16,0,0,0,19.78,0,35.4,35.4,0,0,0,.84-11.48H251.09A35.13,35.13,0,0,0,251.94,311.51Z"/><path d="M251,299.88h21.7V300a35.75,35.75,0,0,1-.85,11.54l0,.09-.08,0a59.93,59.93,0,0,1-19.82,0l-.09,0,0-.09A35.75,35.75,0,0,1,251,300Zm21.46.29H251.21a35.21,35.21,0,0,0,.83,11.22,59.51,59.51,0,0,0,19.57,0A35.21,35.21,0,0,0,272.44,300.17Z"/><path class="cls-6" d="M251.09,300h21.47l-.09-.84H251.18Z"/><path class="cls-1" d="M272.47,299.19v-6a23.41,23.41,0,0,0-21.29,0v6Z"/><path d="M261.83,290.5a21.44,21.44,0,0,1,10.7,2.58l.07,0v6.22H251.05v-6.22l.07,0A21.45,21.45,0,0,1,261.83,290.5Zm10.51,2.79a23.36,23.36,0,0,0-21,0v5.76h21Z"/><path class="cls-6" d="M248.23,340.81l-.27.8a47.14,47.14,0,0,0,27.73,0l-.26-.8A47.18,47.18,0,0,1,248.23,340.81Z"/><path class="cls-1" d="M275,340.85l-3.32-10.12H251.94l-3.33,10.12A45.75,45.75,0,0,0,275,340.85Z"/><path d="M251.85,330.59h20l3.4,10.36-.13,0a45.82,45.82,0,0,1-26.5,0l-.14,0Zm19.78.28H252l-3.25,9.88a45.62,45.62,0,0,0,26.09,0Z"/><path class="cls-5" d="M251.22,293.21h-.14a3.11,3.11,0,0,0-2.93,3.25v.25A7.58,7.58,0,0,1,251.22,293.21Z"/><path class="cls-5" d="M272.43,293.21h.14a3.11,3.11,0,0,1,2.93,3.25v.25A7.53,7.53,0,0,0,272.43,293.21Z"/><path class="cls-1" d="M244.5,332.82a1.4,1.4,0,0,0,.21,1.17l2.38,2.29a.28.28,0,0,0,.13.07v-2.14l-2.66-1.66Z"/><path class="cls-5" d="M244.47,332.33l2.88,1.8v2.4l-.16,0a.41.41,0,0,1-.18-.1l-2.39-2.29a1.61,1.61,0,0,1-.25-1.31Zm2.62,2-2.45-1.53,0,.08a1.31,1.31,0,0,0,.17,1l2.3,2.2Z"/><path class="cls-1" d="M279.15,332.82A1.44,1.44,0,0,1,279,334l-2.39,2.29a.24.24,0,0,1-.13.07v-2.14l2.67-1.66Z"/><path class="cls-5" d="M279.18,332.33l.1.46a1.54,1.54,0,0,1-.25,1.31l-2.39,2.29a.36.36,0,0,1-.18.1l-.16,0v-2.4Zm-2.62,3.75,2.3-2.2a1.31,1.31,0,0,0,.17-1l0-.08-2.45,1.53Z"/><path class="cls-5" d="M254.78,348.43c0,4.79.76,9,1.92,11.44a32.75,32.75,0,0,1-1.4-10.13,40.4,40.4,0,0,1,.36-5.47H255C254.85,345.58,254.78,347,254.78,348.43Z"/><path class="cls-5" d="M268.87,348.43c0,4.79-.76,9-1.92,11.44a32.75,32.75,0,0,0,1.4-10.13,40.4,40.4,0,0,0-.36-5.47h.68C268.8,345.58,268.87,347,268.87,348.43Z"/><rect class="cls-1" x="251.94" y="311.51" width="19.78" height="19.22" transform="translate(523.65 642.24) rotate(180)"/><path d="M251.81,311.36h20v19.51h-20Zm19.78.29H252.07v18.94h19.52Z"/><path class="cls-1" d="M300.74,290.27a52,52,0,0,1,13.42,0c5.14.72,9,6.53,8.72,11.82q-1.19,26,0,52c.27,5-3.39,10.54-8.28,11.27a51.4,51.4,0,0,1-14.34,0c-4.89-.73-8.55-6.23-8.28-11.27q1.2-26,0-52C291.74,296.8,295.6,291,300.74,290.27Z"/><path class="cls-5" d="M307.45,289.64a52.33,52.33,0,0,1,6.73.44c5,.71,9.17,6.32,8.87,12-.79,17.26-.78,34.76,0,52,.29,5.4-3.65,10.76-8.42,11.47a51.83,51.83,0,0,1-14.4,0c-4.77-.71-8.71-6.07-8.42-11.47.8-17.26.8-34.76,0-52-.3-5.7,3.85-11.31,8.87-12h0A52.33,52.33,0,0,1,307.45,289.64Zm0,76.06a50.35,50.35,0,0,0,7.15-.5c4.61-.68,8.4-5.85,8.13-11.05-.8-17.28-.81-34.8,0-52.07.28-5.51-3.72-10.94-8.58-11.62a51.51,51.51,0,0,0-13.36,0c-4.86.68-8.87,6.11-8.58,11.62.79,17.27.78,34.79,0,52.06-.28,5.21,3.52,10.38,8.13,11.07A51.85,51.85,0,0,0,307.45,365.7Z"/><path class="cls-6" d="M296.75,300h21.39c0-.27-.05-.55-.08-.83H296.84Z"/><path class="cls-5" d="M294.57,308.54l.19.71a78.17,78.17,0,0,1,2.06,18.94c0,.78,0,1.58,0,2.37v.06l-3.24,8.48,0-.67c0-2-.06-3.92-.06-5.79,0-8,.35-15.88,1.05-23.36Zm2,22c0-.78,0-1.57,0-2.34a80,80,0,0,0-1.86-18.12c-.65,7.24-1,14.83-1,22.57,0,1.66,0,3.38,0,5.12Z"/><path class="cls-5" d="M320.32,308.54l.07.74c.7,7.48,1.05,15.34,1.05,23.36,0,1.86,0,3.81-.06,5.79l0,.67-3.25-8.54c0-.79,0-1.59,0-2.37a78.17,78.17,0,0,1,2.06-18.94Zm.81,29.22c0-1.75.05-3.47.05-5.12,0-7.74-.33-15.33-1-22.57a80,80,0,0,0-1.86,18.12c0,.77,0,1.56,0,2.34Z"/><path class="cls-1" d="M293.76,340.73v12.48c0,7.32,5.39,13.32,12,13.32h3.44c6.58,0,12-6,12-13.32V340.73a55.34,55.34,0,0,1-27.38,0Z"/><path d="M293.63,340.55l.16,0a53.89,53.89,0,0,0,13.66,1.71h.18a54.45,54.45,0,0,0,13.48-1.71l.16,0v12.66c0,7.42-5.43,13.46-12.1,13.46h-3.44c-6.67,0-12.1-6-12.1-13.46Zm15.54,25.83c6.53,0,11.84-5.91,11.84-13.17v-12.3a54.51,54.51,0,0,1-13.38,1.68h-.36a54.51,54.51,0,0,1-13.38-1.68v12.3c0,7.26,5.31,13.17,11.84,13.17Z"/><path class="cls-1" d="M297.56,311.51a59.16,59.16,0,0,0,19.78,0,35.4,35.4,0,0,0,.84-11.48H296.72A35.4,35.4,0,0,0,297.56,311.51Z"/><path d="M296.6,299.88h21.7V300a35.75,35.75,0,0,1-.84,11.54l0,.09-.08,0a59.93,59.93,0,0,1-19.82,0l-.08,0,0-.09a35.75,35.75,0,0,1-.84-11.54Zm21.47.29H296.83a35.8,35.8,0,0,0,.83,11.22,59.57,59.57,0,0,0,19.58,0A35.8,35.8,0,0,0,318.07,300.17Z"/><path class="cls-6" d="M296.72,300h21.46c0-.28-.05-.56-.08-.84H296.8C296.77,299.47,296.74,299.75,296.72,300Z"/><path class="cls-1" d="M318.1,299.19v-6a23.43,23.43,0,0,0-21.3,0v6Z"/><path d="M307.45,290.5a21.48,21.48,0,0,1,10.71,2.58l.07,0v6.22H296.67v-6.22l.07,0A21.48,21.48,0,0,1,307.45,290.5ZM318,293.29a23.38,23.38,0,0,0-21,0v5.76h21Z"/><path class="cls-6" d="M293.85,340.81l-.26.8a47.11,47.11,0,0,0,27.72,0l-.26-.8A47.18,47.18,0,0,1,293.85,340.81Z"/><path class="cls-1" d="M320.67,340.85l-3.33-10.12H297.56l-3.33,10.12A45.79,45.79,0,0,0,320.67,340.85Z"/><path d="M297.47,330.59h20L320.84,341l-.14,0a45.82,45.82,0,0,1-26.5,0l-.14,0Zm19.78.28h-19.6l-3.25,9.88a45.65,45.65,0,0,0,26.1,0Z"/><path class="cls-5" d="M296.84,293.21h-.13a3.11,3.11,0,0,0-2.93,3.25v.25A7.56,7.56,0,0,1,296.84,293.21Z"/><path class="cls-5" d="M318.06,293.21h.13a3.11,3.11,0,0,1,2.93,3.25v.25A7.56,7.56,0,0,0,318.06,293.21Z"/><path class="cls-1" d="M290.12,332.82a1.44,1.44,0,0,0,.21,1.17l2.39,2.29a.25.25,0,0,0,.12.07v-2.14l-2.66-1.66Z"/><path class="cls-5" d="M290.09,332.33l2.88,1.8v2.4l-.15,0a.39.39,0,0,1-.19-.1l-2.39-2.29a1.58,1.58,0,0,1-.24-1.31Zm2.62,2-2.44-1.53,0,.08a1.31,1.31,0,0,0,.16,1l2.3,2.2Z"/><path class="cls-1" d="M324.78,332.82a1.44,1.44,0,0,1-.21,1.17l-2.39,2.29a.25.25,0,0,1-.12.07v-2.14l2.66-1.66Z"/><path class="cls-5" d="M324.81,332.33l.09.46a1.58,1.58,0,0,1-.24,1.31l-2.39,2.29a.39.39,0,0,1-.19.1l-.15,0v-2.4Zm-2.62,3.75,2.3-2.2a1.31,1.31,0,0,0,.16-1l0-.08-2.44,1.53Z"/><path class="cls-5" d="M300.4,348.43c0,4.79.77,9,1.92,11.44a33.09,33.09,0,0,1-1.39-10.13,40.47,40.47,0,0,1,.35-5.47h-.68C300.47,345.58,300.4,347,300.4,348.43Z"/><path class="cls-5" d="M314.5,348.43c0,4.79-.77,9-1.92,11.44A33.09,33.09,0,0,0,314,349.74a40.47,40.47,0,0,0-.35-5.47h.67C314.42,345.58,314.5,347,314.5,348.43Z"/><rect class="cls-1" x="297.56" y="311.51" width="19.78" height="19.22" transform="translate(614.9 642.24) rotate(180)"/><path d="M297.43,311.36h20v19.51h-20Zm19.78.29H297.69v18.94h19.52Z"/><path class="cls-1" d="M384.5,290.27a52,52,0,0,1,13.42,0c5.14.72,9,6.53,8.72,11.82q-1.18,26,0,52c.27,5-3.39,10.54-8.28,11.27a51.4,51.4,0,0,1-14.34,0c-4.89-.73-8.55-6.23-8.28-11.27q1.2-26,0-52C375.5,296.8,379.36,291,384.5,290.27Z"/><path class="cls-5" d="M391.21,289.64a52.33,52.33,0,0,1,6.73.44c5,.71,9.17,6.32,8.87,12-.79,17.26-.78,34.76,0,52,.29,5.4-3.65,10.76-8.42,11.47a51.83,51.83,0,0,1-14.4,0c-4.77-.71-8.71-6.07-8.42-11.47.8-17.26.8-34.76,0-52-.3-5.7,3.85-11.31,8.87-12h0A52.33,52.33,0,0,1,391.21,289.64Zm0,76.06a50.35,50.35,0,0,0,7.15-.5c4.61-.68,8.4-5.85,8.13-11.05-.8-17.28-.81-34.8,0-52.07.28-5.51-3.72-10.94-8.58-11.62a51.51,51.51,0,0,0-13.36,0c-4.86.68-8.87,6.11-8.58,11.62.79,17.27.78,34.79,0,52.06-.27,5.21,3.52,10.38,8.13,11.07A51.85,51.85,0,0,0,391.21,365.7Z"/><path class="cls-6" d="M380.51,300H401.9c0-.27,0-.55-.08-.83H380.6Z"/><path class="cls-5" d="M378.33,308.54l.19.71a78.17,78.17,0,0,1,2.06,18.94c0,.78,0,1.58,0,2.37v.06l-3.24,8.48,0-.67c0-2-.06-3.92-.06-5.79,0-8,.35-15.88,1-23.36Zm2,22c0-.78,0-1.57,0-2.34a80,80,0,0,0-1.86-18.12c-.65,7.24-1,14.83-1,22.57,0,1.66,0,3.38,0,5.12Z"/><path class="cls-5" d="M404.09,308.54l.06.74c.7,7.48,1.05,15.34,1.05,23.36,0,1.86,0,3.81-.06,5.79l0,.67-3.25-8.54c0-.79,0-1.59,0-2.37a78.17,78.17,0,0,1,2.06-18.94Zm.8,29.22c0-1.75.05-3.47.05-5.12,0-7.74-.33-15.33-1-22.57a80,80,0,0,0-1.86,18.12c0,.77,0,1.56,0,2.34Z"/><path class="cls-1" d="M377.52,340.73v12.48c0,7.32,5.39,13.32,12,13.32h3.44c6.58,0,12-6,12-13.32V340.73a55.34,55.34,0,0,1-27.38,0Z"/><path d="M377.39,340.55l.16,0a54,54,0,0,0,13.66,1.71h.18a54.45,54.45,0,0,0,13.48-1.71l.16,0v12.66c0,7.42-5.43,13.46-12.1,13.46h-3.44c-6.67,0-12.1-6-12.1-13.46Zm15.54,25.83c6.53,0,11.84-5.91,11.84-13.17v-12.3a54.51,54.51,0,0,1-13.38,1.68H391a54.51,54.51,0,0,1-13.38-1.68v12.3c0,7.26,5.31,13.17,11.84,13.17Z"/><path class="cls-1" d="M381.32,311.51a59.16,59.16,0,0,0,19.78,0,35.4,35.4,0,0,0,.84-11.48H380.48A35.4,35.4,0,0,0,381.32,311.51Z"/><path d="M380.36,299.88h21.7V300a35.75,35.75,0,0,1-.84,11.54l0,.09-.08,0a59.93,59.93,0,0,1-19.82,0l-.08,0,0-.09a35.75,35.75,0,0,1-.84-11.54Zm21.47.29H380.59a35.8,35.8,0,0,0,.83,11.22,59.57,59.57,0,0,0,19.58,0A35.8,35.8,0,0,0,401.83,300.17Z"/><path class="cls-6" d="M380.48,300h21.46c0-.28-.05-.56-.08-.84h-21.3C380.53,299.47,380.5,299.75,380.48,300Z"/><path class="cls-1" d="M401.86,299.19v-6a23.43,23.43,0,0,0-21.3,0v6Z"/><path d="M391.21,290.5a21.48,21.48,0,0,1,10.71,2.58l.07,0v6.22H380.43v-6.22l.07,0A21.48,21.48,0,0,1,391.21,290.5Zm10.52,2.79a23.38,23.38,0,0,0-21,0v5.76h21Z"/><path class="cls-6" d="M377.61,340.81l-.26.8a47.11,47.11,0,0,0,27.72,0l-.26-.8A47.18,47.18,0,0,1,377.61,340.81Z"/><path class="cls-1" d="M404.43,340.85l-3.33-10.12H381.32L378,340.85A45.79,45.79,0,0,0,404.43,340.85Z"/><path d="M381.23,330.59h20L404.6,341l-.14,0a45.82,45.82,0,0,1-26.5,0l-.14,0Zm19.78.28h-19.6l-3.25,9.88a45.65,45.65,0,0,0,26.1,0Z"/><path class="cls-5" d="M380.6,293.21h-.13a3.11,3.11,0,0,0-2.93,3.25v.25A7.56,7.56,0,0,1,380.6,293.21Z"/><path class="cls-5" d="M401.82,293.21H402a3.11,3.11,0,0,1,2.93,3.25v.25A7.56,7.56,0,0,0,401.82,293.21Z"/><path class="cls-1" d="M373.88,332.82a1.44,1.44,0,0,0,.21,1.17l2.39,2.29a.25.25,0,0,0,.12.07v-2.14l-2.66-1.66Z"/><path class="cls-5" d="M373.85,332.33l2.88,1.8v2.4l-.15,0a.39.39,0,0,1-.19-.1L374,334.1a1.58,1.58,0,0,1-.24-1.31Zm2.62,2L374,332.77l0,.08a1.31,1.31,0,0,0,.16,1l2.3,2.2Z"/><path class="cls-1" d="M408.54,332.82a1.44,1.44,0,0,1-.21,1.17l-2.39,2.29a.25.25,0,0,1-.12.07v-2.14l2.66-1.66Z"/><path class="cls-5" d="M408.57,332.33l.09.46a1.58,1.58,0,0,1-.24,1.31L406,336.39a.39.39,0,0,1-.19.1l-.15,0v-2.4ZM406,336.08l2.3-2.2a1.31,1.31,0,0,0,.16-1l0-.08L406,334.3Z"/><path class="cls-5" d="M384.16,348.43c0,4.79.77,9,1.92,11.44a33.09,33.09,0,0,1-1.39-10.13,40.47,40.47,0,0,1,.35-5.47h-.67C384.24,345.58,384.16,347,384.16,348.43Z"/><path class="cls-5" d="M398.26,348.43c0,4.79-.77,9-1.92,11.44a33.09,33.09,0,0,0,1.39-10.13,40.47,40.47,0,0,0-.35-5.47h.67C398.18,345.58,398.26,347,398.26,348.43Z"/><rect class="cls-1" x="381.32" y="311.51" width="19.78" height="19.22" transform="translate(782.42 642.24) rotate(180)"/><path d="M381.19,311.36h20v19.51h-20Zm19.78.29H381.45v18.94H401Z"/><path class="cls-1" d="M430.85,290.27a51.89,51.89,0,0,1,13.41,0c5.15.72,9,6.53,8.72,11.82q-1.19,26,0,52c.26,5-3.39,10.54-8.28,11.27a51.48,51.48,0,0,1-14.35,0c-4.89-.73-8.54-6.23-8.28-11.27q1.22-26,0-52C421.85,296.8,425.7,291,430.85,290.27Z"/><path class="cls-5" d="M437.55,289.64a52.21,52.21,0,0,1,6.73.44c5,.71,9.17,6.32,8.88,12-.79,17.26-.78,34.76,0,52,.28,5.4-3.65,10.76-8.43,11.47a51.76,51.76,0,0,1-14.39,0c-4.78-.71-8.72-6.07-8.43-11.47.8-17.26.81-34.76,0-52-.3-5.7,3.85-11.31,8.88-12h0A52.18,52.18,0,0,1,437.55,289.64Zm0,76.06a50.59,50.59,0,0,0,7.16-.5c4.6-.68,8.4-5.85,8.12-11.05-.8-17.28-.81-34.8,0-52.07.29-5.51-3.72-10.94-8.57-11.62a51.58,51.58,0,0,0-13.37,0c-4.86.68-8.86,6.11-8.57,11.62.79,17.27.78,34.79,0,52.06-.28,5.21,3.52,10.38,8.12,11.07A51.85,51.85,0,0,0,437.55,365.7Z"/><path class="cls-6" d="M426.86,300h21.39l-.09-.83H427C426.91,299.48,426.88,299.76,426.86,300Z"/><path class="cls-5" d="M424.68,308.54l.18.71a78.17,78.17,0,0,1,2.06,18.94c0,.78,0,1.58,0,2.37v.06l-3.24,8.48v-.67c-.05-2-.07-3.92-.07-5.79,0-8,.35-15.88,1.05-23.36Zm2,22c0-.78,0-1.57,0-2.34a80,80,0,0,0-1.86-18.12c-.65,7.24-1,14.83-1,22.57,0,1.66,0,3.38.05,5.12Z"/><path class="cls-5" d="M450.43,308.54l.07.74c.69,7.48,1.05,15.34,1.05,23.36,0,1.86,0,3.81-.07,5.79v.67l-3.26-8.54c0-.79,0-1.59,0-2.37a78.71,78.71,0,0,1,2.05-18.94Zm.81,29.22c0-1.75.05-3.47.05-5.12,0-7.74-.33-15.33-1-22.57a80,80,0,0,0-1.86,18.12c0,.77,0,1.56,0,2.34Z"/><path class="cls-1" d="M423.87,340.73v12.48c0,7.32,5.38,13.32,12,13.32h3.44c6.59,0,12-6,12-13.32V340.73a55.3,55.3,0,0,1-27.37,0Z"/><path d="M423.74,340.55l.16,0a53.87,53.87,0,0,0,13.65,1.71h.18a54.39,54.39,0,0,0,13.48-1.71l.16,0v12.66c0,7.42-5.43,13.46-12.1,13.46h-3.43c-6.68,0-12.1-6-12.1-13.46Zm15.53,25.83c6.53,0,11.84-5.91,11.84-13.17v-12.3a54.51,54.51,0,0,1-13.38,1.68h-.36A54.49,54.49,0,0,1,424,340.91v12.3c0,7.26,5.31,13.17,11.84,13.17Z"/><path class="cls-1" d="M427.66,311.51a59.16,59.16,0,0,0,19.78,0,35.13,35.13,0,0,0,.85-11.48H426.82A35.4,35.4,0,0,0,427.66,311.51Z"/><path d="M426.7,299.88h21.7l0,.13a35.75,35.75,0,0,1-.85,11.54l0,.09-.09,0a59.93,59.93,0,0,1-19.82,0l-.08,0,0-.09a35.75,35.75,0,0,1-.85-11.54Zm21.47.29H426.94a35.21,35.21,0,0,0,.83,11.22,59.51,59.51,0,0,0,19.57,0A35.21,35.21,0,0,0,448.17,300.17Z"/><path class="cls-6" d="M426.82,300h21.47l-.09-.84H426.91Z"/><path class="cls-1" d="M448.2,299.19v-6a23.41,23.41,0,0,0-21.29,0v6Z"/><path d="M437.55,290.5a21.45,21.45,0,0,1,10.71,2.58l.07,0v6.22H426.78v-6.22l.07,0A21.44,21.44,0,0,1,437.55,290.5Zm10.52,2.79a23.36,23.36,0,0,0-21,0v5.76h21Z"/><path class="cls-6" d="M424,340.81l-.27.8a47.14,47.14,0,0,0,27.73,0l-.27-.8A47.15,47.15,0,0,1,424,340.81Z"/><path class="cls-1" d="M450.77,340.85l-3.33-10.12H427.66l-3.32,10.12A45.75,45.75,0,0,0,450.77,340.85Z"/><path d="M427.57,330.59h20l3.4,10.36-.14,0a45.82,45.82,0,0,1-26.5,0l-.13,0Zm19.78.28H427.76l-3.25,9.88a45.62,45.62,0,0,0,26.09,0Z"/><path class="cls-5" d="M427,293.21h-.14a3.11,3.11,0,0,0-2.93,3.25v.25A7.53,7.53,0,0,1,427,293.21Z"/><path class="cls-5" d="M448.16,293.21h.14a3.11,3.11,0,0,1,2.93,3.25v.25A7.58,7.58,0,0,0,448.16,293.21Z"/><path class="cls-1" d="M420.23,332.82a1.44,1.44,0,0,0,.2,1.17l2.39,2.29a.24.24,0,0,0,.13.07v-2.14l-2.67-1.66Z"/><path class="cls-5" d="M420.2,332.33l2.88,1.8v2.4l-.16,0a.36.36,0,0,1-.18-.1l-2.39-2.29a1.54,1.54,0,0,1-.25-1.31Zm2.62,2-2.45-1.53,0,.08a1.31,1.31,0,0,0,.17,1l2.3,2.2Z"/><path class="cls-1" d="M454.88,332.82a1.4,1.4,0,0,1-.21,1.17l-2.38,2.29a.28.28,0,0,1-.13.07v-2.14l2.67-1.66Z"/><path class="cls-5" d="M454.91,332.33l.1.46a1.61,1.61,0,0,1-.25,1.31l-2.39,2.29a.41.41,0,0,1-.18.1l-.16,0v-2.4Zm-2.62,3.75,2.3-2.2a1.31,1.31,0,0,0,.17-1l0-.08-2.45,1.53Z"/><path class="cls-5" d="M430.51,348.43c0,4.79.76,9,1.92,11.44a32.75,32.75,0,0,1-1.4-10.13,40.4,40.4,0,0,1,.36-5.47h-.68C430.58,345.58,430.51,347,430.51,348.43Z"/><path class="cls-5" d="M444.6,348.43c0,4.79-.76,9-1.92,11.44a32.75,32.75,0,0,0,1.4-10.13,40.4,40.4,0,0,0-.36-5.47h.68C444.53,345.58,444.6,347,444.6,348.43Z"/><rect class="cls-1" x="427.66" y="311.51" width="19.78" height="19.22" transform="translate(875.11 642.24) rotate(180)"/><path d="M427.53,311.36h20v19.51h-20Zm19.78.29H427.79v18.94h19.52Z"/><path class="cls-1" d="M490.74,290.27a52,52,0,0,1,13.42,0c5.14.72,9,6.53,8.72,11.82q-1.18,26,0,52c.27,5-3.39,10.54-8.28,11.27a51.48,51.48,0,0,1-14.35,0c-4.88-.73-8.54-6.23-8.27-11.27q1.2-26,0-52C481.74,296.8,485.6,291,490.74,290.27Z"/><path class="cls-5" d="M497.45,289.64a52.33,52.33,0,0,1,6.73.44c5,.71,9.17,6.32,8.87,12-.79,17.26-.78,34.76,0,52,.29,5.4-3.65,10.76-8.42,11.47a51.83,51.83,0,0,1-14.4,0c-4.77-.71-8.71-6.07-8.42-11.47.8-17.26.8-34.76,0-52-.3-5.7,3.85-11.31,8.87-12h0A52.33,52.33,0,0,1,497.45,289.64Zm0,76.06a50.35,50.35,0,0,0,7.15-.5c4.61-.68,8.4-5.85,8.13-11.05-.8-17.28-.81-34.8,0-52.07.28-5.51-3.72-10.94-8.58-11.62a51.51,51.51,0,0,0-13.36,0c-4.86.68-8.87,6.11-8.58,11.62.79,17.27.78,34.79,0,52.06-.28,5.21,3.52,10.38,8.13,11.07A51.85,51.85,0,0,0,497.45,365.7Z"/><path class="cls-6" d="M486.75,300h21.39c0-.27-.05-.55-.08-.83H486.84Z"/><path class="cls-5" d="M484.57,308.54l.19.71a78.17,78.17,0,0,1,2.06,18.94c0,.78,0,1.58,0,2.37v.06l-3.24,8.48,0-.67c0-2-.06-3.92-.06-5.79,0-8,.35-15.88,1.05-23.36Zm2,22c0-.78,0-1.57,0-2.34a80,80,0,0,0-1.86-18.12c-.65,7.24-1,14.83-1,22.57,0,1.66,0,3.38,0,5.12Z"/><path class="cls-5" d="M510.32,308.54l.07.74c.7,7.48,1.05,15.34,1.05,23.36,0,1.86,0,3.81-.06,5.79l0,.67-3.25-8.54c0-.79,0-1.59,0-2.37a78.17,78.17,0,0,1,2.06-18.94Zm.81,29.22c0-1.75.05-3.47.05-5.12,0-7.74-.33-15.33-1-22.57a80,80,0,0,0-1.86,18.12c0,.77,0,1.56,0,2.34Z"/><path class="cls-1" d="M483.76,340.73v12.48c0,7.32,5.39,13.32,12,13.32h3.44c6.58,0,12-6,12-13.32V340.73a55.34,55.34,0,0,1-27.38,0Z"/><path d="M483.63,340.55l.16,0a53.89,53.89,0,0,0,13.66,1.71h.18a54.45,54.45,0,0,0,13.48-1.71l.16,0v12.66c0,7.42-5.43,13.46-12.1,13.46h-3.44c-6.67,0-12.1-6-12.1-13.46Zm15.54,25.83c6.53,0,11.84-5.91,11.84-13.17v-12.3a54.51,54.51,0,0,1-13.38,1.68h-.36a54.51,54.51,0,0,1-13.38-1.68v12.3c0,7.26,5.31,13.17,11.84,13.17Z"/><path class="cls-1" d="M487.56,311.51a59.16,59.16,0,0,0,19.78,0,35.4,35.4,0,0,0,.84-11.48H486.72A35.4,35.4,0,0,0,487.56,311.51Z"/><path d="M486.6,299.88h21.7V300a35.75,35.75,0,0,1-.84,11.54l0,.09-.08,0a59.93,59.93,0,0,1-19.82,0l-.08,0,0-.09a35.75,35.75,0,0,1-.84-11.54Zm21.47.29H486.83a35.8,35.8,0,0,0,.83,11.22,59.57,59.57,0,0,0,19.58,0A35.8,35.8,0,0,0,508.07,300.17Z"/><path class="cls-6" d="M486.72,300h21.46c0-.28-.05-.56-.08-.84H486.8C486.77,299.47,486.74,299.75,486.72,300Z"/><path class="cls-1" d="M508.1,299.19v-6a23.43,23.43,0,0,0-21.3,0v6Z"/><path d="M497.45,290.5a21.48,21.48,0,0,1,10.71,2.58l.07,0v6.22H486.67v-6.22l.07,0A21.48,21.48,0,0,1,497.45,290.5ZM508,293.29a23.38,23.38,0,0,0-21,0v5.76h21Z"/><path class="cls-6" d="M483.85,340.81l-.26.8a47.11,47.11,0,0,0,27.72,0l-.26-.8A47.18,47.18,0,0,1,483.85,340.81Z"/><path class="cls-1" d="M510.67,340.85l-3.33-10.12H487.56l-3.33,10.12A45.79,45.79,0,0,0,510.67,340.85Z"/><path d="M487.47,330.59h20L510.84,341l-.14,0a45.82,45.82,0,0,1-26.5,0l-.14,0Zm19.78.28h-19.6l-3.25,9.88a45.65,45.65,0,0,0,26.1,0Z"/><path class="cls-5" d="M486.84,293.21h-.13a3.11,3.11,0,0,0-2.93,3.25v.25A7.56,7.56,0,0,1,486.84,293.21Z"/><path class="cls-5" d="M508.06,293.21h.13a3.11,3.11,0,0,1,2.93,3.25v.25A7.56,7.56,0,0,0,508.06,293.21Z"/><path class="cls-1" d="M480.12,332.82a1.44,1.44,0,0,0,.21,1.17l2.39,2.29a.25.25,0,0,0,.12.07v-2.14l-2.66-1.66Z"/><path class="cls-5" d="M480.09,332.33l2.88,1.8v2.4l-.15,0a.39.39,0,0,1-.19-.1l-2.39-2.29a1.58,1.58,0,0,1-.24-1.31Zm2.62,2-2.44-1.53,0,.08a1.31,1.31,0,0,0,.16,1l2.3,2.2Z"/><path class="cls-1" d="M514.78,332.82a1.44,1.44,0,0,1-.21,1.17l-2.39,2.29a.25.25,0,0,1-.12.07v-2.14l2.66-1.66Z"/><path class="cls-5" d="M514.81,332.33l.09.46a1.58,1.58,0,0,1-.24,1.31l-2.39,2.29a.39.39,0,0,1-.19.1l-.15,0v-2.4Zm-2.62,3.75,2.3-2.2a1.31,1.31,0,0,0,.16-1l0-.08-2.44,1.53Z"/><path class="cls-5" d="M490.4,348.43c0,4.79.77,9,1.92,11.44a33.09,33.09,0,0,1-1.39-10.13,40.47,40.47,0,0,1,.35-5.47h-.68C490.47,345.58,490.4,347,490.4,348.43Z"/><path class="cls-5" d="M504.5,348.43c0,4.79-.77,9-1.92,11.44A33.09,33.09,0,0,0,504,349.74a40.47,40.47,0,0,0-.35-5.47h.67C504.42,345.58,504.5,347,504.5,348.43Z"/><rect class="cls-1" x="487.56" y="311.51" width="19.78" height="19.22" transform="translate(994.9 642.24) rotate(180)"/><path d="M487.43,311.36h20v19.51h-20Zm19.78.29H487.69v18.94h19.52Z"/><path class="cls-1" d="M561.84,290.27a51.89,51.89,0,0,1,13.41,0c5.15.72,9,6.53,8.73,11.82q-1.18,26,0,52c.27,5-3.39,10.54-8.28,11.27a51.48,51.48,0,0,1-14.35,0c-4.88-.73-8.54-6.23-8.27-11.27q1.2-26,0-52C552.84,296.8,556.69,291,561.84,290.27Z"/><path class="cls-5" d="M568.55,289.64a52.18,52.18,0,0,1,6.72.44c5,.71,9.18,6.32,8.88,12-.79,17.26-.78,34.76,0,52,.29,5.4-3.65,10.76-8.42,11.47a51.83,51.83,0,0,1-14.4,0c-4.78-.71-8.71-6.07-8.43-11.47.8-17.26.81-34.76,0-52-.3-5.7,3.84-11.31,8.87-12h0A52.21,52.21,0,0,1,568.55,289.64Zm0,76.06a50.35,50.35,0,0,0,7.15-.5c4.6-.68,8.4-5.85,8.13-11.05-.81-17.28-.81-34.8,0-52.07.29-5.51-3.71-10.94-8.57-11.62a51.58,51.58,0,0,0-13.37,0c-4.85.68-8.86,6.11-8.57,11.62.79,17.27.78,34.79,0,52.06-.28,5.21,3.52,10.38,8.13,11.07A51.85,51.85,0,0,0,568.55,365.7Z"/><path class="cls-6" d="M557.85,300h21.39c0-.27,0-.55-.08-.83H557.94Z"/><path class="cls-5" d="M555.67,308.54l.19.71a78.71,78.71,0,0,1,2,18.94c0,.78,0,1.58,0,2.37v.06l-3.25,8.48v-.67c0-2-.07-3.92-.07-5.79,0-8,.36-15.88,1.05-23.36Zm2,22c0-.78,0-1.57,0-2.34a79.47,79.47,0,0,0-1.86-18.12c-.65,7.24-1,14.83-1,22.57,0,1.66,0,3.38.05,5.12Z"/><path class="cls-5" d="M581.42,308.54l.07.74c.7,7.48,1,15.34,1,23.36,0,1.86,0,3.81-.06,5.79l0,.67-3.25-8.54c0-.79,0-1.59,0-2.37a78.17,78.17,0,0,1,2.06-18.94Zm.81,29.22c0-1.75,0-3.47,0-5.12,0-7.74-.33-15.33-1-22.57a80,80,0,0,0-1.86,18.12c0,.77,0,1.56,0,2.34Z"/><path class="cls-1" d="M554.86,340.73v12.48c0,7.32,5.39,13.32,12,13.32h3.44c6.58,0,12-6,12-13.32V340.73a55.3,55.3,0,0,1-27.37,0Z"/><path d="M554.73,340.55l.16,0a53.89,53.89,0,0,0,13.66,1.71h.18a54.45,54.45,0,0,0,13.48-1.71l.15,0v12.66c0,7.42-5.42,13.46-12.09,13.46h-3.44c-6.67,0-12.1-6-12.1-13.46Zm15.54,25.83c6.52,0,11.83-5.91,11.83-13.17v-12.3a54.49,54.49,0,0,1-13.37,1.68h-.36A54.51,54.51,0,0,1,555,340.91v12.3c0,7.26,5.31,13.17,11.84,13.17Z"/><path class="cls-1" d="M558.66,311.51a59.16,59.16,0,0,0,19.78,0,35.4,35.4,0,0,0,.84-11.48H557.81A35.41,35.41,0,0,0,558.66,311.51Z"/><path d="M557.7,299.88h21.7V300a35.75,35.75,0,0,1-.85,11.54l0,.09-.08,0a59.93,59.93,0,0,1-19.82,0l-.09,0,0-.09a35.75,35.75,0,0,1-.84-11.54Zm21.46.29H557.93a35.5,35.5,0,0,0,.83,11.22,59.51,59.51,0,0,0,19.57,0A35.21,35.21,0,0,0,579.16,300.17Z"/><path class="cls-6" d="M557.81,300h21.47q0-.42-.09-.84H557.9Z"/><path class="cls-1" d="M579.19,299.19v-6a23.41,23.41,0,0,0-21.29,0v6Z"/><path d="M568.55,290.5a21.5,21.5,0,0,1,10.71,2.58l.06,0v6.22H557.77v-6.22l.07,0A21.45,21.45,0,0,1,568.55,290.5Zm10.51,2.79a23.36,23.36,0,0,0-21,0v5.76h21Z"/><path class="cls-6" d="M555,340.81l-.27.8a47.14,47.14,0,0,0,27.73,0l-.26-.8A47.18,47.18,0,0,1,555,340.81Z"/><path class="cls-1" d="M581.76,340.85l-3.32-10.12H558.66l-3.33,10.12A45.75,45.75,0,0,0,581.76,340.85Z"/><path d="M558.57,330.59h20l3.4,10.36-.13,0a45.82,45.82,0,0,1-26.5,0l-.14,0Zm19.78.28h-19.6l-3.25,9.88a45.62,45.62,0,0,0,26.09,0Z"/><path class="cls-5" d="M557.94,293.21h-.14a3.1,3.1,0,0,0-2.92,3.25v.25A7.51,7.51,0,0,1,557.94,293.21Z"/><path class="cls-5" d="M579.15,293.21h.14a3.11,3.11,0,0,1,2.93,3.25v.25A7.53,7.53,0,0,0,579.15,293.21Z"/><path class="cls-1" d="M551.22,332.82a1.44,1.44,0,0,0,.21,1.17l2.38,2.29a.33.33,0,0,0,.13.07v-2.14l-2.66-1.66Z"/><path class="cls-5" d="M551.19,332.33l2.88,1.8v2.4l-.16,0a.41.41,0,0,1-.18-.1l-2.39-2.29a1.61,1.61,0,0,1-.25-1.31Zm2.62,2-2.45-1.53v.08a1.31,1.31,0,0,0,.16,1l2.3,2.2Z"/><path class="cls-1" d="M585.88,332.82a1.44,1.44,0,0,1-.21,1.17l-2.39,2.29a.24.24,0,0,1-.13.07v-2.14l2.67-1.66Z"/><path class="cls-5" d="M585.91,332.33l.09.46a1.54,1.54,0,0,1-.25,1.31l-2.39,2.29a.32.32,0,0,1-.18.1l-.16,0v-2.4Zm-2.63,3.75,2.3-2.2a1.31,1.31,0,0,0,.17-1l0-.08-2.45,1.53Z"/><path class="cls-5" d="M561.5,348.43c0,4.79.77,9,1.92,11.44A32.78,32.78,0,0,1,562,349.74a40.47,40.47,0,0,1,.35-5.47h-.68C561.57,345.58,561.5,347,561.5,348.43Z"/><path class="cls-5" d="M575.59,348.43c0,4.79-.76,9-1.92,11.44a32.75,32.75,0,0,0,1.4-10.13,42.17,42.17,0,0,0-.35-5.47h.67C575.52,345.58,575.59,347,575.59,348.43Z"/><rect class="cls-1" x="558.66" y="311.51" width="19.78" height="19.22" transform="translate(1137.09 642.24) rotate(180)"/><path d="M558.53,311.36h20v19.51h-20Zm19.78.29H558.79v18.94h19.52Z"/><line class="繧ｰ繝ｩ繝輔ぅ繝け繧ｹ繧ｿ繧､繝ｫ" x1="161.07" y1="379.03" x2="609.66" y2="379.03"/><line class="繧ｰ繝ｩ繝輔ぅ繝け繧ｹ繧ｿ繧､繝ｫ" x1="161.07" y1="458.18" x2="609.66" y2="458.18"/><polyline class="cls-7" points="211.29 392.12 201.93 379.03 201.93 458.18 194.68 448.74"/><rect class="繧ｰ繝ｩ繝輔ぅ繝け繧ｹ繧ｿ繧､繝ｫ-3" x="213.08" y="64.33" width="108.84" height="187.79"/><rect class="繧ｰ繝ｩ繝輔ぅ繝け繧ｹ繧ｿ繧､繝ｫ-3" x="346.06" y="64.33" width="108.84" height="187.79"/><rect class="繧ｰ繝ｩ繝輔ぅ繝け繧ｹ繧ｿ繧､繝ｫ-3" x="476" y="64.33" width="108.84" height="182.35"/><rect class="cls-8" x="213.08" y="262.78" width="35.35" height="6.27" transform="translate(461.52 531.84) rotate(180)"/><rect class="cls-8" x="213.08" y="269.05" width="35.35" height="6.27" transform="translate(461.52 544.38) rotate(180)"/><rect class="cls-8" x="213.08" y="275.33" width="35.35" height="6.27" transform="translate(461.52 556.92) rotate(180)"/><rect class="cls-8" x="213.08" y="243.19" width="35.35" height="19.59" transform="translate(461.52 505.98) rotate(-180)"/><polygon points="230.76 247.46 225.53 255.81 235.99 255.81 230.76 247.46"/><rect class="cls-8" x="346.09" y="254.87" width="35.35" height="6.27" transform="translate(727.53 516.01) rotate(180)"/><rect class="cls-8" x="346.09" y="261.14" width="35.35" height="6.27" transform="translate(727.53 528.55) rotate(180)"/><rect class="cls-8" x="346.09" y="235.28" width="35.35" height="19.59" transform="translate(727.53 490.15) rotate(-180)"/><polygon points="363.76 239.55 358.53 247.89 368.99 247.89 363.76 239.55"/><rect class="cls-8" x="475.26" y="247.04" width="35.58" height="23.89" transform="translate(986.09 517.96) rotate(-180)"/><rect class="cls-8" x="511.12" y="247.04" width="6.62" height="23.89" transform="translate(1028.86 517.96) rotate(180)"/><rect class="cls-8" x="517.67" y="247.04" width="6.62" height="23.89" transform="translate(1041.96 517.96) rotate(180)"/><polygon points="492.93 251.02 487.7 259.36 498.16 259.36 492.93 251.02"/><path d="M265.58,107.86a38.63,38.63,0,0,1-6.13,1.9l-.7-2.37a25.18,25.18,0,0,0,7.65-2.81h2.11v26.06h-2.93Z"/><path d="M260,151.94a30.06,30.06,0,0,1-1,3.09h17.75a30,30,0,0,1-1.67,9c-.79,1.77-1.8,2.28-4.65,2.28-1.67,0-3.91-.1-5.46-.22l-.57-2.4c2.18.19,4.3.31,5.81.31s2.06-.25,2.5-1.26a29.62,29.62,0,0,0,1.2-5.59H258.06c-.41.88-.86,1.8-1.33,2.68l-2.56-.72a43,43,0,0,0,3.13-7.2h-7v-2.15h30v2.15Zm15.61-5H254.93v-9h20.63Zm-18.07-2H273V140H257.49Z"/><path d="M255.88,184.6a37.5,37.5,0,0,1-3.82,8.56l-1.17-2.52a35.92,35.92,0,0,0,4.77-11.4h-4.33V177h4.55v-6.75h2.34V177h3.28v2.22h-3.28v2.93a36.11,36.11,0,0,1,3.88,3.7L260.77,188a36.06,36.06,0,0,0-2.55-3.25v15.54h-2.34ZM273.5,189a23.58,23.58,0,0,0,8.06,7.13l-1.49,2.22a26.12,26.12,0,0,1-8.15-8.09v10h-2.24v-9.82a24.33,24.33,0,0,1-8.12,8.34L260,196.86a22.47,22.47,0,0,0,8.28-7.86h-5.84V177.75h7.26v-2.34h-8.91v-2h8.91v-3.09h2.24v3.09H281v2h-9.1v2.34h7.49V189Zm-8.84-9.32v2.68h5v-2.68Zm0,4.61V187h5v-2.75Zm7.26-1.93h5.28v-2.68h-5.28Zm0,4.68h5.28v-2.75h-5.28Z"/><path d="M391.91,128.14c.82-3.38,3.6-6.76,7.86-9.6l.82-.54c4.42-2.87,5.59-4.26,5.59-6.57,0-2.59-2.15-4.33-5.4-4.33-2.65,0-4.52,1-6.54,3.38l-2-1.67a10.17,10.17,0,0,1,8.66-4.23c4.93,0,8.53,2.9,8.53,6.91,0,3.2-1.24,4.68-6.89,8.28l-1.14.73c-3.76,2.46-6.12,5.18-6.41,7.45h14.82v2.69H391.91Z"/><path d="M394.72,151.94a32.55,32.55,0,0,1-1.05,3.09h17.76a30.31,30.31,0,0,1-1.68,9c-.79,1.77-1.8,2.28-4.64,2.28-1.68,0-3.92-.1-5.47-.22l-.56-2.4c2.17.19,4.29.31,5.81.31s2.05-.25,2.49-1.26a28.84,28.84,0,0,0,1.2-5.59H392.82c-.41.88-.85,1.8-1.33,2.68l-2.55-.72a43,43,0,0,0,3.12-7.2h-7v-2.15h30v2.15Zm15.6-5H389.69v-9h20.63Zm-18.07-2h15.51V140H392.25Z"/><path d="M390.64,184.6a37.08,37.08,0,0,1-3.82,8.56l-1.17-2.52a35.69,35.69,0,0,0,4.77-11.4h-4.33V177h4.55v-6.75H393V177h3.28v2.22H393v2.93a35.2,35.2,0,0,1,3.88,3.7L395.54,188a36.35,36.35,0,0,0-2.56-3.25v15.54h-2.34Zm17.63,4.4a23.55,23.55,0,0,0,8.05,7.13l-1.48,2.22a25.91,25.91,0,0,1-8.15-8.09v10h-2.25v-9.82a24.39,24.39,0,0,1-8.11,8.34l-1.58-1.93A22.52,22.52,0,0,0,403,189h-5.84V177.75h7.26v-2.34h-8.9v-2h8.9v-3.09h2.25v3.09h9.09v2h-9.09v2.34h7.48V189Zm-8.85-9.32v2.68h5v-2.68Zm0,4.61V187h5v-2.75Zm7.27-1.93H412v-2.68h-5.27Zm0,4.68H412v-2.75h-5.27Z"/><path d="M528.24,116c4.52,0,7-1.64,7-4.61,0-2.62-2.12-4.27-5.53-4.27a7.74,7.74,0,0,0-6.19,2.75l-1.87-1.77a11,11,0,0,1,8.12-3.47c5.09,0,8.62,2.68,8.62,6.54,0,3.19-2.33,5.37-6.22,5.84v.13c4.58.31,7.24,2.77,7.24,6.66,0,4.52-3.73,7.39-9.67,7.39-3.85,0-6.76-1.14-9-3.57l1.86-1.86a9.68,9.68,0,0,0,7.11,2.84c4,0,6.47-1.89,6.47-5,0-3.54-2.52-5.18-8-5.18h-2V116Z"/><path d="M524.17,151.94c-.32,1.13-.7,2.21-1,3.09h17.75a30.31,30.31,0,0,1-1.68,9c-.79,1.77-1.8,2.28-4.64,2.28-1.67,0-3.92-.1-5.46-.22l-.57-2.4c2.18.19,4.29.31,5.81.31s2-.25,2.49-1.26a28.84,28.84,0,0,0,1.2-5.59H522.27c-.41.88-.85,1.8-1.32,2.68l-2.56-.72a43,43,0,0,0,3.13-7.2h-7v-2.15h30v2.15Zm15.6-5H519.15v-9h20.62Zm-18.07-2h15.51V140H521.7Z"/><path d="M520.09,184.6a37.08,37.08,0,0,1-3.82,8.56l-1.17-2.52a35.47,35.47,0,0,0,4.77-11.4h-4.32V177h4.54v-6.75h2.34V177h3.29v2.22h-3.29v2.93a36.23,36.23,0,0,1,3.89,3.7L525,188a36.35,36.35,0,0,0-2.56-3.25v15.54h-2.34Zm17.63,4.4a23.55,23.55,0,0,0,8,7.13l-1.48,2.22a25.91,25.91,0,0,1-8.15-8.09v10H533.9v-9.82a24.42,24.42,0,0,1-8.12,8.34l-1.58-1.93a22.62,22.62,0,0,0,8.28-7.86h-5.85V177.75h7.27v-2.34H525v-2h8.91v-3.09h2.24v3.09h9.1v2h-9.1v2.34h7.49V189Zm-8.85-9.32v2.68h5v-2.68Zm0,4.61V187h5v-2.75Zm7.27-1.93h5.27v-2.68h-5.27Zm0,4.68h5.27v-2.75h-5.27Z"/></g></svg>