<svg xmlns="http://www.w3.org/2000/svg" width="700" height="500" viewBox="0 0 700 500"><defs><style>.cls-1,.cls-11,.cls-12,.cls-13,.cls-9{fill:#fff;}.cls-2{fill:#e83589;}.cls-10,.cls-3,.cls-4,.cls-5{fill:none;}.cls-10,.cls-11,.cls-12,.cls-13,.cls-3,.cls-4,.cls-5,.cls-6,.cls-9{stroke:#000;}.cls-3,.cls-4{stroke-linecap:round;stroke-linejoin:round;}.cls-3{stroke-width:1.98px;}.cls-4{stroke-width:2.52px;}.cls-5{stroke-linejoin:bevel;stroke-width:1.5px;}.cls-6{fill:#d8eacc;}.cls-10,.cls-6,.cls-9{stroke-width:2px;}.cls-7{fill:#030201;}.cls-8{fill:#242323;}.cls-10,.cls-11,.cls-12,.cls-13,.cls-9{stroke-miterlimit:10;}.cls-11{stroke-width:1.02px;}.cls-12{stroke-width:1.09px;}.cls-13{stroke-width:1.26px;}</style></defs><title>kukakuzu</title><g id="レイヤー_5" data-name="レイヤー 5"><rect class="cls-1" x="-1575.03" y="-4357.26" width="5667.56" height="5248"/></g><g id="レイヤー_2" data-name="レイヤー 2"><rect class="cls-2" x="136.27" y="90.97" width="39.3" height="95.53" transform="translate(17.19 294.66) rotate(-90)"/><path class="cls-1" d="M125.39,144.58h15.55v2.1H125.39v1.41h-2.32V129.53H140.4v2h-15Zm.69-2.34a19.49,19.49,0,0,0,5.41-4,52.78,52.78,0,0,0-4.83-3.53l1.41-1.58a58.2,58.2,0,0,1,4.85,3.41,27.37,27.37,0,0,0,2.69-4.44l2.1,1a30.53,30.53,0,0,1-3,4.86c1.16,1,2.7,2.32,4.25,3.79l-1.64,1.72c-1.34-1.35-2.86-2.73-4.08-3.79a21.08,21.08,0,0,1-5.77,4.35Z"/><path class="cls-1" d="M154.55,131.35h-8.69v-1.86h19.7v1.86h-8.81v2h4.44v10.35h-11V133.34h4.33ZM162.76,145v-11.7h2.12v14.75h-2.12V147H148.64v1.14h-2.09V133.34h2.09V145Zm-10.57-10v2.51h2.45V135Zm0,4.11V142h2.45v-2.8Zm4.48-1.6h2.55V135h-2.55Zm0,4.4h2.55v-2.8h-2.55Z"/><path class="cls-1" d="M188.75,148.09h-2.26V147H173.06v1.06h-2.24V129.34h17.93Zm-15.69-3h13.43V131.23H173.06Zm11.51-.89c-1.31-.81-2.85-1.68-4.23-2.39a17.6,17.6,0,0,1-5.38,3l-1.28-1.55a13.65,13.65,0,0,0,4.66-2.45l-.53-.25c-1.35-.66-2.35-1.1-4.11-1.83l.93-1.53c2.1.77,3.3,1.25,5.29,2.18a17.63,17.63,0,0,0,3.86-7l2,.62a23.63,23.63,0,0,1-3.94,7.34l.19.1c1,.52,2.17,1.14,3.75,2.08Zm-8.73-6.78a19.26,19.26,0,0,0-1.66-4.07l1.9-.76a20.53,20.53,0,0,1,1.73,4Zm3.56-.81a24.4,24.4,0,0,0-1.68-4.09l1.83-.72a19.21,19.21,0,0,1,1.72,4Z"/><polyline class="cls-3" points="181.21 213.35 181.21 197.13 190.75 213.35 190.75 197.13"/><circle class="cls-4" cx="154.73" cy="246.98" r="33.63"/><polygon points="142.53 261.36 148.22 278.92 175.97 221.97 124.27 258.59 142.53 261.36"/><polyline class="cls-5" points="239.83 414.45 244.89 408.7 244.89 477.37 249.53 471.36"/><path d="M259.41,463.37c-.66,1.65-1.69,2.52-3,2.52-1.89,0-3.26-1.76-3.26-4.16s1.34-4.12,3.15-4.12a2.64,2.64,0,0,1,2.15,1.05,4.22,4.22,0,0,1,.84,1.68h.05c.61-2,1.78-3.11,3.28-3.11,2,0,3.33,1.83,3.33,4.51s-1.29,4.5-3.27,4.5c-1.48,0-2.63-1-3.2-2.87Zm-3-4.33a2.39,2.39,0,0,0-2.2,2.67c0,1.59.9,2.68,2.2,2.68a1.68,1.68,0,0,0,1.43-.62,6.68,6.68,0,0,0,.61-1,5.71,5.71,0,0,0,.35-1.07C258.43,460.08,257.5,459,256.41,459Zm4.6,5a2,2,0,0,0,1.51.69c1.37,0,2.24-1.16,2.24-3s-.94-3-2.3-3a2,2,0,0,0-1.53.76,4.9,4.9,0,0,0-.85,1.55,7.54,7.54,0,0,0-.21.75A5.09,5.09,0,0,0,261,464Z"/><path d="M263.53,453.13h2.18v2.18h-2.18Z"/><path d="M259.61,448.87a3.64,3.64,0,0,1-1.8-3.26,3.87,3.87,0,0,1,3.89-4,4,4,0,0,1,4.23,4.15,4.11,4.11,0,0,1-1.86,3.58,6,6,0,0,1-3.71,1,7.86,7.86,0,0,1-4.75-1.88,9.31,9.31,0,0,1-2.85-4.5l1.09-.54c1.11,3.11,3.17,5.06,5.76,5.44Zm2.12-.16a3,3,0,0,0,3-2.88,2.75,2.75,0,0,0-2.94-2.72,2.66,2.66,0,0,0-2.85,2.74A2.94,2.94,0,0,0,261.73,448.71Z"/><path d="M259.53,432a3.67,3.67,0,0,1,2.09,3.33,3.88,3.88,0,0,1-4.05,4,4.56,4.56,0,0,1-3.14-1.25,4,4,0,0,1-1.3-3c0-2.73,2.16-4.46,5.59-4.46,4.78,0,6.95,2,7.41,6.88L265,438c-.16-3.91-1.87-5.82-5.47-6.11Zm-2.09,5.86a2.74,2.74,0,0,0,3-2.72,2.84,2.84,0,0,0-1.07-2.16,3.22,3.22,0,0,0-1.93-.76,3.75,3.75,0,0,0-2.3.85,2.42,2.42,0,0,0-.86,1.95A3,3,0,0,0,257.44,437.84Z"/><path d="M259.53,419.15c4,0,6.4,1.76,6.4,4.58s-2.45,4.57-6.4,4.57-6.4-1.75-6.4-4.59S255.58,419.15,259.53,419.15Zm0,7.66c3.2,0,5.18-1.18,5.18-3.1s-2-3.06-5.18-3.06-5.2,1.17-5.2,3.09S256.33,426.81,259.53,426.81Z"/><path d="M367.3,424.2h8.22v1.31h-3.34v11.82c0,1.13-.41,1.5-1.62,1.5-.57,0-1.66-.05-2.48-.11l-.3-1.35a23.76,23.76,0,0,0,2.42.14c.47,0,.59-.12.59-.62V425.51H367.3v9.36h-6.69v1.53h-1.27V422.58h8Zm-6.69,3.66h2v-4.08h-2Zm0,5.8h2V429h-2Zm5.44-9.88h-2.14v4.08h2.14Zm0,5.24h-2.14v4.64h2.14Z"/><path d="M382.56,435.12c1.44,1.45,3.1,2,6.1,2h7a6,6,0,0,0-.43,1.26h-6.78c-3.12,0-4.85-.62-6.39-2.17a18.08,18.08,0,0,1-2.78,2.62l-.78-1.27a17.16,17.16,0,0,0,2.69-2.05v-4.78h-2.64v-1.21h4Zm-.77-8.9a17.63,17.63,0,0,0-2.61-3l1-.82a18,18,0,0,1,2.67,2.9Zm1.75-1v-1.12h3.15a10.38,10.38,0,0,0-1.14-1.71l1.25-.48a13,13,0,0,1,1.29,2.19h2.31a17,17,0,0,0,1-2.23l1.41.36a15.13,15.13,0,0,1-1,1.87h3.33v1.12H390c-.09.31-.38,1.06-.56,1.48h4.48v9.1H384.8v-9.1h3.29a12.38,12.38,0,0,0,.46-1.48Zm2.58,4.14h6.42v-1.64h-6.42Zm0,2.59h6.42v-1.63h-6.42Zm0,2.8h6.42V433h-6.42Z"/><path d="M289.9,452.66a21.05,21.05,0,0,0-2.78-2.74l.95-1a17.05,17.05,0,0,1,2.83,2.67Zm-2.35,7.26a26.71,26.71,0,0,0,3.14-5.85l1.12.88a29.82,29.82,0,0,1-3.12,6Zm3-11.81a19.63,19.63,0,0,0-2.71-2.78l.92-.92a16.27,16.27,0,0,1,2.79,2.65Zm7.06,5.07,0,0a39.3,39.3,0,0,1-2.53,5.53l-.07.16,1.32-.11c1.32-.11,3.33-.32,4.92-.54-.55-.92-1.19-1.89-1.87-2.83l1.12-.63a32.78,32.78,0,0,1,3.52,5.41l-1.27.8c-.41-.84-.59-1.19-.89-1.73l-.18,0c-2,.39-6.19.94-9.11,1.19l-.47-1.41.71,0,.22,0,.48,0a40.48,40.48,0,0,0,2.64-5.92h-4.49V451.9h5.44v-3.61H292.6v-1.23h4.48v-2.87h1.39v2.87h4.74v1.23h-4.74v3.61h5.67v1.19h-6.49Z"/><path d="M316.33,445.35V455h2.77v1.37h-2.77v3.52h-1.57v-3.52h-7.35V455l7-9.67Zm-1.57,4.51c0-.82,0-2.21.09-3.08h-.07a20.91,20.91,0,0,1-1.3,2.26l-4.25,6h5.53Z"/><path d="M324.1,458.48c.46-1.91,2-3.82,4.44-5.42l.46-.31c2.5-1.62,3.16-2.4,3.16-3.71,0-1.46-1.21-2.44-3.05-2.44a4.44,4.44,0,0,0-3.69,1.91l-1.13-.95a5.76,5.76,0,0,1,4.89-2.39c2.78,0,4.82,1.64,4.82,3.91,0,1.8-.7,2.64-3.89,4.67l-.64.41c-2.13,1.39-3.46,2.93-3.63,4.21h8.37v1.52H324.1Z"/><path d="M347.68,461.14h-1.37v-5.71a17.35,17.35,0,0,1-6.94,5l-.82-1.14a17.48,17.48,0,0,0,6.6-4.19h-6.53v-1.2h7.69V452h1.37v1.94h7.82v1.2h-6.6a18.77,18.77,0,0,0,6.7,3.78l-.87,1.25a18.13,18.13,0,0,1-7.05-4.8Zm4.84-15.27a16.63,16.63,0,0,1-4.1,3.73,24.48,24.48,0,0,0,6.77,2.1l-.73,1.21a27.37,27.37,0,0,1-7.26-2.55,24.66,24.66,0,0,1-7.47,2.73L339,452a23.8,23.8,0,0,0,7.08-2.34,21.87,21.87,0,0,1-2.54-2.25,14.29,14.29,0,0,1-3.1,1.91l-.87-.93a12.29,12.29,0,0,0,5.33-4.26l1.36.27c-.27.41-.34.48-.59.82h6.1Zm-7.78.44a4,4,0,0,1-.28.29,13.48,13.48,0,0,0,2.8,2.34,16.09,16.09,0,0,0,3.19-2.63Z"/><path d="M364.55,447a21.81,21.81,0,0,1-3.46,1.07l-.39-1.34a14.2,14.2,0,0,0,4.31-1.59h1.2v14.72h-1.66Z"/><path d="M378.13,455.48l.11,0,.07,0a18.89,18.89,0,0,0,2-.77l.15,1.27a49.79,49.79,0,0,1-5.76,2.11l-.5-1.38c1-.27,1.14-.3,2.1-.59l.43-.12v-8.39h-2.32v-1.26h5.65v1.26h-1.94Zm1.27,4.68a10.8,10.8,0,0,0,3.74-2.47l1.09.74a13.11,13.11,0,0,1-3.85,2.76ZM389.76,448v9.51H381.2V448H384a14.34,14.34,0,0,0,.48-1.82H380V445h11v1.17h-5.18a14.33,14.33,0,0,1-.6,1.82Zm-7.24,1.09v1.73h5.9v-1.73Zm0,4.44h5.9v-1.66h-5.9Zm0,2.87h5.9v-1.83h-5.9Zm7.53,4.75a24.65,24.65,0,0,0-3.57-2.68l1-.78a23.88,23.88,0,0,1,3.64,2.46Z"/><path d="M400.24,447a21.81,21.81,0,0,1-3.46,1.07l-.39-1.34a14.2,14.2,0,0,0,4.31-1.59h1.2v14.72h-1.66Z"/><path d="M415.44,452.88a17.94,17.94,0,0,1-.58,1.75h10a16.82,16.82,0,0,1-.95,5.1c-.44,1-1,1.28-2.62,1.28-.94,0-2.21-.05-3.08-.12l-.32-1.36c1.23.11,2.42.18,3.28.18s1.16-.14,1.41-.71a16.45,16.45,0,0,0,.67-3.16h-8.9c-.23.5-.48,1-.75,1.52l-1.44-.41a25.29,25.29,0,0,0,1.77-4.07h-4v-1.22h16.94v1.22Zm8.82-2.84H412.61V445h11.65Zm-10.21-1.14h8.76v-2.75h-8.76Z"/><path d="M434,457.43c1.44,1.44,3.1,2,6.1,2h7a6.53,6.53,0,0,0-.43,1.27h-6.78c-3.12,0-4.85-.63-6.38-2.18a17.67,17.67,0,0,1-2.78,2.63l-.79-1.27a16.71,16.71,0,0,0,2.69-2.05v-4.78H430v-1.22h4Zm-.77-8.9a18.57,18.57,0,0,0-2.6-3l1-.82a17.64,17.64,0,0,1,2.67,2.91Zm1.75-.95v-1.12h3.16a12.48,12.48,0,0,0-1.14-1.72l1.24-.48a12.8,12.8,0,0,1,1.29,2.2h2.32a17.56,17.56,0,0,0,1-2.23l1.41.35a14.62,14.62,0,0,1-1,1.88h3.34v1.12h-5.16c-.09.3-.37,1.05-.55,1.48h4.48v9.1H436.2v-9.1h3.28a13,13,0,0,0,.46-1.48Zm2.59,4.14h6.42v-1.64h-6.42Zm0,2.59h6.42v-1.63h-6.42Zm0,2.8h6.42v-1.79h-6.42Z"/><path d="M456.83,450.72h-2.3v2.82h2.31v1.18h-2.31v3.72c.48-.12,1.83-.51,2.72-.8l.13,1.16a63.31,63.31,0,0,1-7,2l-.46-1.27.94-.2v-6.95h1.22v6.69l.44-.11.43-.11.37-.09v-8h-2.6v-5.8h6.14ZM452,449.56h3.6v-3.44H452Zm13.64-3.5a15,15,0,0,1-2.62,4.3,14.72,14.72,0,0,0,4.08,2.48l-.67,1.18a15.67,15.67,0,0,1-4.27-2.78,14.72,14.72,0,0,1-4.62,2.94l-.71-1.11a11.74,11.74,0,0,0,4.46-2.72,12.31,12.31,0,0,1-1.61-2.27l-.07.09,0,.05a12.14,12.14,0,0,1-1.57,1.63l-.88-1a10.79,10.79,0,0,0,3.27-4.73l1.32.22c-.2.46-.25.6-.39.91h3.46Zm-.07,15.08h-1.3v-1.06h-4.55v1.06h-1.3v-7h7.15Zm-5.85-2.23h4.55V455.3h-4.55Zm.62-11.79a11.61,11.61,0,0,0,1.77,2.39,12.33,12.33,0,0,0,1.93-3h-3.32l-.3.52Z"/><polygon class="cls-6" points="244.85 30.75 244.85 167.31 388.54 167.31 388.54 409.87 493.9 409.87 493.9 167.31 493.9 30.75 244.85 30.75"/><polygon class="cls-6" points="394.98 409.87 244.85 409.87 244.85 167.31 410.88 167.31 410.88 389.13 394.98 409.87"/><path class="cls-1" d="M316.85,317.74a69.54,69.54,0,0,1,16.44,0c6.31.79,11,7.19,10.7,13a560.89,560.89,0,0,0,0,57.41c.32,5.56-4.16,11.63-10.15,12.43a70,70,0,0,1-17.6,0c-6-.8-10.47-6.87-10.15-12.43a560.89,560.89,0,0,0,0-57.41C305.81,324.93,310.53,318.53,316.85,317.74Z"/><path class="cls-7" d="M325.07,317a69.05,69.05,0,0,1,8.25.49c6.16.77,11.25,7,10.88,13.26a560.51,560.51,0,0,0,0,57.39,12.53,12.53,0,0,1-10.34,12.65,70.36,70.36,0,0,1-17.64,0,12.53,12.53,0,0,1-10.34-12.65,566.28,566.28,0,0,0,0-57.39c-.37-6.29,4.72-12.49,10.88-13.26h0A68.93,68.93,0,0,1,325.07,317Zm0,83.92a71.46,71.46,0,0,0,8.77-.55,12.07,12.07,0,0,0,10-12.2,564.36,564.36,0,0,1,0-57.44c.35-6.08-4.56-12.07-10.52-12.82a70.2,70.2,0,0,0-16.39,0c-5.95.75-10.86,6.74-10.51,12.82a561.29,561.29,0,0,1,0,57.43,12.1,12.1,0,0,0,10,12.21A71.46,71.46,0,0,0,325.07,401Z"/><path class="cls-8" d="M312,328.51h26.22c0-.31-.06-.62-.1-.92h-26C312,327.89,312,328.2,312,328.51Z"/><path class="cls-7" d="M309.28,337.9l.23.78A78,78,0,0,1,312,359.57c0,.87,0,1.75,0,2.62v.06l-4,9.36,0-.74c-.05-2.17-.08-4.32-.08-6.39a249.75,249.75,0,0,1,1.29-25.77Zm2.4,24.25c0-.86,0-1.73,0-2.58a79.87,79.87,0,0,0-2.28-20c-.8,8-1.2,16.36-1.2,24.9,0,1.83,0,3.73.06,5.65Z"/><path class="cls-7" d="M340.86,337.9l.08.81a252.59,252.59,0,0,1,1.29,25.77c0,2,0,4.2-.08,6.39l0,.74-4-9.42c0-.87,0-1.75,0-2.62a78,78,0,0,1,2.52-20.89Zm1,32.23c0-1.94.06-3.83.06-5.65,0-8.54-.4-16.91-1.2-24.9a79.41,79.41,0,0,0-2.28,20c0,.85,0,1.72,0,2.58Z"/><path class="cls-1" d="M308.29,373.41v13.76A14.73,14.73,0,0,0,323,401.87h4.22a14.73,14.73,0,0,0,14.67-14.7V373.41a75.43,75.43,0,0,1-33.56,0Z"/><path d="M308.13,373.21l.19,0a73.24,73.24,0,0,0,16.75,1.89h.22a73.68,73.68,0,0,0,16.53-1.89l.19,0v14A14.86,14.86,0,0,1,327.18,402H323a14.86,14.86,0,0,1-14.83-14.86Zm19.05,28.5a14.54,14.54,0,0,0,14.51-14.54V373.61a74.17,74.17,0,0,1-16.4,1.85h-.44a74.17,74.17,0,0,1-16.4-1.85v13.56A14.54,14.54,0,0,0,323,401.71Z"/><path class="cls-1" d="M312.94,341.17a80.86,80.86,0,0,0,24.26,0,35.38,35.38,0,0,0,1-12.67H311.91A35.15,35.15,0,0,0,312.94,341.17Z"/><path d="M311.76,328.34h26.61l0,.14a35.47,35.47,0,0,1-1,12.73l0,.1-.1,0a81.13,81.13,0,0,1-24.3,0l-.1,0,0-.1a35.47,35.47,0,0,1-1-12.73Zm26.33.32h-26a35.33,35.33,0,0,0,1,12.37,81.12,81.12,0,0,0,24,0A35.34,35.34,0,0,0,338.09,328.66Z"/><path class="cls-8" d="M311.91,328.5h26.32c0-.31-.07-.62-.11-.92H312C312,327.88,311.94,328.19,311.91,328.5Z"/><path class="cls-1" d="M338.12,327.58V321a31.61,31.61,0,0,0-26.1,0v6.61Z"/><path d="M325.07,318a28.7,28.7,0,0,1,13.13,2.84l.08,0v6.87H311.86v-6.87l.08,0A28.67,28.67,0,0,1,325.07,318ZM338,321.07a31.5,31.5,0,0,0-25.79,0v6.35H338Z"/><path class="cls-8" d="M308.39,373.49l-.32.89a63.91,63.91,0,0,0,34,0l-.33-.89A63.94,63.94,0,0,1,308.39,373.49Z"/><path class="cls-1" d="M341.28,373.54l-4.08-11.17H312.94l-4.08,11.17A62.32,62.32,0,0,0,341.28,373.54Z"/><path d="M312.83,362.21h24.48l4.17,11.43-.16.05a62.21,62.21,0,0,1-32.5,0l-.17-.05Zm24.25.32h-24l-4,10.9a62,62,0,0,0,32,0Z"/><path class="cls-7" d="M312.06,321h-.16a3.59,3.59,0,0,0-3.59,3.59v.26A8.67,8.67,0,0,1,312.06,321Z"/><path class="cls-7" d="M338.07,321h.17a3.59,3.59,0,0,1,3.59,3.59v.26A8.64,8.64,0,0,0,338.07,321Z"/><path class="cls-1" d="M303.82,364.68a1.44,1.44,0,0,0,.26,1.28l2.92,2.53a.3.3,0,0,0,.16.08v-2.36l-3.27-1.83Z"/><path class="cls-7" d="M303.79,364.14l3.53,2v2.65l-.19,0a.57.57,0,0,1-.23-.12L304,366.08a1.58,1.58,0,0,1-.3-1.44Zm3.21,2.17-3-1.69,0,.09a1.32,1.32,0,0,0,.2,1.13l2.82,2.44Z"/><path class="cls-1" d="M346.32,364.68a1.44,1.44,0,0,1-.26,1.28l-2.93,2.53a.28.28,0,0,1-.15.08v-2.36l3.27-1.83Z"/><path class="cls-7" d="M346.35,364.14l.12.5a1.58,1.58,0,0,1-.3,1.44l-2.93,2.53a.57.57,0,0,1-.23.12l-.19,0v-2.65Zm-3.21,4.14,2.82-2.44a1.32,1.32,0,0,0,.2-1.13l0-.09-3,1.69Z"/><path class="cls-7" d="M316.43,381.9c0,5.29.94,9.93,2.35,12.62a32.92,32.92,0,0,1-1.71-11.18,40.58,40.58,0,0,1,.44-6h-.83A42,42,0,0,0,316.43,381.9Z"/><path class="cls-7" d="M333.71,381.9c0,5.29-.94,9.93-2.35,12.62a32.92,32.92,0,0,0,1.71-11.18,40.58,40.58,0,0,0-.44-6h.83A42,42,0,0,1,333.71,381.9Z"/><rect class="cls-1" x="312.94" y="341.17" width="24.25" height="21.21" transform="translate(650.14 703.54) rotate(180)"/><path d="M312.78,341h24.58v21.52H312.78Zm24.26.32H313.1v20.88H337Z"/><path class="cls-1" d="M443,317.74a69.54,69.54,0,0,1,16.44,0c6.32.79,11,7.19,10.7,13a560.89,560.89,0,0,0,0,57.41c.32,5.56-4.16,11.63-10.15,12.43a70,70,0,0,1-17.6,0c-6-.8-10.47-6.87-10.15-12.43a560.89,560.89,0,0,0,0-57.41C432,324.93,436.71,318.53,443,317.74Z"/><path class="cls-7" d="M451.25,317a68.93,68.93,0,0,1,8.25.49c6.16.77,11.25,7,10.88,13.26a566.28,566.28,0,0,0,0,57.39,12.53,12.53,0,0,1-10.33,12.65,70.44,70.44,0,0,1-17.65,0,12.53,12.53,0,0,1-10.34-12.65,563.38,563.38,0,0,0,0-57.39c-.37-6.29,4.72-12.49,10.88-13.26h0A69.05,69.05,0,0,1,451.25,317Zm0,83.92a71.46,71.46,0,0,0,8.77-.55,12.09,12.09,0,0,0,10-12.2,561.48,561.48,0,0,1,0-57.44c.35-6.08-4.56-12.07-10.51-12.82a70.28,70.28,0,0,0-16.4,0c-5.95.75-10.86,6.74-10.51,12.82a564.16,564.16,0,0,1,0,57.43,12.08,12.08,0,0,0,10,12.21A71.46,71.46,0,0,0,451.25,401Z"/><path class="cls-8" d="M438.14,328.51h26.22c0-.31-.06-.62-.1-.92h-26C438.2,327.89,438.17,328.2,438.14,328.51Z"/><path class="cls-7" d="M435.46,337.9l.23.78a78,78,0,0,1,2.52,20.89c0,.87,0,1.75,0,2.62v.06l-4,9.36,0-.74c-.05-2.17-.08-4.32-.08-6.39a252.59,252.59,0,0,1,1.29-25.77Zm2.4,24.25c0-.86,0-1.73,0-2.58a79.41,79.41,0,0,0-2.28-20c-.8,8-1.2,16.36-1.2,24.9,0,1.83,0,3.73.06,5.65Z"/><path class="cls-7" d="M467,337.9l.08.81a249.75,249.75,0,0,1,1.29,25.77c0,2,0,4.2-.08,6.39l0,.74-4-9.42c0-.87,0-1.75,0-2.62a78,78,0,0,1,2.52-20.89Zm1,32.23c0-1.94.06-3.83.06-5.65,0-8.54-.4-16.91-1.2-24.9a79.41,79.41,0,0,0-2.28,20c0,.85,0,1.72,0,2.58Z"/><path class="cls-1" d="M434.47,373.41v13.76a14.73,14.73,0,0,0,14.67,14.7h4.22A14.73,14.73,0,0,0,468,387.17V373.41a75.43,75.43,0,0,1-33.56,0Z"/><path d="M434.31,373.21l.19,0a73.24,73.24,0,0,0,16.75,1.89h.22A73.61,73.61,0,0,0,468,373.25l.19,0v14A14.86,14.86,0,0,1,453.36,402h-4.22a14.86,14.86,0,0,1-14.83-14.86Zm19.05,28.5a14.54,14.54,0,0,0,14.51-14.54V373.61a74.17,74.17,0,0,1-16.4,1.85H451a74.17,74.17,0,0,1-16.4-1.85v13.56a14.54,14.54,0,0,0,14.51,14.54Z"/><path class="cls-1" d="M439.12,341.17a80.86,80.86,0,0,0,24.26,0,35.15,35.15,0,0,0,1-12.67H438.09A35.38,35.38,0,0,0,439.12,341.17Z"/><path d="M438,328.34h26.61v.14a35.47,35.47,0,0,1-1,12.73l0,.1-.1,0a81.13,81.13,0,0,1-24.3,0l-.1,0,0-.1a35.47,35.47,0,0,1-1-12.73Zm26.32.32h-26a35.33,35.33,0,0,0,1,12.37,81.12,81.12,0,0,0,24,0A35.34,35.34,0,0,0,464.27,328.66Z"/><path class="cls-8" d="M438.09,328.5h26.32c0-.31-.07-.62-.11-.92H438.2C438.16,327.88,438.12,328.19,438.09,328.5Z"/><path class="cls-1" d="M464.3,327.58V321a31.61,31.61,0,0,0-26.1,0v6.61Z"/><path d="M451.25,318a28.67,28.67,0,0,1,13.13,2.84l.08,0v6.87H438v-6.87l.08,0A28.7,28.7,0,0,1,451.25,318Zm12.9,3.08a31.5,31.5,0,0,0-25.79,0v6.35h25.79Z"/><path class="cls-8" d="M434.58,373.49l-.33.89a63.91,63.91,0,0,0,34,0l-.32-.89A63.94,63.94,0,0,1,434.58,373.49Z"/><path class="cls-1" d="M467.46,373.54l-4.08-11.17H439.12L435,373.54A62.32,62.32,0,0,0,467.46,373.54Z"/><path d="M439,362.21h24.48l4.18,11.43-.17.05a62.21,62.21,0,0,1-32.5,0l-.16-.05Zm24.26.32h-24l-4,10.9a62,62,0,0,0,32,0Z"/><path class="cls-7" d="M438.24,321h-.16a3.59,3.59,0,0,0-3.59,3.59v.26A8.67,8.67,0,0,1,438.24,321Z"/><path class="cls-7" d="M464.26,321h.16a3.59,3.59,0,0,1,3.59,3.59v.26A8.67,8.67,0,0,0,464.26,321Z"/><path class="cls-1" d="M430,364.68a1.44,1.44,0,0,0,.26,1.28l2.93,2.53a.28.28,0,0,0,.15.08v-2.36l-3.27-1.83Z"/><path class="cls-7" d="M430,364.14l3.53,2v2.65l-.19,0a.57.57,0,0,1-.23-.12l-2.93-2.53a1.58,1.58,0,0,1-.3-1.44Zm3.21,2.17-3-1.69,0,.09a1.32,1.32,0,0,0,.2,1.13l2.82,2.44Z"/><path class="cls-1" d="M472.5,364.68a1.44,1.44,0,0,1-.26,1.28l-2.92,2.53a.3.3,0,0,1-.16.08v-2.36l3.27-1.83Z"/><path class="cls-7" d="M472.53,364.14l.12.5a1.58,1.58,0,0,1-.3,1.44l-2.93,2.53a.57.57,0,0,1-.23.12l-.19,0v-2.65Zm-3.21,4.14,2.82-2.44a1.32,1.32,0,0,0,.2-1.13l0-.09-3,1.69Z"/><path class="cls-7" d="M442.61,381.9c0,5.29.94,9.93,2.35,12.62a32.92,32.92,0,0,1-1.71-11.18,40.58,40.58,0,0,1,.44-6h-.83A42,42,0,0,0,442.61,381.9Z"/><path class="cls-7" d="M459.89,381.9c0,5.29-.94,9.93-2.35,12.62a32.92,32.92,0,0,0,1.71-11.18,40.58,40.58,0,0,0-.44-6h.83A42,42,0,0,1,459.89,381.9Z"/><rect class="cls-1" x="439.12" y="341.17" width="24.25" height="21.21" transform="translate(902.5 703.54) rotate(180)"/><path d="M439,341h24.58v21.52H439Zm24.26.32H439.28v20.88h23.94Z"/><path class="cls-1" d="M443,217.4a69.54,69.54,0,0,1,16.44,0c6.32.79,11,7.19,10.7,13a560.89,560.89,0,0,0,0,57.41c.32,5.56-4.16,11.63-10.15,12.43a70,70,0,0,1-17.6,0c-6-.8-10.47-6.87-10.15-12.43a560.89,560.89,0,0,0,0-57.41C432,224.59,436.71,218.19,443,217.4Z"/><path class="cls-7" d="M451.25,216.7a71.07,71.07,0,0,1,8.25.49c6.16.77,11.25,7,10.88,13.26a566.28,566.28,0,0,0,0,57.39,12.53,12.53,0,0,1-10.33,12.65,70.44,70.44,0,0,1-17.65,0,12.53,12.53,0,0,1-10.34-12.65,563.38,563.38,0,0,0,0-57.39c-.37-6.29,4.72-12.49,10.88-13.26h0A71.2,71.2,0,0,1,451.25,216.7Zm0,83.92a71.46,71.46,0,0,0,8.77-.55,12.09,12.09,0,0,0,10-12.2,561.48,561.48,0,0,1,0-57.44c.35-6.08-4.56-12.07-10.51-12.82a70.28,70.28,0,0,0-16.4,0c-5.95.75-10.86,6.74-10.51,12.82a564.16,564.16,0,0,1,0,57.43,12.08,12.08,0,0,0,10,12.21A71.46,71.46,0,0,0,451.25,300.62Z"/><path class="cls-8" d="M438.14,228.17h26.22c0-.31-.06-.62-.1-.92h-26C438.2,227.55,438.17,227.86,438.14,228.17Z"/><path class="cls-7" d="M435.46,237.56l.23.78a78,78,0,0,1,2.52,20.9c0,.86,0,1.74,0,2.61v.06l-4,9.36,0-.74c-.05-2.17-.08-4.32-.08-6.39a252.59,252.59,0,0,1,1.29-25.77Zm2.4,24.25c0-.86,0-1.73,0-2.57a79.43,79.43,0,0,0-2.28-20c-.8,8-1.2,16.36-1.2,24.9,0,1.83,0,3.73.06,5.65Z"/><path class="cls-7" d="M467,237.56l.08.81a249.75,249.75,0,0,1,1.29,25.77c0,2.05,0,4.2-.08,6.39l0,.74-4-9.42c0-.87,0-1.75,0-2.61a78,78,0,0,1,2.52-20.9Zm1,32.23c0-1.94.06-3.83.06-5.65,0-8.54-.4-16.91-1.2-24.9a79.43,79.43,0,0,0-2.28,20c0,.84,0,1.71,0,2.57Z"/><path class="cls-1" d="M434.47,273.07v13.76a14.73,14.73,0,0,0,14.67,14.7h4.22A14.73,14.73,0,0,0,468,286.83V273.07a75.43,75.43,0,0,1-33.56,0Z"/><path d="M434.31,272.87l.19,0a73.24,73.24,0,0,0,16.75,1.89h.22A73.61,73.61,0,0,0,468,272.91l.19,0v14a14.86,14.86,0,0,1-14.83,14.86h-4.22a14.86,14.86,0,0,1-14.83-14.86Zm19.05,28.5a14.54,14.54,0,0,0,14.51-14.54V273.27a74.17,74.17,0,0,1-16.4,1.85H451a74.17,74.17,0,0,1-16.4-1.85v13.56a14.54,14.54,0,0,0,14.51,14.54Z"/><path class="cls-1" d="M439.12,240.83a80.86,80.86,0,0,0,24.26,0,35.15,35.15,0,0,0,1-12.67H438.09A35.38,35.38,0,0,0,439.12,240.83Z"/><path d="M438,228h26.61v.14a35.47,35.47,0,0,1-1,12.73l0,.1-.1,0a81.13,81.13,0,0,1-24.3,0l-.1,0,0-.1a35.47,35.47,0,0,1-1-12.73Zm26.32.32h-26a35.33,35.33,0,0,0,1,12.37,81.12,81.12,0,0,0,24,0A35.34,35.34,0,0,0,464.27,228.32Z"/><path class="cls-8" d="M438.09,228.16h26.32c0-.31-.07-.62-.11-.92H438.2C438.16,227.54,438.12,227.85,438.09,228.16Z"/><path class="cls-1" d="M464.3,227.24v-6.61a31.61,31.61,0,0,0-26.1,0v6.61Z"/><path d="M451.25,217.65a28.67,28.67,0,0,1,13.13,2.84l.08,0v6.86H438v-6.86l.08,0A28.7,28.7,0,0,1,451.25,217.65Zm12.9,3.08a31.5,31.5,0,0,0-25.79,0v6.35h25.79Z"/><path class="cls-8" d="M434.58,273.15l-.33.89a63.91,63.91,0,0,0,34,0l-.32-.89A63.94,63.94,0,0,1,434.58,273.15Z"/><path class="cls-1" d="M467.46,273.2,463.38,262H439.12L435,273.2A62.32,62.32,0,0,0,467.46,273.2Z"/><path d="M439,261.87h24.48l4.18,11.43-.17.05a62.21,62.21,0,0,1-32.5,0l-.16-.05Zm24.26.32h-24l-4,10.9a62,62,0,0,0,32,0Z"/><path class="cls-7" d="M438.24,220.64h-.16a3.59,3.59,0,0,0-3.59,3.59v.26A8.67,8.67,0,0,1,438.24,220.64Z"/><path class="cls-7" d="M464.26,220.64h.16a3.59,3.59,0,0,1,3.59,3.59v.26A8.67,8.67,0,0,0,464.26,220.64Z"/><path class="cls-1" d="M430,264.34a1.43,1.43,0,0,0,.26,1.28l2.93,2.53a.28.28,0,0,0,.15.08v-2.36L430.07,264Z"/><path class="cls-7" d="M430,263.8l3.53,2v2.65l-.19,0a.57.57,0,0,1-.23-.12l-2.93-2.53a1.57,1.57,0,0,1-.3-1.44Zm3.21,2.17-3-1.68,0,.08a1.32,1.32,0,0,0,.2,1.13l2.82,2.44Z"/><path class="cls-1" d="M472.5,264.34a1.43,1.43,0,0,1-.26,1.28l-2.92,2.53a.3.3,0,0,1-.16.08v-2.36l3.27-1.83Z"/><path class="cls-7" d="M472.53,263.8l.12.5a1.57,1.57,0,0,1-.3,1.44l-2.93,2.53a.57.57,0,0,1-.23.12l-.19,0v-2.65Zm-3.21,4.14,2.82-2.44a1.32,1.32,0,0,0,.2-1.13l0-.08-3,1.68Z"/><path class="cls-7" d="M442.61,281.56c0,5.29.94,9.93,2.35,12.62A32.92,32.92,0,0,1,443.25,283a40.58,40.58,0,0,1,.44-6h-.83A42,42,0,0,0,442.61,281.56Z"/><path class="cls-7" d="M459.89,281.56c0,5.29-.94,9.93-2.35,12.62A32.92,32.92,0,0,0,459.25,283a40.58,40.58,0,0,0-.44-6h.83A42,42,0,0,1,459.89,281.56Z"/><rect class="cls-1" x="439.12" y="240.83" width="24.25" height="21.21" transform="translate(902.5 502.86) rotate(180)"/><path d="M439,240.67h24.58v21.52H439Zm24.26.32H439.28v20.88h23.94Z"/><path class="cls-1" d="M269.56,317.74a69.54,69.54,0,0,1,16.44,0c6.31.79,11,7.19,10.7,13a560.89,560.89,0,0,0,0,57.41c.32,5.56-4.16,11.63-10.15,12.43a70,70,0,0,1-17.6,0c-6-.8-10.47-6.87-10.15-12.43a560.89,560.89,0,0,0,0-57.41C258.52,324.93,263.24,318.53,269.56,317.74Z"/><path class="cls-7" d="M277.78,317a69.05,69.05,0,0,1,8.25.49c6.16.77,11.25,7,10.88,13.26a560.51,560.51,0,0,0,0,57.39,12.53,12.53,0,0,1-10.34,12.65,70.36,70.36,0,0,1-17.64,0,12.53,12.53,0,0,1-10.34-12.65,566.28,566.28,0,0,0,0-57.39c-.37-6.29,4.72-12.49,10.88-13.26h0A68.93,68.93,0,0,1,277.78,317Zm0,83.92a71.46,71.46,0,0,0,8.77-.55,12.07,12.07,0,0,0,10-12.2,564.36,564.36,0,0,1,0-57.44c.35-6.08-4.56-12.07-10.52-12.82a70.2,70.2,0,0,0-16.39,0c-5.95.75-10.86,6.74-10.51,12.82a561.29,561.29,0,0,1,0,57.43,12.1,12.1,0,0,0,10,12.21A71.46,71.46,0,0,0,277.78,401Z"/><path class="cls-8" d="M264.67,328.51h26.22c0-.31-.06-.62-.1-.92h-26C264.73,327.89,264.7,328.2,264.67,328.51Z"/><path class="cls-7" d="M262,337.9l.23.78a78,78,0,0,1,2.52,20.89c0,.87,0,1.75,0,2.62v.06l-4,9.36,0-.74c-.05-2.17-.08-4.32-.08-6.39a249.75,249.75,0,0,1,1.29-25.77Zm2.4,24.25c0-.86,0-1.73,0-2.58a79.87,79.87,0,0,0-2.28-20c-.8,8-1.2,16.36-1.2,24.9,0,1.83,0,3.73.06,5.65Z"/><path class="cls-7" d="M293.57,337.9l.08.81a252.59,252.59,0,0,1,1.29,25.77c0,2,0,4.2-.08,6.39l0,.74-4-9.42c0-.87,0-1.75,0-2.62a78,78,0,0,1,2.52-20.89Zm1,32.23c0-1.94.06-3.83.06-5.65,0-8.54-.4-16.91-1.2-24.9a79.41,79.41,0,0,0-2.28,20c0,.85,0,1.72,0,2.58Z"/><path class="cls-1" d="M261,373.41v13.76a14.73,14.73,0,0,0,14.67,14.7h4.22a14.73,14.73,0,0,0,14.67-14.7V373.41a75.43,75.43,0,0,1-33.56,0Z"/><path d="M260.84,373.21l.19,0a73.24,73.24,0,0,0,16.75,1.89H278a73.68,73.68,0,0,0,16.53-1.89l.19,0v14A14.86,14.86,0,0,1,279.89,402h-4.22a14.86,14.86,0,0,1-14.83-14.86Zm19.05,28.5a14.54,14.54,0,0,0,14.51-14.54V373.61a74.24,74.24,0,0,1-16.4,1.85h-.44a74.17,74.17,0,0,1-16.4-1.85v13.56a14.54,14.54,0,0,0,14.51,14.54Z"/><path class="cls-1" d="M265.65,341.17a80.86,80.86,0,0,0,24.26,0,35.38,35.38,0,0,0,1-12.67H264.62A35.15,35.15,0,0,0,265.65,341.17Z"/><path d="M264.47,328.34h26.61l0,.14a35.47,35.47,0,0,1-1,12.73l0,.1-.1,0a81.13,81.13,0,0,1-24.3,0l-.1,0,0-.1a35.47,35.47,0,0,1-1-12.73Zm26.33.32h-26a35.33,35.33,0,0,0,1,12.37,81.12,81.12,0,0,0,24,0A35.34,35.34,0,0,0,290.8,328.66Z"/><path class="cls-8" d="M264.62,328.5h26.32c0-.31-.07-.62-.11-.92h-26.1C264.69,327.88,264.65,328.19,264.62,328.5Z"/><path class="cls-1" d="M290.83,327.58V321a31.61,31.61,0,0,0-26.1,0v6.61Z"/><path d="M277.78,318a28.7,28.7,0,0,1,13.13,2.84l.08,0v6.87H264.57v-6.87l.08,0A28.67,28.67,0,0,1,277.78,318Zm12.89,3.08a31.5,31.5,0,0,0-25.79,0v6.35h25.79Z"/><path class="cls-8" d="M261.1,373.49l-.32.89a63.91,63.91,0,0,0,34,0l-.33-.89A63.94,63.94,0,0,1,261.1,373.49Z"/><path class="cls-1" d="M294,373.54l-4.08-11.17H265.65l-4.08,11.17A62.32,62.32,0,0,0,294,373.54Z"/><path d="M265.54,362.21H290l4.17,11.43-.16.05a62.21,62.21,0,0,1-32.5,0l-.17-.05Zm24.25.32h-24l-4,10.9a62,62,0,0,0,32,0Z"/><path class="cls-7" d="M264.77,321h-.16a3.59,3.59,0,0,0-3.59,3.59v.26A8.67,8.67,0,0,1,264.77,321Z"/><path class="cls-7" d="M290.78,321H291a3.59,3.59,0,0,1,3.59,3.59v.26A8.64,8.64,0,0,0,290.78,321Z"/><path class="cls-1" d="M256.53,364.68a1.44,1.44,0,0,0,.26,1.28l2.92,2.53a.3.3,0,0,0,.16.08v-2.36l-3.27-1.83Z"/><path class="cls-7" d="M256.5,364.14l3.53,2v2.65l-.19,0a.57.57,0,0,1-.23-.12l-2.93-2.53a1.58,1.58,0,0,1-.3-1.44Zm3.21,2.17-3-1.69,0,.09a1.32,1.32,0,0,0,.2,1.13l2.82,2.44Z"/><path class="cls-1" d="M299,364.68a1.44,1.44,0,0,1-.26,1.28l-2.93,2.53a.28.28,0,0,1-.15.08v-2.36l3.27-1.83Z"/><path class="cls-7" d="M299.06,364.14l.12.5a1.58,1.58,0,0,1-.3,1.44L296,368.61a.57.57,0,0,1-.23.12l-.19,0v-2.65Zm-3.21,4.14,2.82-2.44a1.32,1.32,0,0,0,.2-1.13l0-.09-3,1.69Z"/><path class="cls-7" d="M269.14,381.9c0,5.29.94,9.93,2.35,12.62a32.92,32.92,0,0,1-1.71-11.18,40.58,40.58,0,0,1,.44-6h-.83A42,42,0,0,0,269.14,381.9Z"/><path class="cls-7" d="M286.42,381.9c0,5.29-.94,9.93-2.35,12.62a32.92,32.92,0,0,0,1.71-11.18,40.58,40.58,0,0,0-.44-6h.83A42,42,0,0,1,286.42,381.9Z"/><rect class="cls-1" x="265.65" y="341.17" width="24.25" height="21.21" transform="translate(555.56 703.54) rotate(180)"/><path d="M265.49,341h24.58v21.52H265.49Zm24.26.32H265.81v20.88h23.94Z"/><polygon class="cls-9" points="374.73 271.54 404.39 271.54 404.39 173.53 251.35 173.53 251.35 304.88 374.73 304.88 374.73 271.54"/><polygon class="cls-9" points="436.37 129.37 476.76 129.37 476.76 43.75 261.99 43.75 261.99 152.69 436.37 152.69 436.37 129.37"/><line class="cls-10" x1="207.4" y1="409.87" x2="531.35" y2="409.87"/><line class="cls-10" x1="207.4" y1="477.05" x2="531.35" y2="477.05"/><path d="M356.07,91.14c.71-2.94,3.13-5.87,6.83-8.34l.71-.47c3.84-2.49,4.85-3.7,4.85-5.7,0-2.25-1.86-3.76-4.68-3.76-2.31,0-3.93.85-5.68,2.94l-1.73-1.45a8.84,8.84,0,0,1,7.51-3.68c4.28,0,7.41,2.52,7.41,6,0,2.76-1.07,4-6,7.18l-1,.63C361.06,86.64,359,89,358.76,91h12.86V93.3H356.07Z"/><path d="M344.8,113.38c-.28,1-.61,1.92-.91,2.69H359.3a26.44,26.44,0,0,1-1.45,7.84c-.69,1.54-1.57,2-4,2-1.46,0-3.4-.09-4.75-.2l-.49-2.08c1.89.16,3.73.27,5.05.27s1.78-.22,2.16-1.09a25.1,25.1,0,0,0,1-4.86H343.15c-.36.77-.74,1.57-1.15,2.33l-2.22-.63a36.91,36.91,0,0,0,2.71-6.25h-6.11v-1.86h26.05v1.86ZM358.34,109h-17.9v-7.78h17.9Zm-15.68-1.75h13.46V103H342.66Z"/><path d="M369.51,112.48a32.58,32.58,0,0,1-3.32,7.43l-1-2.2a31,31,0,0,0,4.14-9.89h-3.76V105.9h3.95V100h2v5.87h2.85v1.92h-2.85v2.55a32.27,32.27,0,0,1,3.37,3.2l-1.15,1.84a30.15,30.15,0,0,0-2.22-2.82v13.49h-2Zm15.3,3.81a20.55,20.55,0,0,0,7,6.2l-1.29,1.92a22.46,22.46,0,0,1-7.07-7v8.69h-1.95v-8.53a21.21,21.21,0,0,1-7.05,7.24l-1.37-1.67a19.55,19.55,0,0,0,7.19-6.83h-5.07v-9.76h6.3v-2h-7.73v-1.78h7.73V100h1.95v2.69h7.9v1.78h-7.9v2h6.5v9.76Zm-7.68-8.09v2.33h4.36V108.2Zm0,4v2.39h4.36V112.2Zm6.31-1.67H388V108.2h-4.58Zm0,4.06H388V112.2h-4.58Z"/><path d="M315.88,210a33.47,33.47,0,0,1-5.32,1.65l-.6-2.06a21.7,21.7,0,0,0,6.63-2.44h1.84v22.62h-2.55Z"/><path d="M297.28,249.89a27.24,27.24,0,0,1-.9,2.69h15.41a26.44,26.44,0,0,1-1.45,7.84c-.69,1.54-1.57,2-4,2-1.45,0-3.4-.09-4.74-.2l-.49-2.08c1.89.16,3.73.27,5,.27s1.78-.21,2.17-1.09a25.1,25.1,0,0,0,1-4.86H295.64c-.36.77-.74,1.57-1.15,2.34l-2.22-.64a37.37,37.37,0,0,0,2.71-6.25h-6.11V248h26v1.86Zm13.55-4.36H292.92v-7.78h17.91Zm-15.69-1.75h13.47v-4.22H295.14Z"/><path d="M322,249a32.58,32.58,0,0,1-3.32,7.43l-1-2.19a30.79,30.79,0,0,0,4.14-9.9h-3.75v-1.92H322v-5.87h2v5.87h2.85v1.92H324v2.55a32.27,32.27,0,0,1,3.37,3.2l-1.15,1.84A31.92,31.92,0,0,0,324,249.1v13.49h-2Zm15.3,3.81a20.55,20.55,0,0,0,7,6.2L343,260.92a22.46,22.46,0,0,1-7.07-7v8.69H334v-8.53a21.21,21.21,0,0,1-7.05,7.24l-1.37-1.67a19.55,19.55,0,0,0,7.19-6.83h-5.08V243H334v-2h-7.73v-1.78H334v-2.69h1.95v2.69h7.89V241h-7.89v2h6.49v9.76Zm-7.68-8.09V247H334v-2.33Zm0,4v2.39H334v-2.39Zm6.31-1.67h4.58v-2.33h-4.58Zm0,4.06h4.58v-2.39h-4.58Z"/><rect class="cls-11" x="436.37" y="146.88" width="40.39" height="5.75" transform="translate(913.13 299.51) rotate(180)"/><rect class="cls-11" x="436.37" y="128.91" width="40.39" height="17.97" transform="translate(913.13 275.79) rotate(-180)"/><polygon points="456.56 132.83 450.59 140.48 462.54 140.48 456.56 132.83"/><rect class="cls-12" x="372.54" y="273.08" width="33.62" height="29.99" transform="translate(101.27 677.43) rotate(-90)"/><rect class="cls-13" x="385.2" y="294.04" width="8.31" height="29.99" transform="translate(80.31 698.39) rotate(-90)"/><rect class="cls-13" x="385.2" y="302.27" width="8.31" height="29.99" transform="translate(72.09 706.61) rotate(-90)"/><polygon points="379.36 288.08 389.83 281.51 389.83 294.64 379.36 288.08"/></g></svg>