<svg xmlns="http://www.w3.org/2000/svg" width="700" height="455" viewBox="0 0 700 455"><defs><style>.cls-1{fill:#980051;}.cls-2{fill:none;stroke:#980051;stroke-miterlimit:10;stroke-width:1.76px;}</style></defs><title>renrakusaki</title><g id="レイヤー_2" data-name="レイヤー 2"><path d="M101.36,100.24C93.26,95,85.81,83.33,85.81,68.89s7.45-26.11,15.55-31.35l.65.9C95.2,44.66,90.28,56.52,90.28,68.89S95.2,93.11,102,99.33Z"/><path d="M134.39,55h-6.67v7c1,.33,7.32,3.69,7.32,7.9A2.92,2.92,0,0,1,132.19,73c-2.66,0-2.85-2.39-3.11-5.76a8.58,8.58,0,0,0-1.36-4.21V72c0,6.54.25,16.9.25,23.45,0,1.29-.06,1.74-.51,2.13a4.4,4.4,0,0,1-3.11,1.3c-2.33,0-2.33-1.1-2.33-1.94,0-.13.77-17.36.9-20.67.13-2.13.13-2.78.2-8.35C120.4,74.14,116.9,80,111.59,84.24l-.52-.32C114.89,78.48,121.24,64,122.73,55a43.24,43.24,0,0,0-8,.39l-1-2.34c3.83.33,8.17.39,9.46.39-.13-8.09-.13-9-.52-14.12l6.93,1.88c.46.13.78.19.78.58,0,.59-.45.91-2.27,2-.32,5.12-.38,8-.38,9.65h1.16l2-2.78c.32-.46.58-.78,1-.78a1.74,1.74,0,0,1,1.23.84l1.69,2.46c.32.52.58.78.58,1.1C135.36,54.9,134.84,55,134.39,55Zm33.1,36.46c-3.63-1.87-7.91-8-8.94-9.71a60.71,60.71,0,0,1-4.73-11.53c.06,1.81.13,9.78.13,11.4.06,2.14.52,11.59.52,13.47,0,2.72-1.88,3.76-4,3.76s-2.14-1.88-2.14-2.53c0-3.75.59-20.34.65-23.7a45.85,45.85,0,0,1-9.2,11.53,57.44,57.44,0,0,1-9.52,7l-.32-.26C138.27,83,141.77,76.6,146.44,68h-3.18a39.39,39.39,0,0,0-7,.39l-1-2.33c4,.32,8.48.39,9.2.39h4.66c-.06-2.72-.13-7.71-.19-10.76h-8a40.6,40.6,0,0,1-7.58,9.46l-.39-.32c2.08-4.67,6.22-14.25,6.22-18.59,0-.13-.13-2-.13-2.4l6.61,2.66c.45.19.84.45.84,1,0,.71-.52.9-2,1.49-.71,1.42-1.1,2.33-2.65,5.18h7.06c-.13-7.51-.13-8.36-.26-9.91a27.18,27.18,0,0,0-1.23-4.79l7.7,1.68c.72.13,1.17.52,1.17.91s-1.75,1.62-2.27,2c-.13,1.55-.26,4-.26,10.1h5.32L161.66,51c.58-.71.71-.78,1-.78s.45.07,1.23.65L167.81,54a1.22,1.22,0,0,1,.65,1c0,.58-.58.71-1,.71H153.75l.07,10.76h8.1l3.17-3.31c.71-.71.71-.84,1-.84s.52.13,1.23.71l4.08,3.31a1.37,1.37,0,0,1,.65,1c0,.58-.52.71-1,.71h-17c2.78,7.06,11.79,16.91,20.21,18.4v.45A12.9,12.9,0,0,0,167.49,91.49Z"/><path d="M182.83,100.24l-.64-.91c6.8-6.22,11.72-18.07,11.72-30.44S189,44.66,182.19,38.44l.64-.9c8.1,5.24,15.55,16.9,15.55,31.35S190.93,95,182.83,100.24Z"/><path d="M275.78,68.89A28.76,28.76,0,1,1,247,40.13,28.78,28.78,0,0,1,275.78,68.89Zm-55.19,0A26.43,26.43,0,1,0,247,42.46,26.46,26.46,0,0,0,220.59,68.89Z"/><path d="M344.43,68.89a28.76,28.76,0,1,1-28.76-28.76A28.78,28.78,0,0,1,344.43,68.89Zm-55.18,0a26.43,26.43,0,1,0,26.42-26.43A26.46,26.46,0,0,0,289.25,68.89Z"/><path d="M413.09,68.89a28.76,28.76,0,1,1-28.76-28.76A28.78,28.78,0,0,1,413.09,68.89Zm-55.19,0a26.43,26.43,0,1,0,26.43-26.43A26.46,26.46,0,0,0,357.9,68.89Z"/><path d="M481.74,68.89A28.76,28.76,0,1,1,453,40.13,28.78,28.78,0,0,1,481.74,68.89Zm-55.18,0A26.43,26.43,0,1,0,453,42.46,26.46,26.46,0,0,0,426.56,68.89Z"/><path d="M550.4,68.89a28.76,28.76,0,1,1-28.76-28.76A28.78,28.78,0,0,1,550.4,68.89Zm-55.19,0a26.43,26.43,0,1,0,26.43-26.43A26.46,26.46,0,0,0,495.21,68.89Z"/><path d="M619.05,68.89a28.76,28.76,0,1,1-28.76-28.76A28.78,28.78,0,0,1,619.05,68.89Zm-55.18,0a26.43,26.43,0,1,0,26.42-26.43A26.45,26.45,0,0,0,563.87,68.89Z"/><path d="M243.41,228.12V225h24.38v3.1Zm13.84,8v17.19h-3.31V236.15H243.41v-3.06h24.38v3.06Z"/><path d="M284.57,254.65c-2.6,0-4.78-1.86-6.17-4.19-1.58-2.67-2.3-7.44-2.3-11.05,0-8.26,3.43-14.55,8.47-14.55,3.87,0,8.46,4.31,8.46,14.9C293,249.26,289.15,254.65,284.57,254.65Zm-4.22-23.31a36.58,36.58,0,0,0-.86,8.42c0,8.65,2,13.58,5.08,13.58,2.59,0,3.76-3.57,4.17-5.05a36.79,36.79,0,0,0,.9-8.53c0-8.84-2.07-13.58-5.07-13.58C281.89,226.18,280.73,230,280.35,231.34Z"/><path d="M308.64,254.65c-2.6,0-4.78-1.86-6.17-4.19-1.58-2.67-2.29-7.44-2.29-11.05,0-8.26,3.42-14.55,8.46-14.55,3.87,0,8.46,4.31,8.46,14.9C317.1,249.26,313.23,254.65,308.64,254.65Zm-4.21-23.31a36,36,0,0,0-.87,8.42c0,8.65,2,13.58,5.08,13.58,2.59,0,3.76-3.57,4.17-5.05a36.72,36.72,0,0,0,.91-8.53c0-8.84-2.07-13.58-5.08-13.58C306,226.18,304.8,230,304.43,231.34Z"/><path d="M332.71,254.65c-2.59,0-4.77-1.86-6.16-4.19-1.58-2.67-2.3-7.44-2.3-11.05,0-8.26,3.42-14.55,8.46-14.55,3.88,0,8.47,4.31,8.47,14.9C341.18,249.26,337.3,254.65,332.71,254.65Zm-4.21-23.31a36.58,36.58,0,0,0-.86,8.42c0,8.65,2,13.58,5.07,13.58,2.6,0,3.77-3.57,4.18-5.05a36.79,36.79,0,0,0,.9-8.53c0-8.84-2.07-13.58-5.08-13.58C330,226.18,328.88,230,328.5,231.34Z"/><path d="M356.3,246h-8.09v-2.52h8.09Z"/><path d="M371.8,254.65c-2.6,0-4.78-1.86-6.17-4.19-1.58-2.67-2.29-7.44-2.29-11.05,0-8.26,3.42-14.55,8.46-14.55,3.87,0,8.46,4.31,8.46,14.9C380.26,249.26,376.39,254.65,371.8,254.65Zm-4.21-23.31a36,36,0,0,0-.87,8.42c0,8.65,2,13.58,5.08,13.58,2.59,0,3.76-3.57,4.17-5.05a36.72,36.72,0,0,0,.91-8.53c0-8.84-2.07-13.58-5.08-13.58C369.13,226.18,368,230,367.59,231.34Z"/><path d="M395.87,254.65c-2.59,0-4.77-1.86-6.17-4.19-1.58-2.67-2.29-7.44-2.29-11.05,0-8.26,3.42-14.55,8.46-14.55,3.88,0,8.47,4.31,8.47,14.9C404.34,249.26,400.46,254.65,395.87,254.65Zm-4.21-23.31a36,36,0,0,0-.86,8.42c0,8.65,2,13.58,5.07,13.58,2.6,0,3.76-3.57,4.18-5.05a37.34,37.34,0,0,0,.9-8.53c0-8.84-2.07-13.58-5.08-13.58C393.2,226.18,392,230,391.66,231.34Z"/><path d="M420,254.65c-2.6,0-4.78-1.86-6.17-4.19-1.58-2.67-2.3-7.44-2.3-11.05,0-8.26,3.43-14.55,8.47-14.55,3.87,0,8.46,4.31,8.46,14.9C428.41,249.26,424.54,254.65,420,254.65Zm-4.22-23.31a36.58,36.58,0,0,0-.86,8.42c0,8.65,2,13.58,5.08,13.58,2.59,0,3.76-3.57,4.17-5.05a36.72,36.72,0,0,0,.91-8.53c0-8.84-2.07-13.58-5.08-13.58C417.28,226.18,416.11,230,415.73,231.34Z"/><path d="M444,254.65c-2.59,0-4.77-1.86-6.17-4.19-1.58-2.67-2.29-7.44-2.29-11.05,0-8.26,3.42-14.55,8.46-14.55,3.88,0,8.47,4.31,8.47,14.9C452.49,249.26,448.61,254.65,444,254.65Zm-4.21-23.31a36,36,0,0,0-.87,8.42c0,8.65,2,13.58,5.08,13.58,2.6,0,3.76-3.57,4.18-5.05a37.34,37.34,0,0,0,.9-8.53c0-8.84-2.07-13.58-5.08-13.58C441.35,226.18,440.19,230,439.81,231.34Z"/><path d="M126.59,275.14l1.06-1c.18-.19.45-.46.6-.46a1.59,1.59,0,0,1,.56.39l1.47,1.12c.19.16.45.39.45.66s-.41.58-1.66,1.05a47.41,47.41,0,0,1-4.25,5.89v.28c2.71.5,5.53,1.93,5.53,4.07a1.48,1.48,0,0,1-1.43,1.47c-.67,0-1.12-.39-1.61-1.51a8.68,8.68,0,0,0-2.49-3.57v9.08c0,.58.15,8.3.15,8.57,0,1.28-.41,2-1.91,2-1,0-1-.59-1-1.13,0-2.36.34-14.08.41-16.75a28.8,28.8,0,0,1-7.33,5l-.15-.23c4.33-3.73,9.89-10.79,11.36-14.05h-4.44a26.2,26.2,0,0,0-4.4.35l-.75-1.55c1.58.16,3.87.27,5.53.27a21.84,21.84,0,0,0-.83-7.52l3.8,1.08c.19,0,.6.2.6.55s-.34.62-1.09,1.08c0,.66,0,3.84,0,4.81Zm18.85-4.54,1.24-1.24c.15-.11.49-.5.6-.5s.45.23.71.43l1.58,1.24c.23.19.42.39.42.58,0,.39-.34.43-.6.43H135.28a24.6,24.6,0,0,0-4.4.35l-.75-1.56c2.74.24,5.11.27,5.79.27Zm0,16.61,1-1.21c.15-.19.34-.38.49-.38a1.26,1.26,0,0,1,.53.31l1.73,1.28a.81.81,0,0,1,.37.58c0,.23-.34.58-1.13,1.2,0,.31-.07.85-.07,1.13,0,1.39.3,9.19.3,10.78,0,1-.86,1.51-1.8,1.51s-1-.46-1-1.82H134.11c.08,1.36-.41,2.17-1.76,2.17-.94,0-.94-.58-.94-.93,0-1.36.15-7.29.15-8.49a52.24,52.24,0,0,0-.42-8.19l3.43,2.06Zm-2-11.83.9-.93c.19-.2.38-.43.53-.43s.3.15.45.27l1.54,1.28a.92.92,0,0,1,.38.62c0,.27-.34.54-1.06.93,0,.89.19,4.73.19,5.51a1.63,1.63,0,0,1-1.77,1.67c-.9,0-.9-.54-.9-1.48h-8.12c0,.62,0,1.79-1.58,1.79-.76,0-1.06-.35-1.06-1.36,0-.5.08-4,.08-4.81,0-1.51-.11-3.49-.26-4.81l3.08,1.75Zm-9.29,12.76v5.12h4.62v-5.12Zm0,6.05v5.47h4.62v-5.47Zm1.39-17.88v5.58h8.2v-5.58Zm10.45,16.95v-5.12h-4.77v5.12Zm0,6.4v-5.47h-4.77v5.47Z"/><path d="M190.05,272.85c-.08,1.44.19,22.35.19,25.18,0,2.48,0,4.61-4.25,5.43-.53-2.13-1.88-2.87-3.8-3.92l0-.27c.75.08,3,.31,3.72.31.94,0,1.24-.15,1.35-.62s.15-12,.15-13.58c0-1.24,0-12.8,0-13.92H165c0,1.39,0,16.52,0,19.24,0,1.67.15,9,.15,10.51a1.89,1.89,0,0,1-2,2.13c-.56,0-1.09-.19-1.09-1.47,0-.54.26-3,.26-3.45.12-2.64.15-17,.15-19.63A74.28,74.28,0,0,0,162,268.7l3.61,1.83H187l1-1.13c.15-.19.26-.31.49-.31a1,1,0,0,1,.45.24l2,1.51c.26.19.45.31.45.62S191.29,272,190.05,272.85Zm-4.06,9h-8.65v12.26H181c0-4.5.07-5.12,0-6.79a7.19,7.19,0,0,0-.57-2.56l3.31.59c.34.07.79.19.79.65s-.15.51-.94,1c0,.63,0,3.57,0,4.27s.12,3.61.12,4.27a1.58,1.58,0,0,1-1.73,1.7c-1.06,0-1-.54-1-2.17h-9.71c0,.27,0,1.51,0,1.79a1.62,1.62,0,0,1-1.65,1.86,1,1,0,0,1-1.06-1.09c0-.42.19-1.67.19-5.62,0-5.51-.11-5.9-.49-7.37l3.5.85c.3.08.64.16.64.54s0,.39-1.13,1.09v7h3.57V281.85h-3.76a26,26,0,0,0-4.4.35l-.75-1.55c3,.27,5.19.27,5.79.27h4.33c.37-.69,2.41-5.23,2.25-8.76l3.84,2.25a.59.59,0,0,1,.38.5c0,.51-.57.66-1.62.86-1,1.16-2.75,3.41-4.06,5.15h5l1.28-1.51c.23-.23.41-.47.56-.47s.45.2.72.39l1.77,1.52a.78.78,0,0,1,.37.58C186.55,281.82,186.18,281.85,186,281.85Zm-13-1.94c-.94,0-1.2-.81-1.73-2.44a10.64,10.64,0,0,0-2.07-4.19l.19-.23c.49.19,5.19,2.21,5.19,5.12A1.64,1.64,0,0,1,173,279.91Z"/><path d="M211.79,295.55a22.9,22.9,0,0,1-10.3,6.13l-.08-.24a37.35,37.35,0,0,0,6.47-5.82c1.77-2,2-2.63,2.11-3.49l3,2c.3.19.49.39.49.66C213.45,295.27,212.7,295.51,211.79,295.55Zm23.4-4.11H219.81c0,.73,0,2.52,0,4.84,0,1.55.19,4,.19,5.55a1.91,1.91,0,0,1-2.07,1.94c-.67,0-1.09-.27-1.09-1.2s.23-5.28.23-6.17c.07-2.75,0-4.23,0-5H207c0,1.78-1.92,1.78-2.07,1.78-.83,0-.94-.58-.94-1.09s.22-3.61.26-4.3c.08-2.83.11-5.36.11-8.38,0-7.56-.15-8.34-.41-9.62l3.54,1.12c.37.12.75.24.75.59s-.49.73-1.17,1.2c-.11,2.48-.15,5-.15,7.52,0,1.13.08,8.85.08,10.24H230l1.84-2.05c.23-.27.38-.47.64-.47s.49.27.64.39l2.34,2.06a.85.85,0,0,1,.37.62C235.79,291.4,235.45,291.44,235.19,291.44Zm-6.88-19.55c0,1.59-.15,4.77.18,12.91,0,.12,0,1,0,1.09a1.69,1.69,0,0,1-1.84,1.78c-1.09,0-1.05-.73-1.05-1.78H214.39c0,.58,0,1.9-1.88,1.9-1,0-1-.51-1-.93,0-.16,0-.66,0-.82,0-.89.26-7.79.26-11.83a27.6,27.6,0,0,0-.56-6.32l3.72,1.82h10.46l1.09-1.08c.26-.27.38-.43.64-.43a1,1,0,0,1,.56.35l1.55,1.32a1,1,0,0,1,.41.7C229.66,271,228.8,271.54,228.31,271.89Zm-2.64-1.25H214.35v4.15h11.32Zm0,5.09H214.35v4h11.32Zm0,5H214.35V285h11.32Zm5.57,20.91c-1,0-1.39-.7-2.41-2.37a15.72,15.72,0,0,0-5.53-5.58l.12-.28c5.23.9,9.44,4.12,9.44,6.6A1.58,1.58,0,0,1,231.24,301.6Z"/><path d="M254.57,275.14l1.05-1c.19-.19.45-.46.6-.46a1.59,1.59,0,0,1,.56.39l1.47,1.12c.19.16.45.39.45.66s-.41.58-1.65,1.05a47.41,47.41,0,0,1-4.25,5.89v.28c2.71.5,5.53,1.93,5.53,4.07a1.49,1.49,0,0,1-1.43,1.47c-.68,0-1.13-.39-1.62-1.51a8.75,8.75,0,0,0-2.48-3.57v9.08c0,.58.15,8.3.15,8.57,0,1.28-.42,2-1.92,2-1,0-1-.59-1-1.13,0-2.36.34-14.08.42-16.75a28.8,28.8,0,0,1-7.34,5l-.15-.23c4.33-3.73,9.89-10.79,11.36-14.05h-4.44a26.2,26.2,0,0,0-4.4.35l-.75-1.55c1.58.16,3.87.27,5.53.27a21.84,21.84,0,0,0-.83-7.52l3.8,1.08c.19,0,.6.2.6.55s-.34.62-1.09,1.08c0,.66,0,3.84,0,4.81Zm18.84-4.54,1.24-1.24c.15-.11.49-.5.6-.5s.45.23.72.43l1.58,1.24c.22.19.41.39.41.58,0,.39-.34.43-.6.43H263.25a24.6,24.6,0,0,0-4.4.35l-.75-1.56c2.75.24,5.12.27,5.79.27Zm0,16.61,1.05-1.21c.15-.19.34-.38.49-.38a1.21,1.21,0,0,1,.53.31l1.73,1.28a.83.83,0,0,1,.38.58c0,.23-.34.58-1.13,1.2a11.32,11.32,0,0,0-.08,1.13c0,1.39.3,9.19.3,10.78,0,1-.86,1.51-1.8,1.51s-1-.46-.94-1.82H262.09c.07,1.36-.42,2.17-1.77,2.17-.94,0-.94-.58-.94-.93,0-1.36.15-7.29.15-8.49a53.5,53.5,0,0,0-.41-8.19l3.42,2.06Zm-2-11.83.9-.93c.19-.2.38-.43.53-.43s.3.15.45.27l1.54,1.28a.92.92,0,0,1,.38.62c0,.27-.34.54-1.05.93,0,.89.18,4.73.18,5.51a1.63,1.63,0,0,1-1.76,1.67c-.91,0-.91-.54-.91-1.48h-8.12c0,.62,0,1.79-1.58,1.79-.75,0-1-.35-1-1.36,0-.5.07-4,.07-4.81,0-1.51-.11-3.49-.26-4.81l3.08,1.75Zm-9.29,12.76v5.12h4.63v-5.12Zm0,6.05v5.47h4.63v-5.47Zm1.39-17.88v5.58h8.2v-5.58Zm10.46,16.95v-5.12h-4.78v5.12Zm0,6.4v-5.47h-4.78v5.47Z"/><path d="M318,272.85c-.07,1.44.19,22.35.19,25.18,0,2.48,0,4.61-4.25,5.43-.53-2.13-1.88-2.87-3.8-3.92l0-.27c.75.08,3.05.31,3.72.31.94,0,1.24-.15,1.36-.62s.15-12,.15-13.58c0-1.24,0-12.8,0-13.92H293c0,1.39,0,16.52,0,19.24,0,1.67.16,9,.16,10.51a1.9,1.9,0,0,1-2,2.13c-.56,0-1.09-.19-1.09-1.47,0-.54.27-3,.27-3.45.11-2.64.15-17,.15-19.63A73.75,73.75,0,0,0,290,268.7l3.61,1.83H315l1-1.13c.15-.19.27-.31.49-.31a1,1,0,0,1,.45.24l2,1.51c.27.19.45.31.45.62S319.26,272,318,272.85Zm-4.06,9h-8.65v12.26H309c0-4.5.07-5.12,0-6.79a7.38,7.38,0,0,0-.56-2.56l3.31.59c.33.07.79.19.79.65s-.15.51-.94,1c0,.63,0,3.57,0,4.27s.11,3.61.11,4.27a1.58,1.58,0,0,1-1.73,1.7c-1,0-1-.54-1-2.17h-9.7c0,.27,0,1.51,0,1.79a1.62,1.62,0,0,1-1.65,1.86,1,1,0,0,1-1.05-1.09c0-.42.18-1.67.18-5.62,0-5.51-.11-5.9-.49-7.37l3.5.85c.3.08.64.16.64.54s0,.39-1.13,1.09v7h3.58V281.85h-3.76a25.83,25.83,0,0,0-4.4.35l-.76-1.55c3,.27,5.19.27,5.8.27H304c.38-.69,2.41-5.23,2.26-8.76l3.83,2.25a.59.59,0,0,1,.38.5c0,.51-.56.66-1.62.86-1,1.16-2.74,3.41-4.06,5.15h5l1.28-1.51c.23-.23.42-.47.57-.47s.45.2.71.39l1.77,1.52a.78.78,0,0,1,.37.58C314.52,281.82,314.15,281.85,314,281.85Zm-13-1.94c-.94,0-1.2-.81-1.73-2.44a10.79,10.79,0,0,0-2.06-4.19l.18-.23c.49.19,5.19,2.21,5.19,5.12A1.64,1.64,0,0,1,301,279.91Z"/><path d="M363,275.3H345.3l3.12,1.05c.22.07.49.23.49.5s-.27.58-1,1.13c0,.62-.11,2.63-.19,3.95h7.53l1.09-1.2c.3-.31.41-.43.6-.43a1.27,1.27,0,0,1,.68.39l1.5,1.24a1,1,0,0,1,.49.7c0,.5-.71,1-1.13,1.28,0,1.82.19,10,.19,11.64,0,1.12,0,3.8-4.25,4.61a7,7,0,0,0-3.16-3.68v-.27a21.44,21.44,0,0,0,2.48.15c1.28,0,2-.15,2.15-.74s.07-10.55,0-12.76h-8.2c0,4.31,0,12,.15,16.06,0,.43.12,2.33.12,2.72,0,1.78-2,1.9-2.15,1.9a1,1,0,0,1-1.09-1.17c0-3.26.38-8.49.42-11.75s0-4.46,0-7.76h-7.6c0,1.24,0,6.64,0,7.76s.11,6.24.11,7.29a1.86,1.86,0,0,1-2,2.06c-.86,0-1.05-.47-1.05-1,0-.08,0-.35,0-.78.12-1.67.31-8.8.31-12.41a24.28,24.28,0,0,0-.49-5.78l3.72,1.9h7c0-4.42,0-4.92-.46-6.63H334.58a25.82,25.82,0,0,0-4.44.35l-.75-1.51c2.52.19,5.07.23,5.79.23h10c.08-4.19-.6-5.78-1-6.75l4.14.93c.34.08.72.19.72.58s0,.43-1.25,1.17c0,.65,0,3.49,0,4.07h9.82l1.8-2.17c.27-.35.42-.47.61-.47a1,1,0,0,1,.67.39l2.41,2.17a.78.78,0,0,1,.38.62C363.58,275.26,363.28,275.3,363,275.3Z"/><path d="M406.27,285.54a16.71,16.71,0,1,1-16.7-17.22A17,17,0,0,1,406.27,285.54Zm-32,0a15.35,15.35,0,1,0,15.34-15.83A15.6,15.6,0,0,0,374.23,285.54Z"/><path d="M449.16,285.54a16.71,16.71,0,1,1-16.7-17.22A17,17,0,0,1,449.16,285.54Zm-32.05,0a15.35,15.35,0,1,0,15.35-15.83A15.6,15.6,0,0,0,417.11,285.54Z"/><path d="M492,285.54a16.71,16.71,0,1,1-16.7-17.22A17,17,0,0,1,492,285.54Zm-32.05,0a15.35,15.35,0,1,0,15.35-15.83A15.6,15.6,0,0,0,460,285.54Z"/><path d="M534.92,285.54a16.71,16.71,0,1,1-16.7-17.22A17,17,0,0,1,534.92,285.54Zm-32,0a15.35,15.35,0,1,0,15.34-15.83A15.6,15.6,0,0,0,502.88,285.54Z"/><path d="M577.8,285.54a16.71,16.71,0,1,1-16.7-17.22A17,17,0,0,1,577.8,285.54Zm-32,0a15.35,15.35,0,1,0,15.34-15.83A15.6,15.6,0,0,0,545.76,285.54Z"/><path d="M205.33,335.47c0,1-.05,1.87-.05,4.38,0,3.06,0,6.43.11,9.47,0,.39.14,2.07.14,2.42s0,1.34-1.33,1.34c-.55,0-.58-.32-.58-.61s0-.78.07-.89H190a2.09,2.09,0,0,1,0,.86,1.28,1.28,0,0,1-1.21.71c-.56,0-.64-.32-.64-.62s0-1,.06-1.39c.22-4.1.27-8.23.27-12.36a40,40,0,0,0-.27-5.91l2.3,1.23h13l.68-.68a.66.66,0,0,1,.4-.25c.14,0,.25.09.4.23l1,.79a.56.56,0,0,1,.25.41C206.17,334.77,206,334.92,205.33,335.47Zm-1.64-.82H190V351h13.67Zm-1.48,13.14h-8.39a14.17,14.17,0,0,0-2.61.21l-.44-.92a32.18,32.18,0,0,0,3.41.16h1.57v-4.79h-.93a15.1,15.1,0,0,0-2.61.21l-.45-.91c1.75.15,3.32.15,3.41.15h.58v-3.74h-1.4a15.4,15.4,0,0,0-2.61.21l-.42-.91c1.13.09,2.26.16,3.39.16h4.58l.79-.87c.11-.11.25-.27.38-.27s.31.16.4.22l.91.87c.08.09.22.21.22.34s-.22.25-.34.25h-4.44v3.74h1.32l.71-.75c.14-.16.27-.3.38-.3s.24.14.4.26l.95.75a.5.5,0,0,1,.22.34c0,.23-.22.25-.33.25h-3.65v4.79h2.67l.78-.82c.15-.18.26-.27.38-.27a.73.73,0,0,1,.39.23l.91.82c.09.09.22.2.22.34S202.34,347.79,202.21,347.79Zm-2.61-1.51c-.51,0-.82-.47-.91-1a5.63,5.63,0,0,0-.62-2.21l.13-.12c1.55.62,2.22,1.6,2.22,2.38A.86.86,0,0,1,199.6,346.28Z"/><path d="M227.51,340.54l.91-1.24c.13-.18.2-.27.33-.27s.16.05.42.25l1.49,1.21a.5.5,0,0,1,.22.36c0,.21-.2.23-.36.23h-7.36c0,.76,0,4,0,4.7,0,.23,0,5,0,5.64H229l1.1-1.23c.16-.19.22-.28.34-.28s.19.07.42.25l1.46,1.21a.5.5,0,0,1,.22.34c0,.21-.2.25-.33.25H215.57a14.86,14.86,0,0,0-2.61.21l-.45-.91c1.49.13,3,.16,3.41.16h5.64c0-.21,0-5,0-5.57v-4.77h-4.67a15,15,0,0,0-2.61.21l-.44-.89c1.48.11,3,.14,3.41.14h4.31c0-5.18,0-5.77-.55-7.44l2.68.73c.22.07.35.11.35.32a.41.41,0,0,1-.2.34c-.09.09-.51.43-.64.53,0,1.84,0,3.67,0,5.52Z"/><path d="M245.87,339.24a1.59,1.59,0,0,1-.35,0,16.51,16.51,0,0,1-7.5,5.27l-.07-.13a23,23,0,0,0,5.47-5.23,5.29,5.29,0,0,0,.88-1.73l2,1.23a.34.34,0,0,1,.2.27C246.47,339.17,246.12,339.21,245.87,339.24ZM256.27,353a17.7,17.7,0,0,1-8.09-4.7,15.41,15.41,0,0,1-10,4.7l0-.18a18.31,18.31,0,0,0,9.07-5.7,14.25,14.25,0,0,1-2.54-6.23l.2,0a16.8,16.8,0,0,0,3.07,5.34,11.82,11.82,0,0,0,2.62-5.72l2,1.41a.47.47,0,0,1,.22.37c0,.27-.26.36-.84.48a23.5,23.5,0,0,1-2.92,4.58,15.11,15.11,0,0,0,9.29,3.4l0,.16A4.75,4.75,0,0,0,256.27,353Zm1.49-16.13H241.29a15.69,15.69,0,0,0-2.61.21l-.44-.91c1.51.13,3.08.16,3.41.16h5.55c0-2.49-.11-2.76-.62-4l2.61.69c.18,0,.36.14.36.36s-.51.5-.75.57c0,.39-.05,2-.05,2.38h5.91l1-1.26c.11-.16.23-.29.36-.29a.78.78,0,0,1,.42.22l1.46,1.28a.53.53,0,0,1,.22.34C258.11,336.82,257.91,336.86,257.76,336.86Zm-1.95,6.34c-.51,0-.58-.11-1.15-1.09a11.52,11.52,0,0,0-3.94-4l.07-.11c3.63.59,5.93,3,5.93,4.26A.9.9,0,0,1,255.81,343.2Z"/><path d="M282.49,352.67c-.75,0-4,.05-4.67.05a22.07,22.07,0,0,1-6-.66c-2.61-.8-3.14-2.06-3.45-2.76-.33.45-2,2.35-2.35,2.76-.06.22-.11.57-.15.66a.27.27,0,0,1-.25.18.42.42,0,0,1-.31-.18l-1.61-2a8.27,8.27,0,0,0,3.65-1.09V343a15.43,15.43,0,0,0-2.88.21l-.44-.91c1,.09,1.64.13,3,.16l.81-.64a1.08,1.08,0,0,1,.31-.18.43.43,0,0,1,.29.16l.89.82a.41.41,0,0,1,.15.29.33.33,0,0,1-.13.28l-.47.41c-.06.45-.06,2.78-.06,3.28,0,2.83,0,4.31,6.17,4.31a54.56,54.56,0,0,0,7.21-.52c.47-.09,1.22-.25,1.8-.39v.09A3.5,3.5,0,0,0,282.49,352.67Zm-14.1-15.58c-.66,0-.84-.61-1-1.09a5.44,5.44,0,0,0-1.88-2.92l0-.14c2.7.52,3.72,2.26,3.72,3.12A1,1,0,0,1,268.39,337.09Zm14.45,2.05c-.09.1-.57.48-.68.57-.05,1.1,0,6.48,0,7.72,0,.77,0,2.09-2.13,2.57a3.24,3.24,0,0,0-1.72-2.14v-.12c.22,0,1.3.07,1.55.07.73,0,.82-.16.82-.82v-1.5h-3.46c0,.22.07,2.44.07,2.85,0,.09.07.8.07.89a.9.9,0,0,1-1,.82c-.55,0-.55-.34-.55-.53s0-.73,0-.86c0-.46,0-2.67,0-3.17h-3.41c0,.45.05,2.64.05,3.14a1,1,0,0,1-1.06,1.12c-.58,0-.58-.36-.58-.61,0-.07,0-.37,0-.44.07-1,.09-4,.09-4.9a42.67,42.67,0,0,0-.24-6.28l2,1h3.72c-.18-.16-.2-.2-.38-.61a7.22,7.22,0,0,0-2-2.31v-.16a6.2,6.2,0,0,1,2.81,1c.53-.53,1.15-1.3,1.79-2.1h-4.95a15.09,15.09,0,0,0-2.61.2l-.45-.89c1.15.09,2.28.14,3.41.14h4.78l.8-.57a.54.54,0,0,1,.28-.16.69.69,0,0,1,.36.18l1.28,1.12a.47.47,0,0,1,.16.3.38.38,0,0,1-.18.27,12.63,12.63,0,0,1-1.28.23c-.49.14-2.62,1.28-3.1,1.48a1.51,1.51,0,0,1,.6,1.16.78.78,0,0,1-.36.71h3l.62-.61c.09-.1.18-.19.29-.19a.49.49,0,0,1,.24.14l1.15.82a.34.34,0,0,1,.18.23A.27.27,0,0,1,282.84,339.14Zm-7,0h-3.43c0,.64,0,1.85,0,2.6h3.41Zm0,3.15h-3.41v2.69h3.41Zm4.83-3.15h-3.46v2.6h3.46Zm0,3.15h-3.46v2.69h3.46Z"/><path d="M307.24,352.67c-4.8-2.73-7.1-6.45-7.94-12.57-.4,4-1.82,10.68-10,13l-.09-.18a14.44,14.44,0,0,0,7.13-7.66,22.28,22.28,0,0,0,1.33-5.71H292.4a15.39,15.39,0,0,0-2.62.21l-.44-.89c1.75.13,3.3.13,3.41.13h5a23,23,0,0,0,.11-2.37,14.35,14.35,0,0,0-.48-4l2.54.7c.2.05.4.16.4.35s-.31.48-.75.77c0,1.49-.09,2.9-.18,4.56h6.06l1-1.18c.11-.14.22-.28.33-.28a1,1,0,0,1,.42.23l1.48,1.19a.5.5,0,0,1,.22.34c0,.25-.22.25-.33.25h-9a19.2,19.2,0,0,0,1.68,4.79c1.64,3.42,4.38,5.27,8.45,6.39v.18A4.08,4.08,0,0,0,307.24,352.67Z"/><path d="M334.36,351.67h-15.9c0,.68,0,1.6-1.11,1.6a.63.63,0,0,1-.66-.71,5.23,5.23,0,0,1,0-.62c0-.43.18-9.28.18-14.32a21,21,0,0,0-.25-4.41l2,.92h12.05l.91-1.14c.13-.19.22-.3.36-.3s.17.07.42.25l1.41,1.14a.5.5,0,0,1,.22.34c0,.21-.2.25-.33.25h-7.81v4.45h3.85l.6-.61c.18-.19.24-.25.33-.25s.13,0,.27.18l1.06,1c.15.13.22.2.22.34s-.58.59-.82.73c0,.82.18,4.45.18,5.18a1.06,1.06,0,0,1-1.13,1.16c-.53,0-.53-.34-.51-1.1h-4.09v5.41h5.35l1-1.18c.17-.23.24-.3.35-.3s.2.09.42.25l1.51,1.19a.43.43,0,0,1,.22.34C334.72,351.62,334.52,351.67,334.36,351.67Zm-10-17h-5.92v4.45h5.92Zm5.58,5h-11.5v5.5H330Zm-5.64,6h-5.86v5.41h5.86Z"/><path d="M349.12,354a14.23,14.23,0,0,1,0-22.08l.2.32a15.75,15.75,0,0,0,0,21.44Z"/><path d="M356.06,350.85h1.22c1.15,0,1.55-.46,1.55-1.39V337.11c0-.7-.64-.82-1.07-.82h-1.68v-.7h.4a8.33,8.33,0,0,0,3.61-1c.15-.09.22-.14.31-.14s.24.14.24.32v14.65c0,1,.47,1.39,1.55,1.39h1.22v.73h-7.35Z"/><path d="M370.35,354l-.2-.32a15.75,15.75,0,0,0,0-21.44l.2-.32a14.23,14.23,0,0,1,0,22.08Z"/><path d="M394.27,336.25h-3.85c1.21.8,1.81,1.18,1.81,2a.92.92,0,0,1-.84,1c-.62,0-.66-.34-.82-1.34a5.71,5.71,0,0,0-.48-1.69h-1a13.07,13.07,0,0,1-3.89,3.94l-.09-.11a28.51,28.51,0,0,0,3.85-6.55,3.38,3.38,0,0,0,.13-1.23l2,1.1a.33.33,0,0,1,.2.29c0,.23-.34.34-.89.53-.29.43-.86,1.3-1,1.48H392l.66-.84c.11-.14.24-.3.33-.3s.24.11.42.25l1,.84a.57.57,0,0,1,.22.35C394.6,336.2,394.4,336.25,394.27,336.25Zm8.87,10.26c-.62,3-.93,4.59-4,4.95a3.71,3.71,0,0,0-1.68-2.42l0-.13a15.41,15.41,0,0,0,2.5.39c.68,0,1.3-.21,1.65-3.33H395.2c0,.79.06,4.69.08,5.58,0,.12.05.78.05.94a1,1,0,0,1-1.09,1c-.28,0-.59-.09-.59-.69,0-1.11.11-4.9.13-6.09a18.8,18.8,0,0,1-8.27,6l-.05-.19a28.72,28.72,0,0,0,7-6.47h-4.38c-.26,1-.37,1.46-1.12,1.46-.51,0-.78-.19-.78-.55a11.53,11.53,0,0,1,.4-1.19,12.34,12.34,0,0,0,.93-4.31l1.79,1.05h4.51c0-.21,0-1.89,0-2.26h-3.34a14,14,0,0,0-2.61.23l-.44-.91c1.08.09,2.32.13,3.41.13h9l.59-.59a.4.4,0,0,1,.25-.14.55.55,0,0,1,.31.14l1,.82c.06.07.17.14.17.28s-.24.38-.7.7c0,.35.08,1.92.08,2.15,0,.77-.88.86-1,.86-.57,0-.55-.5-.53-.86H395.2v2.44h6.28l.77-.82c.09-.09.2-.23.29-.23s.25.14.33.23l1,.95a.41.41,0,0,1,.16.28C404.05,346.12,403.69,346.24,403.14,346.51ZM393.82,343h-4.95c-.22.7-.24.89-.62,2.44h5.57Zm10.16-6.5h-6.44c1.66.66,2.3.93,2.3,1.89a.79.79,0,0,1-.79.84c-.56,0-.65-.34-1-1.34a4.42,4.42,0,0,0-.86-1.39h-.84a11.93,11.93,0,0,1-2.59,2.82l-.11-.09c1.39-2.42,2.67-4.83,2.61-6.82l2.14,1a.29.29,0,0,1,.2.27c0,.23-.31.39-1,.59a17.72,17.72,0,0,1-.95,1.67h4.67l.73-1.07c.09-.14.2-.28.33-.28a.76.76,0,0,1,.42.23l1.24,1.07a.5.5,0,0,1,.22.34C404.31,336.43,404.13,336.48,404,336.48Zm-4,3.69H395.2v2.26H400Z"/><path d="M414.6,352a4.47,4.47,0,0,1-3.63-2.46,14.57,14.57,0,0,1-1.35-6.5c0-4.86,2-8.56,5-8.56,2.27,0,5,2.53,5,8.76C419.57,348.84,417.3,352,414.6,352Zm-2.48-13.71a21.25,21.25,0,0,0-.51,4.95c0,5.09,1.17,8,3,8,1.52,0,2.21-2.09,2.45-3a21.71,21.71,0,0,0,.53-5c0-5.2-1.21-8-3-8C413,335.27,412.34,337.5,412.12,338.3Z"/><path d="M430.52,352a4.45,4.45,0,0,1-3.62-2.46,14.57,14.57,0,0,1-1.35-6.5c0-4.86,2-8.56,5-8.56,2.28,0,5,2.53,5,8.76C435.5,348.84,433.22,352,430.52,352Zm-2.47-13.71a21.25,21.25,0,0,0-.51,4.95c0,5.09,1.17,8,3,8,1.53,0,2.22-2.09,2.46-3a21.71,21.71,0,0,0,.53-5c0-5.2-1.22-8-3-8C429,335.27,428.27,337.5,428.05,338.3Z"/><path d="M446.45,352a4.47,4.47,0,0,1-3.63-2.46,14.57,14.57,0,0,1-1.35-6.5c0-4.86,2-8.56,5-8.56,2.28,0,5,2.53,5,8.76C451.43,348.84,449.15,352,446.45,352ZM444,338.3a21.25,21.25,0,0,0-.51,4.95c0,5.09,1.18,8,3,8,1.53,0,2.21-2.09,2.46-3a21.71,21.71,0,0,0,.53-5c0-5.2-1.22-8-3-8C444.88,335.27,444.19,337.5,444,338.3Z"/><path d="M462.38,352a4.47,4.47,0,0,1-3.63-2.46,14.57,14.57,0,0,1-1.35-6.5c0-4.86,2-8.56,5-8.56,2.28,0,5,2.53,5,8.76C467.36,348.84,465.08,352,462.38,352ZM459.9,338.3a21.25,21.25,0,0,0-.51,4.95c0,5.09,1.17,8,3,8,1.53,0,2.21-2.09,2.45-3a21.64,21.64,0,0,0,.54-5c0-5.2-1.22-8-3-8C460.81,335.27,460.12,337.5,459.9,338.3Z"/><path d="M478.31,352a4.47,4.47,0,0,1-3.63-2.46,14.57,14.57,0,0,1-1.35-6.5c0-4.86,2-8.56,5-8.56,2.28,0,5,2.53,5,8.76C483.28,348.84,481,352,478.31,352Zm-2.48-13.71a21.25,21.25,0,0,0-.51,4.95c0,5.09,1.17,8,3,8,1.52,0,2.21-2.09,2.45-3a21.71,21.71,0,0,0,.53-5c0-5.2-1.21-8-3-8C476.74,335.27,476.05,337.5,475.83,338.3Z"/><path d="M509.54,341.61h-11c-.58,1.09-1.22,2.6-1.5,3.28h6.19l.8-.7c.11-.09.22-.19.33-.19s.24.14.35.25l1.11,1.05a.62.62,0,0,1,.2.37c0,.3-.42.41-1.11.61-1,4.77-1.5,7.28-5.71,7.19a3.84,3.84,0,0,0-2.21-2.6l0-.14a18.23,18.23,0,0,0,3.74.6c1.11,0,1.79-.76,2.61-5.89h-6.55a23.12,23.12,0,0,1-1.21,2.6,1,1,0,0,1-.87.39c-.37,0-.86-.21-.86-.57a1.22,1.22,0,0,1,.13-.46c1.33-2.6,1.49-2.92,2.77-5.79h-4.14a15.09,15.09,0,0,0-2.61.2l-.44-.89c1.75.14,3,.14,3.41.14h13.52l1-1.25c.11-.14.22-.28.35-.28s.29.14.4.23l1.37,1.28a.46.46,0,0,1,.23.34C509.88,341.61,509.65,341.61,509.54,341.61ZM505,334.67c0,.89,0,3.15,0,4,0,.31,0,.93-.95.93-.71,0-.75-.34-.69-1.12h-7.65c0,.57,0,1.28-1.09,1.28a.58.58,0,0,1-.59-.59c0-.16.09-.89.09-1.05,0-.8.11-1.87.11-3a9.82,9.82,0,0,0-.27-2.58l2.06,1h7.17l.44-.55c.09-.12.22-.25.31-.25a.84.84,0,0,1,.35.18l1.06.66a.52.52,0,0,1,.25.39C505.63,334.13,505.47,334.31,505,334.67Zm-1.59-.57h-7.66v3.84h7.66Z"/><path d="M140.42,389.14a14.25,14.25,0,0,1,0-22.08l.2.32a15.78,15.78,0,0,0,0,21.44Z"/><path d="M154.64,371c-2.14,3.38-3.82,5.91-8,8.44l-.11-.16c3.56-3.53,6.7-8.21,6.53-10.54l2.25,1.4a.48.48,0,0,1,.27.38C155.53,370.75,155.33,370.87,154.64,371Zm9.14,16.54c-.53,0-.9-.36-1.17-1l-.93-2.17a103.06,103.06,0,0,1-11,2.78c-.38.51-.49.62-.69.62s-.31-.23-.35-.37l-.73-2.37a9.1,9.1,0,0,0,1.81.21c.18,0,1.46-.12,1.73-.14a43.37,43.37,0,0,0,3-8.24,5.32,5.32,0,0,0,.07-1.32l2.3,1c.14.06.33.18.33.38s-.26.39-.75.55c-.24.41-.42.73-2,3.65-.67,1.16-1.4,2.4-2.37,3.9,2.54-.27,5.69-.66,8.52-1a12.66,12.66,0,0,0-2.61-3l.06-.16c2.59,1,5.87,3.27,5.87,5.5C164.76,387.34,164.05,387.54,163.78,387.54Zm1.42-8.83A11.87,11.87,0,0,1,161,375a11.53,11.53,0,0,1-2.17-5.45,16.79,16.79,0,0,0-2.9.25l-.46-.91c.57,0,1.7.11,2.85.11l.64-.77c.16-.19.25-.3.36-.3s.24.09.46.25l1,.73c.08.07.22.18.22.34s-.16.3-.51.46c-.51.2-.71.3-1,.41a9.38,9.38,0,0,0,7.9,6.52v.16A3.6,3.6,0,0,0,165.2,378.71Z"/><path d="M180.2,380.33c-.51,0-.76-.43-.93-.77a14.32,14.32,0,0,0-1.82-2.92c0,6,0,6.7,0,8.37,0,.34.09,1.87.09,2.17a1,1,0,0,1-1.08,1,.61.61,0,0,1-.69-.7c0-.26.09-1.35.09-1.58.07-1.75,0-2.21.11-7.8a17,17,0,0,1-4.38,3.35l-.09-.16a34.05,34.05,0,0,0,6.68-8.64h-3.09a15.36,15.36,0,0,0-2.61.2l-.42-.89c1.5.12,3.07.14,3.38.14H176a12.12,12.12,0,0,0-.58-4.47l2.55.75a.39.39,0,0,1,.26.3c0,.27-.26.45-.71.68a26.64,26.64,0,0,0,0,2.74h.8l.55-.59c.16-.16.27-.23.4-.23s.22.09.35.2l1,.92a.39.39,0,0,1,.15.32c0,.34-.35.43-1.06.52a31.58,31.58,0,0,1-2.21,3.13,8.42,8.42,0,0,1,2.35,1.25,2.23,2.23,0,0,1,1.1,1.73C181,379.72,180.79,380.33,180.2,380.33Zm11.61,6.5h-9.36a15,15,0,0,0-2.61.21l-.44-.91c1.55.13,3.21.16,3.41.16H185c0-2.33,0-6,0-8.35,0-1.1,0-1.26,0-2h-1.3a15.78,15.78,0,0,0-2.61.2l-.45-.91c1.49.14,3,.16,3.41.16H185c0-.39,0-1.9,0-2.28,0-3.68,0-4.15-.64-5.48l2.45.6c.34.06.54.22.54.43s-.42.55-.76.68c0,.57,0,5.09,0,6.05h2.24l.81-1.12c.14-.18.23-.27.36-.27s.24.09.42.25l1.22,1.09a.57.57,0,0,1,.22.37c0,.16-.18.23-.34.23H186.5v6.18l0,4.13h2.37l1-1.19c.16-.18.27-.25.38-.25a.61.61,0,0,1,.42.23l1.21,1.16a.6.6,0,0,1,.2.37C192.14,386.77,191.94,386.83,191.81,386.83Z"/><path d="M198.38,389.14l-.2-.32a15.78,15.78,0,0,0,0-21.44l.2-.32a14.25,14.25,0,0,1,0,22.08Z"/><path d="M218.36,372l.61-.57c.12-.11.27-.27.36-.27a1,1,0,0,1,.33.23l.86.66c.11.09.27.23.27.39s-.24.34-1,.61a29.42,29.42,0,0,1-2.5,3.47v.16c1.59.3,3.25,1.14,3.25,2.4a.87.87,0,0,1-.84.86c-.4,0-.67-.23-.95-.89a5.31,5.31,0,0,0-1.46-2.1v5.34c0,.34.08,4.88.08,5,0,.76-.24,1.17-1.12,1.17-.6,0-.6-.35-.6-.67,0-1.39.2-8.28.24-9.85a16.82,16.82,0,0,1-4.31,3l-.09-.14a33.05,33.05,0,0,0,6.68-8.26h-2.61a15.1,15.1,0,0,0-2.59.21l-.44-.92c.93.1,2.28.16,3.25.16a12.7,12.7,0,0,0-.49-4.42l2.24.64c.11,0,.35.11.35.32s-.2.36-.64.63c0,.39,0,2.26,0,2.83Zm11.08-2.67.73-.73c.09-.06.29-.29.35-.29s.27.14.42.25l.93.73c.14.11.25.23.25.34s-.2.25-.36.25h-8.29a14.14,14.14,0,0,0-2.59.21l-.45-.92c1.62.14,3,.16,3.41.16Zm0,9.77.62-.71c.09-.11.2-.23.28-.23a.68.68,0,0,1,.31.19l1,.75a.48.48,0,0,1,.22.34c0,.14-.2.34-.66.71,0,.18,0,.5,0,.66,0,.82.17,5.4.17,6.34a.94.94,0,0,1-1.06.89c-.6,0-.6-.27-.55-1.07h-6.95c0,.8-.24,1.28-1,1.28-.55,0-.55-.35-.55-.55,0-.8.09-4.29.09-5a30.32,30.32,0,0,0-.25-4.81l2,1.21Zm-1.2-7,.53-.55c.11-.11.23-.25.31-.25s.18.09.27.16l.91.75a.56.56,0,0,1,.22.37c0,.16-.2.32-.62.55,0,.52.11,2.78.11,3.24a1,1,0,0,1-1,1c-.53,0-.53-.32-.53-.87H223.6c0,.36,0,1.05-.93,1.05-.44,0-.62-.21-.62-.8,0-.3,0-2.37,0-2.83a28,28,0,0,0-.15-2.83l1.81,1Zm-5.46,7.51v3h2.72v-3Zm0,3.55v3.22h2.72v-3.22Zm.82-10.51V376h4.82v-3.28Zm6.15,10v-3h-2.81v3Zm0,3.76v-3.22h-2.81v3.22Z"/><path d="M256.12,370.64c-.05.84.11,13.14.11,14.8,0,1.46,0,2.72-2.5,3.2-.31-1.26-1.11-1.69-2.24-2.31l0-.16c.44.05,1.79.18,2.19.18s.73-.09.79-.36.09-7.07.09-8c0-.73,0-7.53,0-8.19H241.38c0,.82,0,9.71,0,11.31,0,1,.09,5.32.09,6.18a1.12,1.12,0,0,1-1.19,1.26c-.34,0-.65-.12-.65-.87,0-.32.16-1.76.16-2,.07-1.55.09-10,.09-11.54a42.37,42.37,0,0,0-.25-5.93l2.13,1.07h12.61l.57-.66a.34.34,0,0,1,.29-.18.55.55,0,0,1,.27.13l1.19.89c.16.12.27.18.27.37S256.85,370.14,256.12,370.64Zm-2.39,5.29h-5.09v7.21h2.15c0-2.65,0-3,0-4a4.09,4.09,0,0,0-.33-1.51l1.95.34c.2,0,.46.12.46.39s-.08.3-.55.57c0,.37,0,2.1,0,2.51s.07,2.12.07,2.51a.93.93,0,0,1-1,1c-.62,0-.6-.32-.58-1.27h-5.7c0,.16,0,.89,0,1.05,0,1.07-.84,1.09-1,1.09a.58.58,0,0,1-.62-.64c0-.25.11-1,.11-3.31,0-3.24-.07-3.46-.29-4.33l2.06.5c.17.05.37.09.37.32s0,.23-.66.64v4.13h2.1v-7.21H245a14.54,14.54,0,0,0-2.59.21l-.44-.92c1.77.16,3.05.16,3.4.16h2.55a12.89,12.89,0,0,0,1.33-5.15l2.25,1.32a.36.36,0,0,1,.22.3c0,.29-.33.38-.95.5-.59.68-1.61,2-2.39,3h3l.75-.89c.13-.13.24-.27.33-.27a.81.81,0,0,1,.42.23l1,.89a.46.46,0,0,1,.22.34C254.06,375.91,253.84,375.93,253.73,375.93Zm-7.63-1.14c-.56,0-.71-.48-1-1.44a6.26,6.26,0,0,0-1.22-2.46l.11-.14c.29.12,3.06,1.3,3.06,3A1,1,0,0,1,246.1,374.79Z"/><path d="M269.35,384a13.45,13.45,0,0,1-6.07,3.61l0-.14A22.3,22.3,0,0,0,267,384c1-1.19,1.16-1.55,1.24-2l1.75,1.18c.18.11.29.23.29.39S269.88,384,269.35,384Zm13.76-2.42h-9.05c0,.44,0,1.49,0,2.86,0,.91.11,2.35.11,3.26a1.12,1.12,0,0,1-1.22,1.14c-.39,0-.64-.16-.64-.71s.14-3.1.14-3.63c0-1.62,0-2.48,0-2.92h-5.95c0,1.05-1.13,1.05-1.22,1.05-.49,0-.55-.34-.55-.63s.13-2.13.15-2.54c0-1.66.07-3.15.07-4.92,0-4.45-.09-4.91-.25-5.66l2.08.66c.22.07.45.14.45.34s-.29.44-.69.71c-.07,1.46-.09,3-.09,4.42,0,.67.05,5.21.05,6H280l1.09-1.21c.13-.16.22-.28.37-.28s.29.16.38.23l1.37,1.21a.53.53,0,0,1,.22.37C283.46,381.54,283.26,381.56,283.11,381.56Zm-4.05-11.49c0,.93-.09,2.8.11,7.59,0,.07,0,.6,0,.64a1,1,0,0,1-1.08,1.05c-.64,0-.62-.43-.62-1.05h-6.62c0,.34,0,1.12-1.1,1.12-.58,0-.6-.3-.6-.55,0-.09,0-.39,0-.48,0-.52.16-4.58.16-6.95a15.65,15.65,0,0,0-.34-3.72l2.19,1.07h6.16l.64-.64c.15-.16.22-.25.37-.25s.27.14.33.2l.91.78a.58.58,0,0,1,.25.41C279.86,369.52,279.35,369.86,279.06,370.07Zm-1.55-.73h-6.66v2.44h6.66Zm0,3h-6.66v2.37h6.66Zm0,2.92h-6.66v2.51h6.66Zm3.27,12.29c-.57,0-.81-.41-1.41-1.39a9.48,9.48,0,0,0-3.25-3.29l.06-.16c3.08.53,5.56,2.42,5.56,3.88A.93.93,0,0,1,280.78,387.54Z"/><path d="M307,372.87a15.33,15.33,0,0,0-2,1.33l-.11-.07a12.13,12.13,0,0,0,.69-2.35H292.66c.07,2.55-1.28,3.76-2.23,3.76a.92.92,0,0,1-.95-.89c0-.57.5-1,1.12-1.48a4,4,0,0,0,1.71-2.83h.13a4.07,4.07,0,0,1,.18.89h5.71a8.67,8.67,0,0,0-.45-3.63l2.3.69c.25.07.34.2.34.34s-.16.34-.67.71v1.89h5.6l.69-.66a.66.66,0,0,1,.42-.23c.15,0,.31.16.42.27l1.28,1.28a.84.84,0,0,1,.27.57C308.53,372.69,308.41,372.87,307,372.87Zm1.29,14.22c-.95.7-3.65.72-4.91.72-5,0-6,0-6.13-2.23,0-.37,0-3.51,0-4.08l-4.55.86a13.48,13.48,0,0,0-2.53.69l-.59-.82c1.13-.12,2.25-.25,3.38-.46l4.29-.82c0-.57,0-3.4.05-4a29,29,0,0,1-7.13,1.28V378c.34-.07,10.05-2.81,11.69-5.13l1.48,1.5a.54.54,0,0,1,.15.39c0,.2-.22.3-.33.3l-.79,0a33.46,33.46,0,0,1-3.52,1.35c0,.61,0,3.58,0,4.24l6.69-1.25.81-1.37c.12-.18.2-.34.34-.34a.92.92,0,0,1,.39.16l1.51.89a.5.5,0,0,1,.29.36c0,.18-.14.23-.29.25l-9.76,1.85c0,1.73,0,3,.05,4.15a.7.7,0,0,0,.44.73,17.71,17.71,0,0,0,4.07.18c3.36,0,3.74,0,4.42-4.26h.14c.11.61.26,1.55.42,2.32s.17.87.44,1.12.35.32.35.55C309,386.47,308.57,386.86,308.24,387.09Z"/><path d="M322.57,375.86H320v7.35c1.79-.55,2.3-.76,2.81-.94l.09.18a22.29,22.29,0,0,1-3.19,1.94c-.9.48-2.05,1.08-2.72,1.42-.2.48-.28.73-.55.73s-.29-.16-.35-.28l-1.15-2c.75,0,1.12.09,3.62-.61,0-.78,0-4.25,0-4.95v-2.81h-.45a14.33,14.33,0,0,0-2.61.21l-.42-.92c1.31.12,2.64.16,3.48.16,0-1.14,0-2.28,0-3.42a13.13,13.13,0,0,0-.28-3.37l2.23.77c.11,0,.31.14.31.34s-.44.62-.75.82c-.05,1.6-.05,2.38-.07,4.86h.53l.67-.75c.2-.23.26-.29.37-.29s.27.15.38.25l.77.75c.11.11.2.2.2.34S322.7,375.86,322.57,375.86Zm9.89,11.68c-.51.09-4.42.09-5,.09-3.63,0-4.27-.18-4.27-2.67,0-.89.06-4.81.06-5.61,0-.23,0-1.25,0-1.46A11.89,11.89,0,0,0,321,379.1l-.75-.64c1.2-.41,2.57-1,2.9-1.18v-4a11.89,11.89,0,0,0-.24-2.65l2.05.73c.16.05.34.14.34.32s-.18.37-.71.75c0,.69-.05,3.65-.05,4.25l2.42-1.12c0-2.28,0-3.9-.05-5.5a16.6,16.6,0,0,0-.26-2l2.12.73c.22.07.38.19.38.35s-.31.48-.78.84c0,2.05,0,2.35,0,4.95l2.14-1L331,373c.12-.19.23-.39.38-.39a.75.75,0,0,1,.42.18l1,.66a.48.48,0,0,1,.22.37c0,.27-.24.5-.55.8,0,6.84,0,8.41-2.63,9.12a2.86,2.86,0,0,0-1.33-1.91v-.12a4.19,4.19,0,0,0,.68.05c1.55,0,1.8-.21,1.8-5,0-1.55,0-1.8-.05-2.46l-2.63,1.23c0,3.35,0,5.54.07,6.16,0,.29.06,1.64.06,1.91a1.05,1.05,0,0,1-1.13,1.14c-.31,0-.53-.11-.53-.59,0-.25.07-1.42.07-1.64,0-1.46,0-2.33.07-6.34l-2.42,1.11c0,.92,0,7.92,0,8.19a.74.74,0,0,0,.53.64c.28.09,3.45.09,3.87.09,2.28,0,3,0,3.43-.84a20.55,20.55,0,0,0,1-2.76h.16a8.12,8.12,0,0,0,.42,2.71c.13.23.51.44.51.66S334.12,387.24,332.46,387.54Z"/><path d="M358.92,387.77c-8-.11-11.48-.16-14.47-3.15a10.44,10.44,0,0,1-4.52,3.95l-.13-.14a14.28,14.28,0,0,0,3.83-4.74,11.22,11.22,0,0,1-2.06-4.41l.22-.18a10.1,10.1,0,0,0,2.24,3.74,16.16,16.16,0,0,0,1.24-6.2h-1.86c-.44,1.27-.55,1.62-1.28,1.62-.16,0-.8,0-.8-.53a15.62,15.62,0,0,1,.53-1.62c1.15-3.05,2.06-5.54,2.32-6.54h-.79a14.5,14.5,0,0,0-2.61.2l-.42-.91c1.12.09,2.25.16,3.38.16h.4l.57-.48c.2-.16.31-.23.42-.23a.73.73,0,0,1,.38.23l.86.75a.49.49,0,0,1,.22.41c0,.28-.44.48-1,.73-.49,1.28-.78,2.06-2,5.66h1.5l.6-.48a.8.8,0,0,1,.42-.23c.15,0,.26.09.42.25l.68.73a.79.79,0,0,1,.27.48c0,.21-.22.35-.69.64a16.12,16.12,0,0,1-1.81,6.27c2.12,1.76,5,2.26,7.7,2.26a48.83,48.83,0,0,0,7.79-.66l0,.18A2.81,2.81,0,0,0,358.92,387.77Zm1.3-14.21h-3.05c.09,2.71.09,2.71.09,2.87,0,.46,0,1.17-1.06,1.17-.6,0-.58-.37-.56-.76h-2.72v2.37h3.32l.66-.86c.16-.18.25-.3.38-.3s.24.12.42.25l1,.87a.67.67,0,0,1,.22.34c0,.21-.16.25-.33.25h-5.67l0,2.42h3.94l.84-1c.18-.21.27-.3.38-.3s.24.09.4.25l1,1a.58.58,0,0,1,.22.39c0,.14-.13.21-.33.21h-6.49c0,.27.05,1.62,0,1.91a1,1,0,0,1-1,.83c-.71,0-.71-.42-.71-.67s.11-1.73.11-2.07h-1.5a15.84,15.84,0,0,0-2.59.2l-.44-.89c1.72.14,3.36.14,3.41.14h1.15c0-.62,0-1.19,0-2.42h-.66a14,14,0,0,0-2.59.21l-.44-.89c.66,0,1.9.13,3.71.13v-2.37H351a15.29,15.29,0,0,0-2.61.21l-.44-.89c1.59.11,3.27.13,3.49.13l0-2.73h-2.05a14.75,14.75,0,0,0-2.59.2l-.44-.91c1.12.11,2.25.16,3.38.16h1.7l0-2.67h-.53a16.15,16.15,0,0,0-2.61.21l-.42-.92c1.55.14,3,.16,3.54.16a4.16,4.16,0,0,0-.33-2.12l2.12.53c.25.07.38.16.38.36s-.27.41-.62.62v.61h2.57l.55-.5c.15-.14.26-.23.4-.23s.24.12.39.25l.62.62a.67.67,0,0,1,.27.43c0,.19-.18.32-.62.64a14,14,0,0,0,0,2h.8l.64-.84c.13-.19.24-.28.35-.28a.66.66,0,0,1,.42.23l.95.84c.11.12.23.23.23.35S360.44,373.56,360.22,373.56Zm-4.53,0h-2.75l0,2.73h2.77Zm0-3.22H353l-.05,2.67h2.75Z"/><path d="M371.79,380c0,2.76,0,3.23,0,4.56,0,.8.08,2.07.08,2.87a1.09,1.09,0,0,1-1.15,1c-.48,0-.59-.29-.59-.64,0-.09,0-.93,0-1.09.09-1.71.09-2.33.13-6a20.65,20.65,0,0,1-2.72,1.3c0,.41-.06.8-.42.8s-.37-.25-.44-.39l-1-2c1.37.07,1.75,0,4.65-.87,0-2,0-4.26,0-6h-2a17.84,17.84,0,0,1-2,5l-.13,0a37.81,37.81,0,0,0,1-7.92,4.19,4.19,0,0,0-.22-1.55l2.12.53c.18,0,.38.09.38.34s-.31.45-.67.59a22.15,22.15,0,0,1-.37,2.47h1.83c0-3.22-.11-4.16-.59-5.3l2.43.73c.13.05.33.16.33.32s-.37.48-.71.66c0,.48,0,2.9,0,3.59h.44l.62-.87c.11-.14.22-.3.34-.3s.28.14.39.25l.89.87a.55.55,0,0,1,.2.34c0,.21-.2.25-.33.25h-2.55c0,1.46,0,4,0,5.48.44-.16,2.5-.89,2.9-1.05l.07.16A28.67,28.67,0,0,1,371.79,380Zm13-6.19c-.17,4.77-.35,9.11-1.74,12.07a4.26,4.26,0,0,1-3.43,2.31c-.16-1-.51-1.67-1.88-2.7l.06-.16a9.23,9.23,0,0,0,2.68.48c.53,0,.89,0,1.51-1.62a36.15,36.15,0,0,0,1.23-11H382c-.64,5.16-2.76,11.8-9.16,14.28l-.06-.16c4.69-3.62,6.68-7.48,7.61-14.12h-1.24c-.91,4.82-3.41,9-6.62,10.52l-.06-.14a19.61,19.61,0,0,0,5.06-10.38h-1.1a14.33,14.33,0,0,1-3,4.54l-.11-.11a26,26,0,0,0,2.85-9.31,2.74,2.74,0,0,0-.11-.78l2.22.92c.22.09.33.23.33.36,0,.3-.42.41-.78.5-.57,1.83-1,2.76-1.17,3.34h6.37l.53-.58c.14-.15.25-.25.34-.25a1,1,0,0,1,.39.21l1,.8c.16.11.25.18.25.32C385.6,373.49,385.09,373.74,384.84,373.85Z"/><path d="M410.37,387.56a11.76,11.76,0,0,1-4.62-4.56,11.68,11.68,0,0,1-5.16,4c0,.82,0,1.64-1.12,1.64-.69,0-.69-.43-.69-.87s.11-2.23.13-2.66,0-2.74,0-3.27a42.09,42.09,0,0,1-5.77,2.44c-.18.58-.31.76-.53.76s-.31-.16-.4-.39l-.84-2.24a4.64,4.64,0,0,0,1,.14,15.65,15.65,0,0,0,1.74-.2V369.77a13.21,13.21,0,0,0-2,.21l-.44-.92c1.74.16,3.38.16,3.4.16h5.84l1-1.07c.17-.2.26-.27.37-.27s.24.07.44.25l1.11,1.05a.6.6,0,0,1,.2.36c0,.19-.13.23-.33.23h-3.17c0,8.65-.06,9.6.11,17a13.91,13.91,0,0,0,4.43-5.16,25.18,25.18,0,0,1-2.08-9.88,5.13,5.13,0,0,0-1.13.16l-.44-.91c1.72.14,3.36.14,3.38.14h3.06l.62-.73c.2-.23.26-.3.37-.3s.25.07.47.25l1,.8a.76.76,0,0,1,.31.41.38.38,0,0,1-.19.39,6.94,6.94,0,0,1-1,.64,28.24,28.24,0,0,1-2.88,9.21,11.24,11.24,0,0,0,5.8,4.11V386A3.28,3.28,0,0,0,410.37,387.56Zm-11.44-17.79h-3.27v3.65h3.27Zm0,4.2h-3.27v3.69h3.27Zm0,4.24h-3.27v3.92c1.15-.22,2.79-.52,3.27-.66Zm5.47-6.55-1,0a27.72,27.72,0,0,0,2.28,8.62,24.61,24.61,0,0,0,2.15-8.67Z"/><path d="M421,373.92h3.89v-4.17H420.5a15.91,15.91,0,0,0-2.61.2l-.42-.89c1.46.12,3,.14,3.39.14h3.87l.51-.57c.11-.11.2-.25.35-.25a.87.87,0,0,1,.33.14l.87.57a.52.52,0,0,1,.33.43c0,.21-.22.41-.78.8,0,.68.09,3.72.09,4.31a.93.93,0,0,1-.2.64,1.17,1.17,0,0,1-.9.36c-.49,0-.62-.22-.51-1.16h-4.23c-.09.52-.6,3.67-.62,3.79h4.52l.62-.71a.48.48,0,0,1,.37-.25.77.77,0,0,1,.36.16l.9.68a.55.55,0,0,1,.25.41c0,.28-.31.48-.67.66-.24,3-1.08,6.05-2.28,7.46a4.83,4.83,0,0,1-3.49,1.49,4.53,4.53,0,0,0-1.71-2.58v-.14a13,13,0,0,0,3,.48c.47,0,1,0,1.53-1a14.88,14.88,0,0,0,1.39-6.1h-4.84a7.29,7.29,0,0,1-.27,1.69,1.29,1.29,0,0,1-1.11.64.52.52,0,0,1-.59-.52c0-.21.62-2.85.7-3.33a18.63,18.63,0,0,0,.4-4.36Zm13.91-5.22c.2,0,.4.07.4.32s-.2.45-.75.77c0,.44,0,6,0,10.36,0,1.1.18,6,.18,7a1.09,1.09,0,0,1-.29.89,1.85,1.85,0,0,1-1,.37c-.5,0-.59-.42-.59-.76,0-.13,0-.27,0-.57.11-1.85.11-4.22.11-5.15,0-8.51,0-10.7-.09-11.48a12,12,0,0,0-.4-2.28Z"/><path d="M462,372.87h-6.9l1.15.71c.09.07.22.21.22.32,0,.27-.42.32-.82.34a25.24,25.24,0,0,1-1.95,1.85h3.79l.86-1c.11-.14.24-.28.35-.28a.78.78,0,0,1,.4.23l1,1c.11.12.2.21.2.35s-.18.25-.33.25h-7.06c0,.27,0,1.53,0,1.78H456l.78-.82c.13-.14.26-.28.37-.28s.22.12.42.25l1.09.78a.5.5,0,0,1,.24.36c0,.21-.18.25-.33.25h-5.69v2h5.69l1-1.17c.16-.18.23-.27.36-.27s.29.14.4.23l1.21,1.16c.11.12.22.21.22.37s-.19.23-.35.23h-8.08a13.22,13.22,0,0,0,8.63,4.4l0,.14a3.79,3.79,0,0,0-2,1.84,14.11,14.11,0,0,1-7-6.38h-.07c0,2.07,0,2.48,0,2.92s.13,2.78.13,3.26a1,1,0,0,1-1.13.93c-.6,0-.64-.36-.64-.7,0-.51.07-1.35.09-1.87,0-.76,0-1.1.06-4.27a16.4,16.4,0,0,1-8.78,6.16l0-.14a20.5,20.5,0,0,0,7.08-6.29h-3.92a15.65,15.65,0,0,0-2.61.2l-.44-.91c1.48.14,3,.16,3.4.16h5.31v-2H447.6a15.54,15.54,0,0,0-2.61.21l-.44-.91c1.53.13,3.12.16,3.41.16h3.51v-1.78h-4.64a15.58,15.58,0,0,0-2.59.2l-.44-.91c1.48.14,3,.16,3.4.16h6a11.76,11.76,0,0,0,1.11-3.22H448c1.29.44,2.46,1.12,2.46,2.22a.88.88,0,0,1-.88.91c-.51,0-.58-.14-1.11-1.51a5.68,5.68,0,0,0-.91-1.62h-2.3a13,13,0,0,0-2.61.21l-.42-.91c1.5.13,3.08.16,3.38.16h4.16c-.06-3.29-.06-3.54-.37-4.7l2.14.64c.2.06.31.13.31.34s-.24.39-.66.54v3.18h1.64c0-2.9,0-3.56-.47-4.7l2.26.61c.13.05.38.12.38.34s-.53.53-.73.6v3.15h.95a17,17,0,0,0,1.15-3.2,4.64,4.64,0,0,0,.11-1.09l2,1c.13.07.26.16.26.32,0,.35-.53.41-.77.44-.69.75-1.86,2.05-2.3,2.51h3.47l1-1c.18-.18.27-.3.36-.3a.87.87,0,0,1,.44.25l1.15,1c.13.11.24.2.24.36S462.09,372.87,462,372.87Zm-14.38-1.05c-.53,0-.69-.36-1.11-1.39a5,5,0,0,0-1.28-1.8l.09-.16c.88.23,3.1.84,3.1,2.44A.84.84,0,0,1,447.58,371.82Z"/><path d="M474.75,373.65h-3.12c-.05,5-.05,6.09-.05,7.48,0,1,.07,5.45.07,6.37,0,.41,0,1.11-1.09,1.11a.58.58,0,0,1-.64-.64c0-.34.13-1.91.16-2.25.06-1.65.06-2.35.09-6.71,0-3.22,0-3.4,0-5.36a16.36,16.36,0,0,0-2.52.2l-.44-.89c.61.05,1.39.12,3,.14,0-3.37,0-4.54-.51-5.5l2.43.71c.14.05.29.14.29.32s-.06.27-.77.68c0,.62,0,3.27,0,3.79h1l.66-.73c.11-.14.24-.3.35-.3a.79.79,0,0,1,.4.26l.8.75c.11.11.2.2.2.34S474.9,373.65,474.75,373.65Zm5.11,7c-.58,6.39-1.24,7.3-3.59,7.55-.22-1.27-.29-1.53-1.17-2.26l.07-.18a5.22,5.22,0,0,0,1.77.39c.57,0,.7-.14,1.06-1.92a23,23,0,0,0,.48-4.22h-1.61c-.42,2.74-1.55,6.32-4.78,8l-.09-.11a11.92,11.92,0,0,0,3.45-7.82,11.72,11.72,0,0,0-2.21.2l-.44-.91c.82.07,1.46.11,2.7.14a8.77,8.77,0,0,0-.14-2.76l2,.73a.36.36,0,0,1,.29.32c0,.18-.49.5-.6.57-.05.43-.05.61-.11,1.14h1.33l.53-.57c.15-.16.22-.23.31-.23s.2.11.28.2l.91.82a.48.48,0,0,1,.18.32C480.5,380.17,480.43,380.22,479.86,380.65Zm5.11-9.26c-1,4.61-2.5,4.77-3.83,4.93a3.23,3.23,0,0,0-1.39-2.42l.08-.14a6.21,6.21,0,0,0,2,.55c1.12,0,1.63-2.62,1.88-3.88h-3.26c-.95,2.85-2.34,5.2-6.12,6.39l0-.14a10.63,10.63,0,0,0,4.67-6.25h-1.15a13,13,0,0,0-2.61.21l-.44-.91c1.52.13,3.1.15,3.4.15h.93a9.74,9.74,0,0,0,.16-1.59,2,2,0,0,0-.16-.89l2.26.7a.26.26,0,0,1,.2.23c0,.14-.35.37-.71.6-.13.54-.18.7-.24.95h2.85l.36-.45a.51.51,0,0,1,.37-.21.43.43,0,0,1,.31.14l1.18,1a.4.4,0,0,1,.17.3C485.85,370.91,485.3,371.21,485,371.39Zm2.36,8.87c-.19.12-.3.21-.46.32,0,2.4-.33,5.48-1,6.62-.13.23-.71,1.16-2.65,1.34a3.89,3.89,0,0,0-1.26-2.23l.06-.18a5.83,5.83,0,0,0,1.88.39c.89,0,.95-.42,1.22-1.92a29.17,29.17,0,0,0,.33-4.52h-1.64c-.57,3.31-1.41,6.27-5.15,8.19l-.07-.11a12.87,12.87,0,0,0,3.85-8,5.65,5.65,0,0,0-1,.14l-.45-.92c.75.07,1.09.1,1.55.12,0-.23.07-.8.07-1.67a5.2,5.2,0,0,0-.18-1.71l2.1.78a.43.43,0,0,1,.29.34c0,.25-.58.55-.69.62a14.18,14.18,0,0,1-.22,1.66,3.7,3.7,0,0,0,.49,0h.86l.56-.66c.08-.11.19-.23.26-.23a.63.63,0,0,1,.33.16l1.07.83a.5.5,0,0,1,.19.29C487.64,380.08,487.49,380.17,487.33,380.26Z"/><path d="M511.76,377.28a17.38,17.38,0,0,1-8.08-8.22l-.09,0a24.91,24.91,0,0,1-10.13,9.14l-.07-.13a30.63,30.63,0,0,0,8.15-9.1,4.25,4.25,0,0,0,.66-1.56l2.23.73c.11.05.36.16.36.39s-.22.32-.69.44a14.68,14.68,0,0,0,9.78,6.38v.16A4.36,4.36,0,0,0,511.76,377.28Zm.17,3.19h-8.87a34.29,34.29,0,0,1-3.65,5.22c2.72-.18,6.15-.52,8.65-.84a12.93,12.93,0,0,0-2.43-3.15l.13-.14c3,1.42,5.44,3.72,5.44,5.64,0,.36-.24,1.12-1,1.12s-1-.62-1.31-1.42a9.1,9.1,0,0,0-.66-1.66c-1.79.57-9.93,2.35-11.19,2.55-.14.3-.2.5-.4.5s-.29-.22-.36-.41l-.93-2.3a9.2,9.2,0,0,0,2,.2c.47,0,.91,0,1.6-.06a32.8,32.8,0,0,0,1.81-5.25h-3.12a14.61,14.61,0,0,0-2.59.21l-.44-.9c1.75.14,3,.14,3.39.14h10.62l1.12-1.25c.16-.19.27-.28.38-.28s.24.12.4.23l1.52,1.26a.49.49,0,0,1,.23.34C512.27,380.47,512,380.47,511.93,380.47Zm-4.84-4H501.4a15.69,15.69,0,0,0-2.61.21l-.44-.91c1.53.13,3.12.16,3.41.16h2.47l1-1.14c.11-.12.22-.28.35-.28a.92.92,0,0,1,.4.23l1.22,1.14c.11.11.22.21.22.36S507.22,376.52,507.09,376.52Z"/><path d="M537.42,377.28a17.38,17.38,0,0,1-8.08-8.22l-.09,0a24.91,24.91,0,0,1-10.13,9.14l-.07-.13a30.63,30.63,0,0,0,8.15-9.1,4.08,4.08,0,0,0,.66-1.56l2.23.73c.12.05.36.16.36.39s-.22.32-.69.44a14.68,14.68,0,0,0,9.78,6.38v.16A4.36,4.36,0,0,0,537.42,377.28Zm.17,3.19h-8.87a34.29,34.29,0,0,1-3.65,5.22c2.72-.18,6.15-.52,8.65-.84a12.93,12.93,0,0,0-2.43-3.15l.13-.14c3,1.42,5.44,3.72,5.44,5.64,0,.36-.24,1.12-1,1.12s-1-.62-1.3-1.42a9.85,9.85,0,0,0-.67-1.66c-1.79.57-9.93,2.35-11.19,2.55-.14.3-.2.5-.4.5s-.29-.22-.36-.41l-.92-2.3a9,9,0,0,0,2,.2c.47,0,.91,0,1.6-.06a32.8,32.8,0,0,0,1.81-5.25H523.3a14.61,14.61,0,0,0-2.59.21l-.44-.9c1.75.14,3,.14,3.39.14h10.62l1.12-1.25c.16-.19.27-.28.38-.28s.24.12.4.23l1.53,1.26a.51.51,0,0,1,.22.34C537.93,380.47,537.71,380.47,537.59,380.47Zm-4.84-4h-5.69a15.69,15.69,0,0,0-2.61.21l-.44-.91c1.53.13,3.12.16,3.41.16h2.48l1-1.14c.11-.12.22-.28.36-.28s.28.14.39.23l1.22,1.14c.11.11.22.21.22.36S532.88,376.52,532.75,376.52Z"/><path d="M544.74,388.43a22.74,22.74,0,0,0,5.06-2.92,4.19,4.19,0,0,0,1.46-1.6l1.91,1.24a.5.5,0,0,1,.24.36c0,.34-.55.37-1.26.39a17.69,17.69,0,0,1-7.39,2.69Zm14.82-13.73.55-.57c.09-.09.23-.28.36-.28s.18.07.33.19l1,.75a.59.59,0,0,1,.29.43c0,.21-.31.44-.82.73,0,1,.13,7,.13,7.58a1.08,1.08,0,0,1-1.06,1.11c-.62,0-.6-.54-.57-.89h-10c0,.55-.09,1.21-1.06,1.21a.59.59,0,0,1-.65-.68c0-.32.09-1.1.09-1.28,0-.64.09-3.12.09-5.59a12.61,12.61,0,0,0-.24-3.49l2.06.78ZM559,369l.64-.66c.11-.11.22-.25.31-.25a.52.52,0,0,1,.31.16l1,.75a.47.47,0,0,1,.2.34c0,.21-.22.42-.73.76,0,.41,0,2.28,0,2.64a.9.9,0,0,1-.93.94c-.7,0-.68-.5-.64-.91h-8.8c0,.34,0,1.05-1,1.05-.64,0-.64-.42-.64-.69,0-.09.09-2.19.09-2.6a10.54,10.54,0,0,0-.2-2.71l2.06,1.18Zm-9.25,6.28v2.16h10v-2.16Zm0,2.71v2.14h10V378Zm0,2.69v2.56h10v-2.56Zm.6-11.13v2.67h8.8v-2.67Zm6.08,14.78c2.88.18,6.44,1.64,6.44,3.38a.84.84,0,0,1-.89.91c-.55,0-.84-.3-1.46-1a14.09,14.09,0,0,0-4.11-3.24Z"/><path d="M140.22,424.33a14.25,14.25,0,0,1,0-22.08l.2.31a15.79,15.79,0,0,0,0,21.45Z"/><path d="M162.26,412.74l1.17-1.37c.13-.16.2-.27.35-.27s.25.13.38.25l1.59,1.48c.11.11.22.2.22.34s-.2.25-.33.25H149.71a15.17,15.17,0,0,0-2.61.21l-.42-1.05c1.66.16,3.25.16,3.38.16Z"/><path d="M180,415.52c-.51,0-.76-.43-.93-.77a14.32,14.32,0,0,0-1.82-2.92c0,6,0,6.7,0,8.37,0,.34.09,1.87.09,2.16a1,1,0,0,1-1.08,1,.61.61,0,0,1-.69-.7c0-.26.09-1.35.09-1.58.07-1.76,0-2.21.11-7.8a16.82,16.82,0,0,1-4.38,3.35l-.09-.16a34.05,34.05,0,0,0,6.68-8.64h-3.09a15.36,15.36,0,0,0-2.61.2l-.42-.89c1.5.12,3.07.14,3.38.14h.58a12.07,12.07,0,0,0-.58-4.47l2.55.75a.39.39,0,0,1,.26.3c0,.27-.26.45-.71.68a26.64,26.64,0,0,0,0,2.74h.8l.55-.59c.16-.16.27-.23.4-.23s.22.09.35.2l1,.92a.4.4,0,0,1,.16.32c0,.34-.36.43-1.07.52a31.58,31.58,0,0,1-2.21,3.13,8.42,8.42,0,0,1,2.35,1.25,2.23,2.23,0,0,1,1.1,1.73C180.79,414.91,180.59,415.52,180,415.52Zm11.61,6.5h-9.36a15,15,0,0,0-2.61.21l-.44-.91c1.55.13,3.21.16,3.41.16h2.17c0-2.33,0-6,0-8.35,0-1.1,0-1.26,0-2h-1.3a15,15,0,0,0-2.61.21l-.45-.91c1.49.13,3,.16,3.41.16h.95c0-.39,0-1.9,0-2.28,0-3.68,0-4.16-.64-5.48l2.46.59c.33.07.53.23.53.44s-.42.55-.76.68c0,.57,0,5.09,0,6.05h2.24l.82-1.12c.13-.18.22-.27.35-.27s.24.09.42.25l1.22,1.09a.57.57,0,0,1,.22.37c0,.16-.18.22-.33.22H186.3v6.19l0,4.13h2.37l1-1.19c.16-.18.27-.25.38-.25a.57.57,0,0,1,.42.23l1.21,1.16a.55.55,0,0,1,.2.36C191.94,422,191.74,422,191.61,422Z"/><path d="M198.18,424.33,198,424a15.79,15.79,0,0,0,0-21.45l.2-.31a14.25,14.25,0,0,1,0,22.08Z"/><path d="M231.21,421.45a8.37,8.37,0,0,1-3.76.6c-2.19,0-3.54-.1-3.54-2.58,0-1,.31-4.11.66-8.05.07-.71.09-1,.18-2.08h-3.43c-.4,4.08-1.06,10.88-8.89,13.05l-.07-.14a12.79,12.79,0,0,0,5.66-5.61c.65-1.21,1.24-2.71,1.69-7.3h-3.48a15.49,15.49,0,0,0-2.61.2l-.42-.91c1.5.14,3.08.16,3.39.16h3.16c.07-.89.09-1.75.09-2.64a8.2,8.2,0,0,0-.33-3.06l2.36.5c.14,0,.51.11.51.37s-.53.57-.73.66c0,.66-.24,3.58-.29,4.17h3.1l1-.84a.92.92,0,0,1,.4-.23c.13,0,.27.14.4.27l.93.92a.65.65,0,0,1,.24.43c0,.18-.11.25-1.15.82-.44,2.92-.75,8-.75,9,0,1.14.48,1.25,1.64,1.25,2.69,0,2.72-.09,3.49-4.15h.16c0,.29.24,3,.62,3.47.06.07.31.32.35.38a.47.47,0,0,1,.13.32A1.52,1.52,0,0,1,231.21,421.45Z"/><path d="M243.35,403.7c.49.14.53.26.53.42s-.44.5-.64.61c0,3.42,0,6-.09,8-.08,1.85-.35,7.85-5.15,10.43l-.11-.14c3.12-3.22,3.87-6.34,3.87-14,0-4.13-.18-4.7-.66-5.91Zm-3.49,4.91a8.32,8.32,0,0,1,.51,2.83c0,2.53-1.27,2.71-1.64,2.71a.81.81,0,0,1-.84-.86c0-.35.15-.57.62-1.21a7.12,7.12,0,0,0,1.17-3.42Zm4.07.07c.6.29,2.74,1.43,2.74,3a.93.93,0,0,1-.88,1.05c-.69,0-.82-.59-1-1.23a10,10,0,0,0-.95-2.72Zm5.42-4.91c.49.12.51.21.51.35s-.07.25-.71.61v9.54c0,.91.13,5,.13,5.81a1.07,1.07,0,0,1-1.08,1.17.63.63,0,0,1-.67-.69c0-.18.07-1,.07-1.18.09-1.46.09-3.06.09-5.23,0-5.06,0-8.28-.13-9.58a4.27,4.27,0,0,0-.34-1.32Zm.86,5.48c1.09.45,3,1.73,3,3.19a.9.9,0,0,1-.91.94c-.73,0-.84-.55-1.17-1.78a6.12,6.12,0,0,0-1.06-2.24Zm5.58-5.66c.24.05.46.16.46.41s-.33.44-.68.62c0,4.38,0,7.84,0,9.69,0,1.23.15,7.19.15,7.8,0,1.35-1,1.35-1.1,1.35s-.69,0-.69-.82c0-.32.05-1.76.07-2.05,0-.87,0-1.78,0-3.49,0-7.19,0-9.58-.06-11.23a6.15,6.15,0,0,0-.56-2.78Z"/><path d="M282.71,405.69H274l.77.68a.64.64,0,0,1,.27.41c0,.26-.38.37-.93.39-.31.5-.73,1.23-1.61,2.56l1.26.41c.17.07.35.13.35.36s-.22.48-.75.78c0,1.23-.05,1.82-.05,4.1,0,3,0,4.61.07,5.73,0,.25.07,1.51.07,1.78a1.16,1.16,0,0,1-1.15,1.09c-.67,0-.69-.47-.69-.79,0-.07,0-.14,0-.62.11-2.26.18-5.75.18-8.21,0-1.8,0-2.37-.07-3.54-1.35,1.87-4.55,6.21-8.91,8.4l-.09-.14a57.44,57.44,0,0,0,7.81-9.35,13.6,13.6,0,0,0,2.08-4h-6.26a14.17,14.17,0,0,0-2.61.21l-.45-.92c1.13.09,2.28.16,3.41.16h12.83l1-1.21c.13-.16.24-.27.38-.27a1,1,0,0,1,.5.27l1.44,1.17a.5.5,0,0,1,.22.34C283.06,405.64,282.89,405.69,282.71,405.69Zm-.95,11.86c-.73,0-1-.43-1.86-2a15.18,15.18,0,0,0-4.65-5l.05-.13c3.36.72,7.32,4,7.32,6.06C282.62,417.28,282.13,417.55,281.76,417.55Z"/><path d="M300.6,408.11h-5.22V410h2l.53-.66c.11-.14.2-.23.31-.23a.58.58,0,0,1,.38.21l.81.75a.52.52,0,0,1,.2.39c0,.16-.11.32-.55.61,0,.66,0,3.56,0,4.13a1,1,0,0,1-1,1.21c-.29,0-.42-.23-.4-.59h-2.3v2.05H297l.6-.75c.13-.16.24-.27.38-.27s.24.09.44.25l.88.73a.46.46,0,0,1,.22.36c0,.14-.11.23-.35.23h-3.83v2.1c1.73-.3,3-.5,4.23-.8v.18a55.58,55.58,0,0,1-9.07,2.94c-.14.35-.27.55-.49.55s-.26-.09-.35-.27l-1-2a4.2,4.2,0,0,0,.86.07,38.67,38.67,0,0,0,4.47-.48v-2.3h-1.7a15.91,15.91,0,0,0-2.61.2l-.42-.91c1.5.14,3.07.16,3.38.16H294v-2.05h-2.28a.92.92,0,0,1-.17.75,1.51,1.51,0,0,1-.87.41c-.24,0-.42-.11-.42-.64,0-.89.07-4.74.07-5.52a13.1,13.1,0,0,0-.18-1.85l1.82,1h2v-1.89h-2.17a15.15,15.15,0,0,0-2.59.2l-.44-.91c1.4.12,2.79.16,3.41.16H294v-1.78a27.23,27.23,0,0,1-3.65.3,10.3,10.3,0,0,1-1,0v-.15c2.48-.55,6.33-1.49,8.23-2.77l1.37,1.26a.48.48,0,0,1,.18.34c0,.21-.2.28-.53.28a1.81,1.81,0,0,1-.47-.1,18.83,18.83,0,0,1-2.72.64v2H298l.75-1c.15-.18.24-.27.38-.27a.75.75,0,0,1,.42.22l1.12,1a.5.5,0,0,1,.23.34C300.94,408,300.8,408.11,300.6,408.11ZM294,410.55h-2.3v2H294Zm0,2.58h-2.3v2.14H294Zm3.7-2.58h-2.33v2h2.33Zm0,2.58h-2.33v2.14h2.33Zm10.22-3c0,7.64-.4,9.51-.89,10.88a3.71,3.71,0,0,1-3.23,2.69c-.2-1.25-1.3-2-2.39-2.55l.07-.16a12.74,12.74,0,0,0,2.7.34c.53,0,1.06,0,1.53-1.28a46.25,46.25,0,0,0,.79-8.05,17.15,17.15,0,0,0-.13-2.39H304.1c0,3.69-.35,11.36-6.75,14.25l-.11-.13c5.05-4,5.22-10,5.31-14.12a15,15,0,0,0-2.54.2l-.45-.91c.87.07,1.47.11,3,.16a23.06,23.06,0,0,0-.42-6.23l2.3.8c.25.09.38.2.38.36a.43.43,0,0,1-.16.32,3.9,3.9,0,0,1-.55.41v4.34H306l.76-.78c.17-.18.28-.25.39-.25s.22.05.45.23l.86.71a.51.51,0,0,1,.22.39C308.68,409.61,308.35,409.89,307.93,410.16Z"/><path d="M333.74,411.21H318.68c.2,7-.71,10-3.74,12.5l-.11-.09a15.93,15.93,0,0,0,2.34-9,22.7,22.7,0,0,0-.48-5l2.19,1H326a26.91,26.91,0,0,0,1.68-4.45h-8.94a15.54,15.54,0,0,0-2.61.21l-.42-.91c1.4.11,2.77.16,3.39.16h4.64a12.13,12.13,0,0,0-.35-2.74l2.3.57c.16.05.31.09.31.32s-.53.52-.77.66v1.19h4.66l1-1.1c.17-.2.24-.3.35-.3s.18.05.4.23l1.41,1.12a.5.5,0,0,1,.22.34c0,.23-.17.25-.33.25h-4.47l1.35.78a.27.27,0,0,1,.18.25c0,.32-.33.39-.91.53a31.4,31.4,0,0,1-2.59,2.89h4.32l.82-1c.13-.19.22-.28.33-.28a.94.94,0,0,1,.44.23l1.46,1c.16.11.25.2.25.34S333.9,411.21,333.74,411.21Zm.18,11.52H321.24a15,15,0,0,0-2.61.21l-.42-.92c1.53.14,3.21.16,3.39.16h3.09v-3.26h-1.46a14.18,14.18,0,0,0-2.58.21l-.45-.92c1.51.14,3.12.16,3.41.16h1.08v-2.8h-3a13.46,13.46,0,0,1-2.88,3.62l-.11-.06a29.87,29.87,0,0,0,2.85-7.28l1.95.87c.2.09.22.18.22.25s-.09.25-.77.59c-.18.23-.62,1-.91,1.46h2.65a16,16,0,0,0-.24-3.47l2.15.41c.11,0,.28.07.28.28s-.35.43-.7.66c0,.32,0,1.8,0,2.12h3.26l.77-1.09c.13-.19.24-.3.36-.3s.19.09.39.25l1.29,1.09a.48.48,0,0,1,.22.35c0,.2-.2.25-.36.25h-5.93v2.8h2.64l.66-.84c.18-.21.22-.27.36-.27s.17.06.39.22l1.22.87c.18.14.22.23.22.32s-.2.25-.33.25h-5.16v3.26h4.78l1-1c.13-.11.29-.25.38-.25s.17.07.39.23l1.33.94a.48.48,0,0,1,.22.34C334.25,422.69,334.08,422.73,333.92,422.73Zm-12.39-12.41c-.53,0-.57-.16-1.06-1.48a6.11,6.11,0,0,0-1.28-2.19l0-.12c.91.32,3.21,1.14,3.21,2.72A1,1,0,0,1,321.53,410.32Z"/><path d="M348.28,406.19c-2.15,3.38-3.83,5.91-8.06,8.44l-.11-.16c3.56-3.53,6.71-8.21,6.53-10.54l2.26,1.39a.51.51,0,0,1,.26.39C349.16,405.94,349,406.05,348.28,406.19Zm9.13,16.54c-.53,0-.9-.37-1.17-1-.77-1.81-.86-2-.93-2.17a103.06,103.06,0,0,1-11,2.78c-.37.5-.49.62-.68.62s-.31-.23-.36-.37l-.73-2.37a9.31,9.31,0,0,0,1.82.21c.17,0,1.46-.12,1.72-.14a44.17,44.17,0,0,0,3-8.24,5.84,5.84,0,0,0,.06-1.32l2.3,1c.14.07.34.19.34.39s-.27.39-.76.55c-.24.41-.42.73-2,3.65-.67,1.16-1.4,2.4-2.37,3.9,2.54-.27,5.69-.66,8.52-1.05a12.66,12.66,0,0,0-2.61-3l.06-.16c2.59,1,5.87,3.27,5.87,5.5A1.06,1.06,0,0,1,357.41,422.73Zm1.42-8.83a12,12,0,0,1-4.16-3.74,11.64,11.64,0,0,1-2.17-5.45,16.87,16.87,0,0,0-2.9.25l-.46-.91c.57,0,1.7.11,2.85.11l.64-.77c.16-.19.25-.3.36-.3s.24.09.46.25l1,.73a.46.46,0,0,1,.22.34c0,.21-.16.3-.51.46-.51.2-.71.3-1,.41a9.39,9.39,0,0,0,7.9,6.52V412A3.6,3.6,0,0,0,358.83,413.9Z"/><path d="M385.33,422.21H368.8a16,16,0,0,0-2.61.2l-.44-.89c1.75.14,3.36.14,3.41.14h.75v-6c0-1.24,0-4-.15-5.07a2.86,2.86,0,0,0-.23-.8l2.28.71c.18,0,.31.14.31.34s-.17.37-.66.66c0,1.44,0,8.58,0,10.18h3.92V405.23H370a13.77,13.77,0,0,0-2.61.21l-.44-.91c1.08.09,2.32.16,3.41.16h11l.95-1.21c.16-.19.25-.28.36-.28a.84.84,0,0,1,.42.23l1.39,1.21c.11.11.22.21.22.34s-.19.25-.33.25H377v7.37h2.79l.89-1.12c.15-.2.26-.27.37-.27a.69.69,0,0,1,.42.23l1.2,1.12a.57.57,0,0,1,.2.36c0,.16-.14.23-.34.23H377v8.51h5.11l1.07-1.23c.17-.21.31-.32.42-.32a.94.94,0,0,1,.46.27l1.39,1.23c.11.12.2.21.2.34S385.46,422.21,385.33,422.21Z"/><path d="M410.17,422.75a11.76,11.76,0,0,1-4.62-4.56,11.68,11.68,0,0,1-5.16,4c0,.82,0,1.64-1.12,1.64-.69,0-.69-.43-.69-.87s.11-2.23.13-2.66,0-2.74,0-3.27a42.8,42.8,0,0,1-5.78,2.44c-.18.57-.31.76-.53.76s-.31-.16-.4-.39l-.84-2.24a4.64,4.64,0,0,0,1,.14,13.38,13.38,0,0,0,1.74-.21V405a13.39,13.39,0,0,0-2,.21l-.44-.92c1.74.16,3.38.16,3.4.16h5.84l1-1.07c.17-.21.26-.27.37-.27s.25.06.44.25l1.11,1.05a.6.6,0,0,1,.2.36c0,.18-.13.23-.33.23h-3.17c0,8.64-.06,9.6.11,17a13.77,13.77,0,0,0,4.43-5.15,25.18,25.18,0,0,1-2.08-9.88,5.13,5.13,0,0,0-1.13.16l-.44-.91c1.73.14,3.36.14,3.38.14h3.06l.62-.73c.2-.23.26-.3.37-.3s.25.07.47.25l1,.8a.82.82,0,0,1,.31.41.37.37,0,0,1-.2.39,6.94,6.94,0,0,1-1,.64,28.34,28.34,0,0,1-2.88,9.21,11.29,11.29,0,0,0,5.8,4.11v.11A3.31,3.31,0,0,0,410.17,422.75ZM398.74,405h-3.28v3.65h3.28Zm0,4.2h-3.28v3.69h3.28Zm0,4.24h-3.28v3.92c1.15-.22,2.79-.52,3.28-.66Zm5.46-6.55-1,0a27.72,27.72,0,0,0,2.28,8.62,24.38,24.38,0,0,0,2.15-8.67Z"/><path d="M420.75,409.11h3.89v-4.17H420.3a15.91,15.91,0,0,0-2.61.2l-.42-.89c1.46.12,3,.14,3.39.14h3.87l.51-.57c.11-.12.2-.25.35-.25a1,1,0,0,1,.33.13l.87.57c.11.07.33.19.33.44s-.22.41-.78.8c0,.68.09,3.72.09,4.31a.94.94,0,0,1-.2.64,1.15,1.15,0,0,1-.9.36c-.49,0-.62-.23-.51-1.16h-4.23c-.09.52-.59,3.67-.62,3.79h4.52l.62-.71a.46.46,0,0,1,.37-.25.73.73,0,0,1,.36.16l.9.68a.55.55,0,0,1,.25.41c0,.28-.31.48-.67.66-.24,3-1.08,6.05-2.28,7.46a4.83,4.83,0,0,1-3.49,1.49,4.53,4.53,0,0,0-1.71-2.58v-.14a13,13,0,0,0,3,.48c.47,0,1,0,1.53-1a14.77,14.77,0,0,0,1.39-6.09h-4.84a7.29,7.29,0,0,1-.27,1.69,1.28,1.28,0,0,1-1.11.64.52.52,0,0,1-.59-.52c0-.21.62-2.86.7-3.34a18.52,18.52,0,0,0,.4-4.35Zm13.91-5.22c.2,0,.4.07.4.32s-.2.45-.75.77c0,.44,0,6,0,10.36,0,1.09.18,6,.18,7a1.09,1.09,0,0,1-.29.89,1.83,1.83,0,0,1-1,.36c-.5,0-.59-.41-.59-.75,0-.13,0-.27,0-.57.11-1.85.11-4.22.11-5.15,0-8.51,0-10.7-.09-11.48a12.82,12.82,0,0,0-.39-2.28Z"/><path d="M448.89,408.84h-3.12c0,5,0,6.09,0,7.48,0,1,.07,5.45.07,6.37,0,.41,0,1.11-1.09,1.11a.58.58,0,0,1-.64-.64c0-.34.13-1.91.16-2.25.06-1.65.06-2.35.09-6.71,0-3.22,0-3.4,0-5.36a16.36,16.36,0,0,0-2.52.2l-.45-.89c.62.05,1.4.12,3,.14,0-3.38,0-4.54-.51-5.5l2.43.71c.14.05.29.14.29.32s-.06.27-.77.68c0,.62,0,3.27,0,3.79h1l.66-.73c.11-.14.24-.3.35-.3a.79.79,0,0,1,.4.26l.8.75c.11.11.2.2.2.34S449,408.84,448.89,408.84Zm5.11,7c-.58,6.39-1.24,7.3-3.59,7.55-.22-1.28-.29-1.53-1.17-2.26l.07-.18a5.22,5.22,0,0,0,1.77.39c.57,0,.7-.14,1.06-1.92a23,23,0,0,0,.48-4.22H451c-.42,2.74-1.55,6.32-4.78,8l-.09-.11a11.92,11.92,0,0,0,3.45-7.82,11.72,11.72,0,0,0-2.21.2l-.44-.91c.82.07,1.46.11,2.7.13a8.85,8.85,0,0,0-.14-2.76l2,.73a.38.38,0,0,1,.29.32c0,.19-.49.51-.6.57,0,.44,0,.62-.11,1.14h1.33l.53-.57c.15-.15.22-.22.31-.22s.19.11.28.2l.91.82a.48.48,0,0,1,.18.32C454.64,415.36,454.57,415.41,454,415.84Zm5.11-9.26c-1,4.61-2.5,4.77-3.83,4.93a3.22,3.22,0,0,0-1.39-2.42L454,409a6.21,6.21,0,0,0,2,.55c1.12,0,1.63-2.62,1.88-3.88h-3.26c-.95,2.85-2.34,5.2-6.13,6.39l0-.14a10.63,10.63,0,0,0,4.67-6.25H452a13,13,0,0,0-2.61.21l-.44-.92c1.52.14,3.1.16,3.4.16h.93a9.85,9.85,0,0,0,.16-1.59,2,2,0,0,0-.16-.89l2.26.7a.26.26,0,0,1,.2.23c0,.14-.35.37-.71.6-.13.54-.18.7-.24.95h2.85l.36-.45a.51.51,0,0,1,.37-.21.43.43,0,0,1,.31.14l1.18,1a.4.4,0,0,1,.17.3C460,406.1,459.44,406.4,459.11,406.58Zm2.36,8.87c-.19.12-.31.21-.46.32,0,2.4-.33,5.48-1,6.62-.13.23-.71,1.16-2.65,1.34a3.85,3.85,0,0,0-1.26-2.23l.06-.18a6,6,0,0,0,1.88.38c.89,0,1-.41,1.22-1.91a30.46,30.46,0,0,0,.33-4.52h-1.64c-.57,3.31-1.41,6.27-5.15,8.19l-.07-.11a12.9,12.9,0,0,0,3.85-8,5.65,5.65,0,0,0-1,.14l-.45-.92c.75.07,1.09.09,1.55.12,0-.23.07-.8.07-1.67a5.2,5.2,0,0,0-.18-1.71l2.1.78a.43.43,0,0,1,.29.34c0,.25-.58.55-.69.61a14.12,14.12,0,0,1-.22,1.67,3.7,3.7,0,0,0,.49,0h.86l.56-.66c.08-.11.19-.23.26-.23a.63.63,0,0,1,.33.16l1.07.82a.55.55,0,0,1,.19.3C461.78,415.27,461.63,415.36,461.47,415.45Z"/><path d="M474.66,407.63h-3.94a13.28,13.28,0,0,0-2.59.2l-.44-.91c1.5.14,3.07.16,3.38.16h1.48l.56-.82c0-.07.2-.27.35-.27a.8.8,0,0,1,.4.22l.93.83a.48.48,0,0,1,.2.34C475,407.58,474.81,407.63,474.66,407.63Zm-.53,9.44a2.9,2.9,0,0,0-.05.48c0,.66.13,3.58.13,4.18a.91.91,0,0,1-.95.91c-.66,0-.62-.53-.57-1.05h-2.64a6.47,6.47,0,0,1,0,1.35,1.09,1.09,0,0,1-1,.61.51.51,0,0,1-.58-.55c0-.06,0-.2,0-.43.09-.75.14-3.85.14-5.36a12.89,12.89,0,0,0-.09-2.08l1.7,1h2.35l.37-.59c.05-.07.2-.25.29-.25a.86.86,0,0,1,.4.21l.88.66a.38.38,0,0,1,.18.27C474.7,416.66,474.55,416.73,474.13,417.07Zm-.14-12.2h-3.07a9.45,9.45,0,0,0-1.84.14l-.29-.8c1.18.09,2.24.11,2.28.11H472l.55-.66c.11-.14.22-.27.33-.27s.2.06.42.22l.84.66a.52.52,0,0,1,.22.35C474.32,404.82,474.15,404.87,474,404.87Zm-.11,5.61h-3a9.51,9.51,0,0,0-1.84.14l-.29-.8c1,.07,2,.11,2.42.11h.84l.46-.66c0-.07.2-.3.35-.3s.34.19.4.26l.76.66a.44.44,0,0,1,.19.34C474.21,410.46,474,410.48,473.88,410.48Zm.16,2.87H471a7.65,7.65,0,0,0-1.83.14l-.31-.8c1.17.09,2.28.12,2.39.12H472l.58-.76c.06-.09.17-.27.33-.27a.88.88,0,0,1,.42.23l.82.75c.13.12.22.21.22.34S474.24,413.35,474,413.35Zm-1.33,3.31H470V421h2.68Zm15-1h-5a11.71,11.71,0,0,0,.57,2.62,9.71,9.71,0,0,0,1.44-2.19l1.37,1.07c.11.09.2.12.2.28s-.33.31-.82.29c-.95.91-1.26,1.23-1.7,1.62a4.16,4.16,0,0,0,2,2c.13,0,.31-.18.39-.3a14.37,14.37,0,0,0,1.31-2.19h.15a19.92,19.92,0,0,0-.39,2.92.87.87,0,0,0,.2.57,1,1,0,0,1,.26.53c0,.25-.22.52-.77.52-.84,0-2.86-1.11-4.1-3.23a11.84,11.84,0,0,1-3.69,1.91l0-.16a18.57,18.57,0,0,0,3.3-2.64,13.59,13.59,0,0,1-.84-3.65h-2.7v2c1.2-.35,1.66-.51,2.3-.71l.09.14a13.55,13.55,0,0,1-2.39,1.34c0,.62,0,2.92,0,3.26-.07,1.33-1,1.69-2,1.87-.38-1.05-.42-1.14-1.6-1.91v-.09a8.69,8.69,0,0,0,1.42.11c.55,0,.82,0,.89-.5s.06-1.71.06-2.15c-.29.14-1.5.69-1.75.83s-.31.52-.42.52-.22-.16-.26-.3l-.64-1.64a11.62,11.62,0,0,0,3.07-.45c0-.26,0-1.58,0-2.35a12.77,12.77,0,0,0-2.54.2l-.42-.91c1.06.09,1.74.11,3,.14v-1.53a18.76,18.76,0,0,1-2.65.34l-.05-.16c3.19-1.16,3.74-1.55,4.32-2.12l1.06.93a.34.34,0,0,1,.13.25c0,.28-.35.23-.57.19a10.47,10.47,0,0,1-1,.32l0,1.8h2.63c-.06-.57-.28-3.08-.39-3.58l1.77.38c.28.07.3.14.3.26s-.17.29-.5.52a19.07,19.07,0,0,0,0,2.42h2.74l.69-1c.18-.25.27-.3.33-.3s.27.14.42.27l1,1c.11.12.19.21.19.34S487.89,415.64,487.73,415.64Zm-.48-4.52H478a15.35,15.35,0,0,0-2.59.2l-.44-.88c1.75.13,3,.13,3.38.13H480v-1.78h-.51a14.17,14.17,0,0,0-2.61.21l-.44-.91c1.68.15,3.21.15,3.56.15v-1.75h-1.66a13.54,13.54,0,0,0-2.59.2l-.44-.91c1.75.14,3,.16,3.39.16h2.65a9.47,9.47,0,0,0,.91-3.17l1.79,1c.11.07.29.16.29.34s-.29.27-.84.3a18.63,18.63,0,0,1-1.71,1.57h2.77l.64-.77c.13-.16.2-.28.33-.28s.27.12.42.25l.93.76a.46.46,0,0,1,.22.34c0,.23-.22.25-.33.25h-5.35v1.75h2.21l.53-.7c.13-.16.22-.3.35-.3a1,1,0,0,1,.4.25l.87.71c.08.07.22.18.22.34s-.22.25-.33.25h-4.25v1.78h3.49l.73-.84c.18-.21.2-.3.36-.3s.24.09.42.25l.93.87a.44.44,0,0,1,.22.34C487.58,411.12,487.36,411.12,487.25,411.12Zm-8.06-5.43c-.48,0-.62-.3-.86-.94a5.17,5.17,0,0,0-1-1.73l.09-.16c.55.12,2.59.55,2.59,2A.8.8,0,0,1,479.19,405.69Zm5.69,8.6c-.47,0-.6-.32-.71-.64a3.91,3.91,0,0,0-.75-1.32l0-.16c.56.07,2.08.25,2.08,1.37A.71.71,0,0,1,484.88,414.29Z"/><path d="M511.56,412.46a17.32,17.32,0,0,1-8.08-8.21l-.09,0a24.87,24.87,0,0,1-10.13,9.15l-.07-.13a30.55,30.55,0,0,0,8.15-9.11,4.16,4.16,0,0,0,.66-1.55l2.23.73c.11.05.36.16.36.39s-.22.32-.69.43a14.69,14.69,0,0,0,9.78,6.39v.16A4.4,4.4,0,0,0,511.56,412.46Zm.17,3.2h-8.87a34.29,34.29,0,0,1-3.65,5.22c2.72-.18,6.15-.52,8.65-.84a12.93,12.93,0,0,0-2.43-3.15l.13-.14c3,1.42,5.44,3.72,5.44,5.64,0,.36-.24,1.12-1,1.12s-1-.62-1.3-1.42a9.85,9.85,0,0,0-.67-1.66c-1.79.57-9.93,2.35-11.19,2.55-.14.3-.2.5-.4.5s-.29-.22-.36-.41l-.92-2.3a9,9,0,0,0,2,.2c.47,0,.91,0,1.6-.06a32.8,32.8,0,0,0,1.81-5.25h-3.12a15.42,15.42,0,0,0-2.59.2l-.44-.89c1.75.14,3,.14,3.39.14h10.62l1.12-1.25c.16-.19.27-.28.38-.28s.24.12.4.23l1.53,1.26a.51.51,0,0,1,.22.34C512.07,415.66,511.85,415.66,511.73,415.66Zm-4.84-4H501.2a14.67,14.67,0,0,0-2.61.21l-.44-.91c1.53.13,3.12.15,3.41.15H504l1-1.14c.11-.11.22-.27.35-.27s.29.14.4.23l1.22,1.14c.11.11.22.2.22.36S507,411.71,506.89,411.71Z"/><path d="M529.59,408.84c-.07.07-.45.32-.58.43,0,1.12-.18,6.62-.29,7.85-.4,4.72-1.26,6.2-3.91,6.43,0-.68-.27-1.41-2.42-2.64l.05-.19a11.17,11.17,0,0,0,2.63.48c.67,0,1.44,0,1.77-1.91a65.44,65.44,0,0,0,.6-10.59h-3.05c-.07,3.74-.2,11-5.71,14.87l-.13-.11a14.87,14.87,0,0,0,3.27-6.48,31.29,31.29,0,0,0,1-8.28h-1a14,14,0,0,0-2.61.21l-.44-.92c1.77.16,3.05.16,3.4.16h.65a19.87,19.87,0,0,0-.38-5.4l2.43.75c.16.05.4.18.4.41s0,.27-.8.75c0,.35,0,.51,0,.76s0,2.3-.06,2.73h2.78l.82-.82c.09-.09.16-.18.27-.18a.66.66,0,0,1,.31.16l1,.87a.58.58,0,0,1,.19.38C529.78,408.68,529.67,408.77,529.59,408.84Zm8.78-.73c-.11.11-.38.32-.49.43,0,1.92,0,9.58,0,11.18,0,.36.14,2,.14,2.3a1.12,1.12,0,0,1-1.11,1.24c-.57,0-.64-.35-.64-.8a8.28,8.28,0,0,1,.07-1h-3.65c0,.85.11,2.17-1.18,2.17-.62,0-.62-.5-.62-.71s.05-.66.05-.75c.11-2.72.17-8.67.17-11.47a27.31,27.31,0,0,0-.28-4.82l2.12,1.26h3.12l.73-.66c.07-.07.13-.14.22-.14a.61.61,0,0,1,.36.23l1,.89a.61.61,0,0,1,.2.36C538.57,407.93,538.46,408,538.37,408.11Zm-2-.44h-3.67v13.24h3.67Z"/><path d="M558.85,416.66l.58-.57a1.2,1.2,0,0,1,.35-.23c.09,0,.14.05.36.23l.93.8a.59.59,0,0,1,.22.37c0,.2-.07.25-.67.63,0,.3,0,.51,0,.85,0,.5.07,2.78.07,3.24h1.12l.78-1.07c.13-.21.22-.32.37-.32a.86.86,0,0,1,.42.25l1.18,1.09c.13.12.22.21.22.37s-.18.22-.33.22H547.79a15.69,15.69,0,0,0-2.61.21l-.44-.89c.44,0,1.44.11,3,.14,0-4.52,0-5.09-.24-6.37l2,1.05ZM551.46,404l.45-.48c.11-.11.2-.2.31-.2s.19.09.35.2l1,.73a.42.42,0,0,1,.22.35c0,.2-.28.41-.75.72,0,.48,0,1.05,0,1.51s.11,4.61.15,5c0,.18,0,.34,0,.41,0,.6-.58.94-1.2.94s-.46-.25-.44-1h-3.27c.06,1.12.13,2.24-1.09,2.24-.53,0-.53-.37-.53-.62s.11-1.92.11-4.95c0-4.22,0-4.36-.24-5.82l1.88,1Zm-3.2.55v3.24h3.27v-3.24Zm0,3.79v3.3h3.27v-3.3Zm1.06,8.87V422h2.25v-4.77Zm7.12-6.2c-.29,1.14-1.08,4.12-5.91,5l0-.16c3.69-1.59,4.87-4,4.87-8.8a15.45,15.45,0,0,0-.42-4.29l2,1.09h4l.47-.52c.13-.14.2-.23.28-.23s.09,0,.36.21l1.06.75c.11.09.2.16.2.3,0,.34-.58.68-.73.75,0,.87,0,2.76,0,4.06,0,.78.09,3.24.09,3.88s0,2.1-2.44,2.62a3,3,0,0,0-1.86-2.14l0-.16a11.66,11.66,0,0,0,1.44.07c1,0,1.06,0,1.19-.21s.11-.34.11-1.23v-1Zm-3.38,6.2V422h2.25v-4.77Zm8.16-6.75v-2.79h-4.4a16.88,16.88,0,0,1-.27,2.79ZM559.12,422v-4.77H556.8V422Zm2.1-14.85v-2.72h-4.4v2.72Z"/><path class="cls-1" d="M172.22,166.37c0,16.23-6.79,26.56-16.91,26.56-9.66,0-14.58-10.61-14.58-24.07,0-18.93,9.05-26.07,17.51-26.07C167.82,142.79,172.22,152.36,172.22,166.37Zm-16-20.11c-7.59,0-9.79,8-9.79,19.48,0,10.34,2.27,23.65,10.65,23.65s9.46-10.82,9.46-21.57C166.56,158.53,164.36,146.26,156.24,146.26Z"/><path class="cls-1" d="M215.69,166.37c0,16.23-6.79,26.56-16.91,26.56-9.65,0-14.58-10.61-14.58-24.07,0-18.93,9.06-26.07,17.51-26.07C211.3,142.79,215.69,152.36,215.69,166.37Zm-16-20.11c-7.59,0-9.78,8-9.78,19.48,0,10.34,2.26,23.65,10.65,23.65S210,178.57,210,167.82C210,158.53,207.84,146.26,199.71,146.26Z"/><path class="cls-1" d="M259.17,166.37c0,16.23-6.79,26.56-16.91,26.56-9.66,0-14.58-10.61-14.58-24.07,0-18.93,9-26.07,17.51-26.07C254.77,142.79,259.17,152.36,259.17,166.37Zm-16-20.11c-7.59,0-9.79,8-9.79,19.48,0,10.34,2.27,23.65,10.65,23.65s9.46-10.82,9.46-21.57C253.51,158.53,251.31,146.26,243.19,146.26Z"/><path class="cls-1" d="M272.15,172.12c1.4-.14,14.32-.41,16.31-.34,1.4.07,1.6.34,1.6,1a4,4,0,0,1-1.66,3.05c-1.54.69-14,.83-16.31.76-.47,0-1.14-.14-1.2-.9A5.26,5.26,0,0,1,272.15,172.12Z"/><path class="cls-1" d="M333.27,166.37c0,16.23-6.79,26.56-16.91,26.56-9.65,0-14.58-10.61-14.58-24.07,0-18.93,9.05-26.07,17.51-26.07C328.87,142.79,333.27,152.36,333.27,166.37Zm-16-20.11c-7.59,0-9.79,8-9.79,19.48,0,10.34,2.27,23.65,10.66,23.65s9.45-10.82,9.45-21.57C327.61,158.53,325.41,146.26,317.29,146.26Z"/><path class="cls-1" d="M376.74,166.37c0,16.23-6.79,26.56-16.91,26.56-9.65,0-14.58-10.61-14.58-24.07,0-18.93,9.06-26.07,17.51-26.07C372.35,142.79,376.74,152.36,376.74,166.37Zm-16-20.11c-7.59,0-9.79,8-9.79,19.48,0,10.34,2.26,23.65,10.65,23.65s9.46-10.82,9.46-21.57C371.09,158.53,368.89,146.26,360.77,146.26Z"/><path class="cls-1" d="M420.22,166.37c0,16.23-6.79,26.56-16.91,26.56-9.65,0-14.58-10.61-14.58-24.07,0-18.93,9-26.07,17.51-26.07C415.83,142.79,420.22,152.36,420.22,166.37Zm-16-20.11c-7.59,0-9.78,8-9.78,19.48,0,10.34,2.26,23.65,10.65,23.65s9.45-10.82,9.45-21.57C414.56,158.53,412.36,146.26,404.24,146.26Z"/><path class="cls-1" d="M433.2,172.12c1.4-.14,14.32-.41,16.31-.34,1.4.07,1.6.34,1.6,1a3.94,3.94,0,0,1-1.66,3.05c-1.53.69-14,.83-16.31.76-.47,0-1.13-.14-1.2-.9A5.26,5.26,0,0,1,433.2,172.12Z"/><path class="cls-1" d="M494.32,166.37c0,16.23-6.79,26.56-16.91,26.56-9.65,0-14.58-10.61-14.58-24.07,0-18.93,9.06-26.07,17.51-26.07C489.93,142.79,494.32,152.36,494.32,166.37Zm-16-20.11c-7.59,0-9.78,8-9.78,19.48,0,10.34,2.26,23.65,10.65,23.65s9.45-10.82,9.45-21.57C488.66,158.53,486.46,146.26,478.34,146.26Z"/><path class="cls-1" d="M537.8,166.37c0,16.23-6.79,26.56-16.91,26.56-9.66,0-14.58-10.61-14.58-24.07,0-18.93,9.05-26.07,17.51-26.07C533.4,142.79,537.8,152.36,537.8,166.37Zm-16-20.11c-7.59,0-9.79,8-9.79,19.48,0,10.34,2.27,23.65,10.65,23.65s9.46-10.82,9.46-21.57C532.14,158.53,529.94,146.26,521.82,146.26Z"/><path class="cls-1" d="M581.27,166.37c0,16.23-6.79,26.56-16.91,26.56-9.65,0-14.58-10.61-14.58-24.07,0-18.93,9.06-26.07,17.51-26.07C576.88,142.79,581.27,152.36,581.27,166.37Zm-16-20.11c-7.59,0-9.78,8-9.78,19.48,0,10.34,2.26,23.65,10.65,23.65s9.45-10.82,9.45-21.57C575.61,158.53,573.42,146.26,565.29,146.26Z"/><path class="cls-1" d="M624.75,166.37c0,16.23-6.79,26.56-16.91,26.56-9.66,0-14.58-10.61-14.58-24.07,0-18.93,9-26.07,17.51-26.07C620.35,142.79,624.75,152.36,624.75,166.37Zm-16-20.11c-7.59,0-9.79,8-9.79,19.48,0,10.34,2.27,23.65,10.65,23.65s9.46-10.82,9.46-21.57C619.09,158.53,616.89,146.26,608.77,146.26Z"/><path class="cls-2" d="M67.85,162.41A28,28,0,1,1,89.17,195.7,28,28,0,0,1,67.85,162.41Z"/><path class="cls-1" d="M89.86,161.19c2-1.18,3.58-2.25,4.14-2.57s.53-1.17.06-2l-4.37-7.34c-.61-1-1.28-2.06-2.23-1.5l-4.1,2.45c-2.45,1.45-5.69,9.64,2.81,23.9s17.24,15.32,19.69,13.86l4.09-2.44c1-.57.36-1.65-.25-2.68l-4.37-7.33c-.47-.79-1.2-1.21-1.76-.88s-2.25,1.24-4.22,2.41-4.17-1.79-7-6.6S87.89,162.36,89.86,161.19Z"/></g></svg>