<svg xmlns="http://www.w3.org/2000/svg" width="700" height="455" viewBox="0 0 700 455"><defs><style>.cls-1{fill:#980051;}.cls-2{fill:none;stroke:#980051;stroke-miterlimit:10;stroke-width:1.76px;}</style></defs><title>renrakusaki</title><g id="レイヤー_2" data-name="レイヤー 2"><path d="M101.36,104.73c-8.1-5.25-15.55-16.91-15.55-31.35S93.26,47.28,101.36,42l.65.91C95.2,49.15,90.28,61,90.28,73.38S95.2,97.6,102,103.82Z"/><path d="M134.39,59.52h-6.67v7c1,.33,7.32,3.7,7.32,7.91a2.92,2.92,0,0,1-2.85,3.1c-2.66,0-2.85-2.39-3.11-5.76a8.61,8.61,0,0,0-1.36-4.21v8.94c0,6.54.26,16.9.26,23.45,0,1.29-.07,1.75-.52,2.13a4.4,4.4,0,0,1-3.11,1.3c-2.33,0-2.33-1.1-2.33-1.94,0-.13.77-17.36.9-20.67.13-2.13.13-2.78.2-8.35-2.72,6.22-6.22,12.11-11.53,16.32l-.52-.32c3.82-5.44,10.17-19.89,11.66-28.89a43.24,43.24,0,0,0-8,.39l-1-2.34c3.82.33,8.16.39,9.45.39-.13-8.09-.13-9-.52-14.12l6.93,1.88c.46.13.78.2.78.58,0,.59-.45.91-2.27,2-.32,5.12-.38,8-.38,9.65h1.16l2-2.78c.32-.46.58-.78,1-.78a1.72,1.72,0,0,1,1.23.84l1.69,2.46c.32.52.58.78.58,1.11C135.36,59.39,134.84,59.52,134.39,59.52ZM167.49,96c-3.63-1.88-7.91-8-8.94-9.72a60.71,60.71,0,0,1-4.73-11.53c.06,1.81.13,9.78.13,11.4.06,2.14.52,11.59.52,13.47,0,2.72-1.88,3.76-4,3.76s-2.14-1.88-2.14-2.53c0-3.75.59-20.34.65-23.7a45.85,45.85,0,0,1-9.2,11.53,57.44,57.44,0,0,1-9.52,7l-.32-.26c8.35-7.9,11.85-14.31,16.52-22.93h-3.18a39.46,39.46,0,0,0-7,.39l-1-2.33c4,.32,8.49.39,9.2.39h4.66c-.06-2.72-.13-7.71-.19-10.75h-8a40.63,40.63,0,0,1-7.58,9.45L133,69.3c2.08-4.67,6.22-14.25,6.22-18.59,0-.13-.13-2-.13-2.4L145.66,51c.45.19.84.45.84,1,0,.71-.52.91-2,1.49-.71,1.42-1.1,2.33-2.65,5.18h7.06c-.13-7.51-.13-8.36-.26-9.91a27.18,27.18,0,0,0-1.23-4.79l7.7,1.68c.72.13,1.17.52,1.17.91s-1.75,1.62-2.27,2c-.13,1.55-.26,4-.26,10.1h5.32l2.59-3.11c.58-.71.71-.78,1-.78s.45.07,1.23.65l3.95,3.11a1.22,1.22,0,0,1,.65,1c0,.59-.58.72-1,.72H153.75l.07,10.75h8.1l3.17-3.31c.71-.71.71-.84,1-.84s.52.13,1.23.71l4.08,3.31a1.37,1.37,0,0,1,.65,1c0,.58-.52.71-1,.71h-17c2.78,7.06,11.79,16.91,20.21,18.4v.45A12.85,12.85,0,0,0,167.49,96Z"/><path d="M182.83,104.73l-.64-.91c6.8-6.22,11.72-18.07,11.72-30.44S189,49.15,182.19,42.94l.64-.91c8.1,5.25,15.55,16.9,15.55,31.35S190.93,99.48,182.83,104.73Z"/><path d="M275.78,73.38A28.76,28.76,0,1,1,247,44.62,28.78,28.78,0,0,1,275.78,73.38Zm-55.19,0A26.43,26.43,0,1,0,247,47,26.46,26.46,0,0,0,220.59,73.38Z"/><path d="M344.43,73.38a28.76,28.76,0,1,1-28.75-28.76A28.78,28.78,0,0,1,344.43,73.38Zm-55.18,0A26.43,26.43,0,1,0,315.68,47,26.46,26.46,0,0,0,289.25,73.38Z"/><path d="M413.09,73.38a28.76,28.76,0,1,1-28.76-28.76A28.78,28.78,0,0,1,413.09,73.38Zm-55.19,0A26.43,26.43,0,1,0,384.33,47,26.46,26.46,0,0,0,357.9,73.38Z"/><path d="M481.74,73.38A28.76,28.76,0,1,1,453,44.62,28.78,28.78,0,0,1,481.74,73.38Zm-55.18,0A26.43,26.43,0,1,0,453,47,26.46,26.46,0,0,0,426.56,73.38Z"/><path d="M550.4,73.38a28.76,28.76,0,1,1-28.76-28.76A28.78,28.78,0,0,1,550.4,73.38Zm-55.19,0A26.43,26.43,0,1,0,521.64,47,26.46,26.46,0,0,0,495.21,73.38Z"/><path d="M619.05,73.38a28.76,28.76,0,1,1-28.76-28.76A28.78,28.78,0,0,1,619.05,73.38Zm-55.18,0A26.43,26.43,0,1,0,590.29,47,26.45,26.45,0,0,0,563.87,73.38Z"/><path d="M243.41,232.61v-3.1h24.38v3.1Zm13.84,8v17.19h-3.31V240.64H243.41v-3.06h24.38v3.06Z"/><path d="M284.57,259.14c-2.6,0-4.78-1.86-6.17-4.18-1.58-2.68-2.3-7.45-2.3-11.06,0-8.26,3.43-14.54,8.47-14.54,3.87,0,8.46,4.3,8.46,14.89C293,253.75,289.15,259.14,284.57,259.14Zm-4.22-23.31a36.58,36.58,0,0,0-.86,8.42c0,8.65,2,13.58,5.08,13.58,2.59,0,3.76-3.57,4.17-5a36.72,36.72,0,0,0,.9-8.53c0-8.84-2.07-13.58-5.07-13.58C281.9,230.67,280.73,234.48,280.35,235.83Z"/><path d="M308.64,259.14c-2.6,0-4.78-1.86-6.17-4.18-1.58-2.68-2.29-7.45-2.29-11.06,0-8.26,3.42-14.54,8.46-14.54,3.87,0,8.46,4.3,8.46,14.89C317.1,253.75,313.23,259.14,308.64,259.14Zm-4.21-23.31a36,36,0,0,0-.87,8.42c0,8.65,2,13.58,5.08,13.58,2.59,0,3.76-3.57,4.18-5a37.28,37.28,0,0,0,.9-8.53c0-8.84-2.07-13.58-5.08-13.58C306,230.67,304.8,234.48,304.43,235.83Z"/><path d="M332.72,259.14c-2.6,0-4.78-1.86-6.17-4.18-1.58-2.68-2.3-7.45-2.3-11.06,0-8.26,3.42-14.54,8.47-14.54,3.87,0,8.46,4.3,8.46,14.89C341.18,253.75,337.3,259.14,332.72,259.14Zm-4.22-23.31a36.58,36.58,0,0,0-.86,8.42c0,8.65,2,13.58,5.08,13.58,2.59,0,3.76-3.57,4.17-5a36.72,36.72,0,0,0,.9-8.53c0-8.84-2.07-13.58-5.07-13.58C330,230.67,328.88,234.48,328.5,235.83Z"/><path d="M356.3,250.5h-8.09V248h8.09Z"/><path d="M371.8,259.14c-2.6,0-4.78-1.86-6.17-4.18-1.58-2.68-2.29-7.45-2.29-11.06,0-8.26,3.42-14.54,8.46-14.54,3.87,0,8.46,4.3,8.46,14.89C380.26,253.75,376.39,259.14,371.8,259.14Zm-4.21-23.31a36,36,0,0,0-.87,8.42c0,8.65,2,13.58,5.08,13.58,2.59,0,3.76-3.57,4.17-5a36.65,36.65,0,0,0,.91-8.53c0-8.84-2.07-13.58-5.08-13.58C369.13,230.67,368,234.48,367.59,235.83Z"/><path d="M395.87,259.14c-2.59,0-4.77-1.86-6.17-4.18-1.58-2.68-2.29-7.45-2.29-11.06,0-8.26,3.42-14.54,8.46-14.54,3.88,0,8.47,4.3,8.47,14.89C404.34,253.75,400.46,259.14,395.87,259.14Zm-4.21-23.31a36,36,0,0,0-.86,8.42c0,8.65,2,13.58,5.07,13.58,2.6,0,3.76-3.57,4.18-5a37.28,37.28,0,0,0,.9-8.53c0-8.84-2.07-13.58-5.08-13.58C393.2,230.67,392,234.48,391.66,235.83Z"/><path d="M420,259.14c-2.6,0-4.78-1.86-6.17-4.18-1.58-2.68-2.3-7.45-2.3-11.06,0-8.26,3.43-14.54,8.47-14.54,3.87,0,8.46,4.3,8.46,14.89C428.41,253.75,424.54,259.14,420,259.14Zm-4.22-23.31a36.58,36.58,0,0,0-.86,8.42c0,8.65,2,13.58,5.08,13.58,2.59,0,3.76-3.57,4.17-5a36.65,36.65,0,0,0,.91-8.53c0-8.84-2.07-13.58-5.08-13.58C417.28,230.67,416.11,234.48,415.73,235.83Z"/><path d="M444,259.14c-2.59,0-4.77-1.86-6.17-4.18-1.58-2.68-2.29-7.45-2.29-11.06,0-8.26,3.42-14.54,8.46-14.54,3.88,0,8.46,4.3,8.46,14.89C452.48,253.75,448.61,259.14,444,259.14Zm-4.21-23.31a36,36,0,0,0-.87,8.42c0,8.65,2,13.58,5.08,13.58,2.6,0,3.76-3.57,4.18-5a37.28,37.28,0,0,0,.9-8.53c0-8.84-2.07-13.58-5.08-13.58C441.35,230.67,440.19,234.48,439.81,235.83Z"/><path d="M126.59,279.63l1.06-1c.18-.2.45-.47.6-.47a1.59,1.59,0,0,1,.56.39l1.47,1.12c.19.16.45.39.45.66s-.41.58-1.66,1.05a47.41,47.41,0,0,1-4.25,5.89v.28c2.71.5,5.53,1.94,5.53,4.07a1.48,1.48,0,0,1-1.43,1.47c-.67,0-1.12-.39-1.61-1.51a8.68,8.68,0,0,0-2.49-3.57v9.08c0,.58.15,8.3.15,8.57,0,1.28-.41,2-1.91,2-1,0-1-.58-1-1.13,0-2.36.34-14.08.41-16.75a28.8,28.8,0,0,1-7.33,5l-.15-.23c4.33-3.73,9.89-10.79,11.36-14h-4.44a27,27,0,0,0-4.4.34l-.75-1.55c1.58.16,3.87.27,5.53.27a21.84,21.84,0,0,0-.83-7.52l3.8,1.09c.19,0,.6.19.6.54s-.34.62-1.09,1.08c0,.66,0,3.85,0,4.81Zm18.85-4.53,1.24-1.25c.15-.11.49-.5.6-.5s.45.23.71.43l1.58,1.24c.23.19.42.39.42.58,0,.39-.34.43-.6.43H135.28a24.6,24.6,0,0,0-4.4.35l-.75-1.56c2.74.24,5.11.28,5.79.28Zm0,16.6,1-1.2c.15-.2.34-.39.49-.39a1.26,1.26,0,0,1,.53.31l1.73,1.28a.81.81,0,0,1,.37.58c0,.23-.34.58-1.13,1.2,0,.31-.07.85-.07,1.13,0,1.39.3,9.19.3,10.78,0,1-.86,1.51-1.8,1.51s-1-.46-1-1.82H134.11c.08,1.36-.41,2.17-1.76,2.17-.94,0-.94-.58-.94-.93,0-1.36.15-7.29.15-8.49a52.3,52.3,0,0,0-.42-8.19l3.43,2.06Zm-2-11.83.9-.93c.19-.2.38-.43.53-.43s.3.16.45.27l1.54,1.28a.92.92,0,0,1,.38.62c0,.27-.34.54-1.06.93,0,.89.19,4.73.19,5.51a1.63,1.63,0,0,1-1.77,1.67c-.9,0-.9-.54-.9-1.48h-8.12c0,.63,0,1.79-1.58,1.79-.76,0-1.06-.35-1.06-1.36,0-.5.08-4,.08-4.81,0-1.51-.11-3.49-.26-4.81l3.08,1.75Zm-9.29,12.76v5.12h4.62v-5.12Zm0,6.05v5.47h4.62v-5.47Zm1.39-17.88v5.58h8.2V280.8Zm10.45,16.95v-5.12h-4.77v5.12Zm0,6.4v-5.47h-4.77v5.47Z"/><path d="M190.05,277.35c-.07,1.43.19,22.34.19,25.17,0,2.48,0,4.62-4.25,5.43-.53-2.13-1.88-2.87-3.8-3.92l0-.27c.75.08,3,.31,3.72.31.94,0,1.24-.15,1.35-.62s.15-12,.15-13.58c0-1.24,0-12.8,0-13.92H165c0,1.4,0,16.52,0,19.24,0,1.67.15,9,.15,10.51a1.89,1.89,0,0,1-2,2.13c-.56,0-1.09-.19-1.09-1.47,0-.54.26-3,.26-3.45.12-2.64.15-17,.15-19.63A74,74,0,0,0,162,273.2L165.6,275H187l1-1.13c.15-.19.26-.31.49-.31a1,1,0,0,1,.45.24l2,1.51c.26.19.45.31.45.62S191.29,276.49,190.05,277.35Zm-4.06,9h-8.65V298.6H181c0-4.5.08-5.12,0-6.79a7.19,7.19,0,0,0-.57-2.56l3.31.59c.34.07.79.19.79.66s-.15.5-.94,1c0,.63,0,3.57,0,4.27s.12,3.61.12,4.27a1.58,1.58,0,0,1-1.73,1.7c-1.06,0-1-.54-1-2.17h-9.71c0,.27,0,1.52,0,1.79a1.62,1.62,0,0,1-1.65,1.86,1,1,0,0,1-1.06-1.09c0-.42.19-1.67.19-5.62,0-5.51-.11-5.9-.49-7.37l3.5.85c.3.08.64.16.64.55s0,.38-1.13,1.08v7h3.57V286.34h-3.76a26,26,0,0,0-4.4.35l-.75-1.55c3,.27,5.19.27,5.79.27h4.33c.37-.69,2.41-5.23,2.26-8.76l3.83,2.25a.6.6,0,0,1,.38.5c0,.51-.57.66-1.62.86-1,1.16-2.75,3.41-4.06,5.15h5l1.28-1.51c.23-.23.41-.46.56-.46a1.45,1.45,0,0,1,.72.38l1.77,1.52a.78.78,0,0,1,.37.58C186.55,286.31,186.18,286.34,186,286.34Zm-13-1.93c-.94,0-1.2-.82-1.73-2.45a10.64,10.64,0,0,0-2.07-4.19l.19-.23c.49.19,5.19,2.21,5.19,5.12A1.66,1.66,0,0,1,173,284.41Z"/><path d="M211.79,300a22.9,22.9,0,0,1-10.3,6.13l-.08-.24a37.35,37.35,0,0,0,6.47-5.82c1.77-2,2-2.63,2.11-3.49l3,2c.3.19.49.39.49.66C213.45,299.77,212.7,300,211.79,300Zm23.4-4.11H219.81c0,.73,0,2.52,0,4.84,0,1.56.19,4,.19,5.55a1.91,1.91,0,0,1-2.07,1.94c-.67,0-1.09-.27-1.09-1.2s.23-5.28.23-6.17c.07-2.75,0-4.23,0-5H207c0,1.78-1.92,1.78-2.07,1.78-.83,0-.94-.58-.94-1.09s.22-3.6.26-4.3c.08-2.83.12-5.35.12-8.38,0-7.56-.16-8.34-.42-9.62l3.54,1.13c.37.11.75.23.75.58s-.49.73-1.17,1.2c-.11,2.48-.15,5-.15,7.52,0,1.13.08,8.85.08,10.24H230l1.85-2.05c.22-.27.37-.47.63-.47s.49.27.64.39l2.33,2.06a.83.83,0,0,1,.38.62C235.79,295.89,235.45,295.93,235.19,295.93Zm-6.88-19.55c0,1.59-.15,4.77.18,12.91,0,.12,0,1,0,1.09a1.69,1.69,0,0,1-1.84,1.78c-1.09,0-1.05-.73-1.05-1.78H214.39c0,.58,0,1.9-1.88,1.9-1,0-1-.51-1-.93,0-.16,0-.66,0-.82,0-.89.26-7.79.26-11.83a27.65,27.65,0,0,0-.56-6.32L215,274.2h10.46l1.09-1.08c.26-.27.38-.43.64-.43a1,1,0,0,1,.56.35l1.55,1.32a1,1,0,0,1,.41.7C229.66,275.45,228.8,276,228.31,276.38Zm-2.64-1.24H214.35v4.15h11.32Zm0,5.08H214.35v4h11.32Zm0,5H214.35v4.27h11.32Zm5.57,20.91c-1,0-1.39-.7-2.41-2.37a15.81,15.81,0,0,0-5.53-5.58l.12-.28c5.23.9,9.44,4.12,9.44,6.6A1.58,1.58,0,0,1,231.24,306.09Z"/><path d="M254.57,279.63l1.05-1c.19-.2.45-.47.6-.47a1.59,1.59,0,0,1,.56.39l1.47,1.12c.19.16.45.39.45.66s-.41.58-1.65,1.05a47.41,47.41,0,0,1-4.25,5.89v.28c2.71.5,5.53,1.94,5.53,4.07a1.49,1.49,0,0,1-1.43,1.47c-.68,0-1.13-.39-1.62-1.51a8.75,8.75,0,0,0-2.48-3.57v9.08c0,.58.15,8.3.15,8.57,0,1.28-.42,2-1.92,2-1,0-1-.58-1-1.13,0-2.36.34-14.08.42-16.75a29,29,0,0,1-7.34,5l-.15-.23c4.33-3.73,9.89-10.79,11.36-14h-4.44a27,27,0,0,0-4.4.34l-.75-1.55c1.58.16,3.87.27,5.53.27a21.59,21.59,0,0,0-.83-7.52l3.8,1.09c.19,0,.6.19.6.54s-.34.62-1.09,1.08c0,.66,0,3.85,0,4.81Zm18.84-4.53,1.24-1.25c.15-.11.49-.5.6-.5s.45.23.72.43l1.58,1.24c.22.19.41.39.41.58,0,.39-.34.43-.6.43H263.25a24.6,24.6,0,0,0-4.4.35l-.75-1.56c2.75.24,5.12.28,5.79.28Zm0,16.6,1.05-1.2c.15-.2.34-.39.49-.39a1.21,1.21,0,0,1,.53.31l1.73,1.28a.83.83,0,0,1,.38.58c0,.23-.34.58-1.13,1.2a11.32,11.32,0,0,0-.08,1.13c0,1.39.3,9.19.3,10.78,0,1-.86,1.51-1.8,1.51s-1-.46-.94-1.82H262.09c.07,1.36-.42,2.17-1.77,2.17-.94,0-.94-.58-.94-.93,0-1.36.15-7.29.15-8.49a53.56,53.56,0,0,0-.41-8.19l3.42,2.06Zm-2-11.83.9-.93c.19-.2.38-.43.53-.43s.3.16.45.27l1.54,1.28a.92.92,0,0,1,.38.62c0,.27-.34.54-1.05.93,0,.89.18,4.73.18,5.51a1.62,1.62,0,0,1-1.76,1.67c-.91,0-.91-.54-.91-1.48h-8.12c0,.63,0,1.79-1.58,1.79-.75,0-1-.35-1-1.36,0-.5.07-4,.07-4.81,0-1.51-.11-3.49-.26-4.81l3.08,1.75Zm-9.29,12.76v5.12h4.63v-5.12Zm0,6.05v5.47h4.63v-5.47Zm1.39-17.88v5.58h8.2V280.8Zm10.46,16.95v-5.12h-4.78v5.12Zm0,6.4v-5.47h-4.78v5.47Z"/><path d="M318,277.35c-.07,1.43.19,22.34.19,25.17,0,2.48,0,4.62-4.25,5.43-.53-2.13-1.88-2.87-3.8-3.92l0-.27c.75.08,3.05.31,3.72.31.94,0,1.24-.15,1.36-.62s.15-12,.15-13.58c0-1.24,0-12.8,0-13.92H293c0,1.4,0,16.52,0,19.24,0,1.67.15,9,.15,10.51a1.89,1.89,0,0,1-2,2.13c-.56,0-1.09-.19-1.09-1.47,0-.54.27-3,.27-3.45.11-2.64.15-17,.15-19.63A73.47,73.47,0,0,0,290,273.2l3.61,1.82H315l1-1.13c.15-.19.26-.31.49-.31a1,1,0,0,1,.45.24l2,1.51c.27.19.45.31.45.62S319.26,276.49,318,277.35Zm-4.06,9h-8.65V298.6H309c0-4.5.07-5.12,0-6.79a7.38,7.38,0,0,0-.56-2.56l3.31.59c.33.07.79.19.79.66s-.15.5-.94,1c0,.63,0,3.57,0,4.27s.11,3.61.11,4.27a1.58,1.58,0,0,1-1.73,1.7c-1,0-1-.54-1-2.17h-9.7c0,.27,0,1.52,0,1.79a1.62,1.62,0,0,1-1.65,1.86,1,1,0,0,1-1.05-1.09c0-.42.18-1.67.18-5.62,0-5.51-.11-5.9-.49-7.37l3.5.85c.3.08.64.16.64.55s0,.38-1.13,1.08v7h3.58V286.34h-3.76a26,26,0,0,0-4.41.35l-.75-1.55c3,.27,5.19.27,5.8.27H304c.38-.69,2.41-5.23,2.26-8.76l3.83,2.25a.6.6,0,0,1,.38.5c0,.51-.56.66-1.62.86-1,1.16-2.74,3.41-4.06,5.15h5l1.28-1.51c.23-.23.42-.46.57-.46a1.46,1.46,0,0,1,.71.38l1.77,1.52a.78.78,0,0,1,.37.58C314.52,286.31,314.15,286.34,314,286.34Zm-13-1.93c-.94,0-1.2-.82-1.73-2.45a10.79,10.79,0,0,0-2.06-4.19l.18-.23c.49.19,5.19,2.21,5.19,5.12A1.65,1.65,0,0,1,301,284.41Z"/><path d="M363,279.79H345.3l3.12,1c.22.07.49.23.49.5s-.27.58-1,1.13c0,.62-.11,2.63-.19,3.95h7.53l1.09-1.2c.3-.31.41-.43.6-.43a1.27,1.27,0,0,1,.68.39l1.5,1.24c.3.24.49.47.49.7,0,.51-.71,1-1.13,1.28,0,1.82.19,10,.19,11.64,0,1.12,0,3.8-4.25,4.61a7,7,0,0,0-3.16-3.68v-.27a21.44,21.44,0,0,0,2.48.15c1.28,0,2-.15,2.15-.74s.07-10.55,0-12.76h-8.2c0,4.31,0,12,.15,16.06,0,.43.12,2.33.12,2.72,0,1.78-2,1.9-2.15,1.9a1,1,0,0,1-1.09-1.17c0-3.25.38-8.49.42-11.75s0-4.46,0-7.76h-7.6c0,1.24,0,6.64,0,7.76s.11,6.25.11,7.29a1.86,1.86,0,0,1-2,2.06c-.86,0-1.05-.47-1.05-1,0-.08,0-.35,0-.78.12-1.66.31-8.8.31-12.41a24.33,24.33,0,0,0-.49-5.78l3.72,1.9h7c0-4.42,0-4.92-.46-6.63H334.58a25.82,25.82,0,0,0-4.44.35l-.75-1.51c2.52.19,5.07.23,5.79.23h10c.08-4.19-.6-5.78-1-6.75l4.14.93c.34.08.72.19.72.58s0,.43-1.25,1.17c0,.66,0,3.49,0,4.07h9.82l1.8-2.17c.27-.35.42-.47.61-.47a1,1,0,0,1,.67.39l2.41,2.17c.23.2.38.35.38.62S363.28,279.79,363,279.79Z"/><path d="M406.27,290a16.71,16.71,0,1,1-16.7-17.22A17,17,0,0,1,406.27,290Zm-32,0a15.35,15.35,0,1,0,15.34-15.83A15.6,15.6,0,0,0,374.23,290Z"/><path d="M449.15,290c0,9.5-7.48,17.22-16.69,17.22A17.23,17.23,0,1,1,449.15,290Zm-32,0a15.35,15.35,0,1,0,15.35-15.83A15.6,15.6,0,0,0,417.11,290Z"/><path d="M492,290a16.71,16.71,0,1,1-16.7-17.22A17,17,0,0,1,492,290ZM460,290a15.35,15.35,0,1,0,15.35-15.83A15.6,15.6,0,0,0,460,290Z"/><path d="M534.92,290a16.71,16.71,0,1,1-16.7-17.22A17,17,0,0,1,534.92,290Zm-32,0a15.35,15.35,0,1,0,15.34-15.83A15.6,15.6,0,0,0,502.88,290Z"/><path d="M577.81,290a16.71,16.71,0,1,1-16.71-17.22A17,17,0,0,1,577.81,290Zm-32,0A15.35,15.35,0,1,0,561.1,274.2,15.6,15.6,0,0,0,545.76,290Z"/><path d="M205.33,340c0,1-.05,1.87-.05,4.38,0,3.06,0,6.44.11,9.47,0,.39.14,2.08.14,2.42s0,1.34-1.33,1.34c-.55,0-.58-.32-.58-.61,0-.14,0-.78.07-.89H190a2.07,2.07,0,0,1,0,.86,1.26,1.26,0,0,1-1.21.71c-.55,0-.64-.32-.64-.61s0-1,.06-1.4c.22-4.1.27-8.23.27-12.36a40,40,0,0,0-.27-5.91l2.3,1.23h13l.68-.68a.66.66,0,0,1,.4-.25c.14,0,.25.09.4.23l1,.8a.54.54,0,0,1,.24.41C206.17,339.26,206,339.42,205.33,340Zm-1.64-.82H190v16.38h13.67Zm-1.48,13.14h-8.39a14.29,14.29,0,0,0-2.61.21l-.44-.92a32.18,32.18,0,0,0,3.41.16h1.57v-4.79h-.93a15.17,15.17,0,0,0-2.61.21l-.44-.91c1.74.16,3.31.16,3.4.16h.58v-3.75h-1.4a15.4,15.4,0,0,0-2.61.21l-.42-.91c1.13.09,2.26.16,3.39.16h4.58l.79-.87c.11-.11.25-.27.38-.27s.31.16.4.22l.91.87c.08.09.22.21.22.34s-.22.25-.34.25h-4.44v3.75h1.32l.71-.76c.14-.16.27-.29.38-.29s.24.13.4.25l.95.75a.53.53,0,0,1,.22.34c0,.23-.22.25-.33.25h-3.65v4.79h2.67l.78-.82c.15-.18.26-.27.38-.27s.28.14.39.23l.91.82c.09.09.22.2.22.34S202.34,352.28,202.21,352.28Zm-2.61-1.5c-.51,0-.82-.48-.91-1a5.63,5.63,0,0,0-.62-2.21l.13-.12c1.55.62,2.22,1.6,2.22,2.38A.87.87,0,0,1,199.6,350.78Z"/><path d="M227.52,345l.9-1.24c.14-.18.2-.27.33-.27s.16.05.42.25l1.49,1.21a.5.5,0,0,1,.22.37c0,.2-.2.22-.36.22h-7.36c0,.76,0,4,0,4.7,0,.23,0,5,0,5.64H229l1.1-1.23c.16-.19.22-.28.34-.28s.19.07.42.25l1.46,1.21a.5.5,0,0,1,.22.34c0,.21-.2.26-.33.26H215.57a15.58,15.58,0,0,0-2.61.2l-.45-.91c1.49.14,3,.16,3.41.16h5.64c0-.21,0-5,0-5.57v-4.77h-4.67a15,15,0,0,0-2.61.21l-.44-.89c1.48.11,3,.14,3.41.14h4.31c0-5.18,0-5.77-.55-7.44l2.68.73c.22.07.35.11.35.32a.41.41,0,0,1-.2.34c-.09.09-.51.44-.64.53,0,1.84,0,3.67,0,5.52Z"/><path d="M245.87,343.73a1.59,1.59,0,0,1-.35,0A16.51,16.51,0,0,1,238,349l-.07-.13a23,23,0,0,0,5.47-5.23,5.2,5.2,0,0,0,.88-1.73l2,1.23a.34.34,0,0,1,.2.27C246.47,343.66,246.12,343.7,245.87,343.73Zm10.4,13.75a17.7,17.7,0,0,1-8.09-4.7,15.4,15.4,0,0,1-10,4.7l0-.18a18.31,18.31,0,0,0,9.07-5.7,14.25,14.25,0,0,1-2.54-6.23l.2,0a16.72,16.72,0,0,0,3.07,5.33,11.82,11.82,0,0,0,2.62-5.72l2,1.41a.48.48,0,0,1,.22.37c0,.27-.26.36-.84.48a23.5,23.5,0,0,1-2.92,4.58,15.11,15.11,0,0,0,9.29,3.4l0,.16A4.75,4.75,0,0,0,256.27,357.48Zm1.49-16.13H241.29a15.69,15.69,0,0,0-2.61.21l-.44-.91c1.51.13,3.08.16,3.41.16h5.55c0-2.49-.11-2.76-.62-4l2.61.69c.18,0,.36.14.36.36s-.51.51-.75.57c0,.39-.05,2-.05,2.38h5.91l1-1.26c.12-.16.23-.29.36-.29a.78.78,0,0,1,.42.22l1.46,1.28a.53.53,0,0,1,.22.34C258.11,341.31,257.91,341.35,257.76,341.35Zm-1.95,6.35c-.51,0-.58-.12-1.15-1.1a11.52,11.52,0,0,0-3.94-4l.07-.11c3.63.59,5.93,3,5.93,4.26A.91.91,0,0,1,255.81,347.7Z"/><path d="M282.49,357.16c-.75,0-4,0-4.67,0a22.07,22.07,0,0,1-6-.66c-2.61-.8-3.14-2.06-3.45-2.76-.33.45-2,2.35-2.35,2.76-.06.22-.11.57-.15.66a.27.27,0,0,1-.25.18.39.39,0,0,1-.3-.18l-1.62-2a8.27,8.27,0,0,0,3.65-1.09v-6.69a15.43,15.43,0,0,0-2.88.21l-.44-.91c1,.09,1.64.13,3,.16l.82-.64c.13-.09.24-.18.3-.18a.43.43,0,0,1,.29.16l.89.82a.41.41,0,0,1,.15.29.33.33,0,0,1-.13.28l-.46.41c-.07.45-.07,2.78-.07,3.28,0,2.83,0,4.31,6.17,4.31a54.45,54.45,0,0,0,7.21-.52c.47-.09,1.22-.25,1.8-.39v.09A3.5,3.5,0,0,0,282.49,357.16Zm-14.1-15.58c-.66,0-.84-.61-1-1.09a5.44,5.44,0,0,0-1.88-2.92l0-.14c2.7.53,3.72,2.26,3.72,3.13A1,1,0,0,1,268.39,341.58Zm14.45,2.06c-.09.09-.57.47-.68.57-.05,1.09,0,6.47,0,7.71,0,.77,0,2.09-2.13,2.57a3.26,3.26,0,0,0-1.72-2.14v-.11l1.55.06c.73,0,.82-.16.82-.82V350h-3.46c0,.23.07,2.44.07,2.85,0,.09.07.8.07.89a.9.9,0,0,1-1,.82c-.55,0-.55-.34-.55-.53s0-.73,0-.86c0-.46,0-2.67,0-3.17h-3.4c0,.45,0,2.64,0,3.15a1,1,0,0,1-1.06,1.11c-.58,0-.58-.36-.58-.61,0-.07,0-.37,0-.44.07-1,.09-4,.09-4.9a42.38,42.38,0,0,0-.24-6.27l2,1h3.72c-.18-.16-.2-.2-.38-.61a7.22,7.22,0,0,0-2-2.31V340a6.2,6.2,0,0,1,2.81,1c.53-.53,1.15-1.3,1.79-2.1h-4.95a15.09,15.09,0,0,0-2.61.2l-.45-.89c1.15.09,2.28.14,3.41.14h4.78l.8-.57a.58.58,0,0,1,.28-.16.69.69,0,0,1,.36.18l1.28,1.12a.5.5,0,0,1,.16.3.38.38,0,0,1-.18.27,12.63,12.63,0,0,1-1.28.23c-.49.14-2.62,1.28-3.1,1.48a1.51,1.51,0,0,1,.6,1.16.78.78,0,0,1-.36.71h3l.62-.61c.09-.1.18-.19.29-.19a.49.49,0,0,1,.24.14l1.15.82a.34.34,0,0,1,.18.23A.31.31,0,0,1,282.84,343.64Zm-7-.05h-3.43c0,.64,0,1.85,0,2.6h3.4Zm0,3.15h-3.4v2.69h3.4Zm4.83-3.15h-3.46v2.6h3.46Zm0,3.15h-3.46v2.69h3.46Z"/><path d="M307.24,357.16c-4.8-2.73-7.1-6.45-7.94-12.57-.4,4-1.82,10.68-10,13l-.09-.18a14.44,14.44,0,0,0,7.13-7.66,22.28,22.28,0,0,0,1.33-5.71H292.4a15.39,15.39,0,0,0-2.62.21l-.44-.89c1.75.14,3.3.14,3.41.14h5a23.36,23.36,0,0,0,.11-2.38,14.35,14.35,0,0,0-.48-4l2.54.71c.2,0,.4.16.4.34s-.31.48-.75.77c0,1.49-.09,2.9-.18,4.57h6.06l1-1.19c.11-.14.22-.27.33-.27a1,1,0,0,1,.42.22l1.48,1.19a.53.53,0,0,1,.22.34c0,.25-.22.25-.33.25h-9a19.06,19.06,0,0,0,1.68,4.79c1.64,3.43,4.38,5.27,8.45,6.39v.18A4.08,4.08,0,0,0,307.24,357.16Z"/><path d="M334.36,356.16h-15.9c0,.68,0,1.6-1.11,1.6a.63.63,0,0,1-.66-.71,5.23,5.23,0,0,1,0-.62c0-.43.18-9.28.18-14.32a21.07,21.07,0,0,0-.25-4.41l2,.92h12.05l.91-1.14c.14-.19.22-.3.36-.3s.17.07.42.25l1.41,1.14a.5.5,0,0,1,.22.34c0,.21-.2.25-.33.25h-7.81v4.45h3.85l.6-.61c.18-.19.24-.25.33-.25s.13,0,.27.18l1.06,1c.15.13.22.2.22.34s-.58.59-.82.73c0,.82.18,4.45.18,5.18a1.06,1.06,0,0,1-1.13,1.16c-.53,0-.53-.34-.51-1.09h-4.09v5.4h5.35l1-1.18c.17-.23.24-.3.35-.3s.2.09.42.25l1.51,1.19a.43.43,0,0,1,.22.34C334.72,356.11,334.52,356.16,334.36,356.16Zm-10-17h-5.93v4.45h5.93Zm5.57,5h-11.5v5.5H330Zm-5.64,6h-5.86v5.4h5.86Z"/><path d="M349.12,358.44a14.23,14.23,0,0,1,0-22.08l.2.32a15.75,15.75,0,0,0,0,21.44Z"/><path d="M356.06,355.34h1.22c1.15,0,1.55-.46,1.55-1.39V341.6c0-.7-.64-.82-1.06-.82h-1.69v-.7h.4a8.33,8.33,0,0,0,3.61-1c.15-.09.22-.14.31-.14s.24.14.24.32V354c0,1,.47,1.39,1.55,1.39h1.22v.73h-7.35Z"/><path d="M370.35,358.44l-.2-.32a15.75,15.75,0,0,0,0-21.44l.2-.32a14.23,14.23,0,0,1,0,22.08Z"/><path d="M394.27,340.74h-3.85c1.21.8,1.81,1.18,1.81,2a.92.92,0,0,1-.84,1c-.62,0-.66-.34-.82-1.34a5.71,5.71,0,0,0-.48-1.69h-1a13.07,13.07,0,0,1-3.89,3.94l-.09-.11A28.51,28.51,0,0,0,389,338a3.38,3.38,0,0,0,.13-1.23l2,1.1a.33.33,0,0,1,.2.29c0,.23-.33.35-.89.53-.29.43-.86,1.3-1,1.48H392l.66-.84c.11-.14.24-.3.33-.3s.24.11.42.25l1,.85a.52.52,0,0,1,.22.34C394.6,340.69,394.4,340.74,394.27,340.74ZM403.14,351c-.62,3-.93,4.59-4,4.95a3.67,3.67,0,0,0-1.68-2.41l0-.14a15.41,15.41,0,0,0,2.5.39c.68,0,1.3-.21,1.66-3.33H395.2c0,.79.06,4.7.08,5.58,0,.12.05.78.05.94a1,1,0,0,1-1.09,1c-.28,0-.59-.09-.59-.69,0-1.11.11-4.9.13-6.09a18.8,18.8,0,0,1-8.27,6l-.05-.19a28.9,28.9,0,0,0,7-6.47h-4.39c-.26,1.05-.37,1.46-1.12,1.46-.51,0-.78-.19-.78-.55,0-.07.25-.78.4-1.19a12.34,12.34,0,0,0,.93-4.31l1.79,1.05h4.51c0-.21,0-1.89,0-2.26h-3.34a14,14,0,0,0-2.61.23l-.44-.91c1.08.09,2.32.13,3.41.13h9l.59-.59a.4.4,0,0,1,.25-.14.55.55,0,0,1,.31.14l1,.82c.06.07.17.14.17.28s-.24.38-.7.7c0,.35.08,1.92.08,2.15,0,.77-.88.86-1,.86-.57,0-.55-.5-.53-.86H395.2v2.44h6.28l.77-.82c.09-.09.2-.23.29-.23s.25.14.33.23l1,1a.37.37,0,0,1,.16.27C404.05,350.62,403.69,350.73,403.14,351Zm-9.32-3.53h-4.95c-.22.7-.24.89-.62,2.44h5.57ZM404,341h-6.44c1.66.66,2.3.93,2.3,1.89a.78.78,0,0,1-.79.84c-.56,0-.65-.34-1-1.34a4.42,4.42,0,0,0-.86-1.39h-.84a11.93,11.93,0,0,1-2.59,2.82l-.11-.09c1.39-2.41,2.67-4.83,2.61-6.82l2.14,1a.3.3,0,0,1,.2.27c0,.23-.31.39-1,.59a17.72,17.72,0,0,1-.95,1.67h4.67l.73-1.07c.09-.14.2-.28.33-.28a.76.76,0,0,1,.42.23l1.24,1.07a.5.5,0,0,1,.22.35C404.31,340.92,404.14,341,404,341Zm-4,3.69H395.2v2.26H400Z"/><path d="M414.6,356.5A4.47,4.47,0,0,1,411,354a14.57,14.57,0,0,1-1.35-6.5c0-4.86,2-8.56,5-8.56,2.27,0,5,2.53,5,8.76C419.57,353.33,417.3,356.5,414.6,356.5Zm-2.48-13.71a21.25,21.25,0,0,0-.51,4.95c0,5.09,1.17,8,3,8,1.52,0,2.21-2.1,2.45-3a21.71,21.71,0,0,0,.53-5c0-5.2-1.21-8-3-8C413,339.76,412.34,342,412.12,342.79Z"/><path d="M430.52,356.5A4.45,4.45,0,0,1,426.9,354a14.57,14.57,0,0,1-1.35-6.5c0-4.86,2-8.56,5-8.56,2.28,0,5,2.53,5,8.76C435.5,353.33,433.22,356.5,430.52,356.5Zm-2.47-13.71a21.25,21.25,0,0,0-.51,4.95c0,5.09,1.17,8,3,8,1.53,0,2.22-2.1,2.46-3a21.71,21.71,0,0,0,.53-5c0-5.2-1.22-8-3-8C429,339.76,428.27,342,428.05,342.79Z"/><path d="M446.45,356.5a4.47,4.47,0,0,1-3.63-2.46,14.57,14.57,0,0,1-1.35-6.5c0-4.86,2-8.56,5-8.56,2.28,0,5,2.53,5,8.76C451.43,353.33,449.15,356.5,446.45,356.5ZM444,342.79a21.25,21.25,0,0,0-.51,4.95c0,5.09,1.18,8,3,8,1.53,0,2.21-2.1,2.46-3a21.71,21.71,0,0,0,.53-5c0-5.2-1.22-8-3-8C444.88,339.76,444.19,342,444,342.79Z"/><path d="M462.38,356.5a4.47,4.47,0,0,1-3.63-2.46,14.57,14.57,0,0,1-1.35-6.5c0-4.86,2-8.56,5-8.56,2.28,0,5,2.53,5,8.76C467.36,353.33,465.08,356.5,462.38,356.5Zm-2.48-13.71a21.25,21.25,0,0,0-.51,4.95c0,5.09,1.18,8,3,8,1.53,0,2.21-2.1,2.45-3a21.64,21.64,0,0,0,.54-5c0-5.2-1.22-8-3-8C460.81,339.76,460.12,342,459.9,342.79Z"/><path d="M478.31,356.5a4.47,4.47,0,0,1-3.63-2.46,14.57,14.57,0,0,1-1.35-6.5c0-4.86,2-8.56,5-8.56,2.28,0,5,2.53,5,8.76C483.28,353.33,481,356.5,478.31,356.5Zm-2.48-13.71a21.25,21.25,0,0,0-.51,4.95c0,5.09,1.17,8,3,8,1.52,0,2.21-2.1,2.45-3a21.71,21.71,0,0,0,.53-5c0-5.2-1.21-8-3-8C476.74,339.76,476.05,342,475.83,342.79Z"/><path d="M509.54,346.1h-11c-.58,1.09-1.22,2.6-1.5,3.28h6.19l.8-.7c.11-.09.22-.19.33-.19s.24.14.35.26l1.11,1a.62.62,0,0,1,.2.37c0,.3-.42.41-1.11.62-1,4.76-1.5,7.27-5.71,7.18a3.84,3.84,0,0,0-2.21-2.6l0-.14a18.23,18.23,0,0,0,3.74.6c1.11,0,1.79-.76,2.61-5.89h-6.55a23.12,23.12,0,0,1-1.21,2.6,1,1,0,0,1-.86.39c-.38,0-.87-.21-.87-.57a1.22,1.22,0,0,1,.13-.46c1.33-2.6,1.49-2.92,2.77-5.79h-4.14a15.09,15.09,0,0,0-2.61.2l-.44-.89c1.75.14,3,.14,3.41.14h13.52l1-1.25c.11-.14.22-.28.36-.28s.28.14.39.23l1.37,1.28a.46.46,0,0,1,.23.34C509.88,346.1,509.65,346.1,509.54,346.1ZM505,339.16c0,.89,0,3.15,0,4,0,.32,0,.93-.95.93-.71,0-.75-.34-.69-1.12h-7.65c0,.57,0,1.28-1.09,1.28a.58.58,0,0,1-.59-.59c0-.16.09-.89.09-1.05,0-.8.11-1.87.11-3A9.87,9.87,0,0,0,494,337l2.06,1h7.17l.44-.55c.09-.12.22-.25.31-.25a.84.84,0,0,1,.35.18l1.07.66a.54.54,0,0,1,.24.39C505.63,338.62,505.47,338.8,505,339.16Zm-1.59-.57h-7.66v3.84h7.66Z"/><path d="M140.42,393.63a14.25,14.25,0,0,1,0-22.08l.2.32a15.78,15.78,0,0,0,0,21.44Z"/><path d="M154.65,375.49c-2.15,3.38-3.83,5.91-8.06,8.44l-.11-.16c3.56-3.53,6.7-8.21,6.53-10.54l2.25,1.4a.48.48,0,0,1,.27.38C155.53,375.24,155.33,375.36,154.65,375.49ZM163.78,392c-.53,0-.9-.36-1.17-1l-.93-2.17a103.06,103.06,0,0,1-11,2.78c-.38.51-.49.62-.69.62s-.31-.23-.35-.36l-.73-2.38a9.1,9.1,0,0,0,1.81.21c.18,0,1.47-.12,1.73-.14a43.55,43.55,0,0,0,3-8.23,5.4,5.4,0,0,0,.07-1.33l2.3,1c.14.06.33.18.33.38s-.26.39-.75.55c-.24.41-.42.73-2,3.65-.67,1.17-1.4,2.4-2.37,3.9,2.54-.27,5.69-.66,8.52-1a12.66,12.66,0,0,0-2.61-3l.06-.15c2.59,1,5.87,3.26,5.87,5.49C164.76,391.83,164.05,392,163.78,392Zm1.42-8.83a11.87,11.87,0,0,1-4.16-3.74,11.53,11.53,0,0,1-2.17-5.45,16.79,16.79,0,0,0-2.9.25l-.46-.91c.57,0,1.7.11,2.85.11l.64-.77c.16-.19.25-.3.36-.3s.24.09.46.25l1,.73c.08.07.22.18.22.34s-.16.3-.51.46c-.51.21-.71.3-1,.41a9.38,9.38,0,0,0,7.9,6.52v.16A3.64,3.64,0,0,0,165.2,383.2Z"/><path d="M180.2,384.82c-.51,0-.76-.43-.93-.77a14.32,14.32,0,0,0-1.82-2.92c0,6,0,6.7,0,8.37,0,.34.09,1.87.09,2.17a1,1,0,0,1-1.08,1,.61.61,0,0,1-.69-.7c0-.25.09-1.35.09-1.58.07-1.75.05-2.21.11-7.8a16.82,16.82,0,0,1-4.38,3.35l-.09-.16a34.05,34.05,0,0,0,6.68-8.64h-3.09a15.36,15.36,0,0,0-2.61.2l-.42-.89c1.5.12,3.07.14,3.38.14H176a12.12,12.12,0,0,0-.58-4.47l2.55.75a.41.41,0,0,1,.26.3c0,.27-.26.46-.71.68a26.64,26.64,0,0,0,0,2.74h.8l.55-.59c.16-.16.27-.23.4-.23s.22.09.35.21l1,.91a.4.4,0,0,1,.16.32c0,.34-.36.43-1.07.52a31.58,31.58,0,0,1-2.21,3.13,8.73,8.73,0,0,1,2.35,1.25,2.24,2.24,0,0,1,1.1,1.74C181,384.21,180.79,384.82,180.2,384.82Zm11.61,6.5h-9.36a15,15,0,0,0-2.61.21l-.44-.91c1.55.13,3.21.16,3.41.16H185c0-2.33,0-6,0-8.35,0-1.1,0-1.26,0-2h-1.3a15.78,15.78,0,0,0-2.61.2l-.45-.91c1.49.14,3,.16,3.41.16H185c0-.39,0-1.89,0-2.28,0-3.68,0-4.15-.64-5.48l2.45.6c.34.06.54.22.54.43s-.42.55-.76.68c0,.57,0,5.09,0,6.05h2.24l.81-1.12c.14-.18.23-.27.36-.27s.24.09.42.25l1.22,1.09a.57.57,0,0,1,.22.37c0,.16-.18.23-.33.23H186.5v6.18l0,4.13h2.37l1-1.19c.16-.18.27-.25.38-.25a.61.61,0,0,1,.42.23l1.21,1.16a.62.62,0,0,1,.2.37C192.14,391.26,191.94,391.32,191.81,391.32Z"/><path d="M198.38,393.63l-.2-.32a15.78,15.78,0,0,0,0-21.44l.2-.32a14.25,14.25,0,0,1,0,22.08Z"/><path d="M218.36,376.47l.62-.57c.11-.11.26-.27.35-.27s.26.16.33.23l.86.66c.11.09.27.23.27.39s-.24.34-1,.61a29.42,29.42,0,0,1-2.5,3.47v.16c1.59.3,3.25,1.14,3.25,2.4a.87.87,0,0,1-.84.86c-.4,0-.67-.23-.95-.89a5.31,5.31,0,0,0-1.46-2.1v5.34c0,.34.08,4.88.08,5,0,.76-.24,1.17-1.12,1.17-.6,0-.6-.34-.6-.66,0-1.4.2-8.29.24-9.86a16.82,16.82,0,0,1-4.31,3l-.09-.14A33.05,33.05,0,0,0,218.2,377h-2.61a15.17,15.17,0,0,0-2.59.21l-.44-.92c.93.1,2.28.16,3.25.16a12.45,12.45,0,0,0-.49-4.42l2.24.64c.11,0,.35.11.35.32s-.2.36-.64.64c0,.38,0,2.25,0,2.82Zm11.08-2.66.73-.73c.09-.07.29-.3.35-.3s.27.14.42.25l.93.73c.14.11.25.23.25.34s-.2.25-.36.25h-8.29a14.14,14.14,0,0,0-2.59.21l-.44-.91c1.61.13,3,.16,3.4.16Zm0,9.76.62-.71c.09-.11.2-.23.28-.23a.68.68,0,0,1,.31.19l1,.75a.48.48,0,0,1,.22.34c0,.14-.2.34-.66.71,0,.18,0,.5,0,.66,0,.82.17,5.41.17,6.34a.94.94,0,0,1-1.06.89c-.6,0-.6-.27-.55-1.07h-6.95c0,.8-.24,1.28-1,1.28-.55,0-.55-.35-.55-.55,0-.8.09-4.29.09-5a30.32,30.32,0,0,0-.25-4.81l2,1.21Zm-1.2-7,.53-.55c.11-.11.23-.25.31-.25s.18.09.27.16l.91.76a.52.52,0,0,1,.22.36c0,.16-.2.32-.62.55,0,.52.11,2.78.11,3.24a1,1,0,0,1-1,1c-.53,0-.53-.32-.53-.87H223.6c0,.37,0,1.05-.93,1.05-.44,0-.62-.21-.62-.8,0-.29,0-2.37,0-2.83a28,28,0,0,0-.15-2.83l1.81,1Zm-5.46,7.51v3h2.72v-3Zm0,3.55v3.22h2.72v-3.22Zm.82-10.51v3.28h4.82v-3.28Zm6.15,10v-3h-2.81v3Zm0,3.76v-3.22h-2.81v3.22Z"/><path d="M256.12,375.13c-.05.84.11,13.14.11,14.8,0,1.46,0,2.72-2.5,3.2-.31-1.26-1.11-1.69-2.24-2.31l0-.16c.44,0,1.79.19,2.19.19s.73-.1.79-.37.09-7.07.09-8c0-.73,0-7.53,0-8.19H241.38c0,.82,0,9.71,0,11.31,0,1,.09,5.32.09,6.18a1.12,1.12,0,0,1-1.19,1.26c-.34,0-.65-.12-.65-.87,0-.32.16-1.75.16-2,.07-1.55.09-10,.09-11.54a42.47,42.47,0,0,0-.25-5.93l2.13,1.07h12.61l.57-.66a.34.34,0,0,1,.29-.18.55.55,0,0,1,.27.13l1.19.89c.16.12.27.18.27.37S256.85,374.63,256.12,375.13Zm-2.39,5.29h-5.09v7.21h2.15c0-2.65,0-3,0-4a4.34,4.34,0,0,0-.34-1.51l1.95.34c.2,0,.46.12.46.39s-.08.3-.55.57c0,.37,0,2.1,0,2.51s.07,2.12.07,2.51a.93.93,0,0,1-1,1c-.62,0-.6-.32-.57-1.27h-5.71c0,.16,0,.89,0,1.05,0,1.07-.84,1.09-1,1.09a.58.58,0,0,1-.62-.64c0-.25.11-1,.11-3.31,0-3.23-.07-3.46-.29-4.33l2.06.5c.17,0,.37.09.37.32s0,.23-.66.64v4.13h2.1v-7.21H245a14.54,14.54,0,0,0-2.59.21l-.44-.92c1.77.16,3.05.16,3.4.16h2.55a12.89,12.89,0,0,0,1.33-5.15l2.25,1.32a.36.36,0,0,1,.22.3c0,.29-.33.39-.95.5-.59.68-1.61,2-2.39,3h3l.75-.89c.13-.13.24-.27.33-.27a.81.81,0,0,1,.42.23l1,.89a.46.46,0,0,1,.22.34C254.06,380.4,253.84,380.42,253.73,380.42Zm-7.63-1.14c-.56,0-.71-.48-1-1.44a6.26,6.26,0,0,0-1.22-2.46l.11-.14c.29.12,3.06,1.3,3.06,3A1,1,0,0,1,246.1,379.28Z"/><path d="M269.35,388.47a13.45,13.45,0,0,1-6.07,3.61l0-.14a21.93,21.93,0,0,0,3.8-3.42c1-1.19,1.16-1.55,1.24-2l1.75,1.18c.18.12.29.23.29.39S269.88,388.45,269.35,388.47Zm13.76-2.41h-9.05c0,.43,0,1.48,0,2.85,0,.91.11,2.35.11,3.26a1.12,1.12,0,0,1-1.22,1.14c-.39,0-.64-.16-.64-.71s.14-3.1.14-3.62c0-1.62,0-2.49,0-2.92h-5.95c0,1-1.13,1-1.22,1-.49,0-.55-.34-.55-.63s.13-2.13.15-2.54c.05-1.66.07-3.14.07-4.92,0-4.45-.09-4.91-.25-5.66l2.08.66c.22.07.45.14.45.34s-.29.44-.69.71c-.07,1.46-.09,3-.09,4.43,0,.66.05,5.2.05,6H280l1.09-1.21c.13-.16.22-.28.37-.28s.29.16.38.23l1.37,1.21a.53.53,0,0,1,.22.37C283.46,386,283.26,386.06,283.11,386.06Zm-4.05-11.5c0,.93-.09,2.8.11,7.59,0,.07,0,.6,0,.64a1,1,0,0,1-1.08,1c-.64,0-.62-.43-.62-1h-6.62c0,.35,0,1.12-1.1,1.12-.58,0-.6-.3-.6-.55,0-.09,0-.38,0-.48,0-.52.16-4.58.16-6.95a15.65,15.65,0,0,0-.34-3.72l2.19,1.07h6.16l.64-.64c.15-.16.22-.25.37-.25a.61.61,0,0,1,.33.21l.91.77a.6.6,0,0,1,.25.41C279.86,374,279.35,374.35,279.06,374.56Zm-1.55-.73h-6.66v2.44h6.66Zm0,3h-6.66v2.37h6.66Zm0,2.92h-6.66v2.51h6.66ZM280.78,392c-.57,0-.81-.41-1.41-1.39a9.37,9.37,0,0,0-3.25-3.28l.06-.16c3.08.52,5.56,2.41,5.56,3.87A.93.93,0,0,1,280.78,392Z"/><path d="M307,377.36a16,16,0,0,0-2,1.33l-.11-.07a12.13,12.13,0,0,0,.69-2.35H292.66c.07,2.55-1.28,3.76-2.23,3.76a.92.92,0,0,1-.95-.89c0-.57.5-1,1.12-1.48a4,4,0,0,0,1.71-2.83h.13a4.2,4.2,0,0,1,.18.89h5.71a8.67,8.67,0,0,0-.45-3.63l2.3.69c.25.07.34.2.34.34s-.16.34-.67.71v1.89h5.6l.69-.66a.71.71,0,0,1,.42-.23c.15,0,.31.16.42.28l1.28,1.27a.84.84,0,0,1,.27.57C308.53,377.18,308.41,377.36,307,377.36Zm1.29,14.22c-.95.7-3.65.73-4.91.73-5,0-6-.05-6.13-2.24,0-.36,0-3.51,0-4.08l-4.56.86a13.13,13.13,0,0,0-2.52.69l-.6-.82c1.13-.12,2.25-.25,3.38-.46l4.3-.82c0-.57,0-3.4,0-4a29,29,0,0,1-7.12,1.28v-.16c.33-.07,10-2.81,11.68-5.13l1.48,1.5a.54.54,0,0,1,.15.39.33.33,0,0,1-.33.3l-.79,0a33.46,33.46,0,0,1-3.52,1.35c0,.62,0,3.58,0,4.24l6.69-1.25.81-1.37c.12-.18.2-.34.34-.34a.92.92,0,0,1,.39.16l1.51.89a.5.5,0,0,1,.29.36c0,.18-.14.23-.29.25l-9.76,1.85c0,1.73,0,3,.05,4.15,0,.37.11.6.44.73a17.78,17.78,0,0,0,4.07.18c3.36,0,3.74,0,4.43-4.26h.13c.11.61.26,1.55.42,2.33s.17.86.44,1.11.35.32.35.55C309,391,308.57,391.35,308.24,391.58Z"/><path d="M322.57,380.35H320v7.35c1.79-.55,2.3-.76,2.81-.94l.09.18a22.29,22.29,0,0,1-3.19,1.94c-.9.48-2.05,1.08-2.72,1.42-.2.48-.28.73-.55.73s-.29-.16-.35-.28l-1.15-2c.75,0,1.12.1,3.62-.61,0-.78,0-4.24,0-4.95v-2.81h-.45a14.33,14.33,0,0,0-2.61.21l-.42-.91c1.31.11,2.64.15,3.48.15,0-1.14,0-2.28,0-3.42a13.13,13.13,0,0,0-.28-3.37l2.23.77c.11.05.31.14.31.34s-.44.62-.75.83c-.05,1.59-.05,2.37-.07,4.85h.53l.67-.75c.2-.23.26-.29.37-.29s.27.16.38.25l.77.75c.11.11.2.2.2.34S322.7,380.35,322.57,380.35ZM332.46,392c-.51.09-4.42.09-5,.09-3.63,0-4.27-.18-4.27-2.67,0-.89.06-4.81.06-5.61,0-.23,0-1.25,0-1.46a11.89,11.89,0,0,0-2.15,1.21l-.75-.64c1.2-.41,2.57-1,2.9-1.18v-4a11.89,11.89,0,0,0-.24-2.65l2.05.73c.16.05.34.14.34.32s-.18.37-.71.75c0,.69-.05,3.65-.05,4.25L327,380c0-2.28,0-3.9-.05-5.5a16.6,16.6,0,0,0-.26-2l2.12.73c.22.07.38.19.38.35s-.31.48-.78.84c0,2.05,0,2.35,0,4.95l2.14-1,.53-.91c.12-.18.23-.39.38-.39a.75.75,0,0,1,.42.18l1,.66a.48.48,0,0,1,.22.37c0,.27-.24.5-.55.8,0,6.84,0,8.42-2.63,9.12a2.86,2.86,0,0,0-1.33-1.91v-.12a4.29,4.29,0,0,0,.69.05c1.54,0,1.79-.21,1.79-5,0-1.55,0-1.8-.05-2.46L328.39,380c0,3.35,0,5.54.07,6.16,0,.29.06,1.64.06,1.91a1.05,1.05,0,0,1-1.13,1.14c-.31,0-.53-.11-.53-.59,0-.25.07-1.41.07-1.64,0-1.46,0-2.33.07-6.34l-2.42,1.11c0,.92,0,7.92,0,8.19a.74.74,0,0,0,.53.64c.29.09,3.45.09,3.87.09,2.28,0,3,0,3.43-.84a20.55,20.55,0,0,0,1-2.76h.16a8.12,8.12,0,0,0,.42,2.71c.13.23.51.44.51.67S334.12,391.74,332.46,392Z"/><path d="M358.92,392.26c-8-.11-11.48-.16-14.47-3.15a10.4,10.4,0,0,1-4.51,3.95l-.14-.14a14.28,14.28,0,0,0,3.83-4.74,11.16,11.16,0,0,1-2.06-4.41l.22-.18a10.1,10.1,0,0,0,2.24,3.74,16.16,16.16,0,0,0,1.24-6.2h-1.86c-.44,1.28-.55,1.62-1.28,1.62-.16,0-.8,0-.8-.53a15.62,15.62,0,0,1,.53-1.62c1.15-3.05,2.06-5.54,2.32-6.54h-.79a14.5,14.5,0,0,0-2.61.2l-.42-.91c1.12.09,2.25.16,3.38.16h.4l.57-.48c.2-.16.31-.23.42-.23a.73.73,0,0,1,.38.23l.86.75a.5.5,0,0,1,.23.41c0,.28-.45.48-1,.73-.49,1.28-.78,2.06-2,5.66h1.5l.6-.48a.8.8,0,0,1,.42-.23c.15,0,.26.09.42.25l.68.73a.79.79,0,0,1,.27.48c0,.21-.22.35-.69.64a16,16,0,0,1-1.81,6.28c2.12,1.75,5,2.25,7.7,2.25a48.83,48.83,0,0,0,7.79-.66l0,.18A2.82,2.82,0,0,0,358.92,392.26Zm1.3-14.21h-3.05c.09,2.71.09,2.71.09,2.87,0,.46,0,1.17-1.06,1.17-.6,0-.58-.37-.56-.76h-2.72v2.38h3.32l.66-.87c.16-.18.25-.3.38-.3s.25.12.42.25l1,.87a.67.67,0,0,1,.22.34c0,.21-.16.25-.33.25h-5.67l0,2.42h3.94l.84-1c.18-.21.27-.3.38-.3s.24.09.4.25l1,1a.55.55,0,0,1,.22.38c0,.14-.13.21-.33.21h-6.49c0,.27.05,1.62,0,1.91a1,1,0,0,1-1,.83c-.71,0-.71-.41-.71-.67s.11-1.73.11-2.07h-1.5a15.84,15.84,0,0,0-2.59.2l-.44-.89c1.72.14,3.36.14,3.41.14h1.15c0-.61,0-1.19,0-2.42h-.66a14.9,14.9,0,0,0-2.59.21l-.44-.89c.66,0,1.9.14,3.71.14v-2.38H351a15.29,15.29,0,0,0-2.61.21l-.44-.89c1.59.11,3.27.14,3.49.14l0-2.74h-2.05a14.75,14.75,0,0,0-2.59.2l-.44-.91a31.74,31.74,0,0,0,3.38.16h1.7l0-2.67h-.53a16.23,16.23,0,0,0-2.61.21l-.42-.92c1.55.14,3,.16,3.54.16a4.16,4.16,0,0,0-.33-2.12l2.12.53c.25.07.38.16.38.36s-.27.41-.62.62v.61h2.57l.55-.5c.15-.13.26-.23.4-.23s.24.12.39.26l.63.61a.7.7,0,0,1,.26.43c0,.19-.18.32-.62.64a14,14,0,0,0,0,2h.8l.64-.84c.13-.19.24-.28.35-.28a.66.66,0,0,1,.42.23l.95.85c.11.11.23.22.23.34S360.44,378.05,360.22,378.05Zm-4.53,0h-2.75l0,2.74h2.77Zm0-3.22H353l-.05,2.67h2.75Z"/><path d="M371.79,384.53c0,2.76,0,3.24,0,4.56,0,.8.08,2.08.08,2.87a1.09,1.09,0,0,1-1.15,1.05c-.48,0-.59-.29-.59-.64,0-.09,0-.93,0-1.09.09-1.71.09-2.33.13-6a20.65,20.65,0,0,1-2.72,1.3c0,.41-.06.8-.42.8s-.37-.25-.44-.39l-1-2.05c1.37.07,1.75.05,4.65-.87,0-2,0-4.26,0-6h-2a18.1,18.1,0,0,1-2,5.05l-.13-.05a37.81,37.81,0,0,0,1-7.92,4.19,4.19,0,0,0-.22-1.55l2.12.53c.18,0,.38.09.38.34s-.31.46-.67.59a22.15,22.15,0,0,1-.37,2.47h1.83c0-3.22-.11-4.16-.59-5.3l2.43.73c.13,0,.33.16.33.32s-.37.48-.71.66c0,.48,0,2.9,0,3.59h.44l.62-.87c.11-.14.22-.3.34-.3s.28.14.39.25l.89.87a.55.55,0,0,1,.2.34c0,.21-.2.25-.33.25h-2.55c0,1.46,0,4,0,5.48.44-.16,2.5-.89,2.9-1.05l.07.16A27,27,0,0,1,371.79,384.53Zm13.06-6.19c-.18,4.77-.36,9.11-1.75,12.07a4.26,4.26,0,0,1-3.43,2.31c-.16-1-.51-1.67-1.88-2.7l.06-.16a9.23,9.23,0,0,0,2.68.48c.53,0,.89,0,1.51-1.62a36.1,36.1,0,0,0,1.23-11H382c-.64,5.16-2.76,11.8-9.16,14.28l-.06-.16c4.69-3.62,6.68-7.48,7.61-14.12h-1.24c-.91,4.82-3.41,9-6.62,10.52l-.06-.14a19.61,19.61,0,0,0,5.06-10.38h-1.1a14.33,14.33,0,0,1-3,4.54l-.11-.11a26,26,0,0,0,2.85-9.31,2.63,2.63,0,0,0-.11-.77l2.22.91c.22.09.33.23.33.36,0,.3-.42.41-.78.51-.57,1.82-1,2.76-1.17,3.33h6.37l.53-.57c.14-.16.25-.26.34-.26a1,1,0,0,1,.39.21l1,.8c.16.11.25.18.25.32C385.6,378,385.09,378.23,384.85,378.34Z"/><path d="M410.37,392.05a11.76,11.76,0,0,1-4.62-4.56,11.68,11.68,0,0,1-5.16,4c0,.82,0,1.64-1.12,1.64-.69,0-.69-.43-.69-.86s.11-2.24.13-2.67,0-2.74,0-3.27a44.07,44.07,0,0,1-5.78,2.45c-.18.57-.31.75-.53.75s-.31-.16-.4-.39l-.84-2.24a4.64,4.64,0,0,0,1,.14,15.65,15.65,0,0,0,1.74-.2V374.26a13.21,13.21,0,0,0-2,.21l-.44-.92c1.74.16,3.38.16,3.4.16h5.84l1-1.07c.17-.2.26-.27.37-.27s.25.07.44.25l1.11,1.05a.6.6,0,0,1,.2.36c0,.19-.13.23-.33.23h-3.17c0,8.65-.06,9.61.11,17A13.91,13.91,0,0,0,405,386.1a25.18,25.18,0,0,1-2.08-9.88,5.13,5.13,0,0,0-1.13.16l-.44-.91c1.72.14,3.36.14,3.38.14h3.06l.62-.73c.2-.23.26-.3.37-.3s.25.07.47.25l1,.8a.8.8,0,0,1,.32.41.37.37,0,0,1-.2.39,6.16,6.16,0,0,1-1,.64,28.24,28.24,0,0,1-2.88,9.21,11.24,11.24,0,0,0,5.8,4.11v.11A3.28,3.28,0,0,0,410.37,392.05Zm-11.43-17.79h-3.28v3.65h3.28Zm0,4.2h-3.28v3.69h3.28Zm0,4.24h-3.28v3.93c1.15-.23,2.79-.53,3.28-.67Zm5.46-6.55-1,.05a27.72,27.72,0,0,0,2.28,8.62,24.38,24.38,0,0,0,2.15-8.67Z"/><path d="M421,378.41h3.89v-4.17H420.5a15.91,15.91,0,0,0-2.61.2l-.42-.89c1.46.12,3,.14,3.39.14h3.87l.51-.57c.11-.11.2-.25.35-.25a.87.87,0,0,1,.33.14l.87.57c.11.07.33.18.33.43s-.22.41-.78.8c0,.68.09,3.72.09,4.31a.93.93,0,0,1-.2.64,1.17,1.17,0,0,1-.9.36c-.49,0-.62-.22-.51-1.16h-4.23c-.09.53-.6,3.67-.62,3.79h4.52l.62-.71a.48.48,0,0,1,.37-.25.77.77,0,0,1,.36.16l.9.68a.55.55,0,0,1,.25.41c0,.28-.31.48-.67.67-.24,3-1.08,6-2.28,7.46a4.82,4.82,0,0,1-3.49,1.48,4.53,4.53,0,0,0-1.71-2.58v-.14a13,13,0,0,0,3,.48c.47,0,1,0,1.53-1a14.88,14.88,0,0,0,1.39-6.1h-4.84a7.2,7.2,0,0,1-.27,1.69,1.29,1.29,0,0,1-1.11.64.52.52,0,0,1-.59-.52c0-.21.62-2.85.7-3.33a18.63,18.63,0,0,0,.4-4.36Zm13.91-5.22c.2,0,.4.07.4.32s-.2.45-.75.77c0,.44,0,6,0,10.36,0,1.1.18,6,.18,7a1.08,1.08,0,0,1-.29.89,1.85,1.85,0,0,1-1,.37c-.5,0-.59-.41-.59-.76,0-.13,0-.27,0-.57.11-1.84.11-4.22.11-5.15,0-8.51,0-10.7-.09-11.48a12,12,0,0,0-.4-2.28Z"/><path d="M462,377.36h-6.9l1.15.71c.09.07.22.21.22.32,0,.27-.42.32-.82.34a23.43,23.43,0,0,1-1.95,1.85h3.79l.86-1c.11-.14.24-.28.35-.28a.78.78,0,0,1,.4.23l1,1c.11.12.2.21.2.35s-.18.25-.33.25h-7.06c0,.27,0,1.53,0,1.78H456l.78-.82c.13-.14.26-.28.37-.28s.22.12.42.25l1.09.78a.5.5,0,0,1,.24.36c0,.21-.18.25-.33.25h-5.69v2h5.69l1-1.16c.16-.19.23-.28.36-.28s.29.14.4.23l1.21,1.16c.11.12.22.21.22.37s-.19.23-.35.23h-8.07a13.12,13.12,0,0,0,8.62,4.4l0,.14a3.79,3.79,0,0,0-2,1.84,14.11,14.11,0,0,1-7-6.38h-.07c0,2.07,0,2.48,0,2.92s.13,2.78.13,3.26a1,1,0,0,1-1.13.93c-.6,0-.64-.36-.64-.7,0-.5.07-1.35.09-1.87,0-.76,0-1.1.06-4.27a16.4,16.4,0,0,1-8.78,6.16l0-.14a20.5,20.5,0,0,0,7.08-6.29h-3.92a15.65,15.65,0,0,0-2.61.2l-.44-.91c1.48.14,3,.16,3.4.16h5.31v-2H447.6a15.54,15.54,0,0,0-2.61.21l-.44-.91c1.53.13,3.12.16,3.41.16h3.51v-1.78h-4.64a15.58,15.58,0,0,0-2.59.2l-.44-.91c1.48.14,3,.16,3.4.16h6a11.52,11.52,0,0,0,1.11-3.22H448c1.29.44,2.46,1.12,2.46,2.22a.88.88,0,0,1-.88.91c-.51,0-.58-.14-1.11-1.51a5.68,5.68,0,0,0-.91-1.62h-2.3a13,13,0,0,0-2.61.21l-.42-.91c1.51.13,3.08.16,3.38.16h4.17c-.07-3.29-.07-3.54-.38-4.7l2.14.64c.2.06.31.13.31.34s-.24.39-.66.55v3.17h1.64c0-2.9,0-3.56-.47-4.7l2.26.61c.13,0,.38.12.38.35s-.53.52-.73.59v3.15h.95a17,17,0,0,0,1.15-3.2,4.64,4.64,0,0,0,.11-1.09l2,1c.13.07.26.16.26.32,0,.35-.53.41-.77.44-.69.75-1.86,2.05-2.3,2.51h3.47l1-1c.18-.18.27-.3.36-.3a.87.87,0,0,1,.44.25l1.15,1c.13.11.24.2.24.36S462.09,377.36,462,377.36Zm-14.38-1.05c-.53,0-.69-.36-1.11-1.39a5,5,0,0,0-1.28-1.8l.09-.16c.88.23,3.1.85,3.1,2.44A.84.84,0,0,1,447.58,376.31Z"/><path d="M474.75,378.14h-3.12c-.05,5-.05,6.09-.05,7.48,0,1,.07,5.45.07,6.37,0,.41,0,1.11-1.09,1.11a.58.58,0,0,1-.64-.63c0-.35.14-1.92.16-2.26.06-1.65.06-2.35.09-6.71,0-3.22,0-3.4,0-5.36a16.36,16.36,0,0,0-2.52.2l-.44-.88c.61,0,1.39.11,3,.13,0-3.37,0-4.54-.51-5.5l2.44.71a.36.36,0,0,1,.28.32c0,.23-.06.27-.77.69,0,.61,0,3.26,0,3.78h1l.66-.73c.11-.13.24-.29.35-.29a.76.76,0,0,1,.4.25l.8.75c.11.11.2.2.2.34S474.9,378.14,474.75,378.14Zm5.11,7c-.58,6.39-1.24,7.3-3.59,7.55a2.72,2.72,0,0,0-1.17-2.25l.07-.19a5.22,5.22,0,0,0,1.77.39c.57,0,.7-.14,1.06-1.92a23,23,0,0,0,.48-4.22h-1.61c-.42,2.74-1.55,6.32-4.78,8l-.09-.12a11.9,11.9,0,0,0,3.45-7.82,12.61,12.61,0,0,0-2.21.2l-.44-.91c.82.07,1.46.11,2.7.14a8.77,8.77,0,0,0-.14-2.76l2,.73a.36.36,0,0,1,.29.32c0,.18-.49.5-.6.57,0,.43,0,.61-.11,1.14h1.33l.53-.57c.15-.16.22-.23.31-.23s.2.11.28.2l.91.82a.5.5,0,0,1,.18.32C480.5,384.66,480.43,384.71,479.86,385.14Zm5.11-9.26c-1,4.61-2.5,4.77-3.83,4.93a3.23,3.23,0,0,0-1.39-2.42l.08-.14a6.27,6.27,0,0,0,2,.55c1.12,0,1.63-2.62,1.88-3.88h-3.26c-.95,2.85-2.34,5.2-6.12,6.39l0-.14a10.6,10.6,0,0,0,4.67-6.25h-1.15a13,13,0,0,0-2.61.21l-.44-.91c1.52.13,3.1.16,3.41.16h.92a9.86,9.86,0,0,0,.16-1.6,2,2,0,0,0-.16-.89l2.26.71a.24.24,0,0,1,.2.22c0,.14-.35.37-.71.6-.13.54-.17.7-.24,1h2.85l.36-.46a.51.51,0,0,1,.37-.21.43.43,0,0,1,.31.14l1.18,1a.4.4,0,0,1,.17.3C485.85,375.4,485.3,375.7,485,375.88Zm2.36,8.87c-.19.12-.3.21-.46.32,0,2.4-.33,5.48-1,6.62-.13.23-.71,1.16-2.65,1.35a3.88,3.88,0,0,0-1.26-2.24l.06-.18a5.83,5.83,0,0,0,1.88.39c.89,0,.95-.42,1.22-1.92a29.17,29.17,0,0,0,.33-4.52h-1.64c-.57,3.31-1.41,6.28-5.15,8.19l-.07-.11a12.87,12.87,0,0,0,3.85-8,5.65,5.65,0,0,0-1,.14l-.45-.91c.76.06,1.09.09,1.55.11,0-.23.07-.8.07-1.67a5.2,5.2,0,0,0-.18-1.71l2.1.78a.43.43,0,0,1,.29.34c0,.25-.57.55-.68.62a16.1,16.1,0,0,1-.23,1.66,3.7,3.7,0,0,0,.49,0h.86l.56-.66c.08-.11.19-.22.26-.22a.6.6,0,0,1,.33.15l1.07.83a.51.51,0,0,1,.2.29C487.65,384.57,487.49,384.66,487.33,384.75Z"/><path d="M511.76,381.77a17.38,17.38,0,0,1-8.08-8.22l-.09,0a24.91,24.91,0,0,1-10.13,9.14l-.07-.13a30.63,30.63,0,0,0,8.15-9.1,4.19,4.19,0,0,0,.66-1.56l2.23.73c.11,0,.36.16.36.39s-.22.32-.69.44a14.68,14.68,0,0,0,9.78,6.38V380A4.42,4.42,0,0,0,511.76,381.77Zm.17,3.19h-8.87a34.29,34.29,0,0,1-3.65,5.22c2.72-.18,6.15-.52,8.65-.84a12.93,12.93,0,0,0-2.43-3.15l.13-.13c3,1.41,5.44,3.71,5.44,5.63,0,.36-.24,1.12-1,1.12s-1-.62-1.3-1.42a9.85,9.85,0,0,0-.67-1.66c-1.79.57-9.93,2.35-11.19,2.55-.14.3-.2.5-.4.5s-.29-.22-.36-.41l-.93-2.3a9.06,9.06,0,0,0,2,.21c.47,0,.91,0,1.6-.07a32.8,32.8,0,0,0,1.81-5.25h-3.12a14.61,14.61,0,0,0-2.59.21l-.44-.89c1.75.13,3,.13,3.39.13h10.62l1.12-1.25c.16-.18.27-.28.38-.28s.24.12.4.23l1.52,1.26c.09.07.23.2.23.34S512,385,511.93,385ZM507.09,381H501.4a15.69,15.69,0,0,0-2.61.21l-.44-.91c1.53.13,3.12.16,3.41.16h2.47l1-1.14c.11-.12.22-.28.35-.28a.92.92,0,0,1,.4.23l1.22,1.14a.54.54,0,0,1,.22.37C507.42,381,507.22,381,507.09,381Z"/><path d="M537.42,381.77a17.38,17.38,0,0,1-8.08-8.22l-.09,0a24.91,24.91,0,0,1-10.13,9.14l-.07-.13a30.63,30.63,0,0,0,8.15-9.1,4,4,0,0,0,.66-1.56l2.23.73c.12,0,.36.16.36.39s-.22.32-.69.44a14.68,14.68,0,0,0,9.78,6.38V380A4.42,4.42,0,0,0,537.42,381.77Zm.18,3.19h-8.88a34.29,34.29,0,0,1-3.65,5.22c2.72-.18,6.15-.52,8.65-.84a12.93,12.93,0,0,0-2.43-3.15l.13-.13c3,1.41,5.44,3.71,5.44,5.63,0,.36-.24,1.12-1,1.12s-1-.62-1.3-1.42a9.85,9.85,0,0,0-.67-1.66c-1.79.57-9.93,2.35-11.19,2.55-.14.3-.2.5-.4.5s-.29-.22-.35-.41l-.93-2.3a8.87,8.87,0,0,0,2,.21c.47,0,.91,0,1.6-.07a32.8,32.8,0,0,0,1.81-5.25H523.3a14.61,14.61,0,0,0-2.59.21l-.44-.89c1.75.13,3,.13,3.39.13h10.62l1.12-1.25c.16-.18.27-.28.38-.28s.24.12.4.23l1.53,1.26c.08.07.22.2.22.34S537.71,385,537.6,385ZM532.75,381h-5.69a15.69,15.69,0,0,0-2.61.21l-.44-.91c1.53.13,3.12.16,3.41.16h2.48l1-1.14c.11-.12.22-.28.36-.28s.28.14.39.23l1.22,1.14a.54.54,0,0,1,.22.37C533.08,381,532.88,381,532.75,381Z"/><path d="M544.74,392.92A22.74,22.74,0,0,0,549.8,390a4.19,4.19,0,0,0,1.46-1.6l1.91,1.24a.52.52,0,0,1,.24.36c0,.34-.55.37-1.26.39a17.69,17.69,0,0,1-7.39,2.69Zm14.82-13.73.55-.57c.09-.09.23-.28.36-.28s.18.07.33.19l1,.75a.59.59,0,0,1,.29.43c0,.21-.31.44-.82.73,0,1,.13,7,.13,7.58a1.08,1.08,0,0,1-1.06,1.11c-.62,0-.6-.54-.57-.88h-10c0,.54-.09,1.2-1.06,1.2a.59.59,0,0,1-.65-.68c0-.32.09-1.1.09-1.28,0-.64.09-3.12.09-5.59a12.61,12.61,0,0,0-.24-3.49l2.06.78Zm-.55-5.73.64-.66c.11-.11.22-.25.31-.25a.52.52,0,0,1,.31.16l1,.75a.47.47,0,0,1,.2.35c0,.2-.22.41-.73.75,0,.41,0,2.28,0,2.64a.9.9,0,0,1-.93.94c-.7,0-.68-.5-.64-.91h-8.8c0,.34,0,1-1,1-.64,0-.64-.41-.64-.69,0-.09.09-2.19.09-2.6a10.54,10.54,0,0,0-.2-2.71l2.06,1.18Zm-9.25,6.28v2.16h10v-2.16Zm0,2.71v2.15h10v-2.15Zm0,2.69v2.56h10v-2.56Zm.6-11.13v2.67h8.8V374Zm6.08,14.78c2.88.19,6.44,1.65,6.44,3.38a.84.84,0,0,1-.89.91c-.55,0-.84-.3-1.46-1a14.09,14.09,0,0,0-4.11-3.24Z"/><path d="M140.22,428.82a14.25,14.25,0,0,1,0-22.08l.2.32a15.78,15.78,0,0,0,0,21.44Z"/><path d="M162.26,417.23l1.17-1.37c.13-.16.2-.27.35-.27s.25.13.38.25l1.59,1.48c.11.11.22.21.22.34s-.2.25-.33.25H149.71a15.17,15.17,0,0,0-2.61.21l-.42-1.05c1.66.16,3.25.16,3.39.16Z"/><path d="M180,420c-.51,0-.76-.43-.93-.77a14.32,14.32,0,0,0-1.82-2.92c0,6,0,6.7,0,8.37,0,.34.08,1.87.08,2.17a1,1,0,0,1-1.08,1,.61.61,0,0,1-.69-.7c0-.26.09-1.35.09-1.58.07-1.76,0-2.21.11-7.8a16.82,16.82,0,0,1-4.38,3.35l-.09-.16a34.05,34.05,0,0,0,6.68-8.64h-3.09a15.36,15.36,0,0,0-2.61.2l-.42-.89c1.5.12,3.07.14,3.38.14h.58a12.12,12.12,0,0,0-.58-4.47l2.55.75a.39.39,0,0,1,.26.3c0,.27-.26.45-.71.68a26.64,26.64,0,0,0,0,2.74h.8l.55-.59c.16-.16.27-.23.4-.23s.22.09.36.2l1,.92a.4.4,0,0,1,.16.32c0,.34-.36.43-1.07.52a31.58,31.58,0,0,1-2.21,3.13,8.42,8.42,0,0,1,2.35,1.25,2.23,2.23,0,0,1,1.1,1.73C180.79,419.4,180.59,420,180,420Zm11.61,6.5h-9.36a15,15,0,0,0-2.61.21l-.44-.91c1.55.13,3.21.16,3.41.16h2.17c0-2.33,0-6,0-8.35,0-1.1,0-1.26,0-2h-1.3a15.78,15.78,0,0,0-2.61.2l-.45-.91c1.49.13,3,.16,3.41.16h.95c0-.39,0-1.9,0-2.28,0-3.68,0-4.16-.64-5.48l2.46.59c.33.07.53.23.53.44s-.42.55-.76.68c0,.57,0,5.09,0,6.05h2.24l.82-1.12c.13-.18.22-.27.35-.27s.24.09.42.25l1.22,1.09a.57.57,0,0,1,.22.37c0,.16-.18.23-.33.23H186.3v6.18l0,4.13h2.37l1-1.19c.16-.18.27-.25.38-.25a.57.57,0,0,1,.42.23l1.21,1.16a.55.55,0,0,1,.2.37C191.94,426.45,191.74,426.51,191.61,426.51Z"/><path d="M198.18,428.82l-.2-.32a15.78,15.78,0,0,0,0-21.44l.2-.32a14.25,14.25,0,0,1,0,22.08Z"/><path d="M231.21,425.94a8.37,8.37,0,0,1-3.76.6c-2.19,0-3.54-.09-3.54-2.58,0-1,.31-4.11.66-8,.07-.71.09-1,.18-2.08h-3.43c-.4,4.08-1.06,10.88-8.89,13.05l-.07-.14a12.74,12.74,0,0,0,5.66-5.61c.65-1.21,1.24-2.71,1.69-7.3h-3.48a14.67,14.67,0,0,0-2.61.21l-.42-.92c1.5.14,3.08.16,3.39.16h3.16c.07-.89.09-1.75.09-2.64a8.2,8.2,0,0,0-.33-3.06l2.36.5c.14,0,.51.12.51.37s-.53.57-.73.66c0,.66-.24,3.58-.29,4.17h3.1l1-.84a.92.92,0,0,1,.4-.23c.13,0,.27.14.4.27l.93.92a.65.65,0,0,1,.24.43c0,.18-.11.25-1.15.82-.44,2.92-.75,8.05-.75,9,0,1.14.49,1.25,1.64,1.25,2.69,0,2.72-.09,3.49-4.15h.16c0,.3.24,3,.62,3.47.06.07.31.32.35.38a.47.47,0,0,1,.13.32A1.52,1.52,0,0,1,231.21,425.94Z"/><path d="M243.35,408.2c.49.13.53.25.53.41s-.44.5-.64.61c0,3.42,0,6-.09,8-.08,1.85-.35,7.85-5.15,10.43l-.11-.14c3.12-3.22,3.87-6.34,3.87-14,0-4.13-.18-4.7-.66-5.91Zm-3.49,4.9a8.32,8.32,0,0,1,.51,2.83c0,2.53-1.26,2.71-1.64,2.71a.81.81,0,0,1-.84-.86c0-.35.15-.57.62-1.21a7.12,7.12,0,0,0,1.17-3.42Zm4.07.07c.6.3,2.74,1.44,2.74,3a.93.93,0,0,1-.88,1.05c-.69,0-.82-.59-1-1.23a10,10,0,0,0-.95-2.72Zm5.42-4.91c.49.12.51.21.51.35s-.07.25-.71.61v9.54c0,.91.13,5,.13,5.81a1.07,1.07,0,0,1-1.08,1.17.63.63,0,0,1-.67-.69c0-.18.07-1,.07-1.18.09-1.46.09-3.06.09-5.23,0-5.06,0-8.28-.13-9.58a4.63,4.63,0,0,0-.33-1.32Zm.86,5.48c1.09.46,3,1.73,3,3.19a.9.9,0,0,1-.91.94c-.73,0-.84-.55-1.17-1.78a6.12,6.12,0,0,0-1.06-2.24Zm5.58-5.66c.24.05.46.16.46.41s-.33.44-.68.62c0,4.38,0,7.85,0,9.69,0,1.24.16,7.19.16,7.8,0,1.35-1,1.35-1.11,1.35s-.69,0-.69-.82c0-.32.05-1.76.07-2.05,0-.87,0-1.78,0-3.49,0-7.19,0-9.58-.06-11.23a6.15,6.15,0,0,0-.56-2.78Z"/><path d="M282.71,410.18H274l.77.68a.63.63,0,0,1,.27.42c0,.25-.38.36-.93.38-.31.51-.73,1.24-1.61,2.56l1.26.41c.17.07.35.14.35.36s-.22.48-.75.78c0,1.23-.05,1.82-.05,4.11,0,3,0,4.6.07,5.72,0,.25.07,1.51.07,1.78a1.17,1.17,0,0,1-1.15,1.1c-.67,0-.69-.48-.69-.8,0-.07,0-.14,0-.62.11-2.26.18-5.75.18-8.21,0-1.8,0-2.37-.07-3.54-1.35,1.87-4.55,6.21-8.91,8.4l-.09-.14a57.44,57.44,0,0,0,7.81-9.35,13.48,13.48,0,0,0,2.08-4h-6.26a14.17,14.17,0,0,0-2.61.21l-.45-.92c1.13.09,2.28.16,3.41.16h12.83l1-1.21c.13-.16.24-.27.38-.27a1,1,0,0,1,.5.27l1.44,1.17a.5.5,0,0,1,.22.34C283.06,410.13,282.89,410.18,282.71,410.18ZM281.76,422c-.73,0-1-.43-1.86-2a15.18,15.18,0,0,0-4.65-5l.05-.13c3.36.73,7.32,4,7.32,6.06C282.62,421.77,282.13,422,281.76,422Z"/><path d="M300.61,412.6h-5.23v1.89h2l.53-.66c.11-.14.2-.23.31-.23a.58.58,0,0,1,.38.21l.81.75a.49.49,0,0,1,.2.39c0,.16-.11.32-.55.61,0,.67,0,3.56,0,4.13a1,1,0,0,1-1,1.21c-.29,0-.42-.23-.4-.59h-2.3v2.05H297l.6-.75c.13-.16.24-.27.38-.27s.24.09.44.25l.88.73a.48.48,0,0,1,.23.36c0,.14-.12.23-.36.23h-3.83V425c1.73-.3,3-.5,4.23-.8v.18a55.58,55.58,0,0,1-9.07,2.94c-.14.35-.27.55-.49.55s-.26-.09-.35-.27l-1-2a4.2,4.2,0,0,0,.86.07,38.67,38.67,0,0,0,4.47-.48v-2.3h-1.7a15.91,15.91,0,0,0-2.61.2l-.42-.91c1.5.14,3.07.16,3.38.16H294v-2.05h-2.28a.91.91,0,0,1-.17.75,1.51,1.51,0,0,1-.87.41c-.24,0-.42-.11-.42-.64,0-.89.07-4.74.07-5.52a12.87,12.87,0,0,0-.18-1.84l1.82,1h2V412.6h-2.17a15.15,15.15,0,0,0-2.59.2l-.44-.91c1.4.12,2.79.16,3.41.16H294v-1.78a27.23,27.23,0,0,1-3.65.3c-.49,0-.71,0-1,0v-.16c2.48-.55,6.33-1.49,8.23-2.76l1.37,1.25a.48.48,0,0,1,.18.34c0,.21-.2.28-.53.28a1.81,1.81,0,0,1-.47-.1,18.83,18.83,0,0,1-2.72.64v2H298l.75-1c.15-.18.24-.27.38-.27a.75.75,0,0,1,.42.22l1.13,1a.52.52,0,0,1,.22.34C300.94,412.53,300.8,412.6,300.61,412.6ZM294,415h-2.3v2H294Zm0,2.58h-2.3v2.14H294Zm3.7-2.58h-2.33v2h2.33Zm0,2.58h-2.33v2.14h2.33Zm10.22-3c0,7.64-.4,9.51-.89,10.88a3.69,3.69,0,0,1-3.23,2.69c-.2-1.25-1.3-2-2.39-2.55l.07-.16a12.74,12.74,0,0,0,2.7.34c.53,0,1.06,0,1.53-1.28a46.14,46.14,0,0,0,.79-8.05,17.15,17.15,0,0,0-.13-2.39H304.1c0,3.69-.35,11.36-6.75,14.25l-.11-.13c5.05-4,5.22-10,5.31-14.12a15,15,0,0,0-2.54.2l-.44-.91c.86.07,1.46.11,3,.16a23.06,23.06,0,0,0-.42-6.23l2.3.8c.25.09.38.21.38.37a.43.43,0,0,1-.16.31,4.74,4.74,0,0,1-.55.42v4.33H306l.76-.78c.17-.18.28-.25.39-.25s.22.05.45.23l.86.71a.51.51,0,0,1,.22.39C308.68,414.1,308.35,414.38,307.93,414.65Z"/><path d="M333.74,415.7H318.68c.2,7-.71,10-3.74,12.5l-.11-.09a15.93,15.93,0,0,0,2.34-9,22.7,22.7,0,0,0-.48-5l2.19,1H326a26.82,26.82,0,0,0,1.68-4.44h-8.94a15.36,15.36,0,0,0-2.61.2l-.42-.91c1.4.11,2.77.16,3.39.16h4.64a12.13,12.13,0,0,0-.35-2.74l2.3.57c.16.05.31.09.31.32s-.53.52-.77.66v1.19h4.66l1-1.1c.17-.2.24-.29.35-.29s.18,0,.4.22l1.41,1.12a.5.5,0,0,1,.22.34c0,.23-.17.26-.33.26h-4.47l1.35.77a.27.27,0,0,1,.18.25c0,.32-.33.39-.91.53a31.4,31.4,0,0,1-2.59,2.89h4.32l.82-1c.13-.19.22-.28.33-.28a.94.94,0,0,1,.44.23l1.46,1c.16.11.25.2.25.34S333.9,415.7,333.74,415.7Zm.18,11.52H321.24a15,15,0,0,0-2.61.21l-.42-.92c1.53.14,3.21.16,3.39.16h3.09v-3.26h-1.46a14.18,14.18,0,0,0-2.58.21l-.45-.92c1.51.14,3.12.16,3.41.16h1.08v-2.8h-3a13.65,13.65,0,0,1-2.88,3.63l-.11-.07a29.87,29.87,0,0,0,2.85-7.28l1.95.87c.2.09.22.18.22.25s-.09.25-.77.59c-.18.23-.62,1-.91,1.46h2.65a16,16,0,0,0-.24-3.47l2.15.41c.11,0,.29.07.29.28s-.36.43-.71.66c0,.32,0,1.8,0,2.12h3.26l.77-1.09c.14-.19.25-.3.36-.3s.19.09.39.25l1.29,1.09a.48.48,0,0,1,.22.35c0,.2-.2.25-.36.25h-5.93v2.8h2.64l.66-.84c.18-.21.22-.27.36-.27s.17.06.39.22l1.22.87c.18.14.22.23.22.32s-.2.25-.33.25h-5.16v3.26h4.78l1-.95c.13-.12.29-.26.38-.26s.17.07.39.23l1.33.94a.48.48,0,0,1,.22.34C334.25,427.18,334.08,427.22,333.92,427.22Zm-12.39-12.41c-.53,0-.57-.16-1.06-1.48a6.11,6.11,0,0,0-1.28-2.19l0-.12c.91.32,3.21,1.15,3.21,2.72A1,1,0,0,1,321.53,414.81Z"/><path d="M348.28,410.68c-2.15,3.38-3.83,5.91-8.06,8.44l-.11-.16c3.56-3.53,6.71-8.21,6.53-10.54l2.26,1.4a.47.47,0,0,1,.26.38C349.16,410.43,349,410.55,348.28,410.68Zm9.13,16.54c-.53,0-.9-.36-1.17-1l-.93-2.17a103.06,103.06,0,0,1-11,2.78c-.37.5-.49.62-.68.62s-.31-.23-.36-.37l-.73-2.37a9.31,9.31,0,0,0,1.82.21c.17,0,1.46-.12,1.72-.14a44.17,44.17,0,0,0,3-8.24,4.88,4.88,0,0,0,.06-1.32l2.3,1c.14.06.34.18.34.38s-.27.39-.76.55c-.24.41-.42.73-2,3.65-.67,1.16-1.4,2.4-2.37,3.9,2.55-.27,5.69-.66,8.52-1a12.66,12.66,0,0,0-2.61-3l.06-.16c2.59,1,5.87,3.27,5.87,5.5C358.39,427,357.68,427.22,357.41,427.22Zm1.42-8.83a12,12,0,0,1-4.16-3.74,11.64,11.64,0,0,1-2.17-5.45,16.87,16.87,0,0,0-2.9.25l-.46-.91c.57,0,1.7.11,2.85.11l.65-.77c.15-.19.24-.3.35-.3s.24.09.46.25l1,.73a.46.46,0,0,1,.22.34c0,.21-.16.3-.51.46-.51.2-.71.3-1,.41a9.39,9.39,0,0,0,7.9,6.52v.16A3.6,3.6,0,0,0,358.83,418.39Z"/><path d="M385.33,426.7H368.8a16,16,0,0,0-2.61.2l-.44-.89c1.75.14,3.36.14,3.41.14h.75v-6c0-1.24,0-4-.15-5.07a2.86,2.86,0,0,0-.23-.8l2.28.71c.18,0,.31.14.31.34s-.17.37-.66.66c0,1.44,0,8.58,0,10.18h3.92V409.72H370a13.77,13.77,0,0,0-2.61.21L367,409c1.08.09,2.32.16,3.41.16h11l1-1.21c.15-.18.24-.28.35-.28s.24.1.42.23l1.39,1.21c.11.12.22.21.22.34s-.19.25-.33.25H377v7.37h2.79l.89-1.12c.15-.2.26-.27.37-.27a.69.69,0,0,1,.42.23l1.2,1.12a.57.57,0,0,1,.2.36c0,.16-.14.23-.34.23H377v8.51h5.11l1.07-1.23c.17-.21.31-.32.42-.32a.94.94,0,0,1,.46.27l1.39,1.23c.11.12.2.21.2.35S385.46,426.7,385.33,426.7Z"/><path d="M410.17,427.24a11.76,11.76,0,0,1-4.62-4.56,11.67,11.67,0,0,1-5.15,4c0,.82,0,1.64-1.13,1.64-.69,0-.69-.43-.69-.87s.11-2.23.13-2.66,0-2.74,0-3.27A42.8,42.8,0,0,1,393,424c-.18.57-.31.76-.53.76s-.31-.16-.4-.39l-.84-2.24a4.64,4.64,0,0,0,1,.14,15.65,15.65,0,0,0,1.74-.2V409.45a13.39,13.39,0,0,0-2,.21l-.44-.92c1.74.16,3.38.16,3.4.16h5.84l1-1.07c.17-.2.26-.27.37-.27s.25.07.45.25l1.1,1.05a.6.6,0,0,1,.2.36c0,.18-.13.23-.33.23h-3.17c0,8.65-.06,9.6.12,17a13.89,13.89,0,0,0,4.42-5.16,25.18,25.18,0,0,1-2.08-9.88,5.13,5.13,0,0,0-1.13.16l-.44-.91c1.73.14,3.36.14,3.38.14h3.06l.62-.73c.2-.23.26-.3.37-.3s.25.07.47.25l1,.8a.82.82,0,0,1,.31.41.37.37,0,0,1-.2.39,6.94,6.94,0,0,1-1,.64,28.24,28.24,0,0,1-2.88,9.21,11.29,11.29,0,0,0,5.8,4.11v.11A3.31,3.31,0,0,0,410.17,427.24Zm-11.43-17.79h-3.28v3.65h3.28Zm0,4.2h-3.28v3.69h3.28Zm0,4.24h-3.28v3.92c1.15-.22,2.79-.52,3.28-.66Zm5.46-6.55-1,.05a27.72,27.72,0,0,0,2.28,8.62,24.38,24.38,0,0,0,2.15-8.67Z"/><path d="M420.75,413.6h3.89v-4.17H420.3a16,16,0,0,0-2.61.2l-.42-.89c1.46.12,3,.14,3.39.14h3.87l.51-.57c.11-.11.2-.25.35-.25a.87.87,0,0,1,.33.14l.87.57a.52.52,0,0,1,.33.43c0,.2-.22.41-.77.8,0,.68.08,3.72.08,4.31a.93.93,0,0,1-.2.64,1.15,1.15,0,0,1-.9.36c-.49,0-.62-.23-.51-1.16h-4.23c-.09.52-.59,3.67-.62,3.79h4.52l.62-.71a.5.5,0,0,1,.37-.25.73.73,0,0,1,.36.16l.9.68a.55.55,0,0,1,.25.41c0,.28-.31.48-.67.66-.24,3-1.08,6.05-2.28,7.46a4.83,4.83,0,0,1-3.49,1.49,4.48,4.48,0,0,0-1.71-2.58v-.14a13,13,0,0,0,3,.48c.47,0,1,0,1.53-1a14.77,14.77,0,0,0,1.39-6.09h-4.84a7.29,7.29,0,0,1-.27,1.69,1.28,1.28,0,0,1-1.11.64.52.52,0,0,1-.59-.52c0-.21.62-2.86.7-3.33a18.63,18.63,0,0,0,.4-4.36Zm13.91-5.22c.2,0,.4.07.4.32s-.2.45-.75.77c0,.44,0,6,0,10.36,0,1.09.18,6,.18,7a1.09,1.09,0,0,1-.29.89,1.83,1.83,0,0,1-1,.36c-.51,0-.6-.41-.6-.75,0-.13,0-.27,0-.57.11-1.85.11-4.22.11-5.15,0-8.51,0-10.7-.09-11.48a12.82,12.82,0,0,0-.39-2.28Z"/><path d="M448.89,413.33h-3.12c0,5,0,6.09,0,7.48,0,1,.07,5.45.07,6.37,0,.41,0,1.11-1.09,1.11a.58.58,0,0,1-.64-.64c0-.34.13-1.91.16-2.25.06-1.65.06-2.35.09-6.71,0-3.22,0-3.4,0-5.36a16.36,16.36,0,0,0-2.52.2l-.44-.89c.61.05,1.39.12,3,.14,0-3.38,0-4.54-.51-5.5l2.44.71a.36.36,0,0,1,.28.32c0,.23-.06.27-.77.68,0,.62,0,3.27,0,3.79h1l.66-.73c.11-.14.24-.3.35-.3a.79.79,0,0,1,.4.26l.8.75c.11.11.2.2.2.34S449,413.33,448.89,413.33Zm5.11,7c-.58,6.39-1.24,7.3-3.59,7.55-.22-1.28-.29-1.53-1.17-2.26l.07-.18a5.22,5.22,0,0,0,1.77.39c.57,0,.7-.14,1.06-1.92a23,23,0,0,0,.48-4.22H451c-.42,2.74-1.55,6.32-4.78,8l-.09-.11a11.92,11.92,0,0,0,3.45-7.82,11.72,11.72,0,0,0-2.21.2l-.44-.91c.82.07,1.46.11,2.7.14a8.77,8.77,0,0,0-.14-2.76l2,.73a.36.36,0,0,1,.29.31c0,.19-.49.51-.6.57,0,.44,0,.62-.11,1.15h1.33l.53-.57c.15-.16.22-.23.31-.23s.2.11.28.2l.91.82a.48.48,0,0,1,.18.32C454.64,419.85,454.57,419.9,454,420.33Zm5.11-9.26c-1,4.61-2.5,4.77-3.83,4.93a3.23,3.23,0,0,0-1.39-2.42l.08-.14a6.27,6.27,0,0,0,2,.55c1.12,0,1.63-2.62,1.88-3.88h-3.26c-.95,2.85-2.34,5.2-6.12,6.39l0-.14a10.63,10.63,0,0,0,4.67-6.25H452a13,13,0,0,0-2.61.21l-.44-.92c1.52.14,3.1.16,3.41.16h.92a9.74,9.74,0,0,0,.16-1.59,2,2,0,0,0-.16-.89l2.26.71a.24.24,0,0,1,.2.22c0,.14-.35.37-.71.6-.13.54-.17.7-.24.95h2.85l.36-.45a.51.51,0,0,1,.37-.21.43.43,0,0,1,.31.14l1.18,1a.4.4,0,0,1,.17.3C460,410.59,459.44,410.89,459.11,411.07Zm2.36,8.87c-.19.12-.31.21-.46.32,0,2.4-.33,5.48-1,6.62-.13.23-.71,1.16-2.65,1.34a3.85,3.85,0,0,0-1.26-2.23l.06-.18a6,6,0,0,0,1.88.38c.89,0,1-.41,1.22-1.91a29.17,29.17,0,0,0,.33-4.52h-1.64c-.57,3.31-1.41,6.27-5.15,8.19l-.07-.11a12.9,12.9,0,0,0,3.85-8,5.65,5.65,0,0,0-1,.14l-.45-.92c.76.07,1.09.1,1.55.12,0-.23.07-.8.07-1.67a5.2,5.2,0,0,0-.18-1.71l2.1.78a.43.43,0,0,1,.29.34c0,.25-.57.55-.69.62a14.18,14.18,0,0,1-.22,1.66,3.7,3.7,0,0,0,.49,0h.86l.56-.66c.08-.11.19-.23.26-.23a.63.63,0,0,1,.33.16l1.07.83a.5.5,0,0,1,.19.29C461.78,419.76,461.63,419.85,461.47,419.94Z"/><path d="M474.66,412.12h-3.94a13.28,13.28,0,0,0-2.59.2l-.44-.91c1.5.14,3.07.16,3.38.16h1.49l.55-.82c0-.07.2-.27.35-.27a.72.72,0,0,1,.4.23l.93.82a.48.48,0,0,1,.2.34C475,412.07,474.81,412.12,474.66,412.12Zm-.53,9.44a2.9,2.9,0,0,0-.05.48c0,.66.13,3.58.13,4.18a.91.91,0,0,1-.95.91c-.66,0-.62-.53-.57-1.05h-2.63a6.41,6.41,0,0,1-.05,1.35,1.09,1.09,0,0,1-1,.61.51.51,0,0,1-.58-.55c0-.06,0-.2,0-.43.09-.75.14-3.85.14-5.36a12.89,12.89,0,0,0-.09-2.08l1.7,1h2.35l.37-.6c.05-.07.2-.25.29-.25a1,1,0,0,1,.4.21l.88.66a.38.38,0,0,1,.18.27C474.7,421.15,474.55,421.22,474.13,421.56Zm-.14-12.2h-3.07a9.45,9.45,0,0,0-1.84.14l-.29-.8c1.18.09,2.24.11,2.28.11H472l.55-.66c.11-.14.22-.27.33-.27s.2.06.42.22l.84.67a.48.48,0,0,1,.22.34C474.32,409.31,474.15,409.36,474,409.36Zm-.11,5.61h-3a9.51,9.51,0,0,0-1.84.14l-.29-.8c1,.07,2,.11,2.42.11h.84l.46-.66c.05-.07.2-.29.35-.29a.75.75,0,0,1,.4.25l.76.66a.44.44,0,0,1,.19.34C474.21,415,474,415,473.88,415Zm.16,2.88H471a7.9,7.9,0,0,0-1.83.13l-.31-.8c1.17.09,2.28.12,2.39.12H472l.58-.76c.06-.09.17-.27.33-.27a.88.88,0,0,1,.42.23l.82.75c.13.12.22.21.22.34S474.24,417.85,474,417.85Zm-1.33,3.3H470v4.38h2.68Zm15-1h-5a11.71,11.71,0,0,0,.57,2.62,9.48,9.48,0,0,0,1.44-2.19l1.37,1.07c.11.09.2.12.2.28,0,.32-.33.32-.82.29-.95.91-1.26,1.23-1.7,1.62a4.16,4.16,0,0,0,2,2c.13,0,.31-.18.39-.29a15.64,15.64,0,0,0,1.31-2.19h.16a18.64,18.64,0,0,0-.4,2.92.88.88,0,0,0,.2.57.91.91,0,0,1,.26.52c0,.25-.22.53-.77.53-.84,0-2.86-1.12-4.1-3.24a11.73,11.73,0,0,1-3.69,1.91l0-.16a18.12,18.12,0,0,0,3.3-2.64,13.59,13.59,0,0,1-.84-3.65h-2.7v2c1.2-.35,1.66-.51,2.3-.71l.09.14a13.55,13.55,0,0,1-2.39,1.34c0,.62,0,2.92,0,3.26-.07,1.33-1,1.69-2,1.87-.38-1-.42-1.14-1.6-1.91v-.09a8.69,8.69,0,0,0,1.42.11c.55,0,.82,0,.89-.5s.06-1.71.06-2.14c-.29.13-1.5.68-1.75.82s-.31.52-.42.52-.22-.16-.26-.3l-.64-1.64a11.62,11.62,0,0,0,3.07-.45c0-.25,0-1.58,0-2.35a12.77,12.77,0,0,0-2.54.2l-.42-.91c1.06.09,1.74.11,3,.14V418a18.76,18.76,0,0,1-2.65.34l-.05-.16c3.19-1.16,3.74-1.55,4.32-2.12l1.06.93a.36.36,0,0,1,.13.25c0,.28-.35.23-.57.19a8.29,8.29,0,0,1-1,.32l0,1.8h2.63c-.06-.57-.28-3.08-.39-3.58l1.77.39c.28.06.31.13.31.25s-.18.29-.51.52a19.07,19.07,0,0,0,0,2.42h2.74l.69-1c.18-.25.27-.3.33-.3s.27.14.42.28l1,.95c.11.12.2.21.2.35S487.89,420.13,487.73,420.13Zm-.48-4.52H478a15.35,15.35,0,0,0-2.59.2l-.44-.88c1.75.13,3,.13,3.38.13H480v-1.78h-.51a15.11,15.11,0,0,0-2.61.21l-.44-.91c1.68.16,3.21.16,3.56.16V411h-1.66a13.54,13.54,0,0,0-2.59.2l-.44-.91c1.75.14,3,.16,3.39.16h2.65a9.24,9.24,0,0,0,.91-3.17l1.79,1c.11.07.29.16.29.34s-.29.27-.84.3a17.15,17.15,0,0,1-1.71,1.57h2.77l.64-.77c.13-.16.2-.28.33-.28s.27.12.42.25l.93.76a.46.46,0,0,1,.22.34c0,.23-.22.25-.33.25h-5.35v1.76h2.21l.53-.71c.13-.16.22-.3.36-.3a1.07,1.07,0,0,1,.39.25l.87.71c.08.07.22.18.22.34s-.22.25-.33.25h-4.25v1.78h3.49l.73-.84c.18-.21.2-.3.36-.3s.24.09.42.25l.93.87a.44.44,0,0,1,.22.34C487.58,415.61,487.36,415.61,487.25,415.61Zm-8.06-5.43c-.48,0-.62-.3-.86-.93a5.21,5.21,0,0,0-1-1.74l.09-.16c.55.12,2.59.55,2.59,2A.8.8,0,0,1,479.19,410.18Zm5.69,8.6c-.47,0-.6-.32-.71-.64a3.91,3.91,0,0,0-.75-1.32l0-.16c.56.07,2.08.25,2.08,1.37A.71.71,0,0,1,484.88,418.78Z"/><path d="M511.56,417a17.38,17.38,0,0,1-8.08-8.22l-.09,0a24.91,24.91,0,0,1-10.13,9.14l-.07-.13a30.55,30.55,0,0,0,8.15-9.11,4,4,0,0,0,.66-1.55l2.23.73c.12,0,.36.16.36.39s-.22.32-.69.43a14.66,14.66,0,0,0,9.78,6.39v.16A4.36,4.36,0,0,0,511.56,417Zm.17,3.19h-8.87a34.29,34.29,0,0,1-3.65,5.22c2.72-.18,6.15-.52,8.65-.84a12.93,12.93,0,0,0-2.43-3.15l.13-.14c3,1.42,5.44,3.72,5.44,5.64,0,.36-.24,1.12-1,1.12s-1-.62-1.3-1.42a9.85,9.85,0,0,0-.67-1.66c-1.79.57-9.93,2.35-11.19,2.55-.14.3-.2.5-.4.5s-.29-.22-.36-.41l-.92-2.3a9,9,0,0,0,2,.2c.47,0,.91,0,1.6-.06a32.8,32.8,0,0,0,1.81-5.25h-3.12a15.42,15.42,0,0,0-2.59.2l-.44-.89c1.75.14,3,.14,3.39.14h10.62l1.12-1.25c.16-.19.27-.28.38-.28s.24.12.4.23l1.53,1.26a.51.51,0,0,1,.22.34C512.07,420.15,511.85,420.15,511.73,420.15Zm-4.84-3.95H501.2a15.69,15.69,0,0,0-2.61.21l-.44-.91c1.53.13,3.12.16,3.41.16H504l1-1.15c.11-.11.22-.27.36-.27s.28.14.39.23l1.22,1.14c.11.11.22.2.22.36S507,416.2,506.89,416.2Z"/><path d="M529.59,413.33c-.07.07-.45.32-.58.43,0,1.12-.18,6.62-.29,7.85-.4,4.72-1.26,6.2-3.91,6.43,0-.68-.27-1.41-2.41-2.64l0-.19a11.17,11.17,0,0,0,2.63.48c.67,0,1.44,0,1.77-1.91a65.44,65.44,0,0,0,.6-10.59h-3.05c-.07,3.74-.2,11-5.71,14.87l-.13-.11a14.87,14.87,0,0,0,3.27-6.48,31.29,31.29,0,0,0,1-8.28h-1a14,14,0,0,0-2.61.21l-.44-.92c1.77.16,3.05.16,3.4.16h.65a19.9,19.9,0,0,0-.38-5.4l2.43.75c.16.05.4.18.4.41s0,.27-.79.75a7.34,7.34,0,0,0,0,.76c0,.38,0,2.3-.06,2.73h2.78l.82-.82c.09-.09.16-.18.27-.18a.66.66,0,0,1,.31.16l1,.87a.58.58,0,0,1,.19.38C529.78,413.17,529.67,413.26,529.59,413.33Zm8.78-.73c-.11.11-.38.32-.49.43,0,1.92,0,9.58,0,11.18,0,.36.14,2,.14,2.3a1.12,1.12,0,0,1-1.11,1.24c-.57,0-.64-.35-.64-.8a8.28,8.28,0,0,1,.07-1h-3.65c0,.85.11,2.17-1.18,2.17-.62,0-.62-.5-.62-.71s.05-.66.05-.75c.11-2.71.17-8.67.17-11.47a27.31,27.31,0,0,0-.28-4.82l2.12,1.26h3.12l.73-.66c.07-.07.13-.14.22-.14a.61.61,0,0,1,.36.23l1,.89a.64.64,0,0,1,.2.36C538.57,412.42,538.46,412.51,538.37,412.6Zm-2-.43h-3.67V425.4h3.67Z"/><path d="M558.85,421.15l.58-.57a1.2,1.2,0,0,1,.35-.23c.09,0,.14,0,.36.23l.93.8a.62.62,0,0,1,.22.37c0,.2-.07.25-.67.63,0,.3,0,.51,0,.85,0,.5.07,2.78.07,3.24h1.12l.78-1.07c.13-.21.22-.32.37-.32a.86.86,0,0,1,.42.25l1.18,1.09c.13.12.22.21.22.37s-.18.23-.33.23H547.79a15.49,15.49,0,0,0-2.61.2l-.44-.89c.44,0,1.44.12,3,.14,0-4.52,0-5.09-.24-6.37l2,1Zm-7.39-12.66.45-.48c.11-.11.2-.2.31-.2s.19.09.35.2l1,.73a.42.42,0,0,1,.22.35c0,.2-.28.41-.75.73,0,.47,0,1,0,1.5s.11,4.61.15,5a3.31,3.31,0,0,1,0,.41c0,.6-.58.94-1.2.94s-.46-.25-.44-1h-3.27c.06,1.12.13,2.24-1.09,2.24-.53,0-.53-.37-.53-.62s.11-1.91.11-4.95c0-4.22,0-4.36-.24-5.82l1.88,1Zm-3.2.55v3.24h3.27V409Zm0,3.79v3.3h3.27v-3.3Zm1.06,8.87v4.77h2.25V421.7Zm7.12-6.2c-.29,1.14-1.08,4.12-5.91,5l0-.16c3.7-1.59,4.87-4,4.87-8.8a15.45,15.45,0,0,0-.42-4.29l2,1.1h4l.47-.53c.13-.14.2-.23.28-.23s.09,0,.36.21l1.06.75c.11.09.2.16.2.3,0,.34-.58.68-.73.75,0,.87,0,2.76,0,4.06,0,.78.09,3.24.09,3.88s0,2.1-2.44,2.62a3,3,0,0,0-1.86-2.14l0-.16a11.66,11.66,0,0,0,1.44.07c1,0,1.06,0,1.19-.21s.11-.34.11-1.23v-1Zm-3.38,6.2v4.77h2.25V421.7Zm8.16-6.75v-2.78h-4.4a16.86,16.86,0,0,1-.27,2.78Zm-2.1,11.52V421.7H556.8v4.77Zm2.1-14.85V408.9h-4.4v2.72Z"/><path class="cls-1" d="M172.22,170.86c0,16.23-6.79,26.56-16.91,26.56-9.66,0-14.58-10.61-14.58-24.07,0-18.93,9.05-26.07,17.51-26.07C167.82,147.28,172.22,156.85,172.22,170.86Zm-16-20.11c-7.59,0-9.79,8-9.79,19.48,0,10.34,2.27,23.65,10.65,23.65s9.46-10.82,9.46-21.57C166.56,163,164.36,150.75,156.24,150.75Z"/><path class="cls-1" d="M215.69,170.86c0,16.23-6.79,26.56-16.91,26.56-9.65,0-14.58-10.61-14.58-24.07,0-18.93,9.06-26.07,17.51-26.07C211.3,147.28,215.69,156.85,215.69,170.86Zm-16-20.11c-7.59,0-9.78,8-9.78,19.48,0,10.34,2.26,23.65,10.65,23.65S210,183.06,210,172.31C210,163,207.84,150.75,199.71,150.75Z"/><path class="cls-1" d="M259.17,170.86c0,16.23-6.79,26.56-16.91,26.56-9.66,0-14.58-10.61-14.58-24.07,0-18.93,9-26.07,17.51-26.07C254.77,147.28,259.17,156.85,259.17,170.86Zm-16-20.11c-7.59,0-9.79,8-9.79,19.48,0,10.34,2.27,23.65,10.66,23.65s9.45-10.82,9.45-21.57C253.51,163,251.31,150.75,243.19,150.75Z"/><path class="cls-1" d="M272.15,176.61c1.4-.13,14.32-.41,16.31-.34,1.4.07,1.6.34,1.6,1a3.94,3.94,0,0,1-1.66,3c-1.54.69-14,.83-16.31.76-.47,0-1.14-.14-1.2-.9A5.26,5.26,0,0,1,272.15,176.61Z"/><path class="cls-1" d="M333.27,170.86c0,16.23-6.79,26.56-16.91,26.56-9.65,0-14.58-10.61-14.58-24.07,0-18.93,9.05-26.07,17.51-26.07C328.87,147.28,333.27,156.85,333.27,170.86Zm-16-20.11c-7.59,0-9.79,8-9.79,19.48,0,10.34,2.27,23.65,10.66,23.65s9.45-10.82,9.45-21.57C327.61,163,325.41,150.75,317.29,150.75Z"/><path class="cls-1" d="M376.74,170.86c0,16.23-6.79,26.56-16.91,26.56-9.65,0-14.58-10.61-14.58-24.07,0-18.93,9.06-26.07,17.51-26.07C372.35,147.28,376.74,156.85,376.74,170.86Zm-16-20.11c-7.59,0-9.79,8-9.79,19.48,0,10.34,2.26,23.65,10.65,23.65s9.46-10.82,9.46-21.57C371.09,163,368.89,150.75,360.77,150.75Z"/><path class="cls-1" d="M420.22,170.86c0,16.23-6.79,26.56-16.91,26.56-9.65,0-14.58-10.61-14.58-24.07,0-18.93,9-26.07,17.51-26.07C415.83,147.28,420.22,156.85,420.22,170.86Zm-16-20.11c-7.59,0-9.78,8-9.78,19.48,0,10.34,2.26,23.65,10.65,23.65s9.45-10.82,9.45-21.57C414.56,163,412.36,150.75,404.24,150.75Z"/><path class="cls-1" d="M433.2,176.61c1.4-.13,14.32-.41,16.32-.34,1.39.07,1.59.34,1.59,1a3.94,3.94,0,0,1-1.66,3c-1.53.69-14,.83-16.31.76-.47,0-1.13-.14-1.2-.9A5.26,5.26,0,0,1,433.2,176.61Z"/><path class="cls-1" d="M494.32,170.86c0,16.23-6.79,26.56-16.91,26.56-9.65,0-14.58-10.61-14.58-24.07,0-18.93,9.06-26.07,17.51-26.07C489.93,147.28,494.32,156.85,494.32,170.86Zm-16-20.11c-7.59,0-9.78,8-9.78,19.48,0,10.34,2.26,23.65,10.65,23.65s9.45-10.82,9.45-21.57C488.66,163,486.47,150.75,478.34,150.75Z"/><path class="cls-1" d="M537.8,170.86c0,16.23-6.79,26.56-16.91,26.56-9.66,0-14.58-10.61-14.58-24.07,0-18.93,9.05-26.07,17.51-26.07C533.4,147.28,537.8,156.85,537.8,170.86Zm-16-20.11c-7.59,0-9.79,8-9.79,19.48,0,10.34,2.27,23.65,10.65,23.65s9.46-10.82,9.46-21.57C532.14,163,529.94,150.75,521.82,150.75Z"/><path class="cls-1" d="M581.27,170.86c0,16.23-6.79,26.56-16.91,26.56-9.65,0-14.58-10.61-14.58-24.07,0-18.93,9.06-26.07,17.51-26.07C576.88,147.28,581.27,156.85,581.27,170.86Zm-16-20.11c-7.59,0-9.78,8-9.78,19.48,0,10.34,2.26,23.65,10.65,23.65s9.45-10.82,9.45-21.57C575.61,163,573.42,150.75,565.29,150.75Z"/><path class="cls-1" d="M624.75,170.86c0,16.23-6.79,26.56-16.91,26.56-9.66,0-14.58-10.61-14.58-24.07,0-18.93,9-26.07,17.51-26.07C620.35,147.28,624.75,156.85,624.75,170.86Zm-16-20.11c-7.59,0-9.79,8-9.79,19.48,0,10.34,2.27,23.65,10.66,23.65s9.45-10.82,9.45-21.57C619.09,163,616.89,150.75,608.77,150.75Z"/><path class="cls-2" d="M67.85,166.9a28,28,0,1,1,21.32,33.29A28,28,0,0,1,67.85,166.9Z"/><path class="cls-1" d="M89.86,165.68c2-1.18,3.58-2.25,4.14-2.57s.53-1.17.06-2l-4.37-7.33c-.61-1-1.28-2.07-2.23-1.51l-4.1,2.45c-2.45,1.45-5.69,9.64,2.81,23.9s17.24,15.32,19.69,13.86l4.09-2.44c1-.57.36-1.65-.25-2.68l-4.37-7.33c-.47-.79-1.2-1.21-1.76-.88s-2.25,1.24-4.22,2.41-4.17-1.79-7-6.6S87.89,166.85,89.86,165.68Z"/></g></svg>