<svg xmlns="http://www.w3.org/2000/svg" width="700" height="278.25" viewBox="0 0 700 278.25"><defs><style>.cls-1{fill:#980051;}.cls-2{fill:none;stroke:#980051;stroke-miterlimit:10;stroke-width:1.76px;}</style></defs><title>renrakusaki</title><g id="レイヤー_2" data-name="レイヤー 2"><path d="M182.12,69.84a31.67,31.67,0,0,1,0-40.5l.48.36a27.21,27.21,0,0,0-2.21,3.76,37.19,37.19,0,0,0,0,32.26,27.1,27.1,0,0,0,2.21,3.77Zm3.72-33.76a44.52,44.52,0,0,0-.36-5.06l2.93.76c.49.13,1.24.35,1.24.71,0,.53-.67.84-1.24,1.33v6h.75l.93-1.46c.13-.22.4-.62.62-.62s.62.44.71.58l1,1.41a2.18,2.18,0,0,1,.22.71c0,.31-.18.36-.36.36h-3.85v4.34c1.33.8,4,2.44,4,4.79a1.73,1.73,0,0,1-1.59,1.9c-1.42,0-1.64-2-1.69-3.06a5.85,5.85,0,0,0-.75-3v7.88c0,1.73.13,10.06.13,11.92,0,.58,0,2.53-2.13,2.53-1.24,0-1.24-1.37-1.24-1.86,0-.84.4-5,.45-5.94.13-2.17.22-4.3.22-7.58V48.35a28.69,28.69,0,0,1-6.43,10.19l-.35-.35a54.38,54.38,0,0,0,6.51-17.37,23.78,23.78,0,0,0-4.38.26l-.67-1.59c1.77.22,3.9.35,4.52.35h.8ZM214.33,61a6.91,6.91,0,0,0-3.59,2.53c-4.08-4.21-6-8.6-7.66-13.39v5.19c0,1.55,0,3.19,0,4.78,0,.8.31,4.74.31,5.63a2.16,2.16,0,0,1-2.17,2.39c-.71,0-1.11-.35-1.11-1.46,0-.66.13-3.81.13-4.52.09-2.88.09-4.65.09-6.2V51.72a31.72,31.72,0,0,1-10.06,11.21l-.26-.44a52.9,52.9,0,0,0,9-13.61,51.61,51.61,0,0,0-5.63.22l-.71-1.55c1.33.14,4.92.31,5.76.31h1.86V41.17H195.9a24.59,24.59,0,0,1-4,5.54l-.35-.31c.44-1,3.41-6.91,3.46-12.49l3.54,1.72c.18,0,.44.22.44.45,0,.48-.53.57-1.19,1.06-.45,1.15-.93,2.22-1.33,3h3.94V36.48a31.77,31.77,0,0,0-.57-5.37l3.81.85c.31.08.62.22.62.44s-.53.84-1.15,1.64v6.11h3.32l1.28-1.77c.18-.22.4-.53.62-.53a1.31,1.31,0,0,1,.71.49l1.78,1.77c.22.22.48.53.48.71a.32.32,0,0,1-.35.35h-7.84v6.69h5L209.46,46c.13-.13.4-.48.53-.48s.53.31.71.44L213,48a1.14,1.14,0,0,1,.35.62c0,.31-.31.31-.44.31h-9.62c4.17,9.53,10.68,11.48,11.12,11.57Zm-3.5-31.64a31.7,31.7,0,0,1,0,40.5l-.49-.35a28.71,28.71,0,0,0,2.22-3.77,37.19,37.19,0,0,0,0-32.26,28.84,28.84,0,0,0-2.22-3.76Z"/><path d="M237.24,44.14a5,5,0,0,0-.8,1.24c-3,5.63-8.16,13.12-16,16l-.18-.36c9.84-9,12.63-17.14,12.63-18.56s-1.37-2.22-2.79-2.93a2.76,2.76,0,0,1,2-.57c3.23,0,6.11,2.7,6.11,3.85C238.21,43.12,237.81,43.52,237.24,44.14Zm20.07,14.4a2,2,0,0,1-1.64.93c-1.42,0-1.77-1.5-2-2.52A34.21,34.21,0,0,0,244,39.75c8.15,3.64,13.87,11,13.87,16.53A4.5,4.5,0,0,1,257.31,58.54Z"/><path d="M293.64,44.85c-1,.58-1,.75-1.33,2-1.59,6.3-3.9,10.6-8.51,14.63-.7.66-5.71,5-10.05,5.76l-.14-.31a33.22,33.22,0,0,0,12.94-14.45,42.84,42.84,0,0,0,2.71-8.28c0-.63-.4-.67-.89-.67a86.8,86.8,0,0,0-8.77.27c-1.2.09-7.58.79-7.63.79a5.27,5.27,0,0,1-1.59-.44c0,.36.13,4,.13,4.57s.22,3,.22,3.54c0,1.55-.35,2-.88,2a3.85,3.85,0,0,1-2.44-1.64,6.7,6.7,0,0,1-.4-2.7c0-6.73-.58-7.49-3-8.55a8,8,0,0,1,2.53-.53c1,0,1.37.18,2.88.93a8.64,8.64,0,0,0,2.26.62c1,0,5.49-.44,6.42-.53a25.14,25.14,0,0,0-.4-4.83c-.31-.84-.53-.89-3.81-1.78a5.15,5.15,0,0,1,3.33-1.5c1.1,0,5,.88,5,2.3,0,.31-.58,1.69-.62,1.95s-.27,2.75-.27,3.64c1.16-.14,4.79-.45,5.94-.45s1.46,0,2.17-.48c1.2-.85,1.33-.94,1.51-.94.44,0,3.85,3.51,3.85,4S294.48,44.32,293.64,44.85Z"/><path d="M331.13,65c-1.2,0-1.86-1.15-2.31-1.86-3.41-5.67-5.45-8.51-9-11.3-6.78,8.07-13.52,12.36-19.76,13.47V65c10.59-4.92,21.53-19.77,23-26.06-.13.05-9,1.64-11.34,2.79-1.29.67-1.46.71-1.82.71-.66,0-3.45-2-3.45-4.87a3.69,3.69,0,0,1,.39-1.95c1.82,2.35,2.18,2.84,3.64,2.84,1.06,0,10.77-.85,12.58-2A10.16,10.16,0,0,1,325.15,35c.57,0,4,3.28,4,4,0,.49-.31.62-1.73,1.15-.4.18-.58.49-1.24,1.69-2.93,5.31-3.41,6.2-5.72,9.17,5.41,2.26,12.37,7.58,12.37,11.56C332.86,63.64,332.46,65,331.13,65Z"/><path d="M344.6,53.49a3.9,3.9,0,1,1,3.9-3.9A3.87,3.87,0,0,1,344.6,53.49Z"/><path d="M360.64,47.69c-1,0-1.55-.89-2.13-2.26a20.54,20.54,0,0,0-4.52-7c4.16,1.06,8.55,3,8.55,7.05A2,2,0,0,1,360.64,47.69Zm23.08-6.52c-.53.45-.62.76-1.86,3.41C376.1,57,369.5,63.2,358,66.56l-.18-.35c14.8-6.87,21.45-23.84,21.45-26.37,0-1.19-2.09-2.57-2.75-3a3.54,3.54,0,0,1,2.13-.44c1.77,0,2.34.44,4.78,2.35.58.44.93.71.93,1.33S384.17,40.77,383.72,41.17Zm-14,4.08c-.93,0-1.29-.62-1.55-1.37-1.37-3.59-1.73-4.75-4-7.8,1.68.62,7.62,2.83,7.62,6.69A2.22,2.22,0,0,1,369.72,45.25Z"/><path d="M422.89,51.63c-.71,0-1.82,0-2.7-.13s-11.66-.14-12.41-.14c-2.57,0-9.35.14-11.39.71a6,6,0,0,1-1.5.31c-1.64,0-4.13-3.5-4.13-5.27a6.11,6.11,0,0,1,.71-2.48c1.56,3.1,2.62,3.63,7.89,3.63,2.57,0,17.95,0,19.45-.57a5.89,5.89,0,0,1,1.78-.45c.09,0,5.27.4,5.27,2.75C425.86,50.74,425,51.63,422.89,51.63Z"/><path d="M439.73,38.11c-.4.89-.71,1.78-.71,5,0,1.11.17,6,.17,7,0,.67,0,3.64-1.63,3.64-.85,0-2.44-1.38-2.44-3.77,0-.4.22-2,.31-2.79.13-1.42.18-4.43.18-6.69,0-3.24,0-4.12-3.73-5a5.83,5.83,0,0,1,2.79-1.06c1.25,0,5.41,1.41,5.41,2.66A2.12,2.12,0,0,1,439.73,38.11Zm15-.17c-.22,1.73-.09,4.52-.14,6.25-.17,8.19-.75,13.78-5.4,18.74-1.55,1.64-4.61,4.34-8.46,4.79l-.14-.32c5.85-3.23,8.69-9.66,9.44-13.33a79.41,79.41,0,0,0,1-13.3c0-6.16-.23-6.29-4.3-7.13a4.87,4.87,0,0,1,3.37-1.29c2.21,0,5.45,1.33,5.45,2.4C455.55,35.23,454.79,37.45,454.75,37.94Z"/><path d="M492.68,65c-1.2,0-1.86-1.15-2.31-1.86-3.41-5.67-5.45-8.51-9-11.3-6.78,8.07-13.52,12.36-19.77,13.47V65c10.59-4.92,21.54-19.77,23-26.06-.13.05-9,1.64-11.34,2.79-1.29.67-1.46.71-1.82.71-.66,0-3.46-2-3.46-4.87a3.67,3.67,0,0,1,.4-1.95c1.82,2.35,2.18,2.84,3.64,2.84,1.06,0,10.77-.85,12.58-2A10.38,10.38,0,0,1,486.69,35c.58,0,4,3.28,4,4,0,.49-.31.62-1.73,1.15-.4.18-.58.49-1.24,1.69C484.83,47.15,484.35,48,482,51c5.41,2.26,12.36,7.58,12.36,11.56C494.4,63.64,494,65,492.68,65Z"/><path d="M520.68,54.91a2.71,2.71,0,0,1-1.91-1.2c-4.6-5.09-5.85-6.38-9-7.53-.08,2.75.09,12.45.09,12.72,0,.88.31,4.92.31,5.71,0,1.91-.93,3.28-2.12,3.28s-2.4-1.9-2.4-4.34a15.26,15.26,0,0,1,.31-2.7,94.27,94.27,0,0,0,.58-11.79c0-2.26-.09-12.54-.53-14.18-.14-.58-.27-1-3.55-2.26a6.37,6.37,0,0,1,2.93-1c.84,0,5.62.93,5.62,2.31a17.56,17.56,0,0,1-.66,2.17,50.4,50.4,0,0,0-.58,9c5.06.62,12.77,3.45,12.77,7.62A1.9,1.9,0,0,1,520.68,54.91Z"/><path d="M58.37,176.07v-2.16H75.86v2.16Zm9.94,5.58v12H65.93v-12H58.37v-2.13H75.86v2.13Z"/><path d="M91.85,188.59a6,6,0,0,1-6.37,5.94c-3.08,0-5.83-1.78-5.83-4.86,0-2.91,2.32-4.29,4.8-5.75-1.43-.84-4-2.35-4-5.29,0-2.67,2.11-4.83,5.4-4.83,3.7,0,4.94,2.75,4.94,4.26,0,2.3-2.21,4-3.37,4.84C89.93,184.46,91.85,185.81,91.85,188.59Zm-9.93,1a3.89,3.89,0,0,0,3.88,4,4.21,4.21,0,0,0,4.11-4.08c0-2.56-2.68-4.07-4.65-5.18C84.05,185.27,81.92,186.92,81.92,189.59Zm6.88-11.23a3.41,3.41,0,0,0-3.35-3.64,3.11,3.11,0,0,0-3.18,3.21c0,1.89,1.54,2.83,4.34,4.51A5.14,5.14,0,0,0,88.8,178.36Z"/><path d="M96.39,193.15h1.48c1.41,0,1.89-.54,1.89-1.64V176.9c0-.83-.78-1-1.29-1h-2v-.84h.48a10.37,10.37,0,0,0,4.4-1.13c.19-.11.27-.16.38-.16s.3.16.3.38v17.33c0,1.16.56,1.64,1.89,1.64h1.48V194h-9Z"/><path d="M120.55,194H109.94v-.73c.54-1.7,1.81-3.59,4-6,4-4.59,5.32-6.13,5.32-8.83a3.47,3.47,0,0,0-3.59-3.69c-1.89,0-3,1.13-3,2.1a1.51,1.51,0,0,0,.27.84,2.33,2.33,0,0,1,.56,1.35,1.5,1.5,0,0,1-1.46,1.51,1.7,1.7,0,0,1-1.53-1.89c0-2,1.91-4.83,5.8-4.83,3.35,0,5.4,2.1,5.4,5,0,2.73-1.57,4.21-4,6.29-.91.75-4.48,3.8-5.83,6.77h3.73c3.78,0,4.67-1.45,5.48-3.69l.81.29Z"/><path d="M130.76,188.51H125v-1.75h5.8Z"/><path d="M139.72,194.53a5.45,5.45,0,0,1-4.42-2.92c-1.14-1.86-1.65-5.18-1.65-7.69,0-5.75,2.46-10.12,6.07-10.12,2.78,0,6.08,3,6.08,10.36C145.8,190.78,143,194.53,139.72,194.53Zm-3-16.22a24.26,24.26,0,0,0-.62,5.85c0,6,1.43,9.45,3.64,9.45,1.86,0,2.7-2.48,3-3.51a24.83,24.83,0,0,0,.65-5.94c0-6.15-1.49-9.44-3.65-9.44C137.81,174.72,137,177.36,136.7,178.31Z"/><path d="M154.84,194.53a5.45,5.45,0,0,1-4.42-2.92c-1.14-1.86-1.65-5.18-1.65-7.69,0-5.75,2.46-10.12,6.07-10.12,2.78,0,6.08,3,6.08,10.36C160.92,190.78,158.14,194.53,154.84,194.53Zm-3-16.22a24.26,24.26,0,0,0-.62,5.85c0,6,1.43,9.45,3.64,9.45,1.86,0,2.7-2.48,3-3.51a24.83,24.83,0,0,0,.65-5.94c0-6.15-1.49-9.44-3.65-9.44C152.93,174.72,152.09,177.36,151.82,178.31Z"/><path d="M172.07,173.8h1.1v13.71h3.05v.86h-3.05v3.14c0,1.18.6,1.64,1.89,1.64h.44V194h-6.86v-.87h.43c1.27,0,1.89-.43,1.89-1.64v-3.14H163.7v-.94ZM171,177.36l-6.23,10.15H171Z"/><path d="M189.64,194H179v-.73c.54-1.7,1.8-3.59,4-6,4-4.59,5.32-6.13,5.32-8.83a3.46,3.46,0,0,0-3.59-3.69c-1.89,0-3,1.13-3,2.1a1.51,1.51,0,0,0,.27.84,2.35,2.35,0,0,1,.57,1.35,1.5,1.5,0,0,1-1.46,1.51,1.7,1.7,0,0,1-1.54-1.89c0-2,1.92-4.83,5.8-4.83,3.35,0,5.4,2.1,5.4,5,0,2.73-1.56,4.21-4,6.29-.92.75-4.48,3.8-5.83,6.77h3.72c3.78,0,4.67-1.45,5.48-3.69l.81.29Z"/><path d="M212.51,176.52l.76-.67c.13-.14.32-.32.43-.32a1.08,1.08,0,0,1,.41.27l1,.78c.13.11.32.27.32.46s-.29.4-1.18.73a33.22,33.22,0,0,1-3.06,4.1v.19c1.95.35,4,1.35,4,2.83a1.05,1.05,0,0,1-1,1c-.49,0-.81-.27-1.16-1a6.11,6.11,0,0,0-1.79-2.49v6.32c0,.4.11,5.78.11,6,0,.89-.29,1.38-1.37,1.38-.73,0-.73-.4-.73-.78,0-1.65.24-9.8.29-11.66a20.7,20.7,0,0,1-5.26,3.51l-.11-.17c3.11-2.59,7.1-7.5,8.15-9.77h-3.18a18.88,18.88,0,0,0-3.16.25l-.54-1.08c1.13.1,2.78.18,4,.18a14.89,14.89,0,0,0-.59-5.23l2.72.75c.14,0,.43.14.43.38s-.24.43-.78.76c0,.46,0,2.67,0,3.34ZM226,173.37l.89-.87c.11-.08.35-.35.43-.35s.32.16.51.3l1.14.86c.16.14.29.27.29.41s-.24.3-.43.3H218.75a18.49,18.49,0,0,0-3.16.24l-.54-1.08c2,.16,3.67.19,4.16.19Zm0,11.55.76-.84c.1-.13.24-.27.35-.27a.88.88,0,0,1,.37.22l1.25.89c.13.11.27.24.27.4s-.25.41-.81.84a7.59,7.59,0,0,0-.06.78c0,1,.22,6.4.22,7.51,0,.7-.62,1.05-1.3,1.05s-.73-.32-.67-1.27h-8.48c.06,1-.3,1.51-1.27,1.51-.67,0-.67-.4-.67-.64,0-.95.11-5.08.11-5.91a35.43,35.43,0,0,0-.3-5.7l2.46,1.43Zm-1.46-8.23.65-.65c.14-.14.27-.3.38-.3s.21.11.32.19l1.11.89a.65.65,0,0,1,.27.43c0,.19-.24.38-.76.65,0,.62.14,3.29.14,3.83a1.16,1.16,0,0,1-1.27,1.17c-.65,0-.65-.38-.65-1h-5.83c0,.43,0,1.24-1.13,1.24-.54,0-.76-.24-.76-.94,0-.35.06-2.81.06-3.35,0-1-.09-2.43-.19-3.35l2.21,1.22Zm-6.67,8.88v3.56h3.33v-3.56Zm0,4.21v3.8h3.33v-3.8Zm1-12.45v3.89h5.89v-3.89Zm7.51,11.8v-3.56H223v3.56Zm0,4.45v-3.8H223v3.8Z"/><path d="M255.9,174.93c-.06,1,.13,15.55.13,17.52,0,1.73,0,3.21-3,3.78-.37-1.48-1.35-2-2.72-2.73l0-.19c.54.06,2.19.22,2.68.22.67,0,.89-.11,1-.43s.11-8.37.11-9.45c0-.86,0-8.91,0-9.69H237.92c0,1,0,11.5,0,13.39,0,1.16.11,6.29.11,7.31a1.34,1.34,0,0,1-1.45,1.49c-.41,0-.79-.14-.79-1,0-.37.19-2.08.19-2.4.08-1.84.11-11.85.11-13.66a49.1,49.1,0,0,0-.3-7l2.59,1.27h15.39l.7-.78c.11-.13.19-.22.35-.22a.8.8,0,0,1,.33.17l1.45,1.05c.19.13.33.21.33.43S256.79,174.34,255.9,174.93ZM253,181.19h-6.2v8.53h2.61c0-3.13.06-3.56,0-4.72a4.94,4.94,0,0,0-.41-1.78l2.38.4c.24.06.56.14.56.46s-.1.35-.67.68c0,.43,0,2.48,0,3s.08,2.51.08,3a1.12,1.12,0,0,1-1.24,1.18c-.76,0-.73-.37-.7-1.51h-7c0,.19,0,1.06,0,1.24a1.15,1.15,0,0,1-1.19,1.3.69.69,0,0,1-.75-.76c0-.29.13-1.16.13-3.91,0-3.83-.08-4.1-.35-5.13l2.51.59c.22.06.46.11.46.38s0,.27-.81.76v4.88H245v-8.53h-2.7a18.7,18.7,0,0,0-3.15.25l-.54-1.08c2.16.19,3.72.19,4.15.19h3.11a14.74,14.74,0,0,0,1.62-6.1l2.75,1.56a.42.42,0,0,1,.27.35c0,.35-.4.46-1.16.6-.73.81-2,2.37-2.92,3.59H250l.92-1.06c.16-.16.3-.32.41-.32s.32.14.51.27l1.27,1.05a.55.55,0,0,1,.27.41C253.39,181.17,253.12,181.19,253,181.19Zm-9.31-1.34c-.67,0-.86-.57-1.24-1.71a7.32,7.32,0,0,0-1.49-2.91l.14-.16c.35.13,3.72,1.54,3.72,3.56A1.17,1.17,0,0,1,243.67,179.85Z"/><path d="M269.35,190.72A16.51,16.51,0,0,1,262,195l-.05-.16a27.11,27.11,0,0,0,4.64-4.05c1.27-1.41,1.4-1.84,1.51-2.43l2.14,1.4c.21.14.35.27.35.46S270,190.7,269.35,190.72Zm16.79-2.86h-11c0,.51,0,1.76,0,3.38,0,1.08.13,2.78.13,3.86a1.35,1.35,0,0,1-1.48,1.34c-.49,0-.79-.18-.79-.83s.16-3.67.16-4.29c.06-1.92,0-2.95,0-3.46h-7.26c0,1.24-1.38,1.24-1.48,1.24-.6,0-.68-.4-.68-.75s.16-2.51.19-3c.05-2,.08-3.72.08-5.83,0-5.26-.11-5.8-.3-6.69l2.54.78c.27.08.54.16.54.41s-.35.51-.84.83c-.08,1.73-.1,3.51-.1,5.24,0,.78.05,6.15.05,7.12h16.47l1.32-1.43c.16-.19.27-.32.46-.32s.35.19.46.27l1.67,1.43a.59.59,0,0,1,.27.43C286.57,187.84,286.33,187.86,286.14,187.86Zm-4.94-13.6c0,1.1-.11,3.32.13,9,0,.08,0,.7,0,.75a1.2,1.2,0,0,1-1.32,1.24c-.78,0-.76-.51-.76-1.24h-8.07c0,.41,0,1.32-1.35,1.32-.7,0-.73-.35-.73-.64,0-.11,0-.46,0-.57,0-.62.19-5.43.19-8.23a18.32,18.32,0,0,0-.41-4.4l2.68,1.27h7.5l.78-.76c.19-.19.27-.3.46-.3a.73.73,0,0,1,.41.25l1.1.91a.72.72,0,0,1,.3.49C282.17,173.61,281.55,174,281.2,174.26Zm-1.89-.87h-8.13v2.89h8.13Zm0,3.54h-8.13v2.81h8.13Zm0,3.45h-8.13v3h8.13Zm4,14.55c-.7,0-1-.48-1.72-1.64a11.21,11.21,0,0,0-4-3.89l.08-.19c3.75.62,6.77,2.86,6.77,4.59A1.11,1.11,0,0,1,283.3,194.93Z"/><path d="M297.89,176.52l.75-.67c.14-.14.33-.32.44-.32a1,1,0,0,1,.4.27l1,.78c.14.11.33.27.33.46s-.3.4-1.19.73a33.93,33.93,0,0,1-3.05,4.1v.19c1.94.35,4,1.35,4,2.83a1.06,1.06,0,0,1-1,1c-.48,0-.81-.27-1.16-1a6.08,6.08,0,0,0-1.78-2.49v6.32c0,.4.11,5.78.11,6,0,.89-.3,1.38-1.38,1.38-.73,0-.73-.4-.73-.78,0-1.65.24-9.8.3-11.66a20.88,20.88,0,0,1-5.27,3.51l-.1-.17c3.1-2.59,7.1-7.5,8.15-9.77h-3.19a18.78,18.78,0,0,0-3.15.25l-.54-1.08c1.13.1,2.78.18,4,.18a14.64,14.64,0,0,0-.59-5.23l2.73.75c.13,0,.43.14.43.38s-.24.43-.78.76c0,.46,0,2.67,0,3.34Zm13.52-3.15.89-.87c.11-.08.35-.35.43-.35s.33.16.52.3l1.13.86c.16.14.3.27.3.41s-.25.3-.43.3H304.12a18.49,18.49,0,0,0-3.16.24l-.54-1.08c2,.16,3.68.19,4.16.19Zm0,11.55.76-.84c.11-.13.24-.27.35-.27a1,1,0,0,1,.38.22l1.24.89a.56.56,0,0,1,.27.4c0,.17-.24.41-.81.84a7.43,7.43,0,0,0-.05.78c0,1,.21,6.4.21,7.51,0,.7-.62,1.05-1.29,1.05s-.73-.32-.68-1.27h-8.47c0,1-.3,1.51-1.27,1.51-.68,0-.68-.4-.68-.64,0-.95.11-5.08.11-5.91a35.43,35.43,0,0,0-.3-5.7l2.46,1.43Zm-1.45-8.23.64-.65c.14-.14.27-.3.38-.3s.22.11.33.19l1.1.89a.62.62,0,0,1,.27.43c0,.19-.24.38-.75.65,0,.62.13,3.29.13,3.83a1.16,1.16,0,0,1-1.27,1.17c-.64,0-.64-.38-.64-1h-5.83c0,.43,0,1.24-1.14,1.24-.54,0-.75-.24-.75-.94,0-.35.05-2.81.05-3.35a32,32,0,0,0-.19-3.35l2.21,1.22Zm-6.67,8.88v3.56h3.32v-3.56Zm0,4.21v3.8h3.32v-3.8Zm1-12.45v3.89h5.88v-3.89Zm7.5,11.8v-3.56h-3.43v3.56Zm0,4.45v-3.8h-3.43v3.8Z"/><path d="M341.27,174.93c0,1,.14,15.55.14,17.52,0,1.73,0,3.21-3.05,3.78-.38-1.48-1.35-2-2.73-2.73l0-.19c.54.06,2.19.22,2.67.22.68,0,.89-.11,1-.43s.11-8.37.11-9.45c0-.86,0-8.91,0-9.69H323.3c0,1,0,11.5,0,13.39,0,1.16.11,6.29.11,7.31a1.34,1.34,0,0,1-1.46,1.49c-.41,0-.78-.14-.78-1,0-.37.19-2.08.19-2.4.08-1.84.1-11.85.1-13.66a51.22,51.22,0,0,0-.29-7l2.59,1.27h15.38l.71-.78c.1-.13.18-.22.35-.22a.77.77,0,0,1,.32.17l1.46,1.05c.19.13.32.21.32.43S342.16,174.34,341.27,174.93Zm-2.91,6.26h-6.21v8.53h2.62c0-3.13.05-3.56,0-4.72a5.13,5.13,0,0,0-.4-1.78l2.37.4c.24.06.57.14.57.46s-.11.35-.68.68c0,.43,0,2.48,0,3s.08,2.51.08,3a1.12,1.12,0,0,1-1.24,1.18c-.75,0-.73-.37-.7-1.51h-7c0,.19,0,1.06,0,1.24a1.15,1.15,0,0,1-1.18,1.3.7.7,0,0,1-.76-.76c0-.29.14-1.16.14-3.91,0-3.83-.09-4.1-.36-5.13l2.51.59c.22.06.46.11.46.38s0,.27-.81.76v4.88h2.57v-8.53h-2.7a18.87,18.87,0,0,0-3.16.25l-.54-1.08c2.16.19,3.73.19,4.16.19h3.1a14.74,14.74,0,0,0,1.62-6.1L335.6,176a.42.42,0,0,1,.27.35c0,.35-.4.46-1.16.6-.73.81-2,2.37-2.91,3.59h3.59l.92-1.06c.16-.16.29-.32.4-.32a1.06,1.06,0,0,1,.51.27l1.27,1.05a.55.55,0,0,1,.27.41C338.76,181.17,338.49,181.19,338.36,181.19Zm-9.31-1.34c-.68,0-.87-.57-1.25-1.71a7.32,7.32,0,0,0-1.48-2.91l.13-.16c.36.13,3.73,1.54,3.73,3.56A1.17,1.17,0,0,1,329.05,179.85Z"/><path d="M371.4,176.63H358.69l2.24.73c.16.06.35.16.35.35s-.19.41-.73.79c0,.43-.08,1.83-.13,2.75h5.4l.78-.84c.22-.21.3-.3.43-.3a.9.9,0,0,1,.49.27l1.08.87c.21.16.35.32.35.48,0,.36-.51.68-.81.89,0,1.27.13,6.94.13,8.1,0,.79,0,2.65-3,3.22a4.93,4.93,0,0,0-2.26-2.57v-.19a13.21,13.21,0,0,0,1.78.11c.92,0,1.45-.11,1.54-.51s.05-7.34,0-8.88h-5.88c0,3,0,8.36.11,11.17,0,.3.08,1.62.08,1.89,0,1.24-1.43,1.32-1.54,1.32a.7.7,0,0,1-.78-.81c0-2.26.27-5.91.29-8.18s0-3.1,0-5.39h-5.45c0,.86,0,4.61,0,5.39s.08,4.35.08,5.08a1.32,1.32,0,0,1-1.43,1.43c-.62,0-.75-.32-.75-.67a5.09,5.09,0,0,1,0-.54c.08-1.16.21-6.13.21-8.64a16.12,16.12,0,0,0-.35-4l2.67,1.32h5c0-3.08,0-3.43-.32-4.62H351a18.72,18.72,0,0,0-3.19.25l-.54-1.06c1.81.14,3.65.16,4.16.16h7.21a10.37,10.37,0,0,0-.7-4.69l3,.65c.25.05.52.13.52.4s0,.3-.89.81c0,.46,0,2.43,0,2.83h7.05l1.29-1.51c.19-.24.3-.32.44-.32a.74.74,0,0,1,.48.27l1.73,1.51c.16.14.27.24.27.43S371.59,176.63,371.4,176.63Z"/><path d="M383.61,179.76h-2.75c0,4,.16,10.34.16,14.34,0,1,0,2-1.4,2-.57,0-.78-.33-.78-.84,0-.27.08-1.43.08-1.68.1-3.37.1-6.18.16-13.82a19.06,19.06,0,0,0-3.3.25l-.51-1.06c1.49.11,2.81.17,3.78.17,0-2,0-5.59-.51-7.32l2.48.84c.3.11.46.21.46.43s-.16.4-.62.76v5.29h.73l.57-.76c.21-.27.29-.35.43-.35a.74.74,0,0,1,.48.3l.7.75c.17.16.27.27.27.43S383.77,179.76,383.61,179.76Zm16.85,10.13H394.9c0,.56.05,3.1.05,3.61,0,.79,0,2.11-2.62,2.92-.35-1-.54-1.67-2.4-2.59v-.11a.94.94,0,0,1-.68.24c-.75,0-.86-.32-1.35-1.83a8.14,8.14,0,0,0-.78-1.7l.08-.08c.92.35,3.08,1.13,3.08,2.4a1.36,1.36,0,0,1-.32.92c1.83.1,1.86.1,2.51.1.24,0,.59,0,.67-.67,0-.35,0-2,0-3.21h-6.88a19.45,19.45,0,0,0-3.18.24l-.54-1.08c1.8.16,3.69.19,4.15.19h6.45a7.77,7.77,0,0,0-.32-2.81l2.21.73c.41.13.46.22.46.4s-.13.33-.59.6c0,.27,0,.35,0,1.08h2.75l.78-1.08c.19-.24.3-.35.43-.35s.25.11.49.29l1.27,1.09c.21.16.27.24.27.4S400.65,189.89,400.46,189.89Zm-.68-13.53h-8v2.3h3.62l.49-.52c.24-.24.35-.32.48-.32s.19.08.38.22l.92.75c.24.19.27.33.27.46,0,.3-.62.6-.68.62,0,1,.19,5.4.19,6.32a1.14,1.14,0,0,1-1.29,1.16.59.59,0,0,1-.6-.65v-.76h-8.93c0,.55,0,1.52-1.11,1.52a.71.71,0,0,1-.81-.79c0-.81.11-4.34.11-5a24.16,24.16,0,0,0-.24-4l2.37,1.06H390v-2.3h-2.7a18.56,18.56,0,0,0-3.18.25l-.54-1.08c1.89.16,3.91.18,4.16.18H390a11.65,11.65,0,0,0-.51-4.42l2.46.75c.32.11.48.19.48.38s-.13.38-.65.84v2.45h5.35l.78-1c.19-.24.3-.33.43-.33s.25.09.46.28l1.16,1a.55.55,0,0,1,.25.41C400.19,176.34,400,176.36,399.78,176.36Zm-9.8,2.95h-3.4V182H390Zm0,3.29h-3.4v2.7H390Zm5.56-3.29h-3.78V182h3.78Zm0,3.29h-3.78v2.7h3.78Zm-.21-7.42c-.57,0-.68-.22-1.16-1.16a4.4,4.4,0,0,0-1.22-1.49v-.16c.73,0,3.24.11,3.24,1.67C396.19,174.64,395.87,175.18,395.33,175.18Z"/><path d="M422.71,175.47c-4.35,4.56-6.91,6.86-10.34,8.48a26,26,0,0,1-7.88,2.51l-.11-.22a38.78,38.78,0,0,0,11-6,31.45,31.45,0,0,0,5.58-5.86H414.8c-.92,1-1.49,1.56-2.22,2.27,1.84.48,3.32.89,3.32,2.48a1.11,1.11,0,0,1-1.08,1.16c-.75,0-1-.62-1.53-1.83a4.4,4.4,0,0,0-1-1.54,23,23,0,0,1-7,4.45l-.14-.19c4-2.64,8.88-7.69,9.53-10.45l2.38,1a.45.45,0,0,1,.32.38c0,.27-.21.4-1.13.54-.3.38-.46.57-.87,1.05H421l1.06-.78c.16-.11.27-.22.37-.22a.61.61,0,0,1,.35.19l1.57,1.16c.13.11.32.33.32.46C424.7,174.88,424.41,175.07,422.71,175.47Zm3.72,10a37.36,37.36,0,0,1-8,7.21,27.29,27.29,0,0,1-12.5,3.78l-.05-.24c4-.9,8.63-2.19,12.95-5.78a26.58,26.58,0,0,0,5.64-6.18h-6a30.83,30.83,0,0,1-3.38,2.67c.22.05,3.62,1,3.62,2.81a1.26,1.26,0,0,1-1.22,1.27c-.64,0-.7-.19-1.35-1.76a7.43,7.43,0,0,0-1.43-2.08,24.22,24.22,0,0,1-8.53,3.59l-.19-.19a33.14,33.14,0,0,0,11.67-8c1.75-1.83,2-2.37,2.24-3.1l2.18,1.16c.16.08.33.19.33.38,0,.35-.49.4-1.22.45a19.84,19.84,0,0,1-2,2.11h5.45l.84-.62c.1-.08.27-.24.4-.24s.22.1.35.21l1.62,1.32a.58.58,0,0,1,.27.44C428.13,184.92,427.94,185.08,426.43,185.43Z"/><path d="M456.75,194.23H437.53a1.4,1.4,0,0,1-1.56,1.62c-.68,0-.73-.35-.73-.65,0-.1.11-2.26.13-2.7.17-3.48.25-14.87.25-15.11a23.82,23.82,0,0,0-.35-5.43l2.75,1.38h14.49l1.14-1.3c.16-.16.27-.32.4-.32s.3.13.52.3l1.56,1.27a.55.55,0,0,1,.27.4c0,.27-.24.3-.43.3H437.61c0,1.51-.1,8.15-.1,9.5,0,3.1,0,8.69,0,10.09h15.52l1.25-1.4c.18-.22.29-.32.43-.32a1,1,0,0,1,.48.27l1.7,1.4c.11.11.27.24.27.41S456.94,194.23,456.75,194.23Zm-4.34-16.44a47.87,47.87,0,0,1-3.89,5.73c1.83,1.59,4.32,4,4.32,5.85a1,1,0,0,1-1,1.11c-.73,0-1-.51-1.52-1.46a23.58,23.58,0,0,0-2.86-4.15c-4.26,4.88-7.26,6.1-8.72,6.66l-.08-.21c3.32-2.24,6.7-6.51,7.64-7.72a42.83,42.83,0,0,0-6.18-5.27l.11-.19a27.3,27.3,0,0,1,7,4.21c1.65-2.24,3.35-4.88,3.54-7.15l2.4,1.65a.54.54,0,0,1,.27.4C453.38,177.69,452.92,177.74,452.41,177.79Z"/><path d="M479.43,186.46l.49-.62c.16-.19.27-.33.43-.33s.3.14.51.3l.89.73a.56.56,0,0,1,.27.43c0,.22-.16.32-.7.73,0,.49.08,2.59.08,3,0,.76-1,.92-1.29.92-.68,0-.65-.54-.62-.84H477l1.62.73c.19.08.35.19.35.38s-.35.38-.94.46c-.3.3-1.78,1.62-2.08,1.89h6.58l1.08-1.3c.19-.21.3-.29.44-.29a.82.82,0,0,1,.48.24L486,194.2a.63.63,0,0,1,.27.44c0,.16-.14.27-.41.27h-20a18.78,18.78,0,0,0-3.19.24l-.54-1.08c1.84.16,3.76.19,4.16.19h3.89c-.3-.24-.33-.38-.57-1.62a9.36,9.36,0,0,0-.54-1.84h-1a.92.92,0,0,1-.11.73,1.45,1.45,0,0,1-1.19.49c-.51,0-.64-.27-.64-.7,0-.6.1-3.22.1-3.76a15,15,0,0,0-.16-2.21l2.35,1.11Zm2.62-2.73,1.05-1.13c.22-.22.33-.33.46-.33a.86.86,0,0,1,.52.27l1.29,1.14a.59.59,0,0,1,.27.43c0,.16-.16.27-.4.27H466.56a19.89,19.89,0,0,0-3.19.24l-.54-1.08c1.86.16,3.78.19,4.16.19ZM470.85,175a7.56,7.56,0,0,0-.59-3.59l2.78.76c.21,0,.35.16.35.32s-.06.35-.73.79c0,.89,0,1.21,0,1.72h2.89a9.39,9.39,0,0,0-.54-3.42l2.54.67c.27.08.43.16.43.32s-.16.44-.65.71c0,.73,0,.81,0,1.72H480l.64-.59a.71.71,0,0,1,.46-.27.88.88,0,0,1,.52.24l1,.76c.13.11.3.24.3.43s-.11.38-.92.81c0,.81,0,4.37,0,5.1a1.07,1.07,0,0,1-1.18,1.16c-.62,0-.65-.4-.65-.92H468c0,.79-.62,1.14-1.29,1.14s-.62-.49-.62-.73c0-.73.13-4,.13-4.64a17.81,17.81,0,0,0-.27-3.65l2.32,1.16Zm-2.84.65V178h2.87v-2.35Zm0,3v2.43h2.87v-2.43Zm.14,8.45v3h11.36v-3Zm1.54,3.69c.7.35,2.19,1.16,2.19,2.51a1,1,0,0,1-.52.95h3.89a12.69,12.69,0,0,0,1-3.46Zm2.94-15.14V178h2.89v-2.35Zm0,3v2.43h2.89v-2.43Zm7.59-.65v-2.35h-3V178Zm0,3.08v-2.43h-3v2.43Z"/><path d="M491.56,193.15h1.49c1.4,0,1.88-.54,1.88-1.64V176.9c0-.83-.78-1-1.29-1h-2.05v-.84h.48a10.37,10.37,0,0,0,4.4-1.13c.19-.11.27-.16.38-.16s.3.16.3.38v17.33c0,1.16.56,1.64,1.89,1.64h1.48V194h-9Z"/><path d="M529.49,174.85H519c0,.76.11,15.58.11,16.39,0,2.32,0,4.26-3.75,4.64-.14-1.13-.33-1.68-3.35-3.32l.06-.19a25.54,25.54,0,0,0,3.59.38c.83,0,1.24-.11,1.34-.54a13.51,13.51,0,0,0,.09-2c0-2.43,0-13.18,0-15.39h-7.67a18.61,18.61,0,0,0-3.19.24l-.54-1.05c1.68.11,3.35.16,4.16.16H525.2l1.51-1.59c.11-.11.27-.32.43-.32a.9.9,0,0,1,.49.27l2,1.59a.56.56,0,0,1,.27.43C529.89,174.82,529.65,174.85,529.49,174.85Z"/><path d="M548.2,173.5l.76-.78c.16-.19.3-.32.46-.32a.85.85,0,0,1,.48.27l1.33,1.1c.24.22.29.35.29.49,0,.32-.38.56-1,1,0,1.21,0,1.67,0,2.86,0,6.53.13,10,.3,15,0,0,0,.46,0,.57,0,1.13-1.4,1.21-1.51,1.21-.78,0-.73-.68-.7-1.13H538.32c.06.54.06.7-.11.94a1.78,1.78,0,0,1-1.43.65c-.7,0-.72-.38-.72-.7,0-.52.16-2.68.18-3.11.11-2.59.14-9.15.14-11.85a43.65,43.65,0,0,0-.35-7.5l2.7,1.32Zm-9.88.65V180h10.29v-5.8Zm0,6.45v5.83h10.29V180.6Zm0,6.48v6h10.29v-6Z"/><path d="M566.4,184.84a5,5,0,0,1,1.84,4c0,3.32-2.73,5.7-6.29,5.7-2.92,0-5.37-1.65-5.37-3.81a1.55,1.55,0,0,1,1.54-1.72,1.32,1.32,0,0,1,1.32,1.35,2.26,2.26,0,0,1-.16.86,1.76,1.76,0,0,0-.08.62c0,1,1.16,1.78,2.43,1.78,2.07,0,4.18-2.05,4.18-4.78s-2-4.94-4.21-4.94c-.16,0-.92.11-1.08.11a.53.53,0,0,1-.6-.56.62.62,0,0,1,.63-.63c.16,0,1,.17,1.16.17,2.26,0,3.69-2,3.69-4.21s-1.26-4.05-3.4-4.05a2,2,0,0,0-2.18,1.8,2,2,0,0,0,.08.41,2.89,2.89,0,0,1,.08.65,1.43,1.43,0,0,1-1.38,1.48,1.4,1.4,0,0,1-1.35-1.48c0-1.49,1.73-3.78,5.19-3.78s5.39,2.16,5.39,4.53a4.66,4.66,0,0,1-1,2.76,6.45,6.45,0,0,1-3.42,2.29A7.22,7.22,0,0,1,566.4,184.84Z"/><path d="M594.53,186.05a19.8,19.8,0,0,1-9.44-7.18V181c0,.43.08,2.41.08,2.7a1.26,1.26,0,0,1-1.3,1.41c-.49,0-.73-.27-.73-.79s.14-2.8.14-3.26v-1.81c-2.22,2.81-7.56,6.85-11.61,7.74l0-.16a37.57,37.57,0,0,0,9.77-8.15h-5.48a18.61,18.61,0,0,0-3.19.24l-.51-1.08c1.7.14,3.37.19,4.13.19h7v-4.21c-.91.08-2.59.22-4.75.22a29.42,29.42,0,0,1-4-.22v-.21a67.13,67.13,0,0,0,13.52-2.11,3.57,3.57,0,0,0,1.49-.67l1.62,1.4c.13.14.29.3.29.43,0,.38-.51.38-.64.38a4.3,4.3,0,0,1-.92-.11c-2.27.43-3,.51-4.83.73v4.37h1.67a11.85,11.85,0,0,0,2.08-4.37l2,1.24c.13.08.35.27.35.46,0,.43-.52.51-1.16.59a20.93,20.93,0,0,1-2.65,2.08h5l1.21-1.37c.14-.17.27-.33.43-.33s.33.16.49.3l1.51,1.35a.6.6,0,0,1,.27.4c0,.27-.24.3-.4.3H585.49c3.27,3.11,7.42,5,11.31,4.78v.24A5,5,0,0,0,594.53,186.05Zm-3.45,1.19c0,1.86,0,4.67,0,5.64,0,.3.13,1.62.13,1.92a1.28,1.28,0,0,1-1.4,1.24c-.68,0-.68-.3-.62-1.35h-9.91c0,.51.05,1.49-1.32,1.49-.71,0-.71-.46-.71-.65s.06-.65.06-.78c.11-2,.16-4.22.16-5.75a18.26,18.26,0,0,0-.27-4.35l2.32,1.13h9.31l.65-.73c.16-.16.25-.27.38-.27s.3.14.43.25l1.38,1a.47.47,0,0,1,.21.37C591.91,186.78,591.29,187.11,591.08,187.24Zm-11.28-9.45c-.68,0-.87-.51-1-1a8.22,8.22,0,0,0-1.3-2.35l.14-.19c2.67.73,3.26,1.84,3.26,2.49A1.05,1.05,0,0,1,579.8,177.79Zm3.53,8.64h-4v3.43h4Zm0,4.08h-4V194h4Zm5.89-4.08h-4.08v3.43h4.08Zm0,4.08h-4.08V194h4.08Z"/><path d="M612.25,188.59a6,6,0,0,1-6.37,5.94c-3.08,0-5.83-1.78-5.83-4.86,0-2.91,2.32-4.29,4.8-5.75-1.43-.84-4-2.35-4-5.29,0-2.67,2.11-4.83,5.4-4.83,3.7,0,4.94,2.75,4.94,4.26,0,2.3-2.21,4-3.38,4.84C610.33,184.46,612.25,185.81,612.25,188.59Zm-9.94,1a3.89,3.89,0,0,0,3.89,4,4.2,4.2,0,0,0,4.1-4.08c0-2.56-2.67-4.07-4.64-5.18C604.45,185.27,602.31,186.92,602.31,189.59Zm6.89-11.23a3.41,3.41,0,0,0-3.35-3.64,3.1,3.1,0,0,0-3.18,3.21c0,1.89,1.53,2.83,4.34,4.51A5.16,5.16,0,0,0,609.2,178.36Z"/><path d="M640,182.22H626.56c-.7,1.3-1.49,3.08-1.84,3.89h7.56l1-.84a.76.76,0,0,1,.41-.22c.13,0,.29.17.43.3l1.35,1.24a.69.69,0,0,1,.24.43c0,.36-.51.49-1.35.73-1.21,5.65-1.83,8.61-7,8.51a4.64,4.64,0,0,0-2.7-3.08l0-.16a22.88,22.88,0,0,0,4.56.7c1.35,0,2.18-.89,3.18-7h-8a26.09,26.09,0,0,1-1.48,3.07,1.22,1.22,0,0,1-1.05.46c-.46,0-1.06-.24-1.06-.67a1.11,1.11,0,0,1,.17-.54c1.61-3.08,1.8-3.46,3.37-6.86h-5a19.12,19.12,0,0,0-3.18.24l-.54-1.05c2.13.16,3.67.16,4.15.16h16.5l1.21-1.48c.14-.16.27-.33.43-.33s.35.17.49.27l1.67,1.52a.55.55,0,0,1,.27.4C640.35,182.22,640.08,182.22,640,182.22Zm-5.54-8.2c0,1,0,3.72,0,4.72,0,.38,0,1.11-1.16,1.11-.86,0-.92-.41-.84-1.33H623.1c0,.68,0,1.51-1.32,1.51a.7.7,0,0,1-.73-.7c0-.19.11-1.05.11-1.24.05-.94.14-2.21.14-3.54a11.48,11.48,0,0,0-.33-3.05l2.51,1.19h8.75l.54-.65c.1-.13.27-.29.37-.29a1.11,1.11,0,0,1,.44.21l1.29.79a.62.62,0,0,1,.3.45C635.17,173.37,635,173.58,634.41,174Zm-1.94-.68h-9.34v4.53h9.34Z"/><path d="M239.25,217.94c0,.76,0,1.48,0,3.46,0,2.41,0,5.08.08,7.47,0,.31.11,1.64.11,1.91s0,1.06-1,1.06c-.44,0-.45-.25-.45-.48s0-.62.05-.71H227.19a1.53,1.53,0,0,1,0,.69,1,1,0,0,1-1,.56c-.43,0-.5-.26-.5-.49s0-.79.05-1.1c.18-3.24.21-6.5.21-9.76a31.9,31.9,0,0,0-.21-4.66l1.82,1h10.23l.54-.54a.5.5,0,0,1,.31-.2c.11,0,.19.08.31.18l.77.63a.45.45,0,0,1,.19.33C239.91,217.38,239.76,217.51,239.25,217.94Zm-1.29-.65H227.17v12.93H238Zm-1.17,10.38h-6.62a11.15,11.15,0,0,0-2.06.16l-.34-.72a26.57,26.57,0,0,0,2.68.12h1.24v-3.78H231a12.37,12.37,0,0,0-2.06.16l-.35-.72c1.38.13,2.62.13,2.69.13h.45v-3h-1.1a12.24,12.24,0,0,0-2.06.16l-.33-.72c.89.07,1.78.12,2.67.12h3.62l.62-.68c.09-.09.2-.22.3-.22s.25.13.32.19l.71.68c.07.07.18.16.18.27s-.18.2-.27.2h-3.51v3h1l.56-.59c.11-.13.21-.24.3-.24s.19.11.31.2l.75.59c.07.06.18.17.18.27s-.18.2-.26.2h-2.89v3.78H235l.61-.64c.12-.15.21-.22.29-.22s.23.11.32.18l.71.65c.07.07.18.16.18.27S236.89,227.67,236.79,227.67Zm-2.06-1.19c-.4,0-.65-.38-.72-.79a4.5,4.5,0,0,0-.48-1.75l.1-.09c1.22.48,1.75,1.26,1.75,1.87A.69.69,0,0,1,234.73,226.48Z"/><path d="M256.76,221.94l.72-1c.1-.15.16-.22.26-.22s.12,0,.33.2l1.17,1a.42.42,0,0,1,.18.29c0,.16-.16.18-.28.18h-5.81c0,.6,0,3.19,0,3.71,0,.18,0,3.93,0,4.45h4.62l.88-1c.12-.15.17-.22.26-.22s.16,0,.33.2l1.15,1a.38.38,0,0,1,.18.27c0,.16-.16.2-.27.2H247.34a12.12,12.12,0,0,0-2.06.16l-.35-.72c1.17.11,2.36.13,2.69.13h4.45c0-.16,0-4,0-4.4v-3.76h-3.68a12.12,12.12,0,0,0-2.06.16l-.35-.7c1.17.09,2.36.11,2.69.11h3.4c0-4.09,0-4.56-.44-5.87l2.12.58c.17,0,.28.09.28.25a.34.34,0,0,1-.16.27,5.69,5.69,0,0,1-.51.41c0,1.46,0,2.9,0,4.36Z"/><path d="M271.26,220.91H271a13.06,13.06,0,0,1-5.92,4.15L265,225a18.23,18.23,0,0,0,4.31-4.13,4.11,4.11,0,0,0,.7-1.37l1.55,1a.24.24,0,0,1,.16.21C271.73,220.86,271.45,220.9,271.26,220.91Zm8.2,10.86a14,14,0,0,1-6.39-3.71,12.06,12.06,0,0,1-7.89,3.71v-.14a14.37,14.37,0,0,0,7.15-4.51,11,11,0,0,1-2-4.91l.15,0a13.29,13.29,0,0,0,2.43,4.22,9.39,9.39,0,0,0,2.06-4.52l1.6,1.11a.4.4,0,0,1,.18.29c0,.22-.21.29-.66.38a19.1,19.1,0,0,1-2.31,3.62A11.93,11.93,0,0,0,281.1,230l0,.13A3.67,3.67,0,0,0,279.46,231.77ZM280.63,219h-13a12.53,12.53,0,0,0-2.06.16l-.34-.72c1.18.11,2.42.13,2.68.13h4.38a6.37,6.37,0,0,0-.48-3.15l2.06.54c.14,0,.28.11.28.29s-.41.39-.6.45c0,.3,0,1.6,0,1.87h4.66l.78-1c.09-.13.18-.24.28-.24a.6.6,0,0,1,.33.18l1.16,1a.41.41,0,0,1,.17.27C280.91,219,280.75,219,280.63,219Zm-1.53,5c-.41,0-.46-.09-.91-.87a9.09,9.09,0,0,0-3.11-3.18l.05-.09c2.87.46,4.68,2.35,4.68,3.36A.72.72,0,0,1,279.1,224.05Z"/><path d="M300.15,231.52c-.59,0-3.16,0-3.68,0a17.24,17.24,0,0,1-4.77-.52c-2.06-.63-2.48-1.62-2.72-2.18-.26.36-1.59,1.86-1.85,2.18-.05.18-.09.45-.12.52a.22.22,0,0,1-.19.15.34.34,0,0,1-.25-.15L285.3,230a6.46,6.46,0,0,0,2.88-.87v-5.27a12.47,12.47,0,0,0-2.27.16l-.35-.72c.77.07,1.29.11,2.34.13l.64-.51a.82.82,0,0,1,.25-.14.35.35,0,0,1,.22.12l.7.65a.36.36,0,0,1,.13.24.26.26,0,0,1-.11.21c-.09.07-.26.24-.37.33-.05.36-.05,2.19-.05,2.59,0,2.23,0,3.4,4.87,3.4a43.57,43.57,0,0,0,5.69-.41c.37-.07,1-.2,1.42-.31v.07A2.8,2.8,0,0,0,300.15,231.52ZM289,219.22c-.52,0-.66-.49-.77-.86a4.32,4.32,0,0,0-1.48-2.31l0-.11c2.12.42,2.93,1.79,2.93,2.47A.75.75,0,0,1,289,219.22Zm11.4,1.62c-.07.07-.45.38-.54.45,0,.87,0,5.12,0,6.09,0,.61,0,1.65-1.68,2a2.55,2.55,0,0,0-1.36-1.69v-.09l1.22.05c.58,0,.65-.12.65-.65v-1.18H296c0,.18.06,1.92.06,2.25,0,.07.05.63.05.7a.71.71,0,0,1-.8.65c-.44,0-.44-.27-.44-.42s0-.57,0-.68c0-.36,0-2.11,0-2.5h-2.69c0,.36,0,2.09,0,2.48a.82.82,0,0,1-.84.88c-.45,0-.45-.28-.45-.48s0-.29,0-.34c.05-.81.06-3.17.06-3.87a32,32,0,0,0-.19-5l1.59.81h2.93c-.14-.12-.15-.16-.29-.48a5.84,5.84,0,0,0-1.59-1.82v-.13a5,5,0,0,1,2.22.79c.41-.41.9-1,1.41-1.65h-3.91a12.24,12.24,0,0,0-2.06.16l-.35-.7c.91.07,1.8.11,2.69.11h3.77l.63-.45c.07-.06.15-.13.22-.13a.53.53,0,0,1,.28.14l1,.89a.36.36,0,0,1,.12.23.31.31,0,0,1-.14.22,10.09,10.09,0,0,1-1,.18c-.39.1-2.06,1-2.45,1.17a1.16,1.16,0,0,1,.47.91.61.61,0,0,1-.28.56h2.38l.49-.48c.07-.08.14-.15.22-.15a.4.4,0,0,1,.2.11l.9.65a.25.25,0,0,1,.14.18A.22.22,0,0,1,300.43,220.84Zm-5.5,0h-2.7c0,.5,0,1.45,0,2.05h2.69Zm0,2.48h-2.69v2.12h2.69Zm3.81-2.48H296v2.05h2.73Zm0,2.48H296v2.12h2.73Z"/><path d="M319.69,231.52c-3.79-2.16-5.6-5.1-6.27-9.92-.31,3.17-1.43,8.42-7.85,10.24l-.07-.14a11.4,11.4,0,0,0,5.62-6,17.25,17.25,0,0,0,1.05-4.5H308a12.5,12.5,0,0,0-2.06.16l-.35-.7c1.38.11,2.6.11,2.69.11h4c0-.42.09-1,.09-1.88a11.5,11.5,0,0,0-.39-3.17l2,.56c.16,0,.31.13.31.27s-.24.38-.59.61c0,1.17-.07,2.29-.14,3.61h4.78l.79-.94c.09-.11.17-.22.26-.22a.73.73,0,0,1,.33.18l1.17.94a.4.4,0,0,1,.18.27c0,.2-.18.2-.26.2h-7.07a15.28,15.28,0,0,0,1.32,3.78c1.29,2.7,3.46,4.16,6.67,5v.14A3.24,3.24,0,0,0,319.69,231.52Z"/><path d="M341.1,230.73H328.54c0,.54,0,1.26-.87,1.26a.5.5,0,0,1-.52-.56c0-.18,0-.36,0-.49,0-.34.14-7.33.14-11.31a16.23,16.23,0,0,0-.19-3.47l1.59.72h9.51l.72-.9c.1-.14.17-.23.28-.23s.14.05.33.19l1.12.9c.08.08.17.17.17.27s-.16.2-.26.2h-6.16v3.51h3l.48-.48c.14-.15.19-.2.26-.2s.1,0,.21.14l.84.76c.12.11.17.16.17.27s-.45.47-.65.58c0,.64.14,3.51.14,4.08a.83.83,0,0,1-.89.92c-.42,0-.42-.27-.4-.86h-3.23v4.26h4.23l.78-.93c.14-.18.19-.24.28-.24s.16.08.33.2l1.19.94a.35.35,0,0,1,.17.27C341.37,230.69,341.22,230.73,341.1,230.73Zm-7.88-13.42h-4.68v3.51h4.68Zm4.4,3.95h-9.08v4.34h9.08ZM333.17,226h-4.63v4.26h4.63Z"/><path d="M352.74,232.53a11.24,11.24,0,0,1,0-17.43l.16.25a12.44,12.44,0,0,0,0,16.92Z"/><path d="M359,230.65v-.57h1.09c1,0,1.38-.33,1.38-1.1v-9.79c0-.6-.65-.67-.95-.67H359V218h.35a8.28,8.28,0,0,0,3.21-.75.59.59,0,0,1,.28-.11c.16,0,.21.11.21.25V229c0,.81.46,1.1,1.38,1.1h1.08v.57Z"/><path d="M371.78,232.53l-.16-.26a12.44,12.44,0,0,0,0-16.92l.16-.25a11.26,11.26,0,0,1,0,17.43Z"/><path d="M390.65,218.55h-3c1,.64,1.43.94,1.43,1.61a.72.72,0,0,1-.66.79c-.49,0-.52-.27-.65-1.06a4.55,4.55,0,0,0-.38-1.34h-.77a10.18,10.18,0,0,1-3.07,3.12l-.07-.09a23,23,0,0,0,3-5.17,2.71,2.71,0,0,0,.1-1l1.61.86a.26.26,0,0,1,.15.24c0,.18-.26.27-.69.41l-.77,1.17h1.95l.53-.66c.08-.11.19-.24.26-.24s.19.09.33.2l.79.67a.45.45,0,0,1,.17.27C390.91,218.52,390.75,218.55,390.65,218.55Zm7,8.11c-.49,2.36-.73,3.62-3.16,3.9a2.94,2.94,0,0,0-1.33-1.9l0-.11a12.32,12.32,0,0,0,2,.3c.54,0,1-.16,1.31-2.62h-5.08c0,.62.05,3.7.07,4.41,0,.09,0,.61,0,.73a.79.79,0,0,1-.86.76c-.23,0-.47-.07-.47-.54,0-.88.09-3.87.1-4.81a14.74,14.74,0,0,1-6.52,4.7l0-.14a22.61,22.61,0,0,0,5.53-5.11h-3.45c-.21.82-.3,1.15-.89,1.15-.4,0-.61-.15-.61-.44,0-.05.19-.61.31-.93a9.54,9.54,0,0,0,.73-3.4l1.42.82h3.56c0-.16,0-1.49,0-1.78h-2.63a11.14,11.14,0,0,0-2.06.18l-.35-.72c.85.07,1.83.11,2.69.11H395l.47-.47a.31.31,0,0,1,.19-.11.44.44,0,0,1,.24.11l.82.65a.29.29,0,0,1,.14.22c0,.16-.19.3-.56.55,0,.27.07,1.52.07,1.7,0,.61-.69.68-.82.68-.45,0-.43-.4-.42-.68h-3.75v1.92h5l.61-.65c.07-.07.16-.18.23-.18s.19.11.26.18l.8.76a.29.29,0,0,1,.12.22C398.36,226.35,398.09,226.44,397.65,226.66Zm-7.35-2.79h-3.91c-.18.55-.19.7-.49,1.92h4.4Zm8-5.14h-5.08c1.31.53,1.82.74,1.82,1.5a.63.63,0,0,1-.63.67c-.44,0-.51-.27-.79-1.07a3.54,3.54,0,0,0-.68-1.1h-.66a9.62,9.62,0,0,1-2,2.24l-.09-.07c1.1-1.91,2.11-3.82,2.06-5.39l1.69.79a.25.25,0,0,1,.16.22c0,.18-.24.31-.75.47a14.82,14.82,0,0,1-.75,1.31h3.68l.58-.84c.07-.11.16-.22.26-.22a.64.64,0,0,1,.33.18l1,.85a.37.37,0,0,1,.17.27C398.57,218.7,398.43,218.73,398.31,218.73Zm-3.16,2.92h-3.77v1.78h3.77Z"/><path d="M406.64,231c-1.32,0-2.25-.72-2.25-1.57a.94.94,0,0,1,1-.94c.37,0,1,.2,1.08,1.25,0,.41.06.64.58.64a2.07,2.07,0,0,0,1.43-.63c1.73-1.76,1.85-4.43,1.92-6A4.25,4.25,0,0,1,407,225.9a3.79,3.79,0,0,1-3.53-4c0-2.46,1.93-4.73,4.19-4.73s4.54,2.32,4.54,6.21C412.19,227.52,409.64,231,406.64,231Zm2.71-12.25a2,2,0,0,0-1.59-1c-1,0-2.53.92-2.53,4,0,.94.26,3.35,2.25,3.35.72,0,2-.47,2.92-2.45A8.22,8.22,0,0,0,409.35,218.75Z"/><path d="M425.08,230.65h-7.84v-.45c.66-1.67,1.33-2.35,4.52-5.72,1.05-1.08,2.36-2.49,2.36-4.23a2.43,2.43,0,0,0-2.62-2.47c-1.4,0-2.22.76-2.22,1.41a.91.91,0,0,0,.2.55,1.45,1.45,0,0,1,.41.9,1,1,0,0,1-1,1,1.16,1.16,0,0,1-1.12-1.26c0-1.29,1.38-3.2,4.22-3.2,2.41,0,3.93,1.38,3.93,3.31s-1.17,2.83-2.91,4.21a18.5,18.5,0,0,0-4.31,4.52h3c2.85,0,3.41-1.1,3.95-2.39l.38.12Z"/><path d="M435.29,229.39c0,.51-.1,1.61-1.11,1.61a1,1,0,0,1-1-1,8.2,8.2,0,0,1,.77-2.74,44.92,44.92,0,0,1,4.8-8.34h-3.49c-2.83,0-3.28,1.21-3.7,2.36l-.51-.12.81-3.66h7.92v1C436.43,223.18,435.57,225.58,435.29,229.39Z"/><path d="M449.37,231c-2.24,0-4.52-2.31-4.52-6.22,0-4.12,2.54-7.61,5.55-7.61,1.32,0,2.25.74,2.25,1.58a.94.94,0,0,1-1,.94c-.37,0-1-.2-1.09-1.26,0-.4-.05-.65-.57-.65a2.07,2.07,0,0,0-1.43.65c-1.73,1.76-1.85,4.43-1.92,6a4.2,4.2,0,0,1,3.42-2.18,3.78,3.78,0,0,1,3.52,4C453.57,228.75,451.65,231,449.37,231Zm.19-7.91c-.72,0-2,.45-2.92,2.45a8.06,8.06,0,0,0,1.05,3.87,2,2,0,0,0,1.59,1c1,0,2.53-.91,2.53-4C451.81,225.51,451.53,223.09,449.56,223.09Z"/><path d="M474,222.79h-8.66c-.45.86-1,2.05-1.19,2.59H469l.63-.56a.48.48,0,0,1,.26-.14c.09,0,.19.1.28.19l.87.83a.47.47,0,0,1,.16.29c0,.24-.33.32-.87.49-.79,3.76-1.19,5.74-4.51,5.67a3,3,0,0,0-1.74-2.05l0-.11a14.69,14.69,0,0,0,3,.47c.87,0,1.41-.6,2.06-4.65h-5.17a20.2,20.2,0,0,1-1,2.05.78.78,0,0,1-.68.31c-.3,0-.68-.16-.68-.45a.88.88,0,0,1,.1-.36c1.05-2.05,1.17-2.31,2.18-4.57h-3.26a11.15,11.15,0,0,0-2.06.16l-.35-.7c1.38.1,2.38.1,2.69.1h10.67l.78-1c.09-.1.18-.21.28-.21a.66.66,0,0,1,.31.18l1.09,1a.4.4,0,0,1,.17.27C474.21,222.79,474,222.79,474,222.79Zm-3.58-5.48c0,.71,0,2.49,0,3.15,0,.26,0,.74-.75.74-.56,0-.6-.27-.54-.88h-6c0,.45,0,1-.86,1a.46.46,0,0,1-.47-.47c0-.13.07-.7.07-.83,0-.63.09-1.48.09-2.36a8.12,8.12,0,0,0-.21-2l1.62.79H469l.35-.43c.07-.09.17-.2.24-.2a.74.74,0,0,1,.28.14l.84.53a.42.42,0,0,1,.19.3C470.86,216.88,470.74,217,470.37,217.31Zm-1.26-.45h-6v3h6Z"/><path d="M45.15,253.61a10.61,10.61,0,0,1,0-16.45l.15.23a11.76,11.76,0,0,0,0,16Z"/><path d="M54.44,240.1c-1.6,2.51-2.86,4.4-6,6.29l-.08-.12c2.65-2.64,5-6.12,4.86-7.86l1.69,1a.37.37,0,0,1,.19.29C55.09,239.91,55,240,54.44,240.1Zm6.81,12.32c-.4,0-.68-.27-.88-.75l-.69-1.61a77.14,77.14,0,0,1-8.23,2.07c-.28.38-.36.46-.51.46s-.23-.17-.27-.27l-.54-1.77a6.74,6.74,0,0,0,1.35.15c.13,0,1.09-.08,1.29-.1A32.61,32.61,0,0,0,55,244.47a3.66,3.66,0,0,0,.05-1l1.71.75c.1.05.25.13.25.29s-.2.29-.56.4c-.18.31-.31.55-1.52,2.72-.49.87-1,1.79-1.76,2.91,1.9-.2,4.24-.49,6.35-.78a9.28,9.28,0,0,0-2-2.23l.05-.12c1.93.73,4.37,2.43,4.37,4.1C62,252.27,61.45,252.42,61.25,252.42Zm1-6.58a9,9,0,0,1-3.1-2.79A8.57,8.57,0,0,1,57.59,239a13.38,13.38,0,0,0-2.17.19l-.34-.68c.43,0,1.27.08,2.13.08l.47-.57c.12-.14.19-.23.27-.23s.18.07.34.19l.73.55a.33.33,0,0,1,.17.25c0,.15-.12.22-.38.34l-.76.31a7,7,0,0,0,5.89,4.86v.12A2.65,2.65,0,0,0,62.3,245.84Z"/><path d="M72.16,247.05c-.38,0-.56-.32-.69-.58a11,11,0,0,0-1.35-2.17c0,4.5,0,5,0,6.23,0,.26.07,1.4.07,1.62a.76.76,0,0,1-.81.76.45.45,0,0,1-.51-.52c0-.19.06-1,.06-1.18,0-1.31,0-1.65.09-5.81a12.85,12.85,0,0,1-3.27,2.5l-.06-.12a25.93,25.93,0,0,0,5-6.44H68.37a11,11,0,0,0-2,.15l-.31-.66c1.12.08,2.29.1,2.52.1h.43a8.74,8.74,0,0,0-.43-3.33l1.9.56a.28.28,0,0,1,.2.22c0,.2-.2.34-.53.51a19.69,19.69,0,0,0,0,2h.59l.41-.44c.12-.12.2-.17.3-.17s.17.07.27.15l.74.68a.3.3,0,0,1,.11.24c0,.25-.26.32-.79.39a22.35,22.35,0,0,1-1.65,2.33,6.26,6.26,0,0,1,1.75.93,1.68,1.68,0,0,1,.83,1.3C72.76,246.59,72.61,247.05,72.16,247.05Zm8.66,4.84h-7a10.92,10.92,0,0,0-1.94.16l-.33-.68c1.15.1,2.39.12,2.54.12h1.61c0-1.74,0-4.49,0-6.22,0-.82,0-.94,0-1.47h-1a10.92,10.92,0,0,0-1.94.16l-.33-.69c1.1.11,2.24.12,2.54.12h.71c0-.29,0-1.41,0-1.7,0-2.73,0-3.09-.48-4.08l1.83.45c.25.05.4.17.4.32s-.31.41-.56.51c0,.42,0,3.79,0,4.5h1.67l.61-.83c.1-.13.16-.2.26-.2s.18.07.32.18l.9.82a.43.43,0,0,1,.17.27c0,.12-.13.17-.25.17H76.86v4.61l0,3.08h1.76l.78-.89c.11-.13.2-.18.28-.18a.42.42,0,0,1,.31.17l.91.86a.49.49,0,0,1,.15.27C81.07,251.84,80.92,251.89,80.82,251.89Z"/><path d="M84.4,253.61l-.15-.24a11.76,11.76,0,0,0,0-16l.15-.23a10.62,10.62,0,0,1,0,16.45Z"/><path d="M98,240.83l.46-.43c.08-.08.2-.2.26-.2a.74.74,0,0,1,.25.17l.64.49c.09.07.2.17.2.29s-.18.26-.72.46a20.7,20.7,0,0,1-1.87,2.58v.12c1.19.22,2.43.85,2.43,1.79a.65.65,0,0,1-.63.64c-.3,0-.49-.17-.71-.66a3.8,3.8,0,0,0-1.09-1.56v4c0,.26.07,3.64.07,3.76,0,.56-.18.87-.84.87-.45,0-.45-.26-.45-.5,0-1,.15-6.17.18-7.34a12.34,12.34,0,0,1-3.21,2.21l-.07-.1a24.6,24.6,0,0,0,5-6.15H95.91a11.66,11.66,0,0,0-1.93.15l-.33-.68c.69.07,1.7.12,2.42.12a9.56,9.56,0,0,0-.36-3.3l1.66.48c.09,0,.27.08.27.23s-.15.28-.48.48c0,.29,0,1.68,0,2.11Zm8.26-2,.55-.55c.06,0,.21-.22.26-.22s.2.11.31.19l.7.55c.1.08.18.17.18.25s-.15.19-.27.19h-6.18a11,11,0,0,0-1.93.15l-.33-.68c1.2.1,2.24.12,2.54.12Zm0,7.27.46-.52c.06-.09.15-.17.21-.17a.61.61,0,0,1,.23.13l.76.56a.4.4,0,0,1,.17.26c0,.1-.15.25-.5.53,0,.13,0,.37,0,.49,0,.61.13,4,.13,4.72a.7.7,0,0,1-.79.67c-.45,0-.45-.21-.41-.8h-5.18c0,.59-.18,1-.78,1-.41,0-.41-.25-.41-.41,0-.59.07-3.19.07-3.72a22.24,22.24,0,0,0-.19-3.59l1.5.9Zm-.9-5.18.4-.41c.08-.08.17-.18.23-.18s.13.06.2.11l.68.57a.38.38,0,0,1,.16.27c0,.12-.15.23-.46.4,0,.4.08,2.08.08,2.42a.71.71,0,0,1-.77.73c-.4,0-.4-.24-.4-.65h-3.56c0,.28,0,.79-.7.79-.33,0-.46-.16-.46-.6,0-.22,0-1.77,0-2.11a19.65,19.65,0,0,0-.12-2.1l1.35.76Zm-4.07,5.59v2.25h2v-2.25Zm0,2.65v2.4h2v-2.4Zm.61-7.83v2.45h3.6v-2.45Zm4.59,7.43v-2.25h-2.1v2.25Zm0,2.8v-2.4h-2.1v2.4Z"/><path d="M124.8,239.83c0,.62.08,9.79.08,11,0,1.08,0,2-1.86,2.38-.23-.94-.83-1.26-1.67-1.72l0-.12c.33,0,1.34.14,1.63.14s.55-.07.6-.27.06-5.27.06-6,0-5.61,0-6.11h-9.84c0,.62,0,7.24,0,8.43,0,.73.06,4,.06,4.61a.84.84,0,0,1-.89.94c-.24,0-.48-.09-.48-.65,0-.24.12-1.31.12-1.51,0-1.16.07-7.47.07-8.6a30.48,30.48,0,0,0-.19-4.42l1.59.8h9.4l.43-.5c.07-.08.11-.13.21-.13a.42.42,0,0,1,.2.1l.89.66c.12.09.2.14.2.27S125.34,239.45,124.8,239.83ZM123,243.77h-3.8v5.37h1.6c0-2,0-2.24,0-3a3.32,3.32,0,0,0-.25-1.13l1.45.26c.15,0,.35.08.35.29s-.07.22-.41.42c0,.27,0,1.57,0,1.87s0,1.58,0,1.87a.7.7,0,0,1-.76.75c-.46,0-.45-.24-.43-.95h-4.26c0,.12,0,.66,0,.78a.72.72,0,0,1-.73.82.43.43,0,0,1-.46-.48c0-.19.08-.73.08-2.47a10.6,10.6,0,0,0-.21-3.22l1.53.37c.14,0,.28.07.28.24s0,.17-.49.47v3.08h1.57v-5.37h-1.65a11.9,11.9,0,0,0-1.93.15l-.33-.68c1.32.12,2.27.12,2.54.12h1.89a9.33,9.33,0,0,0,1-3.84l1.69,1a.26.26,0,0,1,.16.22c0,.22-.25.29-.71.37-.44.51-1.2,1.5-1.78,2.26h2.19l.56-.66c.1-.1.19-.21.25-.21s.2.09.32.17l.77.67a.33.33,0,0,1,.17.25C123.27,243.75,123.1,243.77,123,243.77Zm-5.69-.85c-.41,0-.53-.36-.76-1.07a4.73,4.73,0,0,0-.91-1.84l.08-.1c.22.09,2.28,1,2.28,2.24A.73.73,0,0,1,117.33,242.92Z"/><path d="M133.34,249.77a10,10,0,0,1-4.52,2.68l0-.1a15.82,15.82,0,0,0,2.83-2.55c.78-.88.86-1.15.93-1.53l1.3.89a.35.35,0,0,1,.21.29C134.06,249.65,133.73,249.75,133.34,249.77ZM143.6,248h-6.75c0,.32,0,1.1,0,2.12,0,.68.08,1.75.08,2.43a.84.84,0,0,1-.91.85c-.29,0-.47-.12-.47-.52s.09-2.32.09-2.71c0-1.2,0-1.85,0-2.17h-4.44c0,.78-.84.78-.9.78-.37,0-.42-.26-.42-.48s.1-1.58.12-1.88c0-1.24.05-2.35.05-3.68a19.9,19.9,0,0,0-.18-4.21l1.55.49c.16,0,.33.1.33.26s-.22.32-.51.52c-.05,1.09-.07,2.21-.07,3.3,0,.49,0,3.88,0,4.49h10.07l.8-.9c.1-.12.17-.21.28-.21s.22.12.28.17l1,.9a.37.37,0,0,1,.16.28C143.86,248,143.71,248,143.6,248Zm-3-8.57c0,.7-.07,2.09.08,5.66,0,.05,0,.44,0,.48a.74.74,0,0,1-.81.78c-.48,0-.46-.32-.46-.78h-4.93c0,.25,0,.83-.83.83-.43,0-.44-.22-.44-.41s0-.29,0-.36c0-.39.12-3.41.12-5.18a12.06,12.06,0,0,0-.25-2.77l1.63.8h4.59l.48-.48c.11-.12.16-.19.28-.19s.2.11.25.16l.67.58a.41.41,0,0,1,.18.3C141.17,239,140.79,239.25,140.58,239.4Zm-1.15-.54h-5v1.82h5Zm0,2.22h-5v1.77h5Zm0,2.18h-5v1.87h5Zm2.44,9.16c-.43,0-.61-.31-1.06-1a6.9,6.9,0,0,0-2.42-2.44l.05-.12c2.29.39,4.14,1.8,4.14,2.89A.69.69,0,0,1,141.87,252.42Z"/><path d="M160.06,241.49a10.41,10.41,0,0,0-1.49,1l-.08,0a9.23,9.23,0,0,0,.51-1.75h-9.6c0,1.9-1,2.8-1.67,2.8a.69.69,0,0,1-.7-.66c0-.43.37-.73.84-1.11a3,3,0,0,0,1.27-2.11h.09a3.11,3.11,0,0,1,.14.67h4.25a6.36,6.36,0,0,0-.33-2.71l1.72.51c.18.05.25.16.25.26s-.12.25-.5.53v1.41h4.17l.52-.5a.51.51,0,0,1,.31-.17c.11,0,.23.12.31.21l1,.95a.63.63,0,0,1,.2.43C161.23,241.35,161.14,241.49,160.06,241.49Zm.95,10.59c-.71.53-2.72.54-3.66.54-3.74,0-4.5,0-4.57-1.66,0-.27,0-2.62,0-3l-3.39.64a9.9,9.9,0,0,0-1.88.51l-.45-.61c.84-.09,1.68-.19,2.53-.34l3.19-.61c0-.43,0-2.53,0-3a21.68,21.68,0,0,1-5.31.95v-.12c.24-.05,7.49-2.09,8.71-3.82l1.1,1.12a.38.38,0,0,1,.12.29c0,.15-.17.22-.25.22l-.59,0a25.13,25.13,0,0,1-2.63,1c0,.45,0,2.66,0,3.16l5-.94.61-1c.08-.13.15-.25.25-.25a.82.82,0,0,1,.3.12l1.12.66a.38.38,0,0,1,.21.27c0,.14-.1.17-.21.19l-7.28,1.37c0,1.3,0,2.23,0,3.1a.51.51,0,0,0,.33.54,12.87,12.87,0,0,0,3,.14c2.51,0,2.79,0,3.3-3.18h.1c.08.46.2,1.16.31,1.73s.13.65.33.84.27.24.27.41C161.61,251.62,161.26,251.91,161,252.08Z"/><path d="M170.38,243.72h-1.93v5.47c1.33-.41,1.71-.56,2.09-.7l.07.14a18.94,18.94,0,0,1-2.38,1.45l-2,1c-.15.36-.21.54-.41.54s-.21-.12-.26-.2l-.86-1.51a6.71,6.71,0,0,0,2.7-.46c0-.58,0-3.16,0-3.69v-2.09h-.33a11.11,11.11,0,0,0-1.95.15l-.31-.68c1,.08,2,.12,2.59.12,0-.85,0-1.7,0-2.55a9.83,9.83,0,0,0-.21-2.52l1.67.58c.08,0,.23.1.23.26s-.33.46-.56.61c0,1.19,0,1.77-.05,3.62h.39l.5-.56c.15-.17.19-.22.28-.22s.2.12.28.18l.58.56a.4.4,0,0,1,.14.26C170.62,243.7,170.48,243.72,170.38,243.72Zm7.37,8.7c-.38.07-3.3.07-3.76.07-2.71,0-3.19-.14-3.19-2,0-.66,0-3.59,0-4.18,0-.17,0-.94,0-1.09a8.91,8.91,0,0,0-1.6.9l-.56-.47c.89-.31,1.91-.77,2.16-.89v-3a9.38,9.38,0,0,0-.18-2l1.53.55c.12,0,.25.1.25.23s-.13.28-.53.56c0,.51,0,2.72,0,3.17l1.79-.84c0-1.7,0-2.9,0-4.09a11,11,0,0,0-.2-1.5l1.59.54c.16.06.28.14.28.26s-.23.36-.58.63c0,1.53,0,1.75,0,3.69l1.6-.73.39-.68c.09-.14.17-.29.28-.29a.56.56,0,0,1,.32.13l.77.5a.33.33,0,0,1,.17.27c0,.2-.18.37-.41.59,0,5.1,0,6.28-2,6.8a2.18,2.18,0,0,0-1-1.43v-.08a3.92,3.92,0,0,0,.51,0c1.16,0,1.34-.15,1.34-3.74,0-1.15,0-1.34,0-1.83l-2,.92c0,2.49,0,4.13,0,4.58,0,.23.05,1.23.05,1.43a.78.78,0,0,1-.84.85c-.23,0-.39-.08-.39-.44,0-.19,0-1.05,0-1.22,0-1.09,0-1.74,0-4.73l-1.79.83c0,.69,0,5.9,0,6.11a.56.56,0,0,0,.4.47c.21.07,2.57.07,2.89.07,1.7,0,2.21,0,2.55-.63a14.33,14.33,0,0,0,.73-2.06h.11a6.4,6.4,0,0,0,.32,2c.1.17.38.32.38.49S179,252.2,177.75,252.42Z"/><path d="M196.15,252.59c-6-.08-8.56-.12-10.79-2.34a7.85,7.85,0,0,1-3.36,2.94l-.1-.11a10.54,10.54,0,0,0,2.85-3.53,8.44,8.44,0,0,1-1.53-3.28l.17-.14a7.58,7.58,0,0,0,1.66,2.79,12,12,0,0,0,.92-4.62h-1.38c-.33.95-.41,1.2-1,1.2-.11,0-.59,0-.59-.39,0-.1.25-.8.39-1.21.86-2.27,1.54-4.13,1.74-4.87h-.6a10.72,10.72,0,0,0-1.94.15l-.32-.68c.84.07,1.69.12,2.53.12h.29l.43-.36c.15-.12.23-.17.32-.17a.63.63,0,0,1,.28.17l.64.56a.37.37,0,0,1,.16.31c0,.2-.33.35-.75.54-.37,1-.58,1.53-1.49,4.22h1.12l.45-.36a.64.64,0,0,1,.31-.17c.12,0,.2.07.32.19l.51.54a.57.57,0,0,1,.19.36c0,.15-.16.25-.51.47a12,12,0,0,1-1.35,4.68,8.88,8.88,0,0,0,5.74,1.68,37.2,37.2,0,0,0,5.81-.49l0,.14A2.07,2.07,0,0,0,196.15,252.59Zm1-10.59h-2.28c.07,2,.07,2,.07,2.14,0,.34,0,.87-.8.87-.44,0-.43-.27-.41-.56h-2v1.77h2.48l.49-.65c.12-.13.18-.22.28-.22s.18.09.31.19l.75.64a.54.54,0,0,1,.16.26c0,.15-.11.18-.25.18h-4.22l0,1.81h2.93l.63-.75c.13-.16.2-.22.28-.22s.18.06.3.18l.77.75a.41.41,0,0,1,.17.29c0,.1-.1.15-.25.15H191.7c0,.21,0,1.21,0,1.43a.78.78,0,0,1-.73.61c-.53,0-.53-.3-.53-.49s.09-1.29.09-1.55h-1.12a11,11,0,0,0-1.93.16l-.33-.67c1.28.11,2.5.11,2.54.11h.85c0-.46,0-.89,0-1.81h-.5a10.63,10.63,0,0,0-1.93.16l-.33-.67c.5,0,1.42.11,2.77.11v-1.77h-.33a11.82,11.82,0,0,0-1.94.15l-.33-.66c1.18.08,2.44.1,2.6.1l0-2h-1.53a11.45,11.45,0,0,0-1.93.15l-.33-.68a23.62,23.62,0,0,0,2.52.12h1.27l0-2h-.39a12.46,12.46,0,0,0-1.95.16l-.31-.68c1.15.1,2.22.12,2.64.12a3.16,3.16,0,0,0-.25-1.59l1.58.4c.18.05.28.11.28.27s-.19.3-.46.46v.46h1.92l.41-.38a.5.5,0,0,1,.29-.17c.1,0,.19.09.3.19l.46.46a.48.48,0,0,1,.2.32c0,.14-.13.24-.46.48a10.2,10.2,0,0,0,0,1.49h.59l.48-.63c.1-.13.18-.2.27-.2a.57.57,0,0,1,.31.17l.71.63c.08.08.16.17.16.25S197.29,242,197.13,242Zm-3.39,0h-2l0,2h2.06Zm0-2.4h-2l0,2h2Z"/><path d="M204.43,246.83c0,2.06,0,2.41,0,3.4,0,.59.07,1.54.07,2.14s-.71.78-.86.78c-.36,0-.45-.22-.45-.47,0-.07,0-.7,0-.82.06-1.27.06-1.73.1-4.45a16.76,16.76,0,0,1-2,1c0,.31-.05.6-.32.6s-.28-.19-.33-.29l-.77-1.53c1,0,1.3,0,3.46-.64,0-1.5,0-3.18,0-4.48h-1.48a13.91,13.91,0,0,1-1.47,3.76l-.1,0a27.77,27.77,0,0,0,.74-5.9,3.11,3.11,0,0,0-.16-1.16l1.58.39c.13,0,.28.07.28.26s-.23.34-.49.44c-.09.8-.17,1.31-.28,1.84h1.37c0-2.4-.09-3.1-.45-3.95l1.81.55c.1,0,.25.12.25.24s-.28.35-.53.49c0,.35,0,2.16,0,2.67h.33l.46-.65c.08-.1.16-.22.25-.22a.48.48,0,0,1,.29.19l.66.64a.41.41,0,0,1,.15.26c0,.15-.15.18-.25.18h-1.89c0,1.09,0,3,0,4.08.33-.11,1.86-.66,2.16-.78l0,.12A20.8,20.8,0,0,1,204.43,246.83Zm9.73-4.61c-.13,3.55-.26,6.78-1.3,9a3.15,3.15,0,0,1-2.56,1.72,2.77,2.77,0,0,0-1.4-2l0-.12a7,7,0,0,0,2,.35c.4,0,.66,0,1.12-1.2a27,27,0,0,0,.93-8.23h-.94c-.48,3.84-2.06,8.79-6.83,10.64l-.05-.12c3.5-2.7,5-5.57,5.67-10.52h-.92c-.68,3.59-2.54,6.68-4.93,7.83l-.05-.1a14.69,14.69,0,0,0,3.78-7.73h-.83a10.74,10.74,0,0,1-2.23,3.38l-.08-.08a19.34,19.34,0,0,0,2.13-6.94,2.28,2.28,0,0,0-.08-.58l1.65.68c.16.07.24.17.24.28s-.31.3-.57.37c-.43,1.36-.71,2.06-.88,2.48h4.75l.4-.42c.1-.12.18-.19.25-.19a.72.72,0,0,1,.29.15l.78.6c.11.08.18.13.18.23C214.72,242,214.34,242.14,214.16,242.22Z"/><path d="M231.87,252.44a8.8,8.8,0,0,1-3.45-3.4,8.78,8.78,0,0,1-3.84,3c0,.61,0,1.22-.84,1.22-.51,0-.51-.32-.51-.65s.08-1.66.1-2,0-2,0-2.44A31.07,31.07,0,0,1,219,250c-.14.43-.23.57-.4.57s-.23-.12-.3-.29l-.62-1.67a4.09,4.09,0,0,0,.74.1,11.77,11.77,0,0,0,1.3-.15v-9.4a10.35,10.35,0,0,0-1.51.15l-.33-.68c1.3.12,2.52.12,2.54.12h4.35l.71-.8c.13-.15.2-.2.28-.2s.18,0,.33.18l.82.79a.41.41,0,0,1,.15.27c0,.14-.1.17-.24.17H224.5c0,6.44-.05,7.16.08,12.66a10.28,10.28,0,0,0,3.3-3.84,18.79,18.79,0,0,1-1.55-7.36,4,4,0,0,0-.84.12l-.33-.68c1.28.1,2.5.1,2.52.1H230l.46-.54c.15-.17.2-.22.28-.22s.18.05.35.18l.75.6a.52.52,0,0,1,.23.31.27.27,0,0,1-.14.28,3.94,3.94,0,0,1-.75.48,21.14,21.14,0,0,1-2.14,6.87,8.34,8.34,0,0,0,4.32,3.06v.08A2.45,2.45,0,0,0,231.87,252.44Zm-8.53-13.26H220.9v2.72h2.44Zm0,3.13H220.9v2.75h2.44Zm0,3.16H220.9v2.92c.86-.17,2.08-.39,2.44-.49Zm4.08-4.88-.76,0a20.15,20.15,0,0,0,1.7,6.43,18.3,18.3,0,0,0,1.6-6.46Z"/><path d="M238.43,242.27h2.9v-3.11H238.1a11.86,11.86,0,0,0-1.95.15l-.31-.66c1.09.09,2.21.1,2.52.1h2.89l.38-.42c.08-.09.15-.19.26-.19a.87.87,0,0,1,.25.1l.64.43c.09.05.25.14.25.32s-.16.31-.58.6c0,.51.07,2.77.07,3.21a.67.67,0,0,1-.15.47.88.88,0,0,1-.67.28c-.37,0-.47-.17-.38-.87h-3.15c-.07.39-.45,2.74-.47,2.82h3.37l.46-.52a.37.37,0,0,1,.28-.19.52.52,0,0,1,.26.12l.68.51a.38.38,0,0,1,.18.3c0,.21-.23.36-.49.5-.18,2.21-.81,4.5-1.7,5.55a3.59,3.59,0,0,1-2.61,1.11,3.32,3.32,0,0,0-1.27-1.92v-.1a9.7,9.7,0,0,0,2.23.35c.35,0,.74,0,1.14-.76a11.08,11.08,0,0,0,1-4.54h-3.62a5.58,5.58,0,0,1-.19,1.26,1,1,0,0,1-.83.47.39.39,0,0,1-.44-.39c0-.15.46-2.12.52-2.48a14.47,14.47,0,0,0,.3-3.25Zm10.37-3.89c.15,0,.3.05.3.24s-.15.34-.56.58c0,.32,0,4.48,0,7.71,0,.82.13,4.46.13,5.2a.81.81,0,0,1-.22.67,1.35,1.35,0,0,1-.74.27c-.38,0-.44-.31-.44-.56s0-.21,0-.43c.08-1.37.08-3.14.08-3.84,0-6.34,0-8-.06-8.55a10.71,10.71,0,0,0-.3-1.7Z"/><path d="M267.69,241.49h-5.15l.86.53c.06,0,.16.15.16.24s-.31.23-.61.25a18.77,18.77,0,0,1-1.45,1.38h2.82l.64-.75c.09-.1.19-.2.27-.2a.68.68,0,0,1,.3.16l.75.75a.37.37,0,0,1,.15.26c0,.17-.13.19-.24.19h-5.27c0,.2,0,1.14,0,1.32h2.33l.57-.61c.1-.1.2-.2.28-.2s.17.08.32.18l.81.58c.08.07.18.15.18.27s-.14.19-.25.19h-4.24v1.48h4.24l.74-.87c.12-.13.17-.2.27-.2s.21.1.29.17l.91.86c.08.09.16.16.16.28s-.14.17-.26.17h-6a9.87,9.87,0,0,0,6.43,3.28l0,.1a2.78,2.78,0,0,0-1.52,1.38,10.55,10.55,0,0,1-5.21-4.76h-.05c0,1.54,0,1.85,0,2.17s.1,2.08.1,2.43a.76.76,0,0,1-.84.7c-.44,0-.48-.27-.48-.53s.05-1,.07-1.39c0-.56,0-.82.05-3.18a12.29,12.29,0,0,1-6.55,4.59l0-.1a15.39,15.39,0,0,0,5.28-4.69h-2.92a11.6,11.6,0,0,0-2,.15l-.33-.68c1.1.1,2.23.12,2.54.12h4V246H257a12,12,0,0,0-2,.15l-.32-.68c1.13.1,2.32.12,2.54.12h2.62V244.3H256.4a11.59,11.59,0,0,0-1.93.15l-.33-.68c1.11.1,2.26.12,2.54.12h4.49a8.64,8.64,0,0,0,.83-2.4h-4.69c1,.32,1.83.83,1.83,1.65a.65.65,0,0,1-.66.68c-.38,0-.43-.1-.82-1.12a4.07,4.07,0,0,0-.68-1.21h-1.71a10.06,10.06,0,0,0-2,.15L253,241c1.12.11,2.29.12,2.52.12h3.1a12.08,12.08,0,0,0-.28-3.5l1.6.48c.15.05.23.1.23.25s-.18.29-.49.41v2.36h1.22c0-2.16,0-2.65-.35-3.5l1.68.46c.1,0,.28.08.28.25s-.39.4-.54.45v2.34h.71a12.43,12.43,0,0,0,.86-2.38,3.83,3.83,0,0,0,.08-.81l1.47.76a.28.28,0,0,1,.19.24c0,.26-.39.31-.57.32-.51.56-1.39,1.53-1.72,1.87h2.59l.71-.76c.13-.14.2-.22.26-.22a.58.58,0,0,1,.33.18l.86.75c.1.09.18.16.18.27S267.79,241.49,267.69,241.49ZM257,240.71c-.39,0-.51-.27-.82-1a3.72,3.72,0,0,0-1-1.34l.07-.12c.66.17,2.31.63,2.31,1.82A.63.63,0,0,1,257,240.71Z"/><path d="M275.9,242.07h-2.33c0,3.72,0,4.54,0,5.57,0,.75,0,4.07,0,4.75,0,.3,0,.83-.81.83a.44.44,0,0,1-.48-.48c0-.25.1-1.42.12-1.68,0-1.22,0-1.75.06-5,0-2.39,0-2.53,0-4a12,12,0,0,0-1.88.15l-.33-.66c.47,0,1,.08,2.21.1,0-2.51,0-3.38-.38-4.1l1.82.53a.26.26,0,0,1,.21.24c0,.17-.05.2-.57.51,0,.46,0,2.43,0,2.82h.77l.5-.54c.08-.1.18-.22.26-.22a.58.58,0,0,1,.3.18l.59.56a.37.37,0,0,1,.15.26C276.14,242.05,276,242.07,275.9,242.07Zm3.81,5.22c-.43,4.76-.93,5.44-2.68,5.62-.16-.95-.21-1.14-.87-1.68l0-.13a4,4,0,0,0,1.32.28c.43,0,.53-.1.79-1.42a16.53,16.53,0,0,0,.36-3.15h-1.2c-.31,2-1.16,4.71-3.56,5.93l-.07-.08a8.86,8.86,0,0,0,2.57-5.83,9.21,9.21,0,0,0-1.65.15l-.33-.68c.61,0,1.09.09,2,.1a6.72,6.72,0,0,0-.1-2.05l1.5.54a.26.26,0,0,1,.21.24c0,.14-.36.37-.44.42,0,.33,0,.46-.08.85h1l.4-.42c.12-.12.17-.17.23-.17s.15.08.22.15l.67.61a.34.34,0,0,1,.13.24C280.18,246.93,280.13,247,279.71,247.29Zm3.81-6.9c-.73,3.43-1.87,3.55-2.86,3.67a2.38,2.38,0,0,0-1-1.8l.07-.11a4.55,4.55,0,0,0,1.48.41c.85,0,1.22-1.95,1.41-2.89h-2.43a6.51,6.51,0,0,1-4.57,4.76v-.1a8,8,0,0,0,3.48-4.66h-.86a9.49,9.49,0,0,0-1.95.16l-.33-.68c1.14.1,2.31.11,2.54.11h.7a8.1,8.1,0,0,0,.11-1.19,1.64,1.64,0,0,0-.11-.66l1.68.53a.18.18,0,0,1,.15.17c0,.1-.27.27-.53.44-.1.41-.13.53-.18.71h2.12l.27-.34a.39.39,0,0,1,.28-.15.34.34,0,0,1,.23.1l.87.75a.28.28,0,0,1,.14.22C284.18,240,283.76,240.25,283.52,240.39Zm1.76,6.61a2.38,2.38,0,0,0-.35.24c0,1.78-.24,4.08-.75,4.93a2.32,2.32,0,0,1-2,1,2.91,2.91,0,0,0-.94-1.67l.05-.13a4.35,4.35,0,0,0,1.4.29c.66,0,.71-.31.91-1.43a22.53,22.53,0,0,0,.24-3.37h-1.22c-.43,2.47-1.05,4.68-3.84,6.1l-.05-.08a9.61,9.61,0,0,0,2.87-6,4.5,4.5,0,0,0-.76.11l-.33-.68c.56,0,.81.06,1.16.08,0-.17,0-.59,0-1.24a3.86,3.86,0,0,0-.13-1.28l1.57.58a.32.32,0,0,1,.21.26c0,.18-.42.41-.51.46-.06.63-.1.91-.16,1.24h1l.42-.49c.06-.08.15-.17.19-.17a.44.44,0,0,1,.25.12l.79.61a.38.38,0,0,1,.15.22C285.51,246.86,285.4,246.93,285.28,247Z"/><path d="M302.17,244.77a12.89,12.89,0,0,1-6-6.12l-.07,0a18.72,18.72,0,0,1-7.55,6.82l0-.11a22.69,22.69,0,0,0,6.07-6.78,3,3,0,0,0,.49-1.16l1.67.55c.08,0,.26.12.26.29s-.16.24-.51.32a11,11,0,0,0,7.29,4.76v.12A3.22,3.22,0,0,0,302.17,244.77Zm.13,2.38h-6.62A25,25,0,0,1,293,251c2-.13,4.59-.39,6.45-.62a9.63,9.63,0,0,0-1.81-2.35l.1-.1c2.26,1.05,4.05,2.77,4.05,4.2,0,.27-.18.83-.72.83s-.76-.46-1-1.06a7.78,7.78,0,0,0-.5-1.24c-1.34.43-7.41,1.75-8.35,1.91-.1.22-.14.37-.29.37s-.22-.17-.27-.3L290,251a6.58,6.58,0,0,0,1.47.15c.34,0,.67,0,1.19-.05a25.73,25.73,0,0,0,1.35-3.91h-2.33a12,12,0,0,0-1.93.15l-.33-.66c1.31.1,2.25.1,2.53.1h7.91l.85-.93c.11-.14.19-.21.28-.21s.18.09.29.17l1.14.94a.37.37,0,0,1,.17.25C302.55,247.15,302.38,247.15,302.3,247.15Zm-3.61-2.94h-4.24a12,12,0,0,0-1.95.15l-.33-.68c1.14.11,2.33.12,2.54.12h1.85l.74-.85c.08-.08.17-.2.26-.2a.61.61,0,0,1,.3.17l.91.85c.08.08.16.15.16.27S298.79,244.21,298.69,244.21Z"/><path d="M320,244.77a12.89,12.89,0,0,1-6-6.12l-.07,0a18.67,18.67,0,0,1-7.56,6.82l-.05-.11a22.58,22.58,0,0,0,6.08-6.78,3.16,3.16,0,0,0,.49-1.16l1.67.55c.08,0,.26.12.26.29s-.17.24-.51.32a10.93,10.93,0,0,0,7.29,4.76v.12A3.22,3.22,0,0,0,320,244.77Zm.13,2.38h-6.62a25,25,0,0,1-2.72,3.89c2-.13,4.59-.39,6.45-.62a9.63,9.63,0,0,0-1.81-2.35l.1-.1c2.26,1.05,4.05,2.77,4.05,4.2,0,.27-.18.83-.72.83s-.76-.46-1-1.06a7,7,0,0,0-.49-1.24c-1.34.43-7.41,1.75-8.35,1.91-.1.22-.15.37-.29.37s-.22-.17-.27-.3l-.69-1.72a6.58,6.58,0,0,0,1.47.15c.34,0,.67,0,1.18-.05a24.71,24.71,0,0,0,1.36-3.91h-2.33a12,12,0,0,0-1.93.15l-.33-.66c1.31.1,2.25.1,2.53.1h7.91l.84-.93c.12-.14.2-.21.29-.21s.18.09.29.17l1.14.94a.37.37,0,0,1,.17.25C320.36,247.15,320.19,247.15,320.11,247.15Zm-3.61-2.94h-4.24a12,12,0,0,0-1.95.15l-.33-.68c1.14.11,2.33.12,2.54.12h1.85l.74-.85c.08-.08.16-.2.26-.2a.61.61,0,0,1,.3.17l.91.85c.08.08.16.15.16.27S316.59,244.21,316.5,244.21Z"/><path d="M324.11,253.08a17.09,17.09,0,0,0,3.78-2.17,3.18,3.18,0,0,0,1.09-1.19l1.42.92c.06.05.18.15.18.27s-.42.27-.94.29a13.21,13.21,0,0,1-5.51,2Zm11.05-10.23.41-.42c.07-.07.17-.21.27-.21s.13.05.25.14l.71.56a.45.45,0,0,1,.21.32c0,.15-.23.32-.61.55,0,.71.1,5.21.1,5.64a.81.81,0,0,1-.79.83c-.47,0-.45-.41-.43-.66h-7.44c0,.41-.07.9-.79.9a.44.44,0,0,1-.48-.51c0-.24.06-.82.06-1,0-.48.07-2.33.07-4.17a9.33,9.33,0,0,0-.18-2.6l1.53.58Zm-.41-4.27.48-.49c.08-.08.16-.19.23-.19a.37.37,0,0,1,.23.12l.71.56a.37.37,0,0,1,.15.26c0,.15-.17.31-.55.56,0,.31,0,1.7,0,2a.68.68,0,0,1-.7.7c-.52,0-.51-.38-.47-.68H328.3c0,.25,0,.78-.73.78-.47,0-.47-.31-.47-.51s.06-1.63.06-1.94a7.82,7.82,0,0,0-.15-2l1.54.88Zm-6.89,4.68v1.61h7.42v-1.61Zm0,2v1.6h7.42v-1.6Zm0,2v1.9h7.42v-1.9Zm.44-8.3v2h6.57v-2Zm4.54,11c2.14.13,4.8,1.22,4.8,2.51a.63.63,0,0,1-.66.68c-.42,0-.63-.22-1.09-.71a10.37,10.37,0,0,0-3.07-2.41Z"/><path d="M365.85,253.61a10.61,10.61,0,0,1,0-16.45l.15.23a11.76,11.76,0,0,0,0,16Z"/><path d="M381,245l.87-1c.1-.12.15-.21.26-.21s.19.1.28.19l1.19,1.1c.08.09.17.16.17.26s-.15.19-.25.19H371.6a11.69,11.69,0,0,0-1.94.15l-.32-.78c1.24.12,2.43.12,2.53.12Z"/><path d="M392.86,247.05c-.38,0-.56-.32-.69-.58a10.56,10.56,0,0,0-1.36-2.17c0,4.5,0,5,0,6.23,0,.26.07,1.4.07,1.62a.76.76,0,0,1-.81.76.45.45,0,0,1-.51-.52c0-.19.06-1,.06-1.18.05-1.31,0-1.65.09-5.81a13,13,0,0,1-3.27,2.5l-.07-.12a25.46,25.46,0,0,0,5-6.44h-2.3a10.93,10.93,0,0,0-1.95.15l-.31-.66c1.12.08,2.29.1,2.52.1h.43a9,9,0,0,0-.43-3.33l1.9.56a.27.27,0,0,1,.19.22c0,.2-.19.34-.52.51a14.78,14.78,0,0,0,0,2h.59l.41-.44c.12-.12.2-.17.3-.17s.16.07.26.15l.75.68a.3.3,0,0,1,.11.24c0,.25-.26.32-.79.39a24.1,24.1,0,0,1-1.65,2.33,6.4,6.4,0,0,1,1.75.93,1.67,1.67,0,0,1,.82,1.3C393.45,246.59,393.3,247.05,392.86,247.05Zm8.66,4.84h-7a10.92,10.92,0,0,0-1.94.16l-.33-.68c1.15.1,2.39.12,2.54.12h1.61c0-1.74,0-4.49,0-6.22,0-.82,0-.94,0-1.47h-1a10.92,10.92,0,0,0-1.94.16l-.33-.69c1.1.11,2.24.12,2.54.12h.71c0-.29,0-1.41,0-1.7,0-2.73,0-3.09-.48-4.08l1.83.45c.25.05.4.17.4.32s-.32.41-.56.51c0,.42,0,3.79,0,4.5h1.67l.61-.83c.1-.13.16-.2.26-.2a.6.6,0,0,1,.31.18l.91.82a.43.43,0,0,1,.17.27c0,.12-.14.17-.25.17h-3.68v4.61l0,3.08h1.76l.78-.89c.11-.13.2-.18.28-.18a.42.42,0,0,1,.31.17l.91.86a.49.49,0,0,1,.15.27C401.77,251.84,401.62,251.89,401.52,251.89Z"/><path d="M405.09,253.61l-.15-.24a11.74,11.74,0,0,0,0-16l.15-.23a10.61,10.61,0,0,1,0,16.45Z"/><path d="M428.4,251.47a6.35,6.35,0,0,1-2.81.44c-1.63,0-2.64-.07-2.64-1.92,0-.73.24-3.06.5-6,.05-.53.07-.75.13-1.55H421c-.29,3.05-.79,8.11-6.63,9.73l-.05-.11a9.5,9.5,0,0,0,4.23-4.18c.48-.9.92-2,1.25-5.44h-2.59a11.24,11.24,0,0,0-2,.16l-.31-.68c1.12.1,2.29.11,2.52.11h2.36c0-.66.07-1.3.07-2a6.12,6.12,0,0,0-.25-2.28l1.77.38c.1,0,.38.08.38.27s-.4.43-.55.49c0,.5-.18,2.67-.21,3.11h2.31l.77-.62a.66.66,0,0,1,.3-.17c.1,0,.2.1.3.2l.69.68a.48.48,0,0,1,.18.32c0,.14-.08.19-.86.61-.33,2.18-.56,6-.56,6.68,0,.86.36.94,1.22.94,2,0,2-.07,2.61-3.09h.11a10,10,0,0,0,.47,2.58,3.4,3.4,0,0,1,.26.29.35.35,0,0,1,.1.24A1.14,1.14,0,0,1,428.4,251.47Z"/><path d="M436.13,238.24c.36.11.4.19.4.31s-.34.37-.48.46c0,2.55,0,4.45-.07,6-.07,1.38-.26,5.85-3.84,7.77l-.09-.1c2.33-2.4,2.89-4.73,2.89-10.46,0-3.07-.13-3.5-.49-4.4Zm-2.61,3.66a6.07,6.07,0,0,1,.38,2.11c0,1.88-.94,2-1.22,2a.61.61,0,0,1-.63-.65c0-.25.12-.42.47-.9a5.17,5.17,0,0,0,.87-2.55Zm3,0c.44.22,2,1.07,2,2.24,0,.55-.34.79-.66.79-.51,0-.61-.45-.74-.92a7.46,7.46,0,0,0-.71-2Zm4-3.66c.36.09.38.16.38.26s-.05.19-.53.46v7.1c0,.68.1,3.73.1,4.34a.81.81,0,0,1-.81.87.47.47,0,0,1-.49-.51c0-.14.05-.75.05-.89.06-1.09.06-2.28.06-3.89,0-3.77,0-6.17-.1-7.14a3.74,3.74,0,0,0-.24-1Zm.64,4.08c.81.34,2.25,1.3,2.25,2.38a.67.67,0,0,1-.68.7c-.54,0-.63-.41-.87-1.32a4.44,4.44,0,0,0-.8-1.67Zm4.16-4.21c.18,0,.35.12.35.31s-.25.32-.52.45c0,3.27,0,5.85,0,7.23,0,.92.11,5.35.11,5.81,0,1-.74,1-.82,1s-.51,0-.51-.61c0-.24,0-1.31.05-1.53,0-.64,0-1.32,0-2.6,0-5.35,0-7.14-.05-8.36a4.74,4.74,0,0,0-.41-2.08Z"/><path d="M464.15,239.72h-6.52l.58.51c.12.11.2.21.2.31s-.28.27-.69.29c-.24.37-.55.92-1.21,1.9l.94.31c.13.05.27.1.27.27s-.17.36-.57.58c0,.92,0,1.36,0,3.06,0,2.24,0,3.43.05,4.26,0,.19.05,1.13.05,1.33a.86.86,0,0,1-.86.81c-.49,0-.51-.35-.51-.59,0,0,0-.1,0-.46.08-1.68.13-4.28.13-6.12,0-1.34,0-1.77-.05-2.63-1,1.39-3.4,4.62-6.65,6.25l-.06-.1a42.64,42.64,0,0,0,5.82-7,10,10,0,0,0,1.55-3h-4.67a10.73,10.73,0,0,0-1.94.16l-.33-.68c.84.06,1.69.11,2.54.11h9.56l.75-.9c.09-.12.18-.2.28-.2a.77.77,0,0,1,.38.2l1.07.87a.39.39,0,0,1,.16.26C464.41,239.69,464.28,239.72,464.15,239.72Zm-.71,8.84c-.55,0-.73-.32-1.39-1.46a11.25,11.25,0,0,0-3.46-3.74l0-.1c2.51.54,5.46,3,5.46,4.52C464.08,248.36,463.72,248.56,463.44,248.56Z"/><path d="M476.17,241.52h-3.89v1.42h1.51l.4-.5c.08-.1.15-.17.23-.17a.43.43,0,0,1,.28.16l.61.56a.37.37,0,0,1,.15.28c0,.12-.08.24-.41.46,0,.5,0,2.66,0,3.08a.76.76,0,0,1-.77.9c-.22,0-.32-.17-.3-.44h-1.71v1.53h1.23l.45-.56c.1-.12.18-.21.28-.21s.18.07.33.19l.66.55a.36.36,0,0,1,.16.27c0,.1-.08.17-.26.17h-2.85v1.56c1.28-.22,2.22-.37,3.15-.59v.13a42.18,42.18,0,0,1-6.77,2.2c-.1.25-.2.4-.36.4a.27.27,0,0,1-.26-.2l-.76-1.48a2.91,2.91,0,0,0,.64.05,30,30,0,0,0,3.33-.35v-1.72H470a11.69,11.69,0,0,0-1.94.15l-.32-.68c1.12.1,2.3.12,2.53.12h1v-1.53h-1.7a.64.64,0,0,1-.13.56,1.08,1.08,0,0,1-.64.31c-.18,0-.32-.09-.32-.48,0-.66.05-3.53.05-4.11a9.14,9.14,0,0,0-.13-1.38l1.35.77h1.52v-1.42h-1.61a10.76,10.76,0,0,0-1.93.16l-.33-.68c1,.08,2.07.12,2.54.12h1.33v-1.33a20.1,20.1,0,0,1-2.72.22h-.77v-.12c1.84-.41,4.71-1.11,6.13-2.06l1,.93a.36.36,0,0,1,.14.26c0,.15-.15.2-.4.2a1.61,1.61,0,0,1-.35-.06,15.26,15.26,0,0,1-2,.47v1.5h2l.57-.73c.11-.14.18-.21.28-.21a.57.57,0,0,1,.31.17l.84.73a.43.43,0,0,1,.17.26C476.42,241.47,476.32,241.52,476.17,241.52Zm-4.92,1.82h-1.71v1.52h1.71Zm0,1.93h-1.71v1.59h1.71Zm2.76-1.93h-1.73v1.52H474Zm0,1.93h-1.73v1.59H474Zm7.62-2.22c0,5.7-.3,7.09-.66,8.11a2.79,2.79,0,0,1-2.41,2,2.85,2.85,0,0,0-1.78-1.9l.05-.12a10,10,0,0,0,2,.25c.4,0,.79,0,1.14-1a34.64,34.64,0,0,0,.59-6,11.79,11.79,0,0,0-.1-1.79h-1.7c0,2.76-.26,8.47-5,10.63l-.08-.1c3.76-3,3.89-7.47,4-10.53a11.39,11.39,0,0,0-1.9.16l-.33-.68c.65.05,1.09.08,2.23.12a17.63,17.63,0,0,0-.31-4.65l1.71.6c.18.07.28.15.28.27a.36.36,0,0,1-.11.24,4.19,4.19,0,0,1-.42.31v3.23h1.42l.56-.58c.14-.14.22-.19.3-.19s.17,0,.33.17l.64.53a.37.37,0,0,1,.17.29C482.19,242.65,481.94,242.85,481.63,243.05Z"/><path d="M499.55,243.84H488.32c.15,5.23-.53,7.44-2.79,9.31l-.08-.07a11.9,11.9,0,0,0,1.75-6.69,16.17,16.17,0,0,0-.37-3.73l1.64.77h5.31a19.94,19.94,0,0,0,1.25-3.32h-6.66a11,11,0,0,0-1.95.16l-.31-.68c1,.08,2.06.12,2.52.12h3.47a8.6,8.6,0,0,0-.27-2l1.72.42c.11,0,.23.07.23.24s-.4.39-.58.49v.89h3.48l.71-.82c.13-.15.18-.22.27-.22s.13,0,.29.17l1.06.83a.39.39,0,0,1,.16.26c0,.17-.13.18-.24.18h-3.34l1,.58a.2.2,0,0,1,.13.19c0,.24-.25.29-.67.39-.75.92-1.08,1.27-1.93,2.16h3.21l.61-.77c.1-.13.17-.2.25-.2s.16,0,.33.17l1.09.76c.11.09.18.16.18.26S499.67,243.84,499.55,243.84Zm.13,8.58h-9.45a11.63,11.63,0,0,0-1.94.15l-.32-.68c1.14.11,2.39.12,2.53.12h2.31v-2.43h-1.09a11.6,11.6,0,0,0-1.93.15l-.33-.67c1.12.1,2.32.11,2.54.11h.81v-2.09h-2.25a10,10,0,0,1-2.14,2.71l-.08-.06a22.25,22.25,0,0,0,2.12-5.42l1.46.65c.14.07.16.13.16.19s-.07.18-.58.44c-.13.17-.46.71-.67,1.09h2a12.28,12.28,0,0,0-.19-2.59l1.6.31c.09,0,.22,0,.22.2s-.27.32-.53.49c0,.24,0,1.35,0,1.59h2.43l.58-.82c.1-.14.18-.22.26-.22s.15.07.3.19l1,.81a.32.32,0,0,1,.17.26c0,.15-.15.18-.26.18h-4.43v2.09h2l.49-.63c.13-.15.17-.2.27-.2s.13,0,.29.17l.91.65c.13.1.16.17.16.24s-.14.18-.24.18h-3.85V252h3.57l.74-.71c.1-.09.21-.19.28-.19s.13,0,.3.17l1,.7a.37.37,0,0,1,.16.25C499.93,252.39,499.8,252.42,499.68,252.42Zm-9.23-9.25c-.4,0-.43-.12-.79-1.1a4.44,4.44,0,0,0-1-1.63l0-.09c.68.24,2.39.85,2.39,2A.74.74,0,0,1,490.45,243.17Z"/><path d="M509.07,240.1c-1.61,2.51-2.86,4.4-6,6.29l-.08-.12c2.65-2.64,5-6.12,4.86-7.86l1.69,1a.37.37,0,0,1,.19.29C509.72,239.91,509.58,240,509.07,240.1Zm6.81,12.32c-.4,0-.68-.27-.88-.75l-.69-1.61a77.14,77.14,0,0,1-8.23,2.07c-.28.38-.36.46-.51.46s-.23-.17-.27-.27l-.54-1.77a6.74,6.74,0,0,0,1.35.15c.13,0,1.09-.08,1.29-.1a32.61,32.61,0,0,0,2.21-6.13,3.66,3.66,0,0,0,.05-1l1.71.75c.1.05.25.13.25.29s-.2.29-.56.4c-.18.31-.31.55-1.52,2.72-.49.87-1,1.79-1.76,2.91,1.9-.2,4.24-.49,6.35-.78a9.28,9.28,0,0,0-2-2.23l.05-.12c1.93.73,4.37,2.43,4.37,4.1C516.6,252.27,516.08,252.42,515.88,252.42Zm1-6.58a8.87,8.87,0,0,1-3.1-2.79,8.57,8.57,0,0,1-1.61-4.06,13.38,13.38,0,0,0-2.17.19l-.34-.68c.43,0,1.27.08,2.13.08l.47-.57c.12-.14.19-.23.27-.23s.18.07.34.19l.73.55a.33.33,0,0,1,.17.25c0,.15-.12.22-.38.34l-.76.31a7,7,0,0,0,5.89,4.86v.12A2.65,2.65,0,0,0,516.93,245.84Z"/><path d="M535.37,252H523.05a11.86,11.86,0,0,0-1.95.15l-.33-.66c1.3.1,2.51.1,2.54.1h.56v-4.49c0-.91,0-3-.11-3.77a2,2,0,0,0-.17-.59l1.7.52c.13,0,.23.1.23.26s-.13.27-.49.49c0,1.07,0,6.39,0,7.58H528V239.38h-4a10,10,0,0,0-1.94.16l-.33-.68c.81.06,1.73.12,2.54.12h8.21l.71-.91c.12-.13.18-.2.27-.2a.64.64,0,0,1,.31.17l1,.9c.08.09.16.15.16.26s-.14.18-.24.18h-5.51v5.49h2.08l.65-.83c.12-.15.2-.2.29-.2a.51.51,0,0,1,.31.17l.89.83a.43.43,0,0,1,.15.27c0,.12-.1.17-.25.17h-4.12v6.34H533l.79-.92c.13-.15.23-.23.31-.23a.8.8,0,0,1,.35.2l1,.92c.08.08.15.15.15.25S535.47,252,535.37,252Z"/><path d="M552.57,252.44a8.8,8.8,0,0,1-3.45-3.4,8.78,8.78,0,0,1-3.84,3c0,.61,0,1.22-.84,1.22-.52,0-.52-.32-.52-.65s.09-1.66.1-2,0-2,0-2.44a30.72,30.72,0,0,1-4.31,1.82c-.13.43-.23.57-.39.57s-.23-.12-.3-.29l-.62-1.67a4,4,0,0,0,.74.1,11.77,11.77,0,0,0,1.3-.15v-9.4a10.37,10.37,0,0,0-1.52.15l-.33-.68c1.31.12,2.53.12,2.54.12h4.36l.71-.8c.13-.15.2-.2.28-.2s.18,0,.33.18l.82.79a.46.46,0,0,1,.15.27c0,.14-.1.17-.25.17h-2.36c0,6.44,0,7.16.09,12.66a10.28,10.28,0,0,0,3.3-3.84,18.61,18.61,0,0,1-1.55-7.36,4.17,4.17,0,0,0-.85.12l-.33-.68c1.29.1,2.51.1,2.53.1h2.27l.47-.54c.14-.17.19-.22.28-.22s.18.05.34.18l.76.6a.57.57,0,0,1,.23.31.27.27,0,0,1-.15.28,3.62,3.62,0,0,1-.74.48,21.42,21.42,0,0,1-2.14,6.87A8.34,8.34,0,0,0,554,251.2v.08A2.42,2.42,0,0,0,552.57,252.44ZM544,239.18H541.6v2.72H544Zm0,3.13H541.6v2.75H544Zm0,3.16H541.6v2.92c.86-.17,2.08-.39,2.44-.49Zm4.07-4.88-.75,0a20.39,20.39,0,0,0,1.69,6.43,18.07,18.07,0,0,0,1.6-6.46Z"/><path d="M559.13,242.27H562v-3.11H558.8a11.86,11.86,0,0,0-1.95.15l-.31-.66c1.09.09,2.21.1,2.52.1H562l.38-.42c.08-.09.15-.19.26-.19a.87.87,0,0,1,.25.1l.64.43c.08.05.25.14.25.32s-.17.31-.58.6c0,.51.07,2.77.07,3.21a.67.67,0,0,1-.15.47.88.88,0,0,1-.68.28c-.36,0-.46-.17-.38-.87h-3.15c-.06.39-.44,2.74-.46,2.82h3.37l.46-.52a.36.36,0,0,1,.28-.19.52.52,0,0,1,.26.12l.68.51a.38.38,0,0,1,.18.3c0,.21-.23.36-.49.5-.19,2.21-.81,4.5-1.7,5.55a3.59,3.59,0,0,1-2.61,1.11,3.32,3.32,0,0,0-1.27-1.92v-.1a9.7,9.7,0,0,0,2.23.35c.34,0,.74,0,1.14-.76a11,11,0,0,0,1-4.54h-3.61a5,5,0,0,1-.2,1.26,1,1,0,0,1-.82.47c-.25,0-.45-.13-.45-.39s.47-2.12.53-2.48a14.47,14.47,0,0,0,.3-3.25Zm10.37-3.89c.15,0,.3.05.3.24s-.15.34-.56.58c0,.32,0,4.48,0,7.71,0,.82.13,4.46.13,5.2a.81.81,0,0,1-.22.67,1.35,1.35,0,0,1-.74.27c-.38,0-.44-.31-.44-.56s0-.21,0-.43c.08-1.37.08-3.14.08-3.84,0-6.34,0-8-.07-8.55a9.61,9.61,0,0,0-.29-1.7Z"/><path d="M578.78,242.07h-2.32c0,3.72,0,4.54,0,5.57,0,.75.05,4.07.05,4.75,0,.3,0,.83-.81.83a.44.44,0,0,1-.48-.48c0-.25.1-1.42.11-1.68.05-1.22.05-1.75.07-5,0-2.39,0-2.53,0-4a12,12,0,0,0-1.88.15l-.33-.66c.46,0,1,.08,2.21.1,0-2.51,0-3.38-.38-4.1l1.82.53a.26.26,0,0,1,.21.24c0,.17,0,.2-.57.51,0,.46,0,2.43,0,2.82h.77l.5-.54c.08-.1.18-.22.26-.22a.58.58,0,0,1,.3.18l.59.56a.37.37,0,0,1,.15.26C579,242.05,578.9,242.07,578.78,242.07Zm3.81,5.22c-.42,4.76-.92,5.44-2.67,5.62-.16-.95-.21-1.14-.87-1.68l.05-.13a4,4,0,0,0,1.32.28c.43,0,.52-.1.79-1.42a17.42,17.42,0,0,0,.36-3.15h-1.2c-.32,2-1.16,4.71-3.57,5.93l-.06-.08a8.86,8.86,0,0,0,2.57-5.83,9,9,0,0,0-1.65.15l-.33-.68c.61,0,1.09.09,2,.1a6.53,6.53,0,0,0-.09-2.05l1.5.54a.26.26,0,0,1,.21.24c0,.14-.36.37-.44.42,0,.33,0,.46-.09.85h1l.4-.42c.11-.12.16-.17.23-.17s.15.08.21.15l.68.61a.34.34,0,0,1,.13.24C583.07,246.93,583,247,582.59,247.29Zm3.81-6.9c-.72,3.43-1.86,3.55-2.85,3.67a2.38,2.38,0,0,0-1-1.8l.07-.11a4.49,4.49,0,0,0,1.48.41c.84,0,1.22-1.95,1.4-2.89H583a6.51,6.51,0,0,1-4.57,4.76l0-.1a7.94,7.94,0,0,0,3.48-4.66h-.85a9.44,9.44,0,0,0-2,.16l-.33-.68c1.14.1,2.31.11,2.54.11H582a7,7,0,0,0,.12-1.19,1.45,1.45,0,0,0-.12-.66l1.69.53a.17.17,0,0,1,.14.17c0,.1-.26.27-.52.44-.1.41-.14.53-.18.71h2.12l.27-.34a.39.39,0,0,1,.28-.15.34.34,0,0,1,.23.1l.87.75a.27.27,0,0,1,.13.22C587.06,240,586.65,240.25,586.4,240.39Zm1.77,6.61a2.38,2.38,0,0,0-.35.24c0,1.78-.24,4.08-.76,4.93-.09.17-.52.86-2,1a2.91,2.91,0,0,0-.94-1.67l0-.13a4.39,4.39,0,0,0,1.41.29c.66,0,.71-.31.9-1.43a21.34,21.34,0,0,0,.25-3.37h-1.22c-.43,2.47-1.06,4.68-3.84,6.1l-.05-.08a9.61,9.61,0,0,0,2.87-6,4.5,4.5,0,0,0-.76.11l-.33-.68c.56,0,.81.06,1.15.08a12,12,0,0,0,0-1.24,3.86,3.86,0,0,0-.13-1.28l1.57.58a.32.32,0,0,1,.21.26c0,.18-.43.41-.51.46-.06.63-.1.91-.16,1.24h1L587,246c.06-.08.14-.17.19-.17a.44.44,0,0,1,.25.12l.79.61a.38.38,0,0,1,.15.22C588.4,246.86,588.29,246.93,588.17,247Z"/><path d="M596.68,241.17h-2.94a9.87,9.87,0,0,0-1.93.15l-.33-.68c1.12.1,2.29.12,2.52.12h1.11l.41-.61c0-.05.15-.21.27-.21s.21.11.29.17l.69.62a.33.33,0,0,1,.15.25C596.92,241.13,596.79,241.17,596.68,241.17Zm-.4,7a2.38,2.38,0,0,0,0,.36c0,.5.1,2.67.1,3.11a.68.68,0,0,1-.71.68c-.5,0-.47-.39-.43-.78h-2a4.54,4.54,0,0,1,0,1,.82.82,0,0,1-.72.46.38.38,0,0,1-.43-.41c0-.05,0-.15,0-.32.07-.56.1-2.87.1-4a10.69,10.69,0,0,0-.06-1.55l1.27.73h1.75l.28-.44c0-.05.14-.19.21-.19a.74.74,0,0,1,.3.16l.66.49a.3.3,0,0,1,.13.2C596.71,247.9,596.59,248,596.28,248.2Zm-.1-9.09h-2.29a7.9,7.9,0,0,0-1.37.1l-.22-.59c.88.07,1.67.08,1.7.08h.66l.42-.49c.08-.1.16-.2.24-.2s.15.05.32.17l.62.49a.35.35,0,0,1,.17.25C596.43,239.08,596.3,239.11,596.18,239.11Zm-.08,4.18h-2.21a7.83,7.83,0,0,0-1.37.1l-.22-.59c.73,0,1.47.08,1.8.08h.63l.35-.49s.14-.22.26-.22.25.14.3.19l.56.49a.35.35,0,0,1,.15.25C596.35,243.27,596.2,243.29,596.1,243.29Zm.11,2.15h-2.27a5.9,5.9,0,0,0-1.37.1l-.23-.6c.87.07,1.7.09,1.78.09h.58l.43-.56c0-.07.13-.21.24-.21a.67.67,0,0,1,.32.17l.61.56c.1.09.16.16.16.26S596.36,245.44,596.21,245.44Zm-1,2.46h-2v3.26h2Zm11.2-.77h-3.71a9.28,9.28,0,0,0,.43,2,7,7,0,0,0,1.07-1.63l1,.8c.08.06.14.08.14.2s-.24.24-.61.22c-.7.68-.94.92-1.27,1.21A3.15,3.15,0,0,0,605,251.4c.1,0,.23-.13.3-.22a11.31,11.31,0,0,0,1-1.63h.12a15,15,0,0,0-.3,2.17.69.69,0,0,0,.15.43.64.64,0,0,1,.2.39c0,.19-.17.39-.58.39a4.71,4.71,0,0,1-3.05-2.41,8.45,8.45,0,0,1-2.76,1.42l0-.11a13.86,13.86,0,0,0,2.46-2,9.81,9.81,0,0,1-.63-2.72h-2v1.52c.89-.26,1.24-.38,1.72-.53l.06.1a10.25,10.25,0,0,1-1.78,1c0,.45,0,2.17,0,2.43,0,1-.77,1.25-1.48,1.39-.28-.78-.31-.85-1.19-1.43v-.07a5.29,5.29,0,0,0,1.06.09c.41,0,.61,0,.66-.37s0-1.28,0-1.6c-.22.1-1.13.51-1.31.61s-.23.39-.31.39-.17-.12-.2-.22l-.48-1.22a9.26,9.26,0,0,0,2.3-.34c0-.19,0-1.18,0-1.76a10,10,0,0,0-1.9.16l-.31-.68c.79.07,1.3.08,2.21.1v-1.14a15,15,0,0,1-2,.26l0-.12c2.38-.87,2.79-1.16,3.22-1.58l.79.69a.26.26,0,0,1,.1.19c0,.2-.26.17-.43.14a4.58,4.58,0,0,1-.76.23l0,1.35h2c0-.43-.21-2.3-.29-2.67l1.32.29c.21.05.23.1.23.18s-.14.22-.38.39a15.23,15.23,0,0,0,0,1.81h2.05l.51-.73c.13-.19.19-.23.24-.23s.2.11.32.21l.72.71a.37.37,0,0,1,.15.26C606.67,247.1,606.54,247.13,606.42,247.13Zm-.36-3.36h-6.88a12,12,0,0,0-1.93.15l-.33-.66c1.31.1,2.25.1,2.53.1h1.22V242h-.38a10.83,10.83,0,0,0-1.95.16l-.33-.68c1.26.12,2.39.12,2.66.12v-1.31h-1.24a10,10,0,0,0-1.93.15l-.33-.68c1.3.1,2.24.12,2.52.12h2a6.83,6.83,0,0,0,.68-2.36l1.34.71c.08.05.21.12.21.26s-.21.2-.63.22a12.3,12.3,0,0,1-1.27,1.17h2.07l.47-.58c.1-.12.15-.2.25-.2a.53.53,0,0,1,.31.18l.7.57a.34.34,0,0,1,.16.25c0,.17-.16.19-.25.19h-4v1.31h1.65l.4-.53c.1-.12.16-.22.26-.22a.7.7,0,0,1,.3.19l.64.52a.35.35,0,0,1,.17.26c0,.17-.17.18-.25.18h-3.17v1.33h2.61l.54-.63c.14-.15.15-.22.27-.22s.18.07.31.19l.69.64a.33.33,0,0,1,.17.26C606.31,243.77,606.14,243.77,606.06,243.77Zm-6-4.05c-.37,0-.46-.22-.65-.69a3.78,3.78,0,0,0-.75-1.3l.06-.12c.41.09,1.93.41,1.93,1.48A.6.6,0,0,1,600.06,239.72Zm4.24,6.41c-.35,0-.45-.24-.53-.47a3,3,0,0,0-.56-1l0-.12c.41,0,1.55.19,1.55,1A.53.53,0,0,1,604.3,246.13Z"/><path d="M622.86,244.77a13,13,0,0,1-6-6.12l-.06,0a18.67,18.67,0,0,1-7.56,6.82l-.05-.11a22.42,22.42,0,0,0,6.07-6.78,3.06,3.06,0,0,0,.5-1.16l1.66.55c.09,0,.27.12.27.29s-.17.24-.51.32a10.93,10.93,0,0,0,7.29,4.76v.12A3.29,3.29,0,0,0,622.86,244.77Zm.14,2.38h-6.62a25,25,0,0,1-2.72,3.89c2-.13,4.59-.39,6.45-.62a9.63,9.63,0,0,0-1.81-2.35l.09-.1c2.26,1.05,4.06,2.77,4.06,4.2,0,.27-.18.83-.72.83s-.76-.46-1-1.06a7.81,7.81,0,0,0-.49-1.24c-1.34.43-7.41,1.75-8.35,1.91-.1.22-.15.37-.3.37s-.21-.17-.26-.3l-.69-1.72a6.58,6.58,0,0,0,1.47.15c.34,0,.67,0,1.18-.05a24.71,24.71,0,0,0,1.36-3.91h-2.33a12,12,0,0,0-1.93.15l-.33-.66c1.3.1,2.24.1,2.52.1h7.92l.84-.93c.12-.14.2-.21.28-.21s.18.09.3.17l1.14.94a.39.39,0,0,1,.16.25C623.24,247.15,623.08,247.15,623,247.15Zm-3.62-2.94h-4.24a11.93,11.93,0,0,0-1.94.15l-.33-.68c1.14.11,2.32.12,2.54.12h1.85L618,243c.08-.08.16-.2.26-.2a.66.66,0,0,1,.3.17l.91.85c.08.08.16.15.16.27S619.48,244.21,619.38,244.21Z"/><path d="M635,242.07c-.05.05-.33.24-.43.32,0,.83-.13,4.93-.21,5.85-.3,3.52-.94,4.62-2.92,4.79,0-.51-.2-1.05-1.8-2l0-.13a8.61,8.61,0,0,0,2,.35c.49,0,1.07,0,1.32-1.43a49.21,49.21,0,0,0,.44-7.88h-2.27c-.05,2.78-.15,8.17-4.26,11.08l-.1-.09a10.93,10.93,0,0,0,2.44-4.82,23.19,23.19,0,0,0,.75-6.17h-.75a10.84,10.84,0,0,0-1.94.15l-.33-.68c1.32.12,2.27.12,2.54.12h.48a15.16,15.16,0,0,0-.28-4l1.81.56c.12,0,.3.14.3.31s0,.2-.6.56c0,.25,0,.37,0,.56s0,1.72,0,2h2.08l.61-.61c.06-.07.11-.14.19-.14a.47.47,0,0,1,.23.12l.76.65a.4.4,0,0,1,.15.28C635.13,242,635.05,242,635,242.07Zm6.55-.55c-.08.09-.28.24-.36.33,0,1.42,0,7.14,0,8.33,0,.27.09,1.46.09,1.71a.82.82,0,0,1-.82.92c-.43,0-.48-.25-.48-.59s0-.45,0-.75h-2.72c0,.63.08,1.61-.88,1.61-.46,0-.46-.37-.46-.52s0-.5,0-.56c.08-2,.13-6.46.13-8.55a19.69,19.69,0,0,0-.22-3.59l1.59.93h2.32l.55-.49c0-.05.1-.1.16-.1a.48.48,0,0,1,.27.17l.72.66a.48.48,0,0,1,.15.27C641.68,241.39,641.6,241.46,641.53,241.52Zm-1.48-.32h-2.74v9.86h2.74Z"/><path d="M655.48,247.9l.43-.43c.08-.06.21-.17.26-.17s.1,0,.27.17l.69.6a.43.43,0,0,1,.17.27c0,.15,0,.19-.5.48a6.05,6.05,0,0,0,0,.63c0,.37.05,2.07.05,2.41h.84l.58-.8c.09-.15.16-.24.28-.24s.21.11.31.19l.87.82a.34.34,0,0,1,.17.27c0,.15-.13.17-.25.17H647.23a10.89,10.89,0,0,0-1.94.15l-.33-.66c.33,0,1.07.08,2.26.1a23.66,23.66,0,0,0-.18-4.74l1.48.78ZM650,238.47l.33-.36c.08-.09.15-.16.23-.16s.15.07.27.16l.72.54a.34.34,0,0,1,.17.26c0,.15-.22.3-.56.54a10.67,10.67,0,0,0,0,1.12c0,.45.09,3.44.12,3.76a2.55,2.55,0,0,1,0,.31c0,.44-.43.69-.89.69s-.35-.18-.33-.76h-2.44c0,.83.1,1.66-.81,1.66-.39,0-.39-.27-.39-.46s.08-1.42.08-3.68a20.81,20.81,0,0,0-.18-4.34l1.4.72Zm-2.39.4v2.42H650v-2.42Zm0,2.82v2.47H650v-2.47Zm.79,6.62v3.55h1.68v-3.55Zm5.31-4.63c-.21.85-.81,3.08-4.4,3.74l0-.12c2.75-1.19,3.62-3,3.62-6.56a11.38,11.38,0,0,0-.31-3.19l1.54.81h3l.34-.39c.1-.1.15-.17.22-.17s.06,0,.26.15l.79.57a.26.26,0,0,1,.15.22c0,.25-.43.51-.54.56,0,.64,0,2,0,3,0,.58.06,2.42.06,2.89s0,1.57-1.81,2a2.23,2.23,0,0,0-1.39-1.6l0-.12a7.11,7.11,0,0,0,1.07.05c.71,0,.79,0,.89-.15s.09-.26.09-.92v-.75Zm-2.52,4.63v3.55h1.68v-3.55Zm6.09-5V241.2H654a12.36,12.36,0,0,1-.19,2.07Zm-1.57,8.59v-3.55H654v3.55Zm1.57-11.07v-2H654v2Z"/><path class="cls-1" d="M179.94,124.93c0,16.23-6.79,26.56-16.91,26.56-9.65,0-14.58-10.61-14.58-24.06,0-18.94,9.05-26.08,17.51-26.08C175.55,101.35,179.94,110.92,179.94,124.93Zm-16-20.11c-7.59,0-9.79,8-9.79,19.48,0,10.34,2.27,23.65,10.66,23.65s9.45-10.82,9.45-21.56C174.28,117.09,172.08,104.82,164,104.82Z"/><path class="cls-1" d="M222.82,120.49c0,20-18.91,31.62-27,31.62-2.8,0-2.53-2-.14-2.56,13.18-3.19,19.84-12.35,21-23.37-2.06,1.8-7.06,5.34-12.38,5.34-6.73,0-12.19-6.11-12.19-13.94a16,16,0,0,1,16.11-16.23C217.69,101.35,222.82,109.88,222.82,120.49Zm-5.93,1.87c0-13.17-4.93-17.82-10.85-17.82-4.6,0-8.26,2.84-8.32,10.61-.07,8.67,5.32,11.72,10.25,11.72a13.61,13.61,0,0,0,8.92-3.4Z"/><path class="cls-1" d="M260.77,114.67c0,9.7-10.19,19.14-20.18,29.61-.33.28-.33.62,0,.69.67.14,9.86.56,16.12.56,2.33,0,3.52-.63,5.59-5.9.8-2.22,2.39-1.94,2.39.07a34.43,34.43,0,0,1-1.79,8.67c-.67,1.94-1.33,2.15-4.46,2.15s-20.38-.21-21.11-.21-3.19.07-3.59.07a1.32,1.32,0,0,1-.74-2.29c.87-.9,2.07-2.08,2.47-2.49,11-11.45,19-20.12,19-29.55,0-6.24-2.86-9.64-8.32-9.64-3.93,0-6.46,1.67-9.59,5.62-1.86,2.36-3.53.9-2.13-1.46,3.06-5.13,7.66-9.36,14.32-9.36C253.91,101.21,260.77,104.82,260.77,114.67Z"/><path class="cls-1" d="M277.21,130.69c1.4-.14,14.32-.42,16.31-.35,1.4.07,1.6.35,1.6,1a4,4,0,0,1-1.66,3.05c-1.54.69-14,.83-16.31.76-.47,0-1.14-.14-1.2-.9A5.21,5.21,0,0,1,277.21,130.69Z"/><path class="cls-1" d="M327.74,108.15a.89.89,0,0,0-.8-.35c-1.26,0-14.84,0-18.3.28-2.4.14-2.87,2.15-3.93,4.64-.93,2.22-2.8,1.88-2.33-.62.2-1.6,1.13-6.94,1.53-9.09.2-1.38,1.33-1.52,2-1a6.94,6.94,0,0,0,3.19.49h15.18c4.93,0,6.39-.14,7.86-.42.93-.27,1.53.56.93,1.88-6.59,13.66-17,35.5-21.64,45.84-.4,1-.8,1.25-1.53,1.25-1.13,0-2.53-.91-2.53-1.88C307.37,147.81,324.22,115.22,327.74,108.15Z"/><path class="cls-1" d="M362.9,147.88c2.59.28,2.59,2.57-.14,2.57s-5.05-.14-8.65-.14-6.46.14-8.92.14c-2.73,0-2.8-2.29-.07-2.57,4.86-.62,5.33-1.31,5.53-3.53.13-1.74.33-4.58.33-9.16V112c0-2.36-.13-2.84-.73-2.7a49,49,0,0,1-5,1c-1.93.21-3,.28-3-.62s.93-1.32,1.86-1.66a41.57,41.57,0,0,0,8.19-4.1c2.67-1.8,3.53-2.63,4.13-2.7a.82.82,0,0,1,.93,1.11c-.33,1.39-.86,4-.86,12.41v20.39c0,3.61,0,7.49.13,8.88C356.84,146.84,357.31,147.26,362.9,147.88Z"/><path class="cls-1" d="M405.11,124.93c0,16.23-6.79,26.56-16.91,26.56-9.65,0-14.58-10.61-14.58-24.06,0-18.94,9.05-26.08,17.51-26.08C400.71,101.35,405.11,110.92,405.11,124.93Zm-16-20.11c-7.59,0-9.79,8-9.79,19.48,0,10.34,2.27,23.65,10.66,23.65s9.45-10.82,9.45-21.56C399.45,117.09,397.25,104.82,389.13,104.82Z"/><path class="cls-1" d="M418.09,130.69c1.4-.14,14.32-.42,16.31-.35,1.4.07,1.6.35,1.6,1a3.93,3.93,0,0,1-1.66,3.05c-1.53.69-14,.83-16.31.76-.47,0-1.13-.14-1.2-.9A5.21,5.21,0,0,1,418.09,130.69Z"/><path class="cls-1" d="M475.42,132.63a18.42,18.42,0,0,0,5.39-.49c.6-.14,1,.14,1,.63a8.11,8.11,0,0,1-.94,3.12c-.33.55-.93.69-2.39.69h-5.33v9.22c0,2.36.07,3.54-.13,3.82-.6.9-3.13,1.52-4.66,1.52-.73,0-.93-.55-.73-1.31a18.81,18.81,0,0,0,.33-3.4c0-1.11.13-3.68.13-9.85H463c-12.51,0-14.18,0-15-.28a1.07,1.07,0,0,1-.74-1,6.28,6.28,0,0,1,1.34-3.05c4.19-5.83,15.44-22.61,19.77-27.95a11.17,11.17,0,0,1,2.06-1.8c.53-.35,2-1.46,2.8-1.46.4,0,.8.49.6,1.25a18.74,18.74,0,0,0-.67,4.72v25.59Zm-7.33-23.51c-5.32,7.07-14.11,20.66-15.24,22.47-.14.34,0,.69.4.69,1,.07,3.06.28,14.84.35Z"/><path class="cls-1" d="M491.6,147.47a3.66,3.66,0,0,1-.74-2.36,6,6,0,0,1,1.27-3.33c.66-.83,1.4-.62,1.8.35.86,2.43,4.52,5.75,9.92,5.75,6.19,0,9.91-4.36,9.91-10.54,0-5.75-2.53-9.71-11.85-12.13a26.46,26.46,0,0,0-7.25-1c-1.13.07-1.53-.42-1.13-1.81A164.36,164.36,0,0,0,498,103.5c.26-1.39,1.06-1.8,1.93-1.32a3.52,3.52,0,0,0,1.53.28c2.33,0,8.79,0,11.38-.14a4.74,4.74,0,0,0,4.06-1.73c1.4-1.39,2.67-.35,1.8,1.38-2.53,5.07-4.59,5.55-5.26,5.69a94,94,0,0,1-12.71.28.81.81,0,0,0-.67.55c-.6,2.71-1.8,8.39-2.4,10.61-.06.28.14.28.4.42,2.8.42,5.13.9,7.46,1.39,9.39,2.15,13.91,6.65,13.91,13.1,0,5.55-2.19,9.92-7.45,13.74a18.62,18.62,0,0,1-11,3.6C495.26,151.35,492.59,148.92,491.6,147.47Z"/><path class="cls-1" d="M555.11,108.15a.89.89,0,0,0-.8-.35c-1.26,0-14.84,0-18.31.28-2.39.14-2.86,2.15-3.92,4.64-.94,2.22-2.8,1.88-2.33-.62.2-1.6,1.13-6.94,1.53-9.09.2-1.38,1.33-1.52,2-1a7,7,0,0,0,3.2.49h15.18c4.92,0,6.39-.14,7.85-.42.94-.27,1.54.56.94,1.88-6.59,13.66-17.05,35.5-21.64,45.84-.4,1-.8,1.25-1.53,1.25-1.13,0-2.53-.91-2.53-1.88C534.74,147.81,551.58,115.22,555.11,108.15Z"/><path class="cls-1" d="M569.83,147.47a3.66,3.66,0,0,1-.74-2.36,6,6,0,0,1,1.27-3.33c.67-.83,1.4-.62,1.8.35.86,2.43,4.52,5.75,9.92,5.75,6.19,0,9.92-4.36,9.92-10.54,0-5.75-2.53-9.71-11.85-12.13a26.56,26.56,0,0,0-7.26-1c-1.13.07-1.53-.42-1.13-1.81a162.28,162.28,0,0,0,4.46-18.86c.26-1.39,1.06-1.8,1.93-1.32a3.52,3.52,0,0,0,1.53.28c2.33,0,8.79,0,11.38-.14a4.77,4.77,0,0,0,4.07-1.73c1.39-1.39,2.66-.35,1.79,1.38-2.53,5.07-4.59,5.55-5.26,5.69a94,94,0,0,1-12.71.28.81.81,0,0,0-.67.55c-.6,2.71-1.8,8.39-2.39,10.61-.07.28.13.28.39.42,2.8.42,5.13.9,7.46,1.39,9.39,2.15,13.91,6.65,13.91,13.1,0,5.55-2.19,9.92-7.45,13.74a18.62,18.62,0,0,1-11,3.6C573.49,151.35,570.83,148.92,569.83,147.47Z"/><path class="cls-2" d="M75.57,121A28,28,0,1,1,96.9,154.26,28,28,0,0,1,75.57,121Z"/><path class="cls-1" d="M97.59,119.75c2-1.17,3.58-2.25,4.13-2.57s.53-1.17.06-2l-4.37-7.33c-.61-1-1.28-2.07-2.23-1.5l-4.1,2.44c-2.45,1.45-5.69,9.64,2.81,23.9s17.24,15.32,19.69,13.86l4.1-2.44c.94-.57.35-1.65-.26-2.68l-4.37-7.33c-.47-.79-1.2-1.21-1.75-.88s-2.26,1.24-4.23,2.41-4.17-1.79-7-6.6S95.61,120.92,97.59,119.75Z"/></g></svg>