<svg xmlns="http://www.w3.org/2000/svg" width="700" height="278.25" viewBox="0 0 700 278.25"><defs><style>.cls-1{fill:#980051;}.cls-2{fill:none;stroke:#980051;stroke-miterlimit:10;stroke-width:1.76px;}</style></defs><title>renrakusaki</title><g id="レイヤー_2" data-name="レイヤー 2"><path d="M225.32,68.25c-11.52-5.36-14.27-16.09-15.38-22.16-1.95,16.48-12,20.38-21,22.69l-.09-.4C201.44,63,205,54.29,206.35,42.94H195.72a23.35,23.35,0,0,0-4.79.32l-.75-1.64c2.13.17,4.21.26,6.34.26h9.92c.09-1.06.23-2.61.23-4.83a28.64,28.64,0,0,0-.85-7.09l5.45,1.55c.31.09.76.22.76.62s-.89,1.11-1.38,1.42c0,2.66-.09,5.67-.31,8.33h10.55l2.48-2.57c.22-.22.44-.57.71-.57s.53.26.84.48l3.15,2.57a1,1,0,0,1,.44.67c0,.48-.44.48-.71.48H210.39c2.79,13.08,9.35,18.35,20.29,20.83v.36C228.91,64.75,226.52,65.59,225.32,68.25Z"/><path d="M249.16,42.77l2.12-2.13c.49-.49.58-.53.76-.53a2,2,0,0,1,.79.44l2.26,2.13c.23.22.4.4.4.66,0,.45-.35.49-.66.49h-8v3.68c1.42.13,7.45,1.82,7.45,5.63a2.13,2.13,0,0,1-2.09,2.21c-1.24,0-1.55-.62-2.61-2.75-1.64-3.23-2.13-3.85-2.75-4.51.05,3.14.18,17,.18,19.8,0,1.77-1.82,2.09-2.61,2.09S243,69.75,243,68.65c0-.14.05-.67.09-1.38.44-5,.4-10.85.44-16.26-2.21,3.63-6.07,8.55-10,10.68l-.18-.31c4-4.7,8.64-12.85,9.79-17.55h-3.63a22.86,22.86,0,0,0-4.83.31L234,42.5c2.7.22,5.85.27,6.34.27h3.23l0-7.18a46.55,46.55,0,0,1-8.38,1.15l-.08-.35c6.6-2.22,11.34-4.12,14.26-6.34a4.85,4.85,0,0,0,1.16-1.2l3.23,3.06a1,1,0,0,1,.31.58c0,.4-.4.49-.8.49a4,4,0,0,1-.62-.09,44.73,44.73,0,0,1-5.8,2c0,3.85,0,5.67,0,7.93Zm18.25-6.65,1.47-1.55c.3-.31.44-.44.62-.44a1.36,1.36,0,0,1,.57.35l2.62,2A.62.62,0,0,1,273,37c0,.67-1.11,1.29-1.47,1.47-.13,6.38.23,17.32.27,19.67,0,1,.31,5.63.31,6.29,0,2.17-2.66,2.31-2.88,2.31-1.46,0-1.55-1-1.37-2.8h-7.32a9.33,9.33,0,0,1,.09,1.33A2,2,0,0,1,260,67a3.5,3.5,0,0,1-2.08.84,1.25,1.25,0,0,1-1.42-1.46c0-.18.05-1,.05-1.19.22-3.59.35-15.82.35-17.82,0-8-.22-10.85-.66-13.69l4.6,2.48Zm-6.91,1.06V62.84h7.4V37.18Z"/><path d="M315.93,60.4c-.53,0-2.79-.66-3.23-.75a92.92,92.92,0,0,0-10.28-.89c-7.27,0-14.89,1.25-16.36,1.78a13.41,13.41,0,0,1-2,.84c-1.29,0-4-3-4-5.36a6.76,6.76,0,0,1,.31-1.73c.93,1.42,2,3.1,5.23,3.1l7.88-.53c1.2,0,1.38-.09,3.24-.18,0-1.42,0-7.62,0-8.91,0-4.65-.39-4.78-1.95-5.36-.79.14-4.38.76-5,.76-1,0-3.77-2.48-3.81-4.52.89.57,2.35,1.55,5.94,1.55,1.5,0,11.08-.67,12.72-1.24a11,11,0,0,1,1.77-.76c.57,0,3.81.71,3.81,2.26,0,.09,0,1.42-1.77,1.42-1.11,0-5.85-.09-6.83-.09a14.82,14.82,0,0,0-2.08.09c1.15.84,1.37,1.06,1.37,1.55s-.57,1.91-.62,2.22c-.31,2.66-.62,9.79-.66,10.81,4.12-.22,6.38-.31,7.66-.31a14.25,14.25,0,0,0,3-.18c.71-.13,1.68-.31,1.95-.31,1.42,0,4.65,1.69,4.65,3.64A1,1,0,0,1,315.93,60.4Z"/><path d="M352.35,65c-1.19,0-1.86-1.15-2.3-1.86-3.41-5.67-5.45-8.51-9-11.3-6.78,8.07-13.51,12.36-19.76,13.47V65c10.59-4.92,21.53-19.77,23-26.06-.14.05-9,1.64-11.35,2.79-1.28.67-1.46.71-1.81.71-.67,0-3.46-2-3.46-4.87a3.67,3.67,0,0,1,.4-1.95c1.82,2.35,2.17,2.84,3.63,2.84,1.07,0,10.77-.85,12.59-2,.31-.22,1.72-1.42,2.08-1.42.58,0,4,3.28,4,4,0,.49-.31.62-1.73,1.15-.4.18-.57.49-1.24,1.69C344.51,47.15,344,48,341.72,51c5.4,2.26,12.36,7.58,12.36,11.56C354.08,63.64,353.68,65,352.35,65Z"/><path d="M393.56,46.93c-.05,0-6.82-.75-8.11-.75s-2,0-5.58.31c1.9,1.46,2.08,1.6,2.08,1.91a9.92,9.92,0,0,1-.89,1.68c-.35.84-1.64,4.56-2,5.32-3.55,7.93-8.42,11.3-12.54,12.4l-.22-.17c7-5.5,10.63-15.87,10.63-18.48a2.7,2.7,0,0,0-.75-2.22A35.89,35.89,0,0,0,367.55,49a4.71,4.71,0,0,1-1.64.39c-.93,0-4.08-2.61-4.08-5.09a4.68,4.68,0,0,1,.36-1.73c1.24,1.73,2,2.88,4.29,2.88.09,0,.23,0,.32,0,1.5-.23,9.39-1.07,10.94-1.24,3.23-.4,9.17-1.07,9.75-1.25a22.43,22.43,0,0,1,2.21-.57c.62,0,5.37.84,5.37,3.1A1.3,1.3,0,0,1,393.56,46.93Zm-9.75-8.82c-3.23.09-3.28.09-11.7,1.11h-.4a4,4,0,0,1-3.5-3.72,7.5,7.5,0,0,1,.18-1.11c.4.49,1.68,1.78,4.92,1.78a40.36,40.36,0,0,0,7.53-1,26,26,0,0,1,3-.76c.67,0,3.82.62,3.82,2.17S386.07,38.07,383.81,38.11Z"/><path d="M433.75,51.63c-.71,0-1.82,0-2.71-.13s-11.65-.14-12.4-.14c-2.57,0-9.35.14-11.39.71a5.93,5.93,0,0,1-1.51.31c-1.64,0-4.12-3.5-4.12-5.27a6.11,6.11,0,0,1,.71-2.48c1.55,3.1,2.61,3.63,7.89,3.63,2.57,0,17.94,0,19.45-.57a5.84,5.84,0,0,1,1.77-.45c.09,0,5.28.4,5.28,2.75C436.72,50.74,435.87,51.63,433.75,51.63Z"/><path d="M462.5,54.91a2.69,2.69,0,0,1-1.9-1.2c-4.61-5.09-5.85-6.38-9-7.53-.09,2.75.09,12.45.09,12.72,0,.88.31,4.92.31,5.71,0,1.91-.93,3.28-2.13,3.28s-2.39-1.9-2.39-4.34a15.26,15.26,0,0,1,.31-2.7,96,96,0,0,0,.57-11.79c0-2.26-.09-12.54-.53-14.18-.13-.58-.26-1-3.54-2.26a6.33,6.33,0,0,1,2.92-1c.84,0,5.63.93,5.63,2.31a17.6,17.6,0,0,1-.67,2.17,50.42,50.42,0,0,0-.57,9c5.05.62,12.76,3.45,12.76,7.62A1.9,1.9,0,0,1,462.5,54.91Z"/><path d="M475.31,69.84a31.67,31.67,0,0,1,0-40.5l.48.36a27.21,27.21,0,0,0-2.21,3.76,37.19,37.19,0,0,0,0,32.26,27.1,27.1,0,0,0,2.21,3.77ZM479,36.08a44.52,44.52,0,0,0-.36-5.06l2.93.76c.49.13,1.24.35,1.24.71,0,.53-.67.84-1.24,1.33v6h.75l.93-1.46c.13-.22.4-.62.62-.62s.62.44.71.58l1,1.41a2,2,0,0,1,.22.71c0,.31-.18.36-.36.36H481.6v4.34c1.33.8,4,2.44,4,4.79a1.73,1.73,0,0,1-1.59,1.9c-1.42,0-1.64-2-1.69-3.06a5.85,5.85,0,0,0-.75-3v7.88c0,1.73.13,10.06.13,11.92,0,.58,0,2.53-2.13,2.53-1.24,0-1.24-1.37-1.24-1.86,0-.84.4-5,.45-5.94.13-2.17.22-4.3.22-7.58V48.35a28.54,28.54,0,0,1-6.43,10.19l-.35-.35a54.38,54.38,0,0,0,6.51-17.37,23.78,23.78,0,0,0-4.38.26l-.67-1.59c1.77.22,3.9.35,4.52.35h.8ZM507.52,61a6.91,6.91,0,0,0-3.59,2.53c-4.08-4.21-6-8.6-7.67-13.39v5.19c0,1.55,0,3.19.05,4.78,0,.8.31,4.74.31,5.63a2.16,2.16,0,0,1-2.17,2.39c-.71,0-1.11-.35-1.11-1.46,0-.66.13-3.81.13-4.52.09-2.88.09-4.65.09-6.2V51.72A31.72,31.72,0,0,1,483.5,62.93l-.26-.44a52.9,52.9,0,0,0,9-13.61,51.61,51.61,0,0,0-5.63.22l-.71-1.55c1.33.14,4.92.31,5.76.31h1.86V41.17h-4.47a24.59,24.59,0,0,1-4,5.54l-.35-.31c.44-1,3.41-6.91,3.46-12.49l3.54,1.72c.18,0,.44.22.44.45,0,.48-.53.57-1.19,1.06-.45,1.15-.93,2.22-1.33,3h3.94V36.48a31.77,31.77,0,0,0-.57-5.37l3.81.85c.31.08.62.22.62.44s-.53.84-1.16,1.64v6.11h3.33l1.28-1.77c.18-.22.4-.53.62-.53a1.31,1.31,0,0,1,.71.49L504,40.11c.23.22.49.53.49.71a.32.32,0,0,1-.35.35h-7.85v6.69h5.06L502.65,46c.13-.13.4-.48.53-.48s.53.31.71.44l2.26,2a1.14,1.14,0,0,1,.35.62c0,.31-.31.31-.44.31h-9.62c4.17,9.53,10.68,11.48,11.12,11.57ZM504,29.34a31.7,31.7,0,0,1,0,40.5l-.49-.35a28.71,28.71,0,0,0,2.22-3.77,37.19,37.19,0,0,0,0-32.26,28.84,28.84,0,0,0-2.22-3.76Z"/><path d="M95.23,176.07v-2.16h17.49v2.16Zm9.93,5.58v12h-2.38v-12H95.23v-2.13h17.49v2.13Z"/><path d="M128.7,188.59a6,6,0,0,1-6.37,5.94c-3.07,0-5.83-1.78-5.83-4.86,0-2.91,2.32-4.29,4.81-5.75-1.43-.84-4-2.35-4-5.29,0-2.67,2.1-4.83,5.39-4.83,3.7,0,4.94,2.75,4.94,4.26,0,2.3-2.21,4-3.37,4.84C126.79,184.46,128.7,185.81,128.7,188.59Zm-9.93,1a3.89,3.89,0,0,0,3.89,4,4.2,4.2,0,0,0,4.1-4.08c0-2.56-2.67-4.07-4.64-5.18C120.9,185.27,118.77,186.92,118.77,189.59Zm6.88-11.23a3.4,3.4,0,0,0-3.34-3.64,3.11,3.11,0,0,0-3.19,3.21c0,1.89,1.54,2.83,4.35,4.51A5.16,5.16,0,0,0,125.65,178.36Z"/><path d="M133.24,193.15h1.49c1.4,0,1.89-.54,1.89-1.64V176.9c0-.83-.79-1-1.3-1h-2v-.84h.49a10.47,10.47,0,0,0,4.4-1.13c.19-.11.27-.16.37-.16.25,0,.3.16.3.38v17.33c0,1.16.57,1.64,1.89,1.64h1.48V194h-9Z"/><path d="M148.36,193.15h1.49c1.4,0,1.89-.54,1.89-1.64V176.9c0-.83-.79-1-1.3-1h-2.05v-.84h.49a10.47,10.47,0,0,0,4.4-1.13c.19-.11.27-.16.37-.16.25,0,.3.16.3.38v17.33c0,1.16.57,1.64,1.89,1.64h1.48V194h-9Z"/><path d="M167.61,188.51h-5.8v-1.75h5.8Z"/><path d="M172.1,193.15h1.48c1.4,0,1.89-.54,1.89-1.64V176.9c0-.83-.78-1-1.3-1h-2v-.84h.49A10.42,10.42,0,0,0,177,174c.19-.11.27-.16.38-.16s.29.16.29.38v17.33c0,1.16.57,1.64,1.89,1.64h1.49V194h-9Z"/><path d="M195.69,184.84a5,5,0,0,1,1.84,4c0,3.32-2.73,5.7-6.29,5.7-2.92,0-5.37-1.65-5.37-3.81A1.55,1.55,0,0,1,187.4,189a1.33,1.33,0,0,1,1.33,1.35,2.26,2.26,0,0,1-.16.86,1.73,1.73,0,0,0-.09.62c0,1,1.16,1.78,2.43,1.78a4.62,4.62,0,0,0,4.19-4.78c0-2.78-2-4.94-4.21-4.94-.17,0-.92.11-1.08.11a.53.53,0,0,1-.6-.56.61.61,0,0,1,.62-.63c.17,0,1,.17,1.16.17,2.27,0,3.7-2,3.7-4.21s-1.27-4.05-3.4-4.05a1.71,1.71,0,0,0-2.1,2.21,2.89,2.89,0,0,1,.08.65,1.43,1.43,0,0,1-1.38,1.48,1.4,1.4,0,0,1-1.35-1.48c0-1.49,1.73-3.78,5.18-3.78s5.4,2.16,5.4,4.53a4.66,4.66,0,0,1-1,2.76,6.45,6.45,0,0,1-3.42,2.29A7.22,7.22,0,0,1,195.69,184.84Z"/><path d="M208.92,173.8H210v13.71h3.05v.86H210v3.14c0,1.18.59,1.64,1.89,1.64h.43V194h-6.86v-.87h.44c1.26,0,1.89-.43,1.89-1.64v-3.14h-7.27v-.94Zm-1.1,3.56-6.24,10.15h6.24Z"/><path d="M220.75,182.17a4.57,4.57,0,0,1,2.35-.71c2.67,0,4.83,2.7,4.83,6,0,3.75-2.67,7.1-5.78,7.1s-6.21-3.48-6.21-9.31c0-6.24,3.51-11.42,7.64-11.42,1.81,0,3.08,1.08,3.08,2.37a1.35,1.35,0,0,1-1.38,1.41c-.54,0-1.43-.35-1.48-1.89,0-.6-.08-1-.81-1a2.75,2.75,0,0,0-2,1c-2.4,2.64-2.54,6.61-2.65,9A6.7,6.7,0,0,1,220.75,182.17Zm-.89,10a2.67,2.67,0,0,0,2.18,1.46c1.43,0,3.46-1.48,3.46-5.94,0-1.21-.3-5-3.08-5-1,0-2.75.76-4,3.67C218.51,187.84,218.72,190.43,219.86,192.15Z"/><path d="M249.37,176.52l.75-.67c.14-.14.33-.32.43-.32a1,1,0,0,1,.41.27l1,.78c.14.11.33.27.33.46s-.3.4-1.19.73a33.93,33.93,0,0,1-3.05,4.1v.19c1.94.35,4,1.35,4,2.83a1.06,1.06,0,0,1-1,1c-.49,0-.81-.27-1.16-1a6.08,6.08,0,0,0-1.78-2.49v6.32c0,.4.11,5.78.11,6,0,.89-.3,1.38-1.38,1.38-.73,0-.73-.4-.73-.78,0-1.65.25-9.8.3-11.66a21.06,21.06,0,0,1-5.26,3.51l-.11-.17c3.1-2.59,7.1-7.5,8.15-9.77H246a18.78,18.78,0,0,0-3.15.25l-.54-1.08c1.13.1,2.78.18,4,.18a14.64,14.64,0,0,0-.59-5.23l2.73.75c.13,0,.43.14.43.38s-.24.43-.78.76c0,.46,0,2.67,0,3.34Zm13.52-3.15.89-.87c.11-.08.35-.35.43-.35s.33.16.52.3l1.13.86c.16.14.3.27.3.41s-.25.3-.44.3H255.6a18.49,18.49,0,0,0-3.16.24l-.54-1.08c2,.16,3.68.19,4.16.19Zm0,11.55.76-.84c.11-.13.24-.27.35-.27a1,1,0,0,1,.38.22l1.24.89c.13.11.27.24.27.4s-.24.41-.81.84a7.43,7.43,0,0,0-.05.78c0,1,.21,6.4.21,7.51,0,.7-.62,1.05-1.29,1.05s-.73-.32-.68-1.27h-8.47c0,1-.3,1.51-1.27,1.51-.68,0-.68-.4-.68-.64,0-.95.11-5.08.11-5.91a35.43,35.43,0,0,0-.3-5.7l2.46,1.43Zm-1.45-8.23.64-.65c.14-.14.27-.3.38-.3s.22.11.33.19l1.1.89a.62.62,0,0,1,.27.43c0,.19-.24.38-.75.65,0,.62.13,3.29.13,3.83a1.16,1.16,0,0,1-1.27,1.17c-.64,0-.64-.38-.64-1h-5.84c0,.43,0,1.24-1.13,1.24-.54,0-.75-.24-.75-.94,0-.35.05-2.81.05-3.35a32,32,0,0,0-.19-3.35l2.21,1.22Zm-6.67,8.88v3.56h3.32v-3.56Zm0,4.21v3.8h3.32v-3.8Zm1-12.45v3.89h5.88v-3.89Zm7.5,11.8v-3.56h-3.43v3.56Zm0,4.45v-3.8h-3.43v3.8Z"/><path d="M292.75,174.93c-.05,1,.14,15.55.14,17.52,0,1.73,0,3.21-3.05,3.78-.38-1.48-1.35-2-2.73-2.73l0-.19c.54.06,2.19.22,2.67.22.68,0,.89-.11,1-.43s.11-8.37.11-9.45c0-.86,0-8.91,0-9.69H274.78c0,1,0,11.5,0,13.39,0,1.16.11,6.29.11,7.31a1.34,1.34,0,0,1-1.46,1.49c-.41,0-.78-.14-.78-1,0-.37.19-2.08.19-2.4.08-1.84.1-11.85.1-13.66a51.22,51.22,0,0,0-.29-7l2.59,1.27h15.38l.71-.78c.1-.13.18-.22.35-.22a.77.77,0,0,1,.32.17l1.46,1.05c.19.13.32.21.32.43S293.64,174.34,292.75,174.93Zm-2.91,6.26h-6.21v8.53h2.62c0-3.13.05-3.56,0-4.72a5.13,5.13,0,0,0-.4-1.78l2.37.4c.24.06.57.14.57.46s-.11.35-.68.68c0,.43,0,2.48,0,3s.08,2.51.08,3a1.12,1.12,0,0,1-1.24,1.18c-.75,0-.73-.37-.7-1.51h-7c0,.19,0,1.06,0,1.24a1.15,1.15,0,0,1-1.18,1.3.7.7,0,0,1-.76-.76c0-.29.13-1.16.13-3.91,0-3.83-.08-4.1-.35-5.13l2.52.59c.21.06.45.11.45.38s0,.27-.81.76v4.88h2.57v-8.53h-2.7a18.87,18.87,0,0,0-3.16.25l-.54-1.08c2.16.19,3.73.19,4.16.19h3.1a14.74,14.74,0,0,0,1.62-6.1l2.75,1.56a.42.42,0,0,1,.27.35c0,.35-.4.46-1.16.6-.72.81-2,2.37-2.91,3.59h3.59l.92-1.06c.16-.16.29-.32.4-.32s.32.14.51.27l1.27,1.05a.55.55,0,0,1,.27.41C290.24,181.17,290,181.19,289.84,181.19Zm-9.31-1.34c-.68,0-.87-.57-1.25-1.71a7.32,7.32,0,0,0-1.48-2.91l.13-.16c.36.13,3.73,1.54,3.73,3.56A1.17,1.17,0,0,1,280.53,179.85Z"/><path d="M322.89,176.63H310.17l2.24.73c.16.06.35.16.35.35s-.19.41-.73.79c0,.43-.08,1.83-.13,2.75h5.4l.78-.84c.22-.21.3-.3.43-.3a.9.9,0,0,1,.49.27l1.08.87c.21.16.35.32.35.48,0,.36-.51.68-.81.89,0,1.27.13,6.94.13,8.1,0,.79,0,2.65-3.05,3.22a4.93,4.93,0,0,0-2.26-2.57v-.19a13.21,13.21,0,0,0,1.78.11c.92,0,1.46-.11,1.54-.51s.05-7.34,0-8.88H311.9c0,3,0,8.36.11,11.17,0,.3.08,1.62.08,1.89,0,1.24-1.43,1.32-1.54,1.32a.7.7,0,0,1-.78-.81c0-2.26.27-5.91.29-8.18s0-3.1,0-5.39h-5.45c0,.86,0,4.61,0,5.39s.08,4.35.08,5.08a1.32,1.32,0,0,1-1.43,1.43c-.62,0-.75-.32-.75-.67a5.09,5.09,0,0,1,0-.54c.08-1.16.21-6.13.21-8.64a16.12,16.12,0,0,0-.35-4l2.67,1.32h5c0-3.08,0-3.43-.32-4.62h-7.26a18.72,18.72,0,0,0-3.19.25l-.54-1.06c1.81.14,3.65.16,4.16.16h7.21a10.53,10.53,0,0,0-.7-4.69l3,.65c.25.05.52.13.52.4s0,.3-.89.81c0,.46,0,2.43,0,2.83h7.05l1.29-1.51c.19-.24.3-.32.44-.32a.74.74,0,0,1,.48.27l1.73,1.51c.16.14.27.24.27.43S323.07,176.63,322.89,176.63Z"/><path d="M351.34,176.34h-10.9v3.26h6.26l.84-.78c.19-.19.29-.27.46-.27s.27.08.51.27l1.08.84a.76.76,0,0,1,.35.51c0,.27-.54.62-1,.86-.08,1.78.08,9.64.08,11.23,0,.92,0,2.7-3.1,3.43a2.25,2.25,0,0,0-.7-1.35,6,6,0,0,0-2-1.24l0-.19a21,21,0,0,0,2.7.16c1,0,1.16-.19,1.16-1.16V180.25h-4.54l1.54.86c.19.11.33.25.33.41s-.41.38-1.06.48c-.54.62-2,2.22-2.51,2.68h1.89l.73-.76c.19-.19.35-.32.49-.32a.91.91,0,0,1,.51.27l1,.75a.62.62,0,0,1,.27.43c0,.22-.16.27-.4.27h-4.92v3.05h2.46l.84-1c.19-.22.29-.33.46-.33s.27.11.51.3l1.24,1a.62.62,0,0,1,.27.43c0,.16-.13.27-.4.27h-5.38c0,.73.14,3.92.14,4.59,0,.49,0,1.27-1.4,1.27-.6,0-.71-.32-.71-.73,0-.81.11-4.4.14-5.13h-1.68a18.87,18.87,0,0,0-3.18.25l-.51-1.08c1.83.16,3.75.18,4.13.18h1.24v-3.05H337.5a18.5,18.5,0,0,0-3.16.25l-.54-1.08c1.81.16,3.7.19,4.15.19h2.19a16.14,16.14,0,0,0,1.57-4.43h-9.59c0,.49,0,3.48,0,7.13,0,1.13.11,6.12.11,7.12,0,1.16-1.16,1.19-1.46,1.19-.54,0-.72-.35-.72-.89s.13-3.27.16-3.81c.13-3.21.16-8,.16-8.15a22.54,22.54,0,0,0-.32-4.61l2.56,1.37h6c0-.08,0-2-.06-3.26h-7.34a19.62,19.62,0,0,0-3.19.24l-.54-1.08c1.89.16,3.92.19,4.16.19h6.91c0-2.62-.11-3.32-.65-4.51l2.95.84c.43.13.59.27.59.46s-.54.67-.92.91c0,.6,0,1.52-.05,2.3h7.18l1.21-1.35c.22-.22.33-.35.49-.35s.32.13.54.29l1.62,1.35a.74.74,0,0,1,.27.44C351.75,176.26,351.59,176.34,351.34,176.34Zm-13.68,7.93c-.7,0-.89-.51-1.11-1.32a6.59,6.59,0,0,0-1.05-2.32l.11-.14c1.24.46,3.05,1.35,3.05,2.73A1,1,0,0,1,337.66,184.27Z"/><path d="M379.61,194.23H360.39a1.4,1.4,0,0,1-1.56,1.62c-.68,0-.73-.35-.73-.65,0-.1.11-2.26.13-2.7.16-3.48.25-14.87.25-15.11a24.44,24.44,0,0,0-.35-5.43l2.75,1.38h14.49l1.14-1.3c.16-.16.27-.32.4-.32s.3.13.52.3l1.56,1.27a.55.55,0,0,1,.27.4c0,.27-.24.3-.43.3H360.47c0,1.51-.1,8.15-.1,9.5,0,3.1,0,8.69,0,10.09h15.52l1.25-1.4c.18-.22.29-.32.43-.32a1.08,1.08,0,0,1,.48.27l1.7,1.4c.11.11.27.24.27.41S379.8,194.23,379.61,194.23Zm-4.34-16.44a47.87,47.87,0,0,1-3.89,5.73c1.83,1.59,4.32,4,4.32,5.85a1,1,0,0,1-1.06,1.11c-.72,0-1-.51-1.51-1.46a23.58,23.58,0,0,0-2.86-4.15c-4.26,4.88-7.26,6.1-8.72,6.66l-.08-.21c3.32-2.24,6.7-6.51,7.64-7.72a42.83,42.83,0,0,0-6.18-5.27l.11-.19a27.3,27.3,0,0,1,7,4.21c1.65-2.24,3.35-4.88,3.53-7.15l2.41,1.65a.54.54,0,0,1,.27.4C376.24,177.69,375.78,177.74,375.27,177.79Z"/><path d="M388.53,181.87a18.73,18.73,0,0,0-3.19.24l-.51-1.08c2,.16,3.67.19,4.13.19h5.75v-4.86h-3.32a19.21,19.21,0,0,0-3.16.27l-.54-1.08c1.38.11,2.75.16,4.16.16h2.86c0-3.18-.27-3.77-.62-4.58l3.13.86c.16,0,.4.19.4.41s0,.29-.89.83v2.48h1.65l.81-1.18c.08-.11.21-.3.38-.3s.35.16.51.3l1.27,1.16c.13.13.27.24.27.4s-.22.27-.41.27h-4.48v4.86H398c2.78-3.29,5.56-7.29,6-9.34l2.11,2c.13.11.3.3.3.41,0,.4-.14.4-1.38.54a44.58,44.58,0,0,1-4.67,6.42h5l1.16-1.4c.14-.16.3-.35.43-.35s.35.19.49.29l1.57,1.41c.13.13.27.24.27.4s-.22.3-.41.3h-9.1a43.34,43.34,0,0,1-4.77,4.59v2.73c4.29-1.65,7.55-4.11,8.15-5.11l1.83,2a.67.67,0,0,1,.22.43c0,.33-.35.35-.51.35s-.76-.08-.87-.08a24.23,24.23,0,0,1-8.82,2.84c0,.59,0,3.26.08,3.53s.29.49,1.29.54,3.54.08,4.43.08c3,0,3.7,0,4.18-.83a18.74,18.74,0,0,0,1.46-4.19h.19c0,.84.24,3.4.7,3.81s.57.54.57.73a2.46,2.46,0,0,1-2.08,2,35.75,35.75,0,0,1-5.72.29c-6.78,0-7-.13-7-3.56,0-.65.05-3.51.05-4.07a29.92,29.92,0,0,1-8.66,4.64l-.05-.16a48.27,48.27,0,0,0,8.69-6.27,8.67,8.67,0,0,0-.19-2l1.64.67c.9-.86,1.68-1.67,2.81-2.94Z"/><path d="M417.61,173.93a18.45,18.45,0,0,0-3.19.27l-.51-1.08c1.51.11,3.32.17,4.13.17h14.82l.86-.84c.19-.19.27-.3.46-.3s.27.14.43.25l1.4,1a.41.41,0,0,1,.25.35c0,.3-.11.38-1.16,1.08,0,2.43.13,14.42.13,17.11a3.24,3.24,0,0,1-1.89,3.41,5.47,5.47,0,0,1-1.54.51c-.43-1.73-1-2-2.88-3v-.11c.62,0,2.78.16,3.13.16,1.08,0,1.1-.11,1.1-.89V173.93Zm8.93,4.11,1-1.22c.19-.24.29-.35.43-.35a.79.79,0,0,1,.48.3l1.35,1.21c.14.14.27.25.27.43s-.21.27-.4.27H418.77a17.88,17.88,0,0,0-3.19.25l-.54-1.08c1.54.13,3.7.19,4.16.19Zm-1,4.29.67-.7c.11-.14.19-.25.36-.25s.21.08.4.22l1.24.86a.57.57,0,0,1,.22.35c0,.25-.08.33-.81.92,0,1,.08,5.1.08,6s-1.05,1.08-1.16,1.08c-.89,0-.89-.62-.84-1.73h-6.56c0,.14.06,2.08.06,2.16a1.39,1.39,0,0,1-1.41,1.62.64.64,0,0,1-.73-.68c0-.13.06-.78.06-.89.11-4.1.11-6.07.11-7.07a12,12,0,0,0-.3-2.92l2.32,1.06Zm-6.4.65v5.42h6.56V183Z"/><path d="M454.13,194H442v-.68c1-2.51,2.05-3.53,7-8.58,1.61-1.62,3.64-3.73,3.64-6.35,0-2-1.49-3.69-4-3.69-2.16,0-3.43,1.13-3.43,2.1a1.4,1.4,0,0,0,.3.84,2.09,2.09,0,0,1,.65,1.35,1.59,1.59,0,0,1-1.62,1.51,1.76,1.76,0,0,1-1.73-1.89c0-1.94,2.13-4.8,6.53-4.8,3.73,0,6.08,2.07,6.08,5s-1.81,4.24-4.51,6.32c-1.08.83-4.89,3.72-6.67,6.77h4.67c4.4,0,5.26-1.64,6.1-3.59l.59.19Z"/><path d="M484,174.85H473.47c0,.76.11,15.58.11,16.39,0,2.32,0,4.26-3.76,4.64-.13-1.13-.32-1.68-3.34-3.32l0-.19a25.7,25.7,0,0,0,3.59.38c.84,0,1.24-.11,1.35-.54a15.19,15.19,0,0,0,.08-2c0-2.43,0-13.18,0-15.39h-7.66a18.55,18.55,0,0,0-3.19.24l-.54-1.05c1.67.11,3.35.16,4.16.16H479.7l1.51-1.59c.11-.11.27-.32.44-.32a.91.91,0,0,1,.48.27l2,1.59a.59.59,0,0,1,.27.43C484.4,174.82,484.16,174.85,484,174.85Z"/><path d="M502.71,173.5l.75-.78c.17-.19.3-.32.46-.32a.84.84,0,0,1,.49.27l1.32,1.1c.24.22.3.35.3.49,0,.32-.38.56-1,1-.06,1.21-.06,1.67-.06,2.86,0,6.53.14,10,.3,15,0,0,0,.46,0,.57,0,1.13-1.41,1.21-1.51,1.21-.79,0-.73-.68-.7-1.13H492.83c.05.54.05.7-.11.94a1.81,1.81,0,0,1-1.43.65c-.7,0-.73-.38-.73-.7,0-.52.16-2.68.19-3.11.11-2.59.13-9.15.13-11.85a42.53,42.53,0,0,0-.35-7.5l2.7,1.32Zm-9.88.65V180h10.28v-5.8Zm0,6.45v5.83h10.28V180.6Zm0,6.48v6h10.28v-6Z"/><path d="M524,194H511.89v-.68c1-2.51,2.05-3.53,7-8.58,1.62-1.62,3.65-3.73,3.65-6.35,0-2-1.49-3.69-4-3.69-2.16,0-3.43,1.13-3.43,2.1a1.4,1.4,0,0,0,.3.84A2.13,2.13,0,0,1,516,179a1.59,1.59,0,0,1-1.62,1.51,1.75,1.75,0,0,1-1.72-1.89c0-1.94,2.13-4.8,6.53-4.8,3.72,0,6.07,2.07,6.07,5s-1.81,4.24-4.51,6.32c-1.08.83-4.88,3.72-6.66,6.77h4.67c4.4,0,5.26-1.64,6.1-3.59l.59.19Z"/><path d="M536.78,194.53c-3.26,0-6-1.65-6-3.81a1.63,1.63,0,0,1,1.72-1.72,1.38,1.38,0,0,1,1.49,1.35c0,.21-.27,1.26-.27,1.51,0,1,1.32,1.75,2.72,1.75a4.87,4.87,0,0,0,4.73-4.78,4.93,4.93,0,0,0-4.75-4.94c-.16,0-1,.11-1.22.11-.46,0-.67-.27-.67-.56a.65.65,0,0,1,.7-.63c.19,0,1.11.17,1.32.17a4.1,4.1,0,0,0,4.13-4.21,3.82,3.82,0,0,0-3.8-4.05c-1.6,0-2.46,1-2.46,1.83,0,.14.19.87.19,1a1.52,1.52,0,0,1-1.57,1.48,1.46,1.46,0,0,1-1.51-1.48c0-1.49,2-3.78,5.83-3.78,3.67,0,6.08,2.13,6.08,4.53a4.19,4.19,0,0,1-1.11,2.76,7.42,7.42,0,0,1-3.86,2.29c1.35.35,5.42,1.43,5.42,5.45C543.85,192.15,540.78,194.53,536.78,194.53Z"/><path d="M550,184.87v-1.38h14.74v1.38Z"/><path d="M572.48,194v-.87h1.67c1.51,0,2.13-.48,2.13-1.64V176.82c0-.89-1-1-1.45-1h-2.32v-.73h.54a13,13,0,0,0,5-1.13,1.09,1.09,0,0,1,.43-.16c.25,0,.33.16.33.38v17.33c0,1.21.7,1.64,2.13,1.64h1.67V194Z"/><path d="M601.5,194H589.38v-.68c1-2.51,2-3.53,7-8.58C598,183.14,600,181,600,178.41c0-2-1.49-3.69-4-3.69-2.16,0-3.43,1.13-3.43,2.1a1.4,1.4,0,0,0,.3.84,2.13,2.13,0,0,1,.64,1.35,1.59,1.59,0,0,1-1.62,1.51,1.75,1.75,0,0,1-1.72-1.89c0-1.94,2.13-4.8,6.53-4.8,3.72,0,6.07,2.07,6.07,5s-1.81,4.24-4.51,6.32c-1.08.83-4.88,3.72-6.66,6.77h4.67c4.4,0,5.26-1.64,6.1-3.59l.59.19Z"/><path d="M229.37,219l.49-.45c.09-.09.21-.22.28-.22a.81.81,0,0,1,.26.18l.68.52c.09.08.21.18.21.31s-.19.27-.77.48a20.79,20.79,0,0,1-2,2.74v.13c1.26.23,2.57.9,2.57,1.89a.69.69,0,0,1-.67.68c-.31,0-.52-.18-.75-.7a4,4,0,0,0-1.15-1.66v4.22c0,.27.07,3.85.07,4,0,.59-.19.92-.89.92-.47,0-.47-.28-.47-.53,0-1.1.16-6.53.19-7.78a13.12,13.12,0,0,1-3.4,2.34l-.07-.1a26.1,26.1,0,0,0,5.27-6.52h-2.06a12.31,12.31,0,0,0-2,.16l-.35-.72c.73.07,1.8.13,2.56.13a10,10,0,0,0-.38-3.5l1.76.51c.09,0,.28.09.28.25s-.15.29-.5.5c0,.31,0,1.79,0,2.24Zm8.75-2.11.57-.58c.07-.05.23-.23.28-.23s.21.11.33.2l.74.57c.1.09.19.18.19.27s-.16.2-.28.2H233.4a11.56,11.56,0,0,0-2,.16l-.35-.72c1.28.11,2.38.13,2.69.13Zm0,7.71.49-.56c.07-.09.16-.18.23-.18a.62.62,0,0,1,.24.14l.8.6a.38.38,0,0,1,.18.27c0,.1-.16.27-.53.55,0,.15,0,.4,0,.53,0,.65.14,4.26.14,5,0,.47-.4.7-.84.7s-.47-.21-.44-.84h-5.48c0,.63-.19,1-.82,1-.43,0-.43-.27-.43-.44,0-.63.07-3.38.07-3.94a23.7,23.7,0,0,0-.2-3.8l1.59,1Zm-.94-5.49.42-.44c.08-.09.17-.2.24-.2s.14.08.21.13l.72.6a.42.42,0,0,1,.17.28c0,.13-.16.26-.49.44,0,.41.09,2.19.09,2.55a.76.76,0,0,1-.82.78c-.42,0-.42-.26-.42-.69h-3.77c0,.29,0,.83-.73.83-.35,0-.49-.16-.49-.63,0-.23,0-1.87,0-2.23,0-.71,0-1.62-.12-2.24l1.43.82ZM232.85,225v2.38H235V225Zm0,2.81v2.54H235v-2.54Zm.64-8.3v2.59h3.81v-2.59Zm4.85,7.87V225h-2.21v2.38Zm0,3v-2.54h-2.21v2.54Z"/><path d="M259.17,217.92c0,.67.09,10.38.09,11.69,0,1.15,0,2.14-2,2.52-.25-1-.87-1.33-1.76-1.82v-.12c.35,0,1.42.14,1.73.14s.58-.07.63-.29.07-5.58.07-6.3,0-5.94,0-6.46h-10.4c0,.64,0,7.67,0,8.93,0,.77.07,4.19.07,4.88a.88.88,0,0,1-.94,1c-.26,0-.51-.09-.51-.69,0-.25.12-1.38.12-1.6.06-1.22.07-7.9.07-9.11a34.2,34.2,0,0,0-.19-4.68l1.68.84h9.95l.45-.52c.07-.09.12-.14.23-.14a.43.43,0,0,1,.21.11l.94.7c.12.09.21.14.21.29S259.75,217.53,259.17,217.92Zm-1.88,4.18h-4v5.69H255c0-2.09,0-2.38,0-3.15a3.47,3.47,0,0,0-.26-1.19l1.53.27c.16,0,.37.09.37.31s-.07.23-.44.45c0,.29,0,1.65,0,2s.06,1.67.06,2a.73.73,0,0,1-.81.79c-.48,0-.47-.25-.45-1h-4.5c0,.13,0,.71,0,.83,0,.85-.66.87-.76.87a.46.46,0,0,1-.49-.51c0-.2.08-.77.08-2.61a11.31,11.31,0,0,0-.22-3.42l1.62.4c.14,0,.3.07.3.25s0,.18-.53.5v3.26h1.66V222.1h-1.74a12.42,12.42,0,0,0-2,.16l-.35-.72c1.4.13,2.41.13,2.69.13h2a10.1,10.1,0,0,0,1-4.07l1.78,1a.28.28,0,0,1,.17.24c0,.23-.26.31-.75.39-.47.54-1.27,1.59-1.88,2.4h2.32l.59-.7c.11-.11.19-.22.26-.22s.21.09.34.18l.82.7a.39.39,0,0,1,.17.27C257.55,222.08,257.38,222.1,257.29,222.1Zm-6-.9c-.44,0-.56-.38-.81-1.13a5,5,0,0,0-1-1.95l.09-.1c.23.08,2.41,1,2.41,2.37A.76.76,0,0,1,251.27,221.2Z"/><path d="M269.62,228.46a10.65,10.65,0,0,1-4.79,2.84l0-.11a17.06,17.06,0,0,0,3-2.7c.82-.93.91-1.22,1-1.62l1.38.94c.14.09.23.18.23.31S270,228.44,269.62,228.46Zm10.85-1.91h-7.13c0,.34,0,1.17,0,2.25,0,.72.09,1.85.09,2.57a.88.88,0,0,1-1,.9c-.31,0-.51-.12-.51-.55s.11-2.45.11-2.87c0-1.27,0-2,0-2.3h-4.7c0,.83-.89.83-1,.83-.38,0-.44-.27-.44-.51s.11-1.67.13-2c0-1.31.05-2.48.05-3.88a20.83,20.83,0,0,0-.19-4.47l1.64.52c.17.06.35.11.35.27s-.23.34-.55.56c-.05,1.15-.07,2.34-.07,3.49,0,.53,0,4.11,0,4.76h10.65l.85-1c.11-.12.18-.21.3-.21s.23.12.3.18l1.08,1a.41.41,0,0,1,.17.29C280.75,226.53,280.6,226.55,280.47,226.55Zm-3.19-9.08c0,.74-.07,2.22.09,6,0,.05,0,.47,0,.5a.79.79,0,0,1-.86.83c-.51,0-.49-.34-.49-.83h-5.22c0,.27,0,.89-.87.89-.45,0-.47-.24-.47-.44s0-.3,0-.37c0-.42.12-3.62.12-5.5a12.22,12.22,0,0,0-.27-2.93l1.73.85h4.86l.5-.51c.12-.12.18-.2.3-.2s.21.11.26.17l.72.61a.46.46,0,0,1,.19.32C277.91,217,277.51,217.31,277.28,217.47Zm-1.22-.57H270.8v1.92h5.26Zm0,2.36H270.8v1.87h5.26Zm0,2.3H270.8v2h5.26Zm2.58,9.71c-.45,0-.64-.33-1.12-1.1a7.22,7.22,0,0,0-2.56-2.59l.05-.13c2.43.41,4.38,1.91,4.38,3.06A.73.73,0,0,1,278.64,231.27Z"/><path d="M293.69,224.23h-3.16a11.64,11.64,0,0,1-.45,2.71c1.94.73,3.28,1.93,3.28,3a.82.82,0,0,1-.71.88c-.47,0-.77-.56-1-1.08A5.87,5.87,0,0,0,290,227.2a7.35,7.35,0,0,1-4.8,4.91l0-.12a9.47,9.47,0,0,0,3.14-3.68,10.91,10.91,0,0,0,1.06-4.08h-1.65a12.5,12.5,0,0,0-2.06.16l-.35-.72c1.38.12,2.56.12,2.69.12h1.41c.07-.77.1-1.47.1-2.64,0-.78,0-1.3,0-1.62h-1.1A12.15,12.15,0,0,1,286,223l-.11-.09c.86-1.57,2.38-5.4,2.24-7.47l1.67.79c.18.07.32.18.32.32s-.26.31-.74.45a17.62,17.62,0,0,1-.78,2.08h2.76l.59-.76c.16-.2.19-.25.3-.25a.76.76,0,0,1,.33.19l.85.78c.09.09.18.16.18.27s-.18.2-.26.2h-2.67c0,1.83,0,3.13-.11,4.26h1.14l.49-.72c.1-.16.19-.28.29-.28s.14,0,.33.19l1,.78a.4.4,0,0,1,.18.27C294,224.21,293.78,224.23,293.69,224.23Zm6.31-4.32c-.06,1.67,0,5.47,0,7.9,0,.43.14,2.29.14,2.66a.86.86,0,0,1-.89.92c-.54,0-.52-.25-.47-1.55h-3.16c0,.22,0,1.28,0,1.39a.88.88,0,0,1-.87.52c-.54,0-.54-.32-.54-.47,0-.37.07-1,.08-1.36,0-1.16.14-5,.14-7.21a31.94,31.94,0,0,0-.22-4.64l1.59.81h2.86l.54-.49c.09-.09.14-.14.21-.14a.33.33,0,0,1,.21.12l.8.73c.11.09.18.17.18.28S300.43,219.69,300,219.91Zm-1.19-.6h-3.16v10.1h3.16Z"/><path d="M321.35,226h-2.76c0,.07,0,.85,0,1s.08,1.33.08,1.46c0,.58-.59.77-.89.77-.48,0-.47-.3-.41-1h-3.5c0,2.14,0,2.3-.12,2.68a2.58,2.58,0,0,1-1.85,1.46c-.31-1.1-1-1.55-2.2-2l0-.12c.35,0,1.47.16,2.13.16.16,0,.59,0,.7-.22s.09-.36.12-1.94h-3.23a10.45,10.45,0,0,0-2,.16l-.35-.72c1.08.09,2.16.13,2.69.13h2.93l0-1.77h-5.14a12.24,12.24,0,0,0-2.06.16l-.35-.72c1.17.11,2.36.13,2.69.13h4.86v-1.8h-3.44a10.8,10.8,0,0,0-2.06.18l-.35-.72c1.22.11,2.53.11,2.69.11h3.16v-1.69h-3.37a1,1,0,0,1-.07.5.93.93,0,0,1-.77.4.4.4,0,0,1-.44-.4c0-.11.09-1.46.09-1.75a8.43,8.43,0,0,0-.12-2l1.39.67h3.29v-1.37h-4.54a11.57,11.57,0,0,0-2.06.16l-.33-.72c1.08.09,2.16.13,2.67.13h4.26a9.72,9.72,0,0,0-.34-2.07l1.85.57c.2.06.28.15.28.27s-.29.35-.61.49c0,.16,0,.47,0,.74h4.19l.72-.87c.12-.16.17-.21.26-.21s.16,0,.33.18l1.12.86c.14.11.17.18.17.27s-.15.2-.26.2h-6.54c0,.11,0,1.17,0,1.37h3.3l.38-.38c.13-.13.18-.18.25-.18s.12,0,.24.13l.73.61c.13.09.16.16.16.25s-.35.36-.47.42c0,.25,0,1.35,0,1.58a.8.8,0,0,1-.82.83c-.42,0-.4-.34-.39-.7h-3.42c0,.43,0,.55,0,1.69h3.33l.49-.54c.12-.13.18-.2.26-.2s.13,0,.3.18l.7.61a.46.46,0,0,1,.16.25c0,.09-.06.18-.51.51v1.42h.72l.69-.88c.14-.16.18-.24.27-.24s.17.06.31.2l.87.89c.13.12.16.19.16.26S321.45,226,321.35,226Zm-8.62-6.48h-3.37v1.69h3.37Zm4.53,0h-3.4v1.69h3.4Zm.14,4.25h-3.54v1.8h3.54Zm0,2.23h-3.52v1.77h3.51Z"/><path d="M341,232.53a11.26,11.26,0,0,1,0-17.43l.16.25a12.44,12.44,0,0,0,0,16.92Z"/><path d="M352.31,230.65h-6.86v-.48a12.31,12.31,0,0,1,2.56-4c2.57-3.06,3.44-4.08,3.44-5.88a2.29,2.29,0,0,0-2.32-2.47c-1.22,0-1.95.76-1.95,1.41a1,1,0,0,0,.17.55,1.57,1.57,0,0,1,.37.9,1,1,0,0,1-1,1c-.61,0-1-.59-1-1.26a3.53,3.53,0,0,1,3.75-3.22,3.22,3.22,0,0,1,3.49,3.35c0,1.82-1,2.81-2.58,4.19a15.6,15.6,0,0,0-3.77,4.52h2.41c2.44,0,3-1,3.54-2.46l.52.19Z"/><path d="M357.74,232.53l-.16-.26a12.44,12.44,0,0,0,0-16.92l.16-.25a11.24,11.24,0,0,1,0,17.43Z"/><path d="M381,231a3.54,3.54,0,0,1-2.86-1.95,11.51,11.51,0,0,1-1.06-5.13c0-3.83,1.58-6.75,3.92-6.75,1.8,0,3.93,2,3.93,6.91C384.94,228.49,383.14,231,381,231Zm-1.95-10.82a16.45,16.45,0,0,0-.4,3.9c0,4,.92,6.3,2.35,6.3,1.21,0,1.75-1.65,1.94-2.34a17.36,17.36,0,0,0,.42-4c0-4.1-1-6.3-2.36-6.3C379.77,217.78,379.23,219.54,379.06,220.18Z"/><path d="M392.54,231a3.55,3.55,0,0,1-2.87-1.95,11.51,11.51,0,0,1-1.06-5.13c0-3.83,1.59-6.75,3.93-6.75,1.79,0,3.92,2,3.92,6.91C396.46,228.49,394.67,231,392.54,231Zm-2-10.82a17,17,0,0,0-.4,3.9c0,4,.92,6.3,2.36,6.3,1.2,0,1.74-1.65,1.93-2.34a16.81,16.81,0,0,0,.42-4c0-4.1-1-6.3-2.35-6.3S390.76,219.54,390.58,220.18Z"/><path d="M401.16,230.08h1c.91,0,1.22-.36,1.22-1.1v-9.74c0-.56-.5-.65-.83-.65h-1.33V218h.31a6.69,6.69,0,0,0,2.85-.75c.12-.08.17-.11.24-.11s.19.11.19.25V229c0,.77.37,1.1,1.23,1.1h1v.57h-5.8Z"/><path d="M419.48,217.51v1c-2.78,4.42-3.76,6.92-4,10.93,0,.47-.09,1.61-1,1.61a.94.94,0,0,1-.89-1c0-1.28,1.22-5.06,4.9-11.08h-3c-2.53,0-2.92,1.21-3.3,2.36l-.52-.12.71-3.66Z"/><path d="M427.11,231a3.55,3.55,0,0,1-2.87-1.95,11.51,11.51,0,0,1-1.06-5.13c0-3.83,1.59-6.75,3.93-6.75,1.79,0,3.92,2,3.92,6.91C431,228.49,429.24,231,427.11,231Zm-2-10.82a17,17,0,0,0-.4,3.9c0,4,.93,6.3,2.36,6.3,1.2,0,1.74-1.65,1.93-2.34a16.81,16.81,0,0,0,.42-4c0-4.1-1-6.3-2.35-6.3S425.33,219.54,425.15,220.18Z"/><path d="M436.17,218.93l-.16,4.54a3.66,3.66,0,0,1,2.71-1.24c2.51,0,3.71,2.14,3.71,4.12a4.51,4.51,0,0,1-4.31,4.65,3.17,3.17,0,0,1-3.3-2.65,1,1,0,0,1,1-1.12.87.87,0,0,1,.9.94,1.83,1.83,0,0,1-.08.54,2.41,2.41,0,0,0-.06.5c0,.78.79,1.17,1.49,1.17,1.41,0,2.74-1.38,2.74-3.79s-1.17-3.55-2.44-3.55a3.76,3.76,0,0,0-2.73,1.56l-.26-.14.26-7h6.08l-.35,1.42Z"/><path d="M447.69,218.93l-.15,4.54a3.64,3.64,0,0,1,2.7-1.24c2.52,0,3.72,2.14,3.72,4.12a4.52,4.52,0,0,1-4.31,4.65,3.17,3.17,0,0,1-3.3-2.65,1,1,0,0,1,1-1.12.88.88,0,0,1,.91.94,1.92,1.92,0,0,1-.09.54,3.24,3.24,0,0,0-.05.5c0,.78.78,1.17,1.48,1.17,1.42,0,2.74-1.38,2.74-3.79s-1.17-3.55-2.44-3.55a3.74,3.74,0,0,0-2.72,1.56l-.26-.14.26-7h6.07l-.35,1.42Z"/><path d="M473.76,222.79H465.1c-.46.86-1,2.05-1.19,2.59h4.89l.63-.56a.45.45,0,0,1,.26-.14c.09,0,.19.1.28.19l.87.83a.47.47,0,0,1,.16.29c0,.24-.33.32-.87.49-.79,3.76-1.19,5.74-4.51,5.67a3,3,0,0,0-1.74-2.05V230a14.9,14.9,0,0,0,2.95.47c.88,0,1.42-.6,2.06-4.65h-5.16a20.2,20.2,0,0,1-1,2.05.78.78,0,0,1-.68.31c-.3,0-.68-.16-.68-.45a.88.88,0,0,1,.1-.36c1.05-2.05,1.17-2.31,2.18-4.57h-3.26a11.15,11.15,0,0,0-2.06.16l-.35-.7c1.38.1,2.37.1,2.69.1h10.66l.79-1c.09-.1.17-.21.28-.21a.72.72,0,0,1,.31.18l1.08,1a.38.38,0,0,1,.18.27C474,222.79,473.84,222.79,473.76,222.79Zm-3.58-5.48c0,.71,0,2.49,0,3.15,0,.26,0,.74-.76.74-.55,0-.59-.27-.54-.88h-6c0,.45,0,1-.85,1a.46.46,0,0,1-.47-.47c0-.13.07-.7.07-.83,0-.63.08-1.48.08-2.36a8.16,8.16,0,0,0-.2-2l1.62.79h5.65l.35-.43c.07-.09.18-.2.25-.2a.74.74,0,0,1,.28.14l.83.53a.4.4,0,0,1,.2.3C470.67,216.88,470.55,217,470.18,217.31Zm-1.26-.45h-6v3h6Z"/><path d="M45.15,253.61a10.61,10.61,0,0,1,0-16.45l.15.23a11.76,11.76,0,0,0,0,16Z"/><path d="M54.43,240.1c-1.59,2.51-2.85,4.4-6,6.29l-.08-.12c2.65-2.64,5-6.12,4.86-7.86l1.69,1a.37.37,0,0,1,.2.29C55.1,239.91,55,240,54.43,240.1Zm6.82,12.32c-.4,0-.68-.27-.88-.75l-.69-1.61a77.14,77.14,0,0,1-8.23,2.07c-.28.38-.36.46-.51.46s-.23-.17-.26-.27l-.55-1.77a6.74,6.74,0,0,0,1.35.15c.13,0,1.09-.08,1.29-.1A32.61,32.61,0,0,0,55,244.47a3.66,3.66,0,0,0,.05-1l1.71.75c.1.05.25.13.25.29s-.2.29-.56.4c-.18.31-.31.55-1.52,2.72-.49.87-1,1.79-1.76,2.91,1.9-.2,4.24-.49,6.35-.78a9.28,9.28,0,0,0-2-2.23l.05-.12c1.93.73,4.37,2.43,4.37,4.1C62,252.27,61.45,252.42,61.25,252.42Zm1-6.58a8.87,8.87,0,0,1-3.1-2.79A8.57,8.57,0,0,1,57.59,239a13.18,13.18,0,0,0-2.16.19l-.35-.68c.43,0,1.27.08,2.13.08l.47-.57c.12-.14.19-.23.27-.23s.18.07.34.19l.73.55a.33.33,0,0,1,.17.25c0,.15-.12.22-.38.34l-.76.31a7,7,0,0,0,5.89,4.86v.12A2.65,2.65,0,0,0,62.3,245.84Z"/><path d="M72.16,247.05c-.38,0-.56-.32-.69-.58a11,11,0,0,0-1.35-2.17c0,4.5,0,5,0,6.23,0,.26.07,1.4.07,1.62a.76.76,0,0,1-.81.76.45.45,0,0,1-.51-.52c0-.19.06-1,.06-1.18.06-1.31,0-1.65.09-5.81a12.85,12.85,0,0,1-3.27,2.5l-.06-.12a25.93,25.93,0,0,0,5-6.44H68.37a11,11,0,0,0-2,.15l-.31-.66c1.12.08,2.29.1,2.52.1h.43a8.74,8.74,0,0,0-.43-3.33l1.9.56a.28.28,0,0,1,.2.22c0,.2-.2.34-.53.51a19.69,19.69,0,0,0,0,2h.59l.41-.44c.12-.12.2-.17.3-.17s.17.07.27.15l.74.68a.3.3,0,0,1,.11.24c0,.25-.26.32-.79.39a22.35,22.35,0,0,1-1.65,2.33,6.26,6.26,0,0,1,1.75.93,1.68,1.68,0,0,1,.83,1.3C72.76,246.59,72.61,247.05,72.16,247.05Zm8.66,4.84h-7a10.92,10.92,0,0,0-1.94.16l-.33-.68c1.15.1,2.39.12,2.54.12h1.61c0-1.74,0-4.49,0-6.22,0-.82,0-.94,0-1.47h-1a11,11,0,0,0-1.95.16l-.33-.69c1.1.11,2.24.12,2.54.12h.71c0-.29,0-1.41,0-1.7,0-2.73,0-3.09-.48-4.08l1.83.45c.25.05.4.17.4.32s-.31.41-.56.51c0,.42,0,3.79,0,4.5h1.67l.61-.83c.1-.13.16-.2.26-.2s.18.07.32.18l.9.82a.43.43,0,0,1,.17.27c0,.12-.13.17-.25.17H76.86v4.61l0,3.08h1.76l.78-.89c.11-.13.2-.18.28-.18a.42.42,0,0,1,.31.17l.91.86a.49.49,0,0,1,.15.27C81.07,251.84,80.92,251.89,80.82,251.89Z"/><path d="M84.4,253.61l-.15-.24a11.76,11.76,0,0,0,0-16l.15-.23a10.62,10.62,0,0,1,0,16.45Z"/><path d="M98,240.83l.46-.43c.08-.08.2-.2.26-.2a.74.74,0,0,1,.25.17l.65.49c.08.07.19.17.19.29s-.18.26-.72.46a20.7,20.7,0,0,1-1.87,2.58v.12c1.19.22,2.43.85,2.43,1.79a.65.65,0,0,1-.63.64c-.3,0-.49-.17-.71-.66a3.8,3.8,0,0,0-1.09-1.56v4c0,.26.07,3.64.07,3.76,0,.56-.18.87-.84.87-.45,0-.45-.26-.45-.5,0-1,.15-6.17.18-7.34a12.34,12.34,0,0,1-3.21,2.21l-.07-.1a24.6,24.6,0,0,0,5-6.15H95.91a11.73,11.73,0,0,0-1.93.15l-.33-.68c.69.07,1.7.12,2.42.12a9.56,9.56,0,0,0-.36-3.3l1.66.48c.09,0,.27.08.27.23s-.15.28-.48.48c0,.29,0,1.68,0,2.11Zm8.26-2,.55-.55c.06,0,.21-.22.26-.22s.2.11.31.19l.7.55c.1.08.18.17.18.25s-.15.19-.27.19h-6.18a11,11,0,0,0-1.93.15l-.33-.68c1.2.1,2.24.12,2.54.12Zm0,7.27.46-.52c.06-.09.15-.17.21-.17a.61.61,0,0,1,.23.13l.76.56a.4.4,0,0,1,.17.26c0,.1-.15.25-.5.53,0,.13,0,.37,0,.49,0,.61.13,4,.13,4.72a.7.7,0,0,1-.79.67c-.45,0-.45-.21-.41-.8h-5.18c0,.59-.18,1-.78,1-.41,0-.41-.25-.41-.41,0-.59.07-3.19.07-3.72a22.24,22.24,0,0,0-.19-3.59l1.51.9Zm-.89-5.18.39-.41c.08-.08.17-.18.23-.18s.13.06.2.11l.68.57a.38.38,0,0,1,.16.27c0,.12-.15.23-.46.4,0,.4.08,2.08.08,2.42a.71.71,0,0,1-.77.73c-.4,0-.4-.24-.4-.65h-3.56c0,.28,0,.79-.7.79-.33,0-.46-.16-.46-.6,0-.22,0-1.77,0-2.11a19.65,19.65,0,0,0-.12-2.1l1.35.76Zm-4.08,5.59v2.25h2v-2.25Zm0,2.65v2.4h2v-2.4Zm.61-7.83v2.45h3.6v-2.45Zm4.59,7.43v-2.25h-2.1v2.25Zm0,2.8v-2.4h-2.1v2.4Z"/><path d="M124.8,239.83c0,.62.08,9.79.08,11,0,1.08,0,2-1.86,2.38-.23-.94-.83-1.26-1.67-1.72l0-.12c.33,0,1.34.14,1.63.14s.55-.07.6-.27.06-5.27.06-6,0-5.61,0-6.11h-9.84c0,.62,0,7.24,0,8.43,0,.73.06,4,.06,4.61a.84.84,0,0,1-.89.94c-.24,0-.47-.09-.47-.65,0-.24.11-1.31.11-1.51,0-1.16.07-7.47.07-8.6a32.6,32.6,0,0,0-.18-4.42l1.58.8h9.4l.43-.5c.07-.08.11-.13.21-.13a.42.42,0,0,1,.2.1l.89.66c.12.09.2.14.2.27S125.35,239.45,124.8,239.83ZM123,243.77h-3.8v5.37h1.61c0-2,0-2.24,0-3a3.32,3.32,0,0,0-.25-1.13l1.45.26c.15,0,.35.08.35.29s-.07.22-.41.42c0,.27,0,1.57,0,1.87s0,1.58,0,1.87a.7.7,0,0,1-.76.75c-.47,0-.45-.24-.43-.95h-4.26c0,.12,0,.66,0,.78a.72.72,0,0,1-.73.82.43.43,0,0,1-.46-.48c0-.19.08-.73.08-2.47a10.6,10.6,0,0,0-.21-3.22l1.53.37c.14,0,.28.07.28.24s0,.17-.49.47v3.08h1.57v-5.37h-1.65a11.9,11.9,0,0,0-1.93.15l-.33-.68c1.32.12,2.27.12,2.54.12h1.89a9.33,9.33,0,0,0,1-3.84l1.69,1a.26.26,0,0,1,.16.22c0,.22-.25.29-.71.37-.44.51-1.2,1.5-1.78,2.26h2.19l.56-.66c.1-.1.19-.21.25-.21s.2.09.32.17l.77.67a.33.33,0,0,1,.17.25C123.27,243.75,123.1,243.77,123,243.77Zm-5.69-.85c-.41,0-.53-.36-.76-1.07a4.73,4.73,0,0,0-.91-1.84l.08-.1c.22.09,2.28,1,2.28,2.24A.73.73,0,0,1,117.33,242.92Z"/><path d="M133.34,249.77a10,10,0,0,1-4.52,2.68l0-.1a15.82,15.82,0,0,0,2.83-2.55c.78-.88.86-1.15.93-1.53l1.3.89a.35.35,0,0,1,.21.29C134.06,249.65,133.74,249.75,133.34,249.77ZM143.6,248h-6.75c0,.32,0,1.1,0,2.12,0,.68.08,1.75.08,2.43a.84.84,0,0,1-.91.85c-.29,0-.47-.12-.47-.52s.1-2.32.1-2.71c0-1.2,0-1.85,0-2.17h-4.44c0,.78-.84.78-.9.78-.37,0-.41-.26-.41-.48s.09-1.58.11-1.88c0-1.24.05-2.35.05-3.68a19.9,19.9,0,0,0-.18-4.21l1.55.49c.16,0,.33.1.33.26s-.22.32-.51.52c-.05,1.09-.07,2.21-.07,3.3,0,.49,0,3.88,0,4.49h10.07l.8-.9c.1-.12.17-.21.28-.21s.22.12.29.17l1,.9a.37.37,0,0,1,.16.28C143.86,248,143.71,248,143.6,248Zm-3-8.57c0,.7-.07,2.09.08,5.66,0,.05,0,.44,0,.48a.74.74,0,0,1-.81.78c-.48,0-.46-.32-.46-.78h-4.93c0,.25,0,.83-.83.83-.43,0-.44-.22-.44-.41s0-.29,0-.36c0-.39.12-3.41.12-5.18a12.06,12.06,0,0,0-.25-2.77l1.63.8h4.59l.48-.48c.11-.12.16-.19.28-.19s.2.11.25.16l.67.58a.41.41,0,0,1,.18.3C141.17,239,140.79,239.25,140.58,239.4Zm-1.15-.54h-5v1.82h5Zm0,2.22h-5v1.77h5Zm0,2.18h-5v1.87h5Zm2.44,9.16c-.43,0-.61-.31-1.06-1a6.9,6.9,0,0,0-2.42-2.44l.05-.12c2.29.39,4.14,1.8,4.14,2.89A.69.69,0,0,1,141.87,252.42Z"/><path d="M160.06,241.49a10.41,10.41,0,0,0-1.49,1l-.08,0a9.23,9.23,0,0,0,.51-1.75h-9.6c0,1.9-1,2.8-1.67,2.8a.7.7,0,0,1-.71-.66c0-.43.38-.73.85-1.11a3,3,0,0,0,1.27-2.11h.1a4,4,0,0,1,.13.67h4.25a6.36,6.36,0,0,0-.33-2.71l1.72.51c.18.05.25.16.25.26s-.12.25-.5.53v1.41h4.17l.52-.5a.51.51,0,0,1,.31-.17c.11,0,.23.12.31.21l1,.95a.63.63,0,0,1,.2.43C161.23,241.35,161.14,241.49,160.06,241.49Zm.95,10.59c-.71.53-2.72.54-3.66.54-3.74,0-4.5,0-4.57-1.66,0-.27,0-2.62,0-3l-3.39.64a9.9,9.9,0,0,0-1.88.51l-.45-.61c.84-.09,1.68-.19,2.53-.34l3.19-.61c0-.43,0-2.53,0-3a21.68,21.68,0,0,1-5.31.95v-.12c.24-.05,7.49-2.09,8.71-3.82l1.1,1.12a.38.38,0,0,1,.12.29c0,.15-.17.22-.25.22l-.59,0a25.13,25.13,0,0,1-2.63,1c0,.45,0,2.66,0,3.16l5-.94.61-1c.08-.13.15-.25.25-.25a.82.82,0,0,1,.3.12l1.12.66a.38.38,0,0,1,.21.27c0,.14-.1.17-.21.19l-7.28,1.37c0,1.3,0,2.23,0,3.1a.51.51,0,0,0,.33.54,12.87,12.87,0,0,0,3,.14c2.51,0,2.79,0,3.3-3.18h.1c.08.46.2,1.16.31,1.73s.13.65.33.84.27.24.27.41C161.61,251.62,161.26,251.91,161,252.08Z"/><path d="M170.38,243.72h-1.93v5.47c1.33-.41,1.71-.56,2.09-.7l.07.14a18.23,18.23,0,0,1-2.38,1.45l-2,1c-.15.36-.21.54-.41.54s-.21-.12-.26-.2l-.86-1.51a6.71,6.71,0,0,0,2.7-.46c0-.58,0-3.16,0-3.69v-2.09h-.33a11.11,11.11,0,0,0-1.95.15l-.31-.68c1,.08,2,.12,2.59.12,0-.85,0-1.7,0-2.55a9.39,9.39,0,0,0-.21-2.52l1.67.58c.08,0,.23.1.23.26s-.33.46-.56.61c0,1.19,0,1.77-.05,3.62h.39l.5-.56c.15-.17.19-.22.28-.22s.2.12.28.18l.58.56a.4.4,0,0,1,.14.26C170.62,243.7,170.48,243.72,170.38,243.72Zm7.37,8.7c-.38.07-3.3.07-3.76.07-2.71,0-3.19-.14-3.19-2,0-.66,0-3.59,0-4.18,0-.17,0-.94,0-1.09a8.91,8.91,0,0,0-1.6.9l-.56-.47c.89-.31,1.91-.77,2.16-.89v-3a9.38,9.38,0,0,0-.18-2l1.53.55c.12,0,.25.1.25.23s-.13.28-.53.56c0,.51,0,2.72,0,3.17l1.8-.84c0-1.7,0-2.9,0-4.09a11,11,0,0,0-.2-1.5l1.59.54c.16.06.28.14.28.26s-.23.36-.58.63c0,1.53,0,1.75,0,3.69l1.6-.73.39-.68c.09-.14.17-.29.28-.29a.56.56,0,0,1,.32.13l.77.5a.33.33,0,0,1,.17.27c0,.2-.18.37-.41.59,0,5.1,0,6.28-2,6.8a2.18,2.18,0,0,0-1-1.43v-.08a3.92,3.92,0,0,0,.51,0c1.16,0,1.34-.15,1.34-3.74,0-1.15,0-1.34,0-1.83l-2,.92c0,2.49,0,4.13,0,4.58,0,.23.05,1.23.05,1.43a.78.78,0,0,1-.84.85c-.23,0-.39-.08-.39-.44,0-.19,0-1.05,0-1.22,0-1.09,0-1.74.05-4.73l-1.8.83c0,.69,0,5.9,0,6.11a.56.56,0,0,0,.4.47c.21.07,2.57.07,2.89.07,1.7,0,2.21,0,2.55-.63a14.33,14.33,0,0,0,.73-2.06h.11a6.4,6.4,0,0,0,.32,2c.1.17.38.32.38.49S179,252.2,177.75,252.42Z"/><path d="M196.15,252.59c-6-.08-8.56-.12-10.79-2.34a7.85,7.85,0,0,1-3.36,2.94l-.1-.11a10.69,10.69,0,0,0,2.86-3.53,8.35,8.35,0,0,1-1.54-3.28l.17-.14a7.58,7.58,0,0,0,1.66,2.79,12,12,0,0,0,.92-4.62h-1.38c-.33.95-.41,1.2-1,1.2-.11,0-.59,0-.59-.39,0-.1.25-.8.39-1.21.86-2.27,1.54-4.13,1.74-4.87h-.6a10.72,10.72,0,0,0-1.94.15l-.32-.68c.84.07,1.69.12,2.53.12h.29l.43-.36c.15-.12.23-.17.32-.17a.63.63,0,0,1,.28.17l.64.56a.37.37,0,0,1,.16.31c0,.2-.32.35-.75.54-.37,1-.58,1.53-1.49,4.22h1.12l.45-.36a.64.64,0,0,1,.31-.17c.12,0,.2.07.32.19l.51.54a.57.57,0,0,1,.19.36c0,.15-.16.25-.51.47a12,12,0,0,1-1.35,4.68,8.88,8.88,0,0,0,5.74,1.68,37.2,37.2,0,0,0,5.81-.49l0,.14A2.07,2.07,0,0,0,196.15,252.59Zm1-10.59h-2.28c.07,2,.07,2,.07,2.14,0,.34,0,.87-.8.87-.44,0-.43-.27-.41-.56h-2v1.77h2.48l.49-.65c.12-.13.18-.22.28-.22s.18.09.32.19l.74.64a.54.54,0,0,1,.16.26c0,.15-.11.18-.24.18h-4.23l0,1.81h2.94l.62-.75c.13-.16.2-.22.28-.22s.18.06.3.18l.77.75a.41.41,0,0,1,.17.29c0,.1-.1.15-.25.15H191.7c0,.21,0,1.21,0,1.43a.78.78,0,0,1-.73.61c-.53,0-.53-.3-.53-.49s.09-1.29.09-1.55h-1.12a11,11,0,0,0-1.93.16l-.33-.67c1.28.11,2.5.11,2.54.11h.85c0-.46,0-.89,0-1.81h-.5a10.63,10.63,0,0,0-1.93.16l-.33-.67c.5,0,1.42.11,2.77.11v-1.77h-.33a11.82,11.82,0,0,0-1.94.15l-.33-.66c1.19.08,2.44.1,2.6.1l0-2h-1.53a11.38,11.38,0,0,0-1.93.15l-.33-.68a23.62,23.62,0,0,0,2.52.12h1.27l0-2h-.39a12.46,12.46,0,0,0-1.95.16l-.31-.68c1.15.1,2.23.12,2.64.12a3.16,3.16,0,0,0-.25-1.59l1.58.4c.19.05.28.11.28.27s-.19.3-.46.46v.46h1.92l.41-.38a.5.5,0,0,1,.29-.17c.1,0,.19.09.3.19l.46.46a.48.48,0,0,1,.2.32c0,.14-.13.24-.46.48a10.2,10.2,0,0,0,0,1.49h.59l.48-.63c.1-.13.18-.2.26-.2a.56.56,0,0,1,.32.17l.71.63c.08.08.16.17.16.25S197.29,242,197.13,242Zm-3.39,0h-2l0,2h2.06Zm0-2.4h-2l0,2h2Z"/><path d="M204.43,246.83c0,2.06,0,2.41,0,3.4,0,.59.07,1.54.07,2.14s-.71.78-.86.78c-.36,0-.45-.22-.45-.47,0-.07,0-.7,0-.82.06-1.27.06-1.73.09-4.45a16.22,16.22,0,0,1-2,1c0,.31-.05.6-.32.6s-.28-.19-.33-.29l-.77-1.53c1,0,1.3,0,3.46-.64,0-1.5,0-3.18,0-4.48h-1.48a13.91,13.91,0,0,1-1.47,3.76l-.1,0a27.77,27.77,0,0,0,.74-5.9,3.11,3.11,0,0,0-.16-1.16l1.58.39c.13,0,.28.07.28.26s-.23.34-.49.44c-.09.8-.17,1.31-.28,1.84h1.36c0-2.4-.08-3.1-.44-3.95l1.81.55c.1,0,.25.12.25.24s-.28.35-.53.49c0,.35,0,2.16,0,2.67h.33l.46-.65c.08-.1.16-.22.25-.22a.48.48,0,0,1,.29.19l.66.64a.41.41,0,0,1,.15.26c0,.15-.15.18-.25.18h-1.89c0,1.09,0,3,0,4.08.33-.11,1.86-.66,2.16-.78l0,.12A20.8,20.8,0,0,1,204.43,246.83Zm9.73-4.61c-.13,3.55-.26,6.78-1.3,9a3.15,3.15,0,0,1-2.56,1.72,2.77,2.77,0,0,0-1.4-2l0-.12a7,7,0,0,0,2,.35c.4,0,.66,0,1.12-1.2a27,27,0,0,0,.93-8.23h-.94c-.48,3.84-2.06,8.79-6.83,10.64l-.05-.12c3.5-2.7,5-5.57,5.67-10.52h-.92c-.68,3.59-2.54,6.68-4.93,7.83l-.05-.1a14.69,14.69,0,0,0,3.78-7.73h-.83a10.74,10.74,0,0,1-2.23,3.38l-.08-.08a19.34,19.34,0,0,0,2.13-6.94,2.28,2.28,0,0,0-.08-.58l1.65.68c.16.07.24.17.24.28s-.31.3-.57.37c-.43,1.36-.71,2.06-.88,2.48h4.75l.4-.42c.1-.12.18-.19.25-.19a.72.72,0,0,1,.29.15l.78.6c.11.08.18.13.18.23C214.72,242,214.34,242.14,214.16,242.22Z"/><path d="M231.87,252.44a8.8,8.8,0,0,1-3.45-3.4,8.78,8.78,0,0,1-3.84,3c0,.61,0,1.22-.84,1.22-.51,0-.51-.32-.51-.65s.08-1.66.1-2,0-2,0-2.44A31.07,31.07,0,0,1,219,250c-.13.43-.23.57-.4.57s-.23-.12-.3-.29l-.62-1.67a4.09,4.09,0,0,0,.74.1,11.77,11.77,0,0,0,1.3-.15v-9.4a10.35,10.35,0,0,0-1.51.15l-.33-.68c1.3.12,2.52.12,2.54.12h4.35l.71-.8c.13-.15.2-.2.28-.2s.18,0,.33.18l.82.79a.41.41,0,0,1,.15.27c0,.14-.1.17-.24.17H224.5c0,6.44-.05,7.16.08,12.66a10.19,10.19,0,0,0,3.3-3.84,18.79,18.79,0,0,1-1.55-7.36,4,4,0,0,0-.84.12l-.33-.68c1.28.1,2.5.1,2.52.1H230l.46-.54c.15-.17.2-.22.28-.22s.18.05.35.18l.75.6a.52.52,0,0,1,.23.31.27.27,0,0,1-.14.28,3.94,3.94,0,0,1-.75.48,21.14,21.14,0,0,1-2.14,6.87,8.34,8.34,0,0,0,4.32,3.06v.08A2.45,2.45,0,0,0,231.87,252.44Zm-8.53-13.26H220.9v2.72h2.44Zm0,3.13H220.9v2.75h2.44Zm0,3.16H220.9v2.92c.86-.17,2.08-.39,2.44-.49Zm4.08-4.88-.76,0a20.15,20.15,0,0,0,1.7,6.43,18.3,18.3,0,0,0,1.6-6.46Z"/><path d="M238.43,242.27h2.9v-3.11H238.1a11.86,11.86,0,0,0-1.95.15l-.31-.66c1.09.09,2.21.1,2.52.1h2.89l.38-.42c.08-.09.15-.19.26-.19a.77.77,0,0,1,.25.1l.64.43c.09.05.25.14.25.32s-.16.31-.58.6c0,.51.07,2.77.07,3.21a.67.67,0,0,1-.15.47.88.88,0,0,1-.67.28c-.37,0-.47-.17-.38-.87h-3.15c-.07.39-.45,2.74-.47,2.82h3.37l.46-.52a.37.37,0,0,1,.28-.19.59.59,0,0,1,.27.12l.67.51a.38.38,0,0,1,.18.3c0,.21-.23.36-.49.5-.18,2.21-.81,4.5-1.7,5.55a3.59,3.59,0,0,1-2.61,1.11,3.32,3.32,0,0,0-1.27-1.92v-.1a9.7,9.7,0,0,0,2.23.35c.35,0,.74,0,1.14-.76a11.08,11.08,0,0,0,1-4.54h-3.62a5.58,5.58,0,0,1-.19,1.26,1,1,0,0,1-.83.47.39.39,0,0,1-.44-.39c0-.15.46-2.12.52-2.48a14.47,14.47,0,0,0,.3-3.25Zm10.37-3.89c.15,0,.3.05.3.24s-.15.34-.56.58c0,.32,0,4.48,0,7.71,0,.82.13,4.46.13,5.2a.81.81,0,0,1-.22.67,1.35,1.35,0,0,1-.74.27c-.38,0-.44-.31-.44-.56s0-.21,0-.43c.08-1.37.08-3.14.08-3.84,0-6.34,0-8-.06-8.55a10.71,10.71,0,0,0-.3-1.7Z"/><path d="M267.69,241.49h-5.15l.86.53c.06,0,.16.15.16.24s-.31.23-.61.25a18.77,18.77,0,0,1-1.45,1.38h2.82l.65-.75c.08-.1.18-.2.26-.2a.68.68,0,0,1,.3.16l.75.75a.37.37,0,0,1,.15.26c0,.17-.13.19-.24.19h-5.27c0,.2,0,1.14,0,1.32h2.33l.57-.61c.1-.1.2-.2.28-.2s.17.08.32.18l.81.58c.08.07.18.15.18.27s-.14.19-.25.19h-4.24v1.48h4.24l.74-.87c.12-.13.17-.2.27-.2s.21.1.29.17l.91.86c.08.09.16.16.16.28s-.14.17-.26.17h-6a9.87,9.87,0,0,0,6.43,3.28l0,.1a2.78,2.78,0,0,0-1.52,1.38,10.55,10.55,0,0,1-5.21-4.76h-.05c0,1.54,0,1.85,0,2.17s.1,2.08.1,2.43a.76.76,0,0,1-.84.7c-.44,0-.48-.27-.48-.53s.05-1,.07-1.39c0-.56,0-.82.05-3.18a12.29,12.29,0,0,1-6.55,4.59l0-.1a15.39,15.39,0,0,0,5.28-4.69h-2.92a11.6,11.6,0,0,0-2,.15l-.33-.68c1.1.1,2.23.12,2.54.12h4V246H257a12,12,0,0,0-2,.15l-.32-.68c1.13.1,2.32.12,2.54.12h2.62V244.3H256.4a11.59,11.59,0,0,0-1.93.15l-.33-.68c1.11.1,2.26.12,2.54.12h4.49a8.64,8.64,0,0,0,.83-2.4h-4.69c1,.32,1.83.83,1.83,1.65a.65.65,0,0,1-.66.68c-.38,0-.43-.1-.82-1.12a4.07,4.07,0,0,0-.68-1.21h-1.71a10.06,10.06,0,0,0-2,.15L253,241c1.12.11,2.29.12,2.52.12h3.1a12.08,12.08,0,0,0-.28-3.5l1.6.48c.15.05.23.1.23.25s-.18.29-.49.41v2.36h1.22c0-2.16,0-2.65-.35-3.5l1.68.46c.1,0,.28.08.28.25s-.39.4-.54.45v2.34h.71a12.43,12.43,0,0,0,.86-2.38,3.83,3.83,0,0,0,.08-.81l1.47.76a.28.28,0,0,1,.19.24c0,.26-.39.31-.57.32-.51.56-1.39,1.53-1.72,1.87h2.59l.71-.76c.13-.14.2-.22.26-.22a.58.58,0,0,1,.33.18l.86.75c.1.09.18.16.18.27S267.79,241.49,267.69,241.49ZM257,240.71c-.4,0-.52-.27-.83-1a3.72,3.72,0,0,0-1-1.34l.07-.12c.66.17,2.31.63,2.31,1.82A.63.63,0,0,1,257,240.71Z"/><path d="M275.9,242.07h-2.33c0,3.72,0,4.54,0,5.57,0,.75,0,4.07,0,4.75,0,.3,0,.83-.81.83a.44.44,0,0,1-.48-.48c0-.25.1-1.42.12-1.68,0-1.22,0-1.75.06-5,0-2.39,0-2.53,0-4a12,12,0,0,0-1.88.15l-.33-.66c.47,0,1,.08,2.21.1,0-2.51,0-3.38-.37-4.1l1.81.53a.26.26,0,0,1,.21.24c0,.17-.05.2-.57.51,0,.46,0,2.43,0,2.82h.78l.49-.54c.08-.1.18-.22.26-.22a.58.58,0,0,1,.3.18l.6.56a.4.4,0,0,1,.14.26C276.14,242.05,276,242.07,275.9,242.07Zm3.81,5.22c-.43,4.76-.93,5.44-2.68,5.62-.16-.95-.21-1.14-.87-1.68l0-.13a4,4,0,0,0,1.32.28c.43,0,.53-.1.79-1.42a16.53,16.53,0,0,0,.36-3.15h-1.2c-.31,2-1.16,4.71-3.56,5.93l-.07-.08a8.86,8.86,0,0,0,2.57-5.83,9.21,9.21,0,0,0-1.65.15l-.33-.68c.61,0,1.09.09,2,.1a6.72,6.72,0,0,0-.1-2.05l1.5.54a.26.26,0,0,1,.21.24c0,.14-.36.37-.44.42,0,.33,0,.46-.08.85h1l.4-.42c.12-.12.17-.17.23-.17s.15.08.22.15l.67.61a.34.34,0,0,1,.13.24C280.18,246.93,280.14,247,279.71,247.29Zm3.81-6.9c-.73,3.43-1.87,3.55-2.86,3.67a2.38,2.38,0,0,0-1-1.8l.07-.11a4.55,4.55,0,0,0,1.48.41c.84,0,1.22-1.95,1.41-2.89h-2.43a6.51,6.51,0,0,1-4.57,4.76v-.1a8,8,0,0,0,3.48-4.66h-.86a9.49,9.49,0,0,0-1.95.16l-.33-.68c1.14.1,2.31.11,2.54.11h.7a8.1,8.1,0,0,0,.11-1.19,1.64,1.64,0,0,0-.11-.66l1.68.53a.18.18,0,0,1,.15.17c0,.1-.27.27-.53.44-.1.41-.13.53-.18.71h2.12l.27-.34a.39.39,0,0,1,.28-.15.34.34,0,0,1,.23.1l.87.75a.28.28,0,0,1,.14.22C284.18,240,283.76,240.25,283.52,240.39Zm1.76,6.61a2.38,2.38,0,0,0-.35.24c0,1.78-.24,4.08-.75,4.93a2.32,2.32,0,0,1-2,1,2.91,2.91,0,0,0-.94-1.67l.05-.13a4.35,4.35,0,0,0,1.4.29c.66,0,.71-.31.91-1.43a22.53,22.53,0,0,0,.24-3.37h-1.22c-.43,2.47-1.05,4.68-3.84,6.1l-.05-.08a9.61,9.61,0,0,0,2.87-6,4.5,4.5,0,0,0-.76.11l-.33-.68c.56,0,.81.06,1.15.08a12,12,0,0,0,.05-1.24,3.86,3.86,0,0,0-.13-1.28l1.57.58a.32.32,0,0,1,.21.26c0,.18-.42.41-.51.46-.06.63-.1.91-.16,1.24h1l.42-.49c.06-.08.14-.17.19-.17a.44.44,0,0,1,.25.12l.79.61a.38.38,0,0,1,.15.22C285.51,246.86,285.4,246.93,285.28,247Z"/><path d="M302.17,244.77a12.89,12.89,0,0,1-6-6.12l-.07,0a18.72,18.72,0,0,1-7.55,6.82l0-.11a22.69,22.69,0,0,0,6.07-6.78,3,3,0,0,0,.49-1.16l1.67.55c.08,0,.26.12.26.29s-.16.24-.51.32a11,11,0,0,0,7.29,4.76v.12A3.22,3.22,0,0,0,302.17,244.77Zm.13,2.38h-6.62A25,25,0,0,1,293,251c2-.13,4.59-.39,6.45-.62a9.63,9.63,0,0,0-1.81-2.35l.1-.1c2.26,1.05,4.05,2.77,4.05,4.2,0,.27-.18.83-.72.83s-.76-.46-1-1.06a7.78,7.78,0,0,0-.5-1.24c-1.34.43-7.41,1.75-8.35,1.91-.1.22-.14.37-.29.37s-.22-.17-.27-.3L290,251a6.58,6.58,0,0,0,1.47.15c.34,0,.67,0,1.19-.05a25.73,25.73,0,0,0,1.35-3.91h-2.33a12,12,0,0,0-1.93.15l-.33-.66c1.31.1,2.25.1,2.53.1h7.91l.85-.93c.11-.14.19-.21.28-.21s.18.09.29.17l1.14.94a.37.37,0,0,1,.17.25C302.55,247.15,302.38,247.15,302.3,247.15Zm-3.61-2.94h-4.24a12,12,0,0,0-1.95.15l-.33-.68c1.14.11,2.33.12,2.54.12h1.85l.74-.85c.08-.08.17-.2.26-.2a.61.61,0,0,1,.3.17l.91.85c.08.08.16.15.16.27S298.79,244.21,298.69,244.21Z"/><path d="M320,244.77a12.89,12.89,0,0,1-6-6.12l-.07,0a18.72,18.72,0,0,1-7.55,6.82l-.06-.11a22.42,22.42,0,0,0,6.07-6.78,3.06,3.06,0,0,0,.5-1.16l1.67.55c.08,0,.26.12.26.29s-.17.24-.51.32a10.93,10.93,0,0,0,7.29,4.76v.12A3.22,3.22,0,0,0,320,244.77Zm.13,2.38h-6.62a25,25,0,0,1-2.72,3.89c2-.13,4.59-.39,6.45-.62a9.63,9.63,0,0,0-1.81-2.35l.1-.1c2.25,1.05,4.05,2.77,4.05,4.2,0,.27-.18.83-.72.83s-.76-.46-1-1.06a7,7,0,0,0-.49-1.24c-1.34.43-7.41,1.75-8.35,1.91-.1.22-.15.37-.29.37s-.22-.17-.27-.3l-.69-1.72a6.58,6.58,0,0,0,1.47.15c.34,0,.67,0,1.19-.05a25.73,25.73,0,0,0,1.35-3.91h-2.33a12,12,0,0,0-1.93.15l-.33-.66c1.31.1,2.24.1,2.53.1h7.91l.84-.93c.12-.14.2-.21.29-.21s.18.09.29.17l1.14.94a.36.36,0,0,1,.16.25C320.35,247.15,320.19,247.15,320.11,247.15Zm-3.61-2.94h-4.24a12,12,0,0,0-1.95.15l-.33-.68c1.14.11,2.33.12,2.54.12h1.85l.74-.85c.08-.08.16-.2.26-.2a.61.61,0,0,1,.3.17l.91.85c.08.08.16.15.16.27S316.6,244.21,316.5,244.21Z"/><path d="M324.11,253.08a17.09,17.09,0,0,0,3.78-2.17,3.18,3.18,0,0,0,1.09-1.19l1.42.92c.06.05.18.15.18.27s-.41.27-.94.29a13.21,13.21,0,0,1-5.51,2Zm11.05-10.23.42-.42c.06-.07.16-.21.26-.21s.13.05.25.14l.71.56a.45.45,0,0,1,.21.32c0,.15-.23.32-.61.55,0,.71.1,5.21.1,5.64a.81.81,0,0,1-.79.83c-.46,0-.45-.41-.43-.66h-7.44c0,.41-.07.9-.79.9a.44.44,0,0,1-.48-.51c0-.24.07-.82.07-1,0-.48.06-2.33.06-4.17a9.33,9.33,0,0,0-.18-2.6l1.53.58Zm-.41-4.27.48-.49c.08-.08.16-.19.23-.19a.37.37,0,0,1,.23.12l.71.56a.37.37,0,0,1,.15.26c0,.15-.17.31-.55.56,0,.31,0,1.7,0,2a.68.68,0,0,1-.7.7c-.52,0-.51-.38-.47-.68H328.3c0,.25,0,.78-.72.78-.48,0-.48-.31-.48-.51s.06-1.63.06-1.94a7.82,7.82,0,0,0-.15-2l1.54.88Zm-6.9,4.68v1.61h7.43v-1.61Zm0,2v1.6h7.43v-1.6Zm0,2v1.9h7.43v-1.9Zm.45-8.3v2h6.57v-2Zm4.54,11c2.14.13,4.8,1.22,4.8,2.51a.63.63,0,0,1-.66.68c-.42,0-.63-.22-1.09-.71a10.37,10.37,0,0,0-3.07-2.41Z"/><path d="M365.85,253.61a10.61,10.61,0,0,1,0-16.45l.15.23a11.76,11.76,0,0,0,0,16Z"/><path d="M381,245l.87-1c.1-.12.15-.21.26-.21s.18.1.28.19l1.19,1.1c.08.09.17.16.17.26s-.15.19-.25.19H371.6a11.69,11.69,0,0,0-1.94.15l-.32-.78c1.24.12,2.43.12,2.53.12Z"/><path d="M392.86,247.05c-.38,0-.56-.32-.69-.58a10.56,10.56,0,0,0-1.36-2.17c0,4.5,0,5,0,6.23,0,.26.07,1.4.07,1.62a.76.76,0,0,1-.81.76.45.45,0,0,1-.51-.52c0-.19.06-1,.06-1.18.05-1.31,0-1.65.09-5.81a13,13,0,0,1-3.27,2.5l-.07-.12a25.46,25.46,0,0,0,5-6.44h-2.3a10.93,10.93,0,0,0-1.95.15l-.31-.66c1.12.08,2.29.1,2.52.1h.43a9,9,0,0,0-.43-3.33l1.9.56a.28.28,0,0,1,.2.22c0,.2-.2.34-.53.51a14.78,14.78,0,0,0,0,2h.59l.41-.44c.12-.12.2-.17.3-.17s.16.07.26.15l.75.68a.3.3,0,0,1,.11.24c0,.25-.26.32-.79.39a24.1,24.1,0,0,1-1.65,2.33,6.4,6.4,0,0,1,1.75.93,1.67,1.67,0,0,1,.82,1.3C393.45,246.59,393.3,247.05,392.86,247.05Zm8.66,4.84h-7a10.92,10.92,0,0,0-1.94.16l-.33-.68c1.15.1,2.39.12,2.54.12h1.61c0-1.74,0-4.49,0-6.22,0-.82,0-.94,0-1.47h-1a10.92,10.92,0,0,0-1.94.16l-.33-.69c1.1.11,2.24.12,2.54.12h.71c0-.29,0-1.41,0-1.7,0-2.73,0-3.09-.48-4.08l1.83.45c.25.05.4.17.4.32s-.32.41-.56.51c0,.42,0,3.79,0,4.5h1.67l.61-.83c.1-.13.16-.2.26-.2a.6.6,0,0,1,.31.18l.91.82a.43.43,0,0,1,.17.27c0,.12-.14.17-.25.17h-3.68v4.61l0,3.08h1.76l.78-.89c.11-.13.2-.18.28-.18a.42.42,0,0,1,.31.17l.91.86a.49.49,0,0,1,.15.27C401.77,251.84,401.62,251.89,401.52,251.89Z"/><path d="M405.09,253.61l-.15-.24a11.74,11.74,0,0,0,0-16l.15-.23a10.61,10.61,0,0,1,0,16.45Z"/><path d="M428.4,251.47a6.35,6.35,0,0,1-2.81.44c-1.63,0-2.64-.07-2.64-1.92,0-.73.24-3.06.5-6,.05-.53.06-.75.13-1.55H421c-.29,3.05-.79,8.11-6.63,9.73l0-.11a9.53,9.53,0,0,0,4.22-4.18c.48-.9.92-2,1.25-5.44h-2.59a11.24,11.24,0,0,0-2,.16l-.31-.68c1.12.1,2.29.11,2.53.11h2.35c0-.66.07-1.3.07-2a6.12,6.12,0,0,0-.25-2.28l1.77.38c.1,0,.38.08.38.27s-.4.43-.55.49c0,.5-.18,2.67-.21,3.11h2.31l.77-.62a.66.66,0,0,1,.3-.17c.1,0,.2.1.3.2l.69.68a.48.48,0,0,1,.18.32c0,.14-.08.19-.86.61-.33,2.18-.56,6-.56,6.68,0,.86.36.94,1.22.94,2,0,2-.07,2.61-3.09h.11a10,10,0,0,0,.47,2.58,3.4,3.4,0,0,1,.26.29.35.35,0,0,1,.1.24A1.14,1.14,0,0,1,428.4,251.47Z"/><path d="M436.13,238.24c.36.11.39.19.39.31s-.33.37-.47.46c0,2.55,0,4.45-.07,6-.06,1.38-.26,5.85-3.84,7.77l-.09-.1c2.33-2.4,2.89-4.73,2.89-10.46,0-3.07-.13-3.5-.49-4.4Zm-2.61,3.66a6.07,6.07,0,0,1,.38,2.11c0,1.88-.94,2-1.22,2a.61.61,0,0,1-.63-.65c0-.25.12-.42.47-.9a5.17,5.17,0,0,0,.87-2.55Zm3,0c.44.22,2,1.07,2,2.24,0,.55-.34.79-.66.79-.51,0-.61-.45-.74-.92a7.46,7.46,0,0,0-.71-2Zm4-3.66c.36.09.38.16.38.26s-.05.19-.53.46v7.1c0,.68.1,3.73.1,4.34a.81.81,0,0,1-.81.87.47.47,0,0,1-.49-.51c0-.14.05-.75.05-.89.06-1.09.06-2.28.06-3.89,0-3.77,0-6.17-.1-7.14a3.74,3.74,0,0,0-.24-1Zm.64,4.08c.81.34,2.25,1.3,2.25,2.38a.67.67,0,0,1-.68.7c-.55,0-.63-.41-.88-1.32a4.3,4.3,0,0,0-.79-1.67Zm4.16-4.21c.18,0,.35.12.35.31s-.25.32-.52.45c0,3.27,0,5.85,0,7.23,0,.92.11,5.35.11,5.81,0,1-.74,1-.82,1s-.51,0-.51-.61c0-.24,0-1.31.05-1.53,0-.64,0-1.32,0-2.6,0-5.35,0-7.14-.05-8.36a4.74,4.74,0,0,0-.41-2.08Z"/><path d="M464.15,239.72h-6.52l.58.51c.12.11.2.21.2.31s-.28.27-.69.29c-.24.37-.55.92-1.21,1.9l.94.31c.13.05.27.1.27.27s-.17.36-.56.58c0,.92,0,1.36,0,3.06,0,2.24,0,3.43.05,4.26,0,.19.05,1.13.05,1.33a.86.86,0,0,1-.86.81c-.49,0-.51-.35-.51-.59,0,0,0-.1,0-.46.08-1.68.13-4.28.13-6.12,0-1.34,0-1.77-.05-2.63-1,1.39-3.4,4.62-6.65,6.25l-.06-.1a42.64,42.64,0,0,0,5.82-7,10,10,0,0,0,1.55-3h-4.67a10.73,10.73,0,0,0-1.94.16l-.33-.68c.84.06,1.69.11,2.54.11h9.56l.74-.9c.1-.12.19-.2.29-.2a.77.77,0,0,1,.38.2l1.07.87a.39.39,0,0,1,.16.26C464.41,239.69,464.28,239.72,464.15,239.72Zm-.71,8.84c-.55,0-.73-.32-1.39-1.46a11.25,11.25,0,0,0-3.46-3.74l0-.1c2.51.54,5.46,3,5.46,4.52C464.08,248.36,463.72,248.56,463.44,248.56Z"/><path d="M476.17,241.52h-3.9v1.42h1.52l.4-.5c.08-.1.15-.17.23-.17a.41.41,0,0,1,.28.16l.61.56a.37.37,0,0,1,.15.28c0,.12-.08.24-.41.46,0,.5,0,2.66,0,3.08a.76.76,0,0,1-.77.9c-.22,0-.32-.17-.3-.44h-1.72v1.53h1.24l.45-.56c.1-.12.18-.21.28-.21s.18.07.33.19l.66.55a.36.36,0,0,1,.16.27c0,.1-.08.17-.26.17h-2.86v1.56c1.29-.22,2.23-.37,3.16-.59v.13a42.18,42.18,0,0,1-6.77,2.2c-.1.25-.19.4-.36.4a.27.27,0,0,1-.26-.2l-.76-1.48a2.91,2.91,0,0,0,.64.05,30,30,0,0,0,3.33-.35v-1.72H470a11.69,11.69,0,0,0-1.94.15l-.32-.68c1.13.1,2.29.12,2.53.12h1v-1.53h-1.7a.64.64,0,0,1-.13.56,1.08,1.08,0,0,1-.64.31c-.18,0-.31-.09-.31-.48,0-.66,0-3.53,0-4.11a9.14,9.14,0,0,0-.13-1.38l1.36.77h1.51v-1.42h-1.61a10.76,10.76,0,0,0-1.93.16l-.33-.68c1,.08,2.07.12,2.54.12h1.33v-1.33a20,20,0,0,1-2.72.22h-.77v-.12c1.84-.41,4.71-1.11,6.13-2.06l1,.93a.36.36,0,0,1,.14.26c0,.15-.15.2-.4.2a1.61,1.61,0,0,1-.35-.06,15.12,15.12,0,0,1-2,.47v1.5h2l.56-.73c.11-.14.18-.21.28-.21a.57.57,0,0,1,.31.17l.84.73a.43.43,0,0,1,.17.26C476.42,241.47,476.32,241.52,476.17,241.52Zm-4.92,1.82h-1.71v1.52h1.71Zm0,1.93h-1.71v1.59h1.71Zm2.76-1.93h-1.74v1.52H474Zm0,1.93h-1.74v1.59H474Zm7.62-2.22c0,5.7-.3,7.09-.66,8.11a2.77,2.77,0,0,1-2.41,2,2.85,2.85,0,0,0-1.78-1.9l.05-.12a10,10,0,0,0,2,.25c.4,0,.79,0,1.14-1a34.64,34.64,0,0,0,.59-6,11.79,11.79,0,0,0-.1-1.79h-1.7c0,2.76-.26,8.47-5,10.63l-.08-.1c3.76-3,3.89-7.47,4-10.53a11.39,11.39,0,0,0-1.9.16l-.33-.68c.65.05,1.09.08,2.23.12a17.63,17.63,0,0,0-.31-4.65l1.71.6c.18.07.28.15.28.27a.36.36,0,0,1-.11.24,4.19,4.19,0,0,1-.42.31v3.23h1.42l.56-.58c.14-.14.22-.19.3-.19s.17,0,.33.17l.64.53a.37.37,0,0,1,.17.29C482.19,242.65,481.94,242.85,481.63,243.05Z"/><path d="M499.55,243.84H488.32c.15,5.23-.53,7.44-2.79,9.31l-.08-.07a11.9,11.9,0,0,0,1.75-6.69,16.73,16.73,0,0,0-.36-3.73l1.63.77h5.31a19.94,19.94,0,0,0,1.25-3.32h-6.66a11.1,11.1,0,0,0-1.95.16l-.31-.68c1,.08,2.06.12,2.52.12h3.47a8.6,8.6,0,0,0-.27-2l1.72.42c.11,0,.23.07.23.24s-.4.39-.58.49v.89h3.48l.71-.82c.13-.15.18-.22.27-.22s.13,0,.29.17l1.06.83a.39.39,0,0,1,.16.26c0,.17-.13.18-.24.18h-3.34l1,.58a.2.2,0,0,1,.13.19c0,.24-.25.29-.67.39-.75.92-1.08,1.27-1.93,2.16h3.21l.61-.77c.1-.13.17-.2.25-.2s.16,0,.33.17l1.09.76c.11.09.18.16.18.26S499.67,243.84,499.55,243.84Zm.13,8.58h-9.45a11.63,11.63,0,0,0-1.94.15l-.32-.68c1.14.11,2.39.12,2.53.12h2.31v-2.43h-1.09a11.6,11.6,0,0,0-1.93.15l-.33-.67c1.12.1,2.32.11,2.54.11h.81v-2.09h-2.25a10,10,0,0,1-2.14,2.71l-.08-.06a22.25,22.25,0,0,0,2.12-5.42l1.46.65c.14.07.16.13.16.19s-.07.18-.58.44c-.13.17-.46.71-.67,1.09h2a12.28,12.28,0,0,0-.19-2.59l1.6.31c.09,0,.22,0,.22.2s-.26.32-.53.49c0,.24,0,1.35,0,1.59h2.43l.58-.82c.1-.14.18-.22.26-.22s.15.07.3.19l1,.81a.32.32,0,0,1,.17.26c0,.15-.15.18-.26.18h-4.43v2.09h2l.49-.63c.13-.15.17-.2.27-.2s.13,0,.29.17l.91.65c.13.1.17.17.17.24s-.15.18-.25.18h-3.85V252h3.57l.74-.71c.1-.09.21-.19.28-.19s.13,0,.3.17l1,.7a.37.37,0,0,1,.16.25C499.93,252.39,499.8,252.42,499.68,252.42Zm-9.23-9.25c-.4,0-.43-.12-.79-1.1a4.44,4.44,0,0,0-1-1.63l0-.09c.68.24,2.39.85,2.39,2A.74.74,0,0,1,490.45,243.17Z"/><path d="M509.07,240.1c-1.6,2.51-2.86,4.4-6,6.29l-.08-.12c2.65-2.64,5-6.12,4.87-7.86l1.68,1a.37.37,0,0,1,.19.29C509.72,239.91,509.58,240,509.07,240.1Zm6.81,12.32c-.4,0-.68-.27-.88-.75l-.69-1.61a77.14,77.14,0,0,1-8.23,2.07c-.28.38-.36.46-.51.46s-.23-.17-.27-.27l-.54-1.77a6.74,6.74,0,0,0,1.35.15c.13,0,1.09-.08,1.29-.1a32.61,32.61,0,0,0,2.21-6.13,3.66,3.66,0,0,0,.05-1l1.71.75c.1.05.25.13.25.29s-.2.29-.56.4c-.18.31-.31.55-1.52,2.72-.49.87-1,1.79-1.76,2.91,1.9-.2,4.24-.49,6.35-.78a9.28,9.28,0,0,0-2-2.23l.05-.12c1.93.73,4.37,2.43,4.37,4.1C516.6,252.27,516.08,252.42,515.88,252.42Zm1-6.58a9,9,0,0,1-3.1-2.79,8.57,8.57,0,0,1-1.61-4.06,13.38,13.38,0,0,0-2.17.19l-.34-.68c.43,0,1.27.08,2.13.08l.47-.57c.12-.14.19-.23.27-.23s.18.07.35.19l.72.55a.33.33,0,0,1,.17.25c0,.15-.12.22-.38.34l-.76.31a7,7,0,0,0,5.89,4.86v.12A2.65,2.65,0,0,0,516.93,245.84Z"/><path d="M535.37,252H523.05a11.86,11.86,0,0,0-1.95.15l-.33-.66c1.3.1,2.51.1,2.54.1h.56v-4.49c0-.91,0-3-.11-3.77a2,2,0,0,0-.17-.59l1.7.52c.13,0,.23.1.23.26s-.13.27-.49.49c0,1.07,0,6.39,0,7.58H528V239.38h-4a10,10,0,0,0-1.94.16l-.33-.68c.81.06,1.73.12,2.54.12h8.21l.71-.91c.12-.13.18-.2.27-.2a.64.64,0,0,1,.31.17l1,.9c.08.09.16.15.16.26s-.15.18-.24.18h-5.51v5.49h2.08l.66-.83c.11-.15.19-.2.27-.2a.51.51,0,0,1,.32.17l.89.83a.43.43,0,0,1,.15.27c0,.12-.1.17-.25.17h-4.12v6.34H533l.79-.92c.13-.15.23-.23.31-.23a.75.75,0,0,1,.35.2l1,.92c.08.08.15.15.15.25S535.47,252,535.37,252Z"/><path d="M552.57,252.44a8.8,8.8,0,0,1-3.45-3.4,8.78,8.78,0,0,1-3.84,3c0,.61,0,1.22-.84,1.22-.51,0-.51-.32-.51-.65s.08-1.66.09-2,0-2,0-2.44a30.72,30.72,0,0,1-4.31,1.82c-.13.43-.23.57-.39.57s-.23-.12-.3-.29l-.62-1.67a4,4,0,0,0,.74.1,11.77,11.77,0,0,0,1.3-.15v-9.4a10.37,10.37,0,0,0-1.52.15l-.33-.68c1.31.12,2.53.12,2.54.12h4.36l.71-.8c.13-.15.2-.2.28-.2s.18,0,.33.18l.82.79a.46.46,0,0,1,.15.27c0,.14-.1.17-.25.17h-2.36c0,6.44,0,7.16.09,12.66a10.28,10.28,0,0,0,3.3-3.84,18.61,18.61,0,0,1-1.55-7.36,4.17,4.17,0,0,0-.85.12l-.33-.68c1.29.1,2.51.1,2.53.1h2.27l.47-.54c.14-.17.19-.22.28-.22s.18.05.34.18l.76.6a.57.57,0,0,1,.23.31.27.27,0,0,1-.15.28,3.62,3.62,0,0,1-.74.48,21.42,21.42,0,0,1-2.14,6.87A8.34,8.34,0,0,0,554,251.2v.08A2.42,2.42,0,0,0,552.57,252.44ZM544,239.18H541.6v2.72H544Zm0,3.13H541.6v2.75H544Zm0,3.16H541.6v2.92c.86-.17,2.08-.39,2.44-.49Zm4.07-4.88-.76,0a20.68,20.68,0,0,0,1.7,6.43,18.07,18.07,0,0,0,1.6-6.46Z"/><path d="M559.13,242.27H562v-3.11H558.8a11.86,11.86,0,0,0-1.95.15l-.31-.66c1.09.09,2.21.1,2.52.1H562l.38-.42c.08-.09.15-.19.26-.19a.87.87,0,0,1,.25.1l.64.43c.08.05.25.14.25.32s-.17.31-.58.6c0,.51.07,2.77.07,3.21a.67.67,0,0,1-.15.47.88.88,0,0,1-.68.28c-.36,0-.46-.17-.38-.87h-3.15c-.06.39-.44,2.74-.46,2.82h3.37l.46-.52a.36.36,0,0,1,.28-.19.52.52,0,0,1,.26.12l.68.51a.41.41,0,0,1,.18.3c0,.21-.23.36-.49.5-.19,2.21-.81,4.5-1.7,5.55a3.59,3.59,0,0,1-2.61,1.11,3.32,3.32,0,0,0-1.27-1.92v-.1a9.7,9.7,0,0,0,2.23.35c.34,0,.74,0,1.14-.76a11.08,11.08,0,0,0,1-4.54h-3.62a5,5,0,0,1-.2,1.26,1,1,0,0,1-.82.47c-.25,0-.45-.13-.45-.39s.47-2.12.53-2.48a14.47,14.47,0,0,0,.3-3.25Zm10.37-3.89c.15,0,.3.05.3.24s-.15.34-.56.58c0,.32,0,4.48,0,7.71,0,.82.13,4.46.13,5.2a.81.81,0,0,1-.22.67,1.35,1.35,0,0,1-.74.27c-.38,0-.44-.31-.44-.56s0-.21,0-.43c.08-1.37.08-3.14.08-3.84,0-6.34,0-8-.07-8.55a9.61,9.61,0,0,0-.29-1.7Z"/><path d="M578.78,242.07h-2.32c0,3.72,0,4.54,0,5.57,0,.75.05,4.07.05,4.75,0,.3,0,.83-.81.83a.44.44,0,0,1-.48-.48c0-.25.1-1.42.11-1.68.05-1.22.05-1.75.07-5,0-2.39,0-2.53,0-4a12,12,0,0,0-1.88.15l-.33-.66c.46,0,1,.08,2.21.1,0-2.51,0-3.38-.38-4.1l1.82.53a.26.26,0,0,1,.21.24c0,.17,0,.2-.57.51,0,.46,0,2.43,0,2.82h.77l.5-.54c.08-.1.18-.22.26-.22a.58.58,0,0,1,.3.18l.59.56a.37.37,0,0,1,.15.26C579,242.05,578.9,242.07,578.78,242.07Zm3.82,5.22c-.43,4.76-.93,5.44-2.68,5.62-.16-.95-.21-1.14-.87-1.68l.05-.13a4,4,0,0,0,1.32.28c.43,0,.52-.1.79-1.42a17.42,17.42,0,0,0,.36-3.15h-1.2c-.32,2-1.16,4.71-3.57,5.93l-.06-.08a8.86,8.86,0,0,0,2.57-5.83,9,9,0,0,0-1.65.15l-.33-.68c.61,0,1.09.09,2,.1a6.72,6.72,0,0,0-.1-2.05l1.5.54a.26.26,0,0,1,.21.24c0,.14-.36.37-.44.42,0,.33,0,.46-.09.85h1l.4-.42c.11-.12.16-.17.23-.17s.15.08.21.15l.68.61a.34.34,0,0,1,.13.24C583.07,246.93,583,247,582.6,247.29Zm3.81-6.9c-.73,3.43-1.87,3.55-2.86,3.67a2.38,2.38,0,0,0-1-1.8l.07-.11a4.49,4.49,0,0,0,1.48.41c.84,0,1.22-1.95,1.4-2.89H583a6.51,6.51,0,0,1-4.57,4.76l0-.1a7.94,7.94,0,0,0,3.48-4.66h-.85a9.49,9.49,0,0,0-2,.16l-.33-.68c1.14.1,2.31.11,2.54.11H582a7,7,0,0,0,.12-1.19,1.45,1.45,0,0,0-.12-.66l1.69.53a.17.17,0,0,1,.14.17c0,.1-.26.27-.52.44-.1.41-.14.53-.18.71h2.12l.27-.34a.39.39,0,0,1,.28-.15.34.34,0,0,1,.23.1l.87.75a.27.27,0,0,1,.13.22C587.06,240,586.65,240.25,586.41,240.39Zm1.76,6.61a2.38,2.38,0,0,0-.35.24c0,1.78-.24,4.08-.76,4.93-.09.17-.52.86-2,1a2.91,2.91,0,0,0-.94-1.67l0-.13a4.39,4.39,0,0,0,1.41.29c.66,0,.71-.31.9-1.43a21.34,21.34,0,0,0,.25-3.37h-1.22c-.43,2.47-1.06,4.68-3.84,6.1l-.05-.08a9.61,9.61,0,0,0,2.87-6,4.5,4.5,0,0,0-.76.11l-.33-.68c.56,0,.81.06,1.15.08a12,12,0,0,0,0-1.24,3.86,3.86,0,0,0-.13-1.28l1.57.58a.32.32,0,0,1,.21.26c0,.18-.43.41-.51.46-.06.63-.1.91-.16,1.24h1L587,246c.07-.08.15-.17.2-.17a.44.44,0,0,1,.25.12l.79.61a.38.38,0,0,1,.15.22C588.4,246.86,588.29,246.93,588.17,247Z"/><path d="M596.68,241.17h-2.94a9.87,9.87,0,0,0-1.93.15l-.33-.68c1.12.1,2.29.12,2.52.12h1.11l.41-.61c0-.05.15-.21.27-.21s.21.11.29.17l.69.62a.33.33,0,0,1,.15.25C596.92,241.13,596.79,241.17,596.68,241.17Zm-.4,7a2.38,2.38,0,0,0,0,.36c0,.5.1,2.67.1,3.11a.68.68,0,0,1-.71.68c-.5,0-.46-.39-.43-.78h-2a4.48,4.48,0,0,1,0,1,.82.82,0,0,1-.72.46.38.38,0,0,1-.43-.41c0-.05,0-.15,0-.32.07-.56.1-2.87.1-4a10.69,10.69,0,0,0-.06-1.55l1.27.73h1.75l.28-.44c0-.05.14-.19.21-.19a.74.74,0,0,1,.3.16l.66.49a.3.3,0,0,1,.13.2C596.71,247.9,596.59,248,596.28,248.2Zm-.1-9.09h-2.29a7.9,7.9,0,0,0-1.37.1l-.22-.59c.88.07,1.67.08,1.7.08h.66l.42-.49c.08-.1.16-.2.24-.2s.15.05.32.17l.62.49a.35.35,0,0,1,.17.25C596.43,239.08,596.3,239.11,596.18,239.11Zm-.08,4.18h-2.21a7.83,7.83,0,0,0-1.37.1l-.22-.59c.73,0,1.47.08,1.8.08h.63l.35-.49s.14-.22.26-.22.25.14.3.19l.56.49a.35.35,0,0,1,.15.25C596.35,243.27,596.2,243.29,596.1,243.29Zm.11,2.15h-2.27a5.9,5.9,0,0,0-1.37.1l-.23-.6c.87.07,1.7.09,1.78.09h.58l.43-.56c0-.07.13-.21.24-.21a.67.67,0,0,1,.32.17l.61.56c.1.09.16.16.16.26S596.36,245.44,596.21,245.44Zm-1,2.46h-2v3.26h2Zm11.21-.77h-3.72a9.28,9.28,0,0,0,.43,2,7,7,0,0,0,1.07-1.63l1,.8c.08.06.15.08.15.2s-.25.24-.62.22c-.7.68-.93.92-1.26,1.21A3.11,3.11,0,0,0,605,251.4c.1,0,.23-.13.3-.22a11.31,11.31,0,0,0,1-1.63h.12a15,15,0,0,0-.3,2.17.69.69,0,0,0,.15.43.64.64,0,0,1,.2.39c0,.19-.17.39-.58.39a4.71,4.71,0,0,1-3.05-2.41,8.45,8.45,0,0,1-2.76,1.42l0-.11a13.86,13.86,0,0,0,2.46-2,9.81,9.81,0,0,1-.63-2.72h-2v1.52c.89-.26,1.24-.38,1.72-.53l.06.1a10.25,10.25,0,0,1-1.78,1c0,.45,0,2.17,0,2.43,0,1-.77,1.25-1.48,1.39-.28-.78-.31-.85-1.19-1.43v-.07a5.29,5.29,0,0,0,1.06.09c.41,0,.61,0,.66-.37s0-1.28,0-1.6c-.22.1-1.13.51-1.31.61s-.23.39-.31.39-.17-.12-.2-.22l-.48-1.22a9.26,9.26,0,0,0,2.3-.34c0-.19,0-1.18,0-1.76a10,10,0,0,0-1.9.16l-.31-.68c.79.07,1.3.08,2.21.1v-1.14a15,15,0,0,1-2,.26l0-.12c2.38-.87,2.79-1.16,3.22-1.58l.79.69a.26.26,0,0,1,.1.19c0,.2-.26.17-.43.14a4.58,4.58,0,0,1-.76.23l0,1.35h2c0-.43-.21-2.3-.29-2.67l1.32.29c.21.05.23.1.23.18s-.14.22-.38.39a15.23,15.23,0,0,0,0,1.81h2.05l.51-.73c.13-.19.19-.23.24-.23s.2.11.32.21l.72.71a.37.37,0,0,1,.15.26C606.67,247.1,606.54,247.13,606.43,247.13Zm-.37-3.36h-6.88a12,12,0,0,0-1.93.15l-.33-.66c1.31.1,2.25.1,2.53.1h1.22V242h-.38a10.83,10.83,0,0,0-1.95.16l-.33-.68c1.25.12,2.39.12,2.66.12v-1.31h-1.24a10,10,0,0,0-1.93.15l-.33-.68c1.3.1,2.24.12,2.52.12h2a6.83,6.83,0,0,0,.68-2.36l1.34.71c.08.05.21.12.21.26s-.21.2-.63.22a12.3,12.3,0,0,1-1.27,1.17h2.07l.47-.58c.1-.12.15-.2.25-.2a.53.53,0,0,1,.31.18l.7.57a.34.34,0,0,1,.16.25c0,.17-.16.19-.24.19h-4v1.31h1.65l.4-.53c.1-.12.16-.22.26-.22a.7.7,0,0,1,.3.19l.64.52a.35.35,0,0,1,.17.26c0,.17-.17.18-.25.18h-3.17v1.33h2.61l.54-.63c.14-.15.15-.22.27-.22s.18.07.31.19l.69.64a.33.33,0,0,1,.17.26C606.31,243.77,606.14,243.77,606.06,243.77Zm-6-4.05c-.37,0-.46-.22-.65-.69a3.78,3.78,0,0,0-.75-1.3l.06-.12c.41.09,1.93.41,1.93,1.48A.6.6,0,0,1,600.06,239.72Zm4.24,6.41c-.35,0-.45-.24-.53-.47a3,3,0,0,0-.56-1l0-.12c.41,0,1.55.19,1.55,1A.53.53,0,0,1,604.3,246.13Z"/><path d="M622.86,244.77a13,13,0,0,1-6-6.12l-.06,0a18.67,18.67,0,0,1-7.56,6.82l-.05-.11a22.42,22.42,0,0,0,6.07-6.78,3.06,3.06,0,0,0,.5-1.16l1.66.55c.09,0,.27.12.27.29s-.17.24-.51.32a10.93,10.93,0,0,0,7.29,4.76v.12A3.29,3.29,0,0,0,622.86,244.77Zm.14,2.38h-6.62a25,25,0,0,1-2.72,3.89c2-.13,4.59-.39,6.45-.62a9.63,9.63,0,0,0-1.81-2.35l.09-.1c2.26,1.05,4.06,2.77,4.06,4.2,0,.27-.18.83-.72.83s-.76-.46-1-1.06a7.81,7.81,0,0,0-.49-1.24c-1.34.43-7.41,1.75-8.35,1.91-.1.22-.15.37-.3.37s-.21-.17-.26-.3l-.69-1.72a6.58,6.58,0,0,0,1.47.15c.34,0,.67,0,1.18-.05a24.71,24.71,0,0,0,1.36-3.91h-2.33a12,12,0,0,0-1.93.15l-.33-.66c1.3.1,2.24.1,2.52.1h7.92l.84-.93c.12-.14.2-.21.28-.21s.19.09.3.17l1.14.94a.39.39,0,0,1,.16.25C623.24,247.15,623.08,247.15,623,247.15Zm-3.62-2.94h-4.24a11.93,11.93,0,0,0-1.94.15l-.33-.68c1.14.11,2.32.12,2.54.12h1.85L618,243c.08-.08.16-.2.26-.2a.61.61,0,0,1,.3.17l.91.85c.08.08.16.15.16.27S619.48,244.21,619.38,244.21Z"/><path d="M635,242.07c-.05.05-.33.24-.43.32,0,.83-.13,4.93-.21,5.85-.3,3.52-.94,4.62-2.92,4.79,0-.51-.2-1.05-1.8-2l0-.13a8.61,8.61,0,0,0,2,.35c.49,0,1.07,0,1.32-1.43a49.21,49.21,0,0,0,.44-7.88h-2.27c-.05,2.78-.15,8.17-4.26,11.08l-.1-.09a10.93,10.93,0,0,0,2.44-4.82,23.19,23.19,0,0,0,.75-6.17h-.75a10.84,10.84,0,0,0-1.94.15l-.33-.68c1.32.12,2.27.12,2.54.12h.48a15.16,15.16,0,0,0-.28-4l1.81.56c.12,0,.3.14.3.31s0,.2-.6.56c0,.25,0,.37,0,.56s0,1.72,0,2h2.07l.62-.61c.06-.07.11-.14.19-.14a.47.47,0,0,1,.23.12l.76.65a.4.4,0,0,1,.15.28C635.13,242,635.05,242,635,242.07Zm6.55-.55c-.08.09-.28.24-.36.33,0,1.42,0,7.14,0,8.33,0,.27.1,1.46.1,1.71a.82.82,0,0,1-.82.92c-.43,0-.48-.25-.48-.59s0-.45,0-.75h-2.72c0,.63.08,1.61-.88,1.61-.46,0-.46-.37-.46-.52s0-.5,0-.56c.08-2,.13-6.46.13-8.55a19.69,19.69,0,0,0-.22-3.59l1.59.93h2.32l.55-.49c0-.05.1-.1.16-.1a.48.48,0,0,1,.27.17l.72.66a.48.48,0,0,1,.15.27C641.68,241.39,641.6,241.46,641.53,241.52Zm-1.48-.32h-2.74v9.86h2.74Z"/><path d="M655.48,247.9l.43-.43c.08-.06.21-.17.26-.17s.1,0,.27.17l.69.6a.43.43,0,0,1,.17.27c0,.15,0,.19-.5.48a6.05,6.05,0,0,0,0,.63c0,.37.05,2.07.05,2.41h.84l.58-.8c.1-.15.16-.24.28-.24s.21.11.31.19l.87.82a.34.34,0,0,1,.17.27c0,.15-.13.17-.25.17H647.23a10.89,10.89,0,0,0-1.94.15l-.33-.66c.33,0,1.07.08,2.26.1a23.66,23.66,0,0,0-.18-4.74l1.48.78ZM650,238.47l.33-.36c.08-.09.15-.16.23-.16s.15.07.27.16l.72.54a.34.34,0,0,1,.17.26c0,.15-.22.3-.56.54a10.67,10.67,0,0,0,0,1.12c0,.45.09,3.44.12,3.76a2.55,2.55,0,0,1,0,.31c0,.44-.43.69-.89.69s-.34-.18-.33-.76h-2.44c0,.83.1,1.66-.81,1.66-.39,0-.39-.27-.39-.46s.08-1.42.08-3.68a20.81,20.81,0,0,0-.18-4.34l1.4.72Zm-2.39.4v2.42H650v-2.42Zm0,2.82v2.47H650v-2.47Zm.79,6.62v3.55h1.68v-3.55Zm5.31-4.63c-.21.85-.81,3.08-4.4,3.74l0-.12c2.75-1.19,3.62-3,3.62-6.56a11.38,11.38,0,0,0-.31-3.19l1.54.81h3l.34-.39c.1-.1.15-.17.22-.17s.06,0,.26.15l.79.57a.26.26,0,0,1,.15.22c0,.25-.43.51-.54.56,0,.64,0,2,0,3,0,.58.06,2.42.06,2.89s0,1.57-1.81,2a2.23,2.23,0,0,0-1.39-1.6l0-.12a7.11,7.11,0,0,0,1.07.05c.71,0,.79,0,.89-.15s.09-.26.09-.92v-.75Zm-2.52,4.63v3.55h1.68v-3.55Zm6.09-5V241.2H654a11.42,11.42,0,0,1-.2,2.07Zm-1.57,8.59v-3.55H654v3.55Zm1.57-11.07v-2H654v2Z"/><path class="cls-1" d="M189.59,124.93c0,16.23-6.79,26.56-16.91,26.56-9.65,0-14.58-10.61-14.58-24.06,0-18.94,9.06-26.08,17.51-26.08C185.2,101.35,189.59,110.92,189.59,124.93Zm-16-20.11c-7.59,0-9.78,8-9.78,19.48,0,10.34,2.26,23.65,10.65,23.65s9.45-10.82,9.45-21.56C183.93,117.09,181.73,104.82,173.61,104.82Z"/><path class="cls-1" d="M232.47,120.49c0,20-18.91,31.62-27,31.62-2.8,0-2.53-2-.14-2.56,13.19-3.19,19.84-12.35,21-23.37-2.06,1.8-7.05,5.34-12.38,5.34-6.73,0-12.18-6.11-12.18-13.94a16,16,0,0,1,16.11-16.23C227.34,101.35,232.47,109.88,232.47,120.49Zm-5.93,1.87c0-13.17-4.92-17.82-10.85-17.82-4.59,0-8.26,2.84-8.32,10.61-.07,8.67,5.32,11.72,10.25,11.72a13.61,13.61,0,0,0,8.92-3.4Z"/><path class="cls-1" d="M270.42,114.67c0,9.7-10.19,19.14-20.17,29.61-.34.28-.34.62,0,.69.66.14,9.85.56,16.11.56,2.33,0,3.53-.63,5.59-5.9.8-2.22,2.4-1.94,2.4.07a34.5,34.5,0,0,1-1.8,8.67c-.67,1.94-1.33,2.15-4.46,2.15s-20.37-.21-21.11-.21-3.19.07-3.59.07a1.32,1.32,0,0,1-.73-2.29c.86-.9,2.06-2.08,2.46-2.49,11-11.45,19-20.12,19-29.55,0-6.24-2.86-9.64-8.32-9.64-3.93,0-6.46,1.67-9.59,5.62-1.86,2.36-3.52.9-2.13-1.46,3.07-5.13,7.66-9.36,14.32-9.36C263.56,101.21,270.42,104.82,270.42,114.67Z"/><path class="cls-1" d="M286.86,130.69c1.4-.14,14.32-.42,16.31-.35,1.4.07,1.6.35,1.6,1a3.93,3.93,0,0,1-1.66,3.05c-1.53.69-14,.83-16.31.76-.47,0-1.13-.14-1.2-.9A5.21,5.21,0,0,1,286.86,130.69Z"/><path class="cls-1" d="M314.83,147.47a3.66,3.66,0,0,1-.74-2.36,6,6,0,0,1,1.27-3.33c.66-.83,1.4-.62,1.8.35.86,2.43,4.52,5.75,9.92,5.75,6.19,0,9.92-4.36,9.92-10.54,0-5.75-2.53-9.71-11.85-12.13a26.56,26.56,0,0,0-7.26-1c-1.13.07-1.53-.42-1.13-1.81a162.28,162.28,0,0,0,4.46-18.86c.26-1.39,1.06-1.8,1.93-1.32a3.52,3.52,0,0,0,1.53.28c2.33,0,8.79,0,11.38-.14a4.74,4.74,0,0,0,4.06-1.73c1.4-1.39,2.67-.35,1.8,1.38-2.53,5.07-4.59,5.55-5.26,5.69a94,94,0,0,1-12.71.28.81.81,0,0,0-.67.55c-.6,2.71-1.8,8.39-2.39,10.61-.07.28.13.28.39.42,2.8.42,5.13.9,7.46,1.39,9.39,2.15,13.91,6.65,13.91,13.1,0,5.55-2.19,9.92-7.45,13.74a18.62,18.62,0,0,1-11,3.6C318.49,151.35,315.83,148.92,314.83,147.47Z"/><path class="cls-1" d="M386.06,133.6c0,9.43-6.45,17.89-16.37,17.89-10.86,0-14.72-10.26-14.72-18.65,0-17,13.12-28.58,23.77-31.63a24.88,24.88,0,0,1,4.86-1c1.07,0,1.86.28,1.86,1.11,0,.28-.33,1.18-1.86,1.53-16.51,3.25-21,14.63-22.3,22.19,1.93-1.32,7.85-5.2,12.65-5.2C381.07,119.87,386.06,126.59,386.06,133.6Zm-5.59,3.19c0-9.92-6.06-12.49-10.12-12.42-3.46.07-6.32,1.32-9.38,3.47-.07,1-.07,1.81-.07,2.5,0,10.68,3.46,17.82,11.12,17.82C376.88,148.16,380.47,144.42,380.47,136.79Z"/><path class="cls-1" d="M426.14,132.63a18.45,18.45,0,0,0,5.4-.49c.6-.14,1,.14,1,.63a8.1,8.1,0,0,1-.93,3.12c-.33.55-.93.69-2.39.69h-5.33v9.22c0,2.36.07,3.54-.13,3.82-.6.9-3.13,1.52-4.66,1.52-.74,0-.94-.55-.74-1.31a17.76,17.76,0,0,0,.34-3.4c0-1.11.13-3.68.13-9.85h-5.06c-12.52,0-14.18,0-15.05-.28a1.07,1.07,0,0,1-.73-1,6.34,6.34,0,0,1,1.33-3.05c4.2-5.83,15.45-22.61,19.78-27.95a10.85,10.85,0,0,1,2.06-1.8c.53-.35,2-1.46,2.8-1.46.4,0,.8.49.6,1.25a18.74,18.74,0,0,0-.67,4.72v25.59Zm-7.32-23.51c-5.33,7.07-14.11,20.66-15.25,22.47-.13.34,0,.69.4.69,1,.07,3.07.28,14.85.35Z"/><path class="cls-1" d="M445.32,130.69c1.4-.14,14.31-.42,16.31-.35,1.4.07,1.6.35,1.6,1a3.94,3.94,0,0,1-1.67,3.05c-1.53.69-14,.83-16.31.76-.46,0-1.13-.14-1.2-.9A5.22,5.22,0,0,1,445.32,130.69Z"/><path class="cls-1" d="M497.31,114.67c0,9.7-10.18,19.14-20.17,29.61-.33.28-.33.62,0,.69.67.14,9.86.56,16.11.56,2.33,0,3.53-.63,5.6-5.9.79-2.22,2.39-1.94,2.39.07a34.06,34.06,0,0,1-1.8,8.67c-.66,1.94-1.33,2.15-4.46,2.15s-20.37-.21-21.1-.21-3.2.07-3.59.07a1.32,1.32,0,0,1-.74-2.29c.87-.9,2.07-2.08,2.47-2.49,11-11.45,19-20.12,19-29.55,0-6.24-2.86-9.64-8.32-9.64-3.93,0-6.46,1.67-9.59,5.62-1.86,2.36-3.53.9-2.13-1.46,3.06-5.13,7.66-9.36,14.31-9.36C490.46,101.21,497.31,104.82,497.31,114.67Z"/><path class="cls-1" d="M539.19,132.63a18.33,18.33,0,0,0,5.39-.49c.6-.14,1,.14,1,.63a8.1,8.1,0,0,1-.93,3.12c-.33.55-.93.69-2.4.69h-5.32v9.22c0,2.36.07,3.54-.13,3.82-.6.9-3.13,1.52-4.66,1.52-.74,0-.94-.55-.74-1.31a17.76,17.76,0,0,0,.34-3.4c0-1.11.13-3.68.13-9.85h-5.06c-12.52,0-14.18,0-15-.28a1.07,1.07,0,0,1-.73-1,6.34,6.34,0,0,1,1.33-3.05c4.2-5.83,15.45-22.61,19.78-27.95a10.55,10.55,0,0,1,2.06-1.8c.53-.35,2-1.46,2.8-1.46.39,0,.79.49.59,1.25a18.73,18.73,0,0,0-.66,4.72v25.59Zm-7.32-23.51c-5.33,7.07-14.11,20.66-15.25,22.47-.13.34,0,.69.4.69,1,.07,3.07.28,14.85.35Z"/><path class="cls-1" d="M573.88,147.88c2.6.28,2.6,2.57-.13,2.57s-5.06-.14-8.66-.14-6.45.14-8.92.14c-2.73,0-2.79-2.29-.07-2.57,4.87-.62,5.33-1.31,5.53-3.53.13-1.74.33-4.58.33-9.16V112c0-2.36-.13-2.84-.73-2.7a49,49,0,0,1-5,1c-1.93.21-3,.28-3-.62s.93-1.32,1.87-1.66a42.14,42.14,0,0,0,8.19-4.1c2.66-1.8,3.52-2.63,4.12-2.7a.82.82,0,0,1,.93,1.11c-.33,1.39-.86,4-.86,12.41v20.39c0,3.61,0,7.49.13,8.88C567.82,146.84,568.29,147.26,573.88,147.88Z"/><path class="cls-1" d="M616.09,124.93c0,16.23-6.79,26.56-16.91,26.56-9.65,0-14.58-10.61-14.58-24.06,0-18.94,9.06-26.08,17.51-26.08C611.7,101.35,616.09,110.92,616.09,124.93Zm-16-20.11c-7.59,0-9.78,8-9.78,19.48,0,10.34,2.26,23.65,10.65,23.65s9.45-10.82,9.45-21.56C610.43,117.09,608.23,104.82,600.11,104.82Z"/><path class="cls-2" d="M85.22,121a28,28,0,1,1,21.33,33.29A28,28,0,0,1,85.22,121Z"/><path class="cls-1" d="M107.24,119.75c2-1.17,3.58-2.25,4.13-2.57s.53-1.17.06-2l-4.37-7.33c-.61-1-1.28-2.07-2.23-1.5l-4.1,2.44c-2.44,1.45-5.68,9.64,2.81,23.9s17.24,15.32,19.69,13.86l4.1-2.44c1-.57.35-1.65-.26-2.68l-4.37-7.33c-.46-.79-1.2-1.21-1.75-.88s-2.25,1.24-4.23,2.41-4.16-1.79-7-6.6S105.26,120.92,107.24,119.75Z"/></g></svg>