<svg xmlns="http://www.w3.org/2000/svg" width="650" height="155" viewBox="0 0 650 155"><defs><style>.cls-1{isolation:isolate;}.cls-2{fill:#00af20;}.cls-3,.cls-5{fill:none;}.cls-3{stroke:#00af20;stroke-width:1.89px;}.cls-4{fill:#fff;}.cls-5{stroke:#f8f400;stroke-miterlimit:10;stroke-width:9.16px;mix-blend-mode:multiply;}</style></defs><title>kakaku_matome</title><g class="cls-1"><g id="レイヤー_3" data-name="レイヤー 3"><path class="cls-2" d="M66.55,72.87a18.55,18.55,0,0,1,6.29,7.26A35,35,0,0,1,76,89.88a65.77,65.77,0,0,1,.89,11A65.91,65.91,0,0,1,76,111.78a35,35,0,0,1-3.12,9.8,18.55,18.55,0,0,1-6.29,7.26,17.74,17.74,0,0,1-10.13,2.74,17.74,17.74,0,0,1-10.13-2.74A18.55,18.55,0,0,1,40,121.58a35,35,0,0,1-3.12-9.8,67.81,67.81,0,0,1,0-21.9A35,35,0,0,1,40,80.13a18.55,18.55,0,0,1,6.29-7.26,17.66,17.66,0,0,1,10.13-2.74A17.66,17.66,0,0,1,66.55,72.87Zm-5,49A11.56,11.56,0,0,0,64.91,117a31.73,31.73,0,0,0,1.77-7.14,67.66,67.66,0,0,0,.55-9,71.82,71.82,0,0,0-.51-9A28.73,28.73,0,0,0,65,84.73a11.9,11.9,0,0,0-3.38-4.85,8.53,8.53,0,0,0-10.3,0,11.55,11.55,0,0,0-3.33,4.85,30.61,30.61,0,0,0-1.77,7.13,73.75,73.75,0,0,0,0,18A30.7,30.7,0,0,0,47.94,117a11.55,11.55,0,0,0,3.33,4.85,8.53,8.53,0,0,0,10.3,0Z"/><path class="cls-2" d="M115.17,72.87a18.55,18.55,0,0,1,6.29,7.26,35,35,0,0,1,3.12,9.75,67.81,67.81,0,0,1,0,21.9,35,35,0,0,1-3.12,9.8,18.55,18.55,0,0,1-6.29,7.26A17.74,17.74,0,0,1,105,131.58a17.74,17.74,0,0,1-10.13-2.74,18.52,18.52,0,0,1-6.28-7.26,34.7,34.7,0,0,1-3.13-9.8,68.57,68.57,0,0,1,0-21.9,34.68,34.68,0,0,1,3.13-9.75,18.52,18.52,0,0,1,6.28-7.26A17.66,17.66,0,0,1,105,70.13,17.66,17.66,0,0,1,115.17,72.87Zm-5,49a11.56,11.56,0,0,0,3.34-4.85,31.73,31.73,0,0,0,1.77-7.14,67.66,67.66,0,0,0,.55-9,71.82,71.82,0,0,0-.51-9,28.73,28.73,0,0,0-1.77-7.13,11.9,11.9,0,0,0-3.38-4.85,8.53,8.53,0,0,0-10.3,0,11.55,11.55,0,0,0-3.33,4.85,30.61,30.61,0,0,0-1.77,7.13,73.75,73.75,0,0,0,0,18A30.7,30.7,0,0,0,96.56,117a11.55,11.55,0,0,0,3.33,4.85,8.53,8.53,0,0,0,10.3,0Z"/><path class="cls-2" d="M135.54,112.91H146.3v10.45a12.13,12.13,0,0,1-3,8,13,13,0,0,1-7.5,4.22v-4.72a6.05,6.05,0,0,0,3.71-2.71,8.78,8.78,0,0,0,1.32-4.8h-5.34Z"/><path class="cls-2" d="M188.4,72.87a18.47,18.47,0,0,1,6.29,7.26,35,35,0,0,1,3.13,9.75,68.57,68.57,0,0,1,0,21.9,35,35,0,0,1-3.13,9.8,18.47,18.47,0,0,1-6.29,7.26,20.08,20.08,0,0,1-20.25,0,18.47,18.47,0,0,1-6.29-7.26,35,35,0,0,1-3.13-9.8,68.57,68.57,0,0,1,0-21.9,35,35,0,0,1,3.13-9.75,18.47,18.47,0,0,1,6.29-7.26,20.08,20.08,0,0,1,20.25,0Zm-5,49a11.56,11.56,0,0,0,3.34-4.85,31.73,31.73,0,0,0,1.77-7.14,66,66,0,0,0,.55-9,71.82,71.82,0,0,0-.51-9,28.3,28.3,0,0,0-1.77-7.13,11.81,11.81,0,0,0-3.38-4.85,8.52,8.52,0,0,0-10.29,0,11.56,11.56,0,0,0-3.34,4.85A31.12,31.12,0,0,0,168,91.86a73.75,73.75,0,0,0,0,18,31.21,31.21,0,0,0,1.77,7.14,11.56,11.56,0,0,0,3.34,4.85,8.52,8.52,0,0,0,10.29,0Z"/><path class="cls-2" d="M237,72.87a18.52,18.52,0,0,1,6.28,7.26,35,35,0,0,1,3.13,9.75,68.57,68.57,0,0,1,0,21.9,35,35,0,0,1-3.13,9.8,18.52,18.52,0,0,1-6.28,7.26,20.1,20.1,0,0,1-20.26,0,18.55,18.55,0,0,1-6.29-7.26,35.35,35.35,0,0,1-3.13-9.8,68.57,68.57,0,0,1,0-21.9,35.34,35.34,0,0,1,3.13-9.75,18.55,18.55,0,0,1,6.29-7.26,20.1,20.1,0,0,1,20.26,0Zm-5,49a11.56,11.56,0,0,0,3.34-4.85,31.73,31.73,0,0,0,1.77-7.14,66,66,0,0,0,.55-9,71.82,71.82,0,0,0-.51-9,27.88,27.88,0,0,0-1.77-7.13A11.81,11.81,0,0,0,232,79.88a8.52,8.52,0,0,0-10.29,0,11.56,11.56,0,0,0-3.34,4.85,31.64,31.64,0,0,0-1.77,7.13,73.75,73.75,0,0,0,0,18,31.73,31.73,0,0,0,1.77,7.14,11.56,11.56,0,0,0,3.34,4.85,8.52,8.52,0,0,0,10.29,0Z"/><path class="cls-2" d="M285.65,72.87a18.52,18.52,0,0,1,6.28,7.26,35,35,0,0,1,3.13,9.75,68.57,68.57,0,0,1,0,21.9,35,35,0,0,1-3.13,9.8,18.52,18.52,0,0,1-6.28,7.26,20.1,20.1,0,0,1-20.26,0,18.55,18.55,0,0,1-6.29-7.26,35,35,0,0,1-3.12-9.8,67.81,67.81,0,0,1,0-21.9,35,35,0,0,1,3.12-9.75,18.55,18.55,0,0,1,6.29-7.26,20.1,20.1,0,0,1,20.26,0Zm-5,49A11.64,11.64,0,0,0,284,117a31.21,31.21,0,0,0,1.77-7.14,66,66,0,0,0,.55-9,71.82,71.82,0,0,0-.51-9A27.88,27.88,0,0,0,284,84.73a11.89,11.89,0,0,0-3.37-4.85,8.53,8.53,0,0,0-10.3,0A11.56,11.56,0,0,0,267,84.73a31.64,31.64,0,0,0-1.77,7.13,73.75,73.75,0,0,0,0,18A31.73,31.73,0,0,0,267,117a11.56,11.56,0,0,0,3.34,4.85,8.53,8.53,0,0,0,10.3,0Z"/><path class="cls-2" d="M342.54,125.17c0,3.72-1.38,5-5.36,5-2.08,0-5.24-.13-7.31-.26L328.7,124a48.08,48.08,0,0,0,5.62.34c1.48,0,1.78-.26,1.78-1.42v-9.44H312.26v17h-6.44V91.56h36.72ZM312.26,108H321V97h-8.7ZM336.1,97h-9v11h9Z"/><path class="cls-2" d="M406.77,101.22a13.34,13.34,0,0,0,7.06-1.67,6.35,6.35,0,0,0,.78-9.76,7.06,7.06,0,0,0-4.94-1.73,6.32,6.32,0,0,0-5.39,2.61,10.49,10.49,0,0,0-1.92,6.39h-7.18a16.42,16.42,0,0,1,4.22-10.8,13.56,13.56,0,0,1,10.4-4.19,17.37,17.37,0,0,1,5.13.76,13.88,13.88,0,0,1,4.47,2.27,11.16,11.16,0,0,1,3.15,3.71,11.56,11.56,0,0,1-.41,10.9,9,9,0,0,1-4.66,3.59v.12a9.24,9.24,0,0,1,5.86,3.75,12.17,12.17,0,0,1,2.14,7.28,12.41,12.41,0,0,1-4.63,9.82,15.73,15.73,0,0,1-5,2.71,18.77,18.77,0,0,1-6,1q-7.44,0-11.4-4.13t-4.1-11.24h7.19a10.18,10.18,0,0,0,2.17,6.83,7.62,7.62,0,0,0,6.14,2.55,8.77,8.77,0,0,0,6.08-2.11,7.34,7.34,0,0,0,2.36-5.76,7.65,7.65,0,0,0-.82-3.75,6.09,6.09,0,0,0-2.17-2.3,9.67,9.67,0,0,0-3.09-1.16,19.87,19.87,0,0,0-3.87-.35,4.87,4.87,0,0,0-.76.06h-.82Z"/><path class="cls-2" d="M431.42,114h8v7.79a9,9,0,0,1-2.19,6,9.7,9.7,0,0,1-5.6,3.15V127.4a4.53,4.53,0,0,0,2.77-2,6.61,6.61,0,0,0,1-3.58h-4Z"/><path class="cls-2" d="M448,90.26a18.71,18.71,0,0,0,8.57-1.8A7.63,7.63,0,0,0,460.83,83h5.86V127h-7.88V95.93H448Z"/><path class="cls-2" d="M489.8,115.9a6.76,6.76,0,0,0,2,4.37,6.07,6.07,0,0,0,4.47,1.67,6.88,6.88,0,0,0,4.53-1.45,9.3,9.3,0,0,0,2.71-3.71,20.16,20.16,0,0,0,1.32-4.7c.26-1.61.44-3.37.57-5.25l-.13-.13a9.59,9.59,0,0,1-3.93,3.9,11.43,11.43,0,0,1-5.58,1.39,13.21,13.21,0,0,1-10.07-4.06q-3.86-4.07-3.85-10.8a15,15,0,0,1,4.07-10.84q4-4.22,11.11-4.22a15.22,15.22,0,0,1,7.59,1.73,12.53,12.53,0,0,1,4.79,4.82,22.94,22.94,0,0,1,2.46,7.21,54.45,54.45,0,0,1,.72,9.29,37.85,37.85,0,0,1-.88,8.22,24,24,0,0,1-2.87,7.31,15.46,15.46,0,0,1-5.19,5.29A15.36,15.36,0,0,1,491,127.07a12.48,12.48,0,0,1-4.19-2.48,12.66,12.66,0,0,1-2.93-3.84,12.23,12.23,0,0,1-1.23-4.85ZM491,90.64a10.24,10.24,0,0,0-2,6.42,10.79,10.79,0,0,0,2,6.55,6.62,6.62,0,0,0,5.7,2.71,7,7,0,0,0,5.92-2.68,10.41,10.41,0,0,0,2.08-6.58,10,10,0,0,0-2.08-6.39,7.14,7.14,0,0,0-5.92-2.61A6.75,6.75,0,0,0,491,90.64Z"/><path class="cls-2" d="M524.82,115.9a6.76,6.76,0,0,0,2,4.37,6.07,6.07,0,0,0,4.47,1.67,6.88,6.88,0,0,0,4.53-1.45,9.3,9.3,0,0,0,2.71-3.71,20.16,20.16,0,0,0,1.32-4.7c.26-1.61.44-3.37.57-5.25l-.13-.13a9.59,9.59,0,0,1-3.93,3.9,11.43,11.43,0,0,1-5.58,1.39,13.21,13.21,0,0,1-10.07-4.06q-3.85-4.07-3.85-10.8a15,15,0,0,1,4.07-10.84q4.05-4.22,11.11-4.22a15.22,15.22,0,0,1,7.59,1.73,12.53,12.53,0,0,1,4.79,4.82,22.94,22.94,0,0,1,2.46,7.21,54.45,54.45,0,0,1,.72,9.29,37.85,37.85,0,0,1-.88,8.22,24,24,0,0,1-2.87,7.31,15.46,15.46,0,0,1-5.19,5.29A15.36,15.36,0,0,1,526,127.07a12.48,12.48,0,0,1-4.19-2.48,12.66,12.66,0,0,1-2.93-3.84,12.23,12.23,0,0,1-1.23-4.85ZM526,90.64a10.24,10.24,0,0,0-2,6.42,10.79,10.79,0,0,0,2,6.55,6.62,6.62,0,0,0,5.7,2.71,7,7,0,0,0,5.92-2.68,10.41,10.41,0,0,0,2.08-6.58,10,10,0,0,0-2.08-6.39,7.14,7.14,0,0,0-5.92-2.61A6.75,6.75,0,0,0,526,90.64Z"/><path class="cls-2" d="M579.26,107.36c-.22,7.48-.87,13.91-1.61,16.13s-2.19,3.23-5,3.23a56.35,56.35,0,0,1-6.17-.36l-.77-4.45a35.8,35.8,0,0,0,5.23.52c1.32,0,1.77-.29,2.13-1.45a50.8,50.8,0,0,0,1.22-9.46h-9.07a23.79,23.79,0,0,1-9.94,15.39l-3.55-3.61a20.27,20.27,0,0,0,8.1-10,40.83,40.83,0,0,0,1.75-10.52l0-.49H551.8V98.16h30v4.16H566.26c-.13,2.36-.23,3.42-.42,5Z"/><path class="cls-2" d="M614.06,123.14c0,2.77-1,3.71-4,3.71-1.55,0-3.91-.1-5.46-.2l-.87-4.42a33.23,33.23,0,0,0,4.2.26c1.09,0,1.32-.19,1.32-1.06v-7H591.47v12.68h-4.81v-29h27.4Zm-22.59-12.81H598v-8.2h-6.49Zm17.78-8.2h-6.68v8.2h6.68Z"/><path class="cls-2" d="M582.33,94a8.68,8.68,0,0,1-2.14-2.88,9.45,9.45,0,0,1-1-4,9.9,9.9,0,0,1,3.17-6.93h1.07c-2.13,2.44-3,4.49-3,6.94s.9,4.5,3,6.92Z"/><path class="cls-2" d="M587.8,87.28a15.09,15.09,0,0,1-2,3.77L585.23,90a14.44,14.44,0,0,0,2.44-4.73H585.4v-1h2.4V81.87c-.76.17-1.21.26-1.81.35l-.45-.87a21.13,21.13,0,0,0,4.56-1.17l.67.81a15,15,0,0,1-1.82.59l-.07,0v2.62h1.92v1h-1.92v1.12A14.18,14.18,0,0,1,591,88.19l-.68.93a12.74,12.74,0,0,0-1.4-1.62V94H587.8Zm3.63.79V83.23h3.92a21,21,0,0,0,1.3-3.14l1.1.41a26.12,26.12,0,0,1-1.33,2.73h1.91v4.84h-2v4.08c0,.43.1.47,1,.47.54,0,.67-.06.76-.32a9.14,9.14,0,0,0,.14-1.81l1,.4a5.27,5.27,0,0,1-.32,2.27c-.26.42-.71.55-1.92.55s-1.75-.24-1.75-1.09V88.07h-1.21v.38c0,2.86-.94,4.35-3.39,5.48l-.74-.87c2.21-.88,3.06-2.15,3.06-4.62v-.37Zm1.53-5a11.55,11.55,0,0,0-1.09-2.41l.92-.45a12.2,12.2,0,0,1,1.19,2.4Zm4.28,1.15h-4.73v2.91h4.73Z"/><path class="cls-2" d="M604.23,90.72c1.14,1.29,2.41,1.74,4.89,1.76h5.35a6.09,6.09,0,0,0-.37,1.09h-5c-2.7,0-4.15-.54-5.4-2a17.21,17.21,0,0,1-2.5,2.39l-.68-1.08a17.8,17.8,0,0,0,2.54-2V87.38h-2.53v-1h3.66Zm-.61-7a19.42,19.42,0,0,0-2.35-2.52l.82-.7a16.88,16.88,0,0,1,2.41,2.39Zm6.61-1.46a10.79,10.79,0,0,0,3.84,8.32l-.75,1a12.19,12.19,0,0,1-3.7-6.23,10.16,10.16,0,0,1-3.74,6.18l-.8-.93c2.45-1.75,3.71-4.42,4-8.46H606v-1h4.23Z"/><path class="cls-2" d="M616.35,94c2.12-2.44,3-4.5,3-6.93s-.89-4.48-3-6.93h1.07A8.85,8.85,0,0,1,619.56,83a9.51,9.51,0,0,1,1,4.06A9.89,9.89,0,0,1,617.42,94Z"/><path class="cls-2" d="M305.25,87.47a9.72,9.72,0,0,1-2.34-3.15,10.41,10.41,0,0,1-1.12-4.44,10.86,10.86,0,0,1,3.46-7.59h1.17c-2.33,2.67-3.31,4.92-3.31,7.6s1,4.92,3.31,7.58Z"/><path class="cls-2" d="M311.24,80.13a16.58,16.58,0,0,1-2.14,4.13l-.67-1.19a15.66,15.66,0,0,0,2.67-5.17h-2.48V76.79h2.62V74.21c-.83.19-1.33.28-2,.38l-.5-1a22.41,22.41,0,0,0,5-1.28l.73.9a16.37,16.37,0,0,1-2,.64l-.08,0v2.87h2.11V77.9h-2.11v1.23a15.29,15.29,0,0,1,2.29,2l-.75,1a12.39,12.39,0,0,0-1.54-1.78v7.1h-1.18Zm4,.87V75.69h4.3a24.51,24.51,0,0,0,1.42-3.43l1.2.44a26.32,26.32,0,0,1-1.46,3h2.1V81h-2.21v4.47c0,.46.11.51,1.12.51.59,0,.73-.06.83-.35a10.2,10.2,0,0,0,.16-2l1.12.43a6,6,0,0,1-.35,2.49c-.29.47-.79.61-2.11.61-1.49,0-1.92-.27-1.92-1.2V81h-1.33v.41c0,3.13-1,4.76-3.7,6l-.82-1c2.43-1,3.36-2.35,3.36-5.06V81Zm1.68-5.5a13.33,13.33,0,0,0-1.2-2.64l1-.49A13.08,13.08,0,0,1,318,75Zm4.68,1.26H316.4v3.18h5.18Z"/><path class="cls-2" d="M329.24,83.9c1.25,1.41,2.64,1.91,5.35,1.92h5.87A5.9,5.9,0,0,0,340,87h-5.43c-3,0-4.54-.59-5.91-2.17A19.4,19.4,0,0,1,326,87.47l-.76-1.19A18.41,18.41,0,0,0,328,84.11V80.25h-2.76V79.14h4Zm-.67-7.7A22.51,22.51,0,0,0,326,73.44l.89-.77a18.55,18.55,0,0,1,2.64,2.62Zm7.24-1.59a11.77,11.77,0,0,0,4.2,9.1l-.82,1.1A13.29,13.29,0,0,1,335.14,78a11.21,11.21,0,0,1-4.09,6.78l-.88-1c2.68-1.91,4.06-4.84,4.39-9.26h-3.39V73.36h4.64Z"/><path class="cls-2" d="M342.51,87.47c2.32-2.67,3.31-4.92,3.31-7.59s-1-4.91-3.31-7.59h1.17A9.71,9.71,0,0,1,346,75.44a10.39,10.39,0,0,1,1.11,4.44,10.88,10.88,0,0,1-3.46,7.59Z"/><line class="cls-3" x1="358.2" y1="41.5" x2="358.2" y2="130.39"/><rect class="cls-2" x="367.83" y="70.88" width="17.8" height="59.17"/><path class="cls-4" d="M370.89,86.07a5.87,5.87,0,0,0,1.46-2l1,.55a6.73,6.73,0,0,1-1.53,2.29Zm4.83-2.17h-4.11V76.11h4.11Zm-3-5.49h2V77.15h-2Zm0,2.16h2V79.33h-2Zm0,2.29h2V81.47h-2Zm2.08,1.08a9.24,9.24,0,0,1,1,1.47,13.82,13.82,0,0,0,.75-5.4V76.15h5.81v1.16H377.7v1.81h3.88l.58.46A12.13,12.13,0,0,1,380.63,84a6.82,6.82,0,0,0,2,1.65l-.7,1.16a8.65,8.65,0,0,1-2-1.8,11.23,11.23,0,0,1-2,1.92l-.75-1A6.79,6.79,0,0,0,379.22,84a10,10,0,0,1-1.28-3.77h-.24c0,3.31-.33,5-1.26,6.59l-.89-.85-.5.44A8,8,0,0,0,374,84.5ZM379,80.22a8.12,8.12,0,0,0,.9,2.69,8.61,8.61,0,0,0,.9-2.69Z"/><path class="cls-4" d="M371,98.9c2.74-.31,3.6-1.19,3.61-3.66h1.3c0,3.08-1,4.25-4.22,4.8Zm5.07-10.27h1.27v1.09h5v1h-5v.93h4.23v1h-9.47v-1h4v-.93h-4.94v-1h4.94Zm6,7.47h-1.29V94.61h-8.05v1.56h-1.29V93.61h10.63Zm-3.37-.9v3c0,.41.15.46,1,.46s1.06-.07,1.15-.41A5.38,5.38,0,0,0,381,96.9l1.29.36a4.87,4.87,0,0,1-.3,2c-.24.48-.6.55-2.63.55-1.67,0-2-.17-2-1.09V95.2Z"/><path class="cls-4" d="M373.4,113.12h-1.18v-6a15.7,15.7,0,0,1-.85,1.39l-.53-1.33a14.57,14.57,0,0,0,2.09-5.52l1.18.3a23.49,23.49,0,0,1-.71,2.42Zm3.09-9.52H374v-1.12h8.37v1.12H379.8v1.85H382v7.67h-1.12v-.81h-5.49v.81H374.3v-7.67h2.19Zm-1.07,7.66h1.09V106.5h-1.09Zm2.18-5.81h1.08V103.6H377.6Zm0,5.81h1.08V106.5H377.6Zm3.31-4.76h-1.14v4.76h1.14Z"/><path class="cls-4" d="M381.46,126.26h-1.19v-.7h-3v.7h-1.18v-4.6a6.28,6.28,0,0,1-.66.31l-.35-.67-.5.86c-.18-.32-.36-.6-.58-.92v5h-1.22v-5.12a14.87,14.87,0,0,1-1.25,2.77l-.64-1.31a12.26,12.26,0,0,0,1.77-4h-1.56v-1.17h1.68v-2.48H374v2.48h1.18V118a7.67,7.67,0,0,0,2.38-3.09l1.21.21c-.07.16-.16.36-.27.57H381l.69.62a10.27,10.27,0,0,1-2,2.94,9.37,9.37,0,0,0,3,1.39l-.5,1.11a10.43,10.43,0,0,1-3.32-1.73,14.05,14.05,0,0,1-2.55,1.59h5.18ZM374,119.74a11.46,11.46,0,0,1,1,1.06,10,10,0,0,0,3-1.6,7.8,7.8,0,0,1-1.05-1.34,7.77,7.77,0,0,1-1.08,1l-.71-.71v.43H374Zm3.27,4.75h3v-1.87h-3Zm.58-7.76-.07.12-.06.07-.08.12a9,9,0,0,0,1.19,1.46,6.57,6.57,0,0,0,1.34-1.77Z"/><rect class="cls-2" x="101" y="-45.11" width="30.68" height="172.15" transform="translate(75.37 157.31) rotate(-90)"/><path class="cls-4" d="M72.23,49.46c0,1.74-.66,2.29-2.7,2.29-1.48,0-2.82-.06-4.27-.2l-.49-2.35c1.68.17,3.19.26,4.3.26.55,0,.68-.13.68-.61V44.36H60.29A11.24,11.24,0,0,1,57,52l-1.91-1.85a10.08,10.08,0,0,0,2.72-7.39v-11H72.23ZM60.35,36.92h9.4V33.84h-9.4Zm0,5.37h9.4V39h-9.4Z"/><path class="cls-4" d="M91.64,37.12a44.52,44.52,0,0,1-6.13,9.24c1.1,1,1.76,1.56,2.64,2.44L86.3,50.69a46.64,46.64,0,0,0-7.22-6.4l1.63-1.71c1.1.77,1.8,1.29,3,2.28a34.15,34.15,0,0,0,4.75-7H80.31a22.88,22.88,0,0,1-4.71,5.55l-1.73-1.63A19.1,19.1,0,0,0,80.42,32l2.4.53a25.21,25.21,0,0,1-1.34,3.28h8.76Z"/><path class="cls-4" d="M103.66,48.67c4.25-1.08,6.32-3.43,6.32-7.24a6.6,6.6,0,0,0-3.21-6,7.22,7.22,0,0,0-2.38-.82c-.66,5.11-1.54,8.36-3.15,11.51a9.49,9.49,0,0,1-1.63,2.49,3.46,3.46,0,0,1-2.48,1.18c-2.53,0-4.58-3.16-4.58-7a10.42,10.42,0,0,1,5-8.84,10.31,10.31,0,0,1,5.55-1.5c5.61,0,9.46,3.61,9.46,8.89,0,5-2.53,8.16-7.57,9.51Zm-1.6-14.13a6.85,6.85,0,0,0-4.4,2A8.42,8.42,0,0,0,95,42.69c0,2.37,1,4.55,2.09,4.55.55,0,1-.51,1.73-1.72A29.16,29.16,0,0,0,102,34.92Z"/><path class="cls-4" d="M131.74,49.81a55.79,55.79,0,0,1-7.37.53c-3.1,0-6-.44-7.26-1.1A3.41,3.41,0,0,1,115,45.92a5.27,5.27,0,0,1,1.69-3.85l1.87,1.23a3.46,3.46,0,0,0-1,2.29c0,.79.44,1.32,1.36,1.67a18.76,18.76,0,0,0,5.48.64,45.78,45.78,0,0,0,7.08-.55Zm-3.5-16.08v2.33H117.16V33.73Zm2,1.67a18.92,18.92,0,0,0-2.16-3.76l1.65-.59a18.21,18.21,0,0,1,2.16,3.67Zm3-.55a18.06,18.06,0,0,0-2.11-3.76l1.58-.55a14.34,14.34,0,0,1,2.16,3.59Z"/><path class="cls-4" d="M140.86,46.91c1.69,1.72,3.23,2.27,6.75,2.33h8.91a7,7,0,0,0-.61,2.25H147c-3.48-.09-5.7-1-7.2-2.78l-.28.36A19.81,19.81,0,0,1,136.7,52l-1.37-2.42a20.14,20.14,0,0,0,3.2-2.4v-5h-3V39.91h5.33Zm-1.34-9.86a21.79,21.79,0,0,0-3.46-4.35l1.85-1.41a24.45,24.45,0,0,1,3.52,4.11Zm6-.09H154l1.21,1.11A17.24,17.24,0,0,1,152,44.2a16.76,16.76,0,0,0,4.14,2.25l-1.35,2.07a19.06,19.06,0,0,1-4.38-2.75,14.9,14.9,0,0,1-4.73,2.88l-1.25-1.81A15.75,15.75,0,0,0,149,44.36l-.11-.13a15.58,15.58,0,0,1-2.72-4.89l-.14-.4h-.5c-.09,4.76-.57,6.91-2.14,9.16l-1.71-1.65c1.21-1.94,1.6-4.07,1.6-9V32h12.41V34H145.48Zm5.06,5.68.07-.06a12.6,12.6,0,0,0,1.95-3.64H148a10.84,10.84,0,0,0,2.35,3.9Z"/><path class="cls-4" d="M160.73,41.63a21.47,21.47,0,0,0-3.32-3.45L159,36.57a16,16,0,0,1,3.43,3.34Zm-3.06,8.45A33.66,33.66,0,0,0,162,42.53l1.8,1.45a39.64,39.64,0,0,1-4.15,7.9Zm3.77-14a25.07,25.07,0,0,0-3.33-3.35l1.65-1.54a17.26,17.26,0,0,1,3.35,3.21ZM176.07,35a15.27,15.27,0,0,1-3.28,3.17,31.36,31.36,0,0,0,6.05,1.52l-1.1,2-.77-.17-.64-.16V51.93h-2.26V47.26h-6.85A7.18,7.18,0,0,1,164,52l-1.68-1.71c2.12-1.28,3-3,3-5.83V41.61c-.5.13-.9.24-1.52.35l-1.23-1.8a24.36,24.36,0,0,0,6.4-1.83A14.67,14.67,0,0,1,165.22,35h-1.87V33.14h6.12V31h2.33v2.12h6.47V35Zm-8.58,8.63v.46a11.22,11.22,0,0,1-.05,1.34h6.63v-1.8Zm6.58-2.93a20.88,20.88,0,0,1-3.24-1.27,22.92,22.92,0,0,1-3.34,1.49v1h6.58ZM167.75,35a14.09,14.09,0,0,0,3,2.27A16.24,16.24,0,0,0,173.43,35Z"/><path class="cls-2" d="M431.55,41.86a6.72,6.72,0,0,1,2.3,2.65A12.76,12.76,0,0,1,435,48.08a25.22,25.22,0,0,1,0,8,12.73,12.73,0,0,1-1.15,3.58,6.75,6.75,0,0,1-2.3,2.66,7.36,7.36,0,0,1-7.41,0,6.91,6.91,0,0,1-2.3-2.66,13,13,0,0,1-1.14-3.58,25.22,25.22,0,0,1,0-8,13.08,13.08,0,0,1,1.14-3.57,6.88,6.88,0,0,1,2.3-2.65,7.3,7.3,0,0,1,7.41,0Zm-1.82,17.91A4.28,4.28,0,0,0,431,58a11.07,11.07,0,0,0,.65-2.61,25,25,0,0,0,.2-3.29,27,27,0,0,0-.18-3.28A10.6,10.6,0,0,0,431,46.2a4.33,4.33,0,0,0-1.24-1.78,3.12,3.12,0,0,0-3.76,0,4.13,4.13,0,0,0-1.22,1.78,11.07,11.07,0,0,0-.65,2.61,27.08,27.08,0,0,0,0,6.57,11.07,11.07,0,0,0,.65,2.61A4.19,4.19,0,0,0,426,59.77a3.12,3.12,0,0,0,3.76,0Z"/><path class="cls-2" d="M452.42,61.25c0,1.36-.51,1.81-2,1.81-.76,0-1.92,0-2.68-.09l-.42-2.17a16.83,16.83,0,0,0,2.05.13c.54,0,.65-.1.65-.52V57h-8.72v6.22H439V49h13.43ZM441.34,55h3.19v-4h-3.19Zm8.72-4h-3.27v4h3.27Z"/><path class="cls-2" d="M611.92,61.25c0,1.36-.51,1.81-2,1.81-.76,0-1.92,0-2.68-.09l-.43-2.17a17,17,0,0,0,2.06.13c.54,0,.65-.1.65-.52V57h-8.72v6.22h-2.36V49h13.44ZM600.84,55H604v-4h-3.18Zm8.72-4h-3.28v4h3.28Z"/><path class="cls-2" d="M381.86,50V62.66H369.2V50Z"/><path class="cls-2" d="M384.68,61.66c1.36-.27,2-.41,2.72-.57l1.25-.29a24.2,24.2,0,0,0,1-3.46l1.54.39a20.9,20.9,0,0,1-.92,2.7l1.64-.42.08,1.33a60,60,0,0,1-6.79,1.85Zm7-12.25V50.8h-6.88V49.41Zm-.36,7.64h-6V52.34h6Zm-5,3.9a19.72,19.72,0,0,0-.89-3l1.46-.49a19.87,19.87,0,0,1,.9,3Zm.55-5.19h3V53.65h-3ZM391,62.89a9.42,9.42,0,0,0,2.82-2.2l1.28.75a10.24,10.24,0,0,1-3,2.56Zm8.18-10.72v8.44h-6.58V52.17h2c.08-.31.17-.67.33-1.38h-2.72V49.41h7.64v1.38H396.5a12.24,12.24,0,0,1-.49,1.38Zm-5.08,1.21V54.6h3.52V53.38Zm0,3.56h3.52V55.76h-3.52Zm0,2.44h3.52V58.1h-3.52Zm4.64,4.51a11.59,11.59,0,0,0-2.42-2.34l1.17-.89a11.63,11.63,0,0,1,2.5,2.12Z"/><path class="cls-2" d="M409.87,56.33h5.87v1.42h-5.87v4h2.81l-1.26-.52A16.57,16.57,0,0,0,412.84,58l1.7.58a20.2,20.2,0,0,1-1.65,3.1h3.29v1.49H402V61.72h2.93a13.89,13.89,0,0,0-1.31-3l1.53-.62a15.45,15.45,0,0,1,1.44,3l-1.55.55h3.16v-4h-5.74V56.33h5.74V54.54h-3.11v-.78a18.52,18.52,0,0,1-2.77,1.44l-1-1.39a13.67,13.67,0,0,0,6.71-5h1.88a13.88,13.88,0,0,0,6.9,4.56l-1,1.5A18.69,18.69,0,0,1,413,53.49v1h-3.11Zm2.43-3.25a13.91,13.91,0,0,1-3.3-3,12.76,12.76,0,0,1-2.76,2.83l-.19.14Z"/><path class="cls-2" d="M590.67,41.86a6.83,6.83,0,0,1,2.3,2.66,12.43,12.43,0,0,1,1.14,3.57,24.47,24.47,0,0,1,0,8A12.5,12.5,0,0,1,593,59.68a6.73,6.73,0,0,1-2.3,2.65,7.3,7.3,0,0,1-7.41,0,6.73,6.73,0,0,1-2.3-2.65,12.5,12.5,0,0,1-1.14-3.58,24.47,24.47,0,0,1,0-8A12.43,12.43,0,0,1,581,44.52a6.83,6.83,0,0,1,2.3-2.66,7.36,7.36,0,0,1,7.41,0Zm-1.82,17.91A4.27,4.27,0,0,0,590.07,58a11.86,11.86,0,0,0,.65-2.61,27.85,27.85,0,0,0,0-6.58,10.17,10.17,0,0,0-.65-2.61,4.28,4.28,0,0,0-1.23-1.77,3.1,3.1,0,0,0-3.77,0,4.27,4.27,0,0,0-1.22,1.77,11.58,11.58,0,0,0-.65,2.61,27.16,27.16,0,0,0,0,6.58,11.86,11.86,0,0,0,.65,2.61,4.27,4.27,0,0,0,1.22,1.77,3.14,3.14,0,0,0,3.77,0Z"/><path class="cls-2" d="M477.89,50V62.66H465.23V50Z"/><path class="cls-2" d="M480.77,61.12a13.78,13.78,0,0,0,2.29-5.84l1.69.46a15.76,15.76,0,0,1-2.45,6.57Zm7.89-11.88v2.85h5.82v1.55h-5.82v9.7h-1.74v-9.7h-5.7V52.09h5.7V49.24Zm4.72,12.86a24.73,24.73,0,0,1-2.88-6.5l1.66-.56a23.47,23.47,0,0,0,2.78,6Zm-1.06-10.47A10.72,10.72,0,0,0,490.88,49l1.25-.37a13.61,13.61,0,0,1,1.44,2.65Zm2.21-.21a10.74,10.74,0,0,0-1.41-2.67l1.17-.32A9.23,9.23,0,0,1,495.73,51Z"/><path class="cls-2" d="M510.8,55.19v1.74H497.19V55.19Z"/><path class="cls-2" d="M520.7,49.24v3.62h5.86v1.62H520.7c0,3-.27,4.36-1.12,5.79a8.64,8.64,0,0,1-3.93,3.18L514.56,62c3.45-1.54,4.47-3.28,4.37-7.53h-6.17V52.86h6.17V49.24Z"/><path class="cls-2" d="M539.23,50.39l1,.9a27,27,0,0,1-3.12,5.62A40,40,0,0,1,542,61.44l-1.28,1.45a52.66,52.66,0,0,0-4.64-4.68,17.67,17.67,0,0,1-6.41,4.73l-.93-1.6A16.85,16.85,0,0,0,538.09,52h-8.18V50.39Z"/><path class="cls-2" d="M546.83,48.81h1.67v2.8h2.23v1.5H548.5v2.68c.64-.16,1.09-.29,2-.57l.13,1.44c-.9.3-1,.33-2.17.68v5c0,1.08-.38,1.41-1.6,1.41a11.4,11.4,0,0,1-1.74-.11l-.3-1.67a10.49,10.49,0,0,0,1.57.14c.32,0,.4-.08.4-.43V57.8c-.87.2-1.68.41-2.41.57L544,56.75c.76-.11,1.66-.28,2.64-.5l.21,0V53.11h-2.68v-1.5h2.68Zm3.22,12.42.08-.22a100.59,100.59,0,0,0,2.76-11.8l1.72.34A87.44,87.44,0,0,1,551.79,61c1.14-.16,3.85-.62,4.72-.81-.76-1.95-1-2.5-1.55-3.69l1.55-.6a38.56,38.56,0,0,1,2.75,6.68l-1.64.85c-.22-.73-.35-1.12-.62-1.88l-.29.08a68.4,68.4,0,0,1-7.08,1.45l-.49-1.78Z"/><path class="cls-2" d="M568.14,58.91a12.65,12.65,0,0,1-1.54,3.19,2.11,2.11,0,0,1-1.66,1c-.82,0-1.58-.61-2.17-1.78a10.75,10.75,0,0,1-1-3,37.63,37.63,0,0,1-.32-4.88c0-.69,0-1.81.1-3.22l1.82.15c-.07,1.2-.1,1.94-.1,3,0,3.28.32,5.63.92,6.91.22.46.54.81.73.81.38,0,1.17-1.42,1.8-3.26ZM573,60.74A30.18,30.18,0,0,0,570.45,51l1.64-.4a25.41,25.41,0,0,1,2.74,9.7Z"/><line class="cls-5" x1="24.17" y1="128.69" x2="349.01" y2="128.69"/></g></g></svg>