<svg xmlns="http://www.w3.org/2000/svg" width="650" height="641" viewBox="0 0 650 641"><defs><style>.cls-1{isolation:isolate;}.cls-2{fill:#00af20;}.cls-3{fill:#fff;}.cls-4,.cls-5{fill:none;}.cls-4{stroke:#00af20;stroke-width:1.89px;}.cls-5{stroke:#f8f400;stroke-miterlimit:10;stroke-width:9.16px;mix-blend-mode:multiply;}</style></defs><title>kakaku_matome</title><g class="cls-1"><g id="レイヤー_3" data-name="レイヤー 3"><rect class="cls-2" x="294.75" y="-120.62" width="60.49" height="339.48" rx="30.25" transform="translate(275.88 374.12) rotate(-90)"/><path class="cls-3" d="M277.82,37.88a61.1,61.1,0,0,1-8.37,2.38l-1.17-4.51c4-.87,8.94-2.56,11-3.86h4.21v35.8h-5.69Z"/><path class="cls-3" d="M311.76,51.2c-.35,1.13-.61,1.91-1.08,3.34h23.87c-.31,5.38-1.13,9.85-2.35,12.54s-2.6,3.43-6.33,3.43a77.81,77.81,0,0,1-8.42-.43l-.87-4.39a76.59,76.59,0,0,0,8.16.52c1.95,0,2.51-.34,3.12-1.9a30.89,30.89,0,0,0,1.3-5.78H309.11c-.3.74-1,2.13-1.47,3.13l-4.95-1.35a65.32,65.32,0,0,0,3.65-8.37l.26-.74H298V47.12h41.23V51.2Zm21.44-7.12H304v-13H333.2Zm-24.43-3.64h19.57V34.93H308.77Z"/><path class="cls-3" d="M376.73,55.5a29.94,29.94,0,0,0,10.11,8.24l-2.6,4.17A33.1,33.1,0,0,1,374,58.1V70.73h-4.34V58.58a29.94,29.94,0,0,1-10.28,10.19l-2.82-3.68a26,26,0,0,0,10.72-9.59h-7.38V50.94l-2.17,3.73a31.14,31.14,0,0,0-2.65-3.9v20h-4.34V52a58.42,58.42,0,0,1-4.55,10.07l-2-5a49.08,49.08,0,0,0,6.21-14.67h-5.47V38.27h5.81V29.5h4.34v8.77h3.82v4.12h-3.82V46a33,33,0,0,1,4.82,4.77V39.66h9.76V37.05H357.81V33.28h11.84V29.5H374v3.78h12.07v3.77H374v2.61h9.9V55.5ZM364,43v2.82h5.77V43Zm0,6.12V52h5.77v-2.9ZM373.91,43v2.82h6V43Zm0,6.12V52h6v-2.9Z"/><rect class="cls-2" x="294.75" y="214.38" width="60.49" height="339.48" rx="30.25" transform="translate(-59.12 709.12) rotate(-90)"/><path class="cls-3" d="M266.76,398.09c1.21-4.43,4.95-8.77,10.85-12.54l1.08-.7c5.9-3.77,7.29-5.33,7.29-8.2,0-3-2.73-5.16-6.55-5.16-3.65,0-6.21,1.26-8.94,4.42l-3.6-3.12c3.25-4.08,7.29-6,12.8-6,7,0,12.33,4.21,12.33,9.81a8.59,8.59,0,0,1-2.44,6.51c-1.17,1.26-2.21,2-6.24,4.51l-.79.48-1.38.87c-5.21,3.21-8,6.07-8.55,8.68h19.83v5H266.76Z"/><path class="cls-3" d="M311.76,386.2c-.35,1.13-.61,1.91-1.08,3.34h23.87c-.31,5.38-1.13,9.85-2.35,12.54s-2.6,3.43-6.33,3.43a77.81,77.81,0,0,1-8.42-.43l-.87-4.39a76.59,76.59,0,0,0,8.16.52c1.95,0,2.51-.34,3.12-1.9a30.89,30.89,0,0,0,1.3-5.78H309.11c-.3.74-1,2.13-1.47,3.13l-4.95-1.35a65.32,65.32,0,0,0,3.65-8.37l.26-.74H298v-4.08h41.23v4.08Zm21.44-7.12H304v-13H333.2Zm-24.43-3.64h19.57v-5.51H308.77Z"/><path class="cls-3" d="M376.73,390.5a29.94,29.94,0,0,0,10.11,8.24l-2.6,4.17A33.1,33.1,0,0,1,374,393.1v12.63h-4.34V393.58a29.94,29.94,0,0,1-10.28,10.19l-2.82-3.68a26,26,0,0,0,10.72-9.59h-7.38v-4.56l-2.17,3.73a31.14,31.14,0,0,0-2.65-3.9v20h-4.34V387a58.42,58.42,0,0,1-4.55,10.07l-2-5a49.08,49.08,0,0,0,6.21-14.67h-5.47v-4.12h5.81V364.5h4.34v8.77h3.82v4.12h-3.82V381a33,33,0,0,1,4.82,4.77V374.66h9.76v-2.61H357.81v-3.77h11.84V364.5H374v3.78h12.07v3.77H374v2.61h9.9V390.5ZM364,378v2.82h5.77V378Zm0,6.12V387h5.77v-2.9Zm9.94-6.12v2.82h6V378Zm0,6.12V387h6v-2.9Z"/><path class="cls-2" d="M66.55,228.87a18.55,18.55,0,0,1,6.29,7.26A35,35,0,0,1,76,245.88a65.77,65.77,0,0,1,.89,11A65.91,65.91,0,0,1,76,267.78a35,35,0,0,1-3.12,9.8,18.55,18.55,0,0,1-6.29,7.26,17.74,17.74,0,0,1-10.13,2.74,17.74,17.74,0,0,1-10.13-2.74A18.55,18.55,0,0,1,40,277.58a35,35,0,0,1-3.12-9.8,67.81,67.81,0,0,1,0-21.9A35,35,0,0,1,40,236.13a18.55,18.55,0,0,1,6.29-7.26,17.66,17.66,0,0,1,10.13-2.74A17.66,17.66,0,0,1,66.55,228.87Zm-5,49A11.56,11.56,0,0,0,64.91,273a31.73,31.73,0,0,0,1.77-7.14,67.66,67.66,0,0,0,.55-9,71.82,71.82,0,0,0-.51-9A28.73,28.73,0,0,0,65,240.73a11.9,11.9,0,0,0-3.38-4.85,8.53,8.53,0,0,0-10.3,0,11.55,11.55,0,0,0-3.33,4.85,30.61,30.61,0,0,0-1.77,7.13,73.75,73.75,0,0,0,0,18A30.7,30.7,0,0,0,47.94,273a11.55,11.55,0,0,0,3.33,4.85,8.53,8.53,0,0,0,10.3,0Z"/><path class="cls-2" d="M115.17,228.87a18.55,18.55,0,0,1,6.29,7.26,35,35,0,0,1,3.12,9.75,67.81,67.81,0,0,1,0,21.9,35,35,0,0,1-3.12,9.8,18.55,18.55,0,0,1-6.29,7.26A17.74,17.74,0,0,1,105,287.58a17.74,17.74,0,0,1-10.13-2.74,18.52,18.52,0,0,1-6.28-7.26,34.7,34.7,0,0,1-3.13-9.8,68.57,68.57,0,0,1,0-21.9,34.68,34.68,0,0,1,3.13-9.75,18.52,18.52,0,0,1,6.28-7.26A17.66,17.66,0,0,1,105,226.13,17.66,17.66,0,0,1,115.17,228.87Zm-5,49a11.56,11.56,0,0,0,3.34-4.85,31.73,31.73,0,0,0,1.77-7.14,67.66,67.66,0,0,0,.55-9,71.82,71.82,0,0,0-.51-9,28.73,28.73,0,0,0-1.77-7.13,11.9,11.9,0,0,0-3.38-4.85,8.53,8.53,0,0,0-10.3,0,11.55,11.55,0,0,0-3.33,4.85,30.61,30.61,0,0,0-1.77,7.13,73.75,73.75,0,0,0,0,18A30.7,30.7,0,0,0,96.56,273a11.55,11.55,0,0,0,3.33,4.85,8.53,8.53,0,0,0,10.3,0Z"/><path class="cls-2" d="M135.54,268.91H146.3v10.45a12.13,12.13,0,0,1-3,8,13,13,0,0,1-7.5,4.22v-4.72a6.05,6.05,0,0,0,3.71-2.71,8.78,8.78,0,0,0,1.32-4.8h-5.34Z"/><path class="cls-2" d="M188.4,228.87a18.47,18.47,0,0,1,6.29,7.26,35,35,0,0,1,3.13,9.75,68.57,68.57,0,0,1,0,21.9,35,35,0,0,1-3.13,9.8,18.47,18.47,0,0,1-6.29,7.26,20.08,20.08,0,0,1-20.25,0,18.47,18.47,0,0,1-6.29-7.26,35,35,0,0,1-3.13-9.8,68.57,68.57,0,0,1,0-21.9,35,35,0,0,1,3.13-9.75,18.47,18.47,0,0,1,6.29-7.26,20.08,20.08,0,0,1,20.25,0Zm-5,49a11.56,11.56,0,0,0,3.34-4.85,31.73,31.73,0,0,0,1.77-7.14,66,66,0,0,0,.55-9,71.82,71.82,0,0,0-.51-9,28.3,28.3,0,0,0-1.77-7.13,11.81,11.81,0,0,0-3.38-4.85,8.52,8.52,0,0,0-10.29,0,11.56,11.56,0,0,0-3.34,4.85,31.12,31.12,0,0,0-1.77,7.13,73.75,73.75,0,0,0,0,18,31.21,31.21,0,0,0,1.77,7.14,11.56,11.56,0,0,0,3.34,4.85,8.52,8.52,0,0,0,10.29,0Z"/><path class="cls-2" d="M237,228.87a18.52,18.52,0,0,1,6.28,7.26,35,35,0,0,1,3.13,9.75,68.57,68.57,0,0,1,0,21.9,35,35,0,0,1-3.13,9.8,18.52,18.52,0,0,1-6.28,7.26,20.1,20.1,0,0,1-20.26,0,18.55,18.55,0,0,1-6.29-7.26,35.35,35.35,0,0,1-3.13-9.8,68.57,68.57,0,0,1,0-21.9,35.34,35.34,0,0,1,3.13-9.75,18.55,18.55,0,0,1,6.29-7.26,20.1,20.1,0,0,1,20.26,0Zm-5,49a11.56,11.56,0,0,0,3.34-4.85,31.73,31.73,0,0,0,1.77-7.14,66,66,0,0,0,.55-9,71.82,71.82,0,0,0-.51-9,27.88,27.88,0,0,0-1.77-7.13,11.81,11.81,0,0,0-3.38-4.85,8.52,8.52,0,0,0-10.29,0,11.56,11.56,0,0,0-3.34,4.85,31.12,31.12,0,0,0-1.77,7.13,73.75,73.75,0,0,0,0,18,31.21,31.21,0,0,0,1.77,7.14,11.56,11.56,0,0,0,3.34,4.85,8.52,8.52,0,0,0,10.29,0Z"/><path class="cls-2" d="M285.65,228.87a18.52,18.52,0,0,1,6.28,7.26,35,35,0,0,1,3.13,9.75,68.57,68.57,0,0,1,0,21.9,35,35,0,0,1-3.13,9.8,18.52,18.52,0,0,1-6.28,7.26,20.1,20.1,0,0,1-20.26,0,18.55,18.55,0,0,1-6.29-7.26,35,35,0,0,1-3.12-9.8,67.81,67.81,0,0,1,0-21.9,35,35,0,0,1,3.12-9.75,18.55,18.55,0,0,1,6.29-7.26,20.1,20.1,0,0,1,20.26,0Zm-5,49A11.56,11.56,0,0,0,284,273a31.21,31.21,0,0,0,1.77-7.14,66,66,0,0,0,.55-9,71.82,71.82,0,0,0-.51-9,27.88,27.88,0,0,0-1.77-7.13,11.81,11.81,0,0,0-3.38-4.85,8.52,8.52,0,0,0-10.29,0,11.56,11.56,0,0,0-3.34,4.85,31.64,31.64,0,0,0-1.77,7.13,73.75,73.75,0,0,0,0,18A31.73,31.73,0,0,0,267,273a11.56,11.56,0,0,0,3.34,4.85,8.52,8.52,0,0,0,10.29,0Z"/><path class="cls-2" d="M342.54,281.17c0,3.72-1.38,5-5.36,5-2.08,0-5.24-.13-7.31-.26L328.7,280a48.08,48.08,0,0,0,5.62.34c1.48,0,1.78-.26,1.78-1.42v-9.44H312.26v17h-6.44V247.56h36.72ZM312.26,264H321V253h-8.7Zm23.84-11h-9v11h9Z"/><path class="cls-2" d="M406.77,257.22a13.34,13.34,0,0,0,7.06-1.67,6.35,6.35,0,0,0,.78-9.76,7.06,7.06,0,0,0-4.94-1.73,6.32,6.32,0,0,0-5.39,2.61,10.49,10.49,0,0,0-1.92,6.39h-7.18a16.42,16.42,0,0,1,4.22-10.8,13.56,13.56,0,0,1,10.4-4.19,17.37,17.37,0,0,1,5.13.76,13.88,13.88,0,0,1,4.47,2.27,11.16,11.16,0,0,1,3.15,3.71,11.56,11.56,0,0,1-.41,10.9,9,9,0,0,1-4.66,3.59v.12a9.24,9.24,0,0,1,5.86,3.75,12.17,12.17,0,0,1,2.14,7.28,12.41,12.41,0,0,1-4.63,9.82,15.73,15.73,0,0,1-5,2.71,18.77,18.77,0,0,1-6,.95q-7.44,0-11.4-4.13t-4.1-11.24h7.19a10.18,10.18,0,0,0,2.17,6.83,7.62,7.62,0,0,0,6.14,2.55,8.77,8.77,0,0,0,6.08-2.11,7.34,7.34,0,0,0,2.36-5.76,7.65,7.65,0,0,0-.82-3.75,6.09,6.09,0,0,0-2.17-2.3,9.67,9.67,0,0,0-3.09-1.16,19.87,19.87,0,0,0-3.87-.35,4.87,4.87,0,0,0-.76.06h-.82Z"/><path class="cls-2" d="M431.42,270h8v7.79a9.06,9.06,0,0,1-2.19,6,9.7,9.7,0,0,1-5.6,3.15V283.4a4.53,4.53,0,0,0,2.77-2,6.61,6.61,0,0,0,1-3.58h-4Z"/><path class="cls-2" d="M446.85,239H477v6a69.34,69.34,0,0,0-11.47,17.48,60.21,60.21,0,0,0-5,20.62H452.7a54.24,54.24,0,0,1,1.77-10.2,60.25,60.25,0,0,1,3.65-9.92,71.41,71.41,0,0,1,5.2-9.23,74.45,74.45,0,0,1,6.39-8.31H446.85Z"/><path class="cls-2" d="M489.8,271.9a6.8,6.8,0,0,0,1.95,4.37,6.11,6.11,0,0,0,4.48,1.67,6.88,6.88,0,0,0,4.53-1.45,9.3,9.3,0,0,0,2.71-3.71,20.16,20.16,0,0,0,1.32-4.7c.26-1.61.44-3.37.57-5.25l-.13-.13a9.59,9.59,0,0,1-3.93,3.9,11.43,11.43,0,0,1-5.58,1.39,13.21,13.21,0,0,1-10.07-4.06q-3.86-4.06-3.85-10.8a15,15,0,0,1,4.07-10.84q4-4.22,11.11-4.22a15.22,15.22,0,0,1,7.59,1.73,12.53,12.53,0,0,1,4.79,4.82,22.94,22.94,0,0,1,2.46,7.21,54.45,54.45,0,0,1,.72,9.29,37.85,37.85,0,0,1-.88,8.22,24,24,0,0,1-2.87,7.31,15.46,15.46,0,0,1-5.19,5.29A15.36,15.36,0,0,1,491,283.07a12.48,12.48,0,0,1-4.19-2.48,12.66,12.66,0,0,1-2.93-3.84,12.23,12.23,0,0,1-1.23-4.85ZM491,246.64a10.24,10.24,0,0,0-2,6.42,10.79,10.79,0,0,0,2,6.55,6.62,6.62,0,0,0,5.7,2.71,7,7,0,0,0,5.92-2.68,10.41,10.41,0,0,0,2.08-6.58,10,10,0,0,0-2.08-6.39,7.14,7.14,0,0,0-5.92-2.61A6.75,6.75,0,0,0,491,246.64Z"/><path class="cls-2" d="M524.82,271.9a6.76,6.76,0,0,0,2,4.37,6.07,6.07,0,0,0,4.47,1.67,6.88,6.88,0,0,0,4.53-1.45,9.3,9.3,0,0,0,2.71-3.71,20.16,20.16,0,0,0,1.32-4.7c.26-1.61.44-3.37.57-5.25l-.13-.13a9.59,9.59,0,0,1-3.93,3.9,11.43,11.43,0,0,1-5.58,1.39,13.25,13.25,0,0,1-10.08-4.06q-3.84-4.06-3.84-10.8a15,15,0,0,1,4.07-10.84q4.05-4.22,11.11-4.22a15.22,15.22,0,0,1,7.59,1.73,12.53,12.53,0,0,1,4.79,4.82,22.94,22.94,0,0,1,2.46,7.21,54.45,54.45,0,0,1,.72,9.29,37.85,37.85,0,0,1-.88,8.22,24,24,0,0,1-2.87,7.31,15.46,15.46,0,0,1-5.19,5.29A15.36,15.36,0,0,1,526,283.07a12.48,12.48,0,0,1-4.19-2.48,12.66,12.66,0,0,1-2.93-3.84,12.23,12.23,0,0,1-1.23-4.85ZM526,246.64a10.18,10.18,0,0,0-2,6.42,10.73,10.73,0,0,0,2,6.55,6.62,6.62,0,0,0,5.7,2.71,7,7,0,0,0,5.92-2.68,10.41,10.41,0,0,0,2.08-6.58,10,10,0,0,0-2.08-6.39,7.14,7.14,0,0,0-5.92-2.61A6.75,6.75,0,0,0,526,246.64Z"/><path class="cls-2" d="M579.26,263.36c-.22,7.48-.87,13.91-1.61,16.13s-2.19,3.23-5,3.23a56.35,56.35,0,0,1-6.17-.36l-.77-4.45a35.81,35.81,0,0,0,5.22.52c1.33,0,1.78-.29,2.14-1.45a50.8,50.8,0,0,0,1.22-9.46h-9.07a23.79,23.79,0,0,1-9.94,15.39l-3.55-3.61a20.27,20.27,0,0,0,8.1-10,40.83,40.83,0,0,0,1.75-10.52l0-.49H551.8v-4.16h30v4.16H566.26c-.13,2.36-.23,3.42-.42,5Z"/><path class="cls-2" d="M614.06,279.14c0,2.77-1,3.71-4,3.71-1.55,0-3.91-.1-5.46-.2l-.87-4.42a33.23,33.23,0,0,0,4.2.26c1.09,0,1.32-.19,1.32-1.06v-7H591.47v12.68h-4.81v-29h27.4Zm-22.59-12.81H598v-8.2h-6.49Zm17.78-8.2h-6.68v8.2h6.68Z"/><path class="cls-2" d="M582.33,250a8.68,8.68,0,0,1-2.14-2.88,9.45,9.45,0,0,1-1-4,9.9,9.9,0,0,1,3.17-6.93h1.07c-2.13,2.44-3,4.49-3,6.94s.9,4.5,3,6.92Z"/><path class="cls-2" d="M587.8,243.28a15.09,15.09,0,0,1-2,3.77l-.61-1.08a14.44,14.44,0,0,0,2.44-4.73H585.4v-1h2.4v-2.36c-.76.17-1.21.26-1.81.35l-.45-.87a21.13,21.13,0,0,0,4.56-1.17l.67.81a15,15,0,0,1-1.82.59l-.07,0v2.62h1.92v1h-1.92v1.12a14.18,14.18,0,0,1,2.08,1.83l-.68.93a12.74,12.74,0,0,0-1.4-1.62V250H587.8Zm3.63.79v-4.84h3.92a21,21,0,0,0,1.3-3.14l1.1.41a26.12,26.12,0,0,1-1.33,2.73h1.91v4.84h-2v4.08c0,.43.1.47,1,.47.54,0,.67-.06.76-.32a9.14,9.14,0,0,0,.14-1.81l1,.4a5.27,5.27,0,0,1-.32,2.27c-.26.42-.71.55-1.92.55s-1.75-.24-1.75-1.09v-4.55h-1.21v.38c0,2.86-.94,4.35-3.39,5.48l-.74-.87c2.22-.88,3.06-2.15,3.06-4.62v-.37Zm1.53-5a11.55,11.55,0,0,0-1.09-2.41l.92-.45a12.2,12.2,0,0,1,1.19,2.4Zm4.27,1.15h-4.72v2.91h4.72Z"/><path class="cls-2" d="M604.23,246.72c1.14,1.29,2.41,1.74,4.89,1.76h5.36a5.42,5.42,0,0,0-.38,1.09h-5c-2.7,0-4.15-.54-5.4-2a17.21,17.21,0,0,1-2.5,2.39l-.68-1.08a17.8,17.8,0,0,0,2.54-2v-3.53h-2.53v-1h3.66Zm-.61-7a19.42,19.42,0,0,0-2.35-2.52l.82-.7a16.88,16.88,0,0,1,2.41,2.39Zm6.61-1.46a10.79,10.79,0,0,0,3.84,8.32l-.75,1a12.19,12.19,0,0,1-3.7-6.23,10.16,10.16,0,0,1-3.74,6.18l-.8-.93c2.45-1.75,3.71-4.42,4-8.46H606v-1h4.23Z"/><path class="cls-2" d="M616.35,250c2.12-2.44,3-4.5,3-6.93s-.89-4.48-3-6.93h1.07a8.85,8.85,0,0,1,2.14,2.87,9.51,9.51,0,0,1,1,4.06,9.89,9.89,0,0,1-3.16,6.93Z"/><path class="cls-2" d="M305.25,243.47a9.72,9.72,0,0,1-2.34-3.15,10.41,10.41,0,0,1-1.12-4.44,10.86,10.86,0,0,1,3.46-7.59h1.17c-2.33,2.67-3.31,4.92-3.31,7.6s1,4.92,3.31,7.58Z"/><path class="cls-2" d="M311.24,236.13a16.58,16.58,0,0,1-2.14,4.13l-.67-1.19a15.66,15.66,0,0,0,2.67-5.17h-2.48v-1.11h2.62v-2.58c-.83.19-1.33.28-2,.38l-.5-1a22.41,22.41,0,0,0,5-1.28l.73.9a16.37,16.37,0,0,1-2,.64l-.08,0v2.87h2.11v1.11h-2.11v1.23a15.29,15.29,0,0,1,2.29,2l-.75,1a12.39,12.39,0,0,0-1.54-1.78v7.1h-1.18Zm4,.87v-5.31h4.3a24.51,24.51,0,0,0,1.42-3.43l1.2.44a26.32,26.32,0,0,1-1.46,3h2.1V237h-2.21v4.47c0,.46.11.51,1.12.51.59,0,.73-.06.83-.35a10.2,10.2,0,0,0,.16-2l1.12.43a6,6,0,0,1-.35,2.49c-.29.47-.79.61-2.11.61-1.49,0-1.92-.27-1.92-1.2v-5h-1.33v.41c0,3.13-1,4.76-3.7,6l-.82-1c2.43-1,3.36-2.35,3.36-5.06V237Zm1.68-5.5a13.33,13.33,0,0,0-1.2-2.64l1-.49A13.08,13.08,0,0,1,318,231Zm4.68,1.26H316.4v3.18h5.18Z"/><path class="cls-2" d="M329.24,239.9c1.25,1.41,2.64,1.91,5.35,1.92h5.87A5.9,5.9,0,0,0,340,243h-5.43c-3,0-4.54-.59-5.91-2.17a19.4,19.4,0,0,1-2.73,2.62l-.76-1.19a18.41,18.41,0,0,0,2.78-2.17v-3.86h-2.76v-1.11h4Zm-.67-7.7a22.51,22.51,0,0,0-2.57-2.76l.89-.77a18.55,18.55,0,0,1,2.64,2.62Zm7.24-1.59a11.77,11.77,0,0,0,4.2,9.1l-.82,1.1a13.29,13.29,0,0,1-4.05-6.82,11.21,11.21,0,0,1-4.09,6.78l-.88-1c2.68-1.91,4.06-4.84,4.39-9.26h-3.39v-1.12h4.64Z"/><path class="cls-2" d="M342.51,243.47c2.32-2.67,3.31-4.92,3.31-7.59s-1-4.91-3.31-7.59h1.17a9.71,9.71,0,0,1,2.35,3.15,10.56,10.56,0,0,1,1.12,4.44,10.89,10.89,0,0,1-3.47,7.59Z"/><line class="cls-4" x1="358.2" y1="197.5" x2="358.2" y2="286.39"/><rect class="cls-2" x="367.83" y="226.88" width="17.8" height="59.17"/><path class="cls-3" d="M370.9,242.07a6,6,0,0,0,1.45-2l1,.55a6.85,6.85,0,0,1-1.52,2.29Zm4.82-2.17h-4.11v-7.79h4.11Zm-3-5.49h2v-1.26h-2Zm0,2.16h2v-1.24h-2Zm0,2.29h2v-1.39h-2Zm2.08,1.08a9.24,9.24,0,0,1,1,1.47,13.82,13.82,0,0,0,.75-5.4v-3.86h5.81v1.16H377.7v1.81h3.88l.58.46a12.13,12.13,0,0,1-1.53,4.38,6.82,6.82,0,0,0,2,1.65l-.7,1.16a8.93,8.93,0,0,1-2-1.8,10.83,10.83,0,0,1-2,1.92l-.76-1a6.71,6.71,0,0,0,2.07-1.85,10.14,10.14,0,0,1-1.28-3.77h-.24c0,3.31-.33,5-1.26,6.59l-.89-.85-.5.44a8,8,0,0,0-1.08-1.9Zm4.2-3.72a8.37,8.37,0,0,0,.91,2.69,8.61,8.61,0,0,0,.9-2.69Z"/><path class="cls-3" d="M371,254.9c2.74-.31,3.6-1.19,3.61-3.66h1.3c0,3.08-1,4.25-4.22,4.8Zm5.07-10.27h1.27v1.09h5v1h-5v.93h4.23v1h-9.47v-1h4v-.93h-4.94v-1h4.94Zm6,7.47h-1.29v-1.49h-8.05v1.56h-1.29v-2.56h10.63Zm-3.37-.9v3c0,.41.15.46,1,.46s1.06-.07,1.15-.41a5.38,5.38,0,0,0,.12-1.33l1.29.36a4.87,4.87,0,0,1-.3,2c-.24.48-.59.55-2.63.55-1.67,0-2-.17-2-1.09V251.2Z"/><path class="cls-3" d="M373.4,269.12h-1.18v-6a15.7,15.7,0,0,1-.85,1.39l-.54-1.33a14.56,14.56,0,0,0,2.1-5.52l1.18.3a23.49,23.49,0,0,1-.71,2.42Zm3.09-9.52H374v-1.12h8.37v1.12H379.8v1.85H382v7.67h-1.12v-.81h-5.49v.81H374.3v-7.67h2.19Zm-1.07,7.66h1.09V262.5h-1.09Zm2.18-5.81h1.08V259.6H377.6Zm0,5.81h1.08V262.5H377.6Zm3.31-4.76h-1.14v4.76h1.14Z"/><path class="cls-3" d="M381.46,282.26h-1.19v-.7h-3v.7h-1.18v-4.6a6.28,6.28,0,0,1-.66.31l-.35-.67-.5.86c-.18-.32-.36-.6-.58-.92v5h-1.22v-5.12a14.87,14.87,0,0,1-1.25,2.77l-.64-1.31a12.26,12.26,0,0,0,1.77-4h-1.56v-1.17h1.68v-2.48H374v2.48h1.18V274a7.67,7.67,0,0,0,2.38-3.09l1.21.21c-.07.16-.16.36-.27.57H381l.69.62a10.27,10.27,0,0,1-2,2.94,9.37,9.37,0,0,0,3,1.39l-.5,1.11a10.43,10.43,0,0,1-3.32-1.73,14.05,14.05,0,0,1-2.55,1.59h5.18ZM374,275.74a11.46,11.46,0,0,1,1,1.06,10,10,0,0,0,3-1.6,7.8,7.8,0,0,1-1.05-1.34,7.77,7.77,0,0,1-1.08,1l-.71-.71v.43H374Zm3.27,4.75h3v-1.87h-3Zm.58-7.76-.07.12-.06.07-.08.12a9,9,0,0,0,1.19,1.46,6.57,6.57,0,0,0,1.34-1.77Z"/><rect class="cls-2" x="101" y="110.89" width="30.68" height="172.15" transform="translate(-80.63 313.31) rotate(-90)"/><path class="cls-3" d="M72.23,205.46c0,1.74-.66,2.29-2.7,2.29-1.48,0-2.82-.06-4.27-.2l-.49-2.35c1.68.17,3.2.26,4.3.26.55,0,.68-.13.68-.61v-4.49H60.29A11.24,11.24,0,0,1,57,208l-1.91-1.85a10.08,10.08,0,0,0,2.72-7.39v-11H72.23ZM60.35,192.92h9.4v-3.08h-9.4Zm0,5.37h9.4V195h-9.4Z"/><path class="cls-3" d="M91.65,193.12a44.91,44.91,0,0,1-6.14,9.24c1.1.95,1.76,1.56,2.64,2.44l-1.85,1.89a46.64,46.64,0,0,0-7.22-6.4l1.63-1.71c1.1.77,1.8,1.29,3,2.28a34.15,34.15,0,0,0,4.75-7H80.31a22.88,22.88,0,0,1-4.71,5.55l-1.73-1.63A19.1,19.1,0,0,0,80.42,188l2.4.53a25.21,25.21,0,0,1-1.34,3.28h8.76Z"/><path class="cls-3" d="M103.66,204.67c4.25-1.08,6.32-3.43,6.32-7.24a6.6,6.6,0,0,0-3.21-6,7.22,7.22,0,0,0-2.38-.82c-.66,5.11-1.54,8.36-3.15,11.51a9.49,9.49,0,0,1-1.63,2.49,3.46,3.46,0,0,1-2.48,1.18c-2.53,0-4.58-3.16-4.58-7a10.42,10.42,0,0,1,5-8.84,10.31,10.31,0,0,1,5.55-1.5c5.61,0,9.46,3.61,9.46,8.89,0,5-2.53,8.16-7.57,9.51Zm-1.6-14.13a6.85,6.85,0,0,0-4.4,2A8.42,8.42,0,0,0,95,198.69c0,2.37,1,4.55,2.09,4.55.55,0,1-.51,1.73-1.72a29.16,29.16,0,0,0,3.17-10.6Z"/><path class="cls-3" d="M131.74,205.81a55.79,55.79,0,0,1-7.37.53c-3.1,0-6-.44-7.26-1.1a3.41,3.41,0,0,1-2.15-3.32,5.27,5.27,0,0,1,1.69-3.85l1.87,1.23a3.48,3.48,0,0,0-1,2.29c0,.79.45,1.32,1.37,1.67a18.76,18.76,0,0,0,5.48.64,45.78,45.78,0,0,0,7.08-.55Zm-3.5-16.08v2.33H117.15v-2.33Zm2,1.67a18.92,18.92,0,0,0-2.16-3.76l1.65-.59a18.21,18.21,0,0,1,2.16,3.67Zm3-.55a18.53,18.53,0,0,0-2.11-3.76l1.58-.55a14.34,14.34,0,0,1,2.16,3.59Z"/><path class="cls-3" d="M140.86,202.91c1.69,1.72,3.23,2.27,6.75,2.33h8.91a7,7,0,0,0-.61,2.25H147c-3.48-.09-5.7-1-7.2-2.78l-.28.36A19.81,19.81,0,0,1,136.7,208l-1.37-2.42a20.14,20.14,0,0,0,3.2-2.4v-5h-3v-2.25h5.33Zm-1.34-9.86a21.79,21.79,0,0,0-3.46-4.35l1.85-1.41a24.45,24.45,0,0,1,3.52,4.11Zm6-.09H154l1.21,1.11A17.4,17.4,0,0,1,152,200.2a16.76,16.76,0,0,0,4.14,2.25l-1.35,2.07a18.77,18.77,0,0,1-4.37-2.75,15,15,0,0,1-4.74,2.88l-1.25-1.81a15.75,15.75,0,0,0,4.55-2.48l-.11-.13a15.58,15.58,0,0,1-2.72-4.89l-.14-.4h-.5c-.09,4.76-.57,6.91-2.14,9.16l-1.71-1.65c1.21-1.94,1.6-4.07,1.6-9V188h12.41V190H145.48Zm5.06,5.68.07-.06a12.6,12.6,0,0,0,1.95-3.64H148a10.72,10.72,0,0,0,2.36,3.9Z"/><path class="cls-3" d="M160.73,197.63a21.47,21.47,0,0,0-3.32-3.45l1.63-1.61a16,16,0,0,1,3.43,3.34Zm-3.06,8.45a33.66,33.66,0,0,0,4.36-7.55l1.8,1.45a39.64,39.64,0,0,1-4.15,7.9Zm3.77-14a25.07,25.07,0,0,0-3.33-3.35l1.65-1.54a17.26,17.26,0,0,1,3.35,3.21ZM176.07,191a15.27,15.27,0,0,1-3.28,3.17,31.36,31.36,0,0,0,6.05,1.52l-1.1,2-.77-.17-.64-.16v10.61h-2.26v-4.67h-6.85A7.18,7.18,0,0,1,164,208l-1.68-1.71c2.12-1.28,3-2.95,3-5.83v-2.84c-.5.13-.9.24-1.52.35l-1.23-1.8a24.55,24.55,0,0,0,6.41-1.83,14.55,14.55,0,0,1-3.68-3.35h-1.87v-1.84h6.12V187h2.33v2.12h6.47V191Zm-8.58,8.63v.46a11.22,11.22,0,0,1-.05,1.34h6.63v-1.8Zm6.58-2.93a20.88,20.88,0,0,1-3.24-1.27,22.92,22.92,0,0,1-3.34,1.49v.95h6.58Zm-6.32-5.7a14.09,14.09,0,0,0,3,2.27,16.24,16.24,0,0,0,2.64-2.27Z"/><path class="cls-2" d="M431.55,197.86a6.72,6.72,0,0,1,2.3,2.65,12.76,12.76,0,0,1,1.15,3.57,25.22,25.22,0,0,1,0,8,12.73,12.73,0,0,1-1.15,3.58,6.75,6.75,0,0,1-2.3,2.66,7.36,7.36,0,0,1-7.41,0,6.91,6.91,0,0,1-2.3-2.66,13,13,0,0,1-1.14-3.58,25.22,25.22,0,0,1,0-8,13.08,13.08,0,0,1,1.14-3.57,6.88,6.88,0,0,1,2.3-2.65,7.3,7.3,0,0,1,7.41,0Zm-1.82,17.91A4.28,4.28,0,0,0,431,214a11.07,11.07,0,0,0,.65-2.61,25,25,0,0,0,.2-3.29,27,27,0,0,0-.18-3.28,10.6,10.6,0,0,0-.65-2.61,4.33,4.33,0,0,0-1.24-1.78,3.12,3.12,0,0,0-3.76,0,4.13,4.13,0,0,0-1.22,1.78,11.07,11.07,0,0,0-.65,2.61,27.08,27.08,0,0,0,0,6.57,11.07,11.07,0,0,0,.65,2.61,4.19,4.19,0,0,0,1.22,1.78,3.12,3.12,0,0,0,3.76,0Z"/><path class="cls-2" d="M452.42,217.25c0,1.36-.51,1.81-2,1.81-.76,0-1.92,0-2.68-.09l-.42-2.17a16.83,16.83,0,0,0,2.05.13c.54,0,.65-.1.65-.52V213h-8.72v6.22H439V205h13.43ZM441.34,211h3.19v-4h-3.19Zm8.72-4h-3.27v4h3.27Z"/><path class="cls-2" d="M611.92,217.25c0,1.36-.51,1.81-2,1.81-.76,0-1.92,0-2.68-.09l-.43-2.17a17,17,0,0,0,2.06.13c.54,0,.65-.1.65-.52V213h-8.72v6.22h-2.36V205h13.44ZM600.84,211H604v-4h-3.18Zm8.72-4h-3.28v4h3.28Z"/><path class="cls-2" d="M381.86,206v12.66H369.2V206Z"/><path class="cls-2" d="M384.68,217.66c1.36-.27,2-.41,2.72-.57l1.25-.29a24.2,24.2,0,0,0,1-3.46l1.54.39a20.9,20.9,0,0,1-.92,2.7l1.64-.42.08,1.33a60,60,0,0,1-6.79,1.85Zm7-12.25v1.39h-6.88v-1.39Zm-.36,7.64h-6v-4.71h6Zm-5,3.9a19.72,19.72,0,0,0-.89-3l1.46-.49a19.87,19.87,0,0,1,.9,3Zm.55-5.19h3v-2.11h-3Zm4.16,7.13a9.3,9.3,0,0,0,2.82-2.2l1.28.75a10.24,10.24,0,0,1-3,2.56Zm8.18-10.72v8.44h-6.58v-8.44h2c.08-.31.17-.67.33-1.38h-2.72v-1.38h7.64v1.38H396.5a12.24,12.24,0,0,1-.49,1.38Zm-5.08,1.21v1.22h3.52v-1.22Zm0,3.56h3.52v-1.18h-3.52Zm0,2.44h3.52V214.1h-3.52Zm4.64,4.51a11.84,11.84,0,0,0-2.42-2.34l1.17-.89a11.63,11.63,0,0,1,2.5,2.12Z"/><path class="cls-2" d="M409.87,212.33h5.87v1.42h-5.87v4h2.81l-1.26-.52a16.57,16.57,0,0,0,1.42-3.16l1.7.58a20.2,20.2,0,0,1-1.65,3.1h3.29v1.49H402v-1.49h2.93a13.89,13.89,0,0,0-1.31-3l1.53-.62a15.45,15.45,0,0,1,1.44,3l-1.55.55h3.16v-4h-5.74v-1.42h5.74v-1.79h-3.11v-.78a18.52,18.52,0,0,1-2.77,1.44l-1-1.39a13.67,13.67,0,0,0,6.71-5h1.88a13.88,13.88,0,0,0,6.9,4.56l-1,1.5a18.69,18.69,0,0,1-2.84-1.38v1h-3.11Zm2.44-3.25a13.78,13.78,0,0,1-3.31-3,12.54,12.54,0,0,1-2.76,2.83l-.18.14Z"/><path class="cls-2" d="M590.67,197.86a6.83,6.83,0,0,1,2.3,2.66,12.43,12.43,0,0,1,1.14,3.57,24.47,24.47,0,0,1,0,8,12.5,12.5,0,0,1-1.14,3.58,6.73,6.73,0,0,1-2.3,2.65,7.3,7.3,0,0,1-7.41,0,6.65,6.65,0,0,1-2.3-2.65,12.5,12.5,0,0,1-1.14-3.58,24.47,24.47,0,0,1,0-8,12.43,12.43,0,0,1,1.14-3.57,6.75,6.75,0,0,1,2.3-2.66,7.36,7.36,0,0,1,7.41,0Zm-1.82,17.91a4.27,4.27,0,0,0,1.22-1.77,11.86,11.86,0,0,0,.65-2.61,27.85,27.85,0,0,0,0-6.58,10.17,10.17,0,0,0-.65-2.61,4.28,4.28,0,0,0-1.23-1.77,3.1,3.1,0,0,0-3.77,0,4.27,4.27,0,0,0-1.22,1.77,11.58,11.58,0,0,0-.65,2.61,27.16,27.16,0,0,0,0,6.58,11.86,11.86,0,0,0,.65,2.61,4.27,4.27,0,0,0,1.22,1.77,3.14,3.14,0,0,0,3.77,0Z"/><path class="cls-2" d="M477.89,206v12.66H465.23V206Z"/><path class="cls-2" d="M480.77,217.12a13.78,13.78,0,0,0,2.29-5.84l1.69.46a15.76,15.76,0,0,1-2.45,6.57Zm7.89-11.88v2.85h5.82v1.55h-5.82v9.7h-1.74v-9.7h-5.7v-1.55h5.7v-2.85Zm4.72,12.86a24.73,24.73,0,0,1-2.88-6.5l1.66-.56a23.47,23.47,0,0,0,2.78,6Zm-1.06-10.47a10.72,10.72,0,0,0-1.44-2.66l1.25-.37a13.61,13.61,0,0,1,1.44,2.65Zm2.21-.21a10.74,10.74,0,0,0-1.41-2.67l1.17-.32a9.23,9.23,0,0,1,1.44,2.55Z"/><path class="cls-2" d="M510.8,211.19v1.74H497.19v-1.74Z"/><path class="cls-2" d="M520.7,205.24v3.62h5.86v1.62H520.7c0,3-.27,4.36-1.12,5.79a8.64,8.64,0,0,1-3.93,3.18L514.56,218c3.45-1.54,4.47-3.28,4.37-7.53h-6.17v-1.62h6.17v-3.62Z"/><path class="cls-2" d="M539.23,206.39l1,.9a27,27,0,0,1-3.12,5.62,40.77,40.77,0,0,1,4.89,4.53l-1.28,1.45a52.66,52.66,0,0,0-4.64-4.68,17.67,17.67,0,0,1-6.41,4.73l-.93-1.6a16.82,16.82,0,0,0,9.32-9.36h-8.18v-1.59Z"/><path class="cls-2" d="M546.82,204.81h1.68v2.8h2.23v1.5H548.5v2.68c.64-.16,1.09-.29,2-.57l.13,1.44c-.9.3-1,.33-2.17.68v5c0,1.08-.38,1.41-1.6,1.41a11.4,11.4,0,0,1-1.74-.11l-.3-1.67a10.49,10.49,0,0,0,1.57.14c.32,0,.39-.08.39-.43V213.8c-.86.2-1.67.41-2.4.57l-.44-1.62c.76-.11,1.66-.28,2.64-.5l.2-.05v-3.09h-2.67v-1.5h2.67Zm3.23,12.42a1.77,1.77,0,0,1,.08-.22,100.59,100.59,0,0,0,2.76-11.8l1.72.34A87.44,87.44,0,0,1,551.79,217c1.14-.16,3.85-.62,4.72-.81-.76-1.95-1-2.5-1.55-3.69l1.55-.6a38.56,38.56,0,0,1,2.75,6.68l-1.64.85c-.22-.73-.35-1.12-.62-1.88l-.28.08a69.18,69.18,0,0,1-7.09,1.45l-.49-1.78Z"/><path class="cls-2" d="M568.14,214.91a12.65,12.65,0,0,1-1.54,3.19,2.09,2.09,0,0,1-1.66,1c-.82,0-1.58-.61-2.17-1.78a10.75,10.75,0,0,1-1-3,39.49,39.49,0,0,1-.32-4.88c0-.69,0-1.81.1-3.22l1.82.15c-.07,1.2-.1,1.94-.1,3,0,3.28.32,5.63.92,6.91.22.46.54.81.73.81.38,0,1.17-1.42,1.8-3.26Zm4.89,1.83a30.18,30.18,0,0,0-2.58-9.73l1.64-.4a25.41,25.41,0,0,1,2.74,9.7Z"/><line class="cls-5" x1="24.17" y1="284.69" x2="349.01" y2="284.69"/><path class="cls-2" d="M66.55,550.87a18.55,18.55,0,0,1,6.29,7.26A35,35,0,0,1,76,567.88a65.77,65.77,0,0,1,.89,11A65.91,65.91,0,0,1,76,589.78a35,35,0,0,1-3.12,9.8,18.55,18.55,0,0,1-6.29,7.26,17.74,17.74,0,0,1-10.13,2.74,17.74,17.74,0,0,1-10.13-2.74A18.55,18.55,0,0,1,40,599.58a35,35,0,0,1-3.12-9.8,67.81,67.81,0,0,1,0-21.9A35,35,0,0,1,40,558.13a18.55,18.55,0,0,1,6.29-7.26,17.66,17.66,0,0,1,10.13-2.74A17.66,17.66,0,0,1,66.55,550.87Zm-5,49A11.56,11.56,0,0,0,64.91,595a31.73,31.73,0,0,0,1.77-7.14,67.66,67.66,0,0,0,.55-9,71.82,71.82,0,0,0-.51-9A28.73,28.73,0,0,0,65,562.73a11.9,11.9,0,0,0-3.38-4.85,8.53,8.53,0,0,0-10.3,0,11.55,11.55,0,0,0-3.33,4.85,30.61,30.61,0,0,0-1.77,7.13,73.75,73.75,0,0,0,0,18A30.7,30.7,0,0,0,47.94,595a11.55,11.55,0,0,0,3.33,4.85,8.53,8.53,0,0,0,10.3,0Z"/><path class="cls-2" d="M115.17,550.87a18.55,18.55,0,0,1,6.29,7.26,35,35,0,0,1,3.12,9.75,67.81,67.81,0,0,1,0,21.9,35,35,0,0,1-3.12,9.8,18.55,18.55,0,0,1-6.29,7.26A17.74,17.74,0,0,1,105,609.58a17.74,17.74,0,0,1-10.13-2.74,18.52,18.52,0,0,1-6.28-7.26,34.7,34.7,0,0,1-3.13-9.8,68.57,68.57,0,0,1,0-21.9,34.68,34.68,0,0,1,3.13-9.75,18.52,18.52,0,0,1,6.28-7.26A17.66,17.66,0,0,1,105,548.13,17.66,17.66,0,0,1,115.17,550.87Zm-5,49a11.56,11.56,0,0,0,3.34-4.85,31.73,31.73,0,0,0,1.77-7.14,67.66,67.66,0,0,0,.55-9,71.82,71.82,0,0,0-.51-9,28.73,28.73,0,0,0-1.77-7.13,11.9,11.9,0,0,0-3.38-4.85,8.53,8.53,0,0,0-10.3,0,11.55,11.55,0,0,0-3.33,4.85,30.61,30.61,0,0,0-1.77,7.13,73.75,73.75,0,0,0,0,18A30.7,30.7,0,0,0,96.56,595a11.55,11.55,0,0,0,3.33,4.85,8.53,8.53,0,0,0,10.3,0Z"/><path class="cls-2" d="M135.54,590.91H146.3v10.45a12.13,12.13,0,0,1-3,8,13,13,0,0,1-7.5,4.22v-4.72a6.05,6.05,0,0,0,3.71-2.71,8.78,8.78,0,0,0,1.32-4.8h-5.34Z"/><path class="cls-2" d="M188.4,550.87a18.47,18.47,0,0,1,6.29,7.26,35,35,0,0,1,3.13,9.75,68.57,68.57,0,0,1,0,21.9,35,35,0,0,1-3.13,9.8,18.47,18.47,0,0,1-6.29,7.26,20.08,20.08,0,0,1-20.25,0,18.47,18.47,0,0,1-6.29-7.26,35,35,0,0,1-3.13-9.8,68.57,68.57,0,0,1,0-21.9,35,35,0,0,1,3.13-9.75,18.47,18.47,0,0,1,6.29-7.26,20.08,20.08,0,0,1,20.25,0Zm-5,49a11.56,11.56,0,0,0,3.34-4.85,31.73,31.73,0,0,0,1.77-7.14,66,66,0,0,0,.55-9,71.82,71.82,0,0,0-.51-9,28.3,28.3,0,0,0-1.77-7.13,11.81,11.81,0,0,0-3.38-4.85,8.52,8.52,0,0,0-10.29,0,11.56,11.56,0,0,0-3.34,4.85,31.12,31.12,0,0,0-1.77,7.13,73.75,73.75,0,0,0,0,18,31.21,31.21,0,0,0,1.77,7.14,11.56,11.56,0,0,0,3.34,4.85,8.52,8.52,0,0,0,10.29,0Z"/><path class="cls-2" d="M237,550.87a18.52,18.52,0,0,1,6.28,7.26,35,35,0,0,1,3.13,9.75,68.57,68.57,0,0,1,0,21.9,35,35,0,0,1-3.13,9.8,18.52,18.52,0,0,1-6.28,7.26,20.1,20.1,0,0,1-20.26,0,18.55,18.55,0,0,1-6.29-7.26,35.35,35.35,0,0,1-3.13-9.8,68.57,68.57,0,0,1,0-21.9,35.34,35.34,0,0,1,3.13-9.75,18.55,18.55,0,0,1,6.29-7.26,20.1,20.1,0,0,1,20.26,0Zm-5,49a11.56,11.56,0,0,0,3.34-4.85,31.73,31.73,0,0,0,1.77-7.14,66,66,0,0,0,.55-9,71.82,71.82,0,0,0-.51-9,27.88,27.88,0,0,0-1.77-7.13,11.81,11.81,0,0,0-3.38-4.85,8.52,8.52,0,0,0-10.29,0,11.56,11.56,0,0,0-3.34,4.85,31.12,31.12,0,0,0-1.77,7.13,73.75,73.75,0,0,0,0,18,31.21,31.21,0,0,0,1.77,7.14,11.56,11.56,0,0,0,3.34,4.85,8.52,8.52,0,0,0,10.29,0Z"/><path class="cls-2" d="M285.65,550.87a18.52,18.52,0,0,1,6.28,7.26,35,35,0,0,1,3.13,9.75,68.57,68.57,0,0,1,0,21.9,35,35,0,0,1-3.13,9.8,18.52,18.52,0,0,1-6.28,7.26,20.1,20.1,0,0,1-20.26,0,18.55,18.55,0,0,1-6.29-7.26,35,35,0,0,1-3.12-9.8,67.81,67.81,0,0,1,0-21.9,35,35,0,0,1,3.12-9.75,18.55,18.55,0,0,1,6.29-7.26,20.1,20.1,0,0,1,20.26,0Zm-5,49A11.56,11.56,0,0,0,284,595a31.21,31.21,0,0,0,1.77-7.14,66,66,0,0,0,.55-9,71.82,71.82,0,0,0-.51-9,27.88,27.88,0,0,0-1.77-7.13,11.81,11.81,0,0,0-3.38-4.85,8.52,8.52,0,0,0-10.29,0,11.56,11.56,0,0,0-3.34,4.85,31.64,31.64,0,0,0-1.77,7.13,73.75,73.75,0,0,0,0,18A31.73,31.73,0,0,0,267,595a11.56,11.56,0,0,0,3.34,4.85,8.52,8.52,0,0,0,10.29,0Z"/><path class="cls-2" d="M342.54,603.17c0,3.72-1.38,5-5.36,5-2.08,0-5.24-.13-7.31-.26L328.7,602a48.08,48.08,0,0,0,5.62.34c1.48,0,1.78-.26,1.78-1.42v-9.44H312.26v17h-6.44V569.56h36.72ZM312.26,586H321V575h-8.7Zm23.84-11h-9v11h9Z"/><path class="cls-2" d="M406.77,579.22a13.34,13.34,0,0,0,7.06-1.67,6.35,6.35,0,0,0,.78-9.76,7.06,7.06,0,0,0-4.94-1.73,6.32,6.32,0,0,0-5.39,2.61,10.49,10.49,0,0,0-1.92,6.39h-7.18a16.42,16.42,0,0,1,4.22-10.8,13.56,13.56,0,0,1,10.4-4.19,17.37,17.37,0,0,1,5.13.76,13.88,13.88,0,0,1,4.47,2.27,11.16,11.16,0,0,1,3.15,3.71,11.56,11.56,0,0,1-.41,10.9,9,9,0,0,1-4.66,3.59v.12a9.24,9.24,0,0,1,5.86,3.75,12.17,12.17,0,0,1,2.14,7.28,12.41,12.41,0,0,1-4.63,9.82,15.73,15.73,0,0,1-5,2.71,18.77,18.77,0,0,1-6,.95q-7.44,0-11.4-4.13t-4.1-11.24h7.19a10.18,10.18,0,0,0,2.17,6.83,7.62,7.62,0,0,0,6.14,2.55,8.77,8.77,0,0,0,6.08-2.11,7.34,7.34,0,0,0,2.36-5.76,7.65,7.65,0,0,0-.82-3.75,6.09,6.09,0,0,0-2.17-2.3,9.67,9.67,0,0,0-3.09-1.16,19.87,19.87,0,0,0-3.87-.35,4.87,4.87,0,0,0-.76.06h-.82Z"/><path class="cls-2" d="M431.42,592h8v7.79a9.06,9.06,0,0,1-2.19,6,9.7,9.7,0,0,1-5.6,3.15V605.4a4.53,4.53,0,0,0,2.77-2,6.61,6.61,0,0,0,1-3.58h-4Z"/><path class="cls-2" d="M477.52,594.59h-5.67V605h-6.8V594.59h-18.9v-7.12L465.05,561h6.8v28h5.67Zm-25.82-5.67h13.35v-19.4h-.13Z"/><path class="cls-2" d="M489.8,593.9a6.8,6.8,0,0,0,1.95,4.37,6.11,6.11,0,0,0,4.48,1.67,6.88,6.88,0,0,0,4.53-1.45,9.3,9.3,0,0,0,2.71-3.71,20.16,20.16,0,0,0,1.32-4.7c.26-1.61.44-3.37.57-5.25l-.13-.13a9.59,9.59,0,0,1-3.93,3.9,11.43,11.43,0,0,1-5.58,1.39,13.21,13.21,0,0,1-10.07-4.06q-3.86-4.06-3.85-10.8a15,15,0,0,1,4.07-10.84q4-4.21,11.11-4.22a15.22,15.22,0,0,1,7.59,1.73,12.53,12.53,0,0,1,4.79,4.82,22.94,22.94,0,0,1,2.46,7.21,54.45,54.45,0,0,1,.72,9.29,37.85,37.85,0,0,1-.88,8.22,24,24,0,0,1-2.87,7.31,15.46,15.46,0,0,1-5.19,5.29A15.36,15.36,0,0,1,491,605.07a12.48,12.48,0,0,1-4.19-2.48,12.66,12.66,0,0,1-2.93-3.84,12.23,12.23,0,0,1-1.23-4.85ZM491,568.64a10.24,10.24,0,0,0-2,6.42,10.79,10.79,0,0,0,2,6.55,6.62,6.62,0,0,0,5.7,2.71,7,7,0,0,0,5.92-2.68,10.41,10.41,0,0,0,2.08-6.58,10,10,0,0,0-2.08-6.39,7.14,7.14,0,0,0-5.92-2.61A6.75,6.75,0,0,0,491,568.64Z"/><path class="cls-2" d="M524.82,593.9a6.76,6.76,0,0,0,2,4.37,6.07,6.07,0,0,0,4.47,1.67,6.88,6.88,0,0,0,4.53-1.45,9.3,9.3,0,0,0,2.71-3.71,20.16,20.16,0,0,0,1.32-4.7c.26-1.61.44-3.37.57-5.25l-.13-.13a9.59,9.59,0,0,1-3.93,3.9,11.43,11.43,0,0,1-5.58,1.39,13.25,13.25,0,0,1-10.08-4.06q-3.84-4.06-3.84-10.8a15,15,0,0,1,4.07-10.84q4.05-4.21,11.11-4.22a15.22,15.22,0,0,1,7.59,1.73,12.53,12.53,0,0,1,4.79,4.82,22.94,22.94,0,0,1,2.46,7.21,54.45,54.45,0,0,1,.72,9.29,37.85,37.85,0,0,1-.88,8.22,24,24,0,0,1-2.87,7.31,15.46,15.46,0,0,1-5.19,5.29A15.36,15.36,0,0,1,526,605.07a12.48,12.48,0,0,1-4.19-2.48,12.66,12.66,0,0,1-2.93-3.84,12.23,12.23,0,0,1-1.23-4.85ZM526,568.64a10.18,10.18,0,0,0-2,6.42,10.73,10.73,0,0,0,2,6.55,6.62,6.62,0,0,0,5.7,2.71,7,7,0,0,0,5.92-2.68,10.41,10.41,0,0,0,2.08-6.58,10,10,0,0,0-2.08-6.39,7.14,7.14,0,0,0-5.92-2.61A6.75,6.75,0,0,0,526,568.64Z"/><path class="cls-2" d="M579.26,585.36c-.22,7.48-.87,13.91-1.61,16.13s-2.19,3.23-5,3.23a56.35,56.35,0,0,1-6.17-.36l-.77-4.45a35.81,35.81,0,0,0,5.22.52c1.33,0,1.78-.29,2.14-1.45a50.8,50.8,0,0,0,1.22-9.46h-9.07a23.79,23.79,0,0,1-9.94,15.39l-3.55-3.61a20.27,20.27,0,0,0,8.1-10,40.83,40.83,0,0,0,1.75-10.52l0-.49H551.8v-4.16h30v4.16H566.26c-.13,2.36-.23,3.42-.42,5Z"/><path class="cls-2" d="M614.06,601.14c0,2.77-1,3.71-4,3.71-1.55,0-3.91-.1-5.46-.2l-.87-4.42a33.23,33.23,0,0,0,4.2.26c1.09,0,1.32-.19,1.32-1.06v-7H591.47v12.68h-4.81v-29h27.4Zm-22.59-12.81H598v-8.2h-6.49Zm17.78-8.2h-6.68v8.2h6.68Z"/><path class="cls-2" d="M582.33,572a8.68,8.68,0,0,1-2.14-2.88,9.45,9.45,0,0,1-1-4.05,9.9,9.9,0,0,1,3.17-6.93h1.07c-2.13,2.44-3,4.49-3,6.94s.9,4.5,3,6.92Z"/><path class="cls-2" d="M587.8,565.28a15.09,15.09,0,0,1-2,3.77l-.61-1.08a14.44,14.44,0,0,0,2.44-4.73H585.4v-1h2.4v-2.36c-.76.17-1.21.26-1.81.35l-.45-.87a21.13,21.13,0,0,0,4.56-1.17l.67.81a15,15,0,0,1-1.82.59l-.07,0v2.62h1.92v1h-1.92v1.12a14.18,14.18,0,0,1,2.08,1.83l-.68.93a12.74,12.74,0,0,0-1.4-1.62V572H587.8Zm3.63.79v-4.84h3.92a21,21,0,0,0,1.3-3.14l1.1.41a26.12,26.12,0,0,1-1.33,2.73h1.91v4.84h-2v4.08c0,.43.1.47,1,.47.54,0,.67-.06.76-.32a9.14,9.14,0,0,0,.14-1.81l1,.4a5.27,5.27,0,0,1-.32,2.27c-.26.42-.71.55-1.92.55s-1.75-.24-1.75-1.09v-4.55h-1.21v.38c0,2.86-.94,4.35-3.39,5.48l-.74-.87c2.22-.88,3.06-2.15,3.06-4.62v-.37Zm1.53-5a11.55,11.55,0,0,0-1.09-2.41l.92-.45a12.2,12.2,0,0,1,1.19,2.4Zm4.27,1.15h-4.72v2.91h4.72Z"/><path class="cls-2" d="M604.23,568.72c1.14,1.29,2.41,1.74,4.89,1.76h5.36a5.42,5.42,0,0,0-.38,1.09h-5c-2.7,0-4.15-.54-5.4-2a17.21,17.21,0,0,1-2.5,2.39l-.68-1.08a17.8,17.8,0,0,0,2.54-2v-3.53h-2.53v-1h3.66Zm-.61-7a19.42,19.42,0,0,0-2.35-2.52l.82-.7a16.88,16.88,0,0,1,2.41,2.39Zm6.61-1.46a10.79,10.79,0,0,0,3.84,8.32l-.75,1a12.19,12.19,0,0,1-3.7-6.23,10.16,10.16,0,0,1-3.74,6.18l-.8-.93c2.45-1.75,3.71-4.42,4-8.46H606v-1h4.23Z"/><path class="cls-2" d="M616.35,572c2.12-2.44,3-4.5,3-6.93s-.89-4.48-3-6.93h1.07a8.85,8.85,0,0,1,2.14,2.87,9.51,9.51,0,0,1,1,4.06,9.89,9.89,0,0,1-3.16,6.93Z"/><path class="cls-2" d="M305.25,565.47a9.72,9.72,0,0,1-2.34-3.15,10.41,10.41,0,0,1-1.12-4.44,10.86,10.86,0,0,1,3.46-7.59h1.17c-2.33,2.67-3.31,4.92-3.31,7.6s1,4.92,3.31,7.58Z"/><path class="cls-2" d="M311.24,558.13a16.58,16.58,0,0,1-2.14,4.13l-.67-1.19a15.66,15.66,0,0,0,2.67-5.17h-2.48v-1.11h2.62v-2.58c-.83.19-1.33.28-2,.38l-.5-1a22.41,22.41,0,0,0,5-1.28l.73.9a16.37,16.37,0,0,1-2,.64l-.08,0v2.87h2.11v1.11h-2.11v1.23a15.29,15.29,0,0,1,2.29,2l-.75,1a12.39,12.39,0,0,0-1.54-1.78v7.1h-1.18Zm4,.87v-5.31h4.3a24.51,24.51,0,0,0,1.42-3.43l1.2.44a26.32,26.32,0,0,1-1.46,3h2.1V559h-2.21v4.47c0,.46.11.51,1.12.51.59,0,.73-.06.83-.35a10.2,10.2,0,0,0,.16-2l1.12.43a6,6,0,0,1-.35,2.49c-.29.47-.79.61-2.11.61-1.49,0-1.92-.27-1.92-1.2v-5h-1.33v.41c0,3.13-1,4.76-3.7,6l-.82-1c2.43-1,3.36-2.35,3.36-5.06V559Zm1.68-5.5a13.33,13.33,0,0,0-1.2-2.64l1-.49A13.08,13.08,0,0,1,318,553Zm4.68,1.26H316.4v3.18h5.18Z"/><path class="cls-2" d="M329.24,561.9c1.25,1.41,2.64,1.91,5.35,1.92h5.87A5.9,5.9,0,0,0,340,565h-5.43c-3,0-4.54-.59-5.91-2.17a19.4,19.4,0,0,1-2.73,2.62l-.76-1.19a18.41,18.41,0,0,0,2.78-2.17v-3.86h-2.76v-1.11h4Zm-.67-7.7a22.51,22.51,0,0,0-2.57-2.76l.89-.77a18.55,18.55,0,0,1,2.64,2.62Zm7.24-1.59a11.77,11.77,0,0,0,4.2,9.1l-.82,1.1a13.29,13.29,0,0,1-4.05-6.82,11.21,11.21,0,0,1-4.09,6.78l-.88-1c2.68-1.91,4.06-4.84,4.39-9.26h-3.39v-1.12h4.64Z"/><path class="cls-2" d="M342.51,565.47c2.32-2.67,3.31-4.92,3.31-7.59s-1-4.91-3.31-7.59h1.17a9.71,9.71,0,0,1,2.35,3.15,10.56,10.56,0,0,1,1.12,4.44,10.89,10.89,0,0,1-3.47,7.59Z"/><line class="cls-4" x1="358.2" y1="519.5" x2="358.2" y2="608.39"/><rect class="cls-2" x="367.83" y="548.88" width="17.8" height="59.17"/><path class="cls-3" d="M370.9,564.07a6,6,0,0,0,1.45-2l1,.55a6.85,6.85,0,0,1-1.52,2.29Zm4.82-2.17h-4.11v-7.79h4.11Zm-3-5.49h2v-1.26h-2Zm0,2.16h2v-1.24h-2Zm0,2.29h2v-1.39h-2Zm2.08,1.08a9.24,9.24,0,0,1,1,1.47,13.82,13.82,0,0,0,.75-5.4v-3.86h5.81v1.16H377.7v1.81h3.88l.58.46a12.13,12.13,0,0,1-1.53,4.38,6.82,6.82,0,0,0,2,1.65l-.7,1.16a8.93,8.93,0,0,1-2-1.8,10.83,10.83,0,0,1-2,1.92l-.76-1a6.71,6.71,0,0,0,2.07-1.85,10.14,10.14,0,0,1-1.28-3.77h-.24c0,3.31-.33,5-1.26,6.59l-.89-.85-.5.44a8,8,0,0,0-1.08-1.9Zm4.2-3.72a8.37,8.37,0,0,0,.91,2.69,8.61,8.61,0,0,0,.9-2.69Z"/><path class="cls-3" d="M371,576.9c2.74-.31,3.6-1.19,3.61-3.66h1.3c0,3.08-1,4.25-4.22,4.8Zm5.07-10.27h1.27v1.09h5v1h-5v.93h4.23v1h-9.47v-1h4v-.93h-4.94v-1h4.94Zm6,7.47h-1.29v-1.49h-8.05v1.56h-1.29v-2.56h10.63Zm-3.37-.9v3c0,.41.15.46,1,.46s1.06-.07,1.15-.41a5.38,5.38,0,0,0,.12-1.33l1.29.36a4.87,4.87,0,0,1-.3,2c-.24.48-.59.55-2.63.55-1.67,0-2-.17-2-1.09V573.2Z"/><path class="cls-3" d="M373.4,591.12h-1.18v-6a15.7,15.7,0,0,1-.85,1.39l-.54-1.33a14.56,14.56,0,0,0,2.1-5.52l1.18.3a23.49,23.49,0,0,1-.71,2.42Zm3.09-9.52H374v-1.12h8.37v1.12H379.8v1.85H382v7.67h-1.12v-.81h-5.49v.81H374.3v-7.67h2.19Zm-1.07,7.66h1.09V584.5h-1.09Zm2.18-5.81h1.08V581.6H377.6Zm0,5.81h1.08V584.5H377.6Zm3.31-4.76h-1.14v4.76h1.14Z"/><path class="cls-3" d="M381.46,604.26h-1.19v-.7h-3v.7h-1.18v-4.6a6.28,6.28,0,0,1-.66.31l-.35-.67-.5.86c-.18-.32-.36-.6-.58-.92v5h-1.22v-5.12a14.87,14.87,0,0,1-1.25,2.77l-.64-1.31a12.26,12.26,0,0,0,1.77-4h-1.56v-1.17h1.68v-2.48H374v2.48h1.18V596a7.67,7.67,0,0,0,2.38-3.09l1.21.21c-.07.16-.16.36-.27.57H381l.69.62a10.27,10.27,0,0,1-2,2.94,9.37,9.37,0,0,0,3,1.39l-.5,1.11a10.43,10.43,0,0,1-3.32-1.73,14.05,14.05,0,0,1-2.55,1.59h5.18ZM374,597.74a11.46,11.46,0,0,1,1,1.06,10,10,0,0,0,3-1.6,7.8,7.8,0,0,1-1.05-1.34,7.77,7.77,0,0,1-1.08,1l-.71-.71v.43H374Zm3.27,4.75h3v-1.87h-3Zm.58-7.76-.07.12-.06.07-.08.12a9,9,0,0,0,1.19,1.46,6.57,6.57,0,0,0,1.34-1.77Z"/><rect class="cls-2" x="101" y="432.89" width="30.68" height="172.15" transform="translate(-402.63 635.31) rotate(-90)"/><path class="cls-3" d="M72.23,527.46c0,1.74-.66,2.29-2.7,2.29-1.48,0-2.82-.06-4.27-.2l-.49-2.35c1.68.17,3.2.26,4.3.26.55,0,.68-.13.68-.61v-4.49H60.29A11.24,11.24,0,0,1,57,530l-1.91-1.85a10.08,10.08,0,0,0,2.72-7.39v-11H72.23ZM60.35,514.92h9.4v-3.08h-9.4Zm0,5.37h9.4V517h-9.4Z"/><path class="cls-3" d="M91.65,515.12a44.91,44.91,0,0,1-6.14,9.24c1.1.95,1.76,1.56,2.64,2.44l-1.85,1.89a46.64,46.64,0,0,0-7.22-6.4l1.63-1.71c1.1.77,1.8,1.29,3,2.28a34.15,34.15,0,0,0,4.75-7H80.31a22.88,22.88,0,0,1-4.71,5.55l-1.73-1.63A19.1,19.1,0,0,0,80.42,510l2.4.53a25.21,25.21,0,0,1-1.34,3.28h8.76Z"/><path class="cls-3" d="M103.66,526.67c4.25-1.08,6.32-3.43,6.32-7.24a6.6,6.6,0,0,0-3.21-6,7.22,7.22,0,0,0-2.38-.82c-.66,5.11-1.54,8.36-3.15,11.51a9.49,9.49,0,0,1-1.63,2.49,3.46,3.46,0,0,1-2.48,1.18c-2.53,0-4.58-3.16-4.58-7a10.42,10.42,0,0,1,5-8.84,10.31,10.31,0,0,1,5.55-1.5c5.61,0,9.46,3.61,9.46,8.89,0,5-2.53,8.16-7.57,9.51Zm-1.6-14.13a6.85,6.85,0,0,0-4.4,2A8.42,8.42,0,0,0,95,520.69c0,2.37,1,4.55,2.09,4.55.55,0,1-.51,1.73-1.72a29.16,29.16,0,0,0,3.17-10.6Z"/><path class="cls-3" d="M131.74,527.81a55.79,55.79,0,0,1-7.37.53c-3.1,0-6-.44-7.26-1.1a3.41,3.41,0,0,1-2.15-3.32,5.27,5.27,0,0,1,1.69-3.85l1.87,1.23a3.48,3.48,0,0,0-1,2.29c0,.79.45,1.32,1.37,1.67a18.76,18.76,0,0,0,5.48.64,45.78,45.78,0,0,0,7.08-.55Zm-3.5-16.08v2.33H117.15v-2.33Zm2,1.67a18.92,18.92,0,0,0-2.16-3.76l1.65-.59a18.21,18.21,0,0,1,2.16,3.67Zm3-.55a18.53,18.53,0,0,0-2.11-3.76l1.58-.55a14.34,14.34,0,0,1,2.16,3.59Z"/><path class="cls-3" d="M140.86,524.91c1.69,1.72,3.23,2.27,6.75,2.33h8.91a7,7,0,0,0-.61,2.25H147c-3.48-.09-5.7-1-7.2-2.78l-.28.36A19.81,19.81,0,0,1,136.7,530l-1.37-2.42a20.14,20.14,0,0,0,3.2-2.4v-5h-3v-2.25h5.33Zm-1.34-9.86a21.79,21.79,0,0,0-3.46-4.35l1.85-1.41a24.45,24.45,0,0,1,3.52,4.11Zm6-.09H154l1.21,1.11A17.4,17.4,0,0,1,152,522.2a16.76,16.76,0,0,0,4.14,2.25l-1.35,2.07a18.77,18.77,0,0,1-4.37-2.75,15,15,0,0,1-4.74,2.88l-1.25-1.81a15.75,15.75,0,0,0,4.55-2.48l-.11-.13a15.58,15.58,0,0,1-2.72-4.89l-.14-.4h-.5c-.09,4.76-.57,6.91-2.14,9.16l-1.71-1.65c1.21-1.94,1.6-4.07,1.6-9V510h12.41V512H145.48Zm5.06,5.68.07-.06a12.6,12.6,0,0,0,1.95-3.64H148a10.72,10.72,0,0,0,2.36,3.9Z"/><path class="cls-3" d="M160.73,519.63a21.47,21.47,0,0,0-3.32-3.45l1.63-1.61a16,16,0,0,1,3.43,3.34Zm-3.06,8.45a33.66,33.66,0,0,0,4.36-7.55l1.8,1.45a39.64,39.64,0,0,1-4.15,7.9Zm3.77-14a25.07,25.07,0,0,0-3.33-3.35l1.65-1.54a17.26,17.26,0,0,1,3.35,3.21ZM176.07,513a15.27,15.27,0,0,1-3.28,3.17,31.36,31.36,0,0,0,6.05,1.52l-1.1,2-.77-.17-.64-.16v10.61h-2.26v-4.67h-6.85A7.18,7.18,0,0,1,164,530l-1.68-1.71c2.12-1.28,3-2.95,3-5.83v-2.84c-.5.13-.9.24-1.52.35l-1.23-1.8a24.55,24.55,0,0,0,6.41-1.83,14.55,14.55,0,0,1-3.68-3.35h-1.87v-1.84h6.12V509h2.33v2.12h6.47V513Zm-8.58,8.63v.46a11.22,11.22,0,0,1-.05,1.34h6.63v-1.8Zm6.58-2.93a20.88,20.88,0,0,1-3.24-1.27,22.92,22.92,0,0,1-3.34,1.49v1h6.58Zm-6.32-5.7a14.09,14.09,0,0,0,3,2.27,16.24,16.24,0,0,0,2.64-2.27Z"/><path class="cls-2" d="M431.55,519.86a6.72,6.72,0,0,1,2.3,2.65,12.76,12.76,0,0,1,1.15,3.57,25.22,25.22,0,0,1,0,8,12.73,12.73,0,0,1-1.15,3.58,6.75,6.75,0,0,1-2.3,2.66,7.36,7.36,0,0,1-7.41,0,6.91,6.91,0,0,1-2.3-2.66,13,13,0,0,1-1.14-3.58,25.22,25.22,0,0,1,0-8,13.08,13.08,0,0,1,1.14-3.57,6.88,6.88,0,0,1,2.3-2.65,7.3,7.3,0,0,1,7.41,0Zm-1.82,17.91A4.28,4.28,0,0,0,431,536a11.07,11.07,0,0,0,.65-2.61,25,25,0,0,0,.2-3.29,27,27,0,0,0-.18-3.28,10.6,10.6,0,0,0-.65-2.61,4.33,4.33,0,0,0-1.24-1.78,3.12,3.12,0,0,0-3.76,0,4.13,4.13,0,0,0-1.22,1.78,11.07,11.07,0,0,0-.65,2.61,27.08,27.08,0,0,0,0,6.57,11.07,11.07,0,0,0,.65,2.61,4.19,4.19,0,0,0,1.22,1.78,3.12,3.12,0,0,0,3.76,0Z"/><path class="cls-2" d="M452.42,539.25c0,1.36-.51,1.81-2,1.81-.76,0-1.92,0-2.68-.09l-.42-2.17a16.83,16.83,0,0,0,2.05.13c.54,0,.65-.1.65-.52V535h-8.72v6.22H439V527h13.43ZM441.34,533h3.19v-4h-3.19Zm8.72-4h-3.27v4h3.27Z"/><path class="cls-2" d="M611.92,539.25c0,1.36-.51,1.81-2,1.81-.76,0-1.92,0-2.68-.09l-.43-2.17a17,17,0,0,0,2.06.13c.54,0,.65-.1.65-.52V535h-8.72v6.22h-2.36V527h13.44ZM600.84,533H604v-4h-3.18Zm8.72-4h-3.28v4h3.28Z"/><path class="cls-2" d="M381.86,528v12.66H369.2V528Z"/><path class="cls-2" d="M384.68,539.66c1.36-.27,2-.41,2.72-.57l1.25-.29a24.2,24.2,0,0,0,1-3.46l1.54.39a20.9,20.9,0,0,1-.92,2.7l1.64-.42.08,1.33a60,60,0,0,1-6.79,1.85Zm7-12.25v1.39h-6.88v-1.39Zm-.36,7.64h-6v-4.71h6Zm-5,3.9a19.72,19.72,0,0,0-.89-3l1.46-.49a19.87,19.87,0,0,1,.9,3Zm.55-5.19h3v-2.11h-3Zm4.16,7.13a9.3,9.3,0,0,0,2.82-2.2l1.28.75a10.24,10.24,0,0,1-3,2.56Zm8.18-10.72v8.44h-6.58v-8.44h2c.08-.31.17-.67.33-1.38h-2.72v-1.38h7.64v1.38H396.5a12.24,12.24,0,0,1-.49,1.38Zm-5.08,1.21v1.22h3.52v-1.22Zm0,3.56h3.52v-1.18h-3.52Zm0,2.44h3.52V536.1h-3.52Zm4.64,4.51a11.84,11.84,0,0,0-2.42-2.34l1.17-.89a11.63,11.63,0,0,1,2.5,2.12Z"/><path class="cls-2" d="M409.87,534.33h5.87v1.42h-5.87v4h2.81l-1.26-.52a16.57,16.57,0,0,0,1.42-3.16l1.7.58a20.2,20.2,0,0,1-1.65,3.1h3.29v1.49H402v-1.49h2.93a13.89,13.89,0,0,0-1.31-3l1.53-.62a15.45,15.45,0,0,1,1.44,3l-1.55.55h3.16v-4h-5.74v-1.42h5.74v-1.79h-3.11v-.78a18.52,18.52,0,0,1-2.77,1.44l-1-1.39a13.67,13.67,0,0,0,6.71-5h1.88a13.88,13.88,0,0,0,6.9,4.56l-1,1.5a18.69,18.69,0,0,1-2.84-1.38v1h-3.11Zm2.44-3.25a13.78,13.78,0,0,1-3.31-3,12.54,12.54,0,0,1-2.76,2.83l-.18.14Z"/><path class="cls-2" d="M590.67,519.86a6.83,6.83,0,0,1,2.3,2.66,12.43,12.43,0,0,1,1.14,3.57,24.47,24.47,0,0,1,0,8,12.5,12.5,0,0,1-1.14,3.58,6.73,6.73,0,0,1-2.3,2.65,7.3,7.3,0,0,1-7.41,0,6.65,6.65,0,0,1-2.3-2.65,12.5,12.5,0,0,1-1.14-3.58,24.47,24.47,0,0,1,0-8,12.43,12.43,0,0,1,1.14-3.57,6.75,6.75,0,0,1,2.3-2.66,7.36,7.36,0,0,1,7.41,0Zm-1.82,17.91a4.27,4.27,0,0,0,1.22-1.77,11.86,11.86,0,0,0,.65-2.61,27.85,27.85,0,0,0,0-6.58,10.17,10.17,0,0,0-.65-2.61,4.28,4.28,0,0,0-1.23-1.77,3.1,3.1,0,0,0-3.77,0,4.27,4.27,0,0,0-1.22,1.77,11.58,11.58,0,0,0-.65,2.61,27.16,27.16,0,0,0,0,6.58,11.86,11.86,0,0,0,.65,2.61,4.27,4.27,0,0,0,1.22,1.77,3.14,3.14,0,0,0,3.77,0Z"/><path class="cls-2" d="M477.89,528v12.66H465.23V528Z"/><path class="cls-2" d="M480.77,539.12a13.78,13.78,0,0,0,2.29-5.84l1.69.46a15.76,15.76,0,0,1-2.45,6.57Zm7.89-11.88v2.85h5.82v1.55h-5.82v9.7h-1.74v-9.7h-5.7v-1.55h5.7v-2.85Zm4.72,12.86a24.73,24.73,0,0,1-2.88-6.5l1.66-.56a23.47,23.47,0,0,0,2.78,6Zm-1.06-10.47a10.72,10.72,0,0,0-1.44-2.66l1.25-.37a13.61,13.61,0,0,1,1.44,2.65Zm2.21-.21a10.74,10.74,0,0,0-1.41-2.67l1.17-.32a9.23,9.23,0,0,1,1.44,2.55Z"/><path class="cls-2" d="M510.8,533.19v1.74H497.19v-1.74Z"/><path class="cls-2" d="M520.7,527.24v3.62h5.86v1.62H520.7c0,2.95-.27,4.36-1.12,5.79a8.64,8.64,0,0,1-3.93,3.18L514.56,540c3.45-1.54,4.47-3.28,4.37-7.53h-6.17v-1.62h6.17v-3.62Z"/><path class="cls-2" d="M539.23,528.39l1,.9a27,27,0,0,1-3.12,5.62,40.77,40.77,0,0,1,4.89,4.53l-1.28,1.45a52.66,52.66,0,0,0-4.64-4.68,17.67,17.67,0,0,1-6.41,4.73l-.93-1.6a16.82,16.82,0,0,0,9.32-9.36h-8.18v-1.59Z"/><path class="cls-2" d="M546.82,526.81h1.68v2.8h2.23v1.5H548.5v2.68c.64-.16,1.09-.29,2-.57l.13,1.44c-.9.3-1,.33-2.17.68v5c0,1.08-.38,1.41-1.6,1.41a11.4,11.4,0,0,1-1.74-.11l-.3-1.67a10.49,10.49,0,0,0,1.57.14c.32,0,.39-.08.39-.43V535.8c-.86.2-1.67.41-2.4.57l-.44-1.62c.76-.11,1.66-.28,2.64-.5l.2,0v-3.09h-2.67v-1.5h2.67Zm3.23,12.42a1.77,1.77,0,0,1,.08-.22,100.59,100.59,0,0,0,2.76-11.8l1.72.34A87.44,87.44,0,0,1,551.79,539c1.14-.16,3.85-.62,4.72-.81-.76-2-1-2.5-1.55-3.69l1.55-.6a38.56,38.56,0,0,1,2.75,6.68l-1.64.85c-.22-.73-.35-1.12-.62-1.88l-.28.08a69.18,69.18,0,0,1-7.09,1.45l-.49-1.78Z"/><path class="cls-2" d="M568.14,536.91a12.65,12.65,0,0,1-1.54,3.19,2.09,2.09,0,0,1-1.66,1c-.82,0-1.58-.61-2.17-1.78a10.75,10.75,0,0,1-1-3,39.49,39.49,0,0,1-.32-4.88c0-.69,0-1.81.1-3.22l1.82.15c-.07,1.2-.1,1.94-.1,3,0,3.28.32,5.63.92,6.91.22.46.54.81.73.81.38,0,1.17-1.42,1.8-3.26Zm4.89,1.83a30.18,30.18,0,0,0-2.58-9.73l1.64-.4a25.41,25.41,0,0,1,2.74,9.7Z"/><line class="cls-5" x1="24.17" y1="606.69" x2="349.01" y2="606.69"/><path d="M222.44,100.3h1.44v17.77h4v1.12h-4v4.06c0,1.54.77,2.14,2.44,2.14h.57v1.12H218v-1.12h.56c1.64,0,2.45-.56,2.45-2.14v-4.06H211.6V118ZM221,104.92l-8.09,13.15H221Z"/><path d="M248.44,106.46l-1.05.42c-1.12-2-3.15-5.43-7.63-5.43a4.47,4.47,0,0,0-4.79,4.62c0,2.91,2.1,4,6.68,5.6a27,27,0,0,1,3.43,1.47c2.73,1.4,4.58,3,4.58,6.47a7.42,7.42,0,0,1-7.59,7.56,12.13,12.13,0,0,1-3.74-.7,3.85,3.85,0,0,0-1.44-.35,6.24,6.24,0,0,0-2.8,1l-2.59-6.75,1.33-.63a12.51,12.51,0,0,0,2.77,3.64,9.82,9.82,0,0,0,6.3,2.58,5,5,0,0,0,5.17-5.28c0-3.22-2.06-4.34-6.5-5.88-4.94-1.68-8.12-3.5-8.12-7.69a6.6,6.6,0,0,1,7-6.79,11.74,11.74,0,0,1,2.49.28,18.82,18.82,0,0,0,2.1.38,2.44,2.44,0,0,0,2-.66Z"/><path d="M263.9,102.12h-1.22a2.24,2.24,0,0,0-2.48,2.41V123a2.25,2.25,0,0,0,2.48,2.42h.95a10.61,10.61,0,0,0,9.48-5.78l.91.46-2.49,6.44H253.72v-1.12h1.19a2.27,2.27,0,0,0,2.52-2.42V104.53a2.26,2.26,0,0,0-2.52-2.41h-1.19V101H263.9Z"/><path d="M278.29,101h10c8.19,0,13.26,4.2,13.26,12.6,0,6-3.15,13-12.95,13H278.29v-1.12h1.19A2.26,2.26,0,0,0,282,123V104.53a2.26,2.26,0,0,0-2.52-2.41h-1.19Zm6.47,22a2.25,2.25,0,0,0,2.48,2.42h1.68c6.34,0,9.52-5.67,9.52-12.11,0-4.44-1.82-11.16-9.38-11.16h-1.82a2.24,2.24,0,0,0-2.48,2.41Z"/><path d="M318.6,110.76l7.76,12.42a5,5,0,0,0,4.13,2.21H331v1.12h-9.9v-1.12h.84a1.28,1.28,0,0,0,1.4-1.16,2.84,2.84,0,0,0-.49-1.43l-6.19-9.91-3.33,3.61V123a2.28,2.28,0,0,0,2.52,2.42h1v1.12h-9.73v-1.12h1a2.25,2.25,0,0,0,2.49-2.42V104.53a2.25,2.25,0,0,0-2.49-2.41h-1V101h9.73v1.16h-1a2.27,2.27,0,0,0-2.52,2.41v10.32l9.55-10.42a1.75,1.75,0,0,0,.46-1.12c0-1-1.09-1.19-1.86-1.19h-.91V101h9.87v1.16h-.63a6.85,6.85,0,0,0-5.6,2.52Z"/><path d="M335.92,117H342v-6h1.24v6h6.08v1.25h-6.08v6H342v-6h-6.05Z"/><path d="M363.81,109.44h-.61c-1.05,0-1.42.41-1.42,1.12a5.6,5.6,0,0,0,.22,1.23l2.89,11.11,3.43-11.33c-.47-1.47-.83-2.13-2.13-2.13h-.52v-.81h6.62v.81h-.86a1.07,1.07,0,0,0-1.23,1.17,5.12,5.12,0,0,0,.25,1.42l3,10.78,2.81-11.22a4.74,4.74,0,0,0,.15-1c0-.89-.81-1.2-1.49-1.2h-.79v-.81h5.71v.81h-.47c-1.39,0-2,.8-2.27,2L373.24,127h-.59l-3.94-14-4.24,14H364l-4-15.53c-.44-1.71-1.17-2-2-2h-.61v-.81h6.46Z"/><path d="M389.21,125.55a1.42,1.42,0,1,1-1.42-1.42A1.44,1.44,0,0,1,389.21,125.55Z"/><path d="M403.13,109.44H402a1.57,1.57,0,0,0-1.74,1.68V124a1.57,1.57,0,0,0,1.74,1.69h1.18v.79h-7.77v-.79h1.15a1.59,1.59,0,0,0,1.77-1.69V111.12a1.58,1.58,0,0,0-1.77-1.68h-1.15v-.81h7.77Z"/><path d="M412.11,125.55a1.42,1.42,0,1,1-1.42-1.42A1.44,1.44,0,0,1,412.11,125.55Z"/><path d="M432.42,113c-.91-1.37-2.67-4-5.95-4-3.92,0-5.86,4-5.86,8.25,0,4.75,2.31,8.62,6.42,8.62,3.48,0,5.19-3.18,5.83-4.43l.66.39c-.95,1.89-2.67,5.17-7.22,5.17-5.17,0-7.69-4.19-7.69-9,0-5.73,3.55-9.8,7.69-9.8a6.83,6.83,0,0,1,2.05.3c.2,0,1.35.36,1.5.36a3.48,3.48,0,0,0,1.64-.59l1.74,4.41Z"/><path d="M39.5,148.72l.85-1.12c.13-.16.19-.25.31-.25s.15.05.4.23l1.39,1.1a.45.45,0,0,1,.2.33c0,.19-.18.21-.33.21h-6.9c0,.68,0,3.67,0,4.27,0,.21,0,4.52,0,5.12h5.49l1-1.12c.14-.16.21-.24.31-.24s.19.06.39.22l1.37,1.1a.45.45,0,0,1,.21.31c0,.19-.19.23-.31.23H28.3a14.41,14.41,0,0,0-2.44.19l-.42-.83c1.39.12,2.8.14,3.2.14h5.28c0-.18,0-4.58,0-5.06v-4.33H29.53a14.51,14.51,0,0,0-2.45.19l-.41-.81c1.39.1,2.8.12,3.19.12h4c0-4.7,0-5.24-.51-6.76l2.5.67c.21.06.34.1.34.29a.39.39,0,0,1-.19.31c-.08.08-.48.39-.6.47,0,1.68,0,3.34,0,5Z"/><path d="M55.45,148.85H53v6.67c1.68-.49,2.15-.68,2.63-.85l.08.17a21.73,21.73,0,0,1-3,1.76l-2.55,1.29c-.19.43-.27.66-.52.66a.43.43,0,0,1-.33-.25l-1.08-1.84c.7,0,1,.08,3.4-.56,0-.71,0-3.86,0-4.5v-2.55h-.42a14.49,14.49,0,0,0-2.44.18l-.4-.83c1.23.11,2.47.15,3.26.15,0-1,0-2.07,0-3.11a11.47,11.47,0,0,0-.27-3.07l2.09.71c.11,0,.29.12.29.31s-.41.56-.7.74c0,1.45,0,2.16-.06,4.42h.49l.63-.68c.18-.21.24-.27.35-.27s.25.14.35.22l.73.69c.1.1.18.18.18.31S55.58,148.85,55.45,148.85Zm9.27,10.61c-.48.09-4.15.09-4.73.09-3.4,0-4-.17-4-2.43,0-.81.06-4.37.06-5.1,0-.21,0-1.14,0-1.33a11.45,11.45,0,0,0-2,1.1l-.7-.58A28.36,28.36,0,0,0,56,150.13v-3.67a10.28,10.28,0,0,0-.23-2.4l1.93.66c.15,0,.31.13.31.29s-.16.33-.66.68c0,.63,0,3.32,0,3.86l2.26-1c0-2.08,0-3.55,0-5a14.16,14.16,0,0,0-.25-1.83l2,.67c.21.06.35.16.35.31s-.29.43-.72.77c0,1.86,0,2.13,0,4.5l2-.9.49-.83c.11-.16.21-.35.36-.35a.76.76,0,0,1,.39.17l1,.6a.42.42,0,0,1,.21.33c0,.25-.23.46-.52.73,0,6.22,0,7.65-2.46,8.29a2.64,2.64,0,0,0-1.25-1.74v-.1a4.64,4.64,0,0,0,.64,0c1.46,0,1.68-.19,1.68-4.56,0-1.41,0-1.64,0-2.24l-2.47,1.12c0,3,.05,5,.07,5.59,0,.27.06,1.5.06,1.75a1,1,0,0,1-1.06,1c-.29,0-.5-.1-.5-.54,0-.22.07-1.28.07-1.49,0-1.33,0-2.11.06-5.76l-2.26,1c0,.83,0,7.2,0,7.45a.69.69,0,0,0,.5.58c.27.08,3.23.08,3.63.08,2.13,0,2.77,0,3.21-.77a17.7,17.7,0,0,0,.91-2.51h.15a7.32,7.32,0,0,0,.39,2.47c.13.21.48.4.48.6S66.28,159.19,64.72,159.46Z"/><path d="M78.08,146.81a21.56,21.56,0,0,0,1.22-3.46H73.89a14.05,14.05,0,0,0-2.45.19l-.41-.83c1.06.08,2.11.14,3.19.14H86.58l.91-.89c.17-.16.33-.31.4-.31s.18.06.39.23l1.16.93a.47.47,0,0,1,.21.31c0,.21-.21.23-.33.23H81.25a36.11,36.11,0,0,1-2.67,3.46h7.54l.58-.6c.21-.2.27-.27.4-.27a.88.88,0,0,1,.37.21l1,.81a.39.39,0,0,1,.16.27c0,.19-.08.25-.83.66,0,2.35,0,5.31,0,7.66,0,1,.11,2.5.11,3.46a.93.93,0,0,1-1,1c-.62,0-.62-.33-.58-1.51H74.49c0,.08,0,.56,0,.66a1,1,0,0,1-1,1c-.67,0-.67-.46-.67-.65s.06-1.09.06-1.26c0-2.26.15-7,.15-9a14.47,14.47,0,0,0-.29-3.4l2.14,1Zm-3.59.5V158h2.76V147.31Zm7.32,3.15v-3.15H78.64v3.15Zm0,3.63V151H78.64v3.13Zm0,3.88v-3.38H78.64V158Zm4.48,0V147.31H83.22V158Z"/><path d="M93.05,155.67a26.65,26.65,0,0,0,3.86-7.94h-.48a15.47,15.47,0,0,0-2.44.18l-.4-.83c1.18.11,2.39.15,3.47.15,0-1,0-2.47,0-3.36a19.71,19.71,0,0,1-3.38.37v-.16a34.87,34.87,0,0,0,5.6-2.32,1.62,1.62,0,0,0,.44-.5l1.43,1.2a.37.37,0,0,1,.14.29c0,.21-.2.21-.39.21l-.6,0a18,18,0,0,1-1.93.62c0,.95,0,2.86,0,3.67h.39l.5-.75c.09-.12.19-.27.31-.27s.29.15.4.23l.89.75a.44.44,0,0,1,.21.33c0,.21-.21.21-.31.21H98.34c0,.39,0,1.32,0,1.82,2,.73,2.72,2,2.72,2.62a.79.79,0,0,1-.77.82c-.5,0-.56-.2-1-1.36a3.78,3.78,0,0,0-1-1.81c0,3.61,0,4,.08,5.6,0,1.41.09,3.05.09,3.8,0,.37,0,1.2-1,1.2-.54,0-.6-.31-.6-.71,0-.68.17-3.73.19-4.35,0-2,0-2.84,0-4.65a13.65,13.65,0,0,1-3.92,5.06Zm6.66,4.38c1.45-.71,3.79-2.08,4.29-3l1.49,1.1a.36.36,0,0,1,.19.31c0,.29-.48.27-1,.27a16.56,16.56,0,0,1-4.94,1.43Zm9.21-16.51.51-.83c.11-.17.21-.29.32-.29s.27.14.39.25l1,.83a.43.43,0,0,1,.2.33c0,.19-.16.21-.31.21h-4.39v1.7h1.66l.49-.75c.09-.12.17-.25.31-.25s.25.13.38.23l.85.72a.49.49,0,0,1,.21.34c0,.18-.19.2-.32.2h-3.58v1.87h3.44l.6-.85c.1-.17.23-.27.33-.27s.25.12.37.25l.9.83a.53.53,0,0,1,.2.33c0,.21-.16.21-.31.21h-8.62a14.53,14.53,0,0,0-2.45.18l-.42-.82c1.06.08,2.14.14,3.2.14h1.35v-1.87h-.5a13.16,13.16,0,0,0-2.45.21l-.39-.83c.62,0,1.53.13,3.34.13,0-.81,0-1.31,0-1.7h-1.37a14.41,14.41,0,0,0-2.45.18l-.42-.83c1.52.13,2.85.15,3.2.15h1a6,6,0,0,0-.37-2.22L107,142a.32.32,0,0,1,.29.31c0,.27-.48.5-.58.54v.73Zm-.48,6.49.48-.52c.08-.08.2-.21.29-.21s.25.13.33.19l.81.68a.54.54,0,0,1,.22.38c0,.21-.24.37-.6.54a7.23,7.23,0,0,0,0,.76c0,.71.17,3.8.17,4.42a.85.85,0,0,1-1,1c-.53,0-.53-.27-.51-.71h-4.94c0,.48.06.95-.93.95-.35,0-.54-.1-.54-.47,0,0,0-.21,0-.5,0-.77,0-3,0-3.92a13.3,13.3,0,0,0-.23-3.28l1.64.73Zm-4.73.5V152h4.94v-1.47Zm0,2V154h4.94V152.5Zm0,2V156h4.94v-1.53Zm3.49,2.82c1.86.16,4.49,1.1,4.49,2.34a.83.83,0,0,1-.82.81c-.48,0-1-.52-1.31-.91a10.69,10.69,0,0,0-2.36-2.1Z"/><path d="M118.69,146.79a1.22,1.22,0,0,1-1.21,1.21,1.21,1.21,0,0,1-1.2-1.21,1.21,1.21,0,0,1,2.41,0Zm0,8.17a1.21,1.21,0,0,1-1.21,1.21,1.21,1.21,0,0,1,0-2.41A1.21,1.21,0,0,1,118.69,155Z"/><path d="M123.23,158.1h1.14c1.08,0,1.45-.42,1.45-1.27V145.61c0-.64-.6-.74-1-.74h-1.57v-.65h.37a7.9,7.9,0,0,0,3.38-.87c.15-.08.21-.12.29-.12s.23.12.23.29v13.31c0,.89.44,1.27,1.45,1.27h1.14v.66h-6.88Z"/><path d="M140.73,143.23h.85v10.53h2.34v.67h-2.34v2.4c0,.91.46,1.27,1.45,1.27h.33v.66H138.1v-.66h.33c1,0,1.45-.34,1.45-1.27v-2.4H134.3v-.73Zm-.85,2.74-4.79,7.79h4.79Z"/><path d="M154.63,151.71a3.86,3.86,0,0,1,1.41,3.07c0,2.55-2.1,4.37-4.84,4.37-2.23,0-4.12-1.26-4.12-2.92a1.2,1.2,0,0,1,1.18-1.33,1,1,0,0,1,1,1,1.69,1.69,0,0,1-.13.66,1.56,1.56,0,0,0-.06.48c0,.79.89,1.37,1.87,1.37a3.55,3.55,0,0,0,3.21-3.67,3.62,3.62,0,0,0-3.23-3.8c-.13,0-.71.09-.83.09a.41.41,0,0,1-.46-.44.47.47,0,0,1,.48-.48c.12,0,.74.13.89.13a3,3,0,0,0,2.84-3.24c0-1.61-1-3.11-2.61-3.11a1.34,1.34,0,0,0-1.62,1.7,2.2,2.2,0,0,1,.06.5,1.1,1.1,0,0,1-1.06,1.14,1.07,1.07,0,0,1-1-1.14c0-1.14,1.32-2.9,4-2.9s4.15,1.66,4.15,3.48a3.59,3.59,0,0,1-.77,2.12,4.93,4.93,0,0,1-2.64,1.76A5.6,5.6,0,0,1,154.63,151.71Z"/><path d="M162,158a1.21,1.21,0,1,1-1.2-1.2A1.22,1.22,0,0,1,162,158Z"/><path d="M174.54,143.62v1.1c-3.3,5.08-4.46,8-4.73,12.59,0,.54-.11,1.84-1.16,1.84a1.09,1.09,0,0,1-1.06-1.14c0-1.47,1.45-5.82,5.83-12.75h-3.55c-3,0-3.46,1.39-3.92,2.72l-.62-.15.85-4.21Z"/><path d="M178.91,158.1h1.14c1.08,0,1.45-.42,1.45-1.27V145.61c0-.64-.6-.74-1-.74h-1.58v-.65h.38a8,8,0,0,0,3.38-.87c.14-.08.2-.12.29-.12s.23.12.23.29v13.31c0,.89.43,1.27,1.45,1.27h1.14v.66h-6.89Z"/><path d="M193.51,148.56v1.63a4.71,4.71,0,0,1,3.42-1.63,2.29,2.29,0,0,1,2.49,1.86,5.2,5.2,0,0,1,3.72-1.86c1.82,0,2.65,1.1,2.65,3.4v4.89c0,.79.41,1.25,1,1.25h.37v.66h-4.33v-.66h.39c.72,0,1-.56,1-1.25v-4.77c0-.58-.09-2.63-1.81-2.63a3.9,3.9,0,0,0-2.94,1.8,5.05,5.05,0,0,1,0,.71v4.89c0,.87.48,1.25,1,1.25h.6v.66h-4.77v-.66h.6c.58,0,1.06-.4,1.06-1.25v-4.77c0-.43-.07-2.63-1.81-2.63a3.71,3.71,0,0,0-2.8,1.64v5.76c0,.87.48,1.25,1,1.25h.37v.66h-4.31v-.66H191c.63,0,1-.44,1-1.25v-6.24a.85.85,0,0,0-.85-1,1.83,1.83,0,0,0-.62.08l-.11-.4Zm10.72-1.23a12.86,12.86,0,0,1,1.21-1.32c.43-.48,1.18-1.29,1.18-2,0-.27-.17-.77-.64-.77a.69.69,0,0,0-.71.56c0,.08.19.45.19.54a.57.57,0,0,1-.58.54.65.65,0,0,1-.63-.71,1.76,1.76,0,0,1,1.83-1.49,1.4,1.4,0,0,1,1.51,1.41,1.66,1.66,0,0,1-.64,1.35c-.23.22-1.51,1.26-1.72,1.55h1.28a.84.84,0,0,0,.81-.7l.33.1-.43,1.43h-3Z"/><path d="M251.48,159.67c-7.53-.1-10.76-.14-13.56-2.86a9.72,9.72,0,0,1-4.23,3.59l-.13-.13a13.09,13.09,0,0,0,3.59-4.31,10.09,10.09,0,0,1-1.93-4l.21-.17a9.24,9.24,0,0,0,2.09,3.4,14.27,14.27,0,0,0,1.16-5.64h-1.74c-.41,1.16-.52,1.47-1.2,1.47-.15,0-.75,0-.75-.47a12.11,12.11,0,0,1,.5-1.47c1.08-2.78,1.93-5,2.18-6h-.75a13.55,13.55,0,0,0-2.45.19l-.39-.83c1.06.08,2.11.15,3.17.15h.38l.53-.44c.19-.14.29-.21.4-.21a.75.75,0,0,1,.35.21l.81.69a.42.42,0,0,1,.21.37c0,.25-.42.43-1,.66-.45,1.16-.72,1.87-1.86,5.14h1.41l.56-.43a.75.75,0,0,1,.39-.21c.15,0,.25.08.39.23l.65.66a.72.72,0,0,1,.25.44c0,.19-.21.31-.65.58a14.1,14.1,0,0,1-1.7,5.7,11.42,11.42,0,0,0,7.22,2.06,46.55,46.55,0,0,0,7.3-.61l0,.17A2.54,2.54,0,0,0,251.48,159.67Zm1.22-12.92h-2.86c.08,2.47.08,2.47.08,2.62,0,.41,0,1-1,1-.56,0-.54-.33-.52-.68h-2.55v2.16H249l.62-.79c.14-.17.23-.27.35-.27s.23.1.4.23l.93.78c.1.11.21.23.21.32s-.15.22-.31.22h-5.31l0,2.2h3.69l.79-.91c.16-.19.25-.27.35-.27s.23.08.37.23l1,.91a.51.51,0,0,1,.21.35c0,.13-.13.19-.32.19h-6.07c0,.25,0,1.47,0,1.74a1,1,0,0,1-.91.75c-.67,0-.67-.38-.67-.6s.11-1.58.11-1.89H243a14.64,14.64,0,0,0-2.43.19l-.42-.81c1.62.12,3.16.12,3.2.12h1.08c0-.56,0-1.08,0-2.2h-.62a13.78,13.78,0,0,0-2.43.19l-.41-.81c.62,0,1.78.13,3.48.13v-2.16h-.42a14.8,14.8,0,0,0-2.44.19l-.42-.81c1.5.1,3.07.12,3.28.12l0-2.49h-1.93a13.85,13.85,0,0,0-2.43.19l-.41-.83c1.06.1,2.12.15,3.17.15h1.6l0-2.43H244a16.05,16.05,0,0,0-2.45.19l-.39-.83c1.45.12,2.8.14,3.32.14a3.7,3.7,0,0,0-.31-1.93l2,.48c.23.06.35.14.35.33s-.25.38-.58.56v.56h2.41l.51-.45c.15-.13.25-.21.38-.21s.23.1.37.23l.58.56a.58.58,0,0,1,.25.39c0,.17-.17.29-.58.58a11.54,11.54,0,0,0,0,1.83h.75l.6-.77c.12-.17.22-.25.33-.25a.63.63,0,0,1,.39.21l.9.76c.1.11.2.21.2.31S252.91,146.75,252.7,146.75Zm-4.25,0h-2.57l0,2.49h2.59Zm0-2.92h-2.53l0,2.43h2.57Z"/><path d="M262.31,152.64c0,2.51,0,3,0,4.15,0,.73.08,1.89.08,2.61s-.89,1-1.08,1c-.45,0-.56-.27-.56-.58,0-.09,0-.85,0-1,.09-1.55.09-2.11.13-5.43a22.32,22.32,0,0,1-2.55,1.18c0,.37-.07.73-.4.73s-.35-.23-.41-.36l-1-1.86c1.29.06,1.64,0,4.36-.79,0-1.83,0-3.88,0-5.46h-1.87a16.45,16.45,0,0,1-1.84,4.59l-.13,0a33,33,0,0,0,.93-7.2,3.74,3.74,0,0,0-.2-1.41l2,.48c.16,0,.35.08.35.31s-.29.41-.62.54a21.46,21.46,0,0,1-.35,2.24H261c0-2.93-.11-3.78-.56-4.81l2.28.66c.12,0,.31.14.31.29s-.35.44-.67.6c0,.44,0,2.63,0,3.26h.41l.58-.79c.1-.13.21-.27.31-.27a.63.63,0,0,1,.37.23l.83.79a.45.45,0,0,1,.19.31c0,.18-.19.22-.31.22h-2.38c0,1.33,0,3.65,0,5,.41-.14,2.34-.81,2.71-1l.06.14A24.34,24.34,0,0,1,262.31,152.64ZM274.54,147c-.17,4.34-.33,8.28-1.64,11a4,4,0,0,1-3.21,2.1c-.15-.94-.48-1.52-1.77-2.45l.07-.15a8.94,8.94,0,0,0,2.51.44c.49,0,.82,0,1.41-1.47a32.28,32.28,0,0,0,1.16-10h-1.18c-.61,4.69-2.6,10.72-8.59,13l-.06-.14c4.39-3.3,6.26-6.8,7.13-12.84h-1.16c-.85,4.38-3.19,8.15-6.2,9.56l-.06-.12a17.71,17.71,0,0,0,4.75-9.44h-1a13.14,13.14,0,0,1-2.8,4.13l-.1-.11a23.11,23.11,0,0,0,2.67-8.46,2.49,2.49,0,0,0-.1-.7l2.07.83c.21.08.31.21.31.33,0,.27-.39.37-.72.46-.54,1.66-.9,2.5-1.1,3h6l.5-.52c.12-.14.23-.22.31-.22a.87.87,0,0,1,.37.18l1,.73c.14.1.22.17.22.29C275.24,146.69,274.77,146.92,274.54,147Z"/><path d="M286.9,146.81a21.66,21.66,0,0,0,1.23-3.46h-5.42a13.88,13.88,0,0,0-2.44.19l-.42-.83c1.06.08,2.12.14,3.19.14H295.4l.92-.89a1.23,1.23,0,0,1,.39-.31c.1,0,.19.06.39.23l1.17.93c.08.07.2.19.2.31s-.2.23-.33.23h-8.07a36.11,36.11,0,0,1-2.67,3.46H295l.58-.6c.2-.2.27-.27.39-.27s.27.13.38.21l.95.81a.39.39,0,0,1,.16.27c0,.19-.08.25-.82.66,0,2.35,0,5.31,0,7.66,0,1,.1,2.5.1,3.46a.93.93,0,0,1-1,1c-.62,0-.62-.33-.58-1.51h-11.8c0,.08,0,.56,0,.66a1,1,0,0,1-1,1c-.67,0-.67-.46-.67-.65s.07-1.09.07-1.26c0-2.26.14-7,.14-9a14.47,14.47,0,0,0-.29-3.4l2.14,1Zm-3.59.5V158h2.76V147.31Zm7.32,3.15v-3.15h-3.17v3.15Zm0,3.63V151h-3.17v3.13Zm0,3.88v-3.38h-3.17V158Zm4.48,0V147.31H292V158Z"/><path d="M301.88,155.67a26.86,26.86,0,0,0,3.85-7.94h-.47a15.51,15.51,0,0,0-2.45.18l-.4-.83c1.19.11,2.39.15,3.47.15,0-1,0-2.47,0-3.36a19.82,19.82,0,0,1-3.38.37v-.16a35.25,35.25,0,0,0,5.6-2.32,1.55,1.55,0,0,0,.43-.5l1.43,1.2a.38.38,0,0,1,.15.29c0,.21-.21.21-.4.21l-.6,0a17.23,17.23,0,0,1-1.93.62c0,.95,0,2.86,0,3.67h.4l.5-.75c.08-.12.18-.27.31-.27s.29.15.39.23l.89.75a.42.42,0,0,1,.21.33c0,.21-.21.21-.31.21h-2.39c0,.39,0,1.32,0,1.82,2,.73,2.72,2,2.72,2.62a.79.79,0,0,1-.77.82c-.49,0-.56-.2-1-1.36a3.78,3.78,0,0,0-1-1.81c.05,3.61.05,4,.09,5.6,0,1.41.08,3.05.08,3.8,0,.37,0,1.2-1,1.2-.54,0-.6-.31-.6-.71,0-.68.17-3.73.19-4.35,0-2,0-2.84,0-4.65a13.55,13.55,0,0,1-3.92,5.06Zm6.65,4.38c1.45-.71,3.8-2.08,4.29-3l1.5,1.1a.37.37,0,0,1,.18.31c0,.29-.47.27-1,.27a16.47,16.47,0,0,1-4.94,1.43Zm9.21-16.51.52-.83c.1-.17.21-.29.31-.29s.27.14.39.25l1,.83a.44.44,0,0,1,.21.33c0,.19-.17.21-.31.21h-4.4v1.7h1.66l.5-.75c.08-.12.16-.25.31-.25s.25.13.37.23l.85.72a.46.46,0,0,1,.21.34c0,.18-.19.2-.31.2h-3.59v1.87h3.44l.6-.85c.11-.17.23-.27.33-.27s.25.12.38.25l.89.83c.1.1.21.21.21.33s-.17.21-.31.21h-8.63a14.66,14.66,0,0,0-2.45.18l-.41-.82c1.06.08,2.13.14,3.19.14h1.35v-1.87h-.5a13.16,13.16,0,0,0-2.45.21l-.39-.83c.62,0,1.54.13,3.34.13,0-.81,0-1.31,0-1.7h-1.37a14.53,14.53,0,0,0-2.45.18l-.41-.83c1.51.13,2.84.15,3.19.15h1a5.8,5.8,0,0,0-.38-2.22l2.12.64a.32.32,0,0,1,.29.31c0,.27-.48.5-.58.54v.73Zm-.48,6.49.48-.52c.08-.08.21-.21.29-.21s.25.13.33.19l.81.68a.52.52,0,0,1,.23.38c0,.21-.25.37-.6.54a7.23,7.23,0,0,0,0,.76c0,.71.16,3.8.16,4.42a.85.85,0,0,1-.95,1c-.54,0-.54-.27-.52-.71h-4.94c.05.48.07.95-.93.95-.35,0-.54-.1-.54-.47,0,0,0-.21,0-.5,0-.77,0-3,0-3.92a13.3,13.3,0,0,0-.23-3.28l1.64.73Zm-4.73.5V152h4.94v-1.47Zm0,2V154h4.94V152.5Zm0,2V156h4.94v-1.53Zm3.49,2.82c1.87.16,4.5,1.1,4.5,2.34a.84.84,0,0,1-.83.81c-.48,0-1-.52-1.31-.91a10.22,10.22,0,0,0-2.36-2.1Z"/><path d="M327.51,146.79a1.21,1.21,0,1,1-2.41,0,1.21,1.21,0,0,1,2.41,0Zm0,8.17a1.21,1.21,0,1,1-1.2-1.2A1.21,1.21,0,0,1,327.51,155Z"/><path d="M332.05,158.1h1.14c1.08,0,1.45-.42,1.45-1.27V145.61c0-.64-.6-.74-1-.74h-1.58v-.65h.38a8,8,0,0,0,3.38-.87c.14-.08.2-.12.29-.12s.22.12.22.29v13.31c0,.89.44,1.27,1.46,1.27h1.14v.66h-6.89Z"/><path d="M347.94,159.15a4.18,4.18,0,0,1-3.4-2.24,12.91,12.91,0,0,1-1.27-5.91c0-4.41,1.89-7.77,4.67-7.77,2.13,0,4.66,2.3,4.66,8C352.6,156.27,350.47,159.15,347.94,159.15Zm-2.33-12.46a18.85,18.85,0,0,0-.47,4.5c0,4.62,1.1,7.26,2.8,7.26,1.43,0,2.07-1.91,2.3-2.7a19.21,19.21,0,0,0,.5-4.56c0-4.73-1.14-7.26-2.8-7.26C346.47,143.93,345.82,146,345.61,146.69Z"/><path d="M365,143.62v1.1c-3.3,5.08-4.46,8-4.73,12.59,0,.54-.11,1.84-1.16,1.84a1.09,1.09,0,0,1-1.06-1.14c0-1.47,1.45-5.82,5.83-12.75h-3.55c-3,0-3.46,1.39-3.92,2.72l-.62-.15.85-4.21Z"/><path d="M370.77,158a1.2,1.2,0,1,1-1.2-1.2A1.22,1.22,0,0,1,370.77,158Z"/><path d="M383.36,143.62v1.1c-3.3,5.08-4.46,8-4.73,12.59,0,.54-.1,1.84-1.16,1.84a1.09,1.09,0,0,1-1.06-1.14c0-1.47,1.45-5.82,5.83-12.75h-3.55c-3,0-3.46,1.39-3.92,2.72l-.62-.15.85-4.21Z"/><path d="M394.25,151.71a3.86,3.86,0,0,1,1.41,3.07c0,2.55-2.1,4.37-4.83,4.37-2.24,0-4.13-1.26-4.13-2.92a1.2,1.2,0,0,1,1.18-1.33,1,1,0,0,1,1,1,1.69,1.69,0,0,1-.13.66,1.56,1.56,0,0,0-.06.48c0,.79.89,1.37,1.87,1.37a3.55,3.55,0,0,0,3.21-3.67,3.61,3.61,0,0,0-3.23-3.8c-.13,0-.71.09-.83.09a.42.42,0,0,1-.46-.44.47.47,0,0,1,.48-.48c.12,0,.74.13.89.13a3,3,0,0,0,2.84-3.24c0-1.61-1-3.11-2.61-3.11a1.34,1.34,0,0,0-1.62,1.7,2.2,2.2,0,0,1,.06.5,1.1,1.1,0,0,1-1.06,1.14,1.07,1.07,0,0,1-1-1.14c0-1.14,1.33-2.9,4-2.9s4.15,1.66,4.15,3.48a3.59,3.59,0,0,1-.77,2.12,4.91,4.91,0,0,1-2.63,1.76A5.62,5.62,0,0,1,394.25,151.71Z"/><path d="M403.41,148.56v1.63a4.71,4.71,0,0,1,3.43-1.63,2.29,2.29,0,0,1,2.48,1.86,5.2,5.2,0,0,1,3.72-1.86c1.82,0,2.65,1.1,2.65,3.4v4.89c0,.79.42,1.25,1,1.25h.37v.66h-4.33v-.66h.39c.73,0,1-.56,1-1.25v-4.77c0-.58-.09-2.63-1.81-2.63a3.9,3.9,0,0,0-2.94,1.8,5.05,5.05,0,0,1,0,.71v4.89c0,.87.48,1.25,1,1.25h.6v.66h-4.77v-.66h.6c.58,0,1.06-.4,1.06-1.25v-4.77c0-.43-.06-2.63-1.81-2.63a3.71,3.71,0,0,0-2.8,1.64v5.76c0,.87.48,1.25,1,1.25h.37v.66h-4.31v-.66h.37c.63,0,1-.44,1-1.25v-6.24a.85.85,0,0,0-.85-1,1.83,1.83,0,0,0-.62.08l-.1-.4Zm10.73-1.23a11.38,11.38,0,0,1,1.2-1.32c.43-.48,1.18-1.29,1.18-2,0-.27-.17-.77-.64-.77a.69.69,0,0,0-.71.56c0,.08.19.45.19.54a.57.57,0,0,1-.58.54.64.64,0,0,1-.62-.71,1.75,1.75,0,0,1,1.82-1.49,1.4,1.4,0,0,1,1.51,1.41,1.66,1.66,0,0,1-.64,1.35c-.23.22-1.51,1.26-1.72,1.55h1.29c.54,0,.7-.41.81-.7l.33.1-.44,1.43h-3Z"/><path d="M426.85,160.92a12.7,12.7,0,0,1,0-20.08l.18.29a14,14,0,0,0,0,19.5Z"/><path d="M435.81,148.41c-.35.44-1.56,2.55-1.83,3a13.52,13.52,0,0,1-5.74,5.22l0-.18c3.9-3.45,5.83-7.76,5.83-8.65,0-.52-.19-1-1.31-1.49a3.14,3.14,0,0,1,1.06-.19,3.63,3.63,0,0,1,2.46,1.7A1.85,1.85,0,0,1,435.81,148.41Zm9.16,7.07c-.6,0-.72-.45-1.26-2.15a18.74,18.74,0,0,0-4.48-7c2.63.79,6.51,4.87,6.51,8C445.74,154.9,445.43,155.48,445,155.48Zm-.56-8.23c-.29,0-.37-.1-1.09-.95a7.84,7.84,0,0,0-1.95-1.66c1.3,0,3.52.7,3.52,2C444.89,147,444.64,147.25,444.41,147.25Zm1.73-1.89c-.25,0-.32-.06-.88-.66a8.79,8.79,0,0,0-2.3-1.62c1.33-.08,3.67.5,3.67,1.7A.52.52,0,0,1,446.14,145.36Z"/><path d="M455.84,147.35c0,.48-.2,2.62-.25,3.05-.53,4.46-3.21,6.83-5,7.55l-.11-.12a12.78,12.78,0,0,0,3.84-9.83c0-1.72,0-1.72-1.6-2.14a2.44,2.44,0,0,1,1.37-.54c.54,0,1.95.46,1.95,1C456.07,146.52,455.86,147.21,455.84,147.35Zm5,8.57a6.11,6.11,0,0,0-1.3,1.16c-.11.1-.29.31-.42.31-.39,0-1.33-1.7-1.33-2s.25-.77.27-.91a32.38,32.38,0,0,0,.19-4.13c0-.77,0-4.6-.12-5.1s-.5-.64-1.5-1a2.26,2.26,0,0,1,1.16-.44c.63,0,2.24.62,2.24,1.24a11.48,11.48,0,0,1-.29,1.19c-.2,1-.31,6.86-.31,8.13,0,.08,0,.35.15.35.5,0,4.25-2.39,7.5-6.53l.17.12A19.07,19.07,0,0,1,460.88,155.92Z"/><path d="M484.46,147.44a.87.87,0,0,0-.45.66c-.34,1.35-.5,2.39-1.16,6.26.39.09,1,.4,1,.85s-.54.56-1.12.56c-.39,0-2.12-.08-2.47-.08a22.72,22.72,0,0,0-5.78.62,9.36,9.36,0,0,1-1.1.36c-.65,0-1.72-1.5-1.72-2.31a1.93,1.93,0,0,1,.14-.68A3.25,3.25,0,0,0,474,155c.71,0,1.58-.09,7.59-.56.64-4.3,1-6.56,1-7.37,0-.18-.09-.24-.3-.24a59.63,59.63,0,0,0-7.71.93,7,7,0,0,1-.93.33c-.69,0-1.85-1.37-1.85-2.41a1.83,1.83,0,0,1,.11-.7,2.84,2.84,0,0,0,2.36,1.47c1,0,7.46-.47,8-.68a7,7,0,0,1,1-.56c.23,0,1.7,1.24,1.7,1.66C485,147.1,484.88,147.17,484.46,147.44Z"/><path d="M505.47,155.34l-1.62-.27a18.84,18.84,0,0,0-3.13-.23,37.24,37.24,0,0,0-7.75.87,3.77,3.77,0,0,1-1.12.29,2.62,2.62,0,0,1-1.91-2.42A2.12,2.12,0,0,1,490,153a2.74,2.74,0,0,0,2.45,1.28c.12,0,5.74-.47,6.82-.52a22.17,22.17,0,0,0,3.73-.35,3.42,3.42,0,0,1,.88-.23c.43,0,2.09.73,2.09,1.54A.53.53,0,0,1,505.47,155.34Zm-3.73-8.15-3.19.21a20,20,0,0,0-3.72.43,1.23,1.23,0,0,1-.37,0,2.06,2.06,0,0,1-1.91-2,4.18,4.18,0,0,0,2.55.73,27.77,27.77,0,0,0,5.17-.56c.18,0,1-.38,1.22-.38.39,0,1.66.31,1.66,1C503.15,147.08,502.78,147.13,501.74,147.19Z"/><path d="M525.63,151.58c-.19,0-.68,0-.73,0a21.3,21.3,0,0,0-2.34-.08c-6.32,0-8.19.12-9.12.37-.07,0-.73.19-.79.19-.54,0-1.66-1.33-1.66-2.28a2.38,2.38,0,0,1,.25-1c.7,1.58,1.35,1.58,3.5,1.58,1.43,0,8.17,0,9.13-.25.12,0,.72-.19.85-.19s2.2.23,2.2,1C526.92,151.56,525.88,151.58,525.63,151.58Z"/><path d="M538.57,146.81a21.66,21.66,0,0,0,1.23-3.46h-5.42a13.88,13.88,0,0,0-2.44.19l-.42-.83c1.06.08,2.12.14,3.2.14h12.35L548,142a1.23,1.23,0,0,1,.39-.31c.1,0,.19.06.4.23l1.16.93c.08.07.2.19.2.31s-.2.23-.33.23h-8.07a36.11,36.11,0,0,1-2.67,3.46h7.55l.58-.6c.21-.2.27-.27.39-.27s.27.13.38.21l.95.81a.42.42,0,0,1,.17.27c0,.19-.09.25-.83.66,0,2.35,0,5.31,0,7.66,0,1,.1,2.5.1,3.46a.93.93,0,0,1-1,1c-.62,0-.62-.33-.58-1.51H535c0,.08,0,.56,0,.66a1,1,0,0,1-1,1c-.66,0-.66-.46-.66-.65s.06-1.09.06-1.26c0-2.26.14-7,.14-9a14.47,14.47,0,0,0-.29-3.4l2.14,1Zm-3.59.5V158h2.76V147.31Zm7.33,3.15v-3.15h-3.18v3.15Zm0,3.63V151h-3.18v3.13Zm0,3.88v-3.38h-3.18V158Zm4.47,0V147.31h-3.06V158Z"/><path d="M553.55,155.67a26.86,26.86,0,0,0,3.85-7.94h-.47a15.51,15.51,0,0,0-2.45.18l-.39-.83c1.18.11,2.38.15,3.46.15,0-1,0-2.47,0-3.36a19.82,19.82,0,0,1-3.38.37v-.16a35.25,35.25,0,0,0,5.6-2.32,1.43,1.43,0,0,0,.43-.5l1.43,1.2a.35.35,0,0,1,.15.29c0,.21-.21.21-.4.21l-.6,0a17.23,17.23,0,0,1-1.93.62c0,.95,0,2.86,0,3.67h.4l.5-.75c.08-.12.18-.27.31-.27s.29.15.39.23l.89.75a.42.42,0,0,1,.21.33c0,.21-.21.21-.31.21h-2.39c0,.39,0,1.32,0,1.82,2,.73,2.71,2,2.71,2.62a.79.79,0,0,1-.76.82c-.5,0-.57-.2-1-1.36a3.86,3.86,0,0,0-1-1.81c0,3.61,0,4,.08,5.6,0,1.41.08,3.05.08,3.8,0,.37,0,1.2-1,1.2-.53,0-.6-.31-.6-.71,0-.68.17-3.73.19-4.35,0-2,0-2.84,0-4.65a13.55,13.55,0,0,1-3.92,5.06Zm6.65,4.38c1.45-.71,3.8-2.08,4.3-3l1.49,1.1a.38.38,0,0,1,.19.31c0,.29-.48.27-1,.27a16.47,16.47,0,0,1-4.94,1.43Zm9.21-16.51.52-.83c.1-.17.21-.29.31-.29s.27.14.39.25l1,.83a.44.44,0,0,1,.21.33c0,.19-.17.21-.31.21h-4.4v1.7h1.66l.5-.75c.08-.12.16-.25.31-.25s.25.13.37.23l.85.72a.46.46,0,0,1,.21.34c0,.18-.19.2-.31.2h-3.59v1.87h3.44l.6-.85c.11-.17.23-.27.34-.27s.24.12.37.25l.89.83c.1.1.21.21.21.33s-.17.21-.31.21h-8.63a14.66,14.66,0,0,0-2.45.18l-.41-.82c1.06.08,2.13.14,3.19.14h1.35v-1.87h-.5a13,13,0,0,0-2.44.21l-.4-.83c.62,0,1.54.13,3.34.13,0-.81,0-1.31,0-1.7h-1.37a14.53,14.53,0,0,0-2.45.18l-.41-.83c1.51.13,2.84.15,3.19.15h1a5.8,5.8,0,0,0-.38-2.22l2.12.64a.32.32,0,0,1,.29.31c0,.27-.48.5-.58.54v.73Zm-.48,6.49.48-.52c.08-.08.21-.21.29-.21s.25.13.33.19l.81.68a.52.52,0,0,1,.23.38c0,.21-.25.37-.6.54a7.23,7.23,0,0,0,0,.76c0,.71.16,3.8.16,4.42a.85.85,0,0,1-1,1c-.54,0-.54-.27-.52-.71h-4.93c0,.48.06.95-.94.95-.35,0-.54-.1-.54-.47,0,0,0-.21,0-.5,0-.77,0-3,0-3.92a13.3,13.3,0,0,0-.23-3.28l1.64.73Zm-4.72.5V152h4.93v-1.47Zm0,2V154h4.93V152.5Zm0,2V156h4.93v-1.53Zm3.48,2.82c1.87.16,4.5,1.1,4.5,2.34a.84.84,0,0,1-.83.81c-.48,0-1-.52-1.31-.91a10.22,10.22,0,0,0-2.36-2.1Z"/><path d="M583.49,144c-.27.54-.83,1.68-1.39,2.64-.89,1.51-1,1.68-1.1,1.88a5.47,5.47,0,0,1,2.53,4.26,2.49,2.49,0,0,1-2.38,2.63,2.63,2.63,0,0,0-1.12-1.87l0-.16a6.38,6.38,0,0,0,1.08.12c.58,0,1-.1,1-1.39a4.64,4.64,0,0,0-1.57-3.54,32.38,32.38,0,0,0,1.45-5.33h-2.22c0,1.16,0,7.27,0,8.93,0,1.08.1,6.58.1,6.85a1,1,0,0,1-1.07,1,.51.51,0,0,1-.56-.58c0-.08,0-.29,0-.41.16-2.3.22-4.15.22-11.18a25.91,25.91,0,0,0-.39-6.05l1.89.93h2.11l.46-.44a.54.54,0,0,1,.33-.2c.08,0,.19.08.33.2l1,.83a.44.44,0,0,1,.12.29C584.28,143.64,584.12,143.77,583.49,144Zm2.37,11.49a12.23,12.23,0,0,1-4.32,3.53l0-.13c1.56-1.57,3.09-3.34,3.34-5l1.6.94c.18.1.27.16.27.31C586.71,155.42,586.13,155.44,585.86,155.44Zm8.83-6.2a15.08,15.08,0,0,1-5.76-6l-.11,0a19.48,19.48,0,0,1-6.26,6.41l-.08-.17c2.15-1.93,4.68-5.79,5-7.82l1.88.83a.33.33,0,0,1,.19.29c0,.25-.21.31-.31.36,3.13,3.6,5.49,4.27,7.15,4.56v.12A3.25,3.25,0,0,0,594.69,149.24Zm-.46,3.73h-5c0,.71,0,3.84,0,4.48,0,1.45-.11,2.18-2.41,2.86a2.66,2.66,0,0,0-1.7-2v-.15c.48,0,1.18.1,1.85.1s.83,0,.87-.35c0-.19,0-1.53,0-5h-1.2a12.58,12.58,0,0,0-2.45.19l-.39-.83c1.41.13,2.88.15,3.17.15h.85v-3.24a14.27,14.27,0,0,0-2.68.19l-.41-.83c1.41.12,2.9.14,3.19.14h1.89l.58-.8c.13-.17.19-.27.31-.27s.21.08.37.22l1,.81a.42.42,0,0,1,.21.31c0,.21-.19.23-.33.23h-2.76v3.24h2.69l.58-1c.07-.12.19-.27.31-.27s.23.11.38.23l1.18,1c.08.08.21.16.21.31S594.38,153,594.23,153Zm-.12,5.87c-.58,0-.72-.25-1.29-1.32a8,8,0,0,0-2.32-2.7l.11-.1c1.86.39,4.35,1.68,4.35,3.19A.82.82,0,0,1,594.11,158.84Z"/><path d="M608,160.27c-.34,0-.4-.08-1.37-1.66-1.14-1.84-1.62-2.32-5.56-6.22a2.32,2.32,0,0,1-.75-1.47c0-.33.07-.68.77-1.43,2.1-2.22,5.25-5.52,5.25-6.32,0-.5-.46-1-1-1.5a2.49,2.49,0,0,1,2.8,2.12c0,.41-.21.58-.83,1.08a72.6,72.6,0,0,0-5.47,5.24,1,1,0,0,0-.36.77c0,.52.15.66,1.83,2.2,4.65,4.19,5.47,4.91,5.47,6C608.79,159.55,608.53,160.27,608,160.27Z"/><path d="M614.29,160.92l-.18-.29a14,14,0,0,0,0-19.5l.18-.29a12.7,12.7,0,0,1,0,20.08Z"/><path d="M233.53,429.3H235v17.77h3.95v1.12H235v4.06c0,1.54.77,2.14,2.45,2.14H238v1.12h-8.89v-1.12h.56c1.64,0,2.45-.56,2.45-2.14v-4.06h-9.41V447Zm-1.43,4.62L224,447.07h8.08Z"/><path d="M252.81,431.12h-1.22a2.25,2.25,0,0,0-2.49,2.41V452a2.25,2.25,0,0,0,2.49,2.42h.94a10.61,10.61,0,0,0,9.49-5.78l.9.46-2.48,6.44H242.63v-1.12h1.19a2.27,2.27,0,0,0,2.52-2.42V433.53a2.26,2.26,0,0,0-2.52-2.41h-1.19V430h10.18Z"/><path d="M267.19,430h10.05c8.18,0,13.26,4.2,13.26,12.6,0,6-3.15,12.95-12.95,12.95H267.19v-1.12h1.19A2.26,2.26,0,0,0,270.9,452V433.53a2.26,2.26,0,0,0-2.52-2.41h-1.19Zm6.48,22a2.25,2.25,0,0,0,2.48,2.42h1.68c6.33,0,9.52-5.67,9.52-12.11,0-4.44-1.82-11.16-9.38-11.16h-1.82a2.24,2.24,0,0,0-2.48,2.41Z"/><path d="M307.5,439.76l7.77,12.42a5,5,0,0,0,4.13,2.21h.49v1.12H310v-1.12h.84a1.28,1.28,0,0,0,1.4-1.16,2.84,2.84,0,0,0-.49-1.43l-6.2-9.91-3.32,3.61V452a2.28,2.28,0,0,0,2.52,2.42h1v1.12H296v-1.12h1a2.25,2.25,0,0,0,2.49-2.42V433.53a2.25,2.25,0,0,0-2.49-2.41h-1V430h9.73v1.16h-1a2.27,2.27,0,0,0-2.52,2.41v10.32l9.55-10.42a1.75,1.75,0,0,0,.46-1.12c0-1-1.09-1.19-1.86-1.19h-.91V430h9.87v1.16h-.63a6.85,6.85,0,0,0-5.6,2.52Z"/><path d="M324.82,446h6.05v-6h1.25v6h6.07v1.25h-6.07v6h-1.25v-6h-6.05Z"/><path d="M352.72,438.44h-.61c-1.05,0-1.42.41-1.42,1.12a5.6,5.6,0,0,0,.22,1.23l2.89,11.11,3.43-11.33c-.47-1.47-.83-2.13-2.13-2.13h-.52v-.81h6.61v.81h-.85a1.07,1.07,0,0,0-1.23,1.17,5.12,5.12,0,0,0,.25,1.42l3,10.78,2.81-11.22a4.74,4.74,0,0,0,.15-.95c0-.89-.81-1.2-1.5-1.2h-.78v-.81h5.71v.81h-.47c-1.39,0-2,.8-2.28,2.05L362.15,456h-.59l-3.94-14-4.24,14h-.51l-4-15.53c-.44-1.71-1.17-2-2-2h-.61v-.81h6.46Z"/><path d="M378.12,454.55a1.42,1.42,0,1,1-1.42-1.42A1.44,1.44,0,0,1,378.12,454.55Z"/><path d="M392,438.44h-1.17a1.56,1.56,0,0,0-1.74,1.68V453a1.57,1.57,0,0,0,1.74,1.69H392v.79h-7.76v-.79h1.15a1.58,1.58,0,0,0,1.76-1.69V440.12a1.57,1.57,0,0,0-1.76-1.68h-1.15v-.81H392Z"/><path d="M401,454.55a1.42,1.42,0,1,1-1.42-1.42A1.44,1.44,0,0,1,401,454.55Z"/><path d="M421.33,442c-.91-1.37-2.67-4-5.95-4-3.92,0-5.86,4-5.86,8.25,0,4.75,2.3,8.62,6.42,8.62,3.48,0,5.19-3.18,5.83-4.43l.66.39c-1,1.89-2.67,5.17-7.23,5.17-5.16,0-7.69-4.19-7.69-9,0-5.73,3.56-9.8,7.69-9.8a6.84,6.84,0,0,1,2.06.3c.2,0,1.35.36,1.5.36a3.48,3.48,0,0,0,1.64-.59l1.74,4.41Z"/><path d="M39.5,477.72l.85-1.12c.13-.16.19-.25.31-.25s.15,0,.4.23l1.39,1.1a.45.45,0,0,1,.2.33c0,.19-.18.21-.33.21h-6.9c0,.68,0,3.67,0,4.27,0,.21,0,4.52,0,5.12h5.49l1-1.12c.14-.16.21-.24.31-.24s.19.06.39.22l1.37,1.1a.45.45,0,0,1,.21.31c0,.19-.19.23-.31.23H28.3a14.41,14.41,0,0,0-2.44.19l-.42-.83c1.39.12,2.8.14,3.2.14h5.28c0-.18,0-4.58,0-5.06v-4.33H29.53a14.51,14.51,0,0,0-2.45.19l-.41-.81c1.39.1,2.8.12,3.19.12h4c0-4.7,0-5.24-.51-6.76l2.5.67c.21.06.34.1.34.29a.39.39,0,0,1-.19.31c-.08.08-.48.39-.6.47,0,1.68,0,3.34,0,5Z"/><path d="M55.45,477.85H53v6.67c1.68-.49,2.15-.68,2.63-.85l.08.17a21.73,21.73,0,0,1-3,1.76l-2.55,1.29c-.19.43-.27.66-.52.66a.43.43,0,0,1-.33-.25l-1.08-1.84c.7,0,1,.08,3.4-.56,0-.71,0-3.86,0-4.5v-2.55h-.42a14.49,14.49,0,0,0-2.44.18l-.4-.83c1.23.11,2.47.15,3.26.15,0-1,0-2.07,0-3.11a11.47,11.47,0,0,0-.27-3.07l2.09.71c.11,0,.29.12.29.31s-.41.56-.7.74c0,1.45,0,2.16-.06,4.42h.49l.63-.68c.18-.21.24-.27.35-.27s.25.14.35.22l.73.69c.1.1.18.18.18.31S55.58,477.85,55.45,477.85Zm9.27,10.61c-.48.09-4.15.09-4.73.09-3.4,0-4-.17-4-2.43,0-.81.06-4.37.06-5.1,0-.21,0-1.14,0-1.33a11.45,11.45,0,0,0-2,1.1l-.7-.58A28.36,28.36,0,0,0,56,479.13v-3.67a10.28,10.28,0,0,0-.23-2.4l1.93.66c.15,0,.31.13.31.29s-.16.33-.66.68c0,.63,0,3.32,0,3.86l2.26-1c0-2.08,0-3.55,0-5a14.16,14.16,0,0,0-.25-1.83l2,.67c.21.06.35.16.35.31s-.29.43-.72.77c0,1.86,0,2.13,0,4.5l2-.9.49-.83c.11-.16.21-.35.36-.35a.76.76,0,0,1,.39.17l1,.6a.42.42,0,0,1,.21.33c0,.25-.23.46-.52.73,0,6.22,0,7.65-2.46,8.29a2.64,2.64,0,0,0-1.25-1.74v-.1a4.64,4.64,0,0,0,.64,0c1.46,0,1.68-.19,1.68-4.56,0-1.41,0-1.64,0-2.24l-2.47,1.12c0,3,.05,5,.07,5.59,0,.27.06,1.5.06,1.75a1,1,0,0,1-1.06,1c-.29,0-.5-.1-.5-.54,0-.22.07-1.28.07-1.49,0-1.33,0-2.11.06-5.76l-2.26,1c0,.83,0,7.2,0,7.45a.69.69,0,0,0,.5.58c.27.08,3.23.08,3.63.08,2.13,0,2.77,0,3.21-.77a17.7,17.7,0,0,0,.91-2.51h.15a7.32,7.32,0,0,0,.39,2.47c.13.21.48.4.48.6S66.28,488.19,64.72,488.46Z"/><path d="M78.08,475.81a21.56,21.56,0,0,0,1.22-3.46H73.89a14.05,14.05,0,0,0-2.45.19l-.41-.83c1.06.08,2.11.14,3.19.14H86.58l.91-.89c.17-.16.33-.31.4-.31s.18.06.39.23l1.16.93a.47.47,0,0,1,.21.31c0,.21-.21.23-.33.23H81.25a36.11,36.11,0,0,1-2.67,3.46h7.54l.58-.6c.21-.2.27-.27.4-.27a.88.88,0,0,1,.37.21l1,.81a.39.39,0,0,1,.16.27c0,.19-.08.25-.83.66,0,2.35,0,5.31,0,7.66,0,1,.11,2.5.11,3.46a.93.93,0,0,1-1,1c-.62,0-.62-.33-.58-1.51H74.49c0,.08,0,.56,0,.66a1,1,0,0,1-1,1c-.67,0-.67-.46-.67-.65s.06-1.09.06-1.26c0-2.26.15-7,.15-9a14.47,14.47,0,0,0-.29-3.4l2.14,1Zm-3.59.5V487h2.76V476.31Zm7.32,3.15v-3.15H78.64v3.15Zm0,3.63V480H78.64v3.13Zm0,3.88v-3.38H78.64V487Zm4.48,0V476.31H83.22V487Z"/><path d="M93.05,484.67a26.65,26.65,0,0,0,3.86-7.94h-.48a15.47,15.47,0,0,0-2.44.18l-.4-.83c1.18.11,2.39.15,3.47.15,0-1,0-2.47,0-3.36a19.71,19.71,0,0,1-3.38.37v-.16a34.87,34.87,0,0,0,5.6-2.32,1.62,1.62,0,0,0,.44-.5l1.43,1.2a.37.37,0,0,1,.14.29c0,.21-.2.21-.39.21l-.6,0a18,18,0,0,1-1.93.62c0,.95,0,2.86,0,3.67h.39l.5-.75c.09-.12.19-.27.31-.27s.29.15.4.23l.89.75a.44.44,0,0,1,.21.33c0,.21-.21.21-.31.21H98.34c0,.39,0,1.32,0,1.82,2,.73,2.72,2,2.72,2.62a.79.79,0,0,1-.77.82c-.5,0-.56-.2-1-1.36a3.78,3.78,0,0,0-1-1.81c0,3.61,0,4,.08,5.6,0,1.41.09,3.05.09,3.8,0,.37,0,1.2-1,1.2-.54,0-.6-.31-.6-.71,0-.68.17-3.73.19-4.35,0-2,0-2.84,0-4.65a13.65,13.65,0,0,1-3.92,5.06Zm6.66,4.38c1.45-.71,3.79-2.08,4.29-3l1.49,1.1a.36.36,0,0,1,.19.31c0,.29-.48.27-1,.27a16.56,16.56,0,0,1-4.94,1.43Zm9.21-16.51.51-.83c.11-.17.21-.29.32-.29s.27.14.39.25l1,.83a.43.43,0,0,1,.2.33c0,.19-.16.21-.31.21h-4.39v1.7h1.66l.49-.75c.09-.12.17-.25.31-.25s.25.13.38.23l.85.72a.49.49,0,0,1,.21.34c0,.18-.19.2-.32.2h-3.58v1.87h3.44l.6-.85c.1-.17.23-.27.33-.27s.25.12.37.25l.9.83a.53.53,0,0,1,.2.33c0,.21-.16.21-.31.21h-8.62a14.53,14.53,0,0,0-2.45.18l-.42-.82c1.06.08,2.14.14,3.2.14h1.35v-1.87h-.5a13.16,13.16,0,0,0-2.45.21l-.39-.83c.62,0,1.53.13,3.34.13,0-.81,0-1.31,0-1.7h-1.37a14.41,14.41,0,0,0-2.45.18l-.42-.83c1.52.13,2.85.15,3.2.15h1a6,6,0,0,0-.37-2.22L107,471a.32.32,0,0,1,.29.31c0,.27-.48.5-.58.54v.73Zm-.48,6.49.48-.52c.08-.08.2-.21.29-.21s.25.13.33.19l.81.68a.54.54,0,0,1,.22.38c0,.21-.24.37-.6.54a7.23,7.23,0,0,0,0,.76c0,.71.17,3.8.17,4.42a.85.85,0,0,1-1,1c-.53,0-.53-.27-.51-.71h-4.94c0,.48.06,1-.93,1-.35,0-.54-.1-.54-.47,0,0,0-.21,0-.5,0-.77,0-3,0-3.92a13.3,13.3,0,0,0-.23-3.28l1.64.73Zm-4.73.5V481h4.94v-1.47Zm0,2V483h4.94V481.5Zm0,2V485h4.94v-1.53Zm3.49,2.82c1.86.16,4.49,1.1,4.49,2.34a.83.83,0,0,1-.82.81c-.48,0-1-.52-1.31-.91a10.69,10.69,0,0,0-2.36-2.1Z"/><path d="M118.69,475.79a1.22,1.22,0,0,1-1.21,1.21,1.21,1.21,0,0,1-1.2-1.21,1.21,1.21,0,0,1,2.41,0Zm0,8.17a1.21,1.21,0,0,1-1.21,1.21,1.21,1.21,0,0,1,0-2.41A1.21,1.21,0,0,1,118.69,484Z"/><path d="M123.23,487.1h1.14c1.08,0,1.45-.42,1.45-1.27V474.61c0-.64-.6-.74-1-.74h-1.57v-.65h.37a7.9,7.9,0,0,0,3.38-.87c.15-.08.21-.12.29-.12s.23.12.23.29v13.31c0,.89.44,1.27,1.45,1.27h1.14v.66h-6.88Z"/><path d="M138.2,478.66a3.52,3.52,0,0,1,1.81-.54c2.05,0,3.71,2.07,3.71,4.58,0,2.88-2.06,5.45-4.44,5.45s-4.77-2.67-4.77-7.15c0-4.79,2.7-8.77,5.87-8.77,1.39,0,2.36.83,2.36,1.82a1,1,0,0,1-1.05,1.08c-.42,0-1.1-.27-1.14-1.45,0-.46-.07-.75-.63-.75a2.1,2.1,0,0,0-1.51.75c-1.85,2-1.95,5.08-2,6.95A5.09,5.09,0,0,1,138.2,478.66Zm-.68,7.67a2,2,0,0,0,1.68,1.12c1.1,0,2.65-1.14,2.65-4.56,0-.94-.23-3.84-2.36-3.84-.79,0-2.12.58-3.09,2.82A9.89,9.89,0,0,0,137.52,486.33Z"/><path d="M154.63,480.71a3.86,3.86,0,0,1,1.41,3.07c0,2.55-2.1,4.37-4.84,4.37-2.23,0-4.12-1.26-4.12-2.92a1.2,1.2,0,0,1,1.18-1.33,1,1,0,0,1,1,1,1.69,1.69,0,0,1-.13.66,1.56,1.56,0,0,0-.06.48c0,.79.89,1.37,1.87,1.37a3.55,3.55,0,0,0,3.21-3.67,3.62,3.62,0,0,0-3.23-3.8c-.13,0-.71.09-.83.09a.41.41,0,0,1-.46-.44.47.47,0,0,1,.48-.48c.12,0,.74.13.89.13a3,3,0,0,0,2.84-3.24c0-1.61-1-3.11-2.61-3.11a1.34,1.34,0,0,0-1.62,1.7,2.2,2.2,0,0,1,.06.5,1.1,1.1,0,0,1-1.06,1.14,1.07,1.07,0,0,1-1-1.14c0-1.14,1.32-2.9,4-2.9s4.15,1.66,4.15,3.48a3.59,3.59,0,0,1-.77,2.12,4.93,4.93,0,0,1-2.64,1.76A5.6,5.6,0,0,1,154.63,480.71Z"/><path d="M162,487a1.21,1.21,0,1,1-1.2-1.2A1.22,1.22,0,0,1,162,487Z"/><path d="M174.6,483.59a4.62,4.62,0,0,1-4.9,4.56c-2.36,0-4.47-1.37-4.47-3.73s1.78-3.3,3.69-4.42c-1.1-.64-3.09-1.8-3.09-4.06,0-2.05,1.61-3.71,4.14-3.71a3.48,3.48,0,0,1,3.8,3.27c0,1.77-1.7,3.05-2.59,3.72C173.13,480.42,174.6,481.46,174.6,483.59Zm-7.63.77a3,3,0,0,0,3,3.09,3.23,3.23,0,0,0,3.16-3.13c0-2-2.06-3.13-3.57-4C168.61,481,167,482.31,167,484.36Zm5.28-8.63a2.62,2.62,0,0,0-2.57-2.8,2.39,2.39,0,0,0-2.44,2.47c0,1.45,1.18,2.18,3.33,3.46A3.91,3.91,0,0,0,172.25,475.73Z"/><path d="M182.36,488.15a4.19,4.19,0,0,1-3.41-2.24,12.9,12.9,0,0,1-1.26-5.91c0-4.41,1.89-7.77,4.67-7.77,2.13,0,4.66,2.3,4.66,8C187,485.27,184.89,488.15,182.36,488.15ZM180,475.69a18.85,18.85,0,0,0-.47,4.5c0,4.62,1.09,7.26,2.8,7.26,1.43,0,2.07-1.91,2.3-2.7a19.28,19.28,0,0,0,.49-4.56c0-4.73-1.14-7.26-2.79-7.26C180.88,472.93,180.24,475,180,475.69Z"/><path d="M193.51,477.56v1.63a4.71,4.71,0,0,1,3.42-1.63,2.29,2.29,0,0,1,2.49,1.86,5.2,5.2,0,0,1,3.72-1.86c1.82,0,2.65,1.1,2.65,3.4v4.89c0,.79.41,1.25,1,1.25h.37v.66h-4.33v-.66h.39c.72,0,1-.56,1-1.25v-4.77c0-.58-.09-2.63-1.81-2.63a3.9,3.9,0,0,0-2.94,1.8,5.05,5.05,0,0,1,0,.71v4.89c0,.87.48,1.25,1,1.25h.6v.66h-4.77v-.66h.6c.58,0,1.06-.4,1.06-1.25v-4.77c0-.43-.07-2.63-1.81-2.63a3.71,3.71,0,0,0-2.8,1.64v5.76c0,.87.48,1.25,1,1.25h.37v.66h-4.31v-.66H191c.63,0,1-.44,1-1.25v-6.24a.85.85,0,0,0-.85-1,1.83,1.83,0,0,0-.62.08l-.11-.4Zm10.72-1.23a12.86,12.86,0,0,1,1.21-1.32c.43-.48,1.18-1.29,1.18-2,0-.27-.17-.77-.64-.77a.69.69,0,0,0-.71.56c0,.08.19.45.19.54a.57.57,0,0,1-.58.54.65.65,0,0,1-.63-.71,1.76,1.76,0,0,1,1.83-1.49,1.4,1.4,0,0,1,1.51,1.41,1.66,1.66,0,0,1-.64,1.35c-.23.22-1.51,1.26-1.72,1.55h1.28a.84.84,0,0,0,.81-.7l.33.1-.43,1.43h-3Z"/><path d="M251.48,488.67c-7.53-.1-10.76-.14-13.56-2.86a9.72,9.72,0,0,1-4.23,3.59l-.13-.13a13.09,13.09,0,0,0,3.59-4.31,10.09,10.09,0,0,1-1.93-4l.21-.17a9.24,9.24,0,0,0,2.09,3.4,14.27,14.27,0,0,0,1.16-5.64h-1.74c-.41,1.16-.52,1.47-1.2,1.47-.15,0-.75,0-.75-.47a12.11,12.11,0,0,1,.5-1.47c1.08-2.78,1.93-5,2.18-6h-.75a13.55,13.55,0,0,0-2.45.19l-.39-.83c1.06.08,2.11.15,3.17.15h.38l.53-.44c.19-.14.29-.21.4-.21a.75.75,0,0,1,.35.21l.81.69a.42.42,0,0,1,.21.37c0,.25-.42.43-1,.66-.45,1.16-.72,1.87-1.86,5.14h1.41l.56-.43a.75.75,0,0,1,.39-.21c.15,0,.25.08.39.23l.65.66a.72.72,0,0,1,.25.44c0,.19-.21.31-.65.58a14.1,14.1,0,0,1-1.7,5.7,11.42,11.42,0,0,0,7.22,2.06,46.55,46.55,0,0,0,7.3-.61l0,.17A2.54,2.54,0,0,0,251.48,488.67Zm1.22-12.92h-2.86c.08,2.47.08,2.47.08,2.62,0,.41,0,1.05-1,1.05-.56,0-.54-.33-.52-.68h-2.55v2.16H249l.62-.79c.14-.17.23-.27.35-.27s.23.1.4.23l.93.78c.1.11.21.23.21.32s-.15.22-.31.22h-5.31l0,2.2h3.69l.79-.91c.16-.19.25-.27.35-.27s.23.08.37.23l1,.91a.51.51,0,0,1,.21.35c0,.13-.13.19-.32.19h-6.07c0,.25,0,1.47,0,1.74a1,1,0,0,1-.91.75c-.67,0-.67-.38-.67-.6s.11-1.58.11-1.89H243a14.64,14.64,0,0,0-2.43.19l-.42-.81c1.62.12,3.16.12,3.2.12h1.08c0-.56,0-1.08,0-2.2h-.62a13.78,13.78,0,0,0-2.43.19l-.41-.81c.62,0,1.78.13,3.48.13v-2.16h-.42a14.8,14.8,0,0,0-2.44.19l-.42-.81c1.5.1,3.07.12,3.28.12l0-2.49h-1.93a13.85,13.85,0,0,0-2.43.19l-.41-.83c1.06.1,2.12.15,3.17.15h1.6l0-2.43H244a16.05,16.05,0,0,0-2.45.19l-.39-.83c1.45.12,2.8.14,3.32.14a3.7,3.7,0,0,0-.31-1.93l2,.48c.23.06.35.14.35.33s-.25.38-.58.56v.56h2.41l.51-.45c.15-.13.25-.21.38-.21s.23.1.37.23l.58.56a.58.58,0,0,1,.25.39c0,.17-.17.29-.58.58a11.54,11.54,0,0,0,0,1.83h.75l.6-.77c.12-.17.22-.25.33-.25a.63.63,0,0,1,.39.21l.9.76c.1.11.2.21.2.31S252.91,475.75,252.7,475.75Zm-4.25,0h-2.57l0,2.49h2.59Zm0-2.92h-2.53l0,2.43h2.57Z"/><path d="M262.31,481.64c0,2.51,0,2.95,0,4.15,0,.73.08,1.89.08,2.61s-.89,1-1.08,1c-.45,0-.56-.27-.56-.58,0-.09,0-.85,0-1,.09-1.55.09-2.11.13-5.43a22.32,22.32,0,0,1-2.55,1.18c0,.37-.07.73-.4.73s-.35-.23-.41-.36l-1-1.86c1.29.06,1.64,0,4.36-.79,0-1.83,0-3.88,0-5.46h-1.87a16.45,16.45,0,0,1-1.84,4.59l-.13,0a33,33,0,0,0,.93-7.2,3.74,3.74,0,0,0-.2-1.41l2,.48c.16,0,.35.08.35.31s-.29.41-.62.54a21.46,21.46,0,0,1-.35,2.24H261c0-2.93-.11-3.78-.56-4.81l2.28.66c.12,0,.31.14.31.29s-.35.44-.67.6c0,.44,0,2.63,0,3.26h.41l.58-.79c.1-.13.21-.27.31-.27a.63.63,0,0,1,.37.23l.83.79a.45.45,0,0,1,.19.31c0,.18-.19.22-.31.22h-2.38c0,1.33,0,3.65,0,5,.41-.14,2.34-.81,2.71-.95l.06.14A24.34,24.34,0,0,1,262.31,481.64ZM274.54,476c-.17,4.34-.33,8.28-1.64,11a4,4,0,0,1-3.21,2.1c-.15-.94-.48-1.52-1.77-2.45l.07-.15a8.94,8.94,0,0,0,2.51.44c.49,0,.82,0,1.41-1.47a32.28,32.28,0,0,0,1.16-10h-1.18c-.61,4.69-2.6,10.72-8.59,13l-.06-.14c4.39-3.3,6.26-6.8,7.13-12.84h-1.16c-.85,4.38-3.19,8.15-6.2,9.56l-.06-.12a17.71,17.71,0,0,0,4.75-9.44h-1a13.14,13.14,0,0,1-2.8,4.13l-.1-.11a23.11,23.11,0,0,0,2.67-8.46,2.49,2.49,0,0,0-.1-.7l2.07.83c.21.08.31.21.31.33s-.39.37-.72.46c-.54,1.66-.9,2.5-1.1,3h6l.5-.52c.12-.14.23-.22.31-.22a.87.87,0,0,1,.37.18l1,.73c.14.1.22.17.22.29C275.24,475.69,274.77,475.92,274.54,476Z"/><path d="M286.9,475.81a21.66,21.66,0,0,0,1.23-3.46h-5.42a13.88,13.88,0,0,0-2.44.19l-.42-.83c1.06.08,2.12.14,3.19.14H295.4l.92-.89a1.23,1.23,0,0,1,.39-.31c.1,0,.19.06.39.23l1.17.93c.08.07.2.19.2.31s-.2.23-.33.23h-8.07a36.11,36.11,0,0,1-2.67,3.46H295l.58-.6c.2-.2.27-.27.39-.27s.27.13.38.21l.95.81a.39.39,0,0,1,.16.27c0,.19-.08.25-.82.66,0,2.35,0,5.31,0,7.66,0,1,.1,2.5.1,3.46a.93.93,0,0,1-1,1c-.62,0-.62-.33-.58-1.51h-11.8c0,.08,0,.56,0,.66a1,1,0,0,1-1,1c-.67,0-.67-.46-.67-.65s.07-1.09.07-1.26c0-2.26.14-7,.14-9a14.47,14.47,0,0,0-.29-3.4l2.14,1Zm-3.59.5V487h2.76V476.31Zm7.32,3.15v-3.15h-3.17v3.15Zm0,3.63V480h-3.17v3.13Zm0,3.88v-3.38h-3.17V487Zm4.48,0V476.31H292V487Z"/><path d="M301.88,484.67a26.86,26.86,0,0,0,3.85-7.94h-.47a15.51,15.51,0,0,0-2.45.18l-.4-.83c1.19.11,2.39.15,3.47.15,0-1,0-2.47,0-3.36a19.82,19.82,0,0,1-3.38.37v-.16a35.25,35.25,0,0,0,5.6-2.32,1.55,1.55,0,0,0,.43-.5l1.43,1.2a.38.38,0,0,1,.15.29c0,.21-.21.21-.4.21l-.6,0a17.23,17.23,0,0,1-1.93.62c0,.95,0,2.86,0,3.67h.4l.5-.75c.08-.12.18-.27.31-.27s.29.15.39.23l.89.75a.42.42,0,0,1,.21.33c0,.21-.21.21-.31.21h-2.39c0,.39,0,1.32,0,1.82,2,.73,2.72,2,2.72,2.62a.79.79,0,0,1-.77.82c-.49,0-.56-.2-1-1.36a3.78,3.78,0,0,0-1-1.81c.05,3.61.05,4,.09,5.6,0,1.41.08,3.05.08,3.8,0,.37,0,1.2-1,1.2-.54,0-.6-.31-.6-.71,0-.68.17-3.73.19-4.35,0-2,0-2.84,0-4.65a13.55,13.55,0,0,1-3.92,5.06Zm6.65,4.38c1.45-.71,3.8-2.08,4.29-3l1.5,1.1a.37.37,0,0,1,.18.31c0,.29-.47.27-1,.27a16.47,16.47,0,0,1-4.94,1.43Zm9.21-16.51.52-.83c.1-.17.21-.29.31-.29s.27.14.39.25l1,.83a.44.44,0,0,1,.21.33c0,.19-.17.21-.31.21h-4.4v1.7h1.66l.5-.75c.08-.12.16-.25.31-.25s.25.13.37.23l.85.72a.46.46,0,0,1,.21.34c0,.18-.19.2-.31.2h-3.59v1.87h3.44l.6-.85c.11-.17.23-.27.33-.27s.25.12.38.25l.89.83c.1.1.21.21.21.33s-.17.21-.31.21h-8.63a14.66,14.66,0,0,0-2.45.18l-.41-.82c1.06.08,2.13.14,3.19.14h1.35v-1.87h-.5a13.16,13.16,0,0,0-2.45.21l-.39-.83c.62,0,1.54.13,3.34.13,0-.81,0-1.31,0-1.7h-1.37a14.53,14.53,0,0,0-2.45.18l-.41-.83c1.51.13,2.84.15,3.19.15h1a5.8,5.8,0,0,0-.38-2.22l2.12.64a.32.32,0,0,1,.29.31c0,.27-.48.5-.58.54v.73Zm-.48,6.49.48-.52c.08-.08.21-.21.29-.21s.25.13.33.19l.81.68a.52.52,0,0,1,.23.38c0,.21-.25.37-.6.54a7.23,7.23,0,0,0,0,.76c0,.71.16,3.8.16,4.42a.85.85,0,0,1-.95,1c-.54,0-.54-.27-.52-.71h-4.94c.05.48.07,1-.93,1-.35,0-.54-.1-.54-.47,0,0,0-.21,0-.5,0-.77,0-3,0-3.92a13.3,13.3,0,0,0-.23-3.28l1.64.73Zm-4.73.5V481h4.94v-1.47Zm0,2V483h4.94V481.5Zm0,2V485h4.94v-1.53Zm3.49,2.82c1.87.16,4.5,1.1,4.5,2.34a.84.84,0,0,1-.83.81c-.48,0-1-.52-1.31-.91a10.22,10.22,0,0,0-2.36-2.1Z"/><path d="M327.51,475.79a1.21,1.21,0,1,1-2.41,0,1.21,1.21,0,0,1,2.41,0Zm0,8.17a1.21,1.21,0,1,1-1.2-1.2A1.21,1.21,0,0,1,327.51,484Z"/><path d="M332.05,487.1h1.14c1.08,0,1.45-.42,1.45-1.27V474.61c0-.64-.6-.74-1-.74h-1.58v-.65h.38a8,8,0,0,0,3.38-.87c.14-.08.2-.12.29-.12s.22.12.22.29v13.31c0,.89.44,1.27,1.46,1.27h1.14v.66h-6.89Z"/><path d="M347.94,488.15a4.18,4.18,0,0,1-3.4-2.24,12.91,12.91,0,0,1-1.27-5.91c0-4.41,1.89-7.77,4.67-7.77,2.13,0,4.66,2.3,4.66,8C352.6,485.27,350.47,488.15,347.94,488.15Zm-2.33-12.46a18.85,18.85,0,0,0-.47,4.5c0,4.62,1.1,7.26,2.8,7.26,1.43,0,2.07-1.91,2.3-2.7a19.21,19.21,0,0,0,.5-4.56c0-4.73-1.14-7.26-2.8-7.26C346.47,472.93,345.82,475,345.61,475.69Z"/><path d="M365,472.62v1.1c-3.3,5.08-4.46,8-4.73,12.59,0,.54-.11,1.84-1.16,1.84a1.09,1.09,0,0,1-1.06-1.14c0-1.47,1.45-5.82,5.83-12.75h-3.55c-3,0-3.46,1.39-3.92,2.72l-.62-.15.85-4.21Z"/><path d="M370.77,487a1.2,1.2,0,1,1-1.2-1.2A1.22,1.22,0,0,1,370.77,487Z"/><path d="M383.36,472.62v1.1c-3.3,5.08-4.46,8-4.73,12.59,0,.54-.1,1.84-1.16,1.84a1.09,1.09,0,0,1-1.06-1.14c0-1.47,1.45-5.82,5.83-12.75h-3.55c-3,0-3.46,1.39-3.92,2.72l-.62-.15.85-4.21Z"/><path d="M394.68,487.76h-8.15v-.56a14.13,14.13,0,0,1,3.05-4.65c3.05-3.52,4.09-4.7,4.09-6.78a2.67,2.67,0,0,0-2.76-2.84c-1.45,0-2.32.87-2.32,1.62a1.17,1.17,0,0,0,.2.64,1.82,1.82,0,0,1,.44,1,1.15,1.15,0,0,1-1.12,1.16,1.3,1.3,0,0,1-1.18-1.45,4.15,4.15,0,0,1,4.46-3.71c2.57,0,4.14,1.62,4.14,3.85s-1.2,3.24-3.07,4.84c-.7.58-3.44,2.92-4.48,5.2h2.87c2.9,0,3.58-1.12,4.21-2.84l.62.23Z"/><path d="M403.41,477.56v1.63a4.71,4.71,0,0,1,3.43-1.63,2.29,2.29,0,0,1,2.48,1.86,5.2,5.2,0,0,1,3.72-1.86c1.82,0,2.65,1.1,2.65,3.4v4.89c0,.79.42,1.25,1,1.25h.37v.66h-4.33v-.66h.39c.73,0,1-.56,1-1.25v-4.77c0-.58-.09-2.63-1.81-2.63a3.9,3.9,0,0,0-2.94,1.8,5.05,5.05,0,0,1,0,.71v4.89c0,.87.48,1.25,1,1.25h.6v.66h-4.77v-.66h.6c.58,0,1.06-.4,1.06-1.25v-4.77c0-.43-.06-2.63-1.81-2.63a3.71,3.71,0,0,0-2.8,1.64v5.76c0,.87.48,1.25,1,1.25h.37v.66h-4.31v-.66h.37c.63,0,1-.44,1-1.25v-6.24a.85.85,0,0,0-.85-1,1.83,1.83,0,0,0-.62.08l-.1-.4Zm10.73-1.23a11.38,11.38,0,0,1,1.2-1.32c.43-.48,1.18-1.29,1.18-2,0-.27-.17-.77-.64-.77a.69.69,0,0,0-.71.56c0,.08.19.45.19.54a.57.57,0,0,1-.58.54.64.64,0,0,1-.62-.71,1.75,1.75,0,0,1,1.82-1.49,1.4,1.4,0,0,1,1.51,1.41,1.66,1.66,0,0,1-.64,1.35c-.23.22-1.51,1.26-1.72,1.55h1.29c.54,0,.7-.41.81-.7l.33.1-.44,1.43h-3Z"/><path d="M426.85,489.92a12.7,12.7,0,0,1,0-20.08l.18.29a14,14,0,0,0,0,19.5Z"/><path d="M435.81,477.41c-.35.44-1.56,2.55-1.83,3a13.52,13.52,0,0,1-5.74,5.22l0-.18c3.9-3.45,5.83-7.76,5.83-8.65,0-.52-.19-1-1.31-1.49a3.14,3.14,0,0,1,1.06-.19,3.63,3.63,0,0,1,2.46,1.7A1.85,1.85,0,0,1,435.81,477.41Zm9.16,7.07c-.6,0-.72-.45-1.26-2.15a18.74,18.74,0,0,0-4.48-6.95c2.63.79,6.51,4.87,6.51,8C445.74,483.9,445.43,484.48,445,484.48Zm-.56-8.23c-.29,0-.37-.1-1.09-.95a7.84,7.84,0,0,0-1.95-1.66c1.3,0,3.52.7,3.52,2C444.89,476,444.64,476.25,444.41,476.25Zm1.73-1.89c-.25,0-.32-.06-.88-.66a8.79,8.79,0,0,0-2.3-1.62c1.33-.08,3.67.5,3.67,1.7A.52.52,0,0,1,446.14,474.36Z"/><path d="M455.84,476.35c0,.48-.2,2.62-.25,3-.53,4.46-3.21,6.83-5,7.55l-.11-.12a12.78,12.78,0,0,0,3.84-9.83c0-1.72,0-1.72-1.6-2.14a2.44,2.44,0,0,1,1.37-.54c.54,0,1.95.46,1.95,1C456.07,475.52,455.86,476.21,455.84,476.35Zm5,8.57a6.11,6.11,0,0,0-1.3,1.16c-.11.1-.29.31-.42.31-.39,0-1.33-1.7-1.33-2s.25-.77.27-.91a32.38,32.38,0,0,0,.19-4.13c0-.77,0-4.6-.12-5.1s-.5-.64-1.5-1a2.26,2.26,0,0,1,1.16-.44c.63,0,2.24.62,2.24,1.24a11.48,11.48,0,0,1-.29,1.19c-.2,1.05-.31,6.86-.31,8.13,0,.08,0,.35.15.35.5,0,4.25-2.39,7.5-6.53l.17.12A19.07,19.07,0,0,1,460.88,484.92Z"/><path d="M484.46,476.44a.87.87,0,0,0-.45.66c-.34,1.35-.5,2.39-1.16,6.26.39.09,1,.4,1,.85s-.54.56-1.12.56c-.39,0-2.12-.08-2.47-.08a22.72,22.72,0,0,0-5.78.62,9.36,9.36,0,0,1-1.1.36c-.65,0-1.72-1.5-1.72-2.31a1.93,1.93,0,0,1,.14-.68A3.25,3.25,0,0,0,474,484c.71,0,1.58-.09,7.59-.56.64-4.3,1-6.56,1-7.37,0-.18-.09-.24-.3-.24a59.63,59.63,0,0,0-7.71.93,7,7,0,0,1-.93.33c-.69,0-1.85-1.37-1.85-2.41a1.83,1.83,0,0,1,.11-.7,2.84,2.84,0,0,0,2.36,1.47c1,0,7.46-.47,8-.68a7,7,0,0,1,1-.56c.23,0,1.7,1.24,1.7,1.66C485,476.1,484.88,476.17,484.46,476.44Z"/><path d="M505.47,484.34l-1.62-.27a18.84,18.84,0,0,0-3.13-.23,37.24,37.24,0,0,0-7.75.87,3.77,3.77,0,0,1-1.12.29,2.62,2.62,0,0,1-1.91-2.42A2.12,2.12,0,0,1,490,482a2.74,2.74,0,0,0,2.45,1.28c.12,0,5.74-.47,6.82-.52a22.17,22.17,0,0,0,3.73-.35,3.42,3.42,0,0,1,.88-.23c.43,0,2.09.73,2.09,1.54A.53.53,0,0,1,505.47,484.34Zm-3.73-8.15-3.19.21a20,20,0,0,0-3.72.43,1.23,1.23,0,0,1-.37,0,2.06,2.06,0,0,1-1.91-2,4.18,4.18,0,0,0,2.55.73,27.77,27.77,0,0,0,5.17-.56c.18,0,1-.38,1.22-.38.39,0,1.66.31,1.66,1C503.15,476.08,502.78,476.13,501.74,476.19Z"/><path d="M525.63,480.58c-.19,0-.68,0-.73,0a21.3,21.3,0,0,0-2.34-.08c-6.32,0-8.19.12-9.12.37-.07,0-.73.19-.79.19-.54,0-1.66-1.33-1.66-2.28a2.38,2.38,0,0,1,.25-1c.7,1.58,1.35,1.58,3.5,1.58,1.43,0,8.17,0,9.13-.25.12,0,.72-.19.85-.19s2.2.23,2.2,1C526.92,480.56,525.88,480.58,525.63,480.58Z"/><path d="M538.57,475.81a21.66,21.66,0,0,0,1.23-3.46h-5.42a13.88,13.88,0,0,0-2.44.19l-.42-.83c1.06.08,2.12.14,3.2.14h12.35L548,471a1.23,1.23,0,0,1,.39-.31c.1,0,.19.06.4.23l1.16.93c.08.07.2.19.2.31s-.2.23-.33.23h-8.07a36.11,36.11,0,0,1-2.67,3.46h7.55l.58-.6c.21-.2.27-.27.39-.27s.27.13.38.21l.95.81a.42.42,0,0,1,.17.27c0,.19-.09.25-.83.66,0,2.35,0,5.31,0,7.66,0,1,.1,2.5.1,3.46a.93.93,0,0,1-1,1c-.62,0-.62-.33-.58-1.51H535c0,.08,0,.56,0,.66a1,1,0,0,1-1,1c-.66,0-.66-.46-.66-.65s.06-1.09.06-1.26c0-2.26.14-7,.14-9a14.47,14.47,0,0,0-.29-3.4l2.14,1Zm-3.59.5V487h2.76V476.31Zm7.33,3.15v-3.15h-3.18v3.15Zm0,3.63V480h-3.18v3.13Zm0,3.88v-3.38h-3.18V487Zm4.47,0V476.31h-3.06V487Z"/><path d="M553.55,484.67a26.86,26.86,0,0,0,3.85-7.94h-.47a15.51,15.51,0,0,0-2.45.18l-.39-.83c1.18.11,2.38.15,3.46.15,0-1,0-2.47,0-3.36a19.82,19.82,0,0,1-3.38.37v-.16a35.25,35.25,0,0,0,5.6-2.32,1.43,1.43,0,0,0,.43-.5l1.43,1.2a.35.35,0,0,1,.15.29c0,.21-.21.21-.4.21l-.6,0a17.23,17.23,0,0,1-1.93.62c0,.95,0,2.86,0,3.67h.4l.5-.75c.08-.12.18-.27.31-.27s.29.15.39.23l.89.75a.42.42,0,0,1,.21.33c0,.21-.21.21-.31.21h-2.39c0,.39,0,1.32,0,1.82,2,.73,2.71,2,2.71,2.62a.79.79,0,0,1-.76.82c-.5,0-.57-.2-1-1.36a3.86,3.86,0,0,0-1-1.81c0,3.61,0,4,.08,5.6,0,1.41.08,3.05.08,3.8,0,.37,0,1.2-1,1.2-.53,0-.6-.31-.6-.71,0-.68.17-3.73.19-4.35,0-2,0-2.84,0-4.65a13.55,13.55,0,0,1-3.92,5.06Zm6.65,4.38c1.45-.71,3.8-2.08,4.3-3l1.49,1.1a.38.38,0,0,1,.19.31c0,.29-.48.27-1,.27a16.47,16.47,0,0,1-4.94,1.43Zm9.21-16.51.52-.83c.1-.17.21-.29.31-.29s.27.14.39.25l1,.83a.44.44,0,0,1,.21.33c0,.19-.17.21-.31.21h-4.4v1.7h1.66l.5-.75c.08-.12.16-.25.31-.25s.25.13.37.23l.85.72a.46.46,0,0,1,.21.34c0,.18-.19.2-.31.2h-3.59v1.87h3.44l.6-.85c.11-.17.23-.27.34-.27s.24.12.37.25l.89.83c.1.1.21.21.21.33s-.17.21-.31.21h-8.63a14.66,14.66,0,0,0-2.45.18l-.41-.82c1.06.08,2.13.14,3.19.14h1.35v-1.87h-.5a13,13,0,0,0-2.44.21l-.4-.83c.62,0,1.54.13,3.34.13,0-.81,0-1.31,0-1.7h-1.37a14.53,14.53,0,0,0-2.45.18l-.41-.83c1.51.13,2.84.15,3.19.15h1a5.8,5.8,0,0,0-.38-2.22l2.12.64a.32.32,0,0,1,.29.31c0,.27-.48.5-.58.54v.73Zm-.48,6.49.48-.52c.08-.08.21-.21.29-.21s.25.13.33.19l.81.68a.52.52,0,0,1,.23.38c0,.21-.25.37-.6.54a7.23,7.23,0,0,0,0,.76c0,.71.16,3.8.16,4.42a.85.85,0,0,1-1,1c-.54,0-.54-.27-.52-.71h-4.93c0,.48.06,1-.94,1-.35,0-.54-.1-.54-.47,0,0,0-.21,0-.5,0-.77,0-3,0-3.92a13.3,13.3,0,0,0-.23-3.28l1.64.73Zm-4.72.5V481h4.93v-1.47Zm0,2V483h4.93V481.5Zm0,2V485h4.93v-1.53Zm3.48,2.82c1.87.16,4.5,1.1,4.5,2.34a.84.84,0,0,1-.83.81c-.48,0-1-.52-1.31-.91a10.22,10.22,0,0,0-2.36-2.1Z"/><path d="M583.49,473c-.27.54-.83,1.68-1.39,2.64-.89,1.51-1,1.68-1.1,1.88a5.47,5.47,0,0,1,2.53,4.26,2.49,2.49,0,0,1-2.38,2.63,2.63,2.63,0,0,0-1.12-1.87l0-.16a6.38,6.38,0,0,0,1.08.12c.58,0,1-.1,1-1.39a4.64,4.64,0,0,0-1.57-3.54,32.38,32.38,0,0,0,1.45-5.33h-2.22c0,1.16,0,7.27,0,8.93,0,1.08.1,6.58.1,6.85a1,1,0,0,1-1.07,1,.51.51,0,0,1-.56-.58c0-.08,0-.29,0-.41.16-2.3.22-4.15.22-11.18a25.91,25.91,0,0,0-.39-6.05l1.89.93h2.11l.46-.44a.54.54,0,0,1,.33-.2c.08,0,.19.08.33.2l1,.83a.44.44,0,0,1,.12.29C584.28,472.64,584.12,472.77,583.49,473Zm2.37,11.49a12.23,12.23,0,0,1-4.32,3.53l0-.13c1.56-1.57,3.09-3.34,3.34-5l1.6.94c.18.1.27.16.27.31C586.71,484.42,586.13,484.44,585.86,484.44Zm8.83-6.2a15.08,15.08,0,0,1-5.76-6l-.11,0a19.48,19.48,0,0,1-6.26,6.41l-.08-.17c2.15-1.93,4.68-5.79,5-7.82l1.88.83a.33.33,0,0,1,.19.29c0,.25-.21.31-.31.36,3.13,3.6,5.49,4.27,7.15,4.56v.12A3.25,3.25,0,0,0,594.69,478.24Zm-.46,3.73h-5c0,.71,0,3.84,0,4.48,0,1.45-.11,2.18-2.41,2.86a2.66,2.66,0,0,0-1.7-2v-.15c.48,0,1.18.1,1.85.1s.83,0,.87-.35c0-.19,0-1.53,0-5h-1.2a12.58,12.58,0,0,0-2.45.19l-.39-.83c1.41.13,2.88.15,3.17.15h.85v-3.24a14.27,14.27,0,0,0-2.68.19l-.41-.83c1.41.12,2.9.14,3.19.14h1.89l.58-.8c.13-.17.19-.27.31-.27s.21.08.37.22l1,.81a.42.42,0,0,1,.21.31c0,.21-.19.23-.33.23h-2.76v3.24h2.69l.58-1c.07-.12.19-.27.31-.27s.23.11.38.23l1.18,1c.08.08.21.16.21.31S594.38,482,594.23,482Zm-.12,5.87c-.58,0-.72-.25-1.29-1.32a8,8,0,0,0-2.32-2.7l.11-.1c1.86.39,4.35,1.68,4.35,3.19A.82.82,0,0,1,594.11,487.84Z"/><path d="M608,489.27c-.34,0-.4-.08-1.37-1.66-1.14-1.84-1.62-2.32-5.56-6.22a2.32,2.32,0,0,1-.75-1.47c0-.33.07-.68.77-1.43,2.1-2.22,5.25-5.52,5.25-6.32,0-.5-.46-1-1-1.5a2.49,2.49,0,0,1,2.8,2.12c0,.41-.21.58-.83,1.08a72.6,72.6,0,0,0-5.47,5.24,1,1,0,0,0-.36.77c0,.52.15.66,1.83,2.2,4.65,4.19,5.47,4.91,5.47,6C608.79,488.55,608.53,489.27,608,489.27Z"/><path d="M614.29,489.92l-.18-.29a14,14,0,0,0,0-19.5l.18-.29a12.7,12.7,0,0,1,0,20.08Z"/></g></g></svg>